M48
; DRILL file {KiCad 9.0.5} date 2026-02-07T15:11:58-0700
; FORMAT={-:-/ absolute / metric / decimal}
; #@! TF.CreationDate,2026-02-07T15:11:58-07:00
; #@! TF.GenerationSoftware,Kicad,Pcbnew,9.0.5
; #@! TF.FileFunction,Plated,1,4,PTH
FMAT,2
METRIC
; #@! TA.AperFunction,Plated,PTH,ViaDrill
T1C0.300
; #@! TA.AperFunction,Plated,PTH,ComponentDrill
T2C0.330
%
G90
G05
T1
X69.422Y-76.717
X72.038Y-79.823
X73.787Y-54.986
X74.52Y-56.481
X74.623Y-73.207
X75.568Y-62.859
X75.663Y-71.014
X76.571Y-58.195
X76.571Y-73.195
X78.183Y-59.658
X78.268Y-73.9
X78.507Y-63.429
X78.61Y-80.359
X78.837Y-60.296
X79.085Y-78.229
X79.207Y-58.392
X79.255Y-76.395
X79.255Y-77.195
X79.339Y-80.876
X79.858Y-79.357
X80.12Y-56.154
X80.148Y-83.195
X80.795Y-54.963
X82.168Y-93.312
X82.379Y-86.387
X82.6Y-78.195
X82.6Y-82.348
X82.726Y-79.544
X83.077Y-76.432
X83.176Y-73.183
X83.273Y-69.075
X83.398Y-70.612
X83.413Y-65.852
X83.424Y-67.916
X83.453Y-63.545
X83.754Y-59.518
X83.761Y-71.939
X84.123Y-81.41
X84.129Y-78.843
X84.553Y-83.425
X84.656Y-67.905
X84.685Y-65.841
X84.692Y-63.508
X84.718Y-70.618
X84.787Y-71.507
X84.868Y-81.479
X84.906Y-76.072
X85.023Y-84.685
X85.094Y-75.028
X85.238Y-89.912
X85.425Y-87.773
X85.578Y-57.434
X85.95Y-84.099
X86.131Y-77.318
X86.299Y-66.121
X86.304Y-83.382
X86.321Y-67.059
X86.334Y-67.897
X86.365Y-64.409
X86.391Y-63.495
X86.473Y-78.619
X86.565Y-75.121
X86.578Y-81.295
X86.607Y-79.408
X86.626Y-75.918
X87.053Y-74.447
X87.153Y-61.149
X87.467Y-85.175
X87.506Y-87.627
X87.571Y-56.195
X87.571Y-59.195
X88.349Y-90.526
X88.469Y-55.061
X88.571Y-104.195
X88.585Y-76.271
X88.757Y-62.759
X88.858Y-71.808
X89.66Y-57.741
X90.575Y-104.195
X91.069Y-86.351
X91.133Y-90.344
X91.22Y-62.518
X91.269Y-72.939
X91.282Y-72.139
X92.325Y-88.795
X92.499Y-87.148
X92.571Y-72.195
X92.582Y-84.869
X92.602Y-73.665
X92.883Y-59.885
X92.964Y-55.845
X93.219Y-102.859
X94.746Y-55.134
X95.104Y-73.482
X95.254Y-89.678
X95.453Y-82.855
X96.133Y-55.8
X96.154Y-87.266
X96.188Y-74.027
X96.601Y-57.526
X97.154Y-71.595
X97.281Y-70.223
X97.571Y-61.33
X97.571Y-66.913
X97.571Y-73.195
X97.591Y-79.164
X97.597Y-78.356
X97.686Y-82.201
X97.71Y-65.817
X97.975Y-83.681
X98.234Y-62.176
X98.243Y-64.06
X98.399Y-80.054
X98.426Y-69.405
X98.483Y-57.448
X98.571Y-66.195
X98.571Y-75.195
X98.75Y-77.758
X99.007Y-60.013
X99.093Y-82.761
X99.108Y-95.601
X99.206Y-90.813
X99.21Y-70.237
X99.681Y-81.312
X99.839Y-88.541
X99.847Y-71.647
X99.864Y-62.344
X99.915Y-69.183
X99.961Y-75.133
X99.998Y-67.088
X100.077Y-77.811
X100.213Y-82.682
X100.23Y-60.232
X100.307Y-66.319
X100.319Y-65.001
X100.559Y-64.192
X100.571Y-63.195
X100.571Y-70.195
X100.748Y-73.367
X100.768Y-74.714
X101.034Y-79.823
X101.341Y-64.357
X101.642Y-67.793
X101.841Y-58.363
X102.571Y-78.195
X103.571Y-63.195
X103.989Y-64.462
X104.196Y-66.957
X104.207Y-70.768
X104.812Y-57.953
X105.1Y-75.344
X107.26Y-68.106
X107.766Y-56.5
X111.479Y-61.401
X113.788Y-64.566
T2
X89.62Y-63.901
X89.62Y-65.076
X89.62Y-66.251
X89.62Y-67.426
X89.62Y-68.601
X89.768Y-77.009
X89.768Y-78.184
X89.768Y-79.359
X89.768Y-80.534
X89.768Y-81.709
X90.795Y-63.901
X90.795Y-65.076
X90.795Y-66.251
X90.795Y-67.426
X90.795Y-68.601
X90.943Y-77.009
X90.943Y-78.184
X90.943Y-79.359
X90.943Y-80.534
X90.943Y-81.709
X91.97Y-63.901
X91.97Y-65.076
X91.97Y-66.251
X91.97Y-67.426
X91.97Y-68.601
X92.118Y-77.009
X92.118Y-78.184
X92.118Y-79.359
X92.118Y-80.534
X92.118Y-81.709
X93.145Y-63.901
X93.145Y-65.076
X93.145Y-66.251
X93.145Y-67.426
X93.145Y-68.601
X93.293Y-77.009
X93.293Y-78.184
X93.293Y-79.359
X93.293Y-80.534
X93.293Y-81.709
X94.32Y-63.901
X94.32Y-65.076
X94.32Y-66.251
X94.32Y-67.426
X94.32Y-68.601
X94.468Y-77.009
X94.468Y-78.184
X94.468Y-79.359
X94.468Y-80.534
X94.468Y-81.709
M30
