%TF.GenerationSoftware,KiCad,Pcbnew,9.0.5*%
%TF.CreationDate,2026-05-09T17:07:01-07:00*%
%TF.ProjectId,StepperControllerCarrier,53746570-7065-4724-936f-6e74726f6c6c,rev?*%
%TF.SameCoordinates,Original*%
%TF.FileFunction,Copper,L1,Top*%
%TF.FilePolarity,Positive*%
%FSLAX46Y46*%
G04 Gerber Fmt 4.6, Leading zero omitted, Abs format (unit mm)*
G04 Created by KiCad (PCBNEW 9.0.5) date 2026-05-09 17:07:01*
%MOMM*%
%LPD*%
G01*
G04 APERTURE LIST*
G04 Aperture macros list*
%AMRoundRect*
0 Rectangle with rounded corners*
0 $1 Rounding radius*
0 $2 $3 $4 $5 $6 $7 $8 $9 X,Y pos of 4 corners*
0 Add a 4 corners polygon primitive as box body*
4,1,4,$2,$3,$4,$5,$6,$7,$8,$9,$2,$3,0*
0 Add four circle primitives for the rounded corners*
1,1,$1+$1,$2,$3*
1,1,$1+$1,$4,$5*
1,1,$1+$1,$6,$7*
1,1,$1+$1,$8,$9*
0 Add four rect primitives between the rounded corners*
20,1,$1+$1,$2,$3,$4,$5,0*
20,1,$1+$1,$4,$5,$6,$7,0*
20,1,$1+$1,$6,$7,$8,$9,0*
20,1,$1+$1,$8,$9,$2,$3,0*%
G04 Aperture macros list end*
%TA.AperFunction,ComponentPad*%
%ADD10C,1.500000*%
%TD*%
%TA.AperFunction,SMDPad,CuDef*%
%ADD11R,1.100000X2.200000*%
%TD*%
%TA.AperFunction,ComponentPad*%
%ADD12C,1.400000*%
%TD*%
%TA.AperFunction,ComponentPad*%
%ADD13RoundRect,0.770000X-0.980000X0.980000X-0.980000X-0.980000X0.980000X-0.980000X0.980000X0.980000X0*%
%TD*%
%TA.AperFunction,ComponentPad*%
%ADD14C,3.500000*%
%TD*%
%TA.AperFunction,ComponentPad*%
%ADD15RoundRect,0.250000X0.725000X-0.600000X0.725000X0.600000X-0.725000X0.600000X-0.725000X-0.600000X0*%
%TD*%
%TA.AperFunction,ComponentPad*%
%ADD16O,1.950000X1.700000*%
%TD*%
%TA.AperFunction,SMDPad,CuDef*%
%ADD17R,1.530000X2.720000*%
%TD*%
%TA.AperFunction,ComponentPad*%
%ADD18RoundRect,0.770000X0.980000X-0.980000X0.980000X0.980000X-0.980000X0.980000X-0.980000X-0.980000X0*%
%TD*%
%TA.AperFunction,SMDPad,CuDef*%
%ADD19R,4.100000X3.500000*%
%TD*%
%TA.AperFunction,ComponentPad*%
%ADD20C,1.530000*%
%TD*%
%TA.AperFunction,SMDPad,CuDef*%
%ADD21R,1.803400X1.117600*%
%TD*%
%TA.AperFunction,ComponentPad*%
%ADD22C,2.400000*%
%TD*%
%TA.AperFunction,SMDPad,CuDef*%
%ADD23RoundRect,0.150000X-0.512500X-0.150000X0.512500X-0.150000X0.512500X0.150000X-0.512500X0.150000X0*%
%TD*%
%TA.AperFunction,ComponentPad*%
%ADD24R,1.625600X1.625600*%
%TD*%
%TA.AperFunction,ComponentPad*%
%ADD25C,1.625600*%
%TD*%
%TA.AperFunction,ViaPad*%
%ADD26C,0.700000*%
%TD*%
%TA.AperFunction,Conductor*%
%ADD27C,0.300000*%
%TD*%
%TA.AperFunction,Conductor*%
%ADD28C,6.300000*%
%TD*%
%TA.AperFunction,Conductor*%
%ADD29C,0.500000*%
%TD*%
%TA.AperFunction,Conductor*%
%ADD30C,1.000000*%
%TD*%
%TA.AperFunction,Conductor*%
%ADD31C,2.000000*%
%TD*%
G04 APERTURE END LIST*
D10*
%TO.P,MDB1,1,VM*%
%TO.N,unconnected-(MDB1-VM-Pad1)*%
X154570000Y-82490000D03*
%TO.P,MDB1,2,GND*%
%TO.N,GND*%
X154570000Y-85030000D03*
%TO.P,MDB1,3,VCC*%
%TO.N,unconnected-(MDB1-VCC-Pad3)*%
X154570000Y-87570000D03*
%TO.P,MDB1,4,VREF*%
%TO.N,unconnected-(MDB1-VREF-Pad4)*%
X154570000Y-90110000D03*
%TO.P,MDB1,5,DMODE0*%
%TO.N,/DMODE0*%
X154570000Y-92650000D03*
%TO.P,MDB1,6,DMODE1*%
%TO.N,/DMODE1*%
X154570000Y-95190000D03*
%TO.P,MDB1,7,DMODE2*%
%TO.N,/DMODE2*%
X154570000Y-97730000D03*
%TO.P,MDB1,8,DIR*%
%TO.N,/DIR*%
X154570000Y-100270000D03*
%TO.P,MDB1,9,STEP*%
%TO.N,/STEP*%
X154570000Y-102810000D03*
%TO.P,MDB1,10,ENABLE*%
%TO.N,/ENABLE*%
X154570000Y-105350000D03*
%TO.P,MDB1,11,RESET*%
%TO.N,/RESET*%
X154570000Y-107890000D03*
%TO.P,MDB1,12,MO*%
%TO.N,/MO*%
X154570000Y-110430000D03*
%TO.P,MDB1,13,LO1*%
%TO.N,/LO1*%
X154570000Y-112970000D03*
%TO.P,MDB1,14,LO2*%
%TO.N,/LO2*%
X154570000Y-115510000D03*
%TO.P,MDB1,15,VIN*%
%TO.N,/DRIVER_PWR*%
X177430000Y-90070000D03*
%TO.P,MDB1,16,GND*%
%TO.N,GND*%
X177430000Y-92610000D03*
%TO.P,MDB1,17,GND*%
X177430000Y-95150000D03*
%TO.P,MDB1,18,OUTB+*%
%TO.N,Net-(J3-Pin_1)*%
X177430000Y-97690000D03*
%TO.P,MDB1,19,OUTB-*%
%TO.N,Net-(J3-Pin_2)*%
X177430000Y-100230000D03*
%TO.P,MDB1,20,OUTA-*%
%TO.N,Net-(J4-Pin_2)*%
X177430000Y-102770000D03*
%TO.P,MDB1,21,OUTA+*%
%TO.N,Net-(J4-Pin_1)*%
X177430000Y-105310000D03*
%TD*%
D11*
%TO.P,C4,1*%
%TO.N,+3.3V*%
X129387575Y-102760558D03*
%TO.P,C4,2*%
%TO.N,GND*%
X126087575Y-102760558D03*
%TD*%
D12*
%TO.P,J4,*%
%TO.N,*%
X192000000Y-103000000D03*
X192000000Y-114000000D03*
D13*
%TO.P,J4,1,Pin_1*%
%TO.N,Net-(J4-Pin_1)*%
X182000000Y-111000000D03*
D14*
%TO.P,J4,2,Pin_2*%
%TO.N,Net-(J4-Pin_2)*%
X182000000Y-106000000D03*
%TD*%
D15*
%TO.P,J5,1,Pin_1*%
%TO.N,/ENC_B*%
X187500000Y-83000000D03*
D16*
%TO.P,J5,2,Pin_2*%
%TO.N,/ENC_A*%
X187500000Y-80500000D03*
%TO.P,J5,3,Pin_3*%
%TO.N,GND*%
X187500000Y-78000000D03*
%TO.P,J5,4,Pin_4*%
%TO.N,+3.3V*%
X187500000Y-75500000D03*
%TD*%
D17*
%TO.P,C1,1*%
%TO.N,/BUCK_PWR*%
X116646575Y-99760558D03*
%TO.P,C1,2*%
%TO.N,GND*%
X119328575Y-99760558D03*
%TD*%
D12*
%TO.P,J2,*%
%TO.N,*%
X92500000Y-110000000D03*
X92500000Y-99000000D03*
D18*
%TO.P,J2,1,Pin_1*%
%TO.N,GND*%
X102500000Y-102000000D03*
D14*
%TO.P,J2,2,Pin_2*%
%TO.N,Net-(J2-Pin_2)*%
X102500000Y-107000000D03*
%TD*%
D11*
%TO.P,C5,1*%
%TO.N,+3.3V*%
X129387575Y-99010558D03*
%TO.P,C5,2*%
%TO.N,GND*%
X126087575Y-99010558D03*
%TD*%
D19*
%TO.P,L1,1,1*%
%TO.N,/SW*%
X122487575Y-91260558D03*
%TO.P,L1,2,2*%
%TO.N,+3.3V*%
X131987575Y-91260558D03*
%TD*%
D20*
%TO.P,MCB1,1,3.3V_Battery*%
%TO.N,+3.3V*%
X141520000Y-76000000D03*
%TO.P,MCB1,2,GND*%
%TO.N,GND*%
X138980000Y-76000000D03*
%TO.P,MCB1,3,+3.3V*%
%TO.N,unconnected-(MCB1-+3.3V-Pad3)*%
X136440000Y-76000000D03*
%TO.P,MCB1,4,GND*%
%TO.N,GND*%
X133900000Y-76000000D03*
%TO.P,MCB1,5,PA8*%
%TO.N,unconnected-(MCB1-PA8-Pad5)*%
X131360000Y-76000000D03*
%TO.P,MCB1,6,PA9*%
%TO.N,unconnected-(MCB1-PA9-Pad6)*%
X128820000Y-76000000D03*
%TO.P,MCB1,7,PA10*%
%TO.N,unconnected-(MCB1-PA10-Pad7)*%
X126280000Y-76000000D03*
%TO.P,MCB1,8,PA15*%
%TO.N,/ENC_A*%
X123740000Y-76000000D03*
%TO.P,MCB1,9,PC10*%
%TO.N,unconnected-(MCB1-PC10-Pad9)*%
X121200000Y-76000000D03*
%TO.P,MCB1,10,PC11*%
%TO.N,unconnected-(MCB1-PC11-Pad10)*%
X118660000Y-76000000D03*
%TO.P,MCB1,11,PC12*%
%TO.N,unconnected-(MCB1-PC12-Pad11)*%
X116120000Y-76000000D03*
%TO.P,MCB1,12,PD2*%
%TO.N,unconnected-(MCB1-PD2-Pad12)*%
X113580000Y-76000000D03*
%TO.P,MCB1,13,PB4*%
%TO.N,unconnected-(MCB1-PB4-Pad13)*%
X111040000Y-76000000D03*
%TO.P,MCB1,14,PB5*%
%TO.N,unconnected-(MCB1-PB5-Pad14)*%
X108500000Y-76000000D03*
%TO.P,MCB1,15,PB6*%
%TO.N,unconnected-(MCB1-PB6-Pad15)*%
X105960000Y-76000000D03*
%TO.P,MCB1,16,PB7*%
%TO.N,unconnected-(MCB1-PB7-Pad16)*%
X103420000Y-76000000D03*
%TO.P,MCB1,17,PB8*%
%TO.N,unconnected-(MCB1-PB8-Pad17)*%
X100880000Y-76000000D03*
%TO.P,MCB1,18,PB9*%
%TO.N,unconnected-(MCB1-PB9-Pad18)*%
X98340000Y-76000000D03*
%TO.P,MCB1,19,PC13*%
%TO.N,unconnected-(MCB1-PC13-Pad19)*%
X95800000Y-76000000D03*
%TO.P,MCB1,20,PC14*%
%TO.N,unconnected-(MCB1-PC14-Pad20)*%
X93260000Y-76000000D03*
%TO.P,MCB1,21,PC6*%
%TO.N,/RESET*%
X138980000Y-114100000D03*
%TO.P,MCB1,22,PC7*%
%TO.N,/MO*%
X136440000Y-114100000D03*
%TO.P,MCB1,23,PC8*%
%TO.N,/LO1*%
X133900000Y-114100000D03*
%TO.P,MCB1,24,PC9*%
%TO.N,/LO2*%
X131360000Y-114100000D03*
%TO.P,MCB1,25,PB15*%
%TO.N,/ENABLE*%
X128820000Y-114100000D03*
%TO.P,MCB1,26,PB14*%
%TO.N,/STEP*%
X126280000Y-114100000D03*
%TO.P,MCB1,27,PB13*%
%TO.N,/DIR*%
X123740000Y-114100000D03*
%TO.P,MCB1,28,PB12*%
%TO.N,/DMODE2*%
X121200000Y-114100000D03*
%TO.P,MCB1,29,PB10*%
%TO.N,/DMODE1*%
X118660000Y-114100000D03*
%TO.P,MCB1,30,PB2*%
%TO.N,/DMODE0*%
X116120000Y-114100000D03*
%TO.P,MCB1,31,PB1*%
%TO.N,unconnected-(MCB1-PB1-Pad31)*%
X113580000Y-114100000D03*
%TO.P,MCB1,32,PB0*%
%TO.N,unconnected-(MCB1-PB0-Pad32)*%
X111040000Y-114100000D03*
%TO.P,MCB1,33,PC5*%
%TO.N,unconnected-(MCB1-PC5-Pad33)*%
X108500000Y-114100000D03*
%TO.P,MCB1,34,PA4*%
%TO.N,unconnected-(MCB1-PA4-Pad34)*%
X105960000Y-114100000D03*
%TO.P,MCB1,35,PA1*%
%TO.N,/ENC_B*%
X103420000Y-114100000D03*
%TO.P,MCB1,36,PA0*%
X100880000Y-114100000D03*
%TO.P,MCB1,37,PC3*%
%TO.N,unconnected-(MCB1-PC3-Pad37)*%
X98340000Y-114100000D03*
%TO.P,MCB1,38,PC2*%
%TO.N,unconnected-(MCB1-PC2-Pad38)*%
X95800000Y-114100000D03*
%TO.P,MCB1,39,PC1*%
%TO.N,unconnected-(MCB1-PC1-Pad39)*%
X93260000Y-114100000D03*
%TO.P,MCB1,40,PC0*%
%TO.N,unconnected-(MCB1-PC0-Pad40)*%
X90720000Y-114100000D03*
%TD*%
D21*
%TO.P,C3,1*%
%TO.N,/SW*%
X117737575Y-89411758D03*
%TO.P,C3,2*%
%TO.N,/BST*%
X117737575Y-92510558D03*
%TD*%
D22*
%TO.P,F1,1_1*%
%TO.N,Net-(J1-Pin_2)*%
X146405000Y-89915000D03*
%TO.P,F1,1_2*%
X149805000Y-89915000D03*
%TO.P,F1,2_1*%
%TO.N,/DRIVER_PWR*%
X146405000Y-76445000D03*
%TO.P,F1,2_2*%
X149805000Y-76445000D03*
%TD*%
D23*
%TO.P,U1,1,FB*%
%TO.N,+3.3V*%
X116600075Y-94810558D03*
%TO.P,U1,2,EN*%
%TO.N,/BUCK_PWR*%
X116600075Y-95760558D03*
%TO.P,U1,3,IN*%
X116600075Y-96710558D03*
%TO.P,U1,4,GND*%
%TO.N,GND*%
X118875075Y-96710558D03*
%TO.P,U1,5,SW*%
%TO.N,/SW*%
X118875075Y-95760558D03*
%TO.P,U1,6,BST*%
%TO.N,/BST*%
X118875075Y-94810558D03*
%TD*%
D24*
%TO.P,F3,1*%
%TO.N,/BUCK_PWR*%
X111937575Y-99610558D03*
D25*
%TO.P,F3,2*%
%TO.N,Net-(J1-Pin_2)*%
X111937575Y-94530558D03*
%TD*%
D12*
%TO.P,J1,*%
%TO.N,*%
X92505000Y-91145000D03*
X92505000Y-80145000D03*
D18*
%TO.P,J1,1,Pin_1*%
%TO.N,GND*%
X102505000Y-83145000D03*
D14*
%TO.P,J1,2,Pin_2*%
%TO.N,Net-(J1-Pin_2)*%
X102505000Y-88145000D03*
%TD*%
D17*
%TO.P,C2,1*%
%TO.N,/BUCK_PWR*%
X116646575Y-103510558D03*
%TO.P,C2,2*%
%TO.N,GND*%
X119328575Y-103510558D03*
%TD*%
D22*
%TO.P,F2,1_1*%
%TO.N,Net-(J1-Pin_2)*%
X149805000Y-97145000D03*
%TO.P,F2,1_2*%
X146405000Y-97145000D03*
%TO.P,F2,2_1*%
%TO.N,Net-(J2-Pin_2)*%
X149805000Y-110615000D03*
%TO.P,F2,2_2*%
X146405000Y-110615000D03*
%TD*%
D12*
%TO.P,J3,*%
%TO.N,*%
X192000000Y-88500000D03*
X192000000Y-99500000D03*
D13*
%TO.P,J3,1,Pin_1*%
%TO.N,Net-(J3-Pin_1)*%
X182000000Y-96500000D03*
D14*
%TO.P,J3,2,Pin_2*%
%TO.N,Net-(J3-Pin_2)*%
X182000000Y-91500000D03*
%TD*%
D26*
%TO.N,GND*%
X121837575Y-100773808D03*
X124037575Y-97373808D03*
X123937575Y-102773808D03*
X124037575Y-100373808D03*
X121337575Y-97373808D03*
X121737575Y-103473808D03*
%TO.N,+3.3V*%
X114987575Y-97010558D03*
X131487575Y-98760558D03*
%TD*%
D27*
%TO.N,/RESET*%
X152200000Y-112550000D02*
X152200000Y-110260000D01*
X139175000Y-114295000D02*
X150455000Y-114295000D01*
X152200000Y-110260000D02*
X154570000Y-107890000D01*
X138980000Y-114100000D02*
X139175000Y-114295000D01*
X150455000Y-114295000D02*
X152200000Y-112550000D01*
D28*
%TO.N,Net-(J2-Pin_2)*%
X145500000Y-108600000D02*
X103999000Y-108600000D01*
X103999000Y-108600000D02*
X102500000Y-107101000D01*
D29*
%TO.N,+3.3V*%
X114987575Y-95360558D02*
X115537575Y-94810558D01*
D27*
X141520000Y-76000000D02*
X143520000Y-74000000D01*
D29*
X114987575Y-97010558D02*
X114987575Y-95360558D01*
D30*
X152500000Y-100000000D02*
X152500000Y-86980000D01*
X152500000Y-86980000D02*
X141520000Y-76000000D01*
X134585000Y-101825000D02*
X150675000Y-101825000D01*
D27*
X186000000Y-74000000D02*
X187500000Y-75500000D01*
X143520000Y-74000000D02*
X186000000Y-74000000D01*
D30*
X150675000Y-101825000D02*
X152500000Y-100000000D01*
D29*
X115537575Y-94810558D02*
X116600075Y-94810558D01*
D27*
%TO.N,/DIR*%
X157503000Y-117997000D02*
X158500000Y-117000000D01*
X123740000Y-114100000D02*
X127637000Y-117997000D01*
X158500000Y-117000000D02*
X158500000Y-104200000D01*
X127637000Y-117997000D02*
X157503000Y-117997000D01*
X158500000Y-104200000D02*
X154570000Y-100270000D01*
D29*
%TO.N,/BUCK_PWR*%
X116646575Y-99760558D02*
X116646575Y-96757058D01*
X116646575Y-96757058D02*
X116600075Y-96710558D01*
X116600075Y-96710558D02*
X116600075Y-95760558D01*
%TO.N,/BST*%
X118875075Y-94810558D02*
X117737575Y-93673058D01*
X117737575Y-93673058D02*
X117737575Y-92510558D01*
%TO.N,/SW*%
X118875075Y-95760558D02*
X120124325Y-95760558D01*
D27*
%TO.N,/ENC_A*%
X189500000Y-78500000D02*
X187500000Y-80500000D01*
X126695000Y-73045000D02*
X188045000Y-73045000D01*
X123740000Y-76000000D02*
X126695000Y-73045000D01*
X189500000Y-74500000D02*
X189500000Y-78500000D01*
X188045000Y-73045000D02*
X189500000Y-74500000D01*
%TO.N,/ENC_B*%
X187500000Y-116450000D02*
X187500000Y-83000000D01*
X109320000Y-120000000D02*
X183950000Y-120000000D01*
X103420000Y-114100000D02*
X109320000Y-120000000D01*
X103420000Y-114100000D02*
X100880000Y-114100000D01*
X183950000Y-120000000D02*
X187500000Y-116450000D01*
%TO.N,/STEP*%
X129676000Y-117496000D02*
X156504000Y-117496000D01*
X157500000Y-116500000D02*
X157500000Y-105740000D01*
X156504000Y-117496000D02*
X157500000Y-116500000D01*
X126280000Y-114100000D02*
X129676000Y-117496000D01*
X157500000Y-105740000D02*
X154570000Y-102810000D01*
%TO.N,/ENABLE*%
X156500000Y-107280000D02*
X154570000Y-105350000D01*
X131715000Y-116995000D02*
X155505000Y-116995000D01*
X128820000Y-114100000D02*
X131715000Y-116995000D01*
X156500000Y-116000000D02*
X156500000Y-107280000D01*
X155505000Y-116995000D02*
X156500000Y-116000000D01*
D31*
%TO.N,/DRIVER_PWR*%
X171570000Y-90070000D02*
X177430000Y-90070000D01*
X157945000Y-76445000D02*
X171570000Y-90070000D01*
X149805000Y-76445000D02*
X157945000Y-76445000D01*
X149805000Y-76445000D02*
X146405000Y-76445000D01*
D30*
%TO.N,Net-(J1-Pin_2)*%
X108290558Y-94530558D02*
X102505000Y-88745000D01*
D28*
X138835000Y-82345000D02*
X111092974Y-82345000D01*
X111092974Y-82345000D02*
X105191974Y-88246000D01*
D30*
X111937575Y-94530558D02*
X108290558Y-94530558D01*
D28*
X146405000Y-89915000D02*
X138835000Y-82345000D01*
X105191974Y-88246000D02*
X102505000Y-88246000D01*
D30*
X102505000Y-88745000D02*
X102505000Y-88145000D01*
D27*
%TO.N,/LO2*%
X133754000Y-116494000D02*
X131360000Y-114100000D01*
X153586000Y-116494000D02*
X133754000Y-116494000D01*
X154570000Y-115510000D02*
X153586000Y-116494000D01*
%TO.N,/LO1*%
X135793000Y-115993000D02*
X133900000Y-114100000D01*
X154570000Y-112970000D02*
X151547000Y-115993000D01*
X151547000Y-115993000D02*
X135793000Y-115993000D01*
%TO.N,/DMODE0*%
X161500000Y-118500000D02*
X161500000Y-99580000D01*
X160500000Y-119500000D02*
X161500000Y-118500000D01*
X121520000Y-119500000D02*
X160500000Y-119500000D01*
X161500000Y-99580000D02*
X154570000Y-92650000D01*
X116120000Y-114100000D02*
X121520000Y-119500000D01*
%TO.N,/DMODE1*%
X160500000Y-118000000D02*
X160500000Y-101120000D01*
X160500000Y-101120000D02*
X154570000Y-95190000D01*
X118660000Y-114100000D02*
X123559000Y-118999000D01*
X159501000Y-118999000D02*
X160500000Y-118000000D01*
X123559000Y-118999000D02*
X159501000Y-118999000D01*
%TO.N,/DMODE2*%
X159500000Y-102660000D02*
X154570000Y-97730000D01*
X125598000Y-118498000D02*
X158502000Y-118498000D01*
X121200000Y-114100000D02*
X125598000Y-118498000D01*
X158502000Y-118498000D02*
X159500000Y-117500000D01*
X159500000Y-117500000D02*
X159500000Y-102660000D01*
%TO.N,/MO*%
X150508000Y-115492000D02*
X137832000Y-115492000D01*
X154570000Y-110430000D02*
X153000000Y-112000000D01*
X137832000Y-115492000D02*
X136440000Y-114100000D01*
X153000000Y-113000000D02*
X150508000Y-115492000D01*
X153000000Y-112000000D02*
X153000000Y-113000000D01*
D31*
%TO.N,Net-(J3-Pin_2)*%
X185500000Y-98000000D02*
X183270000Y-100230000D01*
X183270000Y-100230000D02*
X177430000Y-100230000D01*
X182000000Y-91500000D02*
X185500000Y-95000000D01*
X185500000Y-95000000D02*
X185500000Y-98000000D01*
%TO.N,Net-(J3-Pin_1)*%
X182000000Y-96500000D02*
X180810000Y-97690000D01*
X180810000Y-97690000D02*
X177430000Y-97690000D01*
%TO.N,Net-(J4-Pin_1)*%
X182000000Y-111000000D02*
X177430000Y-106430000D01*
X177430000Y-106430000D02*
X177430000Y-105310000D01*
%TO.N,Net-(J4-Pin_2)*%
X178770000Y-102770000D02*
X177430000Y-102770000D01*
X182000000Y-106000000D02*
X178770000Y-102770000D01*
%TD*%
%TA.AperFunction,Conductor*%
%TO.N,Net-(J1-Pin_2)*%
G36*
X151148039Y-87764685D02*
G01*
X151193794Y-87817489D01*
X151205000Y-87869000D01*
X151205000Y-99771000D01*
X151185315Y-99838039D01*
X151132511Y-99883794D01*
X151081000Y-99895000D01*
X143629000Y-99895000D01*
X143561961Y-99875315D01*
X143516206Y-99822511D01*
X143505000Y-99771000D01*
X143505000Y-87869000D01*
X143524685Y-87801961D01*
X143577489Y-87756206D01*
X143629000Y-87745000D01*
X151081000Y-87745000D01*
X151148039Y-87764685D01*
G37*
%TD.AperFunction*%
%TD*%
%TA.AperFunction,Conductor*%
%TO.N,Net-(J2-Pin_2)*%
G36*
X151443039Y-105519685D02*
G01*
X151488794Y-105572489D01*
X151500000Y-105624000D01*
X151500000Y-112073638D01*
X151480315Y-112140677D01*
X151463681Y-112161319D01*
X150661319Y-112963681D01*
X150599996Y-112997166D01*
X150573638Y-113000000D01*
X145034345Y-113000000D01*
X144970548Y-112982329D01*
X142591872Y-111555123D01*
X142544513Y-111503752D01*
X142532446Y-111434932D01*
X142541206Y-111401105D01*
X144968205Y-105576308D01*
X145012160Y-105521996D01*
X145078500Y-105500070D01*
X145082667Y-105500000D01*
X151376000Y-105500000D01*
X151443039Y-105519685D01*
G37*
%TD.AperFunction*%
%TD*%
%TA.AperFunction,Conductor*%
%TO.N,GND*%
G36*
X126230614Y-96530243D02*
G01*
X126276369Y-96583047D01*
X126287575Y-96634558D01*
X126287575Y-104490558D01*
X126287575Y-104636558D01*
X126267890Y-104703597D01*
X126215086Y-104749352D01*
X126163575Y-104760558D01*
X120717575Y-104760558D01*
X120650536Y-104740873D01*
X120604781Y-104688069D01*
X120593575Y-104636558D01*
X120593575Y-103908402D01*
X125037575Y-103908402D01*
X125043976Y-103967930D01*
X125043978Y-103967937D01*
X125094220Y-104102644D01*
X125094224Y-104102651D01*
X125180384Y-104217745D01*
X125180387Y-104217748D01*
X125295481Y-104303908D01*
X125295488Y-104303912D01*
X125430195Y-104354154D01*
X125430202Y-104354156D01*
X125489730Y-104360557D01*
X125489747Y-104360558D01*
X125837575Y-104360558D01*
X125837575Y-103010558D01*
X125037575Y-103010558D01*
X125037575Y-103908402D01*
X120593575Y-103908402D01*
X120593575Y-103760558D01*
X119452575Y-103760558D01*
X119385536Y-103740873D01*
X119339781Y-103688069D01*
X119328575Y-103636558D01*
X119328575Y-103510558D01*
X119202575Y-103510558D01*
X119135536Y-103490873D01*
X119089781Y-103438069D01*
X119078575Y-103386558D01*
X119078575Y-103260558D01*
X119578575Y-103260558D01*
X120593575Y-103260558D01*
X120593575Y-102102730D01*
X120593574Y-102102713D01*
X120587173Y-102043185D01*
X120587171Y-102043178D01*
X120536929Y-101908471D01*
X120536925Y-101908464D01*
X120450765Y-101793370D01*
X120450762Y-101793367D01*
X120372559Y-101734824D01*
X120356724Y-101713670D01*
X120338039Y-101694986D01*
X120336114Y-101686138D01*
X120330688Y-101678890D01*
X120328803Y-101652532D01*
X120323186Y-101626714D01*
X120326349Y-101618230D01*
X120325955Y-101612713D01*
X125037575Y-101612713D01*
X125037575Y-102510558D01*
X125837575Y-102510558D01*
X125837575Y-101160558D01*
X125489730Y-101160558D01*
X125430202Y-101166959D01*
X125430195Y-101166961D01*
X125295488Y-101217203D01*
X125295481Y-101217207D01*
X125180387Y-101303367D01*
X125180384Y-101303370D01*
X125094224Y-101418464D01*
X125094220Y-101418471D01*
X125043978Y-101553178D01*
X125043976Y-101553185D01*
X125037575Y-101612713D01*
X120325955Y-101612713D01*
X120325704Y-101609199D01*
X120338368Y-101586007D01*
X120347602Y-101561249D01*
X120357043Y-101551807D01*
X120359190Y-101547876D01*
X120372558Y-101536292D01*
X120407488Y-101510143D01*
X120407489Y-101510142D01*
X120450765Y-101477744D01*
X120536925Y-101362651D01*
X120536929Y-101362644D01*
X120587171Y-101227937D01*
X120587173Y-101227930D01*
X120593574Y-101168402D01*
X120593575Y-101168385D01*
X120593575Y-100158402D01*
X125037575Y-100158402D01*
X125043976Y-100217930D01*
X125043978Y-100217937D01*
X125094220Y-100352644D01*
X125094224Y-100352651D01*
X125180384Y-100467745D01*
X125180387Y-100467748D01*
X125295481Y-100553908D01*
X125295488Y-100553912D01*
X125430195Y-100604154D01*
X125430202Y-100604156D01*
X125489730Y-100610557D01*
X125489747Y-100610558D01*
X125837575Y-100610558D01*
X125837575Y-99260558D01*
X125037575Y-99260558D01*
X125037575Y-100158402D01*
X120593575Y-100158402D01*
X120593575Y-100010558D01*
X119578575Y-100010558D01*
X119578575Y-103260558D01*
X119078575Y-103260558D01*
X119078575Y-99510558D01*
X119578575Y-99510558D01*
X120593575Y-99510558D01*
X120593575Y-98352730D01*
X120593574Y-98352713D01*
X120587173Y-98293185D01*
X120587171Y-98293178D01*
X120536929Y-98158471D01*
X120536925Y-98158464D01*
X120450765Y-98043370D01*
X120450762Y-98043367D01*
X120337647Y-97958688D01*
X120337629Y-97958676D01*
X120335664Y-97957205D01*
X120335661Y-97957203D01*
X120200954Y-97906961D01*
X120200947Y-97906959D01*
X120141419Y-97900558D01*
X119578575Y-97900558D01*
X119578575Y-99510558D01*
X119078575Y-99510558D01*
X119078575Y-97900558D01*
X118761575Y-97900558D01*
X118756649Y-97899111D01*
X118751624Y-97900158D01*
X118723463Y-97889367D01*
X118694536Y-97880873D01*
X118691175Y-97876994D01*
X118686380Y-97875157D01*
X118677237Y-97862713D01*
X125037575Y-97862713D01*
X125037575Y-98760558D01*
X125837575Y-98760558D01*
X125837575Y-97410558D01*
X125489730Y-97410558D01*
X125430202Y-97416959D01*
X125430195Y-97416961D01*
X125295488Y-97467203D01*
X125295481Y-97467207D01*
X125180387Y-97553367D01*
X125180384Y-97553370D01*
X125094224Y-97668464D01*
X125094220Y-97668471D01*
X125043978Y-97803178D01*
X125043976Y-97803185D01*
X125037575Y-97862713D01*
X118677237Y-97862713D01*
X118668523Y-97850852D01*
X118648781Y-97828069D01*
X118647227Y-97821868D01*
X118645011Y-97818851D01*
X118641570Y-97799283D01*
X118637817Y-97784298D01*
X118637575Y-97780428D01*
X118637575Y-97510558D01*
X119125075Y-97510558D01*
X119453209Y-97510558D01*
X119453224Y-97510557D01*
X119490064Y-97507658D01*
X119490070Y-97507657D01*
X119647768Y-97461841D01*
X119647771Y-97461840D01*
X119789127Y-97378243D01*
X119789136Y-97378236D01*
X119905253Y-97262119D01*
X119905260Y-97262110D01*
X119988856Y-97120756D01*
X120034675Y-96963044D01*
X120034870Y-96960559D01*
X120034870Y-96960558D01*
X119125075Y-96960558D01*
X119125075Y-97510558D01*
X118637575Y-97510558D01*
X118637575Y-96791988D01*
X118644760Y-96767519D01*
X118697564Y-96721764D01*
X118749075Y-96710558D01*
X118875075Y-96710558D01*
X118875075Y-96685058D01*
X118884765Y-96652055D01*
X118894166Y-96618952D01*
X118894597Y-96618570D01*
X118894760Y-96618019D01*
X118920726Y-96595519D01*
X118946559Y-96572728D01*
X118947129Y-96572640D01*
X118947564Y-96572264D01*
X118999075Y-96561058D01*
X119453261Y-96561058D01*
X119453269Y-96561058D01*
X119490144Y-96558156D01*
X119490146Y-96558155D01*
X119490148Y-96558155D01*
X119635308Y-96515982D01*
X119669903Y-96511058D01*
X120025772Y-96511058D01*
X120043418Y-96512320D01*
X120053789Y-96513811D01*
X120161575Y-96529308D01*
X120161578Y-96529308D01*
X122613565Y-96529308D01*
X122613575Y-96529308D01*
X122721031Y-96517755D01*
X122741087Y-96513392D01*
X122767446Y-96510558D01*
X126163575Y-96510558D01*
X126230614Y-96530243D01*
G37*
%TD.AperFunction*%
%TD*%
%TA.AperFunction,Conductor*%
%TO.N,/BUCK_PWR*%
G36*
X115324614Y-99393493D02*
G01*
X115370369Y-99446297D01*
X115381575Y-99497808D01*
X115381575Y-99510558D01*
X116522575Y-99510558D01*
X116589614Y-99530243D01*
X116635369Y-99583047D01*
X116646575Y-99634558D01*
X116646575Y-99760558D01*
X116772575Y-99760558D01*
X116839614Y-99780243D01*
X116885369Y-99833047D01*
X116896575Y-99884558D01*
X116896575Y-103386558D01*
X116876890Y-103453597D01*
X116824086Y-103499352D01*
X116772575Y-103510558D01*
X116646575Y-103510558D01*
X116646575Y-103636558D01*
X116626890Y-103703597D01*
X116574086Y-103749352D01*
X116522575Y-103760558D01*
X115381575Y-103760558D01*
X115381575Y-104918402D01*
X115387976Y-104977930D01*
X115387976Y-104977932D01*
X115389555Y-104982163D01*
X115394541Y-105051855D01*
X115361058Y-105113179D01*
X115299735Y-105146666D01*
X115273374Y-105149500D01*
X111761575Y-105149500D01*
X111694536Y-105129815D01*
X111648781Y-105077011D01*
X111637575Y-105025500D01*
X111637575Y-101168402D01*
X115381575Y-101168402D01*
X115387976Y-101227930D01*
X115387978Y-101227937D01*
X115438220Y-101362644D01*
X115438224Y-101362651D01*
X115524384Y-101477745D01*
X115602591Y-101536292D01*
X115644461Y-101592226D01*
X115649445Y-101661918D01*
X115615959Y-101723241D01*
X115602591Y-101734824D01*
X115524384Y-101793370D01*
X115438224Y-101908464D01*
X115438220Y-101908471D01*
X115387978Y-102043178D01*
X115387976Y-102043185D01*
X115381575Y-102102713D01*
X115381575Y-103260558D01*
X116396575Y-103260558D01*
X116396575Y-100010558D01*
X115381575Y-100010558D01*
X115381575Y-101168402D01*
X111637575Y-101168402D01*
X111637575Y-101024720D01*
X111657260Y-100957681D01*
X111673894Y-100937039D01*
X111687575Y-100923358D01*
X111687575Y-100111467D01*
X111721886Y-100131277D01*
X111864008Y-100169358D01*
X112011142Y-100169358D01*
X112153264Y-100131277D01*
X112187575Y-100111467D01*
X112187575Y-100923358D01*
X112798203Y-100923358D01*
X112798219Y-100923357D01*
X112857747Y-100916956D01*
X112857754Y-100916954D01*
X112992461Y-100866712D01*
X112992468Y-100866708D01*
X113107562Y-100780548D01*
X113107565Y-100780545D01*
X113193725Y-100665451D01*
X113193729Y-100665444D01*
X113243971Y-100530737D01*
X113243973Y-100530730D01*
X113250374Y-100471202D01*
X113250375Y-100471185D01*
X113250375Y-99860558D01*
X112438484Y-99860558D01*
X112458294Y-99826247D01*
X112496375Y-99684125D01*
X112496375Y-99536991D01*
X112458294Y-99394869D01*
X112446134Y-99373808D01*
X113360887Y-99373808D01*
X115257575Y-99373808D01*
X115324614Y-99393493D01*
G37*
%TD.AperFunction*%
%TD*%
%TA.AperFunction,Conductor*%
%TO.N,/SW*%
G36*
X122680614Y-88030243D02*
G01*
X122726369Y-88083047D01*
X122737575Y-88134558D01*
X122737575Y-95899808D01*
X122717890Y-95966847D01*
X122665086Y-96012602D01*
X122613575Y-96023808D01*
X120161575Y-96023808D01*
X120094536Y-96004123D01*
X120048781Y-95951319D01*
X120037575Y-95899808D01*
X120037575Y-94688528D01*
X120037574Y-94688526D01*
X119776428Y-94426507D01*
X119769941Y-94419998D01*
X119709725Y-94338408D01*
X119629917Y-94279507D01*
X119623281Y-94272849D01*
X119003571Y-93651069D01*
X118970188Y-93589690D01*
X118967398Y-93563703D01*
X118967317Y-93504154D01*
X118966710Y-93058402D01*
X119937575Y-93058402D01*
X119943976Y-93117930D01*
X119943978Y-93117937D01*
X119994220Y-93252644D01*
X119994224Y-93252651D01*
X120080384Y-93367745D01*
X120080387Y-93367748D01*
X120195481Y-93453908D01*
X120195488Y-93453912D01*
X120330195Y-93504154D01*
X120330202Y-93504156D01*
X120389730Y-93510557D01*
X120389747Y-93510558D01*
X122237575Y-93510558D01*
X122237575Y-91510558D01*
X119937575Y-91510558D01*
X119937575Y-93058402D01*
X118966710Y-93058402D01*
X118963105Y-90412633D01*
X118982697Y-90345572D01*
X118991261Y-90334931D01*
X118991149Y-90334847D01*
X119082627Y-90212646D01*
X119082629Y-90212644D01*
X119132871Y-90077937D01*
X119132873Y-90077930D01*
X119139274Y-90018402D01*
X119139275Y-90018385D01*
X119139275Y-89661758D01*
X117861575Y-89661758D01*
X117852889Y-89659207D01*
X117843928Y-89660496D01*
X117819887Y-89649517D01*
X117794536Y-89642073D01*
X117788608Y-89635232D01*
X117780372Y-89631471D01*
X117766082Y-89609236D01*
X117748781Y-89589269D01*
X117746493Y-89578754D01*
X117742598Y-89572693D01*
X117737575Y-89537758D01*
X117737575Y-89462713D01*
X119937575Y-89462713D01*
X119937575Y-91010558D01*
X122237575Y-91010558D01*
X122237575Y-89010558D01*
X120389730Y-89010558D01*
X120330202Y-89016959D01*
X120330195Y-89016961D01*
X120195488Y-89067203D01*
X120195481Y-89067207D01*
X120080387Y-89153367D01*
X120080384Y-89153370D01*
X119994224Y-89268464D01*
X119994220Y-89268471D01*
X119943978Y-89403178D01*
X119943976Y-89403185D01*
X119937575Y-89462713D01*
X117737575Y-89462713D01*
X117737575Y-89411758D01*
X117611575Y-89411758D01*
X117544536Y-89392073D01*
X117498781Y-89339269D01*
X117487575Y-89287758D01*
X117487575Y-89161758D01*
X117987575Y-89161758D01*
X119139275Y-89161758D01*
X119139275Y-88805130D01*
X119139274Y-88805113D01*
X119132873Y-88745585D01*
X119132871Y-88745578D01*
X119082629Y-88610871D01*
X119082625Y-88610864D01*
X118996465Y-88495770D01*
X118996462Y-88495767D01*
X118881368Y-88409607D01*
X118881361Y-88409603D01*
X118746654Y-88359361D01*
X118746647Y-88359359D01*
X118687119Y-88352958D01*
X117987575Y-88352958D01*
X117987575Y-89161758D01*
X117487575Y-89161758D01*
X117487575Y-88134558D01*
X117507260Y-88067519D01*
X117560064Y-88021764D01*
X117611575Y-88010558D01*
X122613575Y-88010558D01*
X122680614Y-88030243D01*
G37*
%TD.AperFunction*%
%TD*%
%TA.AperFunction,Conductor*%
%TO.N,+3.3V*%
G36*
X135180614Y-91019685D02*
G01*
X135226369Y-91072489D01*
X135237575Y-91124000D01*
X135237575Y-104686558D01*
X135217890Y-104753597D01*
X135165086Y-104799352D01*
X135113575Y-104810558D01*
X129220440Y-104810558D01*
X129153401Y-104790873D01*
X129107646Y-104738069D01*
X129096442Y-104685801D01*
X129096647Y-104652112D01*
X129097876Y-104450860D01*
X129117970Y-104383945D01*
X129134194Y-104363938D01*
X129137574Y-104360558D01*
X129637575Y-104360558D01*
X129985403Y-104360558D01*
X129985419Y-104360557D01*
X130044947Y-104354156D01*
X130044954Y-104354154D01*
X130179661Y-104303912D01*
X130179668Y-104303908D01*
X130294762Y-104217748D01*
X130294765Y-104217745D01*
X130380925Y-104102651D01*
X130380929Y-104102644D01*
X130431171Y-103967937D01*
X130431173Y-103967930D01*
X130437574Y-103908402D01*
X130437575Y-103908385D01*
X130437575Y-103010558D01*
X129637575Y-103010558D01*
X129637575Y-104360558D01*
X129137574Y-104360558D01*
X129137575Y-104360557D01*
X129137575Y-102510558D01*
X129637575Y-102510558D01*
X130437575Y-102510558D01*
X130437575Y-101612730D01*
X130437574Y-101612713D01*
X130431173Y-101553185D01*
X130431171Y-101553178D01*
X130380929Y-101418471D01*
X130380925Y-101418464D01*
X130294765Y-101303370D01*
X130294762Y-101303367D01*
X130179668Y-101217207D01*
X130179661Y-101217203D01*
X130044954Y-101166961D01*
X130044947Y-101166959D01*
X129985419Y-101160558D01*
X129637575Y-101160558D01*
X129637575Y-102510558D01*
X129137575Y-102510558D01*
X129137575Y-101146301D01*
X129121238Y-101116383D01*
X129118406Y-101089268D01*
X129118772Y-101029168D01*
X129120918Y-100677818D01*
X129137575Y-100622349D01*
X129137575Y-100610558D01*
X129637575Y-100610558D01*
X129985403Y-100610558D01*
X129985419Y-100610557D01*
X130044947Y-100604156D01*
X130044954Y-100604154D01*
X130179661Y-100553912D01*
X130179668Y-100553908D01*
X130294762Y-100467748D01*
X130294765Y-100467745D01*
X130380925Y-100352651D01*
X130380929Y-100352644D01*
X130431171Y-100217937D01*
X130431173Y-100217930D01*
X130437574Y-100158402D01*
X130437575Y-100158385D01*
X130437575Y-99260558D01*
X129637575Y-99260558D01*
X129637575Y-100610558D01*
X129137575Y-100610558D01*
X129137575Y-98760558D01*
X129637575Y-98760558D01*
X130437575Y-98760558D01*
X130437575Y-97862730D01*
X130437574Y-97862713D01*
X130431173Y-97803185D01*
X130431171Y-97803178D01*
X130380929Y-97668471D01*
X130380925Y-97668464D01*
X130294765Y-97553370D01*
X130294762Y-97553367D01*
X130179668Y-97467207D01*
X130179661Y-97467203D01*
X130044954Y-97416961D01*
X130044947Y-97416959D01*
X129985419Y-97410558D01*
X129637575Y-97410558D01*
X129637575Y-98760558D01*
X129137575Y-98760558D01*
X129137575Y-97950391D01*
X129145615Y-96633799D01*
X129165709Y-96566883D01*
X129218791Y-96521451D01*
X129269613Y-96510558D01*
X129937575Y-96510558D01*
X129937575Y-93634558D01*
X129957260Y-93567519D01*
X130010064Y-93521764D01*
X130061575Y-93510558D01*
X131737575Y-93510558D01*
X132237575Y-93510558D01*
X134085403Y-93510558D01*
X134085419Y-93510557D01*
X134144947Y-93504156D01*
X134144954Y-93504154D01*
X134279661Y-93453912D01*
X134279668Y-93453908D01*
X134394762Y-93367748D01*
X134394765Y-93367745D01*
X134480925Y-93252651D01*
X134480929Y-93252644D01*
X134531171Y-93117937D01*
X134531173Y-93117930D01*
X134537574Y-93058402D01*
X134537575Y-93058385D01*
X134537575Y-91510558D01*
X132237575Y-91510558D01*
X132237575Y-93510558D01*
X131737575Y-93510558D01*
X131737575Y-91384558D01*
X131757260Y-91317519D01*
X131810064Y-91271764D01*
X131861575Y-91260558D01*
X131987575Y-91260558D01*
X131987575Y-91134558D01*
X132007260Y-91067519D01*
X132060064Y-91021764D01*
X132111575Y-91010558D01*
X134558992Y-91010558D01*
X134573137Y-91002834D01*
X134599495Y-91000000D01*
X135113575Y-91000000D01*
X135180614Y-91019685D01*
G37*
%TD.AperFunction*%
%TD*%
M02*
