%TF.GenerationSoftware,KiCad,Pcbnew,9.0.5*%
%TF.CreationDate,2026-05-09T17:07:01-07:00*%
%TF.ProjectId,StepperControllerCarrier,53746570-7065-4724-936f-6e74726f6c6c,rev?*%
%TF.SameCoordinates,Original*%
%TF.FileFunction,Soldermask,Top*%
%TF.FilePolarity,Negative*%
%FSLAX46Y46*%
G04 Gerber Fmt 4.6, Leading zero omitted, Abs format (unit mm)*
G04 Created by KiCad (PCBNEW 9.0.5) date 2026-05-09 17:07:01*
%MOMM*%
%LPD*%
G01*
G04 APERTURE LIST*
G04 Aperture macros list*
%AMRoundRect*
0 Rectangle with rounded corners*
0 $1 Rounding radius*
0 $2 $3 $4 $5 $6 $7 $8 $9 X,Y pos of 4 corners*
0 Add a 4 corners polygon primitive as box body*
4,1,4,$2,$3,$4,$5,$6,$7,$8,$9,$2,$3,0*
0 Add four circle primitives for the rounded corners*
1,1,$1+$1,$2,$3*
1,1,$1+$1,$4,$5*
1,1,$1+$1,$6,$7*
1,1,$1+$1,$8,$9*
0 Add four rect primitives between the rounded corners*
20,1,$1+$1,$2,$3,$4,$5,0*
20,1,$1+$1,$4,$5,$6,$7,0*
20,1,$1+$1,$6,$7,$8,$9,0*
20,1,$1+$1,$8,$9,$2,$3,0*%
G04 Aperture macros list end*
%ADD10C,2.180000*%
%ADD11C,1.500000*%
%ADD12RoundRect,0.102000X0.550000X1.100000X-0.550000X1.100000X-0.550000X-1.100000X0.550000X-1.100000X0*%
%ADD13C,1.400000*%
%ADD14RoundRect,0.770000X-0.980000X0.980000X-0.980000X-0.980000X0.980000X-0.980000X0.980000X0.980000X0*%
%ADD15C,3.500000*%
%ADD16C,3.200000*%
%ADD17RoundRect,0.250000X0.725000X-0.600000X0.725000X0.600000X-0.725000X0.600000X-0.725000X-0.600000X0*%
%ADD18O,1.950000X1.700000*%
%ADD19RoundRect,0.102000X-0.765000X-1.360000X0.765000X-1.360000X0.765000X1.360000X-0.765000X1.360000X0*%
%ADD20RoundRect,0.770000X0.980000X-0.980000X0.980000X0.980000X-0.980000X0.980000X-0.980000X-0.980000X0*%
%ADD21R,4.100000X3.500000*%
%ADD22C,1.734000*%
%ADD23R,1.803400X1.117600*%
%ADD24C,2.604000*%
%ADD25RoundRect,0.150000X-0.512500X-0.150000X0.512500X-0.150000X0.512500X0.150000X-0.512500X0.150000X0*%
%ADD26R,1.625600X1.625600*%
%ADD27C,1.625600*%
G04 APERTURE END LIST*
D10*
%TO.C,MDB1*%
X176200000Y-83680000D03*
X176200000Y-114280000D03*
D11*
X154570000Y-82490000D03*
X154570000Y-85030000D03*
X154570000Y-87570000D03*
X154570000Y-90110000D03*
X154570000Y-92650000D03*
X154570000Y-95190000D03*
X154570000Y-97730000D03*
X154570000Y-100270000D03*
X154570000Y-102810000D03*
X154570000Y-105350000D03*
X154570000Y-107890000D03*
X154570000Y-110430000D03*
X154570000Y-112970000D03*
X154570000Y-115510000D03*
X177430000Y-90070000D03*
X177430000Y-92610000D03*
X177430000Y-95150000D03*
X177430000Y-97690000D03*
X177430000Y-100230000D03*
X177430000Y-102770000D03*
X177430000Y-105310000D03*
%TD*%
D12*
%TO.C,C4*%
X129387575Y-102760558D03*
X126087575Y-102760558D03*
%TD*%
D13*
%TO.C,J4*%
X192000000Y-103000000D03*
X192000000Y-114000000D03*
D14*
X182000000Y-111000000D03*
D15*
X182000000Y-106000000D03*
%TD*%
D16*
%TO.C,REF\u002A\u002A*%
X172000000Y-77000000D03*
%TD*%
D17*
%TO.C,J5*%
X187500000Y-83000000D03*
D18*
X187500000Y-80500000D03*
X187500000Y-78000000D03*
X187500000Y-75500000D03*
%TD*%
D19*
%TO.C,C1*%
X116646575Y-99760558D03*
X119328575Y-99760558D03*
%TD*%
D13*
%TO.C,J2*%
X92500000Y-110000000D03*
X92500000Y-99000000D03*
D20*
X102500000Y-102000000D03*
D15*
X102500000Y-107000000D03*
%TD*%
D12*
%TO.C,C5*%
X129387575Y-99010558D03*
X126087575Y-99010558D03*
%TD*%
D21*
%TO.C,L1*%
X122487575Y-91260558D03*
X131987575Y-91260558D03*
%TD*%
D22*
%TO.C,MCB1*%
X141520000Y-76000000D03*
X138980000Y-76000000D03*
X136440000Y-76000000D03*
X133900000Y-76000000D03*
X131360000Y-76000000D03*
X128820000Y-76000000D03*
X126280000Y-76000000D03*
X123740000Y-76000000D03*
X121200000Y-76000000D03*
X118660000Y-76000000D03*
X116120000Y-76000000D03*
X113580000Y-76000000D03*
X111040000Y-76000000D03*
X108500000Y-76000000D03*
X105960000Y-76000000D03*
X103420000Y-76000000D03*
X100880000Y-76000000D03*
X98340000Y-76000000D03*
X95800000Y-76000000D03*
X93260000Y-76000000D03*
X138980000Y-114100000D03*
X136440000Y-114100000D03*
X133900000Y-114100000D03*
X131360000Y-114100000D03*
X128820000Y-114100000D03*
X126280000Y-114100000D03*
X123740000Y-114100000D03*
X121200000Y-114100000D03*
X118660000Y-114100000D03*
X116120000Y-114100000D03*
X113580000Y-114100000D03*
X111040000Y-114100000D03*
X108500000Y-114100000D03*
X105960000Y-114100000D03*
X103420000Y-114100000D03*
X100880000Y-114100000D03*
X98340000Y-114100000D03*
X95800000Y-114100000D03*
X93260000Y-114100000D03*
X90720000Y-114100000D03*
%TD*%
D23*
%TO.C,C3*%
X117737575Y-89411758D03*
X117737575Y-92510558D03*
%TD*%
D24*
%TO.C,F1*%
X146405000Y-89915000D03*
X149805000Y-89915000D03*
X146405000Y-76445000D03*
X149805000Y-76445000D03*
%TD*%
D25*
%TO.C,U1*%
X116600075Y-94810558D03*
X116600075Y-95760558D03*
X116600075Y-96710558D03*
X118875075Y-96710558D03*
X118875075Y-95760558D03*
X118875075Y-94810558D03*
%TD*%
D26*
%TO.C,F3*%
X111937575Y-99610558D03*
D27*
X111937575Y-94530558D03*
%TD*%
D13*
%TO.C,J1*%
X92505000Y-91145000D03*
X92505000Y-80145000D03*
D20*
X102505000Y-83145000D03*
D15*
X102505000Y-88145000D03*
%TD*%
D19*
%TO.C,C2*%
X116646575Y-103510558D03*
X119328575Y-103510558D03*
%TD*%
D24*
%TO.C,F2*%
X149805000Y-97145000D03*
X146405000Y-97145000D03*
X149805000Y-110615000D03*
X146405000Y-110615000D03*
%TD*%
D13*
%TO.C,J3*%
X192000000Y-88500000D03*
X192000000Y-99500000D03*
D14*
X182000000Y-96500000D03*
D15*
X182000000Y-91500000D03*
%TD*%
M02*
