%TF.GenerationSoftware,KiCad,Pcbnew,9.0.5*%
%TF.CreationDate,2026-05-09T17:07:01-07:00*%
%TF.ProjectId,StepperControllerCarrier,53746570-7065-4724-936f-6e74726f6c6c,rev?*%
%TF.SameCoordinates,Original*%
%TF.FileFunction,Legend,Bot*%
%TF.FilePolarity,Positive*%
%FSLAX46Y46*%
G04 Gerber Fmt 4.6, Leading zero omitted, Abs format (unit mm)*
G04 Created by KiCad (PCBNEW 9.0.5) date 2026-05-09 17:07:01*
%MOMM*%
%LPD*%
G01*
G04 APERTURE LIST*
G04 Aperture macros list*
%AMRoundRect*
0 Rectangle with rounded corners*
0 $1 Rounding radius*
0 $2 $3 $4 $5 $6 $7 $8 $9 X,Y pos of 4 corners*
0 Add a 4 corners polygon primitive as box body*
4,1,4,$2,$3,$4,$5,$6,$7,$8,$9,$2,$3,0*
0 Add four circle primitives for the rounded corners*
1,1,$1+$1,$2,$3*
1,1,$1+$1,$4,$5*
1,1,$1+$1,$6,$7*
1,1,$1+$1,$8,$9*
0 Add four rect primitives between the rounded corners*
20,1,$1+$1,$2,$3,$4,$5,0*
20,1,$1+$1,$4,$5,$6,$7,0*
20,1,$1+$1,$6,$7,$8,$9,0*
20,1,$1+$1,$8,$9,$2,$3,0*%
G04 Aperture macros list end*
%ADD10C,0.150000*%
%ADD11C,0.100000*%
%ADD12C,0.000000*%
%ADD13C,2.180000*%
%ADD14C,1.500000*%
%ADD15C,1.400000*%
%ADD16RoundRect,0.770000X-0.980000X0.980000X-0.980000X-0.980000X0.980000X-0.980000X0.980000X0.980000X0*%
%ADD17C,3.500000*%
%ADD18C,3.200000*%
%ADD19RoundRect,0.250000X0.725000X-0.600000X0.725000X0.600000X-0.725000X0.600000X-0.725000X-0.600000X0*%
%ADD20O,1.950000X1.700000*%
%ADD21RoundRect,0.770000X0.980000X-0.980000X0.980000X0.980000X-0.980000X0.980000X-0.980000X-0.980000X0*%
%ADD22C,1.734000*%
%ADD23C,2.604000*%
%ADD24R,1.625600X1.625600*%
%ADD25C,1.625600*%
G04 APERTURE END LIST*
D10*
X139366905Y-82548153D02*
X139176429Y-82548153D01*
X139176429Y-82548153D02*
X139081191Y-82595772D01*
X139081191Y-82595772D02*
X138985953Y-82691010D01*
X138985953Y-82691010D02*
X138938334Y-82881486D01*
X138938334Y-82881486D02*
X138938334Y-83214819D01*
X138938334Y-83214819D02*
X138985953Y-83405295D01*
X138985953Y-83405295D02*
X139081191Y-83500534D01*
X139081191Y-83500534D02*
X139176429Y-83548153D01*
X139176429Y-83548153D02*
X139366905Y-83548153D01*
X139366905Y-83548153D02*
X139462143Y-83500534D01*
X139462143Y-83500534D02*
X139557381Y-83405295D01*
X139557381Y-83405295D02*
X139605000Y-83214819D01*
X139605000Y-83214819D02*
X139605000Y-82881486D01*
X139605000Y-82881486D02*
X139557381Y-82691010D01*
X139557381Y-82691010D02*
X139462143Y-82595772D01*
X139462143Y-82595772D02*
X139366905Y-82548153D01*
X138366905Y-83548153D02*
X138462143Y-83500534D01*
X138462143Y-83500534D02*
X138509762Y-83405295D01*
X138509762Y-83405295D02*
X138509762Y-82548153D01*
X137985952Y-83548153D02*
X137985952Y-82881486D01*
X137985952Y-82548153D02*
X138033571Y-82595772D01*
X138033571Y-82595772D02*
X137985952Y-82643391D01*
X137985952Y-82643391D02*
X137938333Y-82595772D01*
X137938333Y-82595772D02*
X137985952Y-82548153D01*
X137985952Y-82548153D02*
X137985952Y-82643391D01*
X137605000Y-82881486D02*
X137366905Y-83548153D01*
X137366905Y-83548153D02*
X137128810Y-82881486D01*
X136366905Y-83500534D02*
X136462143Y-83548153D01*
X136462143Y-83548153D02*
X136652619Y-83548153D01*
X136652619Y-83548153D02*
X136747857Y-83500534D01*
X136747857Y-83500534D02*
X136795476Y-83405295D01*
X136795476Y-83405295D02*
X136795476Y-83024343D01*
X136795476Y-83024343D02*
X136747857Y-82929105D01*
X136747857Y-82929105D02*
X136652619Y-82881486D01*
X136652619Y-82881486D02*
X136462143Y-82881486D01*
X136462143Y-82881486D02*
X136366905Y-82929105D01*
X136366905Y-82929105D02*
X136319286Y-83024343D01*
X136319286Y-83024343D02*
X136319286Y-83119581D01*
X136319286Y-83119581D02*
X136795476Y-83214819D01*
X135890714Y-83548153D02*
X135890714Y-82881486D01*
X135890714Y-83071962D02*
X135843095Y-82976724D01*
X135843095Y-82976724D02*
X135795476Y-82929105D01*
X135795476Y-82929105D02*
X135700238Y-82881486D01*
X135700238Y-82881486D02*
X135605000Y-82881486D01*
X134557380Y-83500534D02*
X134414523Y-83548153D01*
X134414523Y-83548153D02*
X134176428Y-83548153D01*
X134176428Y-83548153D02*
X134081190Y-83500534D01*
X134081190Y-83500534D02*
X134033571Y-83452914D01*
X134033571Y-83452914D02*
X133985952Y-83357676D01*
X133985952Y-83357676D02*
X133985952Y-83262438D01*
X133985952Y-83262438D02*
X134033571Y-83167200D01*
X134033571Y-83167200D02*
X134081190Y-83119581D01*
X134081190Y-83119581D02*
X134176428Y-83071962D01*
X134176428Y-83071962D02*
X134366904Y-83024343D01*
X134366904Y-83024343D02*
X134462142Y-82976724D01*
X134462142Y-82976724D02*
X134509761Y-82929105D01*
X134509761Y-82929105D02*
X134557380Y-82833867D01*
X134557380Y-82833867D02*
X134557380Y-82738629D01*
X134557380Y-82738629D02*
X134509761Y-82643391D01*
X134509761Y-82643391D02*
X134462142Y-82595772D01*
X134462142Y-82595772D02*
X134366904Y-82548153D01*
X134366904Y-82548153D02*
X134128809Y-82548153D01*
X134128809Y-82548153D02*
X133985952Y-82595772D01*
X133128809Y-83500534D02*
X133224047Y-83548153D01*
X133224047Y-83548153D02*
X133414523Y-83548153D01*
X133414523Y-83548153D02*
X133509761Y-83500534D01*
X133509761Y-83500534D02*
X133557380Y-83452914D01*
X133557380Y-83452914D02*
X133604999Y-83357676D01*
X133604999Y-83357676D02*
X133604999Y-83071962D01*
X133604999Y-83071962D02*
X133557380Y-82976724D01*
X133557380Y-82976724D02*
X133509761Y-82929105D01*
X133509761Y-82929105D02*
X133414523Y-82881486D01*
X133414523Y-82881486D02*
X133224047Y-82881486D01*
X133224047Y-82881486D02*
X133128809Y-82929105D01*
X132700237Y-83548153D02*
X132700237Y-82548153D01*
X132271666Y-83548153D02*
X132271666Y-83024343D01*
X132271666Y-83024343D02*
X132319285Y-82929105D01*
X132319285Y-82929105D02*
X132414523Y-82881486D01*
X132414523Y-82881486D02*
X132557380Y-82881486D01*
X132557380Y-82881486D02*
X132652618Y-82929105D01*
X132652618Y-82929105D02*
X132700237Y-82976724D01*
X131795475Y-82881486D02*
X131795475Y-83548153D01*
X131795475Y-82976724D02*
X131747856Y-82929105D01*
X131747856Y-82929105D02*
X131652618Y-82881486D01*
X131652618Y-82881486D02*
X131509761Y-82881486D01*
X131509761Y-82881486D02*
X131414523Y-82929105D01*
X131414523Y-82929105D02*
X131366904Y-83024343D01*
X131366904Y-83024343D02*
X131366904Y-83548153D01*
X130509761Y-83500534D02*
X130604999Y-83548153D01*
X130604999Y-83548153D02*
X130795475Y-83548153D01*
X130795475Y-83548153D02*
X130890713Y-83500534D01*
X130890713Y-83500534D02*
X130938332Y-83405295D01*
X130938332Y-83405295D02*
X130938332Y-83024343D01*
X130938332Y-83024343D02*
X130890713Y-82929105D01*
X130890713Y-82929105D02*
X130795475Y-82881486D01*
X130795475Y-82881486D02*
X130604999Y-82881486D01*
X130604999Y-82881486D02*
X130509761Y-82929105D01*
X130509761Y-82929105D02*
X130462142Y-83024343D01*
X130462142Y-83024343D02*
X130462142Y-83119581D01*
X130462142Y-83119581D02*
X130938332Y-83214819D01*
X130033570Y-83548153D02*
X130033570Y-82881486D01*
X130033570Y-82548153D02*
X130081189Y-82595772D01*
X130081189Y-82595772D02*
X130033570Y-82643391D01*
X130033570Y-82643391D02*
X129985951Y-82595772D01*
X129985951Y-82595772D02*
X130033570Y-82548153D01*
X130033570Y-82548153D02*
X130033570Y-82643391D01*
X129128809Y-83548153D02*
X129128809Y-82548153D01*
X129128809Y-83500534D02*
X129224047Y-83548153D01*
X129224047Y-83548153D02*
X129414523Y-83548153D01*
X129414523Y-83548153D02*
X129509761Y-83500534D01*
X129509761Y-83500534D02*
X129557380Y-83452914D01*
X129557380Y-83452914D02*
X129604999Y-83357676D01*
X129604999Y-83357676D02*
X129604999Y-83071962D01*
X129604999Y-83071962D02*
X129557380Y-82976724D01*
X129557380Y-82976724D02*
X129509761Y-82929105D01*
X129509761Y-82929105D02*
X129414523Y-82881486D01*
X129414523Y-82881486D02*
X129224047Y-82881486D01*
X129224047Y-82881486D02*
X129128809Y-82929105D01*
X128271666Y-83500534D02*
X128366904Y-83548153D01*
X128366904Y-83548153D02*
X128557380Y-83548153D01*
X128557380Y-83548153D02*
X128652618Y-83500534D01*
X128652618Y-83500534D02*
X128700237Y-83405295D01*
X128700237Y-83405295D02*
X128700237Y-83024343D01*
X128700237Y-83024343D02*
X128652618Y-82929105D01*
X128652618Y-82929105D02*
X128557380Y-82881486D01*
X128557380Y-82881486D02*
X128366904Y-82881486D01*
X128366904Y-82881486D02*
X128271666Y-82929105D01*
X128271666Y-82929105D02*
X128224047Y-83024343D01*
X128224047Y-83024343D02*
X128224047Y-83119581D01*
X128224047Y-83119581D02*
X128700237Y-83214819D01*
X127795475Y-83548153D02*
X127795475Y-82881486D01*
X127795475Y-83071962D02*
X127747856Y-82976724D01*
X127747856Y-82976724D02*
X127700237Y-82929105D01*
X127700237Y-82929105D02*
X127604999Y-82881486D01*
X127604999Y-82881486D02*
X127509761Y-82881486D01*
X137819286Y-85158097D02*
X138152619Y-84681906D01*
X138390714Y-85158097D02*
X138390714Y-84158097D01*
X138390714Y-84158097D02*
X138009762Y-84158097D01*
X138009762Y-84158097D02*
X137914524Y-84205716D01*
X137914524Y-84205716D02*
X137866905Y-84253335D01*
X137866905Y-84253335D02*
X137819286Y-84348573D01*
X137819286Y-84348573D02*
X137819286Y-84491430D01*
X137819286Y-84491430D02*
X137866905Y-84586668D01*
X137866905Y-84586668D02*
X137914524Y-84634287D01*
X137914524Y-84634287D02*
X138009762Y-84681906D01*
X138009762Y-84681906D02*
X138390714Y-84681906D01*
X137247857Y-85158097D02*
X137343095Y-85110478D01*
X137343095Y-85110478D02*
X137390714Y-85062858D01*
X137390714Y-85062858D02*
X137438333Y-84967620D01*
X137438333Y-84967620D02*
X137438333Y-84681906D01*
X137438333Y-84681906D02*
X137390714Y-84586668D01*
X137390714Y-84586668D02*
X137343095Y-84539049D01*
X137343095Y-84539049D02*
X137247857Y-84491430D01*
X137247857Y-84491430D02*
X137105000Y-84491430D01*
X137105000Y-84491430D02*
X137009762Y-84539049D01*
X137009762Y-84539049D02*
X136962143Y-84586668D01*
X136962143Y-84586668D02*
X136914524Y-84681906D01*
X136914524Y-84681906D02*
X136914524Y-84967620D01*
X136914524Y-84967620D02*
X136962143Y-85062858D01*
X136962143Y-85062858D02*
X137009762Y-85110478D01*
X137009762Y-85110478D02*
X137105000Y-85158097D01*
X137105000Y-85158097D02*
X137247857Y-85158097D01*
X136485952Y-84491430D02*
X136485952Y-85158097D01*
X136485952Y-84586668D02*
X136438333Y-84539049D01*
X136438333Y-84539049D02*
X136343095Y-84491430D01*
X136343095Y-84491430D02*
X136200238Y-84491430D01*
X136200238Y-84491430D02*
X136105000Y-84539049D01*
X136105000Y-84539049D02*
X136057381Y-84634287D01*
X136057381Y-84634287D02*
X136057381Y-85158097D01*
X135152619Y-85158097D02*
X135152619Y-84634287D01*
X135152619Y-84634287D02*
X135200238Y-84539049D01*
X135200238Y-84539049D02*
X135295476Y-84491430D01*
X135295476Y-84491430D02*
X135485952Y-84491430D01*
X135485952Y-84491430D02*
X135581190Y-84539049D01*
X135152619Y-85110478D02*
X135247857Y-85158097D01*
X135247857Y-85158097D02*
X135485952Y-85158097D01*
X135485952Y-85158097D02*
X135581190Y-85110478D01*
X135581190Y-85110478D02*
X135628809Y-85015239D01*
X135628809Y-85015239D02*
X135628809Y-84920001D01*
X135628809Y-84920001D02*
X135581190Y-84824763D01*
X135581190Y-84824763D02*
X135485952Y-84777144D01*
X135485952Y-84777144D02*
X135247857Y-84777144D01*
X135247857Y-84777144D02*
X135152619Y-84729525D01*
X134676428Y-85158097D02*
X134676428Y-84158097D01*
X134581190Y-84777144D02*
X134295476Y-85158097D01*
X134295476Y-84491430D02*
X134676428Y-84872382D01*
X132581190Y-84205716D02*
X132676428Y-84158097D01*
X132676428Y-84158097D02*
X132819285Y-84158097D01*
X132819285Y-84158097D02*
X132962142Y-84205716D01*
X132962142Y-84205716D02*
X133057380Y-84300954D01*
X133057380Y-84300954D02*
X133104999Y-84396192D01*
X133104999Y-84396192D02*
X133152618Y-84586668D01*
X133152618Y-84586668D02*
X133152618Y-84729525D01*
X133152618Y-84729525D02*
X133104999Y-84920001D01*
X133104999Y-84920001D02*
X133057380Y-85015239D01*
X133057380Y-85015239D02*
X132962142Y-85110478D01*
X132962142Y-85110478D02*
X132819285Y-85158097D01*
X132819285Y-85158097D02*
X132724047Y-85158097D01*
X132724047Y-85158097D02*
X132581190Y-85110478D01*
X132581190Y-85110478D02*
X132533571Y-85062858D01*
X132533571Y-85062858D02*
X132533571Y-84729525D01*
X132533571Y-84729525D02*
X132724047Y-84729525D01*
X132104999Y-85158097D02*
X132104999Y-84491430D01*
X132104999Y-84681906D02*
X132057380Y-84586668D01*
X132057380Y-84586668D02*
X132009761Y-84539049D01*
X132009761Y-84539049D02*
X131914523Y-84491430D01*
X131914523Y-84491430D02*
X131819285Y-84491430D01*
X131343094Y-85158097D02*
X131438332Y-85110478D01*
X131438332Y-85110478D02*
X131485951Y-85062858D01*
X131485951Y-85062858D02*
X131533570Y-84967620D01*
X131533570Y-84967620D02*
X131533570Y-84681906D01*
X131533570Y-84681906D02*
X131485951Y-84586668D01*
X131485951Y-84586668D02*
X131438332Y-84539049D01*
X131438332Y-84539049D02*
X131343094Y-84491430D01*
X131343094Y-84491430D02*
X131200237Y-84491430D01*
X131200237Y-84491430D02*
X131104999Y-84539049D01*
X131104999Y-84539049D02*
X131057380Y-84586668D01*
X131057380Y-84586668D02*
X131009761Y-84681906D01*
X131009761Y-84681906D02*
X131009761Y-84967620D01*
X131009761Y-84967620D02*
X131057380Y-85062858D01*
X131057380Y-85062858D02*
X131104999Y-85110478D01*
X131104999Y-85110478D02*
X131200237Y-85158097D01*
X131200237Y-85158097D02*
X131343094Y-85158097D01*
X130676427Y-84491430D02*
X130438332Y-85158097D01*
X130438332Y-85158097D02*
X130200237Y-84491430D01*
X129438332Y-85110478D02*
X129533570Y-85158097D01*
X129533570Y-85158097D02*
X129724046Y-85158097D01*
X129724046Y-85158097D02*
X129819284Y-85110478D01*
X129819284Y-85110478D02*
X129866903Y-85015239D01*
X129866903Y-85015239D02*
X129866903Y-84634287D01*
X129866903Y-84634287D02*
X129819284Y-84539049D01*
X129819284Y-84539049D02*
X129724046Y-84491430D01*
X129724046Y-84491430D02*
X129533570Y-84491430D01*
X129533570Y-84491430D02*
X129438332Y-84539049D01*
X129438332Y-84539049D02*
X129390713Y-84634287D01*
X129390713Y-84634287D02*
X129390713Y-84729525D01*
X129390713Y-84729525D02*
X129866903Y-84824763D01*
X128962141Y-85158097D02*
X128962141Y-84491430D01*
X128962141Y-84681906D02*
X128914522Y-84586668D01*
X128914522Y-84586668D02*
X128866903Y-84539049D01*
X128866903Y-84539049D02*
X128771665Y-84491430D01*
X128771665Y-84491430D02*
X128676427Y-84491430D01*
X138747856Y-86768041D02*
X138747856Y-85768041D01*
X138747856Y-86244231D02*
X138176428Y-86244231D01*
X138176428Y-86768041D02*
X138176428Y-85768041D01*
X137271666Y-86768041D02*
X137271666Y-86244231D01*
X137271666Y-86244231D02*
X137319285Y-86148993D01*
X137319285Y-86148993D02*
X137414523Y-86101374D01*
X137414523Y-86101374D02*
X137604999Y-86101374D01*
X137604999Y-86101374D02*
X137700237Y-86148993D01*
X137271666Y-86720422D02*
X137366904Y-86768041D01*
X137366904Y-86768041D02*
X137604999Y-86768041D01*
X137604999Y-86768041D02*
X137700237Y-86720422D01*
X137700237Y-86720422D02*
X137747856Y-86625183D01*
X137747856Y-86625183D02*
X137747856Y-86529945D01*
X137747856Y-86529945D02*
X137700237Y-86434707D01*
X137700237Y-86434707D02*
X137604999Y-86387088D01*
X137604999Y-86387088D02*
X137366904Y-86387088D01*
X137366904Y-86387088D02*
X137271666Y-86339469D01*
X136890713Y-86101374D02*
X136366904Y-86101374D01*
X136366904Y-86101374D02*
X136890713Y-86768041D01*
X136890713Y-86768041D02*
X136366904Y-86768041D01*
X135604999Y-86720422D02*
X135700237Y-86768041D01*
X135700237Y-86768041D02*
X135890713Y-86768041D01*
X135890713Y-86768041D02*
X135985951Y-86720422D01*
X135985951Y-86720422D02*
X136033570Y-86625183D01*
X136033570Y-86625183D02*
X136033570Y-86244231D01*
X136033570Y-86244231D02*
X135985951Y-86148993D01*
X135985951Y-86148993D02*
X135890713Y-86101374D01*
X135890713Y-86101374D02*
X135700237Y-86101374D01*
X135700237Y-86101374D02*
X135604999Y-86148993D01*
X135604999Y-86148993D02*
X135557380Y-86244231D01*
X135557380Y-86244231D02*
X135557380Y-86339469D01*
X135557380Y-86339469D02*
X136033570Y-86434707D01*
X135128808Y-86768041D02*
X135128808Y-86101374D01*
X135128808Y-86196612D02*
X135081189Y-86148993D01*
X135081189Y-86148993D02*
X134985951Y-86101374D01*
X134985951Y-86101374D02*
X134843094Y-86101374D01*
X134843094Y-86101374D02*
X134747856Y-86148993D01*
X134747856Y-86148993D02*
X134700237Y-86244231D01*
X134700237Y-86244231D02*
X134700237Y-86768041D01*
X134700237Y-86244231D02*
X134652618Y-86148993D01*
X134652618Y-86148993D02*
X134557380Y-86101374D01*
X134557380Y-86101374D02*
X134414523Y-86101374D01*
X134414523Y-86101374D02*
X134319284Y-86148993D01*
X134319284Y-86148993D02*
X134271665Y-86244231D01*
X134271665Y-86244231D02*
X134271665Y-86768041D01*
X133081189Y-86482326D02*
X132604999Y-86482326D01*
X133176427Y-86768041D02*
X132843094Y-85768041D01*
X132843094Y-85768041D02*
X132509761Y-86768041D01*
X132176427Y-86768041D02*
X132176427Y-86101374D01*
X132176427Y-86196612D02*
X132128808Y-86148993D01*
X132128808Y-86148993D02*
X132033570Y-86101374D01*
X132033570Y-86101374D02*
X131890713Y-86101374D01*
X131890713Y-86101374D02*
X131795475Y-86148993D01*
X131795475Y-86148993D02*
X131747856Y-86244231D01*
X131747856Y-86244231D02*
X131747856Y-86768041D01*
X131747856Y-86244231D02*
X131700237Y-86148993D01*
X131700237Y-86148993D02*
X131604999Y-86101374D01*
X131604999Y-86101374D02*
X131462142Y-86101374D01*
X131462142Y-86101374D02*
X131366903Y-86148993D01*
X131366903Y-86148993D02*
X131319284Y-86244231D01*
X131319284Y-86244231D02*
X131319284Y-86768041D01*
X130843094Y-86768041D02*
X130843094Y-86101374D01*
X130843094Y-86196612D02*
X130795475Y-86148993D01*
X130795475Y-86148993D02*
X130700237Y-86101374D01*
X130700237Y-86101374D02*
X130557380Y-86101374D01*
X130557380Y-86101374D02*
X130462142Y-86148993D01*
X130462142Y-86148993D02*
X130414523Y-86244231D01*
X130414523Y-86244231D02*
X130414523Y-86768041D01*
X130414523Y-86244231D02*
X130366904Y-86148993D01*
X130366904Y-86148993D02*
X130271666Y-86101374D01*
X130271666Y-86101374D02*
X130128809Y-86101374D01*
X130128809Y-86101374D02*
X130033570Y-86148993D01*
X130033570Y-86148993D02*
X129985951Y-86244231D01*
X129985951Y-86244231D02*
X129985951Y-86768041D01*
X129081190Y-86768041D02*
X129081190Y-86244231D01*
X129081190Y-86244231D02*
X129128809Y-86148993D01*
X129128809Y-86148993D02*
X129224047Y-86101374D01*
X129224047Y-86101374D02*
X129414523Y-86101374D01*
X129414523Y-86101374D02*
X129509761Y-86148993D01*
X129081190Y-86720422D02*
X129176428Y-86768041D01*
X129176428Y-86768041D02*
X129414523Y-86768041D01*
X129414523Y-86768041D02*
X129509761Y-86720422D01*
X129509761Y-86720422D02*
X129557380Y-86625183D01*
X129557380Y-86625183D02*
X129557380Y-86529945D01*
X129557380Y-86529945D02*
X129509761Y-86434707D01*
X129509761Y-86434707D02*
X129414523Y-86387088D01*
X129414523Y-86387088D02*
X129176428Y-86387088D01*
X129176428Y-86387088D02*
X129081190Y-86339469D01*
X128604999Y-86768041D02*
X128604999Y-86101374D01*
X128604999Y-86291850D02*
X128557380Y-86196612D01*
X128557380Y-86196612D02*
X128509761Y-86148993D01*
X128509761Y-86148993D02*
X128414523Y-86101374D01*
X128414523Y-86101374D02*
X128319285Y-86101374D01*
X137462142Y-88377985D02*
X137462142Y-87377985D01*
X137462142Y-87854175D02*
X136890714Y-87854175D01*
X136890714Y-88377985D02*
X136890714Y-87377985D01*
X136033571Y-88330366D02*
X136128809Y-88377985D01*
X136128809Y-88377985D02*
X136319285Y-88377985D01*
X136319285Y-88377985D02*
X136414523Y-88330366D01*
X136414523Y-88330366D02*
X136462142Y-88235127D01*
X136462142Y-88235127D02*
X136462142Y-87854175D01*
X136462142Y-87854175D02*
X136414523Y-87758937D01*
X136414523Y-87758937D02*
X136319285Y-87711318D01*
X136319285Y-87711318D02*
X136128809Y-87711318D01*
X136128809Y-87711318D02*
X136033571Y-87758937D01*
X136033571Y-87758937D02*
X135985952Y-87854175D01*
X135985952Y-87854175D02*
X135985952Y-87949413D01*
X135985952Y-87949413D02*
X136462142Y-88044651D01*
X135557380Y-87711318D02*
X135557380Y-88377985D01*
X135557380Y-87806556D02*
X135509761Y-87758937D01*
X135509761Y-87758937D02*
X135414523Y-87711318D01*
X135414523Y-87711318D02*
X135271666Y-87711318D01*
X135271666Y-87711318D02*
X135176428Y-87758937D01*
X135176428Y-87758937D02*
X135128809Y-87854175D01*
X135128809Y-87854175D02*
X135128809Y-88377985D01*
X134652618Y-88377985D02*
X134652618Y-87711318D01*
X134652618Y-87901794D02*
X134604999Y-87806556D01*
X134604999Y-87806556D02*
X134557380Y-87758937D01*
X134557380Y-87758937D02*
X134462142Y-87711318D01*
X134462142Y-87711318D02*
X134366904Y-87711318D01*
X134128808Y-87711318D02*
X133890713Y-88377985D01*
X133652618Y-87711318D02*
X133890713Y-88377985D01*
X133890713Y-88377985D02*
X133985951Y-88616080D01*
X133985951Y-88616080D02*
X134033570Y-88663699D01*
X134033570Y-88663699D02*
X134128808Y-88711318D01*
X132509760Y-88377985D02*
X132509760Y-87377985D01*
X132509760Y-87377985D02*
X132271665Y-87377985D01*
X132271665Y-87377985D02*
X132128808Y-87425604D01*
X132128808Y-87425604D02*
X132033570Y-87520842D01*
X132033570Y-87520842D02*
X131985951Y-87616080D01*
X131985951Y-87616080D02*
X131938332Y-87806556D01*
X131938332Y-87806556D02*
X131938332Y-87949413D01*
X131938332Y-87949413D02*
X131985951Y-88139889D01*
X131985951Y-88139889D02*
X132033570Y-88235127D01*
X132033570Y-88235127D02*
X132128808Y-88330366D01*
X132128808Y-88330366D02*
X132271665Y-88377985D01*
X132271665Y-88377985D02*
X132509760Y-88377985D01*
X131509760Y-88377985D02*
X131509760Y-87711318D01*
X131509760Y-87377985D02*
X131557379Y-87425604D01*
X131557379Y-87425604D02*
X131509760Y-87473223D01*
X131509760Y-87473223D02*
X131462141Y-87425604D01*
X131462141Y-87425604D02*
X131509760Y-87377985D01*
X131509760Y-87377985D02*
X131509760Y-87473223D01*
X130652618Y-88330366D02*
X130747856Y-88377985D01*
X130747856Y-88377985D02*
X130938332Y-88377985D01*
X130938332Y-88377985D02*
X131033570Y-88330366D01*
X131033570Y-88330366D02*
X131081189Y-88235127D01*
X131081189Y-88235127D02*
X131081189Y-87854175D01*
X131081189Y-87854175D02*
X131033570Y-87758937D01*
X131033570Y-87758937D02*
X130938332Y-87711318D01*
X130938332Y-87711318D02*
X130747856Y-87711318D01*
X130747856Y-87711318D02*
X130652618Y-87758937D01*
X130652618Y-87758937D02*
X130604999Y-87854175D01*
X130604999Y-87854175D02*
X130604999Y-87949413D01*
X130604999Y-87949413D02*
X131081189Y-88044651D01*
X130176427Y-87711318D02*
X130176427Y-88711318D01*
X130176427Y-87758937D02*
X130081189Y-87711318D01*
X130081189Y-87711318D02*
X129890713Y-87711318D01*
X129890713Y-87711318D02*
X129795475Y-87758937D01*
X129795475Y-87758937D02*
X129747856Y-87806556D01*
X129747856Y-87806556D02*
X129700237Y-87901794D01*
X129700237Y-87901794D02*
X129700237Y-88187508D01*
X129700237Y-88187508D02*
X129747856Y-88282746D01*
X129747856Y-88282746D02*
X129795475Y-88330366D01*
X129795475Y-88330366D02*
X129890713Y-88377985D01*
X129890713Y-88377985D02*
X130081189Y-88377985D01*
X130081189Y-88377985D02*
X130176427Y-88330366D01*
D11*
%TO.C,G\u002A\u002A\u002A*%
X118645000Y-89698250D02*
X117665000Y-89228250D01*
X117005000Y-88628250D01*
X116225000Y-87398250D01*
X115995000Y-86728250D01*
X116035000Y-86598250D01*
X116245000Y-86388250D01*
X116505000Y-86158250D01*
X116935000Y-85798250D01*
X117275000Y-85528250D01*
X117655000Y-85238250D01*
X118005000Y-84988250D01*
X118415000Y-84718250D01*
X118565000Y-84628250D01*
X118645000Y-84588250D01*
X118645000Y-89698250D01*
G36*
X118645000Y-89698250D02*
G01*
X117665000Y-89228250D01*
X117005000Y-88628250D01*
X116225000Y-87398250D01*
X115995000Y-86728250D01*
X116035000Y-86598250D01*
X116245000Y-86388250D01*
X116505000Y-86158250D01*
X116935000Y-85798250D01*
X117275000Y-85528250D01*
X117655000Y-85238250D01*
X118005000Y-84988250D01*
X118415000Y-84718250D01*
X118565000Y-84628250D01*
X118645000Y-84588250D01*
X118645000Y-89698250D01*
G37*
X119525000Y-84208250D02*
X119865000Y-84418250D01*
X120325000Y-84678250D01*
X120465000Y-84728250D01*
X120525000Y-84728250D01*
X121045000Y-84348250D01*
X121555000Y-84778250D01*
X122175000Y-85238250D01*
X122845000Y-85658250D01*
X123585000Y-86058250D01*
X123995000Y-86258250D01*
X124495000Y-86478250D01*
X124785000Y-86588250D01*
X124885000Y-86718250D01*
X124015000Y-88468250D01*
X123055000Y-89338250D01*
X121695000Y-89998250D01*
X119965000Y-90118250D01*
X119485000Y-89918250D01*
X119485000Y-84188250D01*
X119525000Y-84208250D01*
G36*
X119525000Y-84208250D02*
G01*
X119865000Y-84418250D01*
X120325000Y-84678250D01*
X120465000Y-84728250D01*
X120525000Y-84728250D01*
X121045000Y-84348250D01*
X121555000Y-84778250D01*
X122175000Y-85238250D01*
X122845000Y-85658250D01*
X123585000Y-86058250D01*
X123995000Y-86258250D01*
X124495000Y-86478250D01*
X124785000Y-86588250D01*
X124885000Y-86718250D01*
X124015000Y-88468250D01*
X123055000Y-89338250D01*
X121695000Y-89998250D01*
X119965000Y-90118250D01*
X119485000Y-89918250D01*
X119485000Y-84188250D01*
X119525000Y-84208250D01*
G37*
D12*
G36*
X120959182Y-83357496D02*
G01*
X120959182Y-83977652D01*
X120391806Y-83977652D01*
X119824429Y-83977652D01*
X119824429Y-83865670D01*
X119824429Y-83753687D01*
X120276351Y-83750215D01*
X120728273Y-83746743D01*
X120732033Y-83611496D01*
X120735794Y-83476250D01*
X120365878Y-83476250D01*
X119995961Y-83476250D01*
X119995961Y-83357496D01*
X119995961Y-83238743D01*
X120365416Y-83238743D01*
X120734870Y-83238743D01*
X120734870Y-83106795D01*
X120734870Y-82974847D01*
X120279650Y-82974847D01*
X119824429Y-82974847D01*
X119824429Y-82856094D01*
X119824429Y-82737341D01*
X120391806Y-82737341D01*
X120959182Y-82737341D01*
X120959182Y-83357496D01*
G37*
G36*
X122318247Y-83357496D02*
G01*
X122318247Y-83977652D01*
X122206091Y-83977652D01*
X122093935Y-83977652D01*
X122093935Y-83766535D01*
X122093935Y-83555419D01*
X121688195Y-83555129D01*
X121579146Y-83554909D01*
X121474934Y-83554030D01*
X121391550Y-83552008D01*
X121326010Y-83548350D01*
X121275331Y-83542560D01*
X121236529Y-83534145D01*
X121206619Y-83522609D01*
X121182619Y-83507458D01*
X121161545Y-83488197D01*
X121140412Y-83464333D01*
X121117296Y-83432293D01*
X121099705Y-83394686D01*
X121087971Y-83348404D01*
X121081345Y-83289057D01*
X121079074Y-83212255D01*
X121080408Y-83113608D01*
X121081194Y-83085628D01*
X121084699Y-83004512D01*
X121087465Y-82974847D01*
X121315442Y-82974847D01*
X121315442Y-83146380D01*
X121315442Y-83317912D01*
X121704689Y-83317912D01*
X122093935Y-83317912D01*
X122093935Y-83146380D01*
X122093935Y-82974847D01*
X121704689Y-82974847D01*
X121315442Y-82974847D01*
X121087465Y-82974847D01*
X121090375Y-82943634D01*
X121099449Y-82898231D01*
X121113148Y-82863541D01*
X121132699Y-82834799D01*
X121159329Y-82807243D01*
X121159946Y-82806668D01*
X121178785Y-82789864D01*
X121197640Y-82776019D01*
X121219148Y-82764847D01*
X121245948Y-82756062D01*
X121280676Y-82749377D01*
X121325969Y-82744507D01*
X121384465Y-82741163D01*
X121458802Y-82739061D01*
X121551616Y-82737915D01*
X121665545Y-82737436D01*
X121803226Y-82737341D01*
X122318247Y-82737341D01*
X122318247Y-82974847D01*
X122318247Y-83357496D01*
G37*
G36*
X118307026Y-83357496D02*
G01*
X118307026Y-83977652D01*
X118194870Y-83977652D01*
X118082715Y-83977652D01*
X118082715Y-83766535D01*
X118082715Y-83555419D01*
X117878861Y-83555419D01*
X117675007Y-83555419D01*
X117498787Y-83763237D01*
X117322568Y-83971055D01*
X117194641Y-83974831D01*
X117174623Y-83975412D01*
X117122751Y-83976437D01*
X117090928Y-83975261D01*
X117074278Y-83970875D01*
X117067926Y-83962271D01*
X117066996Y-83948442D01*
X117067736Y-83943990D01*
X117081621Y-83916433D01*
X117112088Y-83872082D01*
X117157846Y-83812725D01*
X117217603Y-83740146D01*
X117367929Y-83562016D01*
X117296472Y-83553861D01*
X117278987Y-83551385D01*
X117201201Y-83526602D01*
X117138813Y-83482230D01*
X117094703Y-83420175D01*
X117093853Y-83418411D01*
X117083436Y-83393974D01*
X117076056Y-83367913D01*
X117071204Y-83335276D01*
X117068370Y-83291111D01*
X117067043Y-83230466D01*
X117066715Y-83148387D01*
X117066769Y-83122333D01*
X117068133Y-83033352D01*
X117071093Y-82974847D01*
X117304221Y-82974847D01*
X117304221Y-83146380D01*
X117304221Y-83317912D01*
X117693468Y-83317912D01*
X118082715Y-83317912D01*
X118082715Y-83146380D01*
X118082715Y-82974847D01*
X117693468Y-82974847D01*
X117304221Y-82974847D01*
X117071093Y-82974847D01*
X117071481Y-82967177D01*
X117077014Y-82920986D01*
X117084933Y-82891956D01*
X117093605Y-82874820D01*
X117132470Y-82824276D01*
X117183593Y-82780358D01*
X117236917Y-82752305D01*
X117239606Y-82751521D01*
X117270153Y-82747139D01*
X117324882Y-82743580D01*
X117404231Y-82740833D01*
X117508640Y-82738885D01*
X117638550Y-82737725D01*
X117794398Y-82737341D01*
X118307026Y-82737341D01*
X118307026Y-82974847D01*
X118307026Y-83357496D01*
G37*
G36*
X123210099Y-82737419D02*
G01*
X123319488Y-82737973D01*
X123407426Y-82739353D01*
X123476841Y-82741897D01*
X123530662Y-82745941D01*
X123571817Y-82751826D01*
X123603233Y-82759887D01*
X123627840Y-82770465D01*
X123648565Y-82783896D01*
X123668337Y-82800519D01*
X123686559Y-82818609D01*
X123710110Y-82851253D01*
X123726366Y-82891297D01*
X123736490Y-82943455D01*
X123741646Y-83012442D01*
X123742996Y-83102971D01*
X123742952Y-83116351D01*
X123740752Y-83207385D01*
X123734243Y-83277169D01*
X123721994Y-83330137D01*
X123702568Y-83370724D01*
X123674534Y-83403364D01*
X123636456Y-83432494D01*
X123580334Y-83469652D01*
X123160407Y-83473477D01*
X122740481Y-83477301D01*
X122740481Y-83615520D01*
X122740481Y-83753739D01*
X123126429Y-83750241D01*
X123512377Y-83746743D01*
X123516472Y-83697263D01*
X123520567Y-83647782D01*
X123633416Y-83647782D01*
X123746264Y-83647782D01*
X123741087Y-83739402D01*
X123738605Y-83773704D01*
X123731725Y-83816233D01*
X123718709Y-83848293D01*
X123696384Y-83879857D01*
X123686647Y-83891116D01*
X123648735Y-83926870D01*
X123611213Y-83953172D01*
X123610144Y-83953741D01*
X123595767Y-83960331D01*
X123578349Y-83965593D01*
X123554971Y-83969676D01*
X123522714Y-83972727D01*
X123478661Y-83974893D01*
X123419892Y-83976321D01*
X123343489Y-83977159D01*
X123246535Y-83977553D01*
X123126109Y-83977652D01*
X123108238Y-83977651D01*
X122991254Y-83977525D01*
X122897316Y-83977088D01*
X122823477Y-83976189D01*
X122766796Y-83974678D01*
X122724326Y-83972404D01*
X122693126Y-83969217D01*
X122670250Y-83964965D01*
X122652754Y-83959499D01*
X122637695Y-83952667D01*
X122592489Y-83925509D01*
X122555755Y-83891063D01*
X122530130Y-83847324D01*
X122513928Y-83790109D01*
X122505462Y-83715234D01*
X122503048Y-83618518D01*
X122504033Y-83555014D01*
X122506912Y-83491789D01*
X122511223Y-83440462D01*
X122516504Y-83408276D01*
X122538287Y-83363966D01*
X122579079Y-83316781D01*
X122630119Y-83277294D01*
X122683469Y-83252890D01*
X122703161Y-83249682D01*
X122750090Y-83246019D01*
X122818598Y-83243015D01*
X122905969Y-83240756D01*
X123009485Y-83239327D01*
X123126429Y-83238817D01*
X123518974Y-83238743D01*
X123518974Y-83106795D01*
X123518974Y-82974847D01*
X123130524Y-82974847D01*
X122742074Y-82974847D01*
X122737979Y-83024328D01*
X122733883Y-83073808D01*
X122616910Y-83077643D01*
X122499936Y-83081477D01*
X122505081Y-82990418D01*
X122510802Y-82939658D01*
X122534537Y-82864669D01*
X122576629Y-82807201D01*
X122638218Y-82765329D01*
X122644355Y-82762406D01*
X122661343Y-82755248D01*
X122680165Y-82749598D01*
X122703892Y-82745279D01*
X122735592Y-82742112D01*
X122778335Y-82739920D01*
X122835190Y-82738525D01*
X122909227Y-82737748D01*
X123003515Y-82737413D01*
X123121123Y-82737341D01*
X123210099Y-82737419D01*
G37*
G36*
X125360831Y-85782928D02*
G01*
X125335806Y-86093935D01*
X125292314Y-86392302D01*
X125291479Y-86396883D01*
X125213254Y-86753415D01*
X125110771Y-87099557D01*
X124984039Y-87435291D01*
X124833067Y-87760599D01*
X124657862Y-88075463D01*
X124458434Y-88379863D01*
X124234791Y-88673781D01*
X124201539Y-88713422D01*
X124125096Y-88799414D01*
X124035854Y-88894718D01*
X123938753Y-88994394D01*
X123838732Y-89093503D01*
X123740728Y-89187106D01*
X123649682Y-89270265D01*
X123570532Y-89338040D01*
X123560673Y-89346072D01*
X123267161Y-89568064D01*
X122962060Y-89766565D01*
X122646051Y-89941289D01*
X122319813Y-90091949D01*
X121984028Y-90218261D01*
X121639376Y-90319938D01*
X121286539Y-90396695D01*
X120926195Y-90448246D01*
X120882371Y-90452362D01*
X120776544Y-90459250D01*
X120653918Y-90464090D01*
X120520649Y-90466876D01*
X120382895Y-90467598D01*
X120246815Y-90466247D01*
X120118566Y-90462816D01*
X120004307Y-90457294D01*
X119910195Y-90449674D01*
X119635159Y-90413547D01*
X119277054Y-90344267D01*
X118929723Y-90250919D01*
X118593030Y-90133440D01*
X118266838Y-89991770D01*
X117951009Y-89825849D01*
X117645407Y-89635614D01*
X117349895Y-89421005D01*
X117064336Y-89181961D01*
X116998235Y-89121403D01*
X116785762Y-88908024D01*
X116581489Y-88674630D01*
X116388895Y-88425908D01*
X116211458Y-88166546D01*
X116052656Y-87901231D01*
X115915967Y-87634648D01*
X115913901Y-87630233D01*
X115778478Y-87314786D01*
X115666742Y-86997373D01*
X115577582Y-86673970D01*
X115509887Y-86340554D01*
X115462546Y-85993102D01*
X115454927Y-85898852D01*
X115449456Y-85781335D01*
X115446433Y-85649759D01*
X115445787Y-85509895D01*
X115447450Y-85367508D01*
X115447622Y-85361375D01*
X115901228Y-85361375D01*
X115903712Y-85706243D01*
X115932163Y-86054450D01*
X115986648Y-86405496D01*
X116020122Y-86562989D01*
X116106537Y-86877127D01*
X116217858Y-87187176D01*
X116353108Y-87491044D01*
X116511309Y-87786636D01*
X116691483Y-88071861D01*
X116892651Y-88344624D01*
X116933132Y-88393238D01*
X116999063Y-88467187D01*
X117077327Y-88550887D01*
X117163686Y-88640101D01*
X117253903Y-88730593D01*
X117343743Y-88818125D01*
X117428968Y-88898461D01*
X117505341Y-88967365D01*
X117568626Y-89020599D01*
X117651534Y-89084865D01*
X117867273Y-89238522D01*
X118093226Y-89381652D01*
X118323796Y-89511032D01*
X118553386Y-89623441D01*
X118776398Y-89715659D01*
X118791793Y-89721393D01*
X118841471Y-89739984D01*
X118881404Y-89755057D01*
X118904091Y-89763784D01*
X118906239Y-89764037D01*
X118908627Y-89762120D01*
X118910827Y-89756837D01*
X118912846Y-89747189D01*
X118914693Y-89732174D01*
X118916374Y-89710791D01*
X118917898Y-89682039D01*
X118919272Y-89644917D01*
X118920504Y-89598424D01*
X118921601Y-89541559D01*
X118922572Y-89473320D01*
X118923424Y-89392706D01*
X118924165Y-89298718D01*
X118924802Y-89190352D01*
X118925344Y-89066609D01*
X118925797Y-88926488D01*
X118926170Y-88768986D01*
X118926470Y-88593103D01*
X118926705Y-88397839D01*
X118926883Y-88182191D01*
X118927011Y-87945159D01*
X118927098Y-87685742D01*
X118927150Y-87402938D01*
X118927175Y-87095747D01*
X118927182Y-86763168D01*
X118927174Y-86608899D01*
X118927119Y-86332736D01*
X118927013Y-86064249D01*
X118926860Y-85804607D01*
X118926661Y-85554979D01*
X118926419Y-85316536D01*
X118926136Y-85090447D01*
X118925814Y-84877881D01*
X118925457Y-84680008D01*
X118925066Y-84497999D01*
X118924644Y-84333022D01*
X118924193Y-84186246D01*
X118923716Y-84058843D01*
X118923215Y-83951981D01*
X118922692Y-83866830D01*
X118922151Y-83804560D01*
X118921592Y-83766340D01*
X118921019Y-83753341D01*
X118920152Y-83753561D01*
X118902486Y-83760846D01*
X118865305Y-83777225D01*
X118812303Y-83801040D01*
X118747176Y-83830633D01*
X118673616Y-83864347D01*
X118657874Y-83871576D01*
X118585946Y-83904221D01*
X118523303Y-83932036D01*
X118473601Y-83953438D01*
X118440499Y-83966847D01*
X118427655Y-83970681D01*
X118429314Y-83965990D01*
X118440992Y-83941009D01*
X118462618Y-83896876D01*
X118492826Y-83836259D01*
X118530252Y-83761825D01*
X118573530Y-83676243D01*
X118621294Y-83582179D01*
X118672180Y-83482300D01*
X118724820Y-83379274D01*
X118777850Y-83275768D01*
X118829905Y-83174450D01*
X118879619Y-83077987D01*
X118925626Y-82989046D01*
X118966562Y-82910295D01*
X119001059Y-82844401D01*
X119027754Y-82794032D01*
X119045281Y-82761854D01*
X119052274Y-82750535D01*
X119055216Y-82754823D01*
X119068777Y-82779214D01*
X119092012Y-82822852D01*
X119123558Y-82883069D01*
X119162054Y-82957196D01*
X119206140Y-83042565D01*
X119254453Y-83136507D01*
X119305633Y-83236354D01*
X119358318Y-83339437D01*
X119411148Y-83443088D01*
X119462760Y-83544638D01*
X119511794Y-83641419D01*
X119556888Y-83730763D01*
X119596682Y-83810000D01*
X119629813Y-83876463D01*
X119654922Y-83927482D01*
X119670646Y-83960390D01*
X119675624Y-83972518D01*
X119674827Y-83972595D01*
X119657584Y-83966643D01*
X119620877Y-83951341D01*
X119568360Y-83928287D01*
X119503685Y-83899080D01*
X119430507Y-83865318D01*
X119416564Y-83858831D01*
X119343897Y-83825358D01*
X119279834Y-83796383D01*
X119228190Y-83773596D01*
X119192783Y-83758686D01*
X119177428Y-83753341D01*
X119176228Y-83761601D01*
X119174791Y-83795389D01*
X119173443Y-83854899D01*
X119172186Y-83939761D01*
X119171020Y-84049602D01*
X119169947Y-84184050D01*
X119168969Y-84342734D01*
X119168087Y-84525282D01*
X119167303Y-84731321D01*
X119166619Y-84960481D01*
X119166036Y-85212389D01*
X119165555Y-85486674D01*
X119165178Y-85782964D01*
X119164907Y-86100886D01*
X119164744Y-86440069D01*
X119164689Y-86800142D01*
X119164689Y-89846943D01*
X119332922Y-89887431D01*
X119392948Y-89901349D01*
X119587275Y-89940254D01*
X119786389Y-89971721D01*
X119976169Y-89993423D01*
X120096341Y-90002544D01*
X120292332Y-90011361D01*
X120484805Y-90013004D01*
X120662886Y-90007253D01*
X120903118Y-89987133D01*
X121236576Y-89937474D01*
X121562010Y-89863783D01*
X121878422Y-89766972D01*
X122184815Y-89647956D01*
X122480190Y-89507646D01*
X122763552Y-89346956D01*
X123033902Y-89166799D01*
X123290244Y-88968089D01*
X123531579Y-88751737D01*
X123756911Y-88518658D01*
X123965242Y-88269764D01*
X124155575Y-88005968D01*
X124326912Y-87728184D01*
X124478256Y-87437324D01*
X124608610Y-87134302D01*
X124716976Y-86820031D01*
X124802357Y-86495423D01*
X124863755Y-86161393D01*
X124882868Y-86012641D01*
X124908328Y-85669559D01*
X124907968Y-85328191D01*
X124882106Y-84989794D01*
X124831060Y-84655624D01*
X124755150Y-84326937D01*
X124654694Y-84004991D01*
X124530010Y-83691041D01*
X124381417Y-83386343D01*
X124209234Y-83092155D01*
X124013780Y-82809732D01*
X124009841Y-82804484D01*
X123805977Y-82551340D01*
X123589837Y-82318991D01*
X123357118Y-82103135D01*
X123103518Y-81899470D01*
X122983621Y-81812607D01*
X122695941Y-81627076D01*
X122397061Y-81464975D01*
X122088222Y-81326618D01*
X121770668Y-81212321D01*
X121445640Y-81122399D01*
X121114380Y-81057165D01*
X120778129Y-81016937D01*
X120438131Y-81002027D01*
X120095626Y-81012753D01*
X119751857Y-81049427D01*
X119423964Y-81109404D01*
X119096697Y-81195086D01*
X118778669Y-81304559D01*
X118471036Y-81436979D01*
X118174952Y-81591506D01*
X117891573Y-81767295D01*
X117622054Y-81963506D01*
X117367550Y-82179295D01*
X117129217Y-82413820D01*
X116908209Y-82666238D01*
X116705681Y-82935708D01*
X116522790Y-83221387D01*
X116360689Y-83522431D01*
X116276056Y-83704723D01*
X116149675Y-84025355D01*
X116048937Y-84351839D01*
X115973906Y-84683672D01*
X115924648Y-85020351D01*
X115901228Y-85361375D01*
X115447622Y-85361375D01*
X115451351Y-85228366D01*
X115457423Y-85098238D01*
X115465596Y-84982892D01*
X115475800Y-84888094D01*
X115513174Y-84650451D01*
X115587237Y-84305478D01*
X115683545Y-83972322D01*
X115802857Y-83648466D01*
X115945934Y-83331392D01*
X116001868Y-83221013D01*
X116163025Y-82933389D01*
X116339102Y-82662030D01*
X116533931Y-82400873D01*
X116542051Y-82390776D01*
X116602911Y-82319248D01*
X116679025Y-82235189D01*
X116766328Y-82142661D01*
X116860759Y-82045728D01*
X116958255Y-81948453D01*
X117054752Y-81854897D01*
X117146187Y-81769125D01*
X117228499Y-81695198D01*
X117297624Y-81637180D01*
X117444606Y-81524352D01*
X117745861Y-81317699D01*
X118058918Y-81134585D01*
X118383309Y-80975207D01*
X118718565Y-80839766D01*
X119064218Y-80728460D01*
X119419801Y-80641488D01*
X119784844Y-80579050D01*
X119875432Y-80569214D01*
X119990070Y-80560959D01*
X120119719Y-80554802D01*
X120258611Y-80550812D01*
X120400979Y-80549059D01*
X120541055Y-80549611D01*
X120673071Y-80552539D01*
X120791259Y-80557910D01*
X120889853Y-80565795D01*
X121167981Y-80602427D01*
X121526928Y-80672128D01*
X121876076Y-80765883D01*
X122214731Y-80883415D01*
X122542201Y-81024449D01*
X122857795Y-81188708D01*
X123160820Y-81375918D01*
X123450583Y-81585803D01*
X123548435Y-81664266D01*
X123817805Y-81902385D01*
X124068246Y-82157657D01*
X124299001Y-82428818D01*
X124509312Y-82714607D01*
X124698422Y-83013763D01*
X124865574Y-83325024D01*
X125010010Y-83647128D01*
X125130973Y-83978813D01*
X125227705Y-84318818D01*
X125299450Y-84665881D01*
X125324843Y-84836447D01*
X125355375Y-85147948D01*
X125367362Y-85465520D01*
X125363164Y-85669559D01*
X125360831Y-85782928D01*
G37*
%TD*%
%LPC*%
D13*
%TO.C,MDB1*%
X176200000Y-83680000D03*
X176200000Y-114280000D03*
D14*
X154570000Y-82490000D03*
X154570000Y-85030000D03*
X154570000Y-87570000D03*
X154570000Y-90110000D03*
X154570000Y-92650000D03*
X154570000Y-95190000D03*
X154570000Y-97730000D03*
X154570000Y-100270000D03*
X154570000Y-102810000D03*
X154570000Y-105350000D03*
X154570000Y-107890000D03*
X154570000Y-110430000D03*
X154570000Y-112970000D03*
X154570000Y-115510000D03*
X177430000Y-90070000D03*
X177430000Y-92610000D03*
X177430000Y-95150000D03*
X177430000Y-97690000D03*
X177430000Y-100230000D03*
X177430000Y-102770000D03*
X177430000Y-105310000D03*
%TD*%
D15*
%TO.C,J4*%
X192000000Y-103000000D03*
X192000000Y-114000000D03*
D16*
X182000000Y-111000000D03*
D17*
X182000000Y-106000000D03*
%TD*%
D18*
%TO.C,REF\u002A\u002A*%
X172000000Y-77000000D03*
%TD*%
D19*
%TO.C,J5*%
X187500000Y-83000000D03*
D20*
X187500000Y-80500000D03*
X187500000Y-78000000D03*
X187500000Y-75500000D03*
%TD*%
D15*
%TO.C,J2*%
X92500000Y-110000000D03*
X92500000Y-99000000D03*
D21*
X102500000Y-102000000D03*
D17*
X102500000Y-107000000D03*
%TD*%
D22*
%TO.C,MCB1*%
X141520000Y-76000000D03*
X138980000Y-76000000D03*
X136440000Y-76000000D03*
X133900000Y-76000000D03*
X131360000Y-76000000D03*
X128820000Y-76000000D03*
X126280000Y-76000000D03*
X123740000Y-76000000D03*
X121200000Y-76000000D03*
X118660000Y-76000000D03*
X116120000Y-76000000D03*
X113580000Y-76000000D03*
X111040000Y-76000000D03*
X108500000Y-76000000D03*
X105960000Y-76000000D03*
X103420000Y-76000000D03*
X100880000Y-76000000D03*
X98340000Y-76000000D03*
X95800000Y-76000000D03*
X93260000Y-76000000D03*
X138980000Y-114100000D03*
X136440000Y-114100000D03*
X133900000Y-114100000D03*
X131360000Y-114100000D03*
X128820000Y-114100000D03*
X126280000Y-114100000D03*
X123740000Y-114100000D03*
X121200000Y-114100000D03*
X118660000Y-114100000D03*
X116120000Y-114100000D03*
X113580000Y-114100000D03*
X111040000Y-114100000D03*
X108500000Y-114100000D03*
X105960000Y-114100000D03*
X103420000Y-114100000D03*
X100880000Y-114100000D03*
X98340000Y-114100000D03*
X95800000Y-114100000D03*
X93260000Y-114100000D03*
X90720000Y-114100000D03*
%TD*%
D23*
%TO.C,F1*%
X146405000Y-89915000D03*
X149805000Y-89915000D03*
X146405000Y-76445000D03*
X149805000Y-76445000D03*
%TD*%
D24*
%TO.C,F3*%
X111937575Y-99610558D03*
D25*
X111937575Y-94530558D03*
%TD*%
D15*
%TO.C,J1*%
X92505000Y-91145000D03*
X92505000Y-80145000D03*
D21*
X102505000Y-83145000D03*
D17*
X102505000Y-88145000D03*
%TD*%
D23*
%TO.C,F2*%
X149805000Y-97145000D03*
X146405000Y-97145000D03*
X149805000Y-110615000D03*
X146405000Y-110615000D03*
%TD*%
D15*
%TO.C,J3*%
X192000000Y-88500000D03*
X192000000Y-99500000D03*
D16*
X182000000Y-96500000D03*
D17*
X182000000Y-91500000D03*
%TD*%
%LPD*%
M02*
