M48
; DRILL file {KiCad 9.0.5} date 2026-05-09T17:07:30-0700
; FORMAT={-:-/ absolute / metric / decimal}
; #@! TF.CreationDate,2026-05-09T17:07:30-07:00
; #@! TF.GenerationSoftware,Kicad,Pcbnew,9.0.5
; #@! TF.FileFunction,Plated,1,2,PTH
FMAT,2
METRIC
; #@! TA.AperFunction,Plated,PTH,ViaDrill
T1C0.300
; #@! TA.AperFunction,Plated,PTH,ComponentDrill
T2C0.950
; #@! TA.AperFunction,Plated,PTH,ComponentDrill
T3C1.000
; #@! TA.AperFunction,Plated,PTH,ComponentDrill
T4C1.020
; #@! TA.AperFunction,Plated,PTH,ComponentDrill
T5C1.118
; #@! TA.AperFunction,Plated,PTH,ComponentDrill
T6C1.600
; #@! TA.AperFunction,Plated,PTH,ComponentDrill
T7C1.900
%
G90
G05
T1
X114.988Y-97.011
X121.338Y-97.374
X121.738Y-103.474
X121.838Y-100.774
X123.938Y-102.774
X124.038Y-97.374
X124.038Y-100.374
X131.488Y-98.761
T2
X187.5Y-75.5
X187.5Y-78.0
X187.5Y-80.5
X187.5Y-83.0
T3
X92.5Y-99.0
X92.5Y-110.0
X92.505Y-80.145
X92.505Y-91.145
X192.0Y-88.5
X192.0Y-99.5
X192.0Y-103.0
X192.0Y-114.0
T4
X90.72Y-114.1
X93.26Y-76.0
X93.26Y-114.1
X95.8Y-76.0
X95.8Y-114.1
X98.34Y-76.0
X98.34Y-114.1
X100.88Y-76.0
X100.88Y-114.1
X103.42Y-76.0
X103.42Y-114.1
X105.96Y-76.0
X105.96Y-114.1
X108.5Y-76.0
X108.5Y-114.1
X111.04Y-76.0
X111.04Y-114.1
X113.58Y-76.0
X113.58Y-114.1
X116.12Y-76.0
X116.12Y-114.1
X118.66Y-76.0
X118.66Y-114.1
X121.2Y-76.0
X121.2Y-114.1
X123.74Y-76.0
X123.74Y-114.1
X126.28Y-76.0
X126.28Y-114.1
X128.82Y-76.0
X128.82Y-114.1
X131.36Y-76.0
X131.36Y-114.1
X133.9Y-76.0
X133.9Y-114.1
X136.44Y-76.0
X136.44Y-114.1
X138.98Y-76.0
X138.98Y-114.1
X141.52Y-76.0
X154.57Y-82.49
X154.57Y-85.03
X154.57Y-87.57
X154.57Y-90.11
X154.57Y-92.65
X154.57Y-95.19
X154.57Y-97.73
X154.57Y-100.27
X154.57Y-102.81
X154.57Y-105.35
X154.57Y-107.89
X154.57Y-110.43
X154.57Y-112.97
X154.57Y-115.51
X177.43Y-90.07
X177.43Y-92.61
X177.43Y-95.15
X177.43Y-97.69
X177.43Y-100.23
X177.43Y-102.77
X177.43Y-105.31
T5
X111.938Y-94.531
X111.938Y-99.611
T6
X146.405Y-76.445
X146.405Y-89.915
X146.405Y-97.145
X146.405Y-110.615
X149.805Y-76.445
X149.805Y-89.915
X149.805Y-97.145
X149.805Y-110.615
T7
X102.5Y-102.0
X102.5Y-107.0
X102.505Y-83.145
X102.505Y-88.145
X182.0Y-91.5
X182.0Y-96.5
X182.0Y-106.0
X182.0Y-111.0
M30
