ISO-10303-21;
HEADER;
FILE_DESCRIPTION (( 'STEP AP214' ),
    '1' );
FILE_NAME ('DA18EC1F-379C-4107-A69E-D604D1367375.STEP',
    '2025-09-19T09:01:02',
    ( '' ),
    ( '' ),
    'SwSTEP 2.0',
    'SolidWorks 2022',
    '' );
FILE_SCHEMA (( 'AUTOMOTIVE_DESIGN' ));
ENDSEC;

DATA;
#1 = EDGE_LOOP ( 'NONE', ( #230, #328 ) ) ;
#2 = CIRCLE ( 'NONE', #96, 0.006339745962156215740 ) ;
#3 = SURFACE_SIDE_STYLE ('',( #162 ) ) ;
#4 =( LENGTH_UNIT ( ) NAMED_UNIT ( * ) SI_UNIT ( $, .METRE. ) );
#5 = ADVANCED_FACE ( 'NONE', ( #156 ), #125, .T. ) ;
#6 = ORIENTED_EDGE ( 'NONE', *, *, #417, .T. ) ;
#7 = FILL_AREA_STYLE_COLOUR ( '', #213 ) ;
#8 = VERTEX_POINT ( 'NONE', #436 ) ;
#9 = AXIS2_PLACEMENT_3D ( 'NONE', #427, #248, #137 ) ;
#10 = DIRECTION ( 'NONE',  ( -1.000000000000000000, -0.0000000000000000000, -0.0000000000000000000 ) ) ;
#11 = VECTOR ( 'NONE', #279, 39.37007874015748143 ) ;
#12 = TOROIDAL_SURFACE ( 'NONE', #155, 4.111647344528150487E-05, 0.004999999999999964542 ) ;
#13 = CYLINDRICAL_SURFACE ( 'NONE', #212, 0.03099999999999974651 ) ;
#14 = ORIENTED_EDGE ( 'NONE', *, *, #403, .T. ) ;
#15 = CARTESIAN_POINT ( 'NONE',  ( 0.0000000000000000000, 0.0000000000000000000, 0.0000000000000000000 ) ) ;
#16 = EDGE_CURVE ( 'NONE', #463, #271, #199, .T. ) ;
#17 = DIRECTION ( 'NONE',  ( -1.000000000000000000, -0.0000000000000000000, -0.0000000000000000000 ) ) ;
#18 =( GEOMETRIC_REPRESENTATION_CONTEXT ( 3 ) GLOBAL_UNCERTAINTY_ASSIGNED_CONTEXT ( ( #202 ) ) GLOBAL_UNIT_ASSIGNED_CONTEXT ( ( #122, #151, #297 ) ) REPRESENTATION_CONTEXT ( 'NONE', 'WORKASPACE' ) );
#19 = ADVANCED_BREP_SHAPE_REPRESENTATION ( 'DA18EC1F-379C-4107-A69E-D604D1367375', ( #83, #61 ), #314 ) ;
#20 = PLANE ( 'NONE',  #429 ) ;
#21 = ADVANCED_FACE ( 'NONE', ( #342 ), #165, .F. ) ;
#22 = CARTESIAN_POINT ( 'NONE',  ( 0.4578455002783131111, -3.918869757271567037E-18, 0.03200000000000029904 ) ) ;
#23 = LINE ( 'NONE', #452, #11 ) ;
#24 = AXIS2_PLACEMENT_3D ( 'NONE', #15, #447, #127 ) ;
#25 = FILL_AREA_STYLE_COLOUR ( '', #48 ) ;
#26 = AXIS2_PLACEMENT_3D ( 'NONE', #53, #273, #414 ) ;
#27 = FACE_BOUND ( 'NONE', #334, .T. ) ;
#28 = EDGE_CURVE ( 'NONE', #435, #123, #60, .T. ) ;
#29 =( LENGTH_UNIT ( ) NAMED_UNIT ( * ) SI_UNIT ( $, .METRE. ) );
#30 = CARTESIAN_POINT ( 'NONE',  ( 0.1500000000000001332, 0.0000000000000000000, 0.0000000000000000000 ) ) ;
#31 =( CONVERSION_BASED_UNIT ( 'INCH', #383 ) LENGTH_UNIT ( ) NAMED_UNIT ( #204 ) );
#32 = CARTESIAN_POINT ( 'NONE',  ( 0.1100000000000000006, 0.0000000000000000000, 0.01499999999999970281 ) ) ;
#33 = CIRCLE ( 'NONE', #149, 0.01499999999999970281 ) ;
#34 = EDGE_LOOP ( 'NONE', ( #82, #90 ) ) ;
#35 = CARTESIAN_POINT ( 'NONE',  ( 0.01499999999999860993, 0.0000000000000000000, -0.01499999999999970281 ) ) ;
#36 = CARTESIAN_POINT ( 'NONE',  ( 0.1500000000000001332, 0.0000000000000000000, 0.0000000000000000000 ) ) ;
#37 = DIRECTION ( 'NONE',  ( 0.0000000000000000000, 0.0000000000000000000, -1.000000000000000000 ) ) ;
#38 = ORIENTED_EDGE ( 'NONE', *, *, #128, .F. ) ;
#39 = FILL_AREA_STYLE ('',( #7 ) ) ;
#40 = STYLED_ITEM ( 'NONE', ( #190 ), #19 ) ;
#41 = ORIENTED_EDGE ( 'NONE', *, *, #79, .T. ) ;
#42 = EDGE_CURVE ( 'NONE', #425, #73, #139, .T. ) ;
#43 = PRODUCT_DEFINITION_SHAPE ( 'NONE', 'NONE',  #450 ) ;
#44 = EDGE_LOOP ( 'NONE', ( #396, #325 ) ) ;
#45 = DIRECTION ( 'NONE',  ( 0.0000000000000000000, 0.0000000000000000000, 1.000000000000000000 ) ) ;
#46 = DIRECTION ( 'NONE',  ( 0.0000000000000000000, 0.0000000000000000000, 1.000000000000000000 ) ) ;
#47 = DIRECTION ( 'NONE',  ( 0.0000000000000000000, 0.0000000000000000000, -1.000000000000000000 ) ) ;
#48 = COLOUR_RGB ( '',1.000000000000000000, 0.8588235294117646523, 0.5568627450980392357 ) ;
#49 =( NAMED_UNIT ( * ) PLANE_ANGLE_UNIT ( ) SI_UNIT ( $, .RADIAN. ) );
#50 = CARTESIAN_POINT ( 'NONE',  ( 0.4578455002783131111, 0.0000000000000000000, -0.03200000000000029904 ) ) ;
#51 = EDGE_CURVE ( 'NONE', #440, #265, #179, .T. ) ;
#52 = ORIENTED_EDGE ( 'NONE', *, *, #107, .F. ) ;
#53 = CARTESIAN_POINT ( 'NONE',  ( 0.0000000000000000000, 0.0000000000000000000, 0.0000000000000000000 ) ) ;
#54 = CIRCLE ( 'NONE', #322, 0.004999999999999964542 ) ;
#55 = EDGE_CURVE ( 'NONE', #288, #290, #64, .T. ) ;
#56 = DIRECTION ( 'NONE',  ( -1.000000000000000000, -0.0000000000000000000, -0.0000000000000000000 ) ) ;
#57 = FACE_OUTER_BOUND ( 'NONE', #410, .T. ) ;
#58 = VERTEX_POINT ( 'NONE', #324 ) ;
#59 = DIRECTION ( 'NONE',  ( 0.0000000000000000000, 0.0000000000000000000, 1.000000000000000000 ) ) ;
#60 = CIRCLE ( 'NONE', #378, 0.01499999999999970281 ) ;
#61 = AXIS2_PLACEMENT_3D ( 'NONE', #333, #115, #258 ) ;
#62 = DIRECTION ( 'NONE',  ( -1.000000000000000000, -0.0000000000000000000, -0.0000000000000000000 ) ) ;
#63 = ADVANCED_FACE ( 'NONE', ( #460 ), #246, .T. ) ;
#64 = LINE ( 'NONE', #69, #301 ) ;
#65 = CARTESIAN_POINT ( 'NONE',  ( 0.1500000000000001332, 3.796405077356764195E-18, -0.03099999999999974651 ) ) ;
#66 = CARTESIAN_POINT ( 'NONE',  ( 0.0000000000000000000, 0.0000000000000000000, 0.0000000000000000000 ) ) ;
#67 = ORIENTED_EDGE ( 'NONE', *, *, #177, .T. ) ;
#68 = DIRECTION ( 'NONE',  ( -1.000000000000000000, -0.0000000000000000000, -0.0000000000000000000 ) ) ;
#69 = CARTESIAN_POINT ( 'NONE',  ( 0.0000000000000000000, 0.0000000000000000000, 0.01499999999999970281 ) ) ;
#70 = AXIS2_PLACEMENT_3D ( 'NONE', #369, #344, #160 ) ;
#71 = AXIS2_PLACEMENT_3D ( 'NONE', #30, #68, #423 ) ;
#72 = EDGE_CURVE ( 'NONE', #430, #290, #158, .T. ) ;
#73 = VERTEX_POINT ( 'NONE', #102 ) ;
#74 = VECTOR ( 'NONE', #98, 39.37007874015748143 ) ;
#75 = FACE_OUTER_BOUND ( 'NONE', #34, .T. ) ;
#76 = ORIENTED_EDGE ( 'NONE', *, *, #375, .F. ) ;
#77 = ORIENTED_EDGE ( 'NONE', *, *, #319, .F. ) ;
#78 = LENGTH_MEASURE_WITH_UNIT ( LENGTH_MEASURE( 0.02539999999999999897 ), #441 );
#79 = EDGE_CURVE ( 'NONE', #405, #373, #234, .T. ) ;
#80 = ORIENTED_EDGE ( 'NONE', *, *, #411, .T. ) ;
#81 = CARTESIAN_POINT ( 'NONE',  ( 0.4882326785382960499, 0.0000000000000000000, 0.003855535101236406623 ) ) ;
#82 = ORIENTED_EDGE ( 'NONE', *, *, #164, .T. ) ;
#83 = MANIFOLD_SOLID_BREP ( 'RevolutionAngle1', #252 ) ;
#84 = DIRECTION ( 'NONE',  ( -1.000000000000000000, -0.0000000000000000000, -0.0000000000000000000 ) ) ;
#85 = ORIENTED_EDGE ( 'NONE', *, *, #72, .F. ) ;
#86 = DIRECTION ( 'NONE',  ( 0.0000000000000000000, 0.0000000000000000000, 1.000000000000000000 ) ) ;
#87 = CIRCLE ( 'NONE', #409, 0.03099999999999974651 ) ;
#88 = AXIS2_PLACEMENT_3D ( 'NONE', #95, #236, #345 ) ;
#89 = DIRECTION ( 'NONE',  ( 0.0000000000000000000, 0.0000000000000000000, 1.000000000000000000 ) ) ;
#90 = ORIENTED_EDGE ( 'NONE', *, *, #42, .T. ) ;
#91 = DIRECTION ( 'NONE',  ( 0.0000000000000000000, 0.0000000000000000000, 1.000000000000000000 ) ) ;
#92 = ADVANCED_FACE ( 'NONE', ( #207 ), #321, .T. ) ;
#93 = UNCERTAINTY_MEASURE_WITH_UNIT (LENGTH_MEASURE( 1.000000000000000082E-05 ), #154, 'distance_accuracy_value', 'NONE');
#94 =( GEOMETRIC_REPRESENTATION_CONTEXT ( 3 ) GLOBAL_UNCERTAINTY_ASSIGNED_CONTEXT ( ( #266 ) ) GLOBAL_UNIT_ASSIGNED_CONTEXT ( ( #31, #104, #180 ) ) REPRESENTATION_CONTEXT ( 'NONE', 'WORKASPACE' ) );
#95 = CARTESIAN_POINT ( 'NONE',  ( 0.1100000000000000006, 0.0000000000000000000, 0.0000000000000000000 ) ) ;
#96 = AXIS2_PLACEMENT_3D ( 'NONE', #291, #62, #289 ) ;
#97 = FACE_OUTER_BOUND ( 'NONE', #296, .T. ) ;
#98 = DIRECTION ( 'NONE',  ( -1.000000000000000000, -0.0000000000000000000, -0.0000000000000000000 ) ) ;
#99 = DIRECTION ( 'NONE',  ( -1.000000000000000000, -0.0000000000000000000, -0.0000000000000000000 ) ) ;
#100 = CARTESIAN_POINT ( 'NONE',  ( 0.4578455002783131111, 0.0000000000000000000, 0.0000000000000000000 ) ) ;
#101 = AXIS2_PLACEMENT_3D ( 'NONE', #22, #449, #131 ) ;
#102 = CARTESIAN_POINT ( 'NONE',  ( 0.1100000000000000006, 0.0000000000000000000, 0.03099999999999974651 ) ) ;
#103 = CARTESIAN_POINT ( 'NONE',  ( 0.0000000000000000000, 0.0000000000000000000, 0.03099999999999974651 ) ) ;
#104 =( NAMED_UNIT ( * ) PLANE_ANGLE_UNIT ( ) SI_UNIT ( $, .RADIAN. ) );
#105 = ORIENTED_EDGE ( 'NONE', *, *, #432, .T. ) ;
#106 = DIRECTION ( 'NONE',  ( -1.000000000000000000, -0.0000000000000000000, -0.0000000000000000000 ) ) ;
#107 = EDGE_CURVE ( 'NONE', #8, #362, #268, .T. ) ;
#108 = FACE_OUTER_BOUND ( 'NONE', #210, .T. ) ;
#109 = ORIENTED_EDGE ( 'NONE', *, *, #16, .F. ) ;
#110 = CARTESIAN_POINT ( 'NONE',  ( 0.4850000000000000422, 5.035315759699113721E-21, -4.111647344528150487E-05 ) ) ;
#111 = CIRCLE ( 'NONE', #309, 0.01499999999999968719 ) ;
#112 = DIRECTION ( 'NONE',  ( -0.0000000000000000000, 1.000000000000000000, 1.224646799147353207E-16 ) ) ;
#113 = ADVANCED_FACE ( 'NONE', ( #108 ), #12, .T. ) ;
#114 = EDGE_LOOP ( 'NONE', ( #308, #307, #433, #393 ) ) ;
#115 = DIRECTION ( 'NONE',  ( 0.0000000000000000000, 0.0000000000000000000, 1.000000000000000000 ) ) ;
#116 = ORIENTED_EDGE ( 'NONE', *, *, #254, .T. ) ;
#117 = SHAPE_DEFINITION_REPRESENTATION ( #43, #19 ) ;
#118 = VECTOR ( 'NONE', #395, 39.37007874015748143 ) ;
#119 = CARTESIAN_POINT ( 'NONE',  ( 0.0000000000000000000, 0.0000000000000000000, 0.0000000000000000000 ) ) ;
#120 = CARTESIAN_POINT ( 'NONE',  ( 0.0000000000000000000, 0.0000000000000000000, 0.0000000000000000000 ) ) ;
#121 = ORIENTED_EDGE ( 'NONE', *, *, #28, .F. ) ;
#122 =( CONVERSION_BASED_UNIT ( 'INCH', #78 ) LENGTH_UNIT ( ) NAMED_UNIT ( #352 ) );
#123 = VERTEX_POINT ( 'NONE', #424 ) ;
#124 = ORIENTED_EDGE ( 'NONE', *, *, #455, .F. ) ;
#125 = TOROIDAL_SURFACE ( 'NONE', #261, 4.111647344528150487E-05, 0.004999999999999964542 ) ;
#126 = AXIS2_PLACEMENT_3D ( 'NONE', #313, #130, #382 ) ;
#127 = DIRECTION ( 'NONE',  ( 0.0000000000000000000, 0.0000000000000000000, 1.000000000000000000 ) ) ;
#128 = EDGE_CURVE ( 'NONE', #376, #430, #419, .T. ) ;
#129 = CARTESIAN_POINT ( 'NONE',  ( 0.4578455002783131111, 0.0000000000000000000, 0.0000000000000000000 ) ) ;
#130 = DIRECTION ( 'NONE',  ( -1.000000000000000000, -0.0000000000000000000, -0.0000000000000000000 ) ) ;
#131 = DIRECTION ( 'NONE',  ( 0.0000000000000000000, -1.224646799147353207E-16, 1.000000000000000000 ) ) ;
#132 = AXIS2_PLACEMENT_3D ( 'NONE', #323, #397, #215 ) ;
#133 = DIRECTION ( 'NONE',  ( 0.0000000000000000000, 0.0000000000000000000, -1.000000000000000000 ) ) ;
#134 = DIRECTION ( 'NONE',  ( -1.000000000000000000, -0.0000000000000000000, -0.0000000000000000000 ) ) ;
#135 = ADVANCED_FACE ( 'NONE', ( #205 ), #13, .T. ) ;
#136 = DIRECTION ( 'NONE',  ( 0.0000000000000000000, 0.0000000000000000000, -1.000000000000000000 ) ) ;
#137 = DIRECTION ( 'NONE',  ( 0.0000000000000000000, 0.0000000000000000000, 1.000000000000000000 ) ) ;
#138 = PLANE ( 'NONE',  #235 ) ;
#139 = CIRCLE ( 'NONE', #347, 0.03099999999999974651 ) ;
#140 = MECHANICAL_DESIGN_GEOMETRIC_PRESENTATION_REPRESENTATION (  '', ( #40 ), #18 ) ;
#141 = DIRECTION ( 'NONE',  ( -1.000000000000000000, -0.0000000000000000000, -0.0000000000000000000 ) ) ;
#142 = ORIENTED_EDGE ( 'NONE', *, *, #164, .F. ) ;
#143 = ADVANCED_FACE ( 'NONE', ( #338 ), #381, .T. ) ;
#144 = CARTESIAN_POINT ( 'NONE',  ( 0.1100000000000000006, 0.01499999999999970281, 0.0000000000000000000 ) ) ;
#145 = ORIENTED_EDGE ( 'NONE', *, *, #197, .T. ) ;
#146 = DIRECTION ( 'NONE',  ( 0.0000000000000000000, 0.0000000000000000000, 1.000000000000000000 ) ) ;
#147 = DIRECTION ( 'NONE',  ( -1.000000000000000000, -0.0000000000000000000, -0.0000000000000000000 ) ) ;
#148 = AXIS2_PLACEMENT_3D ( 'NONE', #312, #233, #133 ) ;
#149 = AXIS2_PLACEMENT_3D ( 'NONE', #284, #106, #229 ) ;
#150 = ORIENTED_EDGE ( 'NONE', *, *, #72, .T. ) ;
#151 =( NAMED_UNIT ( * ) PLANE_ANGLE_UNIT ( ) SI_UNIT ( $, .RADIAN. ) );
#152 = ADVANCED_FACE ( 'NONE', ( #418, #27 ), #20, .F. ) ;
#153 = ORIENTED_EDGE ( 'NONE', *, *, #319, .T. ) ;
#154 =( CONVERSION_BASED_UNIT ( 'INCH', #406 ) LENGTH_UNIT ( ) NAMED_UNIT ( #169 ) );
#155 = AXIS2_PLACEMENT_3D ( 'NONE', #282, #134, #280 ) ;
#156 = FACE_OUTER_BOUND ( 'NONE', #198, .T. ) ;
#157 = PRODUCT_CONTEXT ( 'NONE', #250, 'mechanical' ) ;
#158 = CIRCLE ( 'NONE', #9, 0.01499999999999970281 ) ;
#159 = ADVANCED_FACE ( 'NONE', ( #200 ), #226, .T. ) ;
#160 = DIRECTION ( 'NONE',  ( 0.0000000000000000000, 0.0000000000000000000, 1.000000000000000000 ) ) ;
#161 = ORIENTED_EDGE ( 'NONE', *, *, #231, .F. ) ;
#162 = SURFACE_STYLE_FILL_AREA ( #39 ) ;
#163 = ORIENTED_EDGE ( 'NONE', *, *, #375, .T. ) ;
#164 = EDGE_CURVE ( 'NONE', #73, #425, #87, .T. ) ;
#165 = PLANE ( 'NONE',  #437 ) ;
#166 = CIRCLE ( 'NONE', #451, 0.01499999999999968719 ) ;
#167 = DIRECTION ( 'NONE',  ( -1.000000000000000000, 0.0000000000000000000, -0.0000000000000000000 ) ) ;
#168 = FACE_OUTER_BOUND ( 'NONE', #203, .T. ) ;
#169 = DIMENSIONAL_EXPONENTS ( 1.000000000000000000, 0.0000000000000000000, 0.0000000000000000000, 0.0000000000000000000, 0.0000000000000000000, 0.0000000000000000000, 0.0000000000000000000 ) ;
#170 = DIRECTION ( 'NONE',  ( 0.0000000000000000000, 0.0000000000000000000, -1.000000000000000000 ) ) ;
#171 = AXIS2_PLACEMENT_3D ( 'NONE', #100, #243, #146 ) ;
#172 = SURFACE_SIDE_STYLE ('',( #176 ) ) ;
#173 = DIRECTION ( 'NONE',  ( 0.8660254037844409281, 6.123233995736715499E-17, 0.4999999999999958367 ) ) ;
#174 = SURFACE_STYLE_USAGE ( .BOTH. , #172 ) ;
#175 = CARTESIAN_POINT ( 'NONE',  ( 0.4899999999999999911, 0.0000000000000000000, 4.111647344528150487E-05 ) ) ;
#176 = SURFACE_STYLE_FILL_AREA ( #391 ) ;
#177 = EDGE_CURVE ( 'NONE', #58, #463, #415, .T. ) ;
#178 = CARTESIAN_POINT ( 'NONE',  ( 0.1100000000000000006, 1.836970198720993388E-18, -0.01499999999999970281 ) ) ;
#179 = CIRCLE ( 'NONE', #24, 0.006339745962156215740 ) ;
#180 =( NAMED_UNIT ( * ) SI_UNIT ( $, .STERADIAN. ) SOLID_ANGLE_UNIT ( ) );
#181 = DIRECTION ( 'NONE',  ( 0.0000000000000000000, -1.224646799147353207E-16, 1.000000000000000000 ) ) ;
#182 = ORIENTED_EDGE ( 'NONE', *, *, #340, .T. ) ;
#183 = DIRECTION ( 'NONE',  ( 0.0000000000000000000, 0.0000000000000000000, 1.000000000000000000 ) ) ;
#184 = ORIENTED_EDGE ( 'NONE', *, *, #16, .T. ) ;
#185 = ADVANCED_FACE ( 'NONE', ( #168 ), #193, .T. ) ;
#186 = AXIS2_PLACEMENT_3D ( 'NONE', #245, #387, #211 ) ;
#187 = CIRCLE ( 'NONE', #132, 0.003855535101236406623 ) ;
#188 = ORIENTED_EDGE ( 'NONE', *, *, #28, .T. ) ;
#189 = ORIENTED_EDGE ( 'NONE', *, *, #455, .T. ) ;
#190 = PRESENTATION_STYLE_ASSIGNMENT (( #223 ) ) ;
#191 = ADVANCED_FACE ( 'NONE', ( #57 ), #224, .F. ) ;
#192 = ORIENTED_EDGE ( 'NONE', *, *, #399, .T. ) ;
#193 = CYLINDRICAL_SURFACE ( 'NONE', #194, 0.01499999999999970281 ) ;
#194 = AXIS2_PLACEMENT_3D ( 'NONE', #277, #84, #315 ) ;
#195 = ORIENTED_EDGE ( 'NONE', *, *, #217, .F. ) ;
#196 = DIRECTION ( 'NONE',  ( 0.0000000000000000000, -1.000000000000000000, 0.0000000000000000000 ) ) ;
#197 = EDGE_CURVE ( 'NONE', #376, #288, #299, .T. ) ;
#198 = EDGE_LOOP ( 'NONE', ( #77, #219, #80, #216 ) ) ;
#199 = CIRCLE ( 'NONE', #237, 0.04699999999999998623 ) ;
#200 = FACE_OUTER_BOUND ( 'NONE', #302, .T. ) ;
#201 = DIRECTION ( 'NONE',  ( -1.000000000000000000, -0.0000000000000000000, -0.0000000000000000000 ) ) ;
#202 = UNCERTAINTY_MEASURE_WITH_UNIT (LENGTH_MEASURE( 1.000000000000000082E-05 ), #122, 'distance_accuracy_value', 'NONE');
#203 = EDGE_LOOP ( 'NONE', ( #38, #145, #364, #85 ) ) ;
#204 = DIMENSIONAL_EXPONENTS ( 1.000000000000000000, 0.0000000000000000000, 0.0000000000000000000, 0.0000000000000000000, 0.0000000000000000000, 0.0000000000000000000, 0.0000000000000000000 ) ;
#205 = FACE_OUTER_BOUND ( 'NONE', #335, .T. ) ;
#206 = CIRCLE ( 'NONE', #293, 0.01499999999999970281 ) ;
#207 = FACE_OUTER_BOUND ( 'NONE', #374, .T. ) ;
#208 = CARTESIAN_POINT ( 'NONE',  ( 0.01499999999999860993, 1.836970198720993388E-18, 0.01499999999999970281 ) ) ;
#209 = DIRECTION ( 'NONE',  ( 0.0000000000000000000, 0.0000000000000000000, 1.000000000000000000 ) ) ;
#210 = EDGE_LOOP ( 'NONE', ( #14, #153, #285, #330 ) ) ;
#211 = DIRECTION ( 'NONE',  ( 0.0000000000000000000, 0.0000000000000000000, 1.000000000000000000 ) ) ;
#212 = AXIS2_PLACEMENT_3D ( 'NONE', #120, #56, #91 ) ;
#213 = COLOUR_RGB ( '',1.000000000000000000, 0.8588235294117646523, 0.5568627450980392357 ) ;
#214 = EDGE_LOOP ( 'NONE', ( #161, #461 ) ) ;
#215 = DIRECTION ( 'NONE',  ( 0.0000000000000000000, 0.0000000000000000000, 1.000000000000000000 ) ) ;
#216 = ORIENTED_EDGE ( 'NONE', *, *, #177, .F. ) ;
#217 = EDGE_CURVE ( 'NONE', #271, #332, #111, .T. ) ;
#218 = DIRECTION ( 'NONE',  ( -1.000000000000000000, -0.0000000000000000000, -0.0000000000000000000 ) ) ;
#219 = ORIENTED_EDGE ( 'NONE', *, *, #107, .T. ) ;
#220 = CARTESIAN_POINT ( 'NONE',  ( 0.0000000000000000000, 1.306682579358595304E-18, 0.006339745962156215740 ) ) ;
#221 = ADVANCED_FACE ( 'NONE', ( #416 ), #377, .T. ) ;
#222 = ORIENTED_EDGE ( 'NONE', *, *, #311, .F. ) ;
#223 = SURFACE_STYLE_USAGE ( .BOTH. , #3 ) ;
#224 = PLANE ( 'NONE',  #227 ) ;
#225 = CARTESIAN_POINT ( 'NONE',  ( 0.4850000000000000422, 0.0000000000000000000, 0.0000000000000000000 ) ) ;
#226 = CONICAL_SURFACE ( 'NONE', #148, 0.01499999999999970281, 0.5235987755982940417 ) ;
#227 = AXIS2_PLACEMENT_3D ( 'NONE', #442, #448, #272 ) ;
#228 = ORIENTED_EDGE ( 'NONE', *, *, #217, .T. ) ;
#229 = DIRECTION ( 'NONE',  ( 0.0000000000000000000, 0.0000000000000000000, 1.000000000000000000 ) ) ;
#230 = ORIENTED_EDGE ( 'NONE', *, *, #326, .F. ) ;
#231 = EDGE_CURVE ( 'NONE', #288, #376, #384, .T. ) ;
#232 = EDGE_LOOP ( 'NONE', ( #367, #445, #195, #109 ) ) ;
#233 = DIRECTION ( 'NONE',  ( 1.000000000000000000, 0.0000000000000000000, 0.0000000000000000000 ) ) ;
#234 = CIRCLE ( 'NONE', #275, 0.03099999999999974651 ) ;
#235 = AXIS2_PLACEMENT_3D ( 'NONE', #144, #247, #37 ) ;
#236 = DIRECTION ( 'NONE',  ( -1.000000000000000000, -0.0000000000000000000, -0.0000000000000000000 ) ) ;
#237 = AXIS2_PLACEMENT_3D ( 'NONE', #50, #196, #47 ) ;
#238 = EDGE_CURVE ( 'NONE', #58, #332, #372, .T. ) ;
#239 = CARTESIAN_POINT ( 'NONE',  ( 0.01499999999999860993, 0.0000000000000000000, 0.0000000000000000000 ) ) ;
#240 = FACE_OUTER_BOUND ( 'NONE', #232, .T. ) ;
#241 = PRODUCT_DEFINITION_FORMATION_WITH_SPECIFIED_SOURCE ( 'ANY', '', #304, .NOT_KNOWN. ) ;
#242 = ADVANCED_FACE ( 'NONE', ( #97 ), #458, .T. ) ;
#243 = DIRECTION ( 'NONE',  ( -1.000000000000000000, -0.0000000000000000000, -0.0000000000000000000 ) ) ;
#244 = DIRECTION ( 'NONE',  ( 0.0000000000000000000, 0.0000000000000000000, 1.000000000000000000 ) ) ;
#245 = CARTESIAN_POINT ( 'NONE',  ( 0.4899999999999999911, 0.0000000000000000000, 0.0000000000000000000 ) ) ;
#246 = CYLINDRICAL_SURFACE ( 'NONE', #336, 0.01499999999999969413 ) ;
#247 = DIRECTION ( 'NONE',  ( 1.000000000000000000, 0.0000000000000000000, 0.0000000000000000000 ) ) ;
#248 = DIRECTION ( 'NONE',  ( -1.000000000000000000, -0.0000000000000000000, -0.0000000000000000000 ) ) ;
#249 = ORIENTED_EDGE ( 'NONE', *, *, #399, .F. ) ;
#250 = APPLICATION_CONTEXT ( 'automotive_design' ) ;
#251 = CARTESIAN_POINT ( 'NONE',  ( 0.01499999999999860993, 0.0000000000000000000, 0.0000000000000000000 ) ) ;
#252 = CLOSED_SHELL ( 'NONE', ( #113, #260, #92, #135, #143, #242, #21, #159, #185, #343, #221, #152, #63, #355, #5, #191 ) ) ;
#253 = VECTOR ( 'NONE', #10, 39.37007874015748143 ) ;
#254 = EDGE_CURVE ( 'NONE', #271, #435, #23, .T. ) ;
#255 = ORIENTED_EDGE ( 'NONE', *, *, #42, .F. ) ;
#256 = LINE ( 'NONE', #390, #118 ) ;
#257 = ORIENTED_EDGE ( 'NONE', *, *, #254, .F. ) ;
#258 = DIRECTION ( 'NONE',  ( 1.000000000000000000, 0.0000000000000000000, 0.0000000000000000000 ) ) ;
#259 = ORIENTED_EDGE ( 'NONE', *, *, #388, .T. ) ;
#260 = ADVANCED_FACE ( 'NONE', ( #240 ), #262, .T. ) ;
#261 = AXIS2_PLACEMENT_3D ( 'NONE', #225, #17, #89 ) ;
#262 = TOROIDAL_SURFACE ( 'NONE', #171, -0.03200000000000029904, 0.04699999999999998623 ) ;
#263 = DIRECTION ( 'NONE',  ( 1.000000000000000000, 0.0000000000000000000, 0.0000000000000000000 ) ) ;
#264 = DIRECTION ( 'NONE',  ( -1.000000000000000000, -0.0000000000000000000, -0.0000000000000000000 ) ) ;
#265 = VERTEX_POINT ( 'NONE', #459 ) ;
#266 = UNCERTAINTY_MEASURE_WITH_UNIT (LENGTH_MEASURE( 1.000000000000000082E-05 ), #31, 'distance_accuracy_value', 'NONE');
#267 = CARTESIAN_POINT ( 'NONE',  ( 0.1100000000000000006, 0.0000000000000000000, 0.0000000000000000000 ) ) ;
#268 = CIRCLE ( 'NONE', #356, 4.111647344528150487E-05 ) ;
#269 = VECTOR ( 'NONE', #147, 39.37007874015748143 ) ;
#270 = ORIENTED_EDGE ( 'NONE', *, *, #238, .F. ) ;
#271 = VERTEX_POINT ( 'NONE', #350 ) ;
#272 = DIRECTION ( 'NONE',  ( -0.0000000000000000000, 0.0000000000000000000, 1.000000000000000000 ) ) ;
#273 = DIRECTION ( 'NONE',  ( -1.000000000000000000, -0.0000000000000000000, -0.0000000000000000000 ) ) ;
#274 = EDGE_CURVE ( 'NONE', #290, #430, #206, .T. ) ;
#275 = AXIS2_PLACEMENT_3D ( 'NONE', #36, #99, #317 ) ;
#276 = VECTOR ( 'NONE', #173, 39.37007874015748143 ) ;
#277 = CARTESIAN_POINT ( 'NONE',  ( 0.0000000000000000000, 0.0000000000000000000, 0.0000000000000000000 ) ) ;
#278 = AXIS2_PLACEMENT_3D ( 'NONE', #453, #349, #287 ) ;
#279 = DIRECTION ( 'NONE',  ( -1.000000000000000000, -0.0000000000000000000, -0.0000000000000000000 ) ) ;
#280 = DIRECTION ( 'NONE',  ( 0.0000000000000000000, 0.0000000000000000000, 1.000000000000000000 ) ) ;
#281 = DIRECTION ( 'NONE',  ( 0.0000000000000000000, 0.0000000000000000000, 1.000000000000000000 ) ) ;
#282 = CARTESIAN_POINT ( 'NONE',  ( 0.4850000000000000422, 0.0000000000000000000, 0.0000000000000000000 ) ) ;
#283 = AXIS2_PLACEMENT_3D ( 'NONE', #380, #264, #306 ) ;
#284 = CARTESIAN_POINT ( 'NONE',  ( 0.1500000000000001332, 0.0000000000000000000, 0.0000000000000000000 ) ) ;
#285 = ORIENTED_EDGE ( 'NONE', *, *, #331, .F. ) ;
#286 = CARTESIAN_POINT ( 'NONE',  ( 0.4578455002783131111, 1.836970198720991847E-18, -0.01499999999999968719 ) ) ;
#287 = DIRECTION ( 'NONE',  ( 0.0000000000000000000, 0.0000000000000000000, 1.000000000000000000 ) ) ;
#288 = VERTEX_POINT ( 'NONE', #32 ) ;
#289 = DIRECTION ( 'NONE',  ( 0.0000000000000000000, 0.0000000000000000000, 1.000000000000000000 ) ) ;
#290 = VERTEX_POINT ( 'NONE', #462 ) ;
#291 = CARTESIAN_POINT ( 'NONE',  ( 0.0000000000000000000, 0.0000000000000000000, 0.0000000000000000000 ) ) ;
#292 = PRESENTATION_LAYER_ASSIGNMENT (  '', '', ( #392 ) ) ;
#293 = AXIS2_PLACEMENT_3D ( 'NONE', #251, #385, #209 ) ;
#294 = ORIENTED_EDGE ( 'NONE', *, *, #403, .F. ) ;
#295 = EDGE_LOOP ( 'NONE', ( #124, #41, #259, #255 ) ) ;
#296 = EDGE_LOOP ( 'NONE', ( #401, #192, #371, #400 ) ) ;
#297 =( NAMED_UNIT ( * ) SI_UNIT ( $, .STERADIAN. ) SOLID_ANGLE_UNIT ( ) );
#298 = MECHANICAL_DESIGN_GEOMETRIC_PRESENTATION_REPRESENTATION (  '', ( #392 ), #94 ) ;
#299 = CIRCLE ( 'NONE', #126, 0.01499999999999970281 ) ;
#300 = DIRECTION ( 'NONE',  ( -0.0000000000000000000, 0.0000000000000000000, 1.000000000000000000 ) ) ;
#301 = VECTOR ( 'NONE', #141, 39.37007874015748143 ) ;
#302 = EDGE_LOOP ( 'NONE', ( #249, #222, #182, #150 ) ) ;
#303 = CARTESIAN_POINT ( 'NONE',  ( 0.1500000000000001332, 0.0000000000000000000, 0.01499999999999970281 ) ) ;
#304 = PRODUCT ( 'DA18EC1F-379C-4107-A69E-D604D1367375', 'DA18EC1F-379C-4107-A69E-D604D1367375', '', ( #157 ) ) ;
#305 = APPLICATION_CONTEXT ( 'automotive_design' ) ;
#306 = DIRECTION ( 'NONE',  ( 0.0000000000000000000, 0.0000000000000000000, 1.000000000000000000 ) ) ;
#307 = ORIENTED_EDGE ( 'NONE', *, *, #128, .T. ) ;
#308 = ORIENTED_EDGE ( 'NONE', *, *, #231, .T. ) ;
#309 = AXIS2_PLACEMENT_3D ( 'NONE', #129, #413, #59 ) ;
#310 = CARTESIAN_POINT ( 'NONE',  ( 0.1500000000000001332, 0.0000000000000000000, 0.0000000000000000000 ) ) ;
#311 = EDGE_CURVE ( 'NONE', #265, #440, #2, .T. ) ;
#312 = CARTESIAN_POINT ( 'NONE',  ( 0.01499999999999860993, 0.0000000000000000000, 0.0000000000000000000 ) ) ;
#313 = CARTESIAN_POINT ( 'NONE',  ( 0.1100000000000000006, 0.0000000000000000000, 0.0000000000000000000 ) ) ;
#314 =( GEOMETRIC_REPRESENTATION_CONTEXT ( 3 ) GLOBAL_UNCERTAINTY_ASSIGNED_CONTEXT ( ( #93 ) ) GLOBAL_UNIT_ASSIGNED_CONTEXT ( ( #154, #49, #408 ) ) REPRESENTATION_CONTEXT ( 'NONE', 'WORKASPACE' ) );
#315 = DIRECTION ( 'NONE',  ( 0.0000000000000000000, 0.0000000000000000000, 1.000000000000000000 ) ) ;
#316 = PRODUCT_DEFINITION_CONTEXT ( 'detailed design', #305, 'design' ) ;
#317 = DIRECTION ( 'NONE',  ( 0.0000000000000000000, 0.0000000000000000000, 1.000000000000000000 ) ) ;
#318 = LINE ( 'NONE', #208, #276 ) ;
#319 = EDGE_CURVE ( 'NONE', #8, #58, #54, .T. ) ;
#320 = CARTESIAN_POINT ( 'NONE',  ( 0.0000000000000000000, 1.836970198720992617E-18, -0.01499999999999969413 ) ) ;
#321 = CYLINDRICAL_SURFACE ( 'NONE', #278, 0.01499999999999969413 ) ;
#322 = AXIS2_PLACEMENT_3D ( 'NONE', #110, #112, #181 ) ;
#323 = CARTESIAN_POINT ( 'NONE',  ( 0.4882326785382960499, 0.0000000000000000000, 0.0000000000000000000 ) ) ;
#324 = CARTESIAN_POINT ( 'NONE',  ( 0.4882326785382960499, 1.154568535396965904E-18, -0.003855535101236406623 ) ) ;
#325 = ORIENTED_EDGE ( 'NONE', *, *, #51, .T. ) ;
#326 = EDGE_CURVE ( 'NONE', #373, #405, #438, .T. ) ;
#327 = CARTESIAN_POINT ( 'NONE',  ( 0.1500000000000001332, 0.0000000000000000000, 0.03099999999999974651 ) ) ;
#328 = ORIENTED_EDGE ( 'NONE', *, *, #79, .F. ) ;
#329 = LINE ( 'NONE', #103, #269 ) ;
#330 = ORIENTED_EDGE ( 'NONE', *, *, #411, .F. ) ;
#331 = EDGE_CURVE ( 'NONE', #463, #58, #187, .T. ) ;
#332 = VERTEX_POINT ( 'NONE', #286 ) ;
#333 = CARTESIAN_POINT ( 'NONE',  ( 0.0000000000000000000, 0.0000000000000000000, 0.0000000000000000000 ) ) ;
#334 = EDGE_LOOP ( 'NONE', ( #188, #105 ) ) ;
#335 = EDGE_LOOP ( 'NONE', ( #339, #189, #142, #412 ) ) ;
#336 = AXIS2_PLACEMENT_3D ( 'NONE', #66, #386, #389 ) ;
#337 = AXIS2_PLACEMENT_3D ( 'NONE', #454, #359, #136 ) ;
#338 = FACE_OUTER_BOUND ( 'NONE', #114, .T. ) ;
#339 = ORIENTED_EDGE ( 'NONE', *, *, #326, .T. ) ;
#340 = EDGE_CURVE ( 'NONE', #265, #430, #256, .T. ) ;
#341 = ORIENTED_EDGE ( 'NONE', *, *, #432, .F. ) ;
#342 = FACE_OUTER_BOUND ( 'NONE', #44, .T. ) ;
#343 = ADVANCED_FACE ( 'NONE', ( #428, #75 ), #138, .F. ) ;
#344 = DIRECTION ( 'NONE',  ( -1.000000000000000000, -0.0000000000000000000, -0.0000000000000000000 ) ) ;
#345 = DIRECTION ( 'NONE',  ( 0.0000000000000000000, 0.0000000000000000000, 1.000000000000000000 ) ) ;
#346 = DIRECTION ( 'NONE',  ( 1.000000000000000000, 0.0000000000000000000, 0.0000000000000000000 ) ) ;
#347 = AXIS2_PLACEMENT_3D ( 'NONE', #267, #407, #86 ) ;
#348 = CIRCLE ( 'NONE', #186, 4.111647344528150487E-05 ) ;
#349 = DIRECTION ( 'NONE',  ( -1.000000000000000000, -0.0000000000000000000, -0.0000000000000000000 ) ) ;
#350 = CARTESIAN_POINT ( 'NONE',  ( 0.4578455002783131111, 0.0000000000000000000, 0.01499999999999968719 ) ) ;
#351 = DIRECTION ( 'NONE',  ( -1.000000000000000000, -0.0000000000000000000, -0.0000000000000000000 ) ) ;
#352 = DIMENSIONAL_EXPONENTS ( 1.000000000000000000, 0.0000000000000000000, 0.0000000000000000000, 0.0000000000000000000, 0.0000000000000000000, 0.0000000000000000000, 0.0000000000000000000 ) ;
#353 = DIRECTION ( 'NONE',  ( -1.000000000000000000, -0.0000000000000000000, -0.0000000000000000000 ) ) ;
#354 = PRESENTATION_STYLE_ASSIGNMENT (( #174 ) ) ;
#355 = ADVANCED_FACE ( 'NONE', ( #431 ), #394, .T. ) ;
#356 = AXIS2_PLACEMENT_3D ( 'NONE', #457, #351, #244 ) ;
#357 = ORIENTED_EDGE ( 'NONE', *, *, #417, .F. ) ;
#358 = AXIS2_PLACEMENT_3D ( 'NONE', #363, #353, #281 ) ;
#359 = DIRECTION ( 'NONE',  ( 0.0000000000000000000, -1.000000000000000000, 0.0000000000000000000 ) ) ;
#360 = EDGE_LOOP ( 'NONE', ( #357, #163, #116, #341 ) ) ;
#361 = CARTESIAN_POINT ( 'NONE',  ( 0.4578455002783131111, 0.0000000000000000000, 0.0000000000000000000 ) ) ;
#362 = VERTEX_POINT ( 'NONE', #175 ) ;
#363 = CARTESIAN_POINT ( 'NONE',  ( 0.4578455002783131111, 0.0000000000000000000, 0.0000000000000000000 ) ) ;
#364 = ORIENTED_EDGE ( 'NONE', *, *, #55, .T. ) ;
#365 = APPLICATION_PROTOCOL_DEFINITION ( 'draft international standard', 'automotive_design', 1998, #250 ) ;
#366 = VECTOR ( 'NONE', #426, 39.37007874015748143 ) ;
#367 = ORIENTED_EDGE ( 'NONE', *, *, #331, .T. ) ;
#368 = DIRECTION ( 'NONE',  ( 0.0000000000000000000, 0.0000000000000000000, -1.000000000000000000 ) ) ;
#369 = CARTESIAN_POINT ( 'NONE',  ( 0.0000000000000000000, 0.0000000000000000000, 0.0000000000000000000 ) ) ;
#370 = PRODUCT_RELATED_PRODUCT_CATEGORY ( 'part', '', ( #304 ) ) ;
#371 = ORIENTED_EDGE ( 'NONE', *, *, #274, .T. ) ;
#372 = CIRCLE ( 'NONE', #101, 0.04699999999999998623 ) ;
#373 = VERTEX_POINT ( 'NONE', #327 ) ;
#374 = EDGE_LOOP ( 'NONE', ( #228, #6, #121, #257 ) ) ;
#375 = EDGE_CURVE ( 'NONE', #332, #271, #166, .T. ) ;
#376 = VERTEX_POINT ( 'NONE', #178 ) ;
#377 = CYLINDRICAL_SURFACE ( 'NONE', #26, 0.03099999999999974651 ) ;
#378 = AXIS2_PLACEMENT_3D ( 'NONE', #310, #443, #45 ) ;
#379 = AXIS2_PLACEMENT_3D ( 'NONE', #239, #346, #170 ) ;
#380 = CARTESIAN_POINT ( 'NONE',  ( 0.4882326785382960499, 0.0000000000000000000, 0.0000000000000000000 ) ) ;
#381 = CYLINDRICAL_SURFACE ( 'NONE', #70, 0.01499999999999970281 ) ;
#382 = DIRECTION ( 'NONE',  ( 0.0000000000000000000, 0.0000000000000000000, 1.000000000000000000 ) ) ;
#383 = LENGTH_MEASURE_WITH_UNIT ( LENGTH_MEASURE( 0.02539999999999999897 ), #29 );
#384 = CIRCLE ( 'NONE', #88, 0.01499999999999970281 ) ;
#385 = DIRECTION ( 'NONE',  ( -1.000000000000000000, -0.0000000000000000000, -0.0000000000000000000 ) ) ;
#386 = DIRECTION ( 'NONE',  ( -1.000000000000000000, -0.0000000000000000000, -0.0000000000000000000 ) ) ;
#387 = DIRECTION ( 'NONE',  ( -1.000000000000000000, -0.0000000000000000000, -0.0000000000000000000 ) ) ;
#388 = EDGE_CURVE ( 'NONE', #373, #73, #329, .T. ) ;
#389 = DIRECTION ( 'NONE',  ( 0.0000000000000000000, 0.0000000000000000000, 1.000000000000000000 ) ) ;
#390 = CARTESIAN_POINT ( 'NONE',  ( 0.01499999999999860993, 0.0000000000000000000, -0.01499999999999970281 ) ) ;
#391 = FILL_AREA_STYLE ('',( #25 ) ) ;
#392 = STYLED_ITEM ( 'NONE', ( #354 ), #83 ) ;
#393 = ORIENTED_EDGE ( 'NONE', *, *, #55, .F. ) ;
#394 = TOROIDAL_SURFACE ( 'NONE', #358, -0.03200000000000029904, 0.04699999999999998623 ) ;
#395 = DIRECTION ( 'NONE',  ( 0.8660254037844409281, 0.0000000000000000000, -0.4999999999999958367 ) ) ;
#396 = ORIENTED_EDGE ( 'NONE', *, *, #311, .T. ) ;
#397 = DIRECTION ( 'NONE',  ( -1.000000000000000000, -0.0000000000000000000, -0.0000000000000000000 ) ) ;
#398 = EDGE_LOOP ( 'NONE', ( #270, #67, #184, #76 ) ) ;
#399 = EDGE_CURVE ( 'NONE', #440, #290, #318, .T. ) ;
#400 = ORIENTED_EDGE ( 'NONE', *, *, #340, .F. ) ;
#401 = ORIENTED_EDGE ( 'NONE', *, *, #51, .F. ) ;
#402 = APPLICATION_PROTOCOL_DEFINITION ( 'draft international standard', 'automotive_design', 1998, #305 ) ;
#403 = EDGE_CURVE ( 'NONE', #362, #8, #348, .T. ) ;
#404 = CARTESIAN_POINT ( 'NONE',  ( 0.1500000000000001332, 0.03099999999999974651, 0.0000000000000000000 ) ) ;
#405 = VERTEX_POINT ( 'NONE', #65 ) ;
#406 = LENGTH_MEASURE_WITH_UNIT ( LENGTH_MEASURE( 0.02539999999999999897 ), #4 );
#407 = DIRECTION ( 'NONE',  ( -1.000000000000000000, -0.0000000000000000000, -0.0000000000000000000 ) ) ;
#408 =( NAMED_UNIT ( * ) SI_UNIT ( $, .STERADIAN. ) SOLID_ANGLE_UNIT ( ) );
#409 = AXIS2_PLACEMENT_3D ( 'NONE', #439, #201, #46 ) ;
#410 = EDGE_LOOP ( 'NONE', ( #294, #52 ) ) ;
#411 = EDGE_CURVE ( 'NONE', #362, #463, #446, .T. ) ;
#412 = ORIENTED_EDGE ( 'NONE', *, *, #388, .F. ) ;
#413 = DIRECTION ( 'NONE',  ( -1.000000000000000000, -0.0000000000000000000, -0.0000000000000000000 ) ) ;
#414 = DIRECTION ( 'NONE',  ( 0.0000000000000000000, 0.0000000000000000000, 1.000000000000000000 ) ) ;
#415 = CIRCLE ( 'NONE', #283, 0.003855535101236406623 ) ;
#416 = FACE_OUTER_BOUND ( 'NONE', #295, .T. ) ;
#417 = EDGE_CURVE ( 'NONE', #332, #123, #420, .T. ) ;
#418 = FACE_OUTER_BOUND ( 'NONE', #1, .T. ) ;
#419 = LINE ( 'NONE', #421, #74 ) ;
#420 = LINE ( 'NONE', #320, #366 ) ;
#421 = CARTESIAN_POINT ( 'NONE',  ( 0.0000000000000000000, 1.836970198720993388E-18, -0.01499999999999970281 ) ) ;
#422 = PRESENTATION_LAYER_ASSIGNMENT (  '', '', ( #40 ) ) ;
#423 = DIRECTION ( 'NONE',  ( 0.0000000000000000000, 0.0000000000000000000, 1.000000000000000000 ) ) ;
#424 = CARTESIAN_POINT ( 'NONE',  ( 0.1500000000000001332, 1.836970198720993773E-18, -0.01499999999999970628 ) ) ;
#425 = VERTEX_POINT ( 'NONE', #456 ) ;
#426 = DIRECTION ( 'NONE',  ( -1.000000000000000000, -0.0000000000000000000, -0.0000000000000000000 ) ) ;
#427 = CARTESIAN_POINT ( 'NONE',  ( 0.01499999999999860993, 0.0000000000000000000, 0.0000000000000000000 ) ) ;
#428 = FACE_BOUND ( 'NONE', #214, .T. ) ;
#429 = AXIS2_PLACEMENT_3D ( 'NONE', #404, #167, #300 ) ;
#430 = VERTEX_POINT ( 'NONE', #35 ) ;
#431 = FACE_OUTER_BOUND ( 'NONE', #398, .T. ) ;
#432 = EDGE_CURVE ( 'NONE', #123, #435, #33, .T. ) ;
#433 = ORIENTED_EDGE ( 'NONE', *, *, #274, .F. ) ;
#434 = LINE ( 'NONE', #444, #253 ) ;
#435 = VERTEX_POINT ( 'NONE', #303 ) ;
#436 = CARTESIAN_POINT ( 'NONE',  ( 0.4899999999999999911, 2.386010939163201525E-19, -4.111647344528150487E-05 ) ) ;
#437 = AXIS2_PLACEMENT_3D ( 'NONE', #119, #263, #368 ) ;
#438 = CIRCLE ( 'NONE', #71, 0.03099999999999974651 ) ;
#439 = CARTESIAN_POINT ( 'NONE',  ( 0.1100000000000000006, 0.0000000000000000000, 0.0000000000000000000 ) ) ;
#440 = VERTEX_POINT ( 'NONE', #220 ) ;
#441 =( LENGTH_UNIT ( ) NAMED_UNIT ( * ) SI_UNIT ( $, .METRE. ) );
#442 = CARTESIAN_POINT ( 'NONE',  ( 0.4899999999999999911, 0.0000000000000000000, 0.0000000000000000000 ) ) ;
#443 = DIRECTION ( 'NONE',  ( -1.000000000000000000, -0.0000000000000000000, -0.0000000000000000000 ) ) ;
#444 = CARTESIAN_POINT ( 'NONE',  ( 0.0000000000000000000, 3.796405077356764195E-18, -0.03099999999999974651 ) ) ;
#445 = ORIENTED_EDGE ( 'NONE', *, *, #238, .T. ) ;
#446 = CIRCLE ( 'NONE', #337, 0.004999999999999964542 ) ;
#447 = DIRECTION ( 'NONE',  ( -1.000000000000000000, -0.0000000000000000000, -0.0000000000000000000 ) ) ;
#448 = DIRECTION ( 'NONE',  ( -1.000000000000000000, 0.0000000000000000000, -0.0000000000000000000 ) ) ;
#449 = DIRECTION ( 'NONE',  ( -0.0000000000000000000, 1.000000000000000000, 1.224646799147353207E-16 ) ) ;
#450 = PRODUCT_DEFINITION ( 'UNKNOWN', '', #241, #316 ) ;
#451 = AXIS2_PLACEMENT_3D ( 'NONE', #361, #218, #183 ) ;
#452 = CARTESIAN_POINT ( 'NONE',  ( 0.0000000000000000000, 0.0000000000000000000, 0.01499999999999969413 ) ) ;
#453 = CARTESIAN_POINT ( 'NONE',  ( 0.0000000000000000000, 0.0000000000000000000, 0.0000000000000000000 ) ) ;
#454 = CARTESIAN_POINT ( 'NONE',  ( 0.4850000000000000422, 0.0000000000000000000, 4.111647344528150487E-05 ) ) ;
#455 = EDGE_CURVE ( 'NONE', #405, #425, #434, .T. ) ;
#456 = CARTESIAN_POINT ( 'NONE',  ( 0.1100000000000000006, 3.796405077356764195E-18, -0.03099999999999974651 ) ) ;
#457 = CARTESIAN_POINT ( 'NONE',  ( 0.4899999999999999911, 0.0000000000000000000, 0.0000000000000000000 ) ) ;
#458 = CONICAL_SURFACE ( 'NONE', #379, 0.01499999999999970281, 0.5235987755982940417 ) ;
#459 = CARTESIAN_POINT ( 'NONE',  ( 0.0000000000000000000, 0.0000000000000000000, -0.006339745962156215740 ) ) ;
#460 = FACE_OUTER_BOUND ( 'NONE', #360, .T. ) ;
#461 = ORIENTED_EDGE ( 'NONE', *, *, #197, .F. ) ;
#462 = CARTESIAN_POINT ( 'NONE',  ( 0.01499999999999860993, 1.836970198720993388E-18, 0.01499999999999970281 ) ) ;
#463 = VERTEX_POINT ( 'NONE', #81 ) ;
ENDSEC;
END-ISO-10303-21;
