M48
; DRILL file {KiCad 9.0.5} date 2026-02-04T13:01:09-0700
; FORMAT={-:-/ absolute / metric / decimal}
; #@! TF.CreationDate,2026-02-04T13:01:09-07:00
; #@! TF.GenerationSoftware,Kicad,Pcbnew,9.0.5
; #@! TF.FileFunction,Plated,1,2,PTH
FMAT,2
METRIC
; #@! TA.AperFunction,Plated,PTH,ViaDrill
T1C0.300
; #@! TA.AperFunction,Plated,PTH,ComponentDrill
T2C0.950
; #@! TA.AperFunction,Plated,PTH,ComponentDrill
T3C1.000
; #@! TA.AperFunction,Plated,PTH,ComponentDrill
T4C1.020
; #@! TA.AperFunction,Plated,PTH,ComponentDrill
T5C1.067
; #@! TA.AperFunction,Plated,PTH,ComponentDrill
T6C1.118
; #@! TA.AperFunction,Plated,PTH,ComponentDrill
T7C1.120
; #@! TA.AperFunction,Plated,PTH,ComponentDrill
T8C1.600
; #@! TA.AperFunction,Plated,PTH,ComponentDrill
T9C1.900
%
G90
G05
T1
X110.75Y-94.487
X117.1Y-94.85
X117.5Y-100.95
X117.6Y-98.25
X119.7Y-100.25
X119.8Y-94.85
X119.8Y-97.85
X127.25Y-96.237
T2
X180.475Y-72.189
X180.475Y-74.689
X180.475Y-77.189
X180.475Y-79.689
T3
X89.075Y-76.689
X89.075Y-87.689
X89.075Y-95.389
X89.075Y-106.389
X184.975Y-103.089
X184.975Y-114.089
T4
X87.29Y-110.644
X89.83Y-72.544
X89.83Y-110.644
X92.37Y-72.544
X92.37Y-110.644
X94.91Y-72.544
X94.91Y-110.644
X97.45Y-72.544
X97.45Y-110.644
X99.99Y-72.544
X99.99Y-110.644
X102.53Y-72.544
X102.53Y-110.644
X105.07Y-72.544
X105.07Y-110.644
X107.61Y-72.544
X107.61Y-110.644
X110.15Y-72.544
X110.15Y-110.644
X112.69Y-72.544
X112.69Y-110.644
X115.23Y-72.544
X115.23Y-110.644
X117.77Y-72.544
X117.77Y-110.644
X120.31Y-72.544
X120.31Y-110.644
X122.85Y-72.544
X122.85Y-110.644
X125.39Y-72.544
X125.39Y-110.644
X127.93Y-72.544
X127.93Y-110.644
X130.47Y-72.544
X130.47Y-110.644
X133.01Y-72.544
X133.01Y-110.644
X135.55Y-72.544
X135.55Y-110.644
X138.09Y-72.544
X150.375Y-108.909
X152.915Y-108.909
X155.455Y-108.909
X157.995Y-108.909
X160.535Y-108.909
X163.075Y-108.909
X165.615Y-108.909
X168.155Y-108.909
T5
X179.375Y-88.306
X179.375Y-95.806
T6
X107.7Y-92.007
X107.7Y-97.087
T7
X150.355Y-80.989
X152.895Y-80.989
X155.435Y-80.989
X157.975Y-80.989
X160.515Y-80.989
X163.055Y-80.989
X165.595Y-80.989
X168.135Y-80.989
T8
X142.975Y-72.989
X142.975Y-86.459
X142.975Y-93.689
X142.975Y-107.159
X146.375Y-72.989
X146.375Y-86.459
X146.375Y-93.689
X146.375Y-107.159
T9
X99.075Y-79.689
X99.075Y-84.689
X99.075Y-98.389
X99.075Y-103.389
X174.975Y-106.089
X174.975Y-111.089
M30
