%TF.GenerationSoftware,KiCad,Pcbnew,9.0.5*%
%TF.CreationDate,2026-02-04T13:01:04-07:00*%
%TF.ProjectId,Motor_Controller_Carrier_Board,4d6f746f-725f-4436-9f6e-74726f6c6c65,rev?*%
%TF.SameCoordinates,Original*%
%TF.FileFunction,Soldermask,Top*%
%TF.FilePolarity,Negative*%
%FSLAX46Y46*%
G04 Gerber Fmt 4.6, Leading zero omitted, Abs format (unit mm)*
G04 Created by KiCad (PCBNEW 9.0.5) date 2026-02-04 13:01:04*
%MOMM*%
%LPD*%
G01*
G04 APERTURE LIST*
G04 Aperture macros list*
%AMRoundRect*
0 Rectangle with rounded corners*
0 $1 Rounding radius*
0 $2 $3 $4 $5 $6 $7 $8 $9 X,Y pos of 4 corners*
0 Add a 4 corners polygon primitive as box body*
4,1,4,$2,$3,$4,$5,$6,$7,$8,$9,$2,$3,0*
0 Add four circle primitives for the rounded corners*
1,1,$1+$1,$2,$3*
1,1,$1+$1,$4,$5*
1,1,$1+$1,$6,$7*
1,1,$1+$1,$8,$9*
0 Add four rect primitives between the rounded corners*
20,1,$1+$1,$2,$3,$4,$5,0*
20,1,$1+$1,$4,$5,$6,$7,0*
20,1,$1+$1,$6,$7,$8,$9,0*
20,1,$1+$1,$8,$9,$2,$3,0*%
G04 Aperture macros list end*
%ADD10C,1.400000*%
%ADD11RoundRect,0.770000X-0.980000X0.980000X-0.980000X-0.980000X0.980000X-0.980000X0.980000X0.980000X0*%
%ADD12C,3.500000*%
%ADD13C,3.200000*%
%ADD14RoundRect,0.102000X-0.765000X-1.360000X0.765000X-1.360000X0.765000X1.360000X-0.765000X1.360000X0*%
%ADD15RoundRect,0.150000X-0.512500X-0.150000X0.512500X-0.150000X0.512500X0.150000X-0.512500X0.150000X0*%
%ADD16RoundRect,0.250000X0.725000X-0.600000X0.725000X0.600000X-0.725000X0.600000X-0.725000X-0.600000X0*%
%ADD17O,1.950000X1.700000*%
%ADD18R,1.625600X1.625600*%
%ADD19C,1.625600*%
%ADD20R,4.100000X3.500000*%
%ADD21C,1.734000*%
%ADD22C,2.180000*%
%ADD23C,1.600000*%
%ADD24C,1.800000*%
%ADD25C,2.604000*%
%ADD26RoundRect,0.770000X0.980000X-0.980000X0.980000X0.980000X-0.980000X0.980000X-0.980000X-0.980000X0*%
%ADD27C,1.574800*%
%ADD28RoundRect,0.102000X0.550000X1.100000X-0.550000X1.100000X-0.550000X-1.100000X0.550000X-1.100000X0*%
%ADD29R,1.803400X1.117600*%
G04 APERTURE END LIST*
D10*
%TO.C,J3*%
X184975000Y-103089442D03*
X184975000Y-114089442D03*
D11*
X174975000Y-111089442D03*
D12*
X174975000Y-106089442D03*
%TD*%
D13*
%TO.C,REF\u002A\u002A*%
X172575000Y-74089442D03*
%TD*%
D14*
%TO.C,C2*%
X112409000Y-100986750D03*
X115091000Y-100986750D03*
%TD*%
D15*
%TO.C,U1*%
X112362500Y-92286750D03*
X112362500Y-93236750D03*
X112362500Y-94186750D03*
X114637500Y-94186750D03*
X114637500Y-93236750D03*
X114637500Y-92286750D03*
%TD*%
D16*
%TO.C,J4*%
X180475000Y-79689442D03*
D17*
X180475000Y-77189442D03*
X180475000Y-74689442D03*
X180475000Y-72189442D03*
%TD*%
D18*
%TO.C,F3*%
X107700000Y-97086750D03*
D19*
X107700000Y-92006750D03*
%TD*%
D20*
%TO.C,L1*%
X118250000Y-88736750D03*
X127750000Y-88736750D03*
%TD*%
D21*
%TO.C,MCB1*%
X138090000Y-72544442D03*
X135550000Y-72544442D03*
X133010000Y-72544442D03*
X130470000Y-72544442D03*
X127930000Y-72544442D03*
X125390000Y-72544442D03*
X122850000Y-72544442D03*
X120310000Y-72544442D03*
X117770000Y-72544442D03*
X115230000Y-72544442D03*
X112690000Y-72544442D03*
X110150000Y-72544442D03*
X107610000Y-72544442D03*
X105070000Y-72544442D03*
X102530000Y-72544442D03*
X99990000Y-72544442D03*
X97450000Y-72544442D03*
X94910000Y-72544442D03*
X92370000Y-72544442D03*
X89830000Y-72544442D03*
X135550000Y-110644442D03*
X133010000Y-110644442D03*
X130470000Y-110644442D03*
X127930000Y-110644442D03*
X125390000Y-110644442D03*
X122850000Y-110644442D03*
X120310000Y-110644442D03*
X117770000Y-110644442D03*
X115230000Y-110644442D03*
X112690000Y-110644442D03*
X110150000Y-110644442D03*
X107610000Y-110644442D03*
X105070000Y-110644442D03*
X102530000Y-110644442D03*
X99990000Y-110644442D03*
X97450000Y-110644442D03*
X94910000Y-110644442D03*
X92370000Y-110644442D03*
X89830000Y-110644442D03*
X87290000Y-110644442D03*
%TD*%
D22*
%TO.C,MDB1*%
X167105000Y-101879442D03*
X151405000Y-86079442D03*
D23*
X150375000Y-108909442D03*
X152915000Y-108909442D03*
X155455000Y-108909442D03*
X157995000Y-108909442D03*
X160535000Y-108909442D03*
X163075000Y-108909442D03*
X165615000Y-108909442D03*
X168155000Y-108909442D03*
D24*
X150355000Y-80989442D03*
X152895000Y-80989442D03*
X155435000Y-80989442D03*
X157975000Y-80989442D03*
X160515000Y-80989442D03*
X163055000Y-80989442D03*
X165595000Y-80989442D03*
X168135000Y-80989442D03*
%TD*%
D25*
%TO.C,F1*%
X142975000Y-86459442D03*
X146375000Y-86459442D03*
X142975000Y-72989442D03*
X146375000Y-72989442D03*
%TD*%
D10*
%TO.C,J2*%
X89075000Y-106389442D03*
X89075000Y-95389442D03*
D26*
X99075000Y-98389442D03*
D12*
X99075000Y-103389442D03*
%TD*%
D27*
%TO.C,C6*%
X179375000Y-88306192D03*
X179375000Y-95806192D03*
%TD*%
D28*
%TO.C,C4*%
X125150000Y-100236750D03*
X121850000Y-100236750D03*
%TD*%
D14*
%TO.C,C1*%
X112409000Y-97236750D03*
X115091000Y-97236750D03*
%TD*%
D10*
%TO.C,J1*%
X89075000Y-87689442D03*
X89075000Y-76689442D03*
D26*
X99075000Y-79689442D03*
D12*
X99075000Y-84689442D03*
%TD*%
D25*
%TO.C,F2*%
X146375000Y-93689442D03*
X142975000Y-93689442D03*
X146375000Y-107159442D03*
X142975000Y-107159442D03*
%TD*%
D29*
%TO.C,C3*%
X113500000Y-86887950D03*
X113500000Y-89986750D03*
%TD*%
D28*
%TO.C,C5*%
X125150000Y-96486750D03*
X121850000Y-96486750D03*
%TD*%
M02*
