%TF.GenerationSoftware,KiCad,Pcbnew,9.0.5*%
%TF.CreationDate,2026-02-04T13:01:04-07:00*%
%TF.ProjectId,Motor_Controller_Carrier_Board,4d6f746f-725f-4436-9f6e-74726f6c6c65,rev?*%
%TF.SameCoordinates,Original*%
%TF.FileFunction,Legend,Top*%
%TF.FilePolarity,Positive*%
%FSLAX46Y46*%
G04 Gerber Fmt 4.6, Leading zero omitted, Abs format (unit mm)*
G04 Created by KiCad (PCBNEW 9.0.5) date 2026-02-04 13:01:04*
%MOMM*%
%LPD*%
G01*
G04 APERTURE LIST*
%ADD10C,0.150000*%
%ADD11C,0.152400*%
G04 APERTURE END LIST*
D10*
X144051191Y-80359261D02*
X144051191Y-79359261D01*
X144527381Y-80359261D02*
X144527381Y-79359261D01*
X144527381Y-79359261D02*
X145098809Y-80359261D01*
X145098809Y-80359261D02*
X145098809Y-79359261D01*
X86045112Y-92835451D02*
X86187969Y-92883070D01*
X86187969Y-92883070D02*
X86235588Y-92930689D01*
X86235588Y-92930689D02*
X86283207Y-93025927D01*
X86283207Y-93025927D02*
X86283207Y-93168784D01*
X86283207Y-93168784D02*
X86235588Y-93264022D01*
X86235588Y-93264022D02*
X86187969Y-93311642D01*
X86187969Y-93311642D02*
X86092731Y-93359261D01*
X86092731Y-93359261D02*
X85711779Y-93359261D01*
X85711779Y-93359261D02*
X85711779Y-92359261D01*
X85711779Y-92359261D02*
X86045112Y-92359261D01*
X86045112Y-92359261D02*
X86140350Y-92406880D01*
X86140350Y-92406880D02*
X86187969Y-92454499D01*
X86187969Y-92454499D02*
X86235588Y-92549737D01*
X86235588Y-92549737D02*
X86235588Y-92644975D01*
X86235588Y-92644975D02*
X86187969Y-92740213D01*
X86187969Y-92740213D02*
X86140350Y-92787832D01*
X86140350Y-92787832D02*
X86045112Y-92835451D01*
X86045112Y-92835451D02*
X85711779Y-92835451D01*
X86664160Y-93073546D02*
X87140350Y-93073546D01*
X86568922Y-93359261D02*
X86902255Y-92359261D01*
X86902255Y-92359261D02*
X87235588Y-93359261D01*
X87426065Y-92359261D02*
X87997493Y-92359261D01*
X87711779Y-93359261D02*
X87711779Y-92359261D01*
X88187970Y-92359261D02*
X88759398Y-92359261D01*
X88473684Y-93359261D02*
X88473684Y-92359261D01*
X90045113Y-92359261D02*
X90235589Y-92359261D01*
X90235589Y-92359261D02*
X90330827Y-92406880D01*
X90330827Y-92406880D02*
X90426065Y-92502118D01*
X90426065Y-92502118D02*
X90473684Y-92692594D01*
X90473684Y-92692594D02*
X90473684Y-93025927D01*
X90473684Y-93025927D02*
X90426065Y-93216403D01*
X90426065Y-93216403D02*
X90330827Y-93311642D01*
X90330827Y-93311642D02*
X90235589Y-93359261D01*
X90235589Y-93359261D02*
X90045113Y-93359261D01*
X90045113Y-93359261D02*
X89949875Y-93311642D01*
X89949875Y-93311642D02*
X89854637Y-93216403D01*
X89854637Y-93216403D02*
X89807018Y-93025927D01*
X89807018Y-93025927D02*
X89807018Y-92692594D01*
X89807018Y-92692594D02*
X89854637Y-92502118D01*
X89854637Y-92502118D02*
X89949875Y-92406880D01*
X89949875Y-92406880D02*
X90045113Y-92359261D01*
X90902256Y-92359261D02*
X90902256Y-93168784D01*
X90902256Y-93168784D02*
X90949875Y-93264022D01*
X90949875Y-93264022D02*
X90997494Y-93311642D01*
X90997494Y-93311642D02*
X91092732Y-93359261D01*
X91092732Y-93359261D02*
X91283208Y-93359261D01*
X91283208Y-93359261D02*
X91378446Y-93311642D01*
X91378446Y-93311642D02*
X91426065Y-93264022D01*
X91426065Y-93264022D02*
X91473684Y-93168784D01*
X91473684Y-93168784D02*
X91473684Y-92359261D01*
X91807018Y-92359261D02*
X92378446Y-92359261D01*
X92092732Y-93359261D02*
X92092732Y-92359261D01*
X177328990Y-72526221D02*
X177328990Y-72859554D01*
X176805180Y-73002411D02*
X176805180Y-72526221D01*
X176805180Y-72526221D02*
X177805180Y-72526221D01*
X177805180Y-72526221D02*
X177805180Y-73002411D01*
X176805180Y-73430983D02*
X177805180Y-73430983D01*
X177805180Y-73430983D02*
X176805180Y-74002411D01*
X176805180Y-74002411D02*
X177805180Y-74002411D01*
X176900419Y-75050030D02*
X176852800Y-75002411D01*
X176852800Y-75002411D02*
X176805180Y-74859554D01*
X176805180Y-74859554D02*
X176805180Y-74764316D01*
X176805180Y-74764316D02*
X176852800Y-74621459D01*
X176852800Y-74621459D02*
X176948038Y-74526221D01*
X176948038Y-74526221D02*
X177043276Y-74478602D01*
X177043276Y-74478602D02*
X177233752Y-74430983D01*
X177233752Y-74430983D02*
X177376609Y-74430983D01*
X177376609Y-74430983D02*
X177567085Y-74478602D01*
X177567085Y-74478602D02*
X177662323Y-74526221D01*
X177662323Y-74526221D02*
X177757561Y-74621459D01*
X177757561Y-74621459D02*
X177805180Y-74764316D01*
X177805180Y-74764316D02*
X177805180Y-74859554D01*
X177805180Y-74859554D02*
X177757561Y-75002411D01*
X177757561Y-75002411D02*
X177709942Y-75050030D01*
X177805180Y-75669078D02*
X177805180Y-75859554D01*
X177805180Y-75859554D02*
X177757561Y-75954792D01*
X177757561Y-75954792D02*
X177662323Y-76050030D01*
X177662323Y-76050030D02*
X177471847Y-76097649D01*
X177471847Y-76097649D02*
X177138514Y-76097649D01*
X177138514Y-76097649D02*
X176948038Y-76050030D01*
X176948038Y-76050030D02*
X176852800Y-75954792D01*
X176852800Y-75954792D02*
X176805180Y-75859554D01*
X176805180Y-75859554D02*
X176805180Y-75669078D01*
X176805180Y-75669078D02*
X176852800Y-75573840D01*
X176852800Y-75573840D02*
X176948038Y-75478602D01*
X176948038Y-75478602D02*
X177138514Y-75430983D01*
X177138514Y-75430983D02*
X177471847Y-75430983D01*
X177471847Y-75430983D02*
X177662323Y-75478602D01*
X177662323Y-75478602D02*
X177757561Y-75573840D01*
X177757561Y-75573840D02*
X177805180Y-75669078D01*
X176805180Y-76526221D02*
X177805180Y-76526221D01*
X177805180Y-76526221D02*
X177805180Y-76764316D01*
X177805180Y-76764316D02*
X177757561Y-76907173D01*
X177757561Y-76907173D02*
X177662323Y-77002411D01*
X177662323Y-77002411D02*
X177567085Y-77050030D01*
X177567085Y-77050030D02*
X177376609Y-77097649D01*
X177376609Y-77097649D02*
X177233752Y-77097649D01*
X177233752Y-77097649D02*
X177043276Y-77050030D01*
X177043276Y-77050030D02*
X176948038Y-77002411D01*
X176948038Y-77002411D02*
X176852800Y-76907173D01*
X176852800Y-76907173D02*
X176805180Y-76764316D01*
X176805180Y-76764316D02*
X176805180Y-76526221D01*
X177328990Y-77526221D02*
X177328990Y-77859554D01*
X176805180Y-78002411D02*
X176805180Y-77526221D01*
X176805180Y-77526221D02*
X177805180Y-77526221D01*
X177805180Y-77526221D02*
X177805180Y-78002411D01*
X176805180Y-79002411D02*
X177281371Y-78669078D01*
X176805180Y-78430983D02*
X177805180Y-78430983D01*
X177805180Y-78430983D02*
X177805180Y-78811935D01*
X177805180Y-78811935D02*
X177757561Y-78907173D01*
X177757561Y-78907173D02*
X177709942Y-78954792D01*
X177709942Y-78954792D02*
X177614704Y-79002411D01*
X177614704Y-79002411D02*
X177471847Y-79002411D01*
X177471847Y-79002411D02*
X177376609Y-78954792D01*
X177376609Y-78954792D02*
X177328990Y-78907173D01*
X177328990Y-78907173D02*
X177281371Y-78811935D01*
X177281371Y-78811935D02*
X177281371Y-78430983D01*
X171305180Y-106326221D02*
X172305180Y-106326221D01*
X172305180Y-106326221D02*
X171590895Y-106659554D01*
X171590895Y-106659554D02*
X172305180Y-106992887D01*
X172305180Y-106992887D02*
X171305180Y-106992887D01*
X172305180Y-107659554D02*
X172305180Y-107850030D01*
X172305180Y-107850030D02*
X172257561Y-107945268D01*
X172257561Y-107945268D02*
X172162323Y-108040506D01*
X172162323Y-108040506D02*
X171971847Y-108088125D01*
X171971847Y-108088125D02*
X171638514Y-108088125D01*
X171638514Y-108088125D02*
X171448038Y-108040506D01*
X171448038Y-108040506D02*
X171352800Y-107945268D01*
X171352800Y-107945268D02*
X171305180Y-107850030D01*
X171305180Y-107850030D02*
X171305180Y-107659554D01*
X171305180Y-107659554D02*
X171352800Y-107564316D01*
X171352800Y-107564316D02*
X171448038Y-107469078D01*
X171448038Y-107469078D02*
X171638514Y-107421459D01*
X171638514Y-107421459D02*
X171971847Y-107421459D01*
X171971847Y-107421459D02*
X172162323Y-107469078D01*
X172162323Y-107469078D02*
X172257561Y-107564316D01*
X172257561Y-107564316D02*
X172305180Y-107659554D01*
X172305180Y-108373840D02*
X172305180Y-108945268D01*
X171305180Y-108659554D02*
X172305180Y-108659554D01*
X172305180Y-109469078D02*
X172305180Y-109659554D01*
X172305180Y-109659554D02*
X172257561Y-109754792D01*
X172257561Y-109754792D02*
X172162323Y-109850030D01*
X172162323Y-109850030D02*
X171971847Y-109897649D01*
X171971847Y-109897649D02*
X171638514Y-109897649D01*
X171638514Y-109897649D02*
X171448038Y-109850030D01*
X171448038Y-109850030D02*
X171352800Y-109754792D01*
X171352800Y-109754792D02*
X171305180Y-109659554D01*
X171305180Y-109659554D02*
X171305180Y-109469078D01*
X171305180Y-109469078D02*
X171352800Y-109373840D01*
X171352800Y-109373840D02*
X171448038Y-109278602D01*
X171448038Y-109278602D02*
X171638514Y-109230983D01*
X171638514Y-109230983D02*
X171971847Y-109230983D01*
X171971847Y-109230983D02*
X172162323Y-109278602D01*
X172162323Y-109278602D02*
X172257561Y-109373840D01*
X172257561Y-109373840D02*
X172305180Y-109469078D01*
X171305180Y-110897649D02*
X171781371Y-110564316D01*
X171305180Y-110326221D02*
X172305180Y-110326221D01*
X172305180Y-110326221D02*
X172305180Y-110707173D01*
X172305180Y-110707173D02*
X172257561Y-110802411D01*
X172257561Y-110802411D02*
X172209942Y-110850030D01*
X172209942Y-110850030D02*
X172114704Y-110897649D01*
X172114704Y-110897649D02*
X171971847Y-110897649D01*
X171971847Y-110897649D02*
X171876609Y-110850030D01*
X171876609Y-110850030D02*
X171828990Y-110802411D01*
X171828990Y-110802411D02*
X171781371Y-110707173D01*
X171781371Y-110707173D02*
X171781371Y-110326221D01*
X86045112Y-90035451D02*
X86187969Y-90083070D01*
X86187969Y-90083070D02*
X86235588Y-90130689D01*
X86235588Y-90130689D02*
X86283207Y-90225927D01*
X86283207Y-90225927D02*
X86283207Y-90368784D01*
X86283207Y-90368784D02*
X86235588Y-90464022D01*
X86235588Y-90464022D02*
X86187969Y-90511642D01*
X86187969Y-90511642D02*
X86092731Y-90559261D01*
X86092731Y-90559261D02*
X85711779Y-90559261D01*
X85711779Y-90559261D02*
X85711779Y-89559261D01*
X85711779Y-89559261D02*
X86045112Y-89559261D01*
X86045112Y-89559261D02*
X86140350Y-89606880D01*
X86140350Y-89606880D02*
X86187969Y-89654499D01*
X86187969Y-89654499D02*
X86235588Y-89749737D01*
X86235588Y-89749737D02*
X86235588Y-89844975D01*
X86235588Y-89844975D02*
X86187969Y-89940213D01*
X86187969Y-89940213D02*
X86140350Y-89987832D01*
X86140350Y-89987832D02*
X86045112Y-90035451D01*
X86045112Y-90035451D02*
X85711779Y-90035451D01*
X86664160Y-90273546D02*
X87140350Y-90273546D01*
X86568922Y-90559261D02*
X86902255Y-89559261D01*
X86902255Y-89559261D02*
X87235588Y-90559261D01*
X87426065Y-89559261D02*
X87997493Y-89559261D01*
X87711779Y-90559261D02*
X87711779Y-89559261D01*
X88187970Y-89559261D02*
X88759398Y-89559261D01*
X88473684Y-90559261D02*
X88473684Y-89559261D01*
X89854637Y-90559261D02*
X89854637Y-89559261D01*
X90330827Y-90559261D02*
X90330827Y-89559261D01*
X90330827Y-89559261D02*
X90902255Y-90559261D01*
X90902255Y-90559261D02*
X90902255Y-89559261D01*
X143675000Y-99259261D02*
X143865476Y-99259261D01*
X143865476Y-99259261D02*
X143960714Y-99306880D01*
X143960714Y-99306880D02*
X144055952Y-99402118D01*
X144055952Y-99402118D02*
X144103571Y-99592594D01*
X144103571Y-99592594D02*
X144103571Y-99925927D01*
X144103571Y-99925927D02*
X144055952Y-100116403D01*
X144055952Y-100116403D02*
X143960714Y-100211642D01*
X143960714Y-100211642D02*
X143865476Y-100259261D01*
X143865476Y-100259261D02*
X143675000Y-100259261D01*
X143675000Y-100259261D02*
X143579762Y-100211642D01*
X143579762Y-100211642D02*
X143484524Y-100116403D01*
X143484524Y-100116403D02*
X143436905Y-99925927D01*
X143436905Y-99925927D02*
X143436905Y-99592594D01*
X143436905Y-99592594D02*
X143484524Y-99402118D01*
X143484524Y-99402118D02*
X143579762Y-99306880D01*
X143579762Y-99306880D02*
X143675000Y-99259261D01*
X144532143Y-99259261D02*
X144532143Y-100068784D01*
X144532143Y-100068784D02*
X144579762Y-100164022D01*
X144579762Y-100164022D02*
X144627381Y-100211642D01*
X144627381Y-100211642D02*
X144722619Y-100259261D01*
X144722619Y-100259261D02*
X144913095Y-100259261D01*
X144913095Y-100259261D02*
X145008333Y-100211642D01*
X145008333Y-100211642D02*
X145055952Y-100164022D01*
X145055952Y-100164022D02*
X145103571Y-100068784D01*
X145103571Y-100068784D02*
X145103571Y-99259261D01*
X145436905Y-99259261D02*
X146008333Y-99259261D01*
X145722619Y-100259261D02*
X145722619Y-99259261D01*
X157485714Y-111150057D02*
X157533333Y-111102438D01*
X157533333Y-111102438D02*
X157628571Y-111054819D01*
X157628571Y-111054819D02*
X157866666Y-111054819D01*
X157866666Y-111054819D02*
X157961904Y-111102438D01*
X157961904Y-111102438D02*
X158009523Y-111150057D01*
X158009523Y-111150057D02*
X158057142Y-111245295D01*
X158057142Y-111245295D02*
X158057142Y-111340533D01*
X158057142Y-111340533D02*
X158009523Y-111483390D01*
X158009523Y-111483390D02*
X157438095Y-112054819D01*
X157438095Y-112054819D02*
X158057142Y-112054819D01*
X158533333Y-112054819D02*
X158723809Y-112054819D01*
X158723809Y-112054819D02*
X158819047Y-112007200D01*
X158819047Y-112007200D02*
X158866666Y-111959580D01*
X158866666Y-111959580D02*
X158961904Y-111816723D01*
X158961904Y-111816723D02*
X159009523Y-111626247D01*
X159009523Y-111626247D02*
X159009523Y-111245295D01*
X159009523Y-111245295D02*
X158961904Y-111150057D01*
X158961904Y-111150057D02*
X158914285Y-111102438D01*
X158914285Y-111102438D02*
X158819047Y-111054819D01*
X158819047Y-111054819D02*
X158628571Y-111054819D01*
X158628571Y-111054819D02*
X158533333Y-111102438D01*
X158533333Y-111102438D02*
X158485714Y-111150057D01*
X158485714Y-111150057D02*
X158438095Y-111245295D01*
X158438095Y-111245295D02*
X158438095Y-111483390D01*
X158438095Y-111483390D02*
X158485714Y-111578628D01*
X158485714Y-111578628D02*
X158533333Y-111626247D01*
X158533333Y-111626247D02*
X158628571Y-111673866D01*
X158628571Y-111673866D02*
X158819047Y-111673866D01*
X158819047Y-111673866D02*
X158914285Y-111626247D01*
X158914285Y-111626247D02*
X158961904Y-111578628D01*
X158961904Y-111578628D02*
X159009523Y-111483390D01*
X159485714Y-112054819D02*
X159676190Y-112054819D01*
X159676190Y-112054819D02*
X159771428Y-112007200D01*
X159771428Y-112007200D02*
X159819047Y-111959580D01*
X159819047Y-111959580D02*
X159914285Y-111816723D01*
X159914285Y-111816723D02*
X159961904Y-111626247D01*
X159961904Y-111626247D02*
X159961904Y-111245295D01*
X159961904Y-111245295D02*
X159914285Y-111150057D01*
X159914285Y-111150057D02*
X159866666Y-111102438D01*
X159866666Y-111102438D02*
X159771428Y-111054819D01*
X159771428Y-111054819D02*
X159580952Y-111054819D01*
X159580952Y-111054819D02*
X159485714Y-111102438D01*
X159485714Y-111102438D02*
X159438095Y-111150057D01*
X159438095Y-111150057D02*
X159390476Y-111245295D01*
X159390476Y-111245295D02*
X159390476Y-111483390D01*
X159390476Y-111483390D02*
X159438095Y-111578628D01*
X159438095Y-111578628D02*
X159485714Y-111626247D01*
X159485714Y-111626247D02*
X159580952Y-111673866D01*
X159580952Y-111673866D02*
X159771428Y-111673866D01*
X159771428Y-111673866D02*
X159866666Y-111626247D01*
X159866666Y-111626247D02*
X159914285Y-111578628D01*
X159914285Y-111578628D02*
X159961904Y-111483390D01*
X160342857Y-111150057D02*
X160390476Y-111102438D01*
X160390476Y-111102438D02*
X160485714Y-111054819D01*
X160485714Y-111054819D02*
X160723809Y-111054819D01*
X160723809Y-111054819D02*
X160819047Y-111102438D01*
X160819047Y-111102438D02*
X160866666Y-111150057D01*
X160866666Y-111150057D02*
X160914285Y-111245295D01*
X160914285Y-111245295D02*
X160914285Y-111340533D01*
X160914285Y-111340533D02*
X160866666Y-111483390D01*
X160866666Y-111483390D02*
X160295238Y-112054819D01*
X160295238Y-112054819D02*
X160914285Y-112054819D01*
X155209524Y-70454819D02*
X155542857Y-71454819D01*
X155542857Y-71454819D02*
X155876190Y-70454819D01*
X156590476Y-71407200D02*
X156495238Y-71454819D01*
X156495238Y-71454819D02*
X156304762Y-71454819D01*
X156304762Y-71454819D02*
X156209524Y-71407200D01*
X156209524Y-71407200D02*
X156161905Y-71311961D01*
X156161905Y-71311961D02*
X156161905Y-70931009D01*
X156161905Y-70931009D02*
X156209524Y-70835771D01*
X156209524Y-70835771D02*
X156304762Y-70788152D01*
X156304762Y-70788152D02*
X156495238Y-70788152D01*
X156495238Y-70788152D02*
X156590476Y-70835771D01*
X156590476Y-70835771D02*
X156638095Y-70931009D01*
X156638095Y-70931009D02*
X156638095Y-71026247D01*
X156638095Y-71026247D02*
X156161905Y-71121485D01*
X157066667Y-71454819D02*
X157066667Y-70788152D01*
X157066667Y-70978628D02*
X157114286Y-70883390D01*
X157114286Y-70883390D02*
X157161905Y-70835771D01*
X157161905Y-70835771D02*
X157257143Y-70788152D01*
X157257143Y-70788152D02*
X157352381Y-70788152D01*
X157638096Y-71407200D02*
X157733334Y-71454819D01*
X157733334Y-71454819D02*
X157923810Y-71454819D01*
X157923810Y-71454819D02*
X158019048Y-71407200D01*
X158019048Y-71407200D02*
X158066667Y-71311961D01*
X158066667Y-71311961D02*
X158066667Y-71264342D01*
X158066667Y-71264342D02*
X158019048Y-71169104D01*
X158019048Y-71169104D02*
X157923810Y-71121485D01*
X157923810Y-71121485D02*
X157780953Y-71121485D01*
X157780953Y-71121485D02*
X157685715Y-71073866D01*
X157685715Y-71073866D02*
X157638096Y-70978628D01*
X157638096Y-70978628D02*
X157638096Y-70931009D01*
X157638096Y-70931009D02*
X157685715Y-70835771D01*
X157685715Y-70835771D02*
X157780953Y-70788152D01*
X157780953Y-70788152D02*
X157923810Y-70788152D01*
X157923810Y-70788152D02*
X158019048Y-70835771D01*
X158495239Y-71454819D02*
X158495239Y-70788152D01*
X158495239Y-70454819D02*
X158447620Y-70502438D01*
X158447620Y-70502438D02*
X158495239Y-70550057D01*
X158495239Y-70550057D02*
X158542858Y-70502438D01*
X158542858Y-70502438D02*
X158495239Y-70454819D01*
X158495239Y-70454819D02*
X158495239Y-70550057D01*
X159114286Y-71454819D02*
X159019048Y-71407200D01*
X159019048Y-71407200D02*
X158971429Y-71359580D01*
X158971429Y-71359580D02*
X158923810Y-71264342D01*
X158923810Y-71264342D02*
X158923810Y-70978628D01*
X158923810Y-70978628D02*
X158971429Y-70883390D01*
X158971429Y-70883390D02*
X159019048Y-70835771D01*
X159019048Y-70835771D02*
X159114286Y-70788152D01*
X159114286Y-70788152D02*
X159257143Y-70788152D01*
X159257143Y-70788152D02*
X159352381Y-70835771D01*
X159352381Y-70835771D02*
X159400000Y-70883390D01*
X159400000Y-70883390D02*
X159447619Y-70978628D01*
X159447619Y-70978628D02*
X159447619Y-71264342D01*
X159447619Y-71264342D02*
X159400000Y-71359580D01*
X159400000Y-71359580D02*
X159352381Y-71407200D01*
X159352381Y-71407200D02*
X159257143Y-71454819D01*
X159257143Y-71454819D02*
X159114286Y-71454819D01*
X159876191Y-70788152D02*
X159876191Y-71454819D01*
X159876191Y-70883390D02*
X159923810Y-70835771D01*
X159923810Y-70835771D02*
X160019048Y-70788152D01*
X160019048Y-70788152D02*
X160161905Y-70788152D01*
X160161905Y-70788152D02*
X160257143Y-70835771D01*
X160257143Y-70835771D02*
X160304762Y-70931009D01*
X160304762Y-70931009D02*
X160304762Y-71454819D01*
X162066667Y-71454819D02*
X161495239Y-71454819D01*
X161780953Y-71454819D02*
X161780953Y-70454819D01*
X161780953Y-70454819D02*
X161685715Y-70597676D01*
X161685715Y-70597676D02*
X161590477Y-70692914D01*
X161590477Y-70692914D02*
X161495239Y-70740533D01*
X162495239Y-71359580D02*
X162542858Y-71407200D01*
X162542858Y-71407200D02*
X162495239Y-71454819D01*
X162495239Y-71454819D02*
X162447620Y-71407200D01*
X162447620Y-71407200D02*
X162495239Y-71359580D01*
X162495239Y-71359580D02*
X162495239Y-71454819D01*
X163161905Y-70454819D02*
X163257143Y-70454819D01*
X163257143Y-70454819D02*
X163352381Y-70502438D01*
X163352381Y-70502438D02*
X163400000Y-70550057D01*
X163400000Y-70550057D02*
X163447619Y-70645295D01*
X163447619Y-70645295D02*
X163495238Y-70835771D01*
X163495238Y-70835771D02*
X163495238Y-71073866D01*
X163495238Y-71073866D02*
X163447619Y-71264342D01*
X163447619Y-71264342D02*
X163400000Y-71359580D01*
X163400000Y-71359580D02*
X163352381Y-71407200D01*
X163352381Y-71407200D02*
X163257143Y-71454819D01*
X163257143Y-71454819D02*
X163161905Y-71454819D01*
X163161905Y-71454819D02*
X163066667Y-71407200D01*
X163066667Y-71407200D02*
X163019048Y-71359580D01*
X163019048Y-71359580D02*
X162971429Y-71264342D01*
X162971429Y-71264342D02*
X162923810Y-71073866D01*
X162923810Y-71073866D02*
X162923810Y-70835771D01*
X162923810Y-70835771D02*
X162971429Y-70645295D01*
X162971429Y-70645295D02*
X163019048Y-70550057D01*
X163019048Y-70550057D02*
X163066667Y-70502438D01*
X163066667Y-70502438D02*
X163161905Y-70454819D01*
X179366666Y-114154819D02*
X179366666Y-114869104D01*
X179366666Y-114869104D02*
X179319047Y-115011961D01*
X179319047Y-115011961D02*
X179223809Y-115107200D01*
X179223809Y-115107200D02*
X179080952Y-115154819D01*
X179080952Y-115154819D02*
X178985714Y-115154819D01*
X179747619Y-114154819D02*
X180366666Y-114154819D01*
X180366666Y-114154819D02*
X180033333Y-114535771D01*
X180033333Y-114535771D02*
X180176190Y-114535771D01*
X180176190Y-114535771D02*
X180271428Y-114583390D01*
X180271428Y-114583390D02*
X180319047Y-114631009D01*
X180319047Y-114631009D02*
X180366666Y-114726247D01*
X180366666Y-114726247D02*
X180366666Y-114964342D01*
X180366666Y-114964342D02*
X180319047Y-115059580D01*
X180319047Y-115059580D02*
X180271428Y-115107200D01*
X180271428Y-115107200D02*
X180176190Y-115154819D01*
X180176190Y-115154819D02*
X179890476Y-115154819D01*
X179890476Y-115154819D02*
X179795238Y-115107200D01*
X179795238Y-115107200D02*
X179747619Y-115059580D01*
X175089700Y-103660870D02*
X175089700Y-102518013D01*
X175661128Y-103089441D02*
X174518271Y-103089441D01*
X175089700Y-114660870D02*
X175089700Y-113518013D01*
X110033333Y-101409580D02*
X109985714Y-101457200D01*
X109985714Y-101457200D02*
X109842857Y-101504819D01*
X109842857Y-101504819D02*
X109747619Y-101504819D01*
X109747619Y-101504819D02*
X109604762Y-101457200D01*
X109604762Y-101457200D02*
X109509524Y-101361961D01*
X109509524Y-101361961D02*
X109461905Y-101266723D01*
X109461905Y-101266723D02*
X109414286Y-101076247D01*
X109414286Y-101076247D02*
X109414286Y-100933390D01*
X109414286Y-100933390D02*
X109461905Y-100742914D01*
X109461905Y-100742914D02*
X109509524Y-100647676D01*
X109509524Y-100647676D02*
X109604762Y-100552438D01*
X109604762Y-100552438D02*
X109747619Y-100504819D01*
X109747619Y-100504819D02*
X109842857Y-100504819D01*
X109842857Y-100504819D02*
X109985714Y-100552438D01*
X109985714Y-100552438D02*
X110033333Y-100600057D01*
X110414286Y-100600057D02*
X110461905Y-100552438D01*
X110461905Y-100552438D02*
X110557143Y-100504819D01*
X110557143Y-100504819D02*
X110795238Y-100504819D01*
X110795238Y-100504819D02*
X110890476Y-100552438D01*
X110890476Y-100552438D02*
X110938095Y-100600057D01*
X110938095Y-100600057D02*
X110985714Y-100695295D01*
X110985714Y-100695295D02*
X110985714Y-100790533D01*
X110985714Y-100790533D02*
X110938095Y-100933390D01*
X110938095Y-100933390D02*
X110366667Y-101504819D01*
X110366667Y-101504819D02*
X110985714Y-101504819D01*
X115590476Y-92812295D02*
X115590476Y-93459914D01*
X115590476Y-93459914D02*
X115628571Y-93536104D01*
X115628571Y-93536104D02*
X115666666Y-93574200D01*
X115666666Y-93574200D02*
X115742857Y-93612295D01*
X115742857Y-93612295D02*
X115895238Y-93612295D01*
X115895238Y-93612295D02*
X115971428Y-93574200D01*
X115971428Y-93574200D02*
X116009523Y-93536104D01*
X116009523Y-93536104D02*
X116047619Y-93459914D01*
X116047619Y-93459914D02*
X116047619Y-92812295D01*
X116847618Y-93612295D02*
X116390475Y-93612295D01*
X116619047Y-93612295D02*
X116619047Y-92812295D01*
X116619047Y-92812295D02*
X116542856Y-92926580D01*
X116542856Y-92926580D02*
X116466666Y-93002771D01*
X116466666Y-93002771D02*
X116390475Y-93040866D01*
X175066666Y-80954819D02*
X175066666Y-81669104D01*
X175066666Y-81669104D02*
X175019047Y-81811961D01*
X175019047Y-81811961D02*
X174923809Y-81907200D01*
X174923809Y-81907200D02*
X174780952Y-81954819D01*
X174780952Y-81954819D02*
X174685714Y-81954819D01*
X175971428Y-81288152D02*
X175971428Y-81954819D01*
X175733333Y-80907200D02*
X175495238Y-81621485D01*
X175495238Y-81621485D02*
X176114285Y-81621485D01*
X103866666Y-94412759D02*
X103533333Y-94412759D01*
X103533333Y-94936569D02*
X103533333Y-93936569D01*
X103533333Y-93936569D02*
X104009523Y-93936569D01*
X104295238Y-93936569D02*
X104914285Y-93936569D01*
X104914285Y-93936569D02*
X104580952Y-94317521D01*
X104580952Y-94317521D02*
X104723809Y-94317521D01*
X104723809Y-94317521D02*
X104819047Y-94365140D01*
X104819047Y-94365140D02*
X104866666Y-94412759D01*
X104866666Y-94412759D02*
X104914285Y-94507997D01*
X104914285Y-94507997D02*
X104914285Y-94746092D01*
X104914285Y-94746092D02*
X104866666Y-94841330D01*
X104866666Y-94841330D02*
X104819047Y-94888950D01*
X104819047Y-94888950D02*
X104723809Y-94936569D01*
X104723809Y-94936569D02*
X104438095Y-94936569D01*
X104438095Y-94936569D02*
X104342857Y-94888950D01*
X104342857Y-94888950D02*
X104295238Y-94841330D01*
X122833333Y-82941569D02*
X122357143Y-82941569D01*
X122357143Y-82941569D02*
X122357143Y-81941569D01*
X123690476Y-82941569D02*
X123119048Y-82941569D01*
X123404762Y-82941569D02*
X123404762Y-81941569D01*
X123404762Y-81941569D02*
X123309524Y-82084426D01*
X123309524Y-82084426D02*
X123214286Y-82179664D01*
X123214286Y-82179664D02*
X123119048Y-82227283D01*
X149141666Y-73220451D02*
X148808333Y-73220451D01*
X148808333Y-73744261D02*
X148808333Y-72744261D01*
X148808333Y-72744261D02*
X149284523Y-72744261D01*
X150189285Y-73744261D02*
X149617857Y-73744261D01*
X149903571Y-73744261D02*
X149903571Y-72744261D01*
X149903571Y-72744261D02*
X149808333Y-72887118D01*
X149808333Y-72887118D02*
X149713095Y-72982356D01*
X149713095Y-72982356D02*
X149617857Y-73029975D01*
X94066666Y-106654819D02*
X94066666Y-107369104D01*
X94066666Y-107369104D02*
X94019047Y-107511961D01*
X94019047Y-107511961D02*
X93923809Y-107607200D01*
X93923809Y-107607200D02*
X93780952Y-107654819D01*
X93780952Y-107654819D02*
X93685714Y-107654819D01*
X94495238Y-106750057D02*
X94542857Y-106702438D01*
X94542857Y-106702438D02*
X94638095Y-106654819D01*
X94638095Y-106654819D02*
X94876190Y-106654819D01*
X94876190Y-106654819D02*
X94971428Y-106702438D01*
X94971428Y-106702438D02*
X95019047Y-106750057D01*
X95019047Y-106750057D02*
X95066666Y-106845295D01*
X95066666Y-106845295D02*
X95066666Y-106940533D01*
X95066666Y-106940533D02*
X95019047Y-107083390D01*
X95019047Y-107083390D02*
X94447619Y-107654819D01*
X94447619Y-107654819D02*
X95066666Y-107654819D01*
X99189700Y-106960870D02*
X99189700Y-105818013D01*
X99761128Y-106389441D02*
X98618271Y-106389441D01*
X99189700Y-95960870D02*
X99189700Y-94818013D01*
X172308333Y-84365772D02*
X172260714Y-84413392D01*
X172260714Y-84413392D02*
X172117857Y-84461011D01*
X172117857Y-84461011D02*
X172022619Y-84461011D01*
X172022619Y-84461011D02*
X171879762Y-84413392D01*
X171879762Y-84413392D02*
X171784524Y-84318153D01*
X171784524Y-84318153D02*
X171736905Y-84222915D01*
X171736905Y-84222915D02*
X171689286Y-84032439D01*
X171689286Y-84032439D02*
X171689286Y-83889582D01*
X171689286Y-83889582D02*
X171736905Y-83699106D01*
X171736905Y-83699106D02*
X171784524Y-83603868D01*
X171784524Y-83603868D02*
X171879762Y-83508630D01*
X171879762Y-83508630D02*
X172022619Y-83461011D01*
X172022619Y-83461011D02*
X172117857Y-83461011D01*
X172117857Y-83461011D02*
X172260714Y-83508630D01*
X172260714Y-83508630D02*
X172308333Y-83556249D01*
X173165476Y-83461011D02*
X172975000Y-83461011D01*
X172975000Y-83461011D02*
X172879762Y-83508630D01*
X172879762Y-83508630D02*
X172832143Y-83556249D01*
X172832143Y-83556249D02*
X172736905Y-83699106D01*
X172736905Y-83699106D02*
X172689286Y-83889582D01*
X172689286Y-83889582D02*
X172689286Y-84270534D01*
X172689286Y-84270534D02*
X172736905Y-84365772D01*
X172736905Y-84365772D02*
X172784524Y-84413392D01*
X172784524Y-84413392D02*
X172879762Y-84461011D01*
X172879762Y-84461011D02*
X173070238Y-84461011D01*
X173070238Y-84461011D02*
X173165476Y-84413392D01*
X173165476Y-84413392D02*
X173213095Y-84365772D01*
X173213095Y-84365772D02*
X173260714Y-84270534D01*
X173260714Y-84270534D02*
X173260714Y-84032439D01*
X173260714Y-84032439D02*
X173213095Y-83937201D01*
X173213095Y-83937201D02*
X173165476Y-83889582D01*
X173165476Y-83889582D02*
X173070238Y-83841963D01*
X173070238Y-83841963D02*
X172879762Y-83841963D01*
X172879762Y-83841963D02*
X172784524Y-83889582D01*
X172784524Y-83889582D02*
X172736905Y-83937201D01*
X172736905Y-83937201D02*
X172689286Y-84032439D01*
X127033333Y-100809580D02*
X126985714Y-100857200D01*
X126985714Y-100857200D02*
X126842857Y-100904819D01*
X126842857Y-100904819D02*
X126747619Y-100904819D01*
X126747619Y-100904819D02*
X126604762Y-100857200D01*
X126604762Y-100857200D02*
X126509524Y-100761961D01*
X126509524Y-100761961D02*
X126461905Y-100666723D01*
X126461905Y-100666723D02*
X126414286Y-100476247D01*
X126414286Y-100476247D02*
X126414286Y-100333390D01*
X126414286Y-100333390D02*
X126461905Y-100142914D01*
X126461905Y-100142914D02*
X126509524Y-100047676D01*
X126509524Y-100047676D02*
X126604762Y-99952438D01*
X126604762Y-99952438D02*
X126747619Y-99904819D01*
X126747619Y-99904819D02*
X126842857Y-99904819D01*
X126842857Y-99904819D02*
X126985714Y-99952438D01*
X126985714Y-99952438D02*
X127033333Y-100000057D01*
X127890476Y-100238152D02*
X127890476Y-100904819D01*
X127652381Y-99857200D02*
X127414286Y-100571485D01*
X127414286Y-100571485D02*
X128033333Y-100571485D01*
X117233333Y-96609580D02*
X117185714Y-96657200D01*
X117185714Y-96657200D02*
X117042857Y-96704819D01*
X117042857Y-96704819D02*
X116947619Y-96704819D01*
X116947619Y-96704819D02*
X116804762Y-96657200D01*
X116804762Y-96657200D02*
X116709524Y-96561961D01*
X116709524Y-96561961D02*
X116661905Y-96466723D01*
X116661905Y-96466723D02*
X116614286Y-96276247D01*
X116614286Y-96276247D02*
X116614286Y-96133390D01*
X116614286Y-96133390D02*
X116661905Y-95942914D01*
X116661905Y-95942914D02*
X116709524Y-95847676D01*
X116709524Y-95847676D02*
X116804762Y-95752438D01*
X116804762Y-95752438D02*
X116947619Y-95704819D01*
X116947619Y-95704819D02*
X117042857Y-95704819D01*
X117042857Y-95704819D02*
X117185714Y-95752438D01*
X117185714Y-95752438D02*
X117233333Y-95800057D01*
X118185714Y-96704819D02*
X117614286Y-96704819D01*
X117900000Y-96704819D02*
X117900000Y-95704819D01*
X117900000Y-95704819D02*
X117804762Y-95847676D01*
X117804762Y-95847676D02*
X117709524Y-95942914D01*
X117709524Y-95942914D02*
X117614286Y-95990533D01*
X94066666Y-75554819D02*
X94066666Y-76269104D01*
X94066666Y-76269104D02*
X94019047Y-76411961D01*
X94019047Y-76411961D02*
X93923809Y-76507200D01*
X93923809Y-76507200D02*
X93780952Y-76554819D01*
X93780952Y-76554819D02*
X93685714Y-76554819D01*
X95066666Y-76554819D02*
X94495238Y-76554819D01*
X94780952Y-76554819D02*
X94780952Y-75554819D01*
X94780952Y-75554819D02*
X94685714Y-75697676D01*
X94685714Y-75697676D02*
X94590476Y-75792914D01*
X94590476Y-75792914D02*
X94495238Y-75840533D01*
X99189700Y-77260870D02*
X99189700Y-76118013D01*
X99189700Y-88260870D02*
X99189700Y-87118013D01*
X99761128Y-87689441D02*
X98618271Y-87689441D01*
X144241666Y-111255451D02*
X143908333Y-111255451D01*
X143908333Y-111779261D02*
X143908333Y-110779261D01*
X143908333Y-110779261D02*
X144384523Y-110779261D01*
X144717857Y-110874499D02*
X144765476Y-110826880D01*
X144765476Y-110826880D02*
X144860714Y-110779261D01*
X144860714Y-110779261D02*
X145098809Y-110779261D01*
X145098809Y-110779261D02*
X145194047Y-110826880D01*
X145194047Y-110826880D02*
X145241666Y-110874499D01*
X145241666Y-110874499D02*
X145289285Y-110969737D01*
X145289285Y-110969737D02*
X145289285Y-111064975D01*
X145289285Y-111064975D02*
X145241666Y-111207832D01*
X145241666Y-111207832D02*
X144670238Y-111779261D01*
X144670238Y-111779261D02*
X145289285Y-111779261D01*
X111033333Y-88796930D02*
X110985714Y-88844550D01*
X110985714Y-88844550D02*
X110842857Y-88892169D01*
X110842857Y-88892169D02*
X110747619Y-88892169D01*
X110747619Y-88892169D02*
X110604762Y-88844550D01*
X110604762Y-88844550D02*
X110509524Y-88749311D01*
X110509524Y-88749311D02*
X110461905Y-88654073D01*
X110461905Y-88654073D02*
X110414286Y-88463597D01*
X110414286Y-88463597D02*
X110414286Y-88320740D01*
X110414286Y-88320740D02*
X110461905Y-88130264D01*
X110461905Y-88130264D02*
X110509524Y-88035026D01*
X110509524Y-88035026D02*
X110604762Y-87939788D01*
X110604762Y-87939788D02*
X110747619Y-87892169D01*
X110747619Y-87892169D02*
X110842857Y-87892169D01*
X110842857Y-87892169D02*
X110985714Y-87939788D01*
X110985714Y-87939788D02*
X111033333Y-87987407D01*
X111366667Y-87892169D02*
X111985714Y-87892169D01*
X111985714Y-87892169D02*
X111652381Y-88273121D01*
X111652381Y-88273121D02*
X111795238Y-88273121D01*
X111795238Y-88273121D02*
X111890476Y-88320740D01*
X111890476Y-88320740D02*
X111938095Y-88368359D01*
X111938095Y-88368359D02*
X111985714Y-88463597D01*
X111985714Y-88463597D02*
X111985714Y-88701692D01*
X111985714Y-88701692D02*
X111938095Y-88796930D01*
X111938095Y-88796930D02*
X111890476Y-88844550D01*
X111890476Y-88844550D02*
X111795238Y-88892169D01*
X111795238Y-88892169D02*
X111509524Y-88892169D01*
X111509524Y-88892169D02*
X111414286Y-88844550D01*
X111414286Y-88844550D02*
X111366667Y-88796930D01*
X127033333Y-97809580D02*
X126985714Y-97857200D01*
X126985714Y-97857200D02*
X126842857Y-97904819D01*
X126842857Y-97904819D02*
X126747619Y-97904819D01*
X126747619Y-97904819D02*
X126604762Y-97857200D01*
X126604762Y-97857200D02*
X126509524Y-97761961D01*
X126509524Y-97761961D02*
X126461905Y-97666723D01*
X126461905Y-97666723D02*
X126414286Y-97476247D01*
X126414286Y-97476247D02*
X126414286Y-97333390D01*
X126414286Y-97333390D02*
X126461905Y-97142914D01*
X126461905Y-97142914D02*
X126509524Y-97047676D01*
X126509524Y-97047676D02*
X126604762Y-96952438D01*
X126604762Y-96952438D02*
X126747619Y-96904819D01*
X126747619Y-96904819D02*
X126842857Y-96904819D01*
X126842857Y-96904819D02*
X126985714Y-96952438D01*
X126985714Y-96952438D02*
X127033333Y-97000057D01*
X127938095Y-96904819D02*
X127461905Y-96904819D01*
X127461905Y-96904819D02*
X127414286Y-97381009D01*
X127414286Y-97381009D02*
X127461905Y-97333390D01*
X127461905Y-97333390D02*
X127557143Y-97285771D01*
X127557143Y-97285771D02*
X127795238Y-97285771D01*
X127795238Y-97285771D02*
X127890476Y-97333390D01*
X127890476Y-97333390D02*
X127938095Y-97381009D01*
X127938095Y-97381009D02*
X127985714Y-97476247D01*
X127985714Y-97476247D02*
X127985714Y-97714342D01*
X127985714Y-97714342D02*
X127938095Y-97809580D01*
X127938095Y-97809580D02*
X127890476Y-97857200D01*
X127890476Y-97857200D02*
X127795238Y-97904819D01*
X127795238Y-97904819D02*
X127557143Y-97904819D01*
X127557143Y-97904819D02*
X127461905Y-97857200D01*
X127461905Y-97857200D02*
X127414286Y-97809580D01*
%TO.C,J3*%
X178945000Y-103509442D02*
X178945000Y-113669442D01*
X183845000Y-102949442D02*
X183845000Y-103509442D01*
X183845000Y-103509442D02*
X178945000Y-103509442D01*
X183845000Y-113669442D02*
X178945000Y-113669442D01*
X183845000Y-113669442D02*
X183845000Y-114229442D01*
X186105000Y-102949442D02*
X186105000Y-103509442D01*
X186105000Y-113669442D02*
X186105000Y-114229442D01*
X188205000Y-103509442D02*
X186105000Y-103509442D01*
X188205000Y-103509442D02*
X188205000Y-113669442D01*
X188205000Y-113669442D02*
X186105000Y-113669442D01*
X183845000Y-102939442D02*
G75*
G02*
X186105000Y-102939442I1130000J0D01*
G01*
X186105000Y-114239442D02*
G75*
G02*
X183845000Y-114239442I-1130000J0D01*
G01*
%TO.C,C2*%
X113520000Y-99636750D02*
X113980000Y-99636750D01*
X113520000Y-102336750D02*
X113980000Y-102336750D01*
%TO.C,U1*%
X112590000Y-91646750D02*
X114410000Y-91646750D01*
X112590000Y-91696750D02*
X112590000Y-91646750D01*
X112590000Y-94816750D02*
X112590000Y-94766750D01*
X114410000Y-91646750D02*
X114410000Y-91696750D01*
X114410000Y-94766750D02*
X114410000Y-94816750D01*
X114410000Y-94816750D02*
X112590000Y-94816750D01*
X112050000Y-91726750D02*
X111810000Y-91396750D01*
X112290000Y-91396750D01*
X112050000Y-91726750D01*
G36*
X112050000Y-91726750D02*
G01*
X111810000Y-91396750D01*
X112290000Y-91396750D01*
X112050000Y-91726750D01*
G37*
%TO.C,J4*%
X176445000Y-69609442D02*
X176445000Y-71069442D01*
X176445000Y-71069442D02*
X180945000Y-71069442D01*
X176445000Y-80809442D02*
X180945000Y-80809442D01*
X176445000Y-82269442D02*
X176445000Y-80809442D01*
X178375000Y-79389442D02*
X178975000Y-79689442D01*
X178375000Y-79989442D02*
X178375000Y-79389442D01*
X178975000Y-79689442D02*
X178375000Y-79989442D01*
X182075000Y-71939442D02*
X182075000Y-72439442D01*
X182075000Y-72439442D02*
X187575000Y-72439442D01*
X182075000Y-74439442D02*
X182075000Y-74939442D01*
X182075000Y-74939442D02*
X187575000Y-74939442D01*
X182075000Y-76939442D02*
X182075000Y-77439442D01*
X182075000Y-77439442D02*
X187575000Y-77439442D01*
X182075000Y-79439442D02*
X182075000Y-79939442D01*
X182075000Y-79939442D02*
X187575000Y-79939442D01*
X187575000Y-71939442D02*
X182075000Y-71939442D01*
X187575000Y-72439442D02*
X187575000Y-71939442D01*
X187575000Y-74439442D02*
X182075000Y-74439442D01*
X187575000Y-74939442D02*
X187575000Y-74439442D01*
X187575000Y-76939442D02*
X182075000Y-76939442D01*
X187575000Y-77439442D02*
X187575000Y-76939442D01*
X187575000Y-79439442D02*
X182075000Y-79439442D01*
X187575000Y-79939442D02*
X187575000Y-79439442D01*
X188185000Y-82269442D02*
X176445000Y-82269442D01*
X188205000Y-69609442D02*
X176445000Y-69609442D01*
X188205000Y-69609442D02*
X188205000Y-82269442D01*
D11*
%TO.C,F3*%
X105579100Y-90165250D02*
X105579100Y-98928250D01*
X105579100Y-90165250D02*
X109820900Y-90165250D01*
X105579100Y-98928250D02*
X109820900Y-98928250D01*
X109820900Y-90165250D02*
X109820900Y-98928250D01*
D10*
%TO.C,L1*%
X117360000Y-93876750D02*
X117360000Y-90746750D01*
X117360000Y-93876750D02*
X128640000Y-93876750D01*
X123005000Y-83596750D02*
X128640000Y-83596750D01*
X128640000Y-83596750D02*
X128640000Y-86726750D01*
X128640000Y-93876750D02*
X128640000Y-90746750D01*
%TO.C,MCB1*%
X137200000Y-109264442D02*
X85640000Y-109264442D01*
X85640000Y-112024442D01*
X137200000Y-112024442D01*
X137200000Y-109264442D01*
X139740000Y-71164442D02*
X88180000Y-71164442D01*
X88180000Y-73924442D01*
X139740000Y-73924442D01*
X139740000Y-71164442D01*
X140420000Y-69464442D02*
X85160000Y-69464442D01*
X85160000Y-113724442D01*
X140420000Y-113724442D01*
X140420000Y-69464442D01*
%TO.C,MDB1*%
X148975000Y-110309442D02*
X169535000Y-110309442D01*
X169535000Y-77049442D01*
X148975000Y-77049442D01*
X148975000Y-110309442D01*
%TO.C,F1*%
X141165000Y-69674442D02*
X141165000Y-89774442D01*
X141165000Y-89774442D02*
X148185000Y-89774442D01*
X148185000Y-69674442D02*
X141165000Y-69674442D01*
X148185000Y-89774442D02*
X148185000Y-69674442D01*
%TO.C,J2*%
X85845000Y-95809442D02*
X87945000Y-95809442D01*
X85845000Y-105969442D02*
X85845000Y-95809442D01*
X85845000Y-105969442D02*
X87945000Y-105969442D01*
X87945000Y-95809442D02*
X87945000Y-95249442D01*
X87945000Y-106529442D02*
X87945000Y-105969442D01*
X90205000Y-95809442D02*
X90205000Y-95249442D01*
X90205000Y-95809442D02*
X95105000Y-95809442D01*
X90205000Y-105969442D02*
X95105000Y-105969442D01*
X90205000Y-106529442D02*
X90205000Y-105969442D01*
X95105000Y-105969442D02*
X95105000Y-95809442D01*
X87945000Y-95239442D02*
G75*
G02*
X90205000Y-95239442I1130000J0D01*
G01*
X90205000Y-106539442D02*
G75*
G02*
X87945000Y-106539442I-1130000J0D01*
G01*
D11*
%TO.C,C6*%
X186819632Y-84611560D02*
X185921607Y-85509585D01*
X186819632Y-85509585D02*
X185921607Y-84611560D01*
X188506300Y-92056192D02*
G75*
G02*
X170243700Y-92056192I-9131300J0D01*
G01*
X170243700Y-92056192D02*
G75*
G02*
X188506300Y-92056192I9131300J0D01*
G01*
D10*
%TO.C,C4*%
X124280000Y-98986750D02*
X122720000Y-98986750D01*
X124280000Y-101486750D02*
X122720000Y-101486750D01*
%TO.C,C1*%
X113520000Y-95886750D02*
X113980000Y-95886750D01*
X113520000Y-98586750D02*
X113980000Y-98586750D01*
%TO.C,J1*%
X85845000Y-77109442D02*
X87945000Y-77109442D01*
X85845000Y-87269442D02*
X85845000Y-77109442D01*
X85845000Y-87269442D02*
X87945000Y-87269442D01*
X87945000Y-77109442D02*
X87945000Y-76549442D01*
X87945000Y-87829442D02*
X87945000Y-87269442D01*
X90205000Y-77109442D02*
X90205000Y-76549442D01*
X90205000Y-77109442D02*
X95105000Y-77109442D01*
X90205000Y-87269442D02*
X95105000Y-87269442D01*
X90205000Y-87829442D02*
X90205000Y-87269442D01*
X95105000Y-87269442D02*
X95105000Y-77109442D01*
X87945000Y-76539442D02*
G75*
G02*
X90205000Y-76539442I1130000J0D01*
G01*
X90205000Y-87839442D02*
G75*
G02*
X87945000Y-87839442I-1130000J0D01*
G01*
%TO.C,F2*%
X141165000Y-90374442D02*
X141165000Y-110474442D01*
X141165000Y-110474442D02*
X148185000Y-110474442D01*
X148185000Y-90374442D02*
X141165000Y-90374442D01*
X148185000Y-110474442D02*
X148185000Y-90374442D01*
D11*
%TO.C,C3*%
X112471300Y-87754300D02*
X112471300Y-89120400D01*
X114528700Y-89120400D02*
X114528700Y-87754300D01*
D10*
%TO.C,C5*%
X124280000Y-95236750D02*
X122720000Y-95236750D01*
X124280000Y-97736750D02*
X122720000Y-97736750D01*
%TD*%
M02*
