ISO-10303-21;
HEADER;
FILE_DESCRIPTION (( 'STEP AP214' ),
    '1' );
FILE_NAME ('17D0CF71-576E-49CF-9862-BEA1B9716429.STEP',
    '2022-10-12T21:27:12',
    ( '' ),
    ( '' ),
    'SwSTEP 2.0',
    'SolidWorks 2022',
    '' );
FILE_SCHEMA (( 'AUTOMOTIVE_DESIGN' ));
ENDSEC;

DATA;
#1 = ORIENTED_EDGE ( 'NONE', *, *, #450, .T. ) ;
#2 = FACE_OUTER_BOUND ( 'NONE', #365, .T. ) ;
#3 = EDGE_LOOP ( 'NONE', ( #391, #464 ) ) ;
#4 = DIRECTION ( 'NONE',  ( -1.000000000000000000, 0.0000000000000000000, -0.0000000000000000000 ) ) ;
#5 = DIRECTION ( 'NONE',  ( -1.000000000000000000, -0.0000000000000000000, -0.0000000000000000000 ) ) ;
#6 = DIRECTION ( 'NONE',  ( 0.0000000000000000000, 0.0000000000000000000, 1.000000000000000000 ) ) ;
#7 = SURFACE_STYLE_FILL_AREA ( #327 ) ;
#8 = ADVANCED_FACE ( 'NONE', ( #152 ), #315, .F. ) ;
#9 = CARTESIAN_POINT ( 'NONE',  ( 0.0000000000000000000, 3.735172737399509145E-18, -0.03050000000000067241 ) ) ;
#10 = DIRECTION ( 'NONE',  ( -1.000000000000000000, -0.0000000000000000000, -0.0000000000000000000 ) ) ;
#11 = FACE_OUTER_BOUND ( 'NONE', #143, .T. ) ;
#12 = DIRECTION ( 'NONE',  ( -0.7071067811865668906, 8.659560562354696200E-17, -0.7071067811865281438 ) ) ;
#13 = EDGE_CURVE ( 'NONE', #427, #466, #93, .T. ) ;
#14 = CARTESIAN_POINT ( 'NONE',  ( 0.04000000000000066697, 0.0000000000000000000, 0.0000000000000000000 ) ) ;
#15 = CARTESIAN_POINT ( 'NONE',  ( -6.829619984160658046E-17, 0.0000000000000000000, 0.0000000000000000000 ) ) ;
#16 = AXIS2_PLACEMENT_3D ( 'NONE', #274, #439, #79 ) ;
#17 = MECHANICAL_DESIGN_GEOMETRIC_PRESENTATION_REPRESENTATION (  '', ( #47 ), #347 ) ;
#18 = PRODUCT_CONTEXT ( 'NONE', #467, 'mechanical' ) ;
#19 = DIRECTION ( 'NONE',  ( 0.0000000000000000000, 0.0000000000000000000, 1.000000000000000000 ) ) ;
#20 = DIRECTION ( 'NONE',  ( -1.000000000000000000, -0.0000000000000000000, -0.0000000000000000000 ) ) ;
#21 = EDGE_CURVE ( 'NONE', #479, #273, #32, .T. ) ;
#22 = LENGTH_MEASURE_WITH_UNIT ( LENGTH_MEASURE( 0.02539999999999999897 ), #422 );
#23 = LINE ( 'NONE', #174, #140 ) ;
#24 = SURFACE_STYLE_FILL_AREA ( #304 ) ;
#25 = DIRECTION ( 'NONE',  ( 0.0000000000000000000, 0.0000000000000000000, 1.000000000000000000 ) ) ;
#26 = EDGE_LOOP ( 'NONE', ( #194, #230, #280, #299 ) ) ;
#27 = VECTOR ( 'NONE', #449, 39.37007874015748143 ) ;
#28 = EDGE_LOOP ( 'NONE', ( #41, #433, #261, #126 ) ) ;
#29 = ORIENTED_EDGE ( 'NONE', *, *, #454, .T. ) ;
#30 =( CONVERSION_BASED_UNIT ( 'INCH', #269 ) LENGTH_UNIT ( ) NAMED_UNIT ( #121 ) );
#31 = CARTESIAN_POINT ( 'NONE',  ( 0.006928203230274760163, 0.0000000000000000000, 0.02550000000000004347 ) ) ;
#32 = CIRCLE ( 'NONE', #81, 0.009500000000001087436 ) ;
#33 = PRESENTATION_LAYER_ASSIGNMENT (  '', '', ( #213 ) ) ;
#34 = EDGE_LOOP ( 'NONE', ( #78, #382, #397, #218 ) ) ;
#35 = EDGE_LOOP ( 'NONE', ( #358, #82 ) ) ;
#36 = EDGE_LOOP ( 'NONE', ( #76, #313 ) ) ;
#37 = ORIENTED_EDGE ( 'NONE', *, *, #222, .T. ) ;
#38 = CARTESIAN_POINT ( 'NONE',  ( 0.0000000000000000000, 3.122849337825756089E-18, -0.02550000000000004347 ) ) ;
#39 = AXIS2_PLACEMENT_3D ( 'NONE', #350, #224, #228 ) ;
#40 = DIMENSIONAL_EXPONENTS ( 1.000000000000000000, 0.0000000000000000000, 0.0000000000000000000, 0.0000000000000000000, 0.0000000000000000000, 0.0000000000000000000, 0.0000000000000000000 ) ;
#41 = ORIENTED_EDGE ( 'NONE', *, *, #13, .T. ) ;
#42 = CARTESIAN_POINT ( 'NONE',  ( 0.0000000000000000000, 0.0000000000000000000, 0.02550000000000004347 ) ) ;
#43 = ORIENTED_EDGE ( 'NONE', *, *, #257, .F. ) ;
#44 = DIRECTION ( 'NONE',  ( 0.0000000000000000000, 0.0000000000000000000, 1.000000000000000000 ) ) ;
#45 = LINE ( 'NONE', #53, #139 ) ;
#46 = DIRECTION ( 'NONE',  ( 0.0000000000000000000, 0.0000000000000000000, 1.000000000000000000 ) ) ;
#47 = STYLED_ITEM ( 'NONE', ( #252 ), #162 ) ;
#48 = EDGE_CURVE ( 'NONE', #466, #232, #485, .T. ) ;
#49 = SURFACE_SIDE_STYLE ('',( #7 ) ) ;
#50 = CARTESIAN_POINT ( 'NONE',  ( -6.829619984160658046E-17, 0.0000000000000000000, 0.0000000000000000000 ) ) ;
#51 = DIRECTION ( 'NONE',  ( -1.000000000000000000, -0.0000000000000000000, -0.0000000000000000000 ) ) ;
#52 =( CONVERSION_BASED_UNIT ( 'INCH', #374 ) LENGTH_UNIT ( ) NAMED_UNIT ( #157 ) );
#53 = CARTESIAN_POINT ( 'NONE',  ( 0.2499999999999998057, 0.0000000000000000000, 0.02550000000000004347 ) ) ;
#54 = CARTESIAN_POINT ( 'NONE',  ( 0.5369999999999998108, 0.0000000000000000000, 0.0000000000000000000 ) ) ;
#55 = EDGE_CURVE ( 'NONE', #509, #394, #238, .T. ) ;
#56 = CIRCLE ( 'NONE', #125, 0.02550000000000004347 ) ;
#57 = VECTOR ( 'NONE', #311, 39.37007874015748143 ) ;
#58 = PRODUCT_DEFINITION_FORMATION_WITH_SPECIFIED_SOURCE ( 'ANY', '', #341, .NOT_KNOWN. ) ;
#59 = DIRECTION ( 'NONE',  ( -1.000000000000000000, -0.0000000000000000000, -0.0000000000000000000 ) ) ;
#60 = CARTESIAN_POINT ( 'NONE',  ( 0.3499999999999998113, 3.735172737399509145E-18, -0.03050000000000067241 ) ) ;
#61 = LINE ( 'NONE', #393, #231 ) ;
#62 = ORIENTED_EDGE ( 'NONE', *, *, #257, .T. ) ;
#63 = EDGE_CURVE ( 'NONE', #321, #236, #56, .T. ) ;
#64 = DIRECTION ( 'NONE',  ( -1.000000000000000000, -0.0000000000000000000, -0.0000000000000000000 ) ) ;
#65 = EDGE_LOOP ( 'NONE', ( #122, #278, #317 ) ) ;
#66 = AXIS2_PLACEMENT_3D ( 'NONE', #371, #248, #415 ) ;
#67 = VECTOR ( 'NONE', #281, 39.37007874015748143 ) ;
#68 = EDGE_LOOP ( 'NONE', ( #275, #37, #270, #475 ) ) ;
#69 = DIRECTION ( 'NONE',  ( 0.0000000000000000000, 0.0000000000000000000, 1.000000000000000000 ) ) ;
#70 = CARTESIAN_POINT ( 'NONE',  ( 0.0000000000000000000, 0.0000000000000000000, 0.01950000000000015957 ) ) ;
#71 = CARTESIAN_POINT ( 'NONE',  ( -6.829619984160658046E-17, 3.612708057484698599E-18, -0.02950000000000005396 ) ) ;
#72 = ORIENTED_EDGE ( 'NONE', *, *, #344, .T. ) ;
#73 = AXIS2_PLACEMENT_3D ( 'NONE', #442, #401, #205 ) ;
#74 = MECHANICAL_DESIGN_GEOMETRIC_PRESENTATION_REPRESENTATION (  '', ( #213 ), #505 ) ;
#75 = EDGE_LOOP ( 'NONE', ( #200, #102, #361, #119 ) ) ;
#76 = ORIENTED_EDGE ( 'NONE', *, *, #105, .F. ) ;
#77 = EDGE_CURVE ( 'NONE', #435, #512, #189, .T. ) ;
#78 = ORIENTED_EDGE ( 'NONE', *, *, #77, .T. ) ;
#79 = DIRECTION ( 'NONE',  ( -0.0000000000000000000, 0.0000000000000000000, 1.000000000000000000 ) ) ;
#80 = CARTESIAN_POINT ( 'NONE',  ( 0.5270000000000001350, 0.0000000000000000000, 0.0000000000000000000 ) ) ;
#81 = AXIS2_PLACEMENT_3D ( 'NONE', #253, #332, #19 ) ;
#82 = ORIENTED_EDGE ( 'NONE', *, *, #21, .F. ) ;
#83 = LINE ( 'NONE', #70, #67 ) ;
#84 = VECTOR ( 'NONE', #12, 39.37007874015748143 ) ;
#85 = AXIS2_PLACEMENT_3D ( 'NONE', #376, #459, #169 ) ;
#86 = ORIENTED_EDGE ( 'NONE', *, *, #481, .T. ) ;
#87 = FACE_OUTER_BOUND ( 'NONE', #34, .T. ) ;
#88 = CARTESIAN_POINT ( 'NONE',  ( 0.5369999999999998108, 0.0000000000000000000, 0.0000000000000000000 ) ) ;
#89 = CARTESIAN_POINT ( 'NONE',  ( 0.5370000000000000329, 0.0000000000000000000, 0.0000000000000000000 ) ) ;
#90 = ADVANCED_FACE ( 'NONE', ( #212 ), #386, .T. ) ;
#91 = CARTESIAN_POINT ( 'NONE',  ( -6.829619984160658046E-17, 3.612708057484698599E-18, -0.02950000000000005396 ) ) ;
#92 = AXIS2_PLACEMENT_3D ( 'NONE', #293, #285, #456 ) ;
#93 = CIRCLE ( 'NONE', #73, 0.03050000000000067241 ) ;
#94 = AXIS2_PLACEMENT_3D ( 'NONE', #277, #112, #148 ) ;
#95 = DIRECTION ( 'NONE',  ( -1.000000000000000000, -0.0000000000000000000, -0.0000000000000000000 ) ) ;
#96 = LINE ( 'NONE', #373, #84 ) ;
#97 = FACE_OUTER_BOUND ( 'NONE', #357, .T. ) ;
#98 = CARTESIAN_POINT ( 'NONE',  ( 0.04000000000000066697, 0.0000000000000000000, 0.03050000000000067241 ) ) ;
#99 = AXIS2_PLACEMENT_3D ( 'NONE', #88, #411, #166 ) ;
#100 = AXIS2_PLACEMENT_3D ( 'NONE', #381, #426, #339 ) ;
#101 = DIRECTION ( 'NONE',  ( -1.000000000000000000, -0.0000000000000000000, -0.0000000000000000000 ) ) ;
#102 = ORIENTED_EDGE ( 'NONE', *, *, #21, .T. ) ;
#103 = DIRECTION ( 'NONE',  ( -1.000000000000000000, -0.0000000000000000000, -0.0000000000000000000 ) ) ;
#104 = ORIENTED_EDGE ( 'NONE', *, *, #77, .F. ) ;
#105 = EDGE_CURVE ( 'NONE', #303, #146, #413, .T. ) ;
#106 = CARTESIAN_POINT ( 'NONE',  ( 0.0000000000000000000, 0.0000000000000000000, 0.0000000000000000000 ) ) ;
#107 = DIRECTION ( 'NONE',  ( 0.0000000000000000000, 0.0000000000000000000, 1.000000000000000000 ) ) ;
#108 = ORIENTED_EDGE ( 'NONE', *, *, #349, .T. ) ;
#109 = CIRCLE ( 'NONE', #94, 0.02550000000000004347 ) ;
#110 =( NAMED_UNIT ( * ) SI_UNIT ( $, .STERADIAN. ) SOLID_ANGLE_UNIT ( ) );
#111 = VERTEX_POINT ( 'NONE', #372 ) ;
#112 = DIRECTION ( 'NONE',  ( -1.000000000000000000, -0.0000000000000000000, -0.0000000000000000000 ) ) ;
#113 = PRODUCT_DEFINITION_SHAPE ( 'NONE', 'NONE',  #235 ) ;
#114 = ORIENTED_EDGE ( 'NONE', *, *, #135, .T. ) ;
#115 = CARTESIAN_POINT ( 'NONE',  ( 0.3499999999999998113, 2.388061258337358503E-18, -0.01950000000000015957 ) ) ;
#116 = EDGE_LOOP ( 'NONE', ( #223, #29, #104, #319 ) ) ;
#117 = CLOSED_SHELL ( 'NONE', ( #443, #251, #395, #202, #425, #368, #356, #149, #289, #191, #264, #441, #120, #90, #312, #8, #131, #153 ) ) ;
#118 = CIRCLE ( 'NONE', #414, 0.01950000000000015957 ) ;
#119 = ORIENTED_EDGE ( 'NONE', *, *, #294, .F. ) ;
#120 = ADVANCED_FACE ( 'NONE', ( #328 ), #334, .T. ) ;
#121 = DIMENSIONAL_EXPONENTS ( 1.000000000000000000, 0.0000000000000000000, 0.0000000000000000000, 0.0000000000000000000, 0.0000000000000000000, 0.0000000000000000000, 0.0000000000000000000 ) ;
#122 = ORIENTED_EDGE ( 'NONE', *, *, #135, .F. ) ;
#123 = VERTEX_POINT ( 'NONE', #132 ) ;
#124 = LINE ( 'NONE', #201, #57 ) ;
#125 = AXIS2_PLACEMENT_3D ( 'NONE', #458, #417, #337 ) ;
#126 = ORIENTED_EDGE ( 'NONE', *, *, #336, .F. ) ;
#127 = CARTESIAN_POINT ( 'NONE',  ( 0.2499999999999998057, 3.122849337825756089E-18, -0.02550000000000004347 ) ) ;
#128 = CIRCLE ( 'NONE', #420, 0.02550000000000004347 ) ;
#129 = DIRECTION ( 'NONE',  ( 0.0000000000000000000, 0.0000000000000000000, 1.000000000000000000 ) ) ;
#130 = CARTESIAN_POINT ( 'NONE',  ( 0.0000000000000000000, 0.0000000000000000000, 0.0000000000000000000 ) ) ;
#131 = ADVANCED_FACE ( 'NONE', ( #11 ), #137, .F. ) ;
#132 = CARTESIAN_POINT ( 'NONE',  ( 0.0000000000000000000, 4.714890176717328682E-18, -0.03850000000000015216 ) ) ;
#133 = DIRECTION ( 'NONE',  ( -1.000000000000000000, -0.0000000000000000000, -0.0000000000000000000 ) ) ;
#134 = AXIS2_PLACEMENT_3D ( 'NONE', #167, #419, #256 ) ;
#135 = EDGE_CURVE ( 'NONE', #402, #321, #45, .T. ) ;
#136 = FILL_AREA_STYLE_COLOUR ( '', #141 ) ;
#137 = CYLINDRICAL_SURFACE ( 'NONE', #290, 0.02550000000000004347 ) ;
#138 = CARTESIAN_POINT ( 'NONE',  ( 0.5270000000000001350, 0.0000000000000000000, 0.0000000000000000000 ) ) ;
#139 = VECTOR ( 'NONE', #453, 39.37007874015748854 ) ;
#140 = VECTOR ( 'NONE', #168, 39.37007874015748143 ) ;
#141 = COLOUR_RGB ( '',1.000000000000000000, 1.000000000000000000, 1.000000000000000000 ) ;
#142 = CARTESIAN_POINT ( 'NONE',  ( 0.0000000000000000000, 0.0000000000000000000, 0.0000000000000000000 ) ) ;
#143 = EDGE_LOOP ( 'NONE', ( #306, #438, #108, #86 ) ) ;
#144 = EDGE_CURVE ( 'NONE', #424, #506, #497, .T. ) ;
#145 = CYLINDRICAL_SURFACE ( 'NONE', #297, 0.03050000000000067241 ) ;
#146 = VERTEX_POINT ( 'NONE', #91 ) ;
#147 = ORIENTED_EDGE ( 'NONE', *, *, #222, .F. ) ;
#148 = DIRECTION ( 'NONE',  ( 0.0000000000000000000, 0.0000000000000000000, 1.000000000000000000 ) ) ;
#149 = ADVANCED_FACE ( 'NONE', ( #295, #97 ), #292, .F. ) ;
#150 = DIRECTION ( 'NONE',  ( -1.000000000000000000, -0.0000000000000000000, -0.0000000000000000000 ) ) ;
#151 = DIRECTION ( 'NONE',  ( -0.0000000000000000000, 0.0000000000000000000, 1.000000000000000000 ) ) ;
#152 = FACE_OUTER_BOUND ( 'NONE', #160, .T. ) ;
#153 = ADVANCED_FACE ( 'NONE', ( #170 ), #430, .F. ) ;
#154 = AXIS2_PLACEMENT_3D ( 'NONE', #473, #364, #46 ) ;
#155 = COLOUR_RGB ( '',1.000000000000000000, 1.000000000000000000, 1.000000000000000000 ) ;
#156 = EDGE_LOOP ( 'NONE', ( #263, #72, #478, #474 ) ) ;
#157 = DIMENSIONAL_EXPONENTS ( 1.000000000000000000, 0.0000000000000000000, 0.0000000000000000000, 0.0000000000000000000, 0.0000000000000000000, 0.0000000000000000000, 0.0000000000000000000 ) ;
#158 = VERTEX_POINT ( 'NONE', #98 ) ;
#159 = CYLINDRICAL_SURFACE ( 'NONE', #171, 0.03850000000000015216 ) ;
#160 = EDGE_LOOP ( 'NONE', ( #203, #114, #187 ) ) ;
#161 = CARTESIAN_POINT ( 'NONE',  ( -6.829619984160658046E-17, 0.0000000000000000000, 0.02950000000000005396 ) ) ;
#162 = ADVANCED_BREP_SHAPE_REPRESENTATION ( '17D0CF71-576E-49CF-9862-BEA1B9716429', ( #198, #85 ), #335 ) ;
#163 = DIRECTION ( 'NONE',  ( 0.0000000000000000000, 0.0000000000000000000, 1.000000000000000000 ) ) ;
#164 = CARTESIAN_POINT ( 'NONE',  ( 0.3499999999999998113, 0.0000000000000000000, 0.03050000000000067241 ) ) ;
#165 = VECTOR ( 'NONE', #271, 39.37007874015748143 ) ;
#166 = DIRECTION ( 'NONE',  ( 0.0000000000000000000, 0.0000000000000000000, 1.000000000000000000 ) ) ;
#167 = CARTESIAN_POINT ( 'NONE',  ( 0.04000000000000066697, 0.03850000000000015216, 0.0000000000000000000 ) ) ;
#168 = DIRECTION ( 'NONE',  ( -1.000000000000000000, -0.0000000000000000000, -0.0000000000000000000 ) ) ;
#169 = DIRECTION ( 'NONE',  ( 1.000000000000000000, 0.0000000000000000000, 0.0000000000000000000 ) ) ;
#170 = FACE_OUTER_BOUND ( 'NONE', #234, .T. ) ;
#171 = AXIS2_PLACEMENT_3D ( 'NONE', #130, #406, #320 ) ;
#172 = SHAPE_DEFINITION_REPRESENTATION ( #113, #162 ) ;
#173 = CARTESIAN_POINT ( 'NONE',  ( 0.0000000000000000000, 0.0000000000000000000, 0.0000000000000000000 ) ) ;
#174 = CARTESIAN_POINT ( 'NONE',  ( 0.0000000000000000000, 0.0000000000000000000, 0.03850000000000015216 ) ) ;
#175 =( NAMED_UNIT ( * ) PLANE_ANGLE_UNIT ( ) SI_UNIT ( $, .RADIAN. ) );
#176 = CARTESIAN_POINT ( 'NONE',  ( 0.5270000000000001350, 2.388061258337358503E-18, -0.01950000000000015957 ) ) ;
#177 = ORIENTED_EDGE ( 'NONE', *, *, #233, .F. ) ;
#178 = AXIS2_PLACEMENT_3D ( 'NONE', #14, #494, #287 ) ;
#179 = AXIS2_PLACEMENT_3D ( 'NONE', #89, #4, #151 ) ;
#180 = FACE_OUTER_BOUND ( 'NONE', #156, .T. ) ;
#181 = ORIENTED_EDGE ( 'NONE', *, *, #450, .F. ) ;
#182 =( CONVERSION_BASED_UNIT ( 'INCH', #22 ) LENGTH_UNIT ( ) NAMED_UNIT ( #40 ) );
#183 = LINE ( 'NONE', #190, #507 ) ;
#184 = VERTEX_POINT ( 'NONE', #254 ) ;
#185 = DIRECTION ( 'NONE',  ( 0.0000000000000000000, 0.0000000000000000000, 1.000000000000000000 ) ) ;
#186 =( NAMED_UNIT ( * ) SI_UNIT ( $, .STERADIAN. ) SOLID_ANGLE_UNIT ( ) );
#187 = ORIENTED_EDGE ( 'NONE', *, *, #63, .T. ) ;
#188 = CARTESIAN_POINT ( 'NONE',  ( 0.0000000000000000000, 0.0000000000000000000, 0.0000000000000000000 ) ) ;
#189 = CIRCLE ( 'NONE', #323, 0.01950000000000015957 ) ;
#190 = CARTESIAN_POINT ( 'NONE',  ( 0.5369999999999998108, 0.0000000000000000000, 0.009500000000001087436 ) ) ;
#191 = ADVANCED_FACE ( 'NONE', ( #380, #375 ), #208, .F. ) ;
#192 = ORIENTED_EDGE ( 'NONE', *, *, #105, .T. ) ;
#193 = EDGE_CURVE ( 'NONE', #146, #303, #346, .T. ) ;
#194 = ORIENTED_EDGE ( 'NONE', *, *, #384, .F. ) ;
#195 = VECTOR ( 'NONE', #496, 39.37007874015748143 ) ;
#196 = ORIENTED_EDGE ( 'NONE', *, *, #510, .T. ) ;
#197 = CARTESIAN_POINT ( 'NONE',  ( 0.2499999999999998057, 0.0000000000000000000, 0.02550000000000004347 ) ) ;
#198 = MANIFOLD_SOLID_BREP ( 'Hole1', #117 ) ;
#199 = DIRECTION ( 'NONE',  ( -1.000000000000000000, -0.0000000000000000000, -0.0000000000000000000 ) ) ;
#200 = ORIENTED_EDGE ( 'NONE', *, *, #454, .F. ) ;
#201 = CARTESIAN_POINT ( 'NONE',  ( 0.0000000000000000000, 4.714890176717328682E-18, -0.03850000000000015216 ) ) ;
#202 = ADVANCED_FACE ( 'NONE', ( #268 ), #239, .T. ) ;
#203 = ORIENTED_EDGE ( 'NONE', *, *, #318, .F. ) ;
#204 = CARTESIAN_POINT ( 'NONE',  ( 0.0000000000000000000, 0.0000000000000000000, 0.0000000000000000000 ) ) ;
#205 = DIRECTION ( 'NONE',  ( 0.0000000000000000000, 0.0000000000000000000, 1.000000000000000000 ) ) ;
#206 = FACE_OUTER_BOUND ( 'NONE', #345, .T. ) ;
#207 = CIRCLE ( 'NONE', #282, 0.03850000000000015216 ) ;
#208 = PLANE ( 'NONE',  #134 ) ;
#209 = PRODUCT_RELATED_PRODUCT_CATEGORY ( 'part', '', ( #341 ) ) ;
#210 = DIRECTION ( 'NONE',  ( 0.0000000000000000000, 0.0000000000000000000, 1.000000000000000000 ) ) ;
#211 = UNCERTAINTY_MEASURE_WITH_UNIT (LENGTH_MEASURE( 1.000000000000000082E-05 ), #52, 'distance_accuracy_value', 'NONE');
#212 = FACE_OUTER_BOUND ( 'NONE', #75, .T. ) ;
#213 = STYLED_ITEM ( 'NONE', ( #390 ), #198 ) ;
#214 = CIRCLE ( 'NONE', #324, 0.03850000000000015216 ) ;
#215 = DIRECTION ( 'NONE',  ( 0.0000000000000000000, 0.0000000000000000000, 1.000000000000000000 ) ) ;
#216 = EDGE_CURVE ( 'NONE', #123, #111, #207, .T. ) ;
#217 = CARTESIAN_POINT ( 'NONE',  ( 0.04000000000000066697, 4.714890176717328682E-18, -0.03850000000000015216 ) ) ;
#218 = ORIENTED_EDGE ( 'NONE', *, *, #359, .F. ) ;
#219 = CIRCLE ( 'NONE', #378, 0.009500000000001087436 ) ;
#220 = SURFACE_STYLE_USAGE ( .BOTH. , #298 ) ;
#221 = CARTESIAN_POINT ( 'NONE',  ( 0.006928203230274760163, 0.0000000000000000000, 0.0000000000000000000 ) ) ;
#222 = EDGE_CURVE ( 'NONE', #466, #427, #432, .T. ) ;
#223 = ORIENTED_EDGE ( 'NONE', *, *, #476, .T. ) ;
#224 = DIRECTION ( 'NONE',  ( -1.000000000000000000, -0.0000000000000000000, -0.0000000000000000000 ) ) ;
#225 = DIRECTION ( 'NONE',  ( -1.000000000000000000, -0.0000000000000000000, -0.0000000000000000000 ) ) ;
#226 = ORIENTED_EDGE ( 'NONE', *, *, #144, .T. ) ;
#227 = FACE_OUTER_BOUND ( 'NONE', #28, .T. ) ;
#228 = DIRECTION ( 'NONE',  ( 0.0000000000000000000, 0.0000000000000000000, 1.000000000000000000 ) ) ;
#229 = DIRECTION ( 'NONE',  ( 0.0000000000000000000, 0.0000000000000000000, 1.000000000000000000 ) ) ;
#230 = ORIENTED_EDGE ( 'NONE', *, *, #233, .T. ) ;
#231 = VECTOR ( 'NONE', #385, 39.37007874015748143 ) ;
#232 = VERTEX_POINT ( 'NONE', #260 ) ;
#233 = EDGE_CURVE ( 'NONE', #506, #424, #492, .T. ) ;
#234 = EDGE_LOOP ( 'NONE', ( #43, #482, #502, #192 ) ) ;
#235 = PRODUCT_DEFINITION ( 'UNKNOWN', '', #58, #331 ) ;
#236 = VERTEX_POINT ( 'NONE', #503 ) ;
#237 = DIRECTION ( 'NONE',  ( -1.000000000000000000, -0.0000000000000000000, -0.0000000000000000000 ) ) ;
#238 = CIRCLE ( 'NONE', #377, 0.02550000000000004347 ) ;
#239 = CONICAL_SURFACE ( 'NONE', #360, 0.009500000000001087436, 0.7853981633974208565 ) ;
#240 = ORIENTED_EDGE ( 'NONE', *, *, #247, .F. ) ;
#241 = CARTESIAN_POINT ( 'NONE',  ( 0.0000000000000000000, 0.0000000000000000000, 0.03050000000000067241 ) ) ;
#242 = ORIENTED_EDGE ( 'NONE', *, *, #144, .F. ) ;
#243 = DIRECTION ( 'NONE',  ( -1.000000000000000000, -0.0000000000000000000, -0.0000000000000000000 ) ) ;
#244 = SURFACE_STYLE_USAGE ( .BOTH. , #49 ) ;
#245 = DIRECTION ( 'NONE',  ( 0.0000000000000000000, 0.0000000000000000000, 1.000000000000000000 ) ) ;
#246 = FACE_OUTER_BOUND ( 'NONE', #65, .T. ) ;
#247 = EDGE_CURVE ( 'NONE', #394, #303, #61, .T. ) ;
#248 = DIRECTION ( 'NONE',  ( 1.000000000000000000, 0.0000000000000000000, 0.0000000000000000000 ) ) ;
#249 = VECTOR ( 'NONE', #508, 39.37007874015748143 ) ;
#250 = PRESENTATION_LAYER_ASSIGNMENT (  '', '', ( #47 ) ) ;
#251 = ADVANCED_FACE ( 'NONE', ( #180 ), #262, .F. ) ;
#252 = PRESENTATION_STYLE_ASSIGNMENT (( #244 ) ) ;
#253 = CARTESIAN_POINT ( 'NONE',  ( 0.5369999999999998108, 0.0000000000000000000, 0.0000000000000000000 ) ) ;
#254 = CARTESIAN_POINT ( 'NONE',  ( 0.3499999999999998113, 0.0000000000000000000, 0.01950000000000015957 ) ) ;
#255 = DIRECTION ( 'NONE',  ( 0.0000000000000000000, 0.0000000000000000000, 1.000000000000000000 ) ) ;
#256 = DIRECTION ( 'NONE',  ( -0.0000000000000000000, 0.0000000000000000000, 1.000000000000000000 ) ) ;
#257 = EDGE_CURVE ( 'NONE', #509, #146, #437, .T. ) ;
#258 = AXIS2_PLACEMENT_3D ( 'NONE', #188, #480, #44 ) ;
#259 = AXIS2_PLACEMENT_3D ( 'NONE', #302, #225, #107 ) ;
#260 = CARTESIAN_POINT ( 'NONE',  ( 0.04000000000000066697, 3.735172737399509145E-18, -0.03050000000000067241 ) ) ;
#261 = ORIENTED_EDGE ( 'NONE', *, *, #279, .F. ) ;
#262 = CYLINDRICAL_SURFACE ( 'NONE', #354, 0.02550000000000004347 ) ;
#263 = ORIENTED_EDGE ( 'NONE', *, *, #300, .F. ) ;
#264 = ADVANCED_FACE ( 'NONE', ( #499 ), #145, .T. ) ;
#265 = CARTESIAN_POINT ( 'NONE',  ( 0.0000000000000000000, 0.0000000000000000000, 0.0000000000000000000 ) ) ;
#266 = DIRECTION ( 'NONE',  ( -0.7071067811865668906, 0.0000000000000000000, 0.7071067811865281438 ) ) ;
#267 = AXIS2_PLACEMENT_3D ( 'NONE', #463, #103, #501 ) ;
#268 = FACE_OUTER_BOUND ( 'NONE', #116, .T. ) ;
#269 = LENGTH_MEASURE_WITH_UNIT ( LENGTH_MEASURE( 0.02539999999999999897 ), #351 );
#270 = ORIENTED_EDGE ( 'NONE', *, *, #336, .T. ) ;
#271 = DIRECTION ( 'NONE',  ( -1.000000000000000000, -0.0000000000000000000, -0.0000000000000000000 ) ) ;
#272 = DIRECTION ( 'NONE',  ( 0.0000000000000000000, 0.0000000000000000000, 1.000000000000000000 ) ) ;
#273 = VERTEX_POINT ( 'NONE', #296 ) ;
#274 = CARTESIAN_POINT ( 'NONE',  ( 0.3499999999999998113, 0.03050000000000067241, 0.0000000000000000000 ) ) ;
#275 = ORIENTED_EDGE ( 'NONE', *, *, #48, .F. ) ;
#276 = CONICAL_SURFACE ( 'NONE', #477, 0.02950000000000005396, 0.5235987755983426695 ) ;
#277 = CARTESIAN_POINT ( 'NONE',  ( 0.2499999999999998057, 0.0000000000000000000, 0.0000000000000000000 ) ) ;
#278 = ORIENTED_EDGE ( 'NONE', *, *, #318, .T. ) ;
#279 = EDGE_CURVE ( 'NONE', #158, #232, #333, .T. ) ;
#280 = ORIENTED_EDGE ( 'NONE', *, *, #462, .T. ) ;
#281 = DIRECTION ( 'NONE',  ( -1.000000000000000000, -0.0000000000000000000, -0.0000000000000000000 ) ) ;
#282 = AXIS2_PLACEMENT_3D ( 'NONE', #468, #150, #69 ) ;
#283 = CARTESIAN_POINT ( 'NONE',  ( 0.2499999999999998057, 0.0000000000000000000, 0.0000000000000000000 ) ) ;
#284 = LINE ( 'NONE', #366, #27 ) ;
#285 = DIRECTION ( 'NONE',  ( -1.000000000000000000, -0.0000000000000000000, -0.0000000000000000000 ) ) ;
#286 = FACE_BOUND ( 'NONE', #461, .T. ) ;
#287 = DIRECTION ( 'NONE',  ( 0.0000000000000000000, 0.0000000000000000000, 1.000000000000000000 ) ) ;
#288 = FACE_OUTER_BOUND ( 'NONE', #400, .T. ) ;
#289 = ADVANCED_FACE ( 'NONE', ( #301 ), #465, .T. ) ;
#290 = AXIS2_PLACEMENT_3D ( 'NONE', #173, #51, #210 ) ;
#291 = VECTOR ( 'NONE', #396, 39.37007874015748854 ) ;
#292 = PLANE ( 'NONE',  #66 ) ;
#293 = CARTESIAN_POINT ( 'NONE',  ( -6.829619984160658046E-17, 0.0000000000000000000, 0.0000000000000000000 ) ) ;
#294 = EDGE_CURVE ( 'NONE', #512, #435, #118, .T. ) ;
#295 = FACE_BOUND ( 'NONE', #36, .T. ) ;
#296 = CARTESIAN_POINT ( 'NONE',  ( 0.5369999999999998108, 0.0000000000000000000, 0.009500000000001087436 ) ) ;
#297 = AXIS2_PLACEMENT_3D ( 'NONE', #142, #101, #348 ) ;
#298 = SURFACE_SIDE_STYLE ('',( #24 ) ) ;
#299 = ORIENTED_EDGE ( 'NONE', *, *, #216, .F. ) ;
#300 = EDGE_CURVE ( 'NONE', #236, #321, #109, .T. ) ;
#301 = FACE_OUTER_BOUND ( 'NONE', #26, .T. ) ;
#302 = CARTESIAN_POINT ( 'NONE',  ( 0.3499999999999998113, 0.0000000000000000000, 0.0000000000000000000 ) ) ;
#303 = VERTEX_POINT ( 'NONE', #161 ) ;
#304 = FILL_AREA_STYLE ('',( #434 ) ) ;
#305 = CARTESIAN_POINT ( 'NONE',  ( 0.006928203230274760163, 3.122849337825756089E-18, -0.02550000000000004347 ) ) ;
#306 = ORIENTED_EDGE ( 'NONE', *, *, #344, .F. ) ;
#307 = DIRECTION ( 'NONE',  ( 0.0000000000000000000, 0.0000000000000000000, 1.000000000000000000 ) ) ;
#308 = DIRECTION ( 'NONE',  ( -1.000000000000000000, -0.0000000000000000000, -0.0000000000000000000 ) ) ;
#309 = DIRECTION ( 'NONE',  ( -1.000000000000000000, -0.0000000000000000000, -0.0000000000000000000 ) ) ;
#310 = EDGE_LOOP ( 'NONE', ( #444, #470, #363, #181 ) ) ;
#311 = DIRECTION ( 'NONE',  ( -1.000000000000000000, -0.0000000000000000000, -0.0000000000000000000 ) ) ;
#312 = ADVANCED_FACE ( 'NONE', ( #447 ), #362, .F. ) ;
#313 = ORIENTED_EDGE ( 'NONE', *, *, #193, .F. ) ;
#314 = DIRECTION ( 'NONE',  ( 0.0000000000000000000, 0.0000000000000000000, 1.000000000000000000 ) ) ;
#315 = CONICAL_SURFACE ( 'NONE', #398, 0.02550000000000004347, 1.029744258676644986 ) ;
#316 = AXIS2_PLACEMENT_3D ( 'NONE', #265, #429, #445 ) ;
#317 = ORIENTED_EDGE ( 'NONE', *, *, #300, .T. ) ;
#318 = EDGE_CURVE ( 'NONE', #402, #236, #452, .T. ) ;
#319 = ORIENTED_EDGE ( 'NONE', *, *, #495, .F. ) ;
#320 = DIRECTION ( 'NONE',  ( 0.0000000000000000000, 0.0000000000000000000, 1.000000000000000000 ) ) ;
#321 = VERTEX_POINT ( 'NONE', #197 ) ;
#322 = CARTESIAN_POINT ( 'NONE',  ( 0.2653219457852029617, 0.0000000000000000000, 0.0000000000000000000 ) ) ;
#323 = AXIS2_PLACEMENT_3D ( 'NONE', #138, #133, #163 ) ;
#324 = AXIS2_PLACEMENT_3D ( 'NONE', #472, #309, #229 ) ;
#325 = CARTESIAN_POINT ( 'NONE',  ( 0.5369999999999998108, 0.0000000000000000000, 0.0000000000000000000 ) ) ;
#326 = CARTESIAN_POINT ( 'NONE',  ( 0.5270000000000001350, 0.0000000000000000000, 0.01950000000000015957 ) ) ;
#327 = FILL_AREA_STYLE ('',( #136 ) ) ;
#328 = FACE_OUTER_BOUND ( 'NONE', #310, .T. ) ;
#329 = EDGE_CURVE ( 'NONE', #232, #158, #404, .T. ) ;
#330 =( NAMED_UNIT ( * ) SI_UNIT ( $, .STERADIAN. ) SOLID_ANGLE_UNIT ( ) );
#331 = PRODUCT_DEFINITION_CONTEXT ( 'detailed design', #392, 'design' ) ;
#332 = DIRECTION ( 'NONE',  ( -1.000000000000000000, -0.0000000000000000000, -0.0000000000000000000 ) ) ;
#333 = CIRCLE ( 'NONE', #267, 0.03050000000000067241 ) ;
#334 = CYLINDRICAL_SURFACE ( 'NONE', #367, 0.01950000000000015957 ) ;
#335 =( GEOMETRIC_REPRESENTATION_CONTEXT ( 3 ) GLOBAL_UNCERTAINTY_ASSIGNED_CONTEXT ( ( #383 ) ) GLOBAL_UNIT_ASSIGNED_CONTEXT ( ( #30, #431, #186 ) ) REPRESENTATION_CONTEXT ( 'NONE', 'WORKASPACE' ) );
#336 = EDGE_CURVE ( 'NONE', #427, #158, #471, .T. ) ;
#337 = DIRECTION ( 'NONE',  ( 0.0000000000000000000, 0.0000000000000000000, 1.000000000000000000 ) ) ;
#338 = DIRECTION ( 'NONE',  ( 0.0000000000000000000, 0.0000000000000000000, 1.000000000000000000 ) ) ;
#339 = DIRECTION ( 'NONE',  ( 0.0000000000000000000, 0.0000000000000000000, 1.000000000000000000 ) ) ;
#340 = CARTESIAN_POINT ( 'NONE',  ( 0.5369999999999998108, 1.775737858763738722E-18, -0.009500000000001087436 ) ) ;
#341 = PRODUCT ( '17D0CF71-576E-49CF-9862-BEA1B9716429', '17D0CF71-576E-49CF-9862-BEA1B9716429', '', ( #18 ) ) ;
#342 = DIRECTION ( 'NONE',  ( -1.000000000000000000, -0.0000000000000000000, -0.0000000000000000000 ) ) ;
#343 = APPLICATION_PROTOCOL_DEFINITION ( 'draft international standard', 'automotive_design', 1998, #467 ) ;
#344 = EDGE_CURVE ( 'NONE', #236, #509, #436, .T. ) ;
#345 = EDGE_LOOP ( 'NONE', ( #448, #147 ) ) ;
#346 = CIRCLE ( 'NONE', #513, 0.02950000000000005396 ) ;
#347 =( GEOMETRIC_REPRESENTATION_CONTEXT ( 3 ) GLOBAL_UNCERTAINTY_ASSIGNED_CONTEXT ( ( #211 ) ) GLOBAL_UNIT_ASSIGNED_CONTEXT ( ( #52, #369, #330 ) ) REPRESENTATION_CONTEXT ( 'NONE', 'WORKASPACE' ) );
#348 = DIRECTION ( 'NONE',  ( 0.0000000000000000000, 0.0000000000000000000, 1.000000000000000000 ) ) ;
#349 = EDGE_CURVE ( 'NONE', #321, #394, #486, .T. ) ;
#350 = CARTESIAN_POINT ( 'NONE',  ( 0.04000000000000066697, 0.0000000000000000000, 0.0000000000000000000 ) ) ;
#351 =( LENGTH_UNIT ( ) NAMED_UNIT ( * ) SI_UNIT ( $, .METRE. ) );
#352 = ORIENTED_EDGE ( 'NONE', *, *, #193, .T. ) ;
#353 = ORIENTED_EDGE ( 'NONE', *, *, #216, .T. ) ;
#354 = AXIS2_PLACEMENT_3D ( 'NONE', #106, #342, #272 ) ;
#355 = CARTESIAN_POINT ( 'NONE',  ( 0.04000000000000066697, 0.0000000000000000000, 0.0000000000000000000 ) ) ;
#356 = ADVANCED_FACE ( 'NONE', ( #2 ), #159, .T. ) ;
#357 = EDGE_LOOP ( 'NONE', ( #500, #353 ) ) ;
#358 = ORIENTED_EDGE ( 'NONE', *, *, #476, .F. ) ;
#359 = EDGE_CURVE ( 'NONE', #435, #184, #83, .T. ) ;
#360 = AXIS2_PLACEMENT_3D ( 'NONE', #325, #308, #185 ) ;
#361 = ORIENTED_EDGE ( 'NONE', *, *, #495, .T. ) ;
#362 = PLANE ( 'NONE',  #179 ) ;
#363 = ORIENTED_EDGE ( 'NONE', *, *, #359, .T. ) ;
#364 = DIRECTION ( 'NONE',  ( -1.000000000000000000, -0.0000000000000000000, -0.0000000000000000000 ) ) ;
#365 = EDGE_LOOP ( 'NONE', ( #226, #446, #408, #440 ) ) ;
#366 = CARTESIAN_POINT ( 'NONE',  ( 0.0000000000000000000, 2.388061258337358503E-18, -0.01950000000000015957 ) ) ;
#367 = AXIS2_PLACEMENT_3D ( 'NONE', #451, #487, #245 ) ;
#368 = ADVANCED_FACE ( 'NONE', ( #227 ), #412, .T. ) ;
#369 =( NAMED_UNIT ( * ) PLANE_ANGLE_UNIT ( ) SI_UNIT ( $, .RADIAN. ) );
#370 = CIRCLE ( 'NONE', #259, 0.01950000000000015957 ) ;
#371 = CARTESIAN_POINT ( 'NONE',  ( 0.0000000000000000000, 0.0000000000000000000, 0.0000000000000000000 ) ) ;
#372 = CARTESIAN_POINT ( 'NONE',  ( 0.0000000000000000000, 0.0000000000000000000, 0.03850000000000015216 ) ) ;
#373 = CARTESIAN_POINT ( 'NONE',  ( 0.5369999999999998108, 1.163414459190118556E-18, -0.009500000000001087436 ) ) ;
#374 = LENGTH_MEASURE_WITH_UNIT ( LENGTH_MEASURE( 0.02539999999999999897 ), #418 );
#375 = FACE_BOUND ( 'NONE', #3, .T. ) ;
#376 = CARTESIAN_POINT ( 'NONE',  ( 0.0000000000000000000, 0.0000000000000000000, 0.0000000000000000000 ) ) ;
#377 = AXIS2_PLACEMENT_3D ( 'NONE', #490, #379, #129 ) ;
#378 = AXIS2_PLACEMENT_3D ( 'NONE', #54, #20, #338 ) ;
#379 = DIRECTION ( 'NONE',  ( -1.000000000000000000, -0.0000000000000000000, -0.0000000000000000000 ) ) ;
#380 = FACE_OUTER_BOUND ( 'NONE', #511, .T. ) ;
#381 = CARTESIAN_POINT ( 'NONE',  ( 0.3499999999999998113, 0.0000000000000000000, 0.0000000000000000000 ) ) ;
#382 = ORIENTED_EDGE ( 'NONE', *, *, #410, .T. ) ;
#383 = UNCERTAINTY_MEASURE_WITH_UNIT (LENGTH_MEASURE( 1.000000000000000082E-05 ), #30, 'distance_accuracy_value', 'NONE');
#384 = EDGE_CURVE ( 'NONE', #506, #123, #124, .T. ) ;
#385 = DIRECTION ( 'NONE',  ( -0.8660254037844167252, 0.0000000000000000000, 0.5000000000000379696 ) ) ;
#386 = CONICAL_SURFACE ( 'NONE', #99, 0.009500000000001087436, 0.7853981633974208565 ) ;
#387 = VECTOR ( 'NONE', #493, 39.37007874015748143 ) ;
#388 = ORIENTED_EDGE ( 'NONE', *, *, #55, .F. ) ;
#389 = CIRCLE ( 'NONE', #455, 0.01950000000000015957 ) ;
#390 = PRESENTATION_STYLE_ASSIGNMENT (( #220 ) ) ;
#391 = ORIENTED_EDGE ( 'NONE', *, *, #279, .T. ) ;
#392 = APPLICATION_CONTEXT ( 'automotive_design' ) ;
#393 = CARTESIAN_POINT ( 'NONE',  ( -6.829619984160658046E-17, 0.0000000000000000000, 0.02950000000000005396 ) ) ;
#394 = VERTEX_POINT ( 'NONE', #31 ) ;
#395 = ADVANCED_FACE ( 'NONE', ( #246 ), #498, .F. ) ;
#396 = DIRECTION ( 'NONE',  ( -0.5150380749100622602, 1.049727191138612533E-16, -0.8571673007021073376 ) ) ;
#397 = ORIENTED_EDGE ( 'NONE', *, *, #510, .F. ) ;
#398 = AXIS2_PLACEMENT_3D ( 'NONE', #283, #5, #314 ) ;
#399 = AXIS2_PLACEMENT_3D ( 'NONE', #355, #403, #307 ) ;
#400 = EDGE_LOOP ( 'NONE', ( #388, #62, #352, #240 ) ) ;
#401 = DIRECTION ( 'NONE',  ( -1.000000000000000000, -0.0000000000000000000, -0.0000000000000000000 ) ) ;
#402 = VERTEX_POINT ( 'NONE', #322 ) ;
#403 = DIRECTION ( 'NONE',  ( -1.000000000000000000, -0.0000000000000000000, -0.0000000000000000000 ) ) ;
#404 = CIRCLE ( 'NONE', #399, 0.03050000000000067241 ) ;
#405 = VERTEX_POINT ( 'NONE', #115 ) ;
#406 = DIRECTION ( 'NONE',  ( -1.000000000000000000, -0.0000000000000000000, -0.0000000000000000000 ) ) ;
#407 = DIRECTION ( 'NONE',  ( 0.0000000000000000000, 0.0000000000000000000, 1.000000000000000000 ) ) ;
#408 = ORIENTED_EDGE ( 'NONE', *, *, #488, .F. ) ;
#409 = CYLINDRICAL_SURFACE ( 'NONE', #469, 0.01950000000000015957 ) ;
#410 = EDGE_CURVE ( 'NONE', #512, #405, #284, .T. ) ;
#411 = DIRECTION ( 'NONE',  ( -1.000000000000000000, -0.0000000000000000000, -0.0000000000000000000 ) ) ;
#412 = CYLINDRICAL_SURFACE ( 'NONE', #258, 0.03050000000000067241 ) ;
#413 = CIRCLE ( 'NONE', #92, 0.02950000000000005396 ) ;
#414 = AXIS2_PLACEMENT_3D ( 'NONE', #80, #199, #407 ) ;
#415 = DIRECTION ( 'NONE',  ( 0.0000000000000000000, 0.0000000000000000000, -1.000000000000000000 ) ) ;
#416 = DIRECTION ( 'NONE',  ( -1.000000000000000000, -0.0000000000000000000, -0.0000000000000000000 ) ) ;
#417 = DIRECTION ( 'NONE',  ( -1.000000000000000000, -0.0000000000000000000, -0.0000000000000000000 ) ) ;
#418 =( LENGTH_UNIT ( ) NAMED_UNIT ( * ) SI_UNIT ( $, .METRE. ) );
#419 = DIRECTION ( 'NONE',  ( -1.000000000000000000, 0.0000000000000000000, -0.0000000000000000000 ) ) ;
#420 = AXIS2_PLACEMENT_3D ( 'NONE', #221, #64, #25 ) ;
#421 = CARTESIAN_POINT ( 'NONE',  ( -6.829619984160658046E-17, 0.0000000000000000000, 0.0000000000000000000 ) ) ;
#422 =( LENGTH_UNIT ( ) NAMED_UNIT ( * ) SI_UNIT ( $, .METRE. ) );
#423 = CARTESIAN_POINT ( 'NONE',  ( 0.3499999999999998113, 0.0000000000000000000, 0.0000000000000000000 ) ) ;
#424 = VERTEX_POINT ( 'NONE', #483 ) ;
#425 = ADVANCED_FACE ( 'NONE', ( #87 ), #409, .T. ) ;
#426 = DIRECTION ( 'NONE',  ( -1.000000000000000000, -0.0000000000000000000, -0.0000000000000000000 ) ) ;
#427 = VERTEX_POINT ( 'NONE', #164 ) ;
#428 = UNCERTAINTY_MEASURE_WITH_UNIT (LENGTH_MEASURE( 1.000000000000000082E-05 ), #182, 'distance_accuracy_value', 'NONE');
#429 = DIRECTION ( 'NONE',  ( -1.000000000000000000, -0.0000000000000000000, -0.0000000000000000000 ) ) ;
#430 = CONICAL_SURFACE ( 'NONE', #491, 0.02950000000000005396, 0.5235987755983426695 ) ;
#431 =( NAMED_UNIT ( * ) PLANE_ANGLE_UNIT ( ) SI_UNIT ( $, .RADIAN. ) );
#432 = CIRCLE ( 'NONE', #100, 0.03050000000000067241 ) ;
#433 = ORIENTED_EDGE ( 'NONE', *, *, #48, .T. ) ;
#434 = FILL_AREA_STYLE_COLOUR ( '', #155 ) ;
#435 = VERTEX_POINT ( 'NONE', #326 ) ;
#436 = LINE ( 'NONE', #38, #249 ) ;
#437 = LINE ( 'NONE', #71, #195 ) ;
#438 = ORIENTED_EDGE ( 'NONE', *, *, #63, .F. ) ;
#439 = DIRECTION ( 'NONE',  ( -1.000000000000000000, 0.0000000000000000000, -0.0000000000000000000 ) ) ;
#440 = ORIENTED_EDGE ( 'NONE', *, *, #462, .F. ) ;
#441 = ADVANCED_FACE ( 'NONE', ( #206, #286 ), #504, .F. ) ;
#442 = CARTESIAN_POINT ( 'NONE',  ( 0.3499999999999998113, 0.0000000000000000000, 0.0000000000000000000 ) ) ;
#443 = ADVANCED_FACE ( 'NONE', ( #288 ), #276, .F. ) ;
#444 = ORIENTED_EDGE ( 'NONE', *, *, #410, .F. ) ;
#445 = DIRECTION ( 'NONE',  ( 0.0000000000000000000, 0.0000000000000000000, 1.000000000000000000 ) ) ;
#446 = ORIENTED_EDGE ( 'NONE', *, *, #384, .T. ) ;
#447 = FACE_OUTER_BOUND ( 'NONE', #35, .T. ) ;
#448 = ORIENTED_EDGE ( 'NONE', *, *, #13, .F. ) ;
#449 = DIRECTION ( 'NONE',  ( -1.000000000000000000, -0.0000000000000000000, -0.0000000000000000000 ) ) ;
#450 = EDGE_CURVE ( 'NONE', #405, #184, #389, .T. ) ;
#451 = CARTESIAN_POINT ( 'NONE',  ( 0.0000000000000000000, 0.0000000000000000000, 0.0000000000000000000 ) ) ;
#452 = LINE ( 'NONE', #127, #291 ) ;
#453 = DIRECTION ( 'NONE',  ( -0.5150380749100622602, 0.0000000000000000000, 0.8571673007021073376 ) ) ;
#454 = EDGE_CURVE ( 'NONE', #479, #512, #96, .T. ) ;
#455 = AXIS2_PLACEMENT_3D ( 'NONE', #423, #416, #255 ) ;
#456 = DIRECTION ( 'NONE',  ( 0.0000000000000000000, 0.0000000000000000000, 1.000000000000000000 ) ) ;
#457 = DIRECTION ( 'NONE',  ( 0.0000000000000000000, 0.0000000000000000000, 1.000000000000000000 ) ) ;
#458 = CARTESIAN_POINT ( 'NONE',  ( 0.2499999999999998057, 0.0000000000000000000, 0.0000000000000000000 ) ) ;
#459 = DIRECTION ( 'NONE',  ( 0.0000000000000000000, 0.0000000000000000000, 1.000000000000000000 ) ) ;
#460 = DIRECTION ( 'NONE',  ( 0.0000000000000000000, 0.0000000000000000000, 1.000000000000000000 ) ) ;
#461 = EDGE_LOOP ( 'NONE', ( #196, #1 ) ) ;
#462 = EDGE_CURVE ( 'NONE', #424, #111, #23, .T. ) ;
#463 = CARTESIAN_POINT ( 'NONE',  ( 0.04000000000000066697, 0.0000000000000000000, 0.0000000000000000000 ) ) ;
#464 = ORIENTED_EDGE ( 'NONE', *, *, #329, .T. ) ;
#465 = CYLINDRICAL_SURFACE ( 'NONE', #316, 0.03850000000000015216 ) ;
#466 = VERTEX_POINT ( 'NONE', #60 ) ;
#467 = APPLICATION_CONTEXT ( 'automotive_design' ) ;
#468 = CARTESIAN_POINT ( 'NONE',  ( 0.0000000000000000000, 0.0000000000000000000, 0.0000000000000000000 ) ) ;
#469 = AXIS2_PLACEMENT_3D ( 'NONE', #204, #237, #6 ) ;
#470 = ORIENTED_EDGE ( 'NONE', *, *, #294, .T. ) ;
#471 = LINE ( 'NONE', #241, #165 ) ;
#472 = CARTESIAN_POINT ( 'NONE',  ( 0.0000000000000000000, 0.0000000000000000000, 0.0000000000000000000 ) ) ;
#473 = CARTESIAN_POINT ( 'NONE',  ( 0.2499999999999998057, 0.0000000000000000000, 0.0000000000000000000 ) ) ;
#474 = ORIENTED_EDGE ( 'NONE', *, *, #349, .F. ) ;
#475 = ORIENTED_EDGE ( 'NONE', *, *, #329, .F. ) ;
#476 = EDGE_CURVE ( 'NONE', #273, #479, #219, .T. ) ;
#477 = AXIS2_PLACEMENT_3D ( 'NONE', #15, #10, #457 ) ;
#478 = ORIENTED_EDGE ( 'NONE', *, *, #55, .T. ) ;
#479 = VERTEX_POINT ( 'NONE', #340 ) ;
#480 = DIRECTION ( 'NONE',  ( -1.000000000000000000, -0.0000000000000000000, -0.0000000000000000000 ) ) ;
#481 = EDGE_CURVE ( 'NONE', #394, #509, #128, .T. ) ;
#482 = ORIENTED_EDGE ( 'NONE', *, *, #481, .F. ) ;
#483 = CARTESIAN_POINT ( 'NONE',  ( 0.04000000000000066697, 0.0000000000000000000, 0.03850000000000015216 ) ) ;
#484 = VECTOR ( 'NONE', #243, 39.37007874015748143 ) ;
#485 = LINE ( 'NONE', #9, #387 ) ;
#486 = LINE ( 'NONE', #42, #484 ) ;
#487 = DIRECTION ( 'NONE',  ( -1.000000000000000000, -0.0000000000000000000, -0.0000000000000000000 ) ) ;
#488 = EDGE_CURVE ( 'NONE', #111, #123, #214, .T. ) ;
#489 = APPLICATION_PROTOCOL_DEFINITION ( 'draft international standard', 'automotive_design', 1998, #392 ) ;
#490 = CARTESIAN_POINT ( 'NONE',  ( 0.006928203230274760163, 0.0000000000000000000, 0.0000000000000000000 ) ) ;
#491 = AXIS2_PLACEMENT_3D ( 'NONE', #50, #95, #460 ) ;
#492 = CIRCLE ( 'NONE', #39, 0.03850000000000015216 ) ;
#493 = DIRECTION ( 'NONE',  ( -1.000000000000000000, -0.0000000000000000000, -0.0000000000000000000 ) ) ;
#494 = DIRECTION ( 'NONE',  ( -1.000000000000000000, -0.0000000000000000000, -0.0000000000000000000 ) ) ;
#495 = EDGE_CURVE ( 'NONE', #273, #435, #183, .T. ) ;
#496 = DIRECTION ( 'NONE',  ( -0.8660254037844167252, 6.123233995737230724E-17, -0.5000000000000379696 ) ) ;
#497 = CIRCLE ( 'NONE', #178, 0.03850000000000015216 ) ;
#498 = CONICAL_SURFACE ( 'NONE', #154, 0.02550000000000004347, 1.029744258676644986 ) ;
#499 = FACE_OUTER_BOUND ( 'NONE', #68, .T. ) ;
#500 = ORIENTED_EDGE ( 'NONE', *, *, #488, .T. ) ;
#501 = DIRECTION ( 'NONE',  ( 0.0000000000000000000, 0.0000000000000000000, 1.000000000000000000 ) ) ;
#502 = ORIENTED_EDGE ( 'NONE', *, *, #247, .T. ) ;
#503 = CARTESIAN_POINT ( 'NONE',  ( 0.2499999999999998057, 3.122849337825756089E-18, -0.02550000000000004347 ) ) ;
#504 = PLANE ( 'NONE',  #16 ) ;
#505 =( GEOMETRIC_REPRESENTATION_CONTEXT ( 3 ) GLOBAL_UNCERTAINTY_ASSIGNED_CONTEXT ( ( #428 ) ) GLOBAL_UNIT_ASSIGNED_CONTEXT ( ( #182, #175, #110 ) ) REPRESENTATION_CONTEXT ( 'NONE', 'WORKASPACE' ) );
#506 = VERTEX_POINT ( 'NONE', #217 ) ;
#507 = VECTOR ( 'NONE', #266, 39.37007874015748143 ) ;
#508 = DIRECTION ( 'NONE',  ( -1.000000000000000000, -0.0000000000000000000, -0.0000000000000000000 ) ) ;
#509 = VERTEX_POINT ( 'NONE', #305 ) ;
#510 = EDGE_CURVE ( 'NONE', #184, #405, #370, .T. ) ;
#511 = EDGE_LOOP ( 'NONE', ( #242, #177 ) ) ;
#512 = VERTEX_POINT ( 'NONE', #176 ) ;
#513 = AXIS2_PLACEMENT_3D ( 'NONE', #421, #59, #215 ) ;
ENDSEC;
END-ISO-10303-21;
