M48
; DRILL file {KiCad 9.0.5} date 2026-01-25T18:06:27-0700
; FORMAT={-:-/ absolute / metric / decimal}
; #@! TF.CreationDate,2026-01-25T18:06:27-07:00
; #@! TF.GenerationSoftware,Kicad,Pcbnew,9.0.5
; #@! TF.FileFunction,Plated,1,4,PTH
FMAT,2
METRIC
; #@! TA.AperFunction,Plated,PTH,ViaDrill
T1C0.250
; #@! TA.AperFunction,Plated,PTH,ComponentDrill
T2C0.330
; #@! TA.AperFunction,Plated,PTH,ComponentDrill
T3C0.600
; #@! TA.AperFunction,Plated,PTH,ComponentDrill
T4C1.000
%
G90
G05
T1
X82.4Y-110.5
X83.1Y-105.8
X83.3Y-111.2
X83.5Y-151.2
X83.6Y-104.4
X84.25Y-155.5
X84.5Y-151.2
X84.75Y-105.7
X84.8Y-104.4
X85.925Y-139.175
X86.0Y-125.5
X86.25Y-122.75
X86.55Y-137.666
X86.6Y-111.8
X87.09Y-136.198
X87.27Y-109.13
X88.024Y-139.476
X88.024Y-150.476
X88.1Y-135.35
X88.2Y-109.147
X88.8Y-131.5
X89.1Y-130.5
X89.5Y-131.7
X89.75Y-120.0
X90.3Y-110.9
X90.5Y-133.5
X90.6Y-109.8
X90.7Y-138.5
X90.75Y-120.0
X91.35Y-116.35
X91.5Y-137.0
X91.55Y-111.95
X91.55Y-113.35
X91.75Y-130.5
X92.0Y-118.25
X92.0Y-129.0
X92.2Y-138.476
X92.25Y-121.25
X92.5Y-123.5
X92.75Y-126.4
X92.75Y-130.925
X92.834Y-132.006
X93.0Y-109.15
X93.35Y-124.5
X93.4Y-132.75
X93.5Y-114.4
X93.5Y-117.1
X93.5Y-118.25
X93.515Y-150.619
X93.55Y-113.199
X93.552Y-111.941
X93.651Y-125.75
X93.75Y-130.55
X93.8Y-127.7
X94.045Y-112.571
X94.1Y-109.3
X94.4Y-128.35
X94.475Y-113.25
X94.5Y-114.525
X94.5Y-130.1
X94.5Y-139.476
X94.525Y-110.3
X94.612Y-111.263
X95.0Y-118.5
X95.5Y-123.25
X95.925Y-109.525
X96.0Y-155.5
X96.429Y-127.55
X96.5Y-108.7
X96.7Y-106.3
X96.703Y-105.503
X96.75Y-118.75
X96.9Y-137.0
X96.9Y-138.476
X96.969Y-120.325
X97.003Y-116.856
X97.125Y-112.025
X97.175Y-109.325
X97.3Y-114.25
X97.35Y-115.225
X97.625Y-138.55
X97.825Y-110.05
X97.875Y-118.25
X98.0Y-152.01
X98.019Y-122.407
X98.325Y-116.3
X98.35Y-140.15
X98.4Y-138.55
X98.513Y-110.65
X98.6Y-154.0
X98.75Y-106.9
X98.784Y-118.422
X99.1Y-122.5
X99.4Y-135.9
X99.75Y-118.3
X100.403Y-141.1
X100.5Y-144.3
X100.51Y-142.69
X100.8Y-122.48
X100.8Y-146.2
X100.899Y-138.451
X100.9Y-121.2
X101.2Y-104.7
X101.3Y-151.2
X101.35Y-115.6
X101.35Y-116.4
X101.35Y-117.2
X101.35Y-118.0
X101.5Y-135.9
X101.5Y-142.0
X101.552Y-107.095
X101.575Y-103.025
X101.7Y-121.2
X101.75Y-122.48
X101.75Y-138.45
X102.0Y-155.5
X102.25Y-151.188
X102.351Y-106.408
X102.667Y-115.068
X102.75Y-102.975
X102.8Y-137.0
X102.8Y-138.5
X103.129Y-122.629
X103.34Y-121.19
X103.476Y-109.581
X103.524Y-114.475
X104.05Y-107.05
X104.4Y-123.6
X104.542Y-109.585
X104.853Y-106.967
X105.125Y-111.75
X105.125Y-112.675
X105.125Y-113.875
X105.3Y-125.972
X105.5Y-127.0
X105.5Y-128.0
X105.5Y-132.462
X105.5Y-139.476
X105.625Y-107.35
X105.625Y-110.875
X105.675Y-104.37
X105.73Y-128.93
X105.75Y-123.25
X105.875Y-113.275
X105.9Y-108.599
X106.0Y-150.477
X106.1Y-121.084
X106.5Y-124.75
X106.5Y-126.75
X106.5Y-130.5
X106.7Y-129.4
X106.75Y-120.484
X106.825Y-104.147
X106.974Y-107.95
X107.1Y-133.3
X107.35Y-119.95
X107.5Y-126.75
X107.5Y-130.25
X107.6Y-138.5
X107.8Y-108.1
X107.8Y-109.6
X107.95Y-119.384
X108.45Y-113.275
X108.5Y-137.0
X108.65Y-122.95
X108.7Y-133.3
X108.75Y-118.05
X108.8Y-134.5
X109.0Y-123.8
X109.05Y-127.4
X109.25Y-121.95
X109.353Y-116.865
X109.4Y-138.5
X109.5Y-111.25
X109.6Y-110.0
X110.25Y-112.0
X111.9Y-150.6
X112.0Y-133.0
X112.024Y-139.476
X112.042Y-135.258
X112.35Y-105.725
X112.943Y-136.26
X113.213Y-106.162
X113.51Y-137.675
X113.525Y-133.58
X113.8Y-139.125
X114.0Y-155.5
X114.25Y-110.65
X114.295Y-106.269
X115.14Y-106.265
X116.0Y-152.01
X116.175Y-105.9
X116.6Y-154.0
X117.324Y-114.326
T2
X97.626Y-125.674
X97.626Y-126.849
X97.626Y-128.024
X97.626Y-129.199
X97.626Y-130.374
X98.801Y-125.674
X98.801Y-126.849
X98.801Y-128.024
X98.801Y-129.199
X98.801Y-130.374
X99.976Y-125.674
X99.976Y-126.849
X99.976Y-128.024
X99.976Y-129.199
X99.976Y-130.374
X101.151Y-125.674
X101.151Y-126.849
X101.151Y-128.024
X101.151Y-129.199
X101.151Y-130.374
X102.326Y-125.674
X102.326Y-126.849
X102.326Y-128.024
X102.326Y-129.199
X102.326Y-130.374
T4
X80.95Y-104.2
X80.95Y-106.74
X80.95Y-109.28
X80.95Y-111.82
X80.95Y-114.36
X80.95Y-116.9
X80.95Y-119.44
X80.95Y-121.98
X80.95Y-124.52
X80.95Y-127.06
X80.95Y-129.6
X80.95Y-132.14
X80.95Y-134.68
X80.95Y-137.22
X80.95Y-139.76
X80.95Y-142.3
X80.95Y-144.84
X80.95Y-147.38
X80.95Y-149.92
X80.95Y-152.46
X119.05Y-106.74
X119.05Y-109.28
X119.05Y-111.82
X119.05Y-114.36
X119.05Y-116.9
X119.05Y-119.44
X119.05Y-121.98
X119.05Y-124.52
X119.05Y-127.06
X119.05Y-129.6
X119.05Y-132.14
X119.05Y-134.68
X119.05Y-137.22
X119.05Y-139.76
X119.05Y-142.3
X119.05Y-144.84
X119.05Y-147.38
X119.05Y-149.92
X119.05Y-152.46
X119.05Y-155.0
T3
G00X86.28Y-103.835
M15
G01X86.28Y-103.035
M16
G05
G00X86.28Y-108.165
M15
G01X86.28Y-107.065
M16
G05
G00X94.92Y-103.835
M15
G01X94.92Y-103.035
M16
G05
G00X94.92Y-108.165
M15
G01X94.92Y-107.065
M16
G05
M30
