%TF.GenerationSoftware,KiCad,Pcbnew,9.0.5*%
%TF.CreationDate,2026-03-15T20:25:34-06:00*%
%TF.ProjectId,EtherCatDevBoard_V1-1,45746865-7243-4617-9444-6576426f6172,rev?*%
%TF.SameCoordinates,Original*%
%TF.FileFunction,Paste,Top*%
%TF.FilePolarity,Positive*%
%FSLAX46Y46*%
G04 Gerber Fmt 4.6, Leading zero omitted, Abs format (unit mm)*
G04 Created by KiCad (PCBNEW 9.0.5) date 2026-03-15 20:25:34*
%MOMM*%
%LPD*%
G01*
G04 APERTURE LIST*
G04 Aperture macros list*
%AMRoundRect*
0 Rectangle with rounded corners*
0 $1 Rounding radius*
0 $2 $3 $4 $5 $6 $7 $8 $9 X,Y pos of 4 corners*
0 Add a 4 corners polygon primitive as box body*
4,1,4,$2,$3,$4,$5,$6,$7,$8,$9,$2,$3,0*
0 Add four circle primitives for the rounded corners*
1,1,$1+$1,$2,$3*
1,1,$1+$1,$4,$5*
1,1,$1+$1,$6,$7*
1,1,$1+$1,$8,$9*
0 Add four rect primitives between the rounded corners*
20,1,$1+$1,$2,$3,$4,$5,0*
20,1,$1+$1,$4,$5,$6,$7,0*
20,1,$1+$1,$6,$7,$8,$9,0*
20,1,$1+$1,$8,$9,$2,$3,0*%
G04 Aperture macros list end*
%ADD10RoundRect,0.140000X-0.140000X-0.170000X0.140000X-0.170000X0.140000X0.170000X-0.140000X0.170000X0*%
%ADD11R,0.760000X1.670000*%
%ADD12RoundRect,0.250000X0.255000X0.255000X-0.255000X0.255000X-0.255000X-0.255000X0.255000X-0.255000X0*%
%ADD13RoundRect,0.062500X0.350000X0.062500X-0.350000X0.062500X-0.350000X-0.062500X0.350000X-0.062500X0*%
%ADD14RoundRect,0.062500X0.062500X0.350000X-0.062500X0.350000X-0.062500X-0.350000X0.062500X-0.350000X0*%
%ADD15RoundRect,0.135000X-0.185000X0.135000X-0.185000X-0.135000X0.185000X-0.135000X0.185000X0.135000X0*%
%ADD16RoundRect,0.140000X-0.170000X0.140000X-0.170000X-0.140000X0.170000X-0.140000X0.170000X0.140000X0*%
%ADD17RoundRect,0.140000X0.170000X-0.140000X0.170000X0.140000X-0.170000X0.140000X-0.170000X-0.140000X0*%
%ADD18RoundRect,0.135000X0.135000X0.185000X-0.135000X0.185000X-0.135000X-0.185000X0.135000X-0.185000X0*%
%ADD19RoundRect,0.135000X0.185000X-0.135000X0.185000X0.135000X-0.185000X0.135000X-0.185000X-0.135000X0*%
%ADD20RoundRect,0.135000X-0.135000X-0.185000X0.135000X-0.185000X0.135000X0.185000X-0.135000X0.185000X0*%
%ADD21RoundRect,0.140000X0.140000X0.170000X-0.140000X0.170000X-0.140000X-0.170000X0.140000X-0.170000X0*%
%ADD22RoundRect,0.218750X-0.218750X-0.256250X0.218750X-0.256250X0.218750X0.256250X-0.218750X0.256250X0*%
%ADD23RoundRect,0.150000X-0.150000X-0.700000X0.150000X-0.700000X0.150000X0.700000X-0.150000X0.700000X0*%
%ADD24RoundRect,0.250000X-0.250000X-1.100000X0.250000X-1.100000X0.250000X1.100000X-0.250000X1.100000X0*%
%ADD25RoundRect,0.075000X0.075000X-0.700000X0.075000X0.700000X-0.075000X0.700000X-0.075000X-0.700000X0*%
%ADD26RoundRect,0.075000X0.700000X-0.075000X0.700000X0.075000X-0.700000X0.075000X-0.700000X-0.075000X0*%
%ADD27RoundRect,0.218750X0.256250X-0.218750X0.256250X0.218750X-0.256250X0.218750X-0.256250X-0.218750X0*%
%ADD28RoundRect,0.149997X0.149997X0.414997X-0.149997X0.414997X-0.149997X-0.414997X0.149997X-0.414997X0*%
%ADD29RoundRect,0.150000X0.150000X0.425000X-0.150000X0.425000X-0.150000X-0.425000X0.150000X-0.425000X0*%
%ADD30RoundRect,0.075000X0.075000X0.500000X-0.075000X0.500000X-0.075000X-0.500000X0.075000X-0.500000X0*%
%ADD31RoundRect,0.150000X0.149999X0.414999X-0.149999X0.414999X-0.149999X-0.414999X0.149999X-0.414999X0*%
%ADD32RoundRect,0.150000X0.150000X0.415000X-0.150000X0.415000X-0.150000X-0.415000X0.150000X-0.415000X0*%
%ADD33O,1.000000X2.100000*%
%ADD34O,1.000000X1.800000*%
%ADD35RoundRect,0.250000X-0.250000X0.325000X-0.250000X-0.325000X0.250000X-0.325000X0.250000X0.325000X0*%
%ADD36R,2.000000X5.500000*%
%ADD37R,0.970000X1.000000*%
%ADD38RoundRect,0.375000X0.625000X0.375000X-0.625000X0.375000X-0.625000X-0.375000X0.625000X-0.375000X0*%
%ADD39RoundRect,0.500000X0.500000X1.400000X-0.500000X1.400000X-0.500000X-1.400000X0.500000X-1.400000X0*%
%ADD40RoundRect,0.225000X0.225000X0.250000X-0.225000X0.250000X-0.225000X-0.250000X0.225000X-0.250000X0*%
%ADD41RoundRect,0.225000X0.250000X-0.225000X0.250000X0.225000X-0.250000X0.225000X-0.250000X-0.225000X0*%
%ADD42RoundRect,0.050000X0.100000X-0.285000X0.100000X0.285000X-0.100000X0.285000X-0.100000X-0.285000X0*%
%ADD43R,0.740000X2.790000*%
%ADD44RoundRect,0.225000X-0.250000X0.225000X-0.250000X-0.225000X0.250000X-0.225000X0.250000X0.225000X0*%
%ADD45RoundRect,0.150000X-0.512500X-0.150000X0.512500X-0.150000X0.512500X0.150000X-0.512500X0.150000X0*%
%ADD46R,1.250000X1.000000*%
%ADD47RoundRect,0.218750X0.218750X0.256250X-0.218750X0.256250X-0.218750X-0.256250X0.218750X-0.256250X0*%
%ADD48RoundRect,0.250000X-0.475000X0.250000X-0.475000X-0.250000X0.475000X-0.250000X0.475000X0.250000X0*%
%ADD49RoundRect,0.150000X0.150000X-0.825000X0.150000X0.825000X-0.150000X0.825000X-0.150000X-0.825000X0*%
G04 APERTURE END LIST*
D10*
%TO.C,C44*%
X140688000Y-110744000D03*
X139728000Y-110744000D03*
%TD*%
D11*
%TO.C,T1*%
X140589000Y-121359000D03*
X139319000Y-121359000D03*
X138049000Y-121359000D03*
X136779000Y-121359000D03*
X135509000Y-121359000D03*
X134239000Y-121359000D03*
X132969000Y-121359000D03*
X131699000Y-121359000D03*
X131699000Y-112829000D03*
X132969000Y-112829000D03*
X134239000Y-112829000D03*
X135509000Y-112829000D03*
X136779000Y-112829000D03*
X138049000Y-112829000D03*
X139319000Y-112829000D03*
X140589000Y-112829000D03*
%TD*%
D12*
%TO.C,U4*%
X147775741Y-103628259D03*
X147775741Y-102478259D03*
X147775741Y-101278259D03*
X147775741Y-100128259D03*
X146675741Y-102528259D03*
X146675741Y-101228259D03*
X146625741Y-103628259D03*
X146625741Y-100128259D03*
X145425741Y-103628259D03*
X145425741Y-102478259D03*
X145425741Y-101278259D03*
X145425741Y-100128259D03*
X144275741Y-103628259D03*
X144275741Y-102478259D03*
X144275741Y-101278259D03*
X144275741Y-100128259D03*
D13*
X150463241Y-105628259D03*
X150463241Y-105128259D03*
X150463241Y-104628259D03*
X150463241Y-104128259D03*
X150463241Y-103628259D03*
X150463241Y-103128259D03*
X150463241Y-102628259D03*
X150463241Y-102128259D03*
X150463241Y-101628259D03*
X150463241Y-101128259D03*
X150463241Y-100628259D03*
X150463241Y-100128259D03*
X150463241Y-99628259D03*
X150463241Y-99128259D03*
X150463241Y-98628259D03*
X150463241Y-98128259D03*
D14*
X149775741Y-97440759D03*
X149275741Y-97440759D03*
X148775741Y-97440759D03*
X148275741Y-97440759D03*
X147775741Y-97440759D03*
X147275741Y-97440759D03*
X146775741Y-97440759D03*
X146275741Y-97440759D03*
X145775741Y-97440759D03*
X145275741Y-97440759D03*
X144775741Y-97440759D03*
X144275741Y-97440759D03*
X143775741Y-97440759D03*
X143275741Y-97440759D03*
X142775741Y-97440759D03*
X142275741Y-97440759D03*
D13*
X141588241Y-98128259D03*
X141588241Y-98628259D03*
X141588241Y-99128259D03*
X141588241Y-99628259D03*
X141588241Y-100128259D03*
X141588241Y-100628259D03*
X141588241Y-101128259D03*
X141588241Y-101628259D03*
X141588241Y-102128259D03*
X141588241Y-102628259D03*
X141588241Y-103128259D03*
X141588241Y-103628259D03*
X141588241Y-104128259D03*
X141588241Y-104628259D03*
X141588241Y-105128259D03*
X141588241Y-105628259D03*
D14*
X142275741Y-106315759D03*
X142775741Y-106315759D03*
X143275741Y-106315759D03*
X143775741Y-106315759D03*
X144275741Y-106315759D03*
X144775741Y-106315759D03*
X145275741Y-106315759D03*
X145775741Y-106315759D03*
X146275741Y-106315759D03*
X146775741Y-106315759D03*
X147275741Y-106315759D03*
X147775741Y-106315759D03*
X148275741Y-106315759D03*
X148775741Y-106315759D03*
X149275741Y-106315759D03*
X149775741Y-106315759D03*
%TD*%
D11*
%TO.C,T2*%
X160401000Y-112829000D03*
X159131000Y-112829000D03*
X157861000Y-112829000D03*
X156591000Y-112829000D03*
X155321000Y-112829000D03*
X154051000Y-112829000D03*
X152781000Y-112829000D03*
X151511000Y-112829000D03*
X151511000Y-121359000D03*
X152781000Y-121359000D03*
X154051000Y-121359000D03*
X155321000Y-121359000D03*
X156591000Y-121359000D03*
X157861000Y-121359000D03*
X159131000Y-121359000D03*
X160401000Y-121359000D03*
%TD*%
D10*
%TO.C,C13*%
X154770000Y-84000000D03*
X155730000Y-84000000D03*
%TD*%
D15*
%TO.C,R31*%
X147320000Y-124716000D03*
X147320000Y-123696000D03*
%TD*%
D16*
%TO.C,C3*%
X154800000Y-88520000D03*
X154800000Y-89480000D03*
%TD*%
D17*
%TO.C,C26*%
X148300000Y-94480000D03*
X148300000Y-93520000D03*
%TD*%
D18*
%TO.C,R13*%
X139698000Y-109474000D03*
X140718000Y-109474000D03*
%TD*%
%TO.C,R4*%
X135960000Y-81800000D03*
X134940000Y-81800000D03*
%TD*%
D19*
%TO.C,R18*%
X139446000Y-102149259D03*
X139446000Y-101129259D03*
%TD*%
D20*
%TO.C,R3*%
X137340000Y-81800000D03*
X138360000Y-81800000D03*
%TD*%
D21*
%TO.C,C11*%
X140280000Y-95500000D03*
X139320000Y-95500000D03*
%TD*%
D20*
%TO.C,R25*%
X156340000Y-109000000D03*
X157360000Y-109000000D03*
%TD*%
D21*
%TO.C,C38*%
X133405000Y-107400000D03*
X132445000Y-107400000D03*
%TD*%
%TO.C,C31*%
X160005000Y-104875000D03*
X159045000Y-104875000D03*
%TD*%
%TO.C,C9*%
X153730000Y-95600000D03*
X152770000Y-95600000D03*
%TD*%
D22*
%TO.C,D2*%
X145262500Y-119400000D03*
X146837500Y-119400000D03*
%TD*%
D10*
%TO.C,C41*%
X158770000Y-107450000D03*
X159730000Y-107450000D03*
%TD*%
D23*
%TO.C,J6*%
X154081000Y-123880000D03*
X155331000Y-123880000D03*
X156581000Y-123880000D03*
X157831000Y-123880000D03*
D24*
X152231000Y-127080000D03*
X159681000Y-127080000D03*
%TD*%
D17*
%TO.C,C32*%
X156100000Y-94180000D03*
X156100000Y-93220000D03*
%TD*%
D25*
%TO.C,U2*%
X143800000Y-91675000D03*
X144300000Y-91675000D03*
X144800000Y-91675000D03*
X145300000Y-91675000D03*
X145800000Y-91675000D03*
X146300000Y-91675000D03*
X146800000Y-91675000D03*
X147300000Y-91675000D03*
X147800000Y-91675000D03*
X148300000Y-91675000D03*
X148800000Y-91675000D03*
X149300000Y-91675000D03*
X149800000Y-91675000D03*
X150300000Y-91675000D03*
X150800000Y-91675000D03*
X151300000Y-91675000D03*
D26*
X153225000Y-89750000D03*
X153225000Y-89250000D03*
X153225000Y-88750000D03*
X153225000Y-88250000D03*
X153225000Y-87750000D03*
X153225000Y-87250000D03*
X153225000Y-86750000D03*
X153225000Y-86250000D03*
X153225000Y-85750000D03*
X153225000Y-85250000D03*
X153225000Y-84750000D03*
X153225000Y-84250000D03*
X153225000Y-83750000D03*
X153225000Y-83250000D03*
X153225000Y-82750000D03*
X153225000Y-82250000D03*
D25*
X151300000Y-80325000D03*
X150800000Y-80325000D03*
X150300000Y-80325000D03*
X149800000Y-80325000D03*
X149300000Y-80325000D03*
X148800000Y-80325000D03*
X148300000Y-80325000D03*
X147800000Y-80325000D03*
X147300000Y-80325000D03*
X146800000Y-80325000D03*
X146300000Y-80325000D03*
X145800000Y-80325000D03*
X145300000Y-80325000D03*
X144800000Y-80325000D03*
X144300000Y-80325000D03*
X143800000Y-80325000D03*
D26*
X141875000Y-82250000D03*
X141875000Y-82750000D03*
X141875000Y-83250000D03*
X141875000Y-83750000D03*
X141875000Y-84250000D03*
X141875000Y-84750000D03*
X141875000Y-85250000D03*
X141875000Y-85750000D03*
X141875000Y-86250000D03*
X141875000Y-86750000D03*
X141875000Y-87250000D03*
X141875000Y-87750000D03*
X141875000Y-88250000D03*
X141875000Y-88750000D03*
X141875000Y-89250000D03*
X141875000Y-89750000D03*
%TD*%
D17*
%TO.C,C33*%
X153550000Y-100480000D03*
X153550000Y-99520000D03*
%TD*%
D16*
%TO.C,C39*%
X132050000Y-95770000D03*
X132050000Y-96730000D03*
%TD*%
D27*
%TO.C,D3*%
X141732000Y-127533500D03*
X141732000Y-125958500D03*
%TD*%
D18*
%TO.C,R9*%
X146560000Y-117200000D03*
X145540000Y-117200000D03*
%TD*%
D17*
%TO.C,C17*%
X135550000Y-105480000D03*
X135550000Y-104520000D03*
%TD*%
D22*
%TO.C,FB1*%
X152212500Y-94300000D03*
X153787500Y-94300000D03*
%TD*%
D10*
%TO.C,C49*%
X151770000Y-110500000D03*
X152730000Y-110500000D03*
%TD*%
D17*
%TO.C,C28*%
X140300000Y-97980000D03*
X140300000Y-97020000D03*
%TD*%
D28*
%TO.C,J1*%
X139849994Y-80199994D03*
D29*
X139050000Y-80190000D03*
D30*
X137900000Y-80190000D03*
X136900000Y-80190000D03*
X136400000Y-80190000D03*
X135400000Y-80190000D03*
D29*
X134250000Y-80190000D03*
D31*
X133450001Y-80199999D03*
X133450001Y-80199999D03*
D29*
X134250000Y-80190000D03*
D30*
X134900000Y-80190000D03*
X135900000Y-80190000D03*
X137400000Y-80190000D03*
X138400000Y-80190000D03*
D29*
X139050000Y-80190000D03*
D32*
X139850000Y-80200000D03*
D33*
X140970000Y-79615000D03*
D34*
X140970000Y-75435000D03*
D33*
X132330000Y-79615000D03*
D34*
X132330000Y-75435000D03*
%TD*%
D19*
%TO.C,R2*%
X139850000Y-88110000D03*
X139850000Y-87090000D03*
%TD*%
D10*
%TO.C,C42*%
X133632000Y-110744000D03*
X134592000Y-110744000D03*
%TD*%
D21*
%TO.C,C43*%
X132560000Y-110744000D03*
X131600000Y-110744000D03*
%TD*%
D18*
%TO.C,R26*%
X159560000Y-109000000D03*
X158540000Y-109000000D03*
%TD*%
D15*
%TO.C,R30*%
X148844000Y-123696000D03*
X148844000Y-124716000D03*
%TD*%
D35*
%TO.C,Y1*%
X139450000Y-91825000D03*
X139450000Y-93575000D03*
X140850000Y-93575000D03*
X140850000Y-91825000D03*
%TD*%
D36*
%TO.C,Y2*%
X159250000Y-91850000D03*
X159250000Y-101350000D03*
%TD*%
D18*
%TO.C,R28*%
X152760000Y-109000000D03*
X151740000Y-109000000D03*
%TD*%
D15*
%TO.C,R22*%
X137050000Y-92990000D03*
X137050000Y-94010000D03*
%TD*%
%TO.C,R32*%
X133650000Y-81890000D03*
X133650000Y-82910000D03*
%TD*%
D16*
%TO.C,C29*%
X140350000Y-103395000D03*
X140350000Y-104355000D03*
%TD*%
D10*
%TO.C,C47*%
X158570000Y-110500000D03*
X159530000Y-110500000D03*
%TD*%
D17*
%TO.C,C18*%
X154050000Y-106480000D03*
X154050000Y-105520000D03*
%TD*%
D16*
%TO.C,C2*%
X142430000Y-91680000D03*
X142430000Y-92640000D03*
%TD*%
%TO.C,C22*%
X144988000Y-110772000D03*
X144988000Y-111732000D03*
%TD*%
D17*
%TO.C,C25*%
X151800000Y-96980000D03*
X151800000Y-96020000D03*
%TD*%
%TO.C,C5*%
X142800000Y-79980000D03*
X142800000Y-79020000D03*
%TD*%
D15*
%TO.C,R24*%
X150368000Y-123696000D03*
X150368000Y-124716000D03*
%TD*%
D16*
%TO.C,C40*%
X147320000Y-127226000D03*
X147320000Y-126266000D03*
%TD*%
D18*
%TO.C,R23*%
X134260000Y-102600000D03*
X133240000Y-102600000D03*
%TD*%
D37*
%TO.C,FB5*%
X147677000Y-113062000D03*
X147677000Y-114532000D03*
%TD*%
D16*
%TO.C,C24*%
X146177000Y-112767000D03*
X146177000Y-113727000D03*
%TD*%
D21*
%TO.C,C45*%
X137696000Y-110744000D03*
X138656000Y-110744000D03*
%TD*%
D38*
%TO.C,U3*%
X136100000Y-89300000D03*
X136100000Y-87000000D03*
D39*
X129800000Y-87000000D03*
D38*
X136100000Y-84700000D03*
%TD*%
D20*
%TO.C,R14*%
X137666000Y-109474000D03*
X138686000Y-109474000D03*
%TD*%
D21*
%TO.C,C7*%
X150970000Y-93390000D03*
X150010000Y-93390000D03*
%TD*%
D16*
%TO.C,C30*%
X151850000Y-101720000D03*
X151850000Y-102680000D03*
%TD*%
D10*
%TO.C,C50*%
X131670000Y-82900000D03*
X132630000Y-82900000D03*
%TD*%
D37*
%TO.C,FB3*%
X136800000Y-102765000D03*
X136800000Y-104235000D03*
%TD*%
D16*
%TO.C,C37*%
X144780000Y-126266000D03*
X144780000Y-127226000D03*
%TD*%
%TO.C,C4*%
X154850000Y-82120000D03*
X154850000Y-83080000D03*
%TD*%
D40*
%TO.C,C52*%
X130525000Y-75400000D03*
X128975000Y-75400000D03*
%TD*%
D20*
%TO.C,R1*%
X156690000Y-82650000D03*
X157710000Y-82650000D03*
%TD*%
D21*
%TO.C,C8*%
X150970000Y-94390000D03*
X150010000Y-94390000D03*
%TD*%
D10*
%TO.C,C10*%
X158720000Y-82650000D03*
X159680000Y-82650000D03*
%TD*%
D21*
%TO.C,C48*%
X150530000Y-110500000D03*
X149570000Y-110500000D03*
%TD*%
D17*
%TO.C,C19*%
X155650000Y-106480000D03*
X155650000Y-105520000D03*
%TD*%
%TO.C,C12*%
X137850000Y-91980000D03*
X137850000Y-91020000D03*
%TD*%
D41*
%TO.C,C14*%
X138600000Y-85775000D03*
X138600000Y-84225000D03*
%TD*%
D20*
%TO.C,R29*%
X158440000Y-106400000D03*
X159460000Y-106400000D03*
%TD*%
D42*
%TO.C,U6*%
X129100000Y-82040000D03*
X129600000Y-82040000D03*
X130100000Y-82040000D03*
X130600000Y-82040000D03*
X130600000Y-80560000D03*
X130100000Y-80560000D03*
X129600000Y-80560000D03*
X129100000Y-80560000D03*
%TD*%
D21*
%TO.C,C36*%
X140280000Y-99000000D03*
X139320000Y-99000000D03*
%TD*%
D19*
%TO.C,R19*%
X138938000Y-104650000D03*
X138938000Y-103630000D03*
%TD*%
D15*
%TO.C,R17*%
X144780000Y-123696000D03*
X144780000Y-124716000D03*
%TD*%
D20*
%TO.C,R12*%
X131570000Y-109474000D03*
X132590000Y-109474000D03*
%TD*%
D16*
%TO.C,C20*%
X147977000Y-110317000D03*
X147977000Y-111277000D03*
%TD*%
D15*
%TO.C,R20*%
X143256000Y-124716000D03*
X143256000Y-123696000D03*
%TD*%
D16*
%TO.C,C21*%
X147007000Y-110317000D03*
X147007000Y-111277000D03*
%TD*%
D37*
%TO.C,FB4*%
X157050000Y-105165000D03*
X157050000Y-106635000D03*
%TD*%
D15*
%TO.C,R10*%
X141732000Y-123696000D03*
X141732000Y-124716000D03*
%TD*%
D10*
%TO.C,C27*%
X142570000Y-94400000D03*
X143530000Y-94400000D03*
%TD*%
D18*
%TO.C,R6*%
X149860000Y-76700000D03*
X148840000Y-76700000D03*
%TD*%
D43*
%TO.C,J2*%
X162460000Y-75965000D03*
X162460000Y-80035000D03*
X161190000Y-75965000D03*
X161190000Y-80035000D03*
X159920000Y-75965000D03*
X159920000Y-80035000D03*
X158650000Y-75965000D03*
X158650000Y-80035000D03*
X157380000Y-75965000D03*
X157380000Y-80035000D03*
X156110000Y-75965000D03*
X156110000Y-80035000D03*
X154840000Y-75965000D03*
X154840000Y-80035000D03*
%TD*%
D27*
%TO.C,D4*%
X150368000Y-127533500D03*
X150368000Y-125958500D03*
%TD*%
D18*
%TO.C,R33*%
X135660000Y-82900000D03*
X134640000Y-82900000D03*
%TD*%
D44*
%TO.C,C1*%
X154800000Y-96825000D03*
X154800000Y-98375000D03*
%TD*%
D18*
%TO.C,R11*%
X133602000Y-109474000D03*
X134622000Y-109474000D03*
%TD*%
D20*
%TO.C,R16*%
X145540000Y-115824000D03*
X146560000Y-115824000D03*
%TD*%
D23*
%TO.C,J5*%
X134269000Y-123880000D03*
X135519000Y-123880000D03*
X136769000Y-123880000D03*
X138019000Y-123880000D03*
D24*
X132419000Y-127080000D03*
X139869000Y-127080000D03*
%TD*%
D45*
%TO.C,U1*%
X144012500Y-75750000D03*
X144012500Y-76700000D03*
X144012500Y-77650000D03*
X146287500Y-77650000D03*
X146287500Y-76700000D03*
X146287500Y-75750000D03*
%TD*%
D17*
%TO.C,C6*%
X140300000Y-89980000D03*
X140300000Y-89020000D03*
%TD*%
%TO.C,C34*%
X152550000Y-100480000D03*
X152550000Y-99520000D03*
%TD*%
D46*
%TO.C,SW1*%
X163375000Y-85250000D03*
X155625000Y-85250000D03*
%TD*%
D18*
%TO.C,R7*%
X155160000Y-103900000D03*
X154140000Y-103900000D03*
%TD*%
D17*
%TO.C,C35*%
X146300000Y-94480000D03*
X146300000Y-93520000D03*
%TD*%
D47*
%TO.C,D1*%
X151387500Y-75400000D03*
X149812500Y-75400000D03*
%TD*%
D21*
%TO.C,C46*%
X157330000Y-110500000D03*
X156370000Y-110500000D03*
%TD*%
D48*
%TO.C,C15*%
X138350000Y-87250000D03*
X138350000Y-89150000D03*
%TD*%
D15*
%TO.C,R21*%
X135800000Y-92990000D03*
X135800000Y-94010000D03*
%TD*%
D17*
%TO.C,C16*%
X134050000Y-104580000D03*
X134050000Y-103620000D03*
%TD*%
D49*
%TO.C,U5*%
X133395000Y-100725000D03*
X134665000Y-100725000D03*
X135935000Y-100725000D03*
X137205000Y-100725000D03*
X137205000Y-95775000D03*
X135935000Y-95775000D03*
X134665000Y-95775000D03*
X133395000Y-95775000D03*
%TD*%
D37*
%TO.C,FB2*%
X154800000Y-101985000D03*
X154800000Y-100515000D03*
%TD*%
D18*
%TO.C,R15*%
X133560000Y-106000000D03*
X132540000Y-106000000D03*
%TD*%
D15*
%TO.C,R5*%
X153350000Y-77940000D03*
X153350000Y-78960000D03*
%TD*%
D20*
%TO.C,R8*%
X144217000Y-112797000D03*
X145237000Y-112797000D03*
%TD*%
%TO.C,R27*%
X149540000Y-109000000D03*
X150560000Y-109000000D03*
%TD*%
D16*
%TO.C,C23*%
X144018000Y-110772000D03*
X144018000Y-111732000D03*
%TD*%
D19*
%TO.C,R34*%
X129150000Y-79510000D03*
X129150000Y-78490000D03*
%TD*%
D17*
%TO.C,C51*%
X130800000Y-79480000D03*
X130800000Y-78520000D03*
%TD*%
M02*
