%TF.GenerationSoftware,KiCad,Pcbnew,9.0.5*%
%TF.CreationDate,2026-03-15T20:25:33-06:00*%
%TF.ProjectId,EtherCatDevBoard_V1-1,45746865-7243-4617-9444-6576426f6172,rev?*%
%TF.SameCoordinates,Original*%
%TF.FileFunction,Copper,L2,Inr*%
%TF.FilePolarity,Positive*%
%FSLAX46Y46*%
G04 Gerber Fmt 4.6, Leading zero omitted, Abs format (unit mm)*
G04 Created by KiCad (PCBNEW 9.0.5) date 2026-03-15 20:25:33*
%MOMM*%
%LPD*%
G01*
G04 APERTURE LIST*
%TA.AperFunction,HeatsinkPad*%
%ADD10C,0.650000*%
%TD*%
%TA.AperFunction,HeatsinkPad*%
%ADD11O,1.000000X2.100000*%
%TD*%
%TA.AperFunction,HeatsinkPad*%
%ADD12O,1.000000X1.800000*%
%TD*%
%TA.AperFunction,ComponentPad*%
%ADD13R,1.700000X1.700000*%
%TD*%
%TA.AperFunction,ComponentPad*%
%ADD14C,1.700000*%
%TD*%
%TA.AperFunction,ViaPad*%
%ADD15C,0.600000*%
%TD*%
G04 APERTURE END LIST*
D10*
%TO.N,GND*%
%TO.C,U4*%
X148375741Y-104228259D03*
X148375741Y-103053259D03*
X148375741Y-101878259D03*
X148375741Y-100703259D03*
X148375741Y-99528259D03*
X147200741Y-104228259D03*
X147200741Y-103053259D03*
X147200741Y-101878259D03*
X147200741Y-100703259D03*
X147200741Y-99528259D03*
X146025741Y-104228259D03*
X146025741Y-103053259D03*
X146025741Y-101878259D03*
X146025741Y-100703259D03*
X146025741Y-99528259D03*
X144850741Y-104228259D03*
X144850741Y-103053259D03*
X144850741Y-101878259D03*
X144850741Y-100703259D03*
X144850741Y-99528259D03*
X143675741Y-104228259D03*
X143675741Y-103053259D03*
X143675741Y-101878259D03*
X143675741Y-100703259D03*
X143675741Y-99528259D03*
%TD*%
D11*
%TO.N,GND*%
%TO.C,J1*%
X140970000Y-79615000D03*
D12*
X140970000Y-75435000D03*
D11*
X132330000Y-79615000D03*
D12*
X132330000Y-75435000D03*
%TD*%
D13*
%TO.N,/STM32F446RC/3.3V_Battery*%
%TO.C,J4*%
X127000000Y-76200000D03*
D14*
%TO.N,GND*%
X127000000Y-78740000D03*
%TO.N,+3.3V*%
X127000000Y-81280000D03*
%TO.N,GND*%
X127000000Y-83820000D03*
%TO.N,/STM32F446RC/PA8*%
X127000000Y-86360000D03*
%TO.N,/STM32F446RC/PA9*%
X127000000Y-88900000D03*
%TO.N,/STM32F446RC/PA10*%
X127000000Y-91440000D03*
%TO.N,/STM32F446RC/PA15*%
X127000000Y-93980000D03*
%TO.N,/STM32F446RC/PC10*%
X127000000Y-96520000D03*
%TO.N,/STM32F446RC/PC11*%
X127000000Y-99060000D03*
%TO.N,/STM32F446RC/PC12*%
X127000000Y-101600000D03*
%TO.N,/STM32F446RC/PD2*%
X127000000Y-104140000D03*
%TO.N,/STM32F446RC/PB4*%
X127000000Y-106680000D03*
%TO.N,/STM32F446RC/PB5*%
X127000000Y-109220000D03*
%TO.N,/STM32F446RC/PB6*%
X127000000Y-111760000D03*
%TO.N,/STM32F446RC/PB7*%
X127000000Y-114300000D03*
%TO.N,/STM32F446RC/PB8*%
X127000000Y-116840000D03*
%TO.N,/STM32F446RC/PB9*%
X127000000Y-119380000D03*
%TO.N,/STM32F446RC/PC13*%
X127000000Y-121920000D03*
%TO.N,/STM32F446RC/PC14*%
X127000000Y-124460000D03*
%TD*%
D13*
%TO.N,/STM32F446RC/PC0*%
%TO.C,J3*%
X165100000Y-127000000D03*
D14*
%TO.N,/STM32F446RC/PC1*%
X165100000Y-124460000D03*
%TO.N,/STM32F446RC/PC2*%
X165100000Y-121920000D03*
%TO.N,/STM32F446RC/PC3*%
X165100000Y-119380000D03*
%TO.N,/STM32F446RC/PA0*%
X165100000Y-116840000D03*
%TO.N,/STM32F446RC/PA1*%
X165100000Y-114300000D03*
%TO.N,/STM32F446RC/PA4*%
X165100000Y-111760000D03*
%TO.N,/STM32F446RC/PC5*%
X165100000Y-109220000D03*
%TO.N,/STM32F446RC/PB0*%
X165100000Y-106680000D03*
%TO.N,/STM32F446RC/PB1*%
X165100000Y-104140000D03*
%TO.N,/STM32F446RC/PB2*%
X165100000Y-101600000D03*
%TO.N,/STM32F446RC/PB10*%
X165100000Y-99060000D03*
%TO.N,/STM32F446RC/PB12*%
X165100000Y-96520000D03*
%TO.N,/STM32F446RC/PB13*%
X165100000Y-93980000D03*
%TO.N,/STM32F446RC/PB14*%
X165100000Y-91440000D03*
%TO.N,/STM32F446RC/PB15*%
X165100000Y-88900000D03*
%TO.N,/STM32F446RC/PC9*%
X165100000Y-86360000D03*
%TO.N,/STM32F446RC/PC8*%
X165100000Y-83820000D03*
%TO.N,/STM32F446RC/PC7*%
X165100000Y-81280000D03*
%TO.N,/STM32F446RC/PC6*%
X165100000Y-78740000D03*
%TD*%
D15*
%TO.N,/LAN9252/VDD33TXRX1*%
X131064000Y-109474000D03*
%TO.N,GND*%
X131064000Y-110744000D03*
X141224000Y-110744000D03*
%TO.N,/LAN9252/VDD33TXRX1*%
X141224000Y-109474000D03*
X137160000Y-109474000D03*
X135128000Y-109474000D03*
%TO.N,Net-(C38-Pad1)*%
X133096000Y-111506000D03*
X139192000Y-111506000D03*
%TO.N,GND*%
X135128000Y-110744000D03*
%TO.N,Net-(R31-Pad1)*%
X153416000Y-122682000D03*
%TO.N,Net-(R20-Pad1)*%
X143256000Y-123190000D03*
X133604000Y-122682000D03*
%TO.N,Net-(R31-Pad1)*%
X147320000Y-123190000D03*
%TO.N,Net-(R17-Pad1)*%
X144780000Y-123190000D03*
X138684000Y-122682000D03*
%TO.N,GND*%
X150368000Y-128200000D03*
X141732000Y-128200000D03*
%TO.N,Net-(R30-Pad1)*%
X158496000Y-122682000D03*
X148844000Y-123190000D03*
%TO.N,GND*%
X137160000Y-110744000D03*
%TD*%
%TA.AperFunction,Conductor*%
%TO.N,GND*%
G36*
X131350464Y-74520185D02*
G01*
X131396219Y-74572989D01*
X131406163Y-74642147D01*
X131397986Y-74671952D01*
X131368430Y-74743306D01*
X131368427Y-74743318D01*
X131330000Y-74936504D01*
X131330000Y-75185000D01*
X132030000Y-75185000D01*
X132030000Y-75685000D01*
X131330000Y-75685000D01*
X131330000Y-75933495D01*
X131368427Y-76126681D01*
X131368430Y-76126693D01*
X131443807Y-76308671D01*
X131443814Y-76308684D01*
X131553248Y-76472462D01*
X131553251Y-76472466D01*
X131692533Y-76611748D01*
X131692537Y-76611751D01*
X131856315Y-76721185D01*
X131856328Y-76721192D01*
X132038308Y-76796569D01*
X132080000Y-76804862D01*
X132080000Y-76001988D01*
X132089940Y-76019205D01*
X132145795Y-76075060D01*
X132214204Y-76114556D01*
X132290504Y-76135000D01*
X132369496Y-76135000D01*
X132445796Y-76114556D01*
X132514205Y-76075060D01*
X132570060Y-76019205D01*
X132580000Y-76001988D01*
X132580000Y-76804862D01*
X132621690Y-76796569D01*
X132621692Y-76796569D01*
X132803671Y-76721192D01*
X132803684Y-76721185D01*
X132967462Y-76611751D01*
X132967466Y-76611748D01*
X133106748Y-76472466D01*
X133106751Y-76472462D01*
X133216185Y-76308684D01*
X133216192Y-76308671D01*
X133291569Y-76126693D01*
X133291572Y-76126681D01*
X133329999Y-75933495D01*
X133330000Y-75933492D01*
X133330000Y-75685000D01*
X132630000Y-75685000D01*
X132630000Y-75185000D01*
X133330000Y-75185000D01*
X133330000Y-74936508D01*
X133329999Y-74936504D01*
X133291572Y-74743318D01*
X133291569Y-74743306D01*
X133262014Y-74671952D01*
X133254545Y-74602483D01*
X133285821Y-74540004D01*
X133345910Y-74504352D01*
X133376575Y-74500500D01*
X139923425Y-74500500D01*
X139990464Y-74520185D01*
X140036219Y-74572989D01*
X140046163Y-74642147D01*
X140037986Y-74671952D01*
X140008430Y-74743306D01*
X140008427Y-74743318D01*
X139970000Y-74936504D01*
X139970000Y-75185000D01*
X140670000Y-75185000D01*
X140670000Y-75685000D01*
X139970000Y-75685000D01*
X139970000Y-75933495D01*
X140008427Y-76126681D01*
X140008430Y-76126693D01*
X140083807Y-76308671D01*
X140083814Y-76308684D01*
X140193248Y-76472462D01*
X140193251Y-76472466D01*
X140332533Y-76611748D01*
X140332537Y-76611751D01*
X140496315Y-76721185D01*
X140496328Y-76721192D01*
X140678308Y-76796569D01*
X140720000Y-76804862D01*
X140720000Y-76001988D01*
X140729940Y-76019205D01*
X140785795Y-76075060D01*
X140854204Y-76114556D01*
X140930504Y-76135000D01*
X141009496Y-76135000D01*
X141085796Y-76114556D01*
X141154205Y-76075060D01*
X141210060Y-76019205D01*
X141220000Y-76001988D01*
X141220000Y-76804862D01*
X141261690Y-76796569D01*
X141261692Y-76796569D01*
X141443671Y-76721192D01*
X141443684Y-76721185D01*
X141607462Y-76611751D01*
X141607466Y-76611748D01*
X141746748Y-76472466D01*
X141746751Y-76472462D01*
X141856185Y-76308684D01*
X141856192Y-76308671D01*
X141869525Y-76276481D01*
X164323499Y-76276481D01*
X164353339Y-76426491D01*
X164353342Y-76426501D01*
X164411873Y-76567809D01*
X164411875Y-76567812D01*
X164496849Y-76694985D01*
X164496855Y-76694993D01*
X164605006Y-76803144D01*
X164605014Y-76803150D01*
X164732187Y-76888124D01*
X164732190Y-76888126D01*
X164873498Y-76946657D01*
X164873503Y-76946659D01*
X164873507Y-76946659D01*
X164873508Y-76946660D01*
X165023518Y-76976500D01*
X165023521Y-76976500D01*
X165176481Y-76976500D01*
X165277404Y-76956424D01*
X165326497Y-76946659D01*
X165467811Y-76888125D01*
X165594990Y-76803147D01*
X165703147Y-76694990D01*
X165788125Y-76567811D01*
X165846659Y-76426497D01*
X165870094Y-76308684D01*
X165876500Y-76276481D01*
X165876500Y-76123518D01*
X165846660Y-75973508D01*
X165846659Y-75973507D01*
X165846659Y-75973503D01*
X165846657Y-75973498D01*
X165788126Y-75832190D01*
X165788124Y-75832187D01*
X165703150Y-75705014D01*
X165703144Y-75705006D01*
X165594993Y-75596855D01*
X165594985Y-75596849D01*
X165467812Y-75511875D01*
X165467809Y-75511873D01*
X165326501Y-75453342D01*
X165326491Y-75453339D01*
X165176481Y-75423500D01*
X165176479Y-75423500D01*
X165023521Y-75423500D01*
X165023519Y-75423500D01*
X164873508Y-75453339D01*
X164873498Y-75453342D01*
X164732190Y-75511873D01*
X164732187Y-75511875D01*
X164605014Y-75596849D01*
X164605006Y-75596855D01*
X164496855Y-75705006D01*
X164496849Y-75705014D01*
X164411875Y-75832187D01*
X164411873Y-75832190D01*
X164353342Y-75973498D01*
X164353339Y-75973508D01*
X164323500Y-76123518D01*
X164323500Y-76123521D01*
X164323500Y-76276479D01*
X164323500Y-76276481D01*
X164323499Y-76276481D01*
X141869525Y-76276481D01*
X141931569Y-76126693D01*
X141931570Y-76126689D01*
X141938224Y-76093239D01*
X141938225Y-76093236D01*
X141969999Y-75933495D01*
X141970000Y-75933492D01*
X141970000Y-75685000D01*
X141270000Y-75685000D01*
X141270000Y-75185000D01*
X141970000Y-75185000D01*
X141970000Y-74936508D01*
X141969999Y-74936504D01*
X141931572Y-74743318D01*
X141931569Y-74743306D01*
X141902014Y-74671952D01*
X141894545Y-74602483D01*
X141925821Y-74540004D01*
X141985910Y-74504352D01*
X142016575Y-74500500D01*
X165984108Y-74500500D01*
X166045572Y-74500500D01*
X166054418Y-74500816D01*
X166254561Y-74515130D01*
X166272063Y-74517647D01*
X166463797Y-74559355D01*
X166480755Y-74564334D01*
X166664609Y-74632909D01*
X166680701Y-74640259D01*
X166852904Y-74734288D01*
X166867784Y-74743849D01*
X167024867Y-74861441D01*
X167038237Y-74873027D01*
X167176972Y-75011762D01*
X167188558Y-75025132D01*
X167296555Y-75169399D01*
X167306146Y-75182210D01*
X167315711Y-75197095D01*
X167409740Y-75369298D01*
X167417090Y-75385390D01*
X167485662Y-75569236D01*
X167490646Y-75586212D01*
X167532351Y-75777931D01*
X167534869Y-75795442D01*
X167549184Y-75995580D01*
X167549500Y-76004427D01*
X167549500Y-126995572D01*
X167549184Y-127004419D01*
X167534869Y-127204557D01*
X167532351Y-127222068D01*
X167490646Y-127413787D01*
X167485662Y-127430763D01*
X167417090Y-127614609D01*
X167409740Y-127630701D01*
X167315711Y-127802904D01*
X167306146Y-127817789D01*
X167188558Y-127974867D01*
X167176972Y-127988237D01*
X167038237Y-128126972D01*
X167024867Y-128138558D01*
X166867789Y-128256146D01*
X166852904Y-128265711D01*
X166680701Y-128359740D01*
X166664609Y-128367090D01*
X166480763Y-128435662D01*
X166463787Y-128440646D01*
X166272068Y-128482351D01*
X166254557Y-128484869D01*
X166073779Y-128497799D01*
X166054417Y-128499184D01*
X166045572Y-128499500D01*
X126054428Y-128499500D01*
X126045582Y-128499184D01*
X126023622Y-128497613D01*
X125845442Y-128484869D01*
X125827931Y-128482351D01*
X125636212Y-128440646D01*
X125619236Y-128435662D01*
X125435390Y-128367090D01*
X125419298Y-128359740D01*
X125247095Y-128265711D01*
X125232210Y-128256146D01*
X125075132Y-128138558D01*
X125061762Y-128126972D01*
X124923027Y-127988237D01*
X124911441Y-127974867D01*
X124836440Y-127874678D01*
X124793849Y-127817784D01*
X124784288Y-127802904D01*
X124690259Y-127630701D01*
X124682909Y-127614609D01*
X124622091Y-127451551D01*
X124614334Y-127430755D01*
X124609355Y-127413797D01*
X124567647Y-127222063D01*
X124565130Y-127204556D01*
X124555970Y-127076481D01*
X126223499Y-127076481D01*
X126253339Y-127226491D01*
X126253342Y-127226501D01*
X126311873Y-127367809D01*
X126311875Y-127367812D01*
X126396849Y-127494985D01*
X126396855Y-127494993D01*
X126505006Y-127603144D01*
X126505014Y-127603150D01*
X126632187Y-127688124D01*
X126632190Y-127688126D01*
X126770140Y-127745266D01*
X126773503Y-127746659D01*
X126773507Y-127746659D01*
X126773508Y-127746660D01*
X126923518Y-127776500D01*
X126923521Y-127776500D01*
X127076481Y-127776500D01*
X127177404Y-127756424D01*
X127226497Y-127746659D01*
X127367811Y-127688125D01*
X127494990Y-127603147D01*
X127603147Y-127494990D01*
X127688125Y-127367811D01*
X127746659Y-127226497D01*
X127756424Y-127177404D01*
X127776500Y-127076481D01*
X127776500Y-126923518D01*
X127746660Y-126773508D01*
X127746659Y-126773507D01*
X127746659Y-126773503D01*
X127746657Y-126773498D01*
X127688126Y-126632190D01*
X127688124Y-126632187D01*
X127603150Y-126505014D01*
X127603144Y-126505006D01*
X127494993Y-126396855D01*
X127494985Y-126396849D01*
X127367812Y-126311875D01*
X127367809Y-126311873D01*
X127226501Y-126253342D01*
X127226491Y-126253339D01*
X127163709Y-126240851D01*
X127076481Y-126223500D01*
X127076479Y-126223500D01*
X126923521Y-126223500D01*
X126923519Y-126223500D01*
X126773508Y-126253339D01*
X126773498Y-126253342D01*
X126632190Y-126311873D01*
X126632187Y-126311875D01*
X126505014Y-126396849D01*
X126505006Y-126396855D01*
X126396855Y-126505006D01*
X126396849Y-126505014D01*
X126311875Y-126632187D01*
X126311873Y-126632190D01*
X126253342Y-126773498D01*
X126253339Y-126773508D01*
X126223500Y-126923518D01*
X126223500Y-126923521D01*
X126223500Y-127076479D01*
X126223500Y-127076481D01*
X126223499Y-127076481D01*
X124555970Y-127076481D01*
X124550816Y-127004418D01*
X124550500Y-126995572D01*
X124550500Y-126125321D01*
X163999500Y-126125321D01*
X163999500Y-127874678D01*
X164014032Y-127947735D01*
X164014033Y-127947739D01*
X164014034Y-127947740D01*
X164069399Y-128030601D01*
X164152260Y-128085966D01*
X164152264Y-128085967D01*
X164225321Y-128100499D01*
X164225324Y-128100500D01*
X164225326Y-128100500D01*
X165974676Y-128100500D01*
X165974677Y-128100499D01*
X166047740Y-128085966D01*
X166130601Y-128030601D01*
X166185966Y-127947740D01*
X166200500Y-127874674D01*
X166200500Y-126125326D01*
X166200500Y-126125323D01*
X166200499Y-126125321D01*
X166185967Y-126052264D01*
X166185966Y-126052260D01*
X166130601Y-125969399D01*
X166047740Y-125914034D01*
X166047739Y-125914033D01*
X166047735Y-125914032D01*
X165974677Y-125899500D01*
X165974674Y-125899500D01*
X164225326Y-125899500D01*
X164225323Y-125899500D01*
X164152264Y-125914032D01*
X164152260Y-125914033D01*
X164069399Y-125969399D01*
X164014033Y-126052260D01*
X164014032Y-126052264D01*
X163999500Y-126125321D01*
X124550500Y-126125321D01*
X124550500Y-124373389D01*
X125899500Y-124373389D01*
X125899500Y-124546611D01*
X125926598Y-124717701D01*
X125980127Y-124882445D01*
X126058768Y-125036788D01*
X126160586Y-125176928D01*
X126283072Y-125299414D01*
X126423212Y-125401232D01*
X126577555Y-125479873D01*
X126742299Y-125533402D01*
X126913389Y-125560500D01*
X126913390Y-125560500D01*
X127086610Y-125560500D01*
X127086611Y-125560500D01*
X127257701Y-125533402D01*
X127422445Y-125479873D01*
X127576788Y-125401232D01*
X127716928Y-125299414D01*
X127839414Y-125176928D01*
X127941232Y-125036788D01*
X128019873Y-124882445D01*
X128073402Y-124717701D01*
X128100500Y-124546611D01*
X128100500Y-124373389D01*
X163999500Y-124373389D01*
X163999500Y-124546611D01*
X164026598Y-124717701D01*
X164080127Y-124882445D01*
X164158768Y-125036788D01*
X164260586Y-125176928D01*
X164383072Y-125299414D01*
X164523212Y-125401232D01*
X164677555Y-125479873D01*
X164842299Y-125533402D01*
X165013389Y-125560500D01*
X165013390Y-125560500D01*
X165186610Y-125560500D01*
X165186611Y-125560500D01*
X165357701Y-125533402D01*
X165522445Y-125479873D01*
X165676788Y-125401232D01*
X165816928Y-125299414D01*
X165939414Y-125176928D01*
X166041232Y-125036788D01*
X166119873Y-124882445D01*
X166173402Y-124717701D01*
X166200500Y-124546611D01*
X166200500Y-124373389D01*
X166173402Y-124202299D01*
X166119873Y-124037555D01*
X166041232Y-123883212D01*
X165939414Y-123743072D01*
X165816928Y-123620586D01*
X165676788Y-123518768D01*
X165522445Y-123440127D01*
X165357701Y-123386598D01*
X165357699Y-123386597D01*
X165357698Y-123386597D01*
X165226271Y-123365781D01*
X165186611Y-123359500D01*
X165013389Y-123359500D01*
X164973728Y-123365781D01*
X164842302Y-123386597D01*
X164677552Y-123440128D01*
X164523211Y-123518768D01*
X164443256Y-123576859D01*
X164383072Y-123620586D01*
X164383070Y-123620588D01*
X164383069Y-123620588D01*
X164260588Y-123743069D01*
X164260588Y-123743070D01*
X164260586Y-123743072D01*
X164216859Y-123803256D01*
X164158768Y-123883211D01*
X164080128Y-124037552D01*
X164026597Y-124202302D01*
X163999500Y-124373389D01*
X128100500Y-124373389D01*
X128073402Y-124202299D01*
X128019873Y-124037555D01*
X127941232Y-123883212D01*
X127839414Y-123743072D01*
X127716928Y-123620586D01*
X127576788Y-123518768D01*
X127422445Y-123440127D01*
X127257701Y-123386598D01*
X127257699Y-123386597D01*
X127257698Y-123386597D01*
X127126271Y-123365781D01*
X127086611Y-123359500D01*
X126913389Y-123359500D01*
X126873728Y-123365781D01*
X126742302Y-123386597D01*
X126577552Y-123440128D01*
X126423211Y-123518768D01*
X126343256Y-123576859D01*
X126283072Y-123620586D01*
X126283070Y-123620588D01*
X126283069Y-123620588D01*
X126160588Y-123743069D01*
X126160588Y-123743070D01*
X126160586Y-123743072D01*
X126116859Y-123803256D01*
X126058768Y-123883211D01*
X125980128Y-124037552D01*
X125926597Y-124202302D01*
X125899500Y-124373389D01*
X124550500Y-124373389D01*
X124550500Y-121833389D01*
X125899500Y-121833389D01*
X125899500Y-122006610D01*
X125926011Y-122174000D01*
X125926598Y-122177701D01*
X125980127Y-122342445D01*
X126058768Y-122496788D01*
X126160586Y-122636928D01*
X126283072Y-122759414D01*
X126423212Y-122861232D01*
X126577555Y-122939873D01*
X126742299Y-122993402D01*
X126913389Y-123020500D01*
X126913390Y-123020500D01*
X127086610Y-123020500D01*
X127086611Y-123020500D01*
X127257701Y-122993402D01*
X127422445Y-122939873D01*
X127576788Y-122861232D01*
X127716928Y-122759414D01*
X127839414Y-122636928D01*
X127941232Y-122496788D01*
X128019873Y-122342445D01*
X128073402Y-122177701D01*
X128100500Y-122006611D01*
X128100500Y-121833389D01*
X128073402Y-121662299D01*
X128019873Y-121497555D01*
X127941232Y-121343212D01*
X127839414Y-121203072D01*
X127716928Y-121080586D01*
X127576788Y-120978768D01*
X127422445Y-120900127D01*
X127257701Y-120846598D01*
X127257699Y-120846597D01*
X127257698Y-120846597D01*
X127126271Y-120825781D01*
X127086611Y-120819500D01*
X126913389Y-120819500D01*
X126873728Y-120825781D01*
X126742302Y-120846597D01*
X126577552Y-120900128D01*
X126423211Y-120978768D01*
X126343256Y-121036859D01*
X126283072Y-121080586D01*
X126283070Y-121080588D01*
X126283069Y-121080588D01*
X126160588Y-121203069D01*
X126160588Y-121203070D01*
X126160586Y-121203072D01*
X126116859Y-121263256D01*
X126058768Y-121343211D01*
X125980128Y-121497552D01*
X125926597Y-121662302D01*
X125899500Y-121833389D01*
X124550500Y-121833389D01*
X124550500Y-119293389D01*
X125899500Y-119293389D01*
X125899500Y-119466611D01*
X125926598Y-119637701D01*
X125980127Y-119802445D01*
X126058768Y-119956788D01*
X126160586Y-120096928D01*
X126283072Y-120219414D01*
X126423212Y-120321232D01*
X126577555Y-120399873D01*
X126742299Y-120453402D01*
X126913389Y-120480500D01*
X126913390Y-120480500D01*
X127086610Y-120480500D01*
X127086611Y-120480500D01*
X127257701Y-120453402D01*
X127422445Y-120399873D01*
X127576788Y-120321232D01*
X127716928Y-120219414D01*
X127839414Y-120096928D01*
X127941232Y-119956788D01*
X128019873Y-119802445D01*
X128073402Y-119637701D01*
X128100500Y-119466611D01*
X128100500Y-119293389D01*
X128073402Y-119122299D01*
X128019873Y-118957555D01*
X127941232Y-118803212D01*
X127839414Y-118663072D01*
X127716928Y-118540586D01*
X127576788Y-118438768D01*
X127422445Y-118360127D01*
X127257701Y-118306598D01*
X127257699Y-118306597D01*
X127257698Y-118306597D01*
X127126271Y-118285781D01*
X127086611Y-118279500D01*
X126913389Y-118279500D01*
X126873728Y-118285781D01*
X126742302Y-118306597D01*
X126577552Y-118360128D01*
X126423211Y-118438768D01*
X126343256Y-118496859D01*
X126283072Y-118540586D01*
X126283070Y-118540588D01*
X126283069Y-118540588D01*
X126160588Y-118663069D01*
X126160588Y-118663070D01*
X126160586Y-118663072D01*
X126116859Y-118723256D01*
X126058768Y-118803211D01*
X125980128Y-118957552D01*
X125926597Y-119122302D01*
X125899500Y-119293389D01*
X124550500Y-119293389D01*
X124550500Y-116753389D01*
X125899500Y-116753389D01*
X125899500Y-116926611D01*
X125926598Y-117097701D01*
X125980127Y-117262445D01*
X126058768Y-117416788D01*
X126160586Y-117556928D01*
X126283072Y-117679414D01*
X126423212Y-117781232D01*
X126577555Y-117859873D01*
X126742299Y-117913402D01*
X126913389Y-117940500D01*
X126913390Y-117940500D01*
X127086610Y-117940500D01*
X127086611Y-117940500D01*
X127257701Y-117913402D01*
X127422445Y-117859873D01*
X127576788Y-117781232D01*
X127716928Y-117679414D01*
X127839414Y-117556928D01*
X127941232Y-117416788D01*
X128019873Y-117262445D01*
X128073402Y-117097701D01*
X128100500Y-116926611D01*
X128100500Y-116753389D01*
X128073402Y-116582299D01*
X128019873Y-116417555D01*
X127941232Y-116263212D01*
X127839414Y-116123072D01*
X127716928Y-116000586D01*
X127576788Y-115898768D01*
X127422445Y-115820127D01*
X127257701Y-115766598D01*
X127257699Y-115766597D01*
X127257698Y-115766597D01*
X127126271Y-115745781D01*
X127086611Y-115739500D01*
X126913389Y-115739500D01*
X126873728Y-115745781D01*
X126742302Y-115766597D01*
X126577552Y-115820128D01*
X126423211Y-115898768D01*
X126343256Y-115956859D01*
X126283072Y-116000586D01*
X126283070Y-116000588D01*
X126283069Y-116000588D01*
X126160588Y-116123069D01*
X126160588Y-116123070D01*
X126160586Y-116123072D01*
X126116859Y-116183256D01*
X126058768Y-116263211D01*
X125980128Y-116417552D01*
X125926597Y-116582302D01*
X125899500Y-116753389D01*
X124550500Y-116753389D01*
X124550500Y-114213389D01*
X125899500Y-114213389D01*
X125899500Y-114386611D01*
X125926598Y-114557701D01*
X125980127Y-114722445D01*
X126058768Y-114876788D01*
X126160586Y-115016928D01*
X126283072Y-115139414D01*
X126423212Y-115241232D01*
X126577555Y-115319873D01*
X126742299Y-115373402D01*
X126913389Y-115400500D01*
X126913390Y-115400500D01*
X127086610Y-115400500D01*
X127086611Y-115400500D01*
X127257701Y-115373402D01*
X127422445Y-115319873D01*
X127576788Y-115241232D01*
X127716928Y-115139414D01*
X127839414Y-115016928D01*
X127941232Y-114876788D01*
X128019873Y-114722445D01*
X128073402Y-114557701D01*
X128100500Y-114386611D01*
X128100500Y-114213389D01*
X128073402Y-114042299D01*
X128019873Y-113877555D01*
X127941232Y-113723212D01*
X127839414Y-113583072D01*
X127716928Y-113460586D01*
X127576788Y-113358768D01*
X127422445Y-113280127D01*
X127257701Y-113226598D01*
X127257699Y-113226597D01*
X127257698Y-113226597D01*
X127126271Y-113205781D01*
X127086611Y-113199500D01*
X126913389Y-113199500D01*
X126873728Y-113205781D01*
X126742302Y-113226597D01*
X126577552Y-113280128D01*
X126423211Y-113358768D01*
X126343256Y-113416859D01*
X126283072Y-113460586D01*
X126283070Y-113460588D01*
X126283069Y-113460588D01*
X126160588Y-113583069D01*
X126160588Y-113583070D01*
X126160586Y-113583072D01*
X126116859Y-113643256D01*
X126058768Y-113723211D01*
X125980128Y-113877552D01*
X125926597Y-114042302D01*
X125899500Y-114213389D01*
X124550500Y-114213389D01*
X124550500Y-111673389D01*
X125899500Y-111673389D01*
X125899500Y-111846611D01*
X125903836Y-111873989D01*
X125926011Y-112014000D01*
X125926598Y-112017701D01*
X125980127Y-112182445D01*
X126058768Y-112336788D01*
X126160586Y-112476928D01*
X126283072Y-112599414D01*
X126423212Y-112701232D01*
X126577555Y-112779873D01*
X126742299Y-112833402D01*
X126913389Y-112860500D01*
X126913390Y-112860500D01*
X127086610Y-112860500D01*
X127086611Y-112860500D01*
X127219206Y-112839499D01*
X129794000Y-112839499D01*
X129794000Y-112839500D01*
X129794000Y-121412000D01*
X130556000Y-122174000D01*
X133046858Y-122174000D01*
X133113897Y-122193685D01*
X133159652Y-122246489D01*
X133169596Y-122315647D01*
X133154246Y-122359997D01*
X133091016Y-122469515D01*
X133053500Y-122609525D01*
X133053500Y-122754475D01*
X133079628Y-122851985D01*
X133091017Y-122894488D01*
X133163488Y-123020011D01*
X133163490Y-123020013D01*
X133163491Y-123020015D01*
X133265985Y-123122509D01*
X133265986Y-123122510D01*
X133265988Y-123122511D01*
X133391511Y-123194982D01*
X133391512Y-123194982D01*
X133391515Y-123194984D01*
X133531525Y-123232500D01*
X133531528Y-123232500D01*
X133676472Y-123232500D01*
X133676475Y-123232500D01*
X133816485Y-123194984D01*
X133942015Y-123122509D01*
X134044509Y-123020015D01*
X134116984Y-122894485D01*
X134154500Y-122754475D01*
X134154500Y-122609525D01*
X134116984Y-122469515D01*
X134053754Y-122359998D01*
X134037282Y-122292101D01*
X134060134Y-122226074D01*
X134115055Y-122182883D01*
X134161142Y-122174000D01*
X138126858Y-122174000D01*
X138193897Y-122193685D01*
X138239652Y-122246489D01*
X138249596Y-122315647D01*
X138234246Y-122359997D01*
X138171016Y-122469515D01*
X138133500Y-122609525D01*
X138133500Y-122754475D01*
X138159628Y-122851985D01*
X138171017Y-122894488D01*
X138243488Y-123020011D01*
X138243490Y-123020013D01*
X138243491Y-123020015D01*
X138345985Y-123122509D01*
X138345986Y-123122510D01*
X138345988Y-123122511D01*
X138471511Y-123194982D01*
X138471512Y-123194982D01*
X138471515Y-123194984D01*
X138611525Y-123232500D01*
X138611528Y-123232500D01*
X138756472Y-123232500D01*
X138756475Y-123232500D01*
X138896485Y-123194984D01*
X139022015Y-123122509D01*
X139026999Y-123117525D01*
X142705500Y-123117525D01*
X142705500Y-123262475D01*
X142731498Y-123359500D01*
X142743017Y-123402488D01*
X142815488Y-123528011D01*
X142815490Y-123528013D01*
X142815491Y-123528015D01*
X142917985Y-123630509D01*
X142917986Y-123630510D01*
X142917988Y-123630511D01*
X143043511Y-123702982D01*
X143043512Y-123702982D01*
X143043515Y-123702984D01*
X143183525Y-123740500D01*
X143183528Y-123740500D01*
X143328472Y-123740500D01*
X143328475Y-123740500D01*
X143468485Y-123702984D01*
X143594015Y-123630509D01*
X143696509Y-123528015D01*
X143768984Y-123402485D01*
X143806500Y-123262475D01*
X143806500Y-123117525D01*
X144229500Y-123117525D01*
X144229500Y-123262475D01*
X144255498Y-123359500D01*
X144267017Y-123402488D01*
X144339488Y-123528011D01*
X144339490Y-123528013D01*
X144339491Y-123528015D01*
X144441985Y-123630509D01*
X144441986Y-123630510D01*
X144441988Y-123630511D01*
X144567511Y-123702982D01*
X144567512Y-123702982D01*
X144567515Y-123702984D01*
X144707525Y-123740500D01*
X144707528Y-123740500D01*
X144852472Y-123740500D01*
X144852475Y-123740500D01*
X144992485Y-123702984D01*
X145118015Y-123630509D01*
X145220509Y-123528015D01*
X145292984Y-123402485D01*
X145330500Y-123262475D01*
X145330500Y-123117525D01*
X146769500Y-123117525D01*
X146769500Y-123262475D01*
X146795498Y-123359500D01*
X146807017Y-123402488D01*
X146879488Y-123528011D01*
X146879490Y-123528013D01*
X146879491Y-123528015D01*
X146981985Y-123630509D01*
X146981986Y-123630510D01*
X146981988Y-123630511D01*
X147107511Y-123702982D01*
X147107512Y-123702982D01*
X147107515Y-123702984D01*
X147247525Y-123740500D01*
X147247528Y-123740500D01*
X147392472Y-123740500D01*
X147392475Y-123740500D01*
X147532485Y-123702984D01*
X147658015Y-123630509D01*
X147760509Y-123528015D01*
X147832984Y-123402485D01*
X147870500Y-123262475D01*
X147870500Y-123117525D01*
X148293500Y-123117525D01*
X148293500Y-123262475D01*
X148319498Y-123359500D01*
X148331017Y-123402488D01*
X148403488Y-123528011D01*
X148403490Y-123528013D01*
X148403491Y-123528015D01*
X148505985Y-123630509D01*
X148505986Y-123630510D01*
X148505988Y-123630511D01*
X148631511Y-123702982D01*
X148631512Y-123702982D01*
X148631515Y-123702984D01*
X148771525Y-123740500D01*
X148771528Y-123740500D01*
X148916472Y-123740500D01*
X148916475Y-123740500D01*
X149056485Y-123702984D01*
X149182015Y-123630509D01*
X149284509Y-123528015D01*
X149356984Y-123402485D01*
X149394500Y-123262475D01*
X149394500Y-123117525D01*
X149356984Y-122977515D01*
X149335251Y-122939873D01*
X149284511Y-122851988D01*
X149284506Y-122851982D01*
X149182017Y-122749493D01*
X149182011Y-122749488D01*
X149056488Y-122677017D01*
X149056489Y-122677017D01*
X149045006Y-122673940D01*
X148916475Y-122639500D01*
X148771525Y-122639500D01*
X148642993Y-122673940D01*
X148631511Y-122677017D01*
X148505988Y-122749488D01*
X148505982Y-122749493D01*
X148403493Y-122851982D01*
X148403488Y-122851988D01*
X148331017Y-122977511D01*
X148331016Y-122977515D01*
X148293500Y-123117525D01*
X147870500Y-123117525D01*
X147832984Y-122977515D01*
X147811251Y-122939873D01*
X147760511Y-122851988D01*
X147760506Y-122851982D01*
X147658017Y-122749493D01*
X147658011Y-122749488D01*
X147532488Y-122677017D01*
X147532489Y-122677017D01*
X147521006Y-122673940D01*
X147392475Y-122639500D01*
X147247525Y-122639500D01*
X147118993Y-122673940D01*
X147107511Y-122677017D01*
X146981988Y-122749488D01*
X146981982Y-122749493D01*
X146879493Y-122851982D01*
X146879488Y-122851988D01*
X146807017Y-122977511D01*
X146807016Y-122977515D01*
X146769500Y-123117525D01*
X145330500Y-123117525D01*
X145292984Y-122977515D01*
X145271251Y-122939873D01*
X145220511Y-122851988D01*
X145220506Y-122851982D01*
X145118017Y-122749493D01*
X145118011Y-122749488D01*
X144992488Y-122677017D01*
X144992489Y-122677017D01*
X144981006Y-122673940D01*
X144852475Y-122639500D01*
X144707525Y-122639500D01*
X144578993Y-122673940D01*
X144567511Y-122677017D01*
X144441988Y-122749488D01*
X144441982Y-122749493D01*
X144339493Y-122851982D01*
X144339488Y-122851988D01*
X144267017Y-122977511D01*
X144267016Y-122977515D01*
X144229500Y-123117525D01*
X143806500Y-123117525D01*
X143768984Y-122977515D01*
X143747251Y-122939873D01*
X143696511Y-122851988D01*
X143696506Y-122851982D01*
X143594017Y-122749493D01*
X143594011Y-122749488D01*
X143468488Y-122677017D01*
X143468489Y-122677017D01*
X143457006Y-122673940D01*
X143328475Y-122639500D01*
X143183525Y-122639500D01*
X143054993Y-122673940D01*
X143043511Y-122677017D01*
X142917988Y-122749488D01*
X142917982Y-122749493D01*
X142815493Y-122851982D01*
X142815488Y-122851988D01*
X142743017Y-122977511D01*
X142743016Y-122977515D01*
X142705500Y-123117525D01*
X139026999Y-123117525D01*
X139124509Y-123020015D01*
X139196984Y-122894485D01*
X139234500Y-122754475D01*
X139234500Y-122609525D01*
X139196984Y-122469515D01*
X139133754Y-122359998D01*
X139117282Y-122292101D01*
X139140134Y-122226074D01*
X139195055Y-122182883D01*
X139241142Y-122174000D01*
X141732000Y-122174000D01*
X142494000Y-121412000D01*
X142494000Y-112839500D01*
X142239999Y-112585499D01*
X149606000Y-112585499D01*
X149606000Y-112585500D01*
X149606000Y-121412000D01*
X150368000Y-122174000D01*
X152858858Y-122174000D01*
X152925897Y-122193685D01*
X152971652Y-122246489D01*
X152981596Y-122315647D01*
X152966246Y-122359997D01*
X152903016Y-122469515D01*
X152865500Y-122609525D01*
X152865500Y-122754475D01*
X152891628Y-122851985D01*
X152903017Y-122894488D01*
X152975488Y-123020011D01*
X152975490Y-123020013D01*
X152975491Y-123020015D01*
X153077985Y-123122509D01*
X153077986Y-123122510D01*
X153077988Y-123122511D01*
X153203511Y-123194982D01*
X153203512Y-123194982D01*
X153203515Y-123194984D01*
X153343525Y-123232500D01*
X153343528Y-123232500D01*
X153488472Y-123232500D01*
X153488475Y-123232500D01*
X153628485Y-123194984D01*
X153754015Y-123122509D01*
X153856509Y-123020015D01*
X153928984Y-122894485D01*
X153966500Y-122754475D01*
X153966500Y-122609525D01*
X153928984Y-122469515D01*
X153865754Y-122359998D01*
X153849282Y-122292101D01*
X153872134Y-122226074D01*
X153927055Y-122182883D01*
X153973142Y-122174000D01*
X157938858Y-122174000D01*
X158005897Y-122193685D01*
X158051652Y-122246489D01*
X158061596Y-122315647D01*
X158046246Y-122359997D01*
X157983016Y-122469515D01*
X157945500Y-122609525D01*
X157945500Y-122754475D01*
X157971628Y-122851985D01*
X157983017Y-122894488D01*
X158055488Y-123020011D01*
X158055490Y-123020013D01*
X158055491Y-123020015D01*
X158157985Y-123122509D01*
X158157986Y-123122510D01*
X158157988Y-123122511D01*
X158283511Y-123194982D01*
X158283512Y-123194982D01*
X158283515Y-123194984D01*
X158423525Y-123232500D01*
X158423528Y-123232500D01*
X158568472Y-123232500D01*
X158568475Y-123232500D01*
X158708485Y-123194984D01*
X158834015Y-123122509D01*
X158936509Y-123020015D01*
X159008984Y-122894485D01*
X159046500Y-122754475D01*
X159046500Y-122609525D01*
X159008984Y-122469515D01*
X158945754Y-122359998D01*
X158929282Y-122292101D01*
X158952134Y-122226074D01*
X159007055Y-122182883D01*
X159053142Y-122174000D01*
X161544000Y-122174000D01*
X161884611Y-121833389D01*
X163999500Y-121833389D01*
X163999500Y-122006610D01*
X164026011Y-122174000D01*
X164026598Y-122177701D01*
X164080127Y-122342445D01*
X164158768Y-122496788D01*
X164260586Y-122636928D01*
X164383072Y-122759414D01*
X164523212Y-122861232D01*
X164677555Y-122939873D01*
X164842299Y-122993402D01*
X165013389Y-123020500D01*
X165013390Y-123020500D01*
X165186610Y-123020500D01*
X165186611Y-123020500D01*
X165357701Y-122993402D01*
X165522445Y-122939873D01*
X165676788Y-122861232D01*
X165816928Y-122759414D01*
X165939414Y-122636928D01*
X166041232Y-122496788D01*
X166119873Y-122342445D01*
X166173402Y-122177701D01*
X166200500Y-122006611D01*
X166200500Y-121833389D01*
X166173402Y-121662299D01*
X166119873Y-121497555D01*
X166041232Y-121343212D01*
X165939414Y-121203072D01*
X165816928Y-121080586D01*
X165676788Y-120978768D01*
X165522445Y-120900127D01*
X165357701Y-120846598D01*
X165357699Y-120846597D01*
X165357698Y-120846597D01*
X165226271Y-120825781D01*
X165186611Y-120819500D01*
X165013389Y-120819500D01*
X164973728Y-120825781D01*
X164842302Y-120846597D01*
X164677552Y-120900128D01*
X164523211Y-120978768D01*
X164443256Y-121036859D01*
X164383072Y-121080586D01*
X164383070Y-121080588D01*
X164383069Y-121080588D01*
X164260588Y-121203069D01*
X164260588Y-121203070D01*
X164260586Y-121203072D01*
X164216859Y-121263256D01*
X164158768Y-121343211D01*
X164080128Y-121497552D01*
X164026597Y-121662302D01*
X163999500Y-121833389D01*
X161884611Y-121833389D01*
X162306000Y-121412000D01*
X162306000Y-119293389D01*
X163999500Y-119293389D01*
X163999500Y-119466611D01*
X164026598Y-119637701D01*
X164080127Y-119802445D01*
X164158768Y-119956788D01*
X164260586Y-120096928D01*
X164383072Y-120219414D01*
X164523212Y-120321232D01*
X164677555Y-120399873D01*
X164842299Y-120453402D01*
X165013389Y-120480500D01*
X165013390Y-120480500D01*
X165186610Y-120480500D01*
X165186611Y-120480500D01*
X165357701Y-120453402D01*
X165522445Y-120399873D01*
X165676788Y-120321232D01*
X165816928Y-120219414D01*
X165939414Y-120096928D01*
X166041232Y-119956788D01*
X166119873Y-119802445D01*
X166173402Y-119637701D01*
X166200500Y-119466611D01*
X166200500Y-119293389D01*
X166173402Y-119122299D01*
X166119873Y-118957555D01*
X166041232Y-118803212D01*
X165939414Y-118663072D01*
X165816928Y-118540586D01*
X165676788Y-118438768D01*
X165522445Y-118360127D01*
X165357701Y-118306598D01*
X165357699Y-118306597D01*
X165357698Y-118306597D01*
X165226271Y-118285781D01*
X165186611Y-118279500D01*
X165013389Y-118279500D01*
X164973728Y-118285781D01*
X164842302Y-118306597D01*
X164677552Y-118360128D01*
X164523211Y-118438768D01*
X164443256Y-118496859D01*
X164383072Y-118540586D01*
X164383070Y-118540588D01*
X164383069Y-118540588D01*
X164260588Y-118663069D01*
X164260588Y-118663070D01*
X164260586Y-118663072D01*
X164216859Y-118723256D01*
X164158768Y-118803211D01*
X164080128Y-118957552D01*
X164026597Y-119122302D01*
X163999500Y-119293389D01*
X162306000Y-119293389D01*
X162306000Y-116753389D01*
X163999500Y-116753389D01*
X163999500Y-116926611D01*
X164026598Y-117097701D01*
X164080127Y-117262445D01*
X164158768Y-117416788D01*
X164260586Y-117556928D01*
X164383072Y-117679414D01*
X164523212Y-117781232D01*
X164677555Y-117859873D01*
X164842299Y-117913402D01*
X165013389Y-117940500D01*
X165013390Y-117940500D01*
X165186610Y-117940500D01*
X165186611Y-117940500D01*
X165357701Y-117913402D01*
X165522445Y-117859873D01*
X165676788Y-117781232D01*
X165816928Y-117679414D01*
X165939414Y-117556928D01*
X166041232Y-117416788D01*
X166119873Y-117262445D01*
X166173402Y-117097701D01*
X166200500Y-116926611D01*
X166200500Y-116753389D01*
X166173402Y-116582299D01*
X166119873Y-116417555D01*
X166041232Y-116263212D01*
X165939414Y-116123072D01*
X165816928Y-116000586D01*
X165676788Y-115898768D01*
X165522445Y-115820127D01*
X165357701Y-115766598D01*
X165357699Y-115766597D01*
X165357698Y-115766597D01*
X165226271Y-115745781D01*
X165186611Y-115739500D01*
X165013389Y-115739500D01*
X164973728Y-115745781D01*
X164842302Y-115766597D01*
X164677552Y-115820128D01*
X164523211Y-115898768D01*
X164443256Y-115956859D01*
X164383072Y-116000586D01*
X164383070Y-116000588D01*
X164383069Y-116000588D01*
X164260588Y-116123069D01*
X164260588Y-116123070D01*
X164260586Y-116123072D01*
X164216859Y-116183256D01*
X164158768Y-116263211D01*
X164080128Y-116417552D01*
X164026597Y-116582302D01*
X163999500Y-116753389D01*
X162306000Y-116753389D01*
X162306000Y-114213389D01*
X163999500Y-114213389D01*
X163999500Y-114386611D01*
X164026598Y-114557701D01*
X164080127Y-114722445D01*
X164158768Y-114876788D01*
X164260586Y-115016928D01*
X164383072Y-115139414D01*
X164523212Y-115241232D01*
X164677555Y-115319873D01*
X164842299Y-115373402D01*
X165013389Y-115400500D01*
X165013390Y-115400500D01*
X165186610Y-115400500D01*
X165186611Y-115400500D01*
X165357701Y-115373402D01*
X165522445Y-115319873D01*
X165676788Y-115241232D01*
X165816928Y-115139414D01*
X165939414Y-115016928D01*
X166041232Y-114876788D01*
X166119873Y-114722445D01*
X166173402Y-114557701D01*
X166200500Y-114386611D01*
X166200500Y-114213389D01*
X166173402Y-114042299D01*
X166119873Y-113877555D01*
X166041232Y-113723212D01*
X165939414Y-113583072D01*
X165816928Y-113460586D01*
X165676788Y-113358768D01*
X165522445Y-113280127D01*
X165357701Y-113226598D01*
X165357699Y-113226597D01*
X165357698Y-113226597D01*
X165226271Y-113205781D01*
X165186611Y-113199500D01*
X165013389Y-113199500D01*
X164973728Y-113205781D01*
X164842302Y-113226597D01*
X164677552Y-113280128D01*
X164523211Y-113358768D01*
X164443256Y-113416859D01*
X164383072Y-113460586D01*
X164383070Y-113460588D01*
X164383069Y-113460588D01*
X164260588Y-113583069D01*
X164260588Y-113583070D01*
X164260586Y-113583072D01*
X164216859Y-113643256D01*
X164158768Y-113723211D01*
X164080128Y-113877552D01*
X164026597Y-114042302D01*
X163999500Y-114213389D01*
X162306000Y-114213389D01*
X162306000Y-112839500D01*
X161480500Y-112014000D01*
X150177500Y-112014000D01*
X150177499Y-112014000D01*
X149606000Y-112585499D01*
X142239999Y-112585499D01*
X141668500Y-112014000D01*
X139749142Y-112014000D01*
X139716412Y-112004389D01*
X139683497Y-111995199D01*
X139682925Y-111994556D01*
X139682103Y-111994315D01*
X139659779Y-111968552D01*
X139637044Y-111943009D01*
X139636910Y-111942160D01*
X139636348Y-111941511D01*
X139631488Y-111907714D01*
X139626180Y-111873989D01*
X139626502Y-111873037D01*
X139626404Y-111872353D01*
X139635672Y-111839995D01*
X139638387Y-111833833D01*
X139704984Y-111718485D01*
X139717068Y-111673389D01*
X163999500Y-111673389D01*
X163999500Y-111846611D01*
X164003836Y-111873989D01*
X164026011Y-112014000D01*
X164026598Y-112017701D01*
X164080127Y-112182445D01*
X164158768Y-112336788D01*
X164260586Y-112476928D01*
X164383072Y-112599414D01*
X164523212Y-112701232D01*
X164677555Y-112779873D01*
X164842299Y-112833402D01*
X165013389Y-112860500D01*
X165013390Y-112860500D01*
X165186610Y-112860500D01*
X165186611Y-112860500D01*
X165357701Y-112833402D01*
X165522445Y-112779873D01*
X165676788Y-112701232D01*
X165816928Y-112599414D01*
X165939414Y-112476928D01*
X166041232Y-112336788D01*
X166119873Y-112182445D01*
X166173402Y-112017701D01*
X166200500Y-111846611D01*
X166200500Y-111673389D01*
X166173402Y-111502299D01*
X166119873Y-111337555D01*
X166041232Y-111183212D01*
X165939414Y-111043072D01*
X165816928Y-110920586D01*
X165676788Y-110818768D01*
X165522445Y-110740127D01*
X165357701Y-110686598D01*
X165357699Y-110686597D01*
X165357698Y-110686597D01*
X165226271Y-110665781D01*
X165186611Y-110659500D01*
X165013389Y-110659500D01*
X164973728Y-110665781D01*
X164842302Y-110686597D01*
X164677552Y-110740128D01*
X164523211Y-110818768D01*
X164443256Y-110876859D01*
X164383072Y-110920586D01*
X164383070Y-110920588D01*
X164383069Y-110920588D01*
X164260588Y-111043069D01*
X164260588Y-111043070D01*
X164260586Y-111043072D01*
X164244300Y-111065488D01*
X164158768Y-111183211D01*
X164080128Y-111337552D01*
X164026597Y-111502302D01*
X164014533Y-111578472D01*
X163999500Y-111673389D01*
X139717068Y-111673389D01*
X139742500Y-111578475D01*
X139742500Y-111433525D01*
X139704984Y-111293515D01*
X139641300Y-111183212D01*
X139632511Y-111167988D01*
X139632506Y-111167982D01*
X139530017Y-111065493D01*
X139530011Y-111065488D01*
X139404488Y-110993017D01*
X139404489Y-110993017D01*
X139393006Y-110989940D01*
X139264475Y-110955500D01*
X139119525Y-110955500D01*
X138990993Y-110989940D01*
X138979511Y-110993017D01*
X138853988Y-111065488D01*
X138853982Y-111065493D01*
X138751493Y-111167982D01*
X138751488Y-111167988D01*
X138679017Y-111293511D01*
X138679016Y-111293515D01*
X138641500Y-111433525D01*
X138641500Y-111578475D01*
X138679016Y-111718485D01*
X138742245Y-111828001D01*
X138758718Y-111895899D01*
X138735866Y-111961926D01*
X138680945Y-112005117D01*
X138634858Y-112014000D01*
X133653142Y-112014000D01*
X133586103Y-111994315D01*
X133540348Y-111941511D01*
X133530404Y-111872353D01*
X133545753Y-111828002D01*
X133608984Y-111718485D01*
X133646500Y-111578475D01*
X133646500Y-111433525D01*
X133608984Y-111293515D01*
X133545300Y-111183212D01*
X133536511Y-111167988D01*
X133536506Y-111167982D01*
X133434017Y-111065493D01*
X133434011Y-111065488D01*
X133308488Y-110993017D01*
X133308489Y-110993017D01*
X133297006Y-110989940D01*
X133168475Y-110955500D01*
X133023525Y-110955500D01*
X132894993Y-110989940D01*
X132883511Y-110993017D01*
X132757988Y-111065488D01*
X132757982Y-111065493D01*
X132655493Y-111167982D01*
X132655488Y-111167988D01*
X132583017Y-111293511D01*
X132583016Y-111293515D01*
X132545500Y-111433525D01*
X132545500Y-111578475D01*
X132583016Y-111718485D01*
X132646245Y-111828001D01*
X132662718Y-111895899D01*
X132639866Y-111961926D01*
X132584945Y-112005117D01*
X132538858Y-112014000D01*
X130619499Y-112014000D01*
X129794000Y-112839499D01*
X127219206Y-112839499D01*
X127257701Y-112833402D01*
X127422445Y-112779873D01*
X127576788Y-112701232D01*
X127716928Y-112599414D01*
X127839414Y-112476928D01*
X127941232Y-112336788D01*
X128019873Y-112182445D01*
X128073402Y-112017701D01*
X128100500Y-111846611D01*
X128100500Y-111673389D01*
X128073402Y-111502299D01*
X128019873Y-111337555D01*
X127941232Y-111183212D01*
X127839414Y-111043072D01*
X127716928Y-110920586D01*
X127576788Y-110818768D01*
X127422445Y-110740127D01*
X127257701Y-110686598D01*
X127257699Y-110686597D01*
X127257698Y-110686597D01*
X127126271Y-110665781D01*
X127086611Y-110659500D01*
X126913389Y-110659500D01*
X126873728Y-110665781D01*
X126742302Y-110686597D01*
X126577552Y-110740128D01*
X126423211Y-110818768D01*
X126343256Y-110876859D01*
X126283072Y-110920586D01*
X126283070Y-110920588D01*
X126283069Y-110920588D01*
X126160588Y-111043069D01*
X126160588Y-111043070D01*
X126160586Y-111043072D01*
X126144300Y-111065488D01*
X126058768Y-111183211D01*
X125980128Y-111337552D01*
X125926597Y-111502302D01*
X125914533Y-111578472D01*
X125899500Y-111673389D01*
X124550500Y-111673389D01*
X124550500Y-109133389D01*
X125899500Y-109133389D01*
X125899500Y-109306611D01*
X125926598Y-109477701D01*
X125980127Y-109642445D01*
X126058768Y-109796788D01*
X126160586Y-109936928D01*
X126283072Y-110059414D01*
X126423212Y-110161232D01*
X126577555Y-110239873D01*
X126742299Y-110293402D01*
X126913389Y-110320500D01*
X126913390Y-110320500D01*
X127086610Y-110320500D01*
X127086611Y-110320500D01*
X127257701Y-110293402D01*
X127422445Y-110239873D01*
X127576788Y-110161232D01*
X127716928Y-110059414D01*
X127839414Y-109936928D01*
X127941232Y-109796788D01*
X128019873Y-109642445D01*
X128073402Y-109477701D01*
X128085467Y-109401525D01*
X130513500Y-109401525D01*
X130513500Y-109546475D01*
X130539216Y-109642447D01*
X130551017Y-109686488D01*
X130623488Y-109812011D01*
X130623490Y-109812013D01*
X130623491Y-109812015D01*
X130725985Y-109914509D01*
X130725986Y-109914510D01*
X130725988Y-109914511D01*
X130851511Y-109986982D01*
X130851512Y-109986982D01*
X130851515Y-109986984D01*
X130991525Y-110024500D01*
X130991528Y-110024500D01*
X131136472Y-110024500D01*
X131136475Y-110024500D01*
X131276485Y-109986984D01*
X131402015Y-109914509D01*
X131504509Y-109812015D01*
X131576984Y-109686485D01*
X131614500Y-109546475D01*
X131614500Y-109401525D01*
X134577500Y-109401525D01*
X134577500Y-109546475D01*
X134603216Y-109642447D01*
X134615017Y-109686488D01*
X134687488Y-109812011D01*
X134687490Y-109812013D01*
X134687491Y-109812015D01*
X134789985Y-109914509D01*
X134789986Y-109914510D01*
X134789988Y-109914511D01*
X134915511Y-109986982D01*
X134915512Y-109986982D01*
X134915515Y-109986984D01*
X135055525Y-110024500D01*
X135055528Y-110024500D01*
X135200472Y-110024500D01*
X135200475Y-110024500D01*
X135340485Y-109986984D01*
X135466015Y-109914509D01*
X135568509Y-109812015D01*
X135640984Y-109686485D01*
X135678500Y-109546475D01*
X135678500Y-109401525D01*
X136609500Y-109401525D01*
X136609500Y-109546475D01*
X136635216Y-109642447D01*
X136647017Y-109686488D01*
X136719488Y-109812011D01*
X136719490Y-109812013D01*
X136719491Y-109812015D01*
X136821985Y-109914509D01*
X136821986Y-109914510D01*
X136821988Y-109914511D01*
X136947511Y-109986982D01*
X136947512Y-109986982D01*
X136947515Y-109986984D01*
X137087525Y-110024500D01*
X137087528Y-110024500D01*
X137232472Y-110024500D01*
X137232475Y-110024500D01*
X137372485Y-109986984D01*
X137498015Y-109914509D01*
X137600509Y-109812015D01*
X137672984Y-109686485D01*
X137710500Y-109546475D01*
X137710500Y-109401525D01*
X140673500Y-109401525D01*
X140673500Y-109546475D01*
X140699216Y-109642447D01*
X140711017Y-109686488D01*
X140783488Y-109812011D01*
X140783490Y-109812013D01*
X140783491Y-109812015D01*
X140885985Y-109914509D01*
X140885986Y-109914510D01*
X140885988Y-109914511D01*
X141011511Y-109986982D01*
X141011512Y-109986982D01*
X141011515Y-109986984D01*
X141151525Y-110024500D01*
X141151528Y-110024500D01*
X141296472Y-110024500D01*
X141296475Y-110024500D01*
X141436485Y-109986984D01*
X141562015Y-109914509D01*
X141664509Y-109812015D01*
X141736984Y-109686485D01*
X141774500Y-109546475D01*
X141774500Y-109401525D01*
X141736984Y-109261515D01*
X141664509Y-109135985D01*
X141661913Y-109133389D01*
X163999500Y-109133389D01*
X163999500Y-109306611D01*
X164026598Y-109477701D01*
X164080127Y-109642445D01*
X164158768Y-109796788D01*
X164260586Y-109936928D01*
X164383072Y-110059414D01*
X164523212Y-110161232D01*
X164677555Y-110239873D01*
X164842299Y-110293402D01*
X165013389Y-110320500D01*
X165013390Y-110320500D01*
X165186610Y-110320500D01*
X165186611Y-110320500D01*
X165357701Y-110293402D01*
X165522445Y-110239873D01*
X165676788Y-110161232D01*
X165816928Y-110059414D01*
X165939414Y-109936928D01*
X166041232Y-109796788D01*
X166119873Y-109642445D01*
X166173402Y-109477701D01*
X166200500Y-109306611D01*
X166200500Y-109133389D01*
X166173402Y-108962299D01*
X166119873Y-108797555D01*
X166041232Y-108643212D01*
X165939414Y-108503072D01*
X165816928Y-108380586D01*
X165676788Y-108278768D01*
X165522445Y-108200127D01*
X165357701Y-108146598D01*
X165357699Y-108146597D01*
X165357698Y-108146597D01*
X165226271Y-108125781D01*
X165186611Y-108119500D01*
X165013389Y-108119500D01*
X164973728Y-108125781D01*
X164842302Y-108146597D01*
X164677552Y-108200128D01*
X164523211Y-108278768D01*
X164443256Y-108336859D01*
X164383072Y-108380586D01*
X164383070Y-108380588D01*
X164383069Y-108380588D01*
X164260588Y-108503069D01*
X164260588Y-108503070D01*
X164260586Y-108503072D01*
X164216859Y-108563256D01*
X164158768Y-108643211D01*
X164080128Y-108797552D01*
X164026597Y-108962302D01*
X164015322Y-109033491D01*
X163999500Y-109133389D01*
X141661913Y-109133389D01*
X141562015Y-109033491D01*
X141562013Y-109033490D01*
X141562011Y-109033488D01*
X141436488Y-108961017D01*
X141436489Y-108961017D01*
X141425006Y-108957940D01*
X141296475Y-108923500D01*
X141151525Y-108923500D01*
X141022993Y-108957940D01*
X141011511Y-108961017D01*
X140885988Y-109033488D01*
X140885982Y-109033493D01*
X140783493Y-109135982D01*
X140783488Y-109135988D01*
X140711017Y-109261511D01*
X140711016Y-109261515D01*
X140673500Y-109401525D01*
X137710500Y-109401525D01*
X137672984Y-109261515D01*
X137600509Y-109135985D01*
X137498015Y-109033491D01*
X137498013Y-109033490D01*
X137498011Y-109033488D01*
X137372488Y-108961017D01*
X137372489Y-108961017D01*
X137361006Y-108957940D01*
X137232475Y-108923500D01*
X137087525Y-108923500D01*
X136958993Y-108957940D01*
X136947511Y-108961017D01*
X136821988Y-109033488D01*
X136821982Y-109033493D01*
X136719493Y-109135982D01*
X136719488Y-109135988D01*
X136647017Y-109261511D01*
X136647016Y-109261515D01*
X136609500Y-109401525D01*
X135678500Y-109401525D01*
X135640984Y-109261515D01*
X135568509Y-109135985D01*
X135466015Y-109033491D01*
X135466013Y-109033490D01*
X135466011Y-109033488D01*
X135340488Y-108961017D01*
X135340489Y-108961017D01*
X135329006Y-108957940D01*
X135200475Y-108923500D01*
X135055525Y-108923500D01*
X134926993Y-108957940D01*
X134915511Y-108961017D01*
X134789988Y-109033488D01*
X134789982Y-109033493D01*
X134687493Y-109135982D01*
X134687488Y-109135988D01*
X134615017Y-109261511D01*
X134615016Y-109261515D01*
X134577500Y-109401525D01*
X131614500Y-109401525D01*
X131576984Y-109261515D01*
X131504509Y-109135985D01*
X131402015Y-109033491D01*
X131402013Y-109033490D01*
X131402011Y-109033488D01*
X131276488Y-108961017D01*
X131276489Y-108961017D01*
X131265006Y-108957940D01*
X131136475Y-108923500D01*
X130991525Y-108923500D01*
X130862993Y-108957940D01*
X130851511Y-108961017D01*
X130725988Y-109033488D01*
X130725982Y-109033493D01*
X130623493Y-109135982D01*
X130623488Y-109135988D01*
X130551017Y-109261511D01*
X130551016Y-109261515D01*
X130513500Y-109401525D01*
X128085467Y-109401525D01*
X128100500Y-109306611D01*
X128100500Y-109133389D01*
X128073402Y-108962299D01*
X128019873Y-108797555D01*
X127941232Y-108643212D01*
X127839414Y-108503072D01*
X127716928Y-108380586D01*
X127576788Y-108278768D01*
X127422445Y-108200127D01*
X127257701Y-108146598D01*
X127257699Y-108146597D01*
X127257698Y-108146597D01*
X127126271Y-108125781D01*
X127086611Y-108119500D01*
X126913389Y-108119500D01*
X126873728Y-108125781D01*
X126742302Y-108146597D01*
X126577552Y-108200128D01*
X126423211Y-108278768D01*
X126343256Y-108336859D01*
X126283072Y-108380586D01*
X126283070Y-108380588D01*
X126283069Y-108380588D01*
X126160588Y-108503069D01*
X126160588Y-108503070D01*
X126160586Y-108503072D01*
X126116859Y-108563256D01*
X126058768Y-108643211D01*
X125980128Y-108797552D01*
X125926597Y-108962302D01*
X125915322Y-109033491D01*
X125899500Y-109133389D01*
X124550500Y-109133389D01*
X124550500Y-106593389D01*
X125899500Y-106593389D01*
X125899500Y-106766611D01*
X125926598Y-106937701D01*
X125980127Y-107102445D01*
X126058768Y-107256788D01*
X126160586Y-107396928D01*
X126283072Y-107519414D01*
X126423212Y-107621232D01*
X126577555Y-107699873D01*
X126742299Y-107753402D01*
X126913389Y-107780500D01*
X126913390Y-107780500D01*
X127086610Y-107780500D01*
X127086611Y-107780500D01*
X127257701Y-107753402D01*
X127422445Y-107699873D01*
X127576788Y-107621232D01*
X127716928Y-107519414D01*
X127839414Y-107396928D01*
X127941232Y-107256788D01*
X128019873Y-107102445D01*
X128073402Y-106937701D01*
X128100500Y-106766611D01*
X128100500Y-106593389D01*
X163999500Y-106593389D01*
X163999500Y-106766611D01*
X164026598Y-106937701D01*
X164080127Y-107102445D01*
X164158768Y-107256788D01*
X164260586Y-107396928D01*
X164383072Y-107519414D01*
X164523212Y-107621232D01*
X164677555Y-107699873D01*
X164842299Y-107753402D01*
X165013389Y-107780500D01*
X165013390Y-107780500D01*
X165186610Y-107780500D01*
X165186611Y-107780500D01*
X165357701Y-107753402D01*
X165522445Y-107699873D01*
X165676788Y-107621232D01*
X165816928Y-107519414D01*
X165939414Y-107396928D01*
X166041232Y-107256788D01*
X166119873Y-107102445D01*
X166173402Y-106937701D01*
X166200500Y-106766611D01*
X166200500Y-106593389D01*
X166173402Y-106422299D01*
X166119873Y-106257555D01*
X166041232Y-106103212D01*
X165939414Y-105963072D01*
X165816928Y-105840586D01*
X165676788Y-105738768D01*
X165522445Y-105660127D01*
X165357701Y-105606598D01*
X165357699Y-105606597D01*
X165357698Y-105606597D01*
X165226271Y-105585781D01*
X165186611Y-105579500D01*
X165013389Y-105579500D01*
X164973728Y-105585781D01*
X164842302Y-105606597D01*
X164677552Y-105660128D01*
X164523211Y-105738768D01*
X164443256Y-105796859D01*
X164383072Y-105840586D01*
X164383070Y-105840588D01*
X164383069Y-105840588D01*
X164260588Y-105963069D01*
X164260588Y-105963070D01*
X164260586Y-105963072D01*
X164216859Y-106023256D01*
X164158768Y-106103211D01*
X164080128Y-106257552D01*
X164026597Y-106422302D01*
X163999500Y-106593389D01*
X128100500Y-106593389D01*
X128073402Y-106422299D01*
X128019873Y-106257555D01*
X127941232Y-106103212D01*
X127839414Y-105963072D01*
X127716928Y-105840586D01*
X127576788Y-105738768D01*
X127422445Y-105660127D01*
X127257701Y-105606598D01*
X127257699Y-105606597D01*
X127257698Y-105606597D01*
X127126271Y-105585781D01*
X127086611Y-105579500D01*
X126913389Y-105579500D01*
X126873728Y-105585781D01*
X126742302Y-105606597D01*
X126577552Y-105660128D01*
X126423211Y-105738768D01*
X126343256Y-105796859D01*
X126283072Y-105840586D01*
X126283070Y-105840588D01*
X126283069Y-105840588D01*
X126160588Y-105963069D01*
X126160588Y-105963070D01*
X126160586Y-105963072D01*
X126116859Y-106023256D01*
X126058768Y-106103211D01*
X125980128Y-106257552D01*
X125926597Y-106422302D01*
X125899500Y-106593389D01*
X124550500Y-106593389D01*
X124550500Y-104053389D01*
X125899500Y-104053389D01*
X125899500Y-104226611D01*
X125926598Y-104397701D01*
X125980127Y-104562445D01*
X126058768Y-104716788D01*
X126160586Y-104856928D01*
X126283072Y-104979414D01*
X126423212Y-105081232D01*
X126577555Y-105159873D01*
X126742299Y-105213402D01*
X126913389Y-105240500D01*
X126913390Y-105240500D01*
X127086610Y-105240500D01*
X127086611Y-105240500D01*
X127257701Y-105213402D01*
X127422445Y-105159873D01*
X127430046Y-105156000D01*
X142748000Y-105156000D01*
X149352000Y-105156000D01*
X149352000Y-104053389D01*
X163999500Y-104053389D01*
X163999500Y-104226611D01*
X164026598Y-104397701D01*
X164080127Y-104562445D01*
X164158768Y-104716788D01*
X164260586Y-104856928D01*
X164383072Y-104979414D01*
X164523212Y-105081232D01*
X164677555Y-105159873D01*
X164842299Y-105213402D01*
X165013389Y-105240500D01*
X165013390Y-105240500D01*
X165186610Y-105240500D01*
X165186611Y-105240500D01*
X165357701Y-105213402D01*
X165522445Y-105159873D01*
X165676788Y-105081232D01*
X165816928Y-104979414D01*
X165939414Y-104856928D01*
X166041232Y-104716788D01*
X166119873Y-104562445D01*
X166173402Y-104397701D01*
X166200500Y-104226611D01*
X166200500Y-104053389D01*
X166173402Y-103882299D01*
X166119873Y-103717555D01*
X166041232Y-103563212D01*
X165939414Y-103423072D01*
X165816928Y-103300586D01*
X165676788Y-103198768D01*
X165522445Y-103120127D01*
X165357701Y-103066598D01*
X165357699Y-103066597D01*
X165357698Y-103066597D01*
X165226271Y-103045781D01*
X165186611Y-103039500D01*
X165013389Y-103039500D01*
X164973728Y-103045781D01*
X164842302Y-103066597D01*
X164677552Y-103120128D01*
X164523211Y-103198768D01*
X164443256Y-103256859D01*
X164383072Y-103300586D01*
X164383070Y-103300588D01*
X164383069Y-103300588D01*
X164260588Y-103423069D01*
X164260588Y-103423070D01*
X164260586Y-103423072D01*
X164252149Y-103434685D01*
X164158768Y-103563211D01*
X164080128Y-103717552D01*
X164026597Y-103882302D01*
X164009918Y-103987613D01*
X163999500Y-104053389D01*
X149352000Y-104053389D01*
X149352000Y-101513389D01*
X163999500Y-101513389D01*
X163999500Y-101686610D01*
X164024655Y-101845438D01*
X164026598Y-101857701D01*
X164080127Y-102022445D01*
X164158768Y-102176788D01*
X164260586Y-102316928D01*
X164383072Y-102439414D01*
X164523212Y-102541232D01*
X164677555Y-102619873D01*
X164842299Y-102673402D01*
X165013389Y-102700500D01*
X165013390Y-102700500D01*
X165186610Y-102700500D01*
X165186611Y-102700500D01*
X165357701Y-102673402D01*
X165522445Y-102619873D01*
X165676788Y-102541232D01*
X165816928Y-102439414D01*
X165939414Y-102316928D01*
X166041232Y-102176788D01*
X166119873Y-102022445D01*
X166173402Y-101857701D01*
X166200500Y-101686611D01*
X166200500Y-101513389D01*
X166173402Y-101342299D01*
X166119873Y-101177555D01*
X166041232Y-101023212D01*
X165939414Y-100883072D01*
X165816928Y-100760586D01*
X165676788Y-100658768D01*
X165522445Y-100580127D01*
X165357701Y-100526598D01*
X165357699Y-100526597D01*
X165357698Y-100526597D01*
X165226271Y-100505781D01*
X165186611Y-100499500D01*
X165013389Y-100499500D01*
X164973728Y-100505781D01*
X164842302Y-100526597D01*
X164677552Y-100580128D01*
X164523211Y-100658768D01*
X164461974Y-100703260D01*
X164383072Y-100760586D01*
X164383070Y-100760588D01*
X164383069Y-100760588D01*
X164260588Y-100883069D01*
X164260588Y-100883070D01*
X164260586Y-100883072D01*
X164221256Y-100937205D01*
X164158768Y-101023211D01*
X164080128Y-101177552D01*
X164026597Y-101342302D01*
X163999500Y-101513389D01*
X149352000Y-101513389D01*
X149352000Y-98973389D01*
X163999500Y-98973389D01*
X163999500Y-99146610D01*
X164022893Y-99294313D01*
X164026598Y-99317701D01*
X164080127Y-99482445D01*
X164158768Y-99636788D01*
X164260586Y-99776928D01*
X164383072Y-99899414D01*
X164523212Y-100001232D01*
X164677555Y-100079873D01*
X164842299Y-100133402D01*
X165013389Y-100160500D01*
X165013390Y-100160500D01*
X165186610Y-100160500D01*
X165186611Y-100160500D01*
X165357701Y-100133402D01*
X165522445Y-100079873D01*
X165676788Y-100001232D01*
X165816928Y-99899414D01*
X165939414Y-99776928D01*
X166041232Y-99636788D01*
X166119873Y-99482445D01*
X166173402Y-99317701D01*
X166200500Y-99146611D01*
X166200500Y-98973389D01*
X166173402Y-98802299D01*
X166119873Y-98637555D01*
X166041232Y-98483212D01*
X165939414Y-98343072D01*
X165816928Y-98220586D01*
X165676788Y-98118768D01*
X165522445Y-98040127D01*
X165357701Y-97986598D01*
X165357699Y-97986597D01*
X165357698Y-97986597D01*
X165226271Y-97965781D01*
X165186611Y-97959500D01*
X165013389Y-97959500D01*
X164973728Y-97965781D01*
X164842302Y-97986597D01*
X164677552Y-98040128D01*
X164523211Y-98118768D01*
X164443256Y-98176859D01*
X164383072Y-98220586D01*
X164383070Y-98220588D01*
X164383069Y-98220588D01*
X164260588Y-98343069D01*
X164260588Y-98343070D01*
X164260586Y-98343072D01*
X164216859Y-98403256D01*
X164158768Y-98483211D01*
X164080128Y-98637552D01*
X164026597Y-98802302D01*
X163999500Y-98973389D01*
X149352000Y-98973389D01*
X149352000Y-98552000D01*
X142748000Y-98552000D01*
X142748000Y-105156000D01*
X127430046Y-105156000D01*
X127576788Y-105081232D01*
X127716928Y-104979414D01*
X127839414Y-104856928D01*
X127941232Y-104716788D01*
X128019873Y-104562445D01*
X128073402Y-104397701D01*
X128100500Y-104226611D01*
X128100500Y-104053389D01*
X128073402Y-103882299D01*
X128019873Y-103717555D01*
X127941232Y-103563212D01*
X127941231Y-103563211D01*
X127925937Y-103542160D01*
X127839414Y-103423072D01*
X127716928Y-103300586D01*
X127576788Y-103198768D01*
X127422445Y-103120127D01*
X127257701Y-103066598D01*
X127257699Y-103066597D01*
X127257698Y-103066597D01*
X127126271Y-103045781D01*
X127086611Y-103039500D01*
X126913389Y-103039500D01*
X126873728Y-103045781D01*
X126742302Y-103066597D01*
X126577552Y-103120128D01*
X126423211Y-103198768D01*
X126343256Y-103256859D01*
X126283072Y-103300586D01*
X126283070Y-103300588D01*
X126283069Y-103300588D01*
X126160588Y-103423069D01*
X126160588Y-103423070D01*
X126160586Y-103423072D01*
X126152149Y-103434685D01*
X126058768Y-103563211D01*
X125980128Y-103717552D01*
X125926597Y-103882302D01*
X125909918Y-103987613D01*
X125899500Y-104053389D01*
X124550500Y-104053389D01*
X124550500Y-101513389D01*
X125899500Y-101513389D01*
X125899500Y-101686610D01*
X125924655Y-101845438D01*
X125926598Y-101857701D01*
X125980127Y-102022445D01*
X126058768Y-102176788D01*
X126160586Y-102316928D01*
X126283072Y-102439414D01*
X126423212Y-102541232D01*
X126577555Y-102619873D01*
X126742299Y-102673402D01*
X126913389Y-102700500D01*
X126913390Y-102700500D01*
X127086610Y-102700500D01*
X127086611Y-102700500D01*
X127257701Y-102673402D01*
X127422445Y-102619873D01*
X127576788Y-102541232D01*
X127716928Y-102439414D01*
X127839414Y-102316928D01*
X127941232Y-102176788D01*
X128019873Y-102022445D01*
X128073402Y-101857701D01*
X128083016Y-101796999D01*
X128087053Y-101771514D01*
X128087053Y-101771513D01*
X128100500Y-101686611D01*
X128100500Y-101513389D01*
X128073402Y-101342301D01*
X128073402Y-101342299D01*
X128019873Y-101177555D01*
X127941232Y-101023212D01*
X127839414Y-100883072D01*
X127716928Y-100760586D01*
X127576788Y-100658768D01*
X127422445Y-100580127D01*
X127257701Y-100526598D01*
X127257699Y-100526597D01*
X127257698Y-100526597D01*
X127126271Y-100505781D01*
X127086611Y-100499500D01*
X126913389Y-100499500D01*
X126873728Y-100505781D01*
X126742302Y-100526597D01*
X126577552Y-100580128D01*
X126423211Y-100658768D01*
X126361974Y-100703260D01*
X126283072Y-100760586D01*
X126283070Y-100760588D01*
X126283069Y-100760588D01*
X126160588Y-100883069D01*
X126160588Y-100883070D01*
X126160586Y-100883072D01*
X126121256Y-100937205D01*
X126058768Y-101023211D01*
X125980128Y-101177552D01*
X125926597Y-101342302D01*
X125899500Y-101513389D01*
X124550500Y-101513389D01*
X124550500Y-98973389D01*
X125899500Y-98973389D01*
X125899500Y-99146610D01*
X125922893Y-99294313D01*
X125926598Y-99317701D01*
X125980127Y-99482445D01*
X126058768Y-99636788D01*
X126160586Y-99776928D01*
X126283072Y-99899414D01*
X126423212Y-100001232D01*
X126577555Y-100079873D01*
X126742299Y-100133402D01*
X126913389Y-100160500D01*
X126913390Y-100160500D01*
X127086610Y-100160500D01*
X127086611Y-100160500D01*
X127257701Y-100133402D01*
X127422445Y-100079873D01*
X127576788Y-100001232D01*
X127716928Y-99899414D01*
X127839414Y-99776928D01*
X127941232Y-99636788D01*
X128019873Y-99482445D01*
X128073402Y-99317701D01*
X128100500Y-99146611D01*
X128100500Y-98973389D01*
X128073402Y-98802299D01*
X128019873Y-98637555D01*
X127941232Y-98483212D01*
X127839414Y-98343072D01*
X127716928Y-98220586D01*
X127576788Y-98118768D01*
X127422445Y-98040127D01*
X127257701Y-97986598D01*
X127257699Y-97986597D01*
X127257698Y-97986597D01*
X127126271Y-97965781D01*
X127086611Y-97959500D01*
X126913389Y-97959500D01*
X126873728Y-97965781D01*
X126742302Y-97986597D01*
X126577552Y-98040128D01*
X126423211Y-98118768D01*
X126343256Y-98176859D01*
X126283072Y-98220586D01*
X126283070Y-98220588D01*
X126283069Y-98220588D01*
X126160588Y-98343069D01*
X126160588Y-98343070D01*
X126160586Y-98343072D01*
X126116859Y-98403256D01*
X126058768Y-98483211D01*
X125980128Y-98637552D01*
X125926597Y-98802302D01*
X125899500Y-98973389D01*
X124550500Y-98973389D01*
X124550500Y-96433389D01*
X125899500Y-96433389D01*
X125899500Y-96606611D01*
X125926598Y-96777701D01*
X125980127Y-96942445D01*
X126058768Y-97096788D01*
X126160586Y-97236928D01*
X126283072Y-97359414D01*
X126423212Y-97461232D01*
X126577555Y-97539873D01*
X126742299Y-97593402D01*
X126913389Y-97620500D01*
X126913390Y-97620500D01*
X127086610Y-97620500D01*
X127086611Y-97620500D01*
X127257701Y-97593402D01*
X127422445Y-97539873D01*
X127576788Y-97461232D01*
X127716928Y-97359414D01*
X127839414Y-97236928D01*
X127941232Y-97096788D01*
X128019873Y-96942445D01*
X128073402Y-96777701D01*
X128100500Y-96606611D01*
X128100500Y-96433389D01*
X163999500Y-96433389D01*
X163999500Y-96606611D01*
X164026598Y-96777701D01*
X164080127Y-96942445D01*
X164158768Y-97096788D01*
X164260586Y-97236928D01*
X164383072Y-97359414D01*
X164523212Y-97461232D01*
X164677555Y-97539873D01*
X164842299Y-97593402D01*
X165013389Y-97620500D01*
X165013390Y-97620500D01*
X165186610Y-97620500D01*
X165186611Y-97620500D01*
X165357701Y-97593402D01*
X165522445Y-97539873D01*
X165676788Y-97461232D01*
X165816928Y-97359414D01*
X165939414Y-97236928D01*
X166041232Y-97096788D01*
X166119873Y-96942445D01*
X166173402Y-96777701D01*
X166200500Y-96606611D01*
X166200500Y-96433389D01*
X166173402Y-96262299D01*
X166119873Y-96097555D01*
X166041232Y-95943212D01*
X165939414Y-95803072D01*
X165816928Y-95680586D01*
X165676788Y-95578768D01*
X165522445Y-95500127D01*
X165357701Y-95446598D01*
X165357699Y-95446597D01*
X165357698Y-95446597D01*
X165226271Y-95425781D01*
X165186611Y-95419500D01*
X165013389Y-95419500D01*
X164973728Y-95425781D01*
X164842302Y-95446597D01*
X164677552Y-95500128D01*
X164523211Y-95578768D01*
X164443256Y-95636859D01*
X164383072Y-95680586D01*
X164383070Y-95680588D01*
X164383069Y-95680588D01*
X164260588Y-95803069D01*
X164260588Y-95803070D01*
X164260586Y-95803072D01*
X164216859Y-95863256D01*
X164158768Y-95943211D01*
X164080128Y-96097552D01*
X164026597Y-96262302D01*
X163999500Y-96433389D01*
X128100500Y-96433389D01*
X128073402Y-96262299D01*
X128019873Y-96097555D01*
X127941232Y-95943212D01*
X127839414Y-95803072D01*
X127716928Y-95680586D01*
X127576788Y-95578768D01*
X127422445Y-95500127D01*
X127257701Y-95446598D01*
X127257699Y-95446597D01*
X127257698Y-95446597D01*
X127126271Y-95425781D01*
X127086611Y-95419500D01*
X126913389Y-95419500D01*
X126873728Y-95425781D01*
X126742302Y-95446597D01*
X126577552Y-95500128D01*
X126423211Y-95578768D01*
X126343256Y-95636859D01*
X126283072Y-95680586D01*
X126283070Y-95680588D01*
X126283069Y-95680588D01*
X126160588Y-95803069D01*
X126160588Y-95803070D01*
X126160586Y-95803072D01*
X126116859Y-95863256D01*
X126058768Y-95943211D01*
X125980128Y-96097552D01*
X125926597Y-96262302D01*
X125899500Y-96433389D01*
X124550500Y-96433389D01*
X124550500Y-93893389D01*
X125899500Y-93893389D01*
X125899500Y-94066611D01*
X125926598Y-94237701D01*
X125980127Y-94402445D01*
X126058768Y-94556788D01*
X126160586Y-94696928D01*
X126283072Y-94819414D01*
X126423212Y-94921232D01*
X126577555Y-94999873D01*
X126742299Y-95053402D01*
X126913389Y-95080500D01*
X126913390Y-95080500D01*
X127086610Y-95080500D01*
X127086611Y-95080500D01*
X127257701Y-95053402D01*
X127422445Y-94999873D01*
X127576788Y-94921232D01*
X127716928Y-94819414D01*
X127839414Y-94696928D01*
X127941232Y-94556788D01*
X128019873Y-94402445D01*
X128073402Y-94237701D01*
X128100500Y-94066611D01*
X128100500Y-93893389D01*
X163999500Y-93893389D01*
X163999500Y-94066611D01*
X164026598Y-94237701D01*
X164080127Y-94402445D01*
X164158768Y-94556788D01*
X164260586Y-94696928D01*
X164383072Y-94819414D01*
X164523212Y-94921232D01*
X164677555Y-94999873D01*
X164842299Y-95053402D01*
X165013389Y-95080500D01*
X165013390Y-95080500D01*
X165186610Y-95080500D01*
X165186611Y-95080500D01*
X165357701Y-95053402D01*
X165522445Y-94999873D01*
X165676788Y-94921232D01*
X165816928Y-94819414D01*
X165939414Y-94696928D01*
X166041232Y-94556788D01*
X166119873Y-94402445D01*
X166173402Y-94237701D01*
X166200500Y-94066611D01*
X166200500Y-93893389D01*
X166173402Y-93722299D01*
X166119873Y-93557555D01*
X166041232Y-93403212D01*
X165939414Y-93263072D01*
X165816928Y-93140586D01*
X165676788Y-93038768D01*
X165522445Y-92960127D01*
X165357701Y-92906598D01*
X165357699Y-92906597D01*
X165357698Y-92906597D01*
X165226271Y-92885781D01*
X165186611Y-92879500D01*
X165013389Y-92879500D01*
X164973728Y-92885781D01*
X164842302Y-92906597D01*
X164677552Y-92960128D01*
X164523211Y-93038768D01*
X164443256Y-93096859D01*
X164383072Y-93140586D01*
X164383070Y-93140588D01*
X164383069Y-93140588D01*
X164260588Y-93263069D01*
X164260588Y-93263070D01*
X164260586Y-93263072D01*
X164216859Y-93323256D01*
X164158768Y-93403211D01*
X164080128Y-93557552D01*
X164026597Y-93722302D01*
X163999500Y-93893389D01*
X128100500Y-93893389D01*
X128073402Y-93722299D01*
X128019873Y-93557555D01*
X127941232Y-93403212D01*
X127839414Y-93263072D01*
X127716928Y-93140586D01*
X127576788Y-93038768D01*
X127422445Y-92960127D01*
X127257701Y-92906598D01*
X127257699Y-92906597D01*
X127257698Y-92906597D01*
X127126271Y-92885781D01*
X127086611Y-92879500D01*
X126913389Y-92879500D01*
X126873728Y-92885781D01*
X126742302Y-92906597D01*
X126577552Y-92960128D01*
X126423211Y-93038768D01*
X126343256Y-93096859D01*
X126283072Y-93140586D01*
X126283070Y-93140588D01*
X126283069Y-93140588D01*
X126160588Y-93263069D01*
X126160588Y-93263070D01*
X126160586Y-93263072D01*
X126116859Y-93323256D01*
X126058768Y-93403211D01*
X125980128Y-93557552D01*
X125926597Y-93722302D01*
X125899500Y-93893389D01*
X124550500Y-93893389D01*
X124550500Y-91353389D01*
X125899500Y-91353389D01*
X125899500Y-91526611D01*
X125926598Y-91697701D01*
X125980127Y-91862445D01*
X126058768Y-92016788D01*
X126160586Y-92156928D01*
X126283072Y-92279414D01*
X126423212Y-92381232D01*
X126577555Y-92459873D01*
X126742299Y-92513402D01*
X126913389Y-92540500D01*
X126913390Y-92540500D01*
X127086610Y-92540500D01*
X127086611Y-92540500D01*
X127257701Y-92513402D01*
X127422445Y-92459873D01*
X127576788Y-92381232D01*
X127716928Y-92279414D01*
X127839414Y-92156928D01*
X127941232Y-92016788D01*
X128019873Y-91862445D01*
X128073402Y-91697701D01*
X128100500Y-91526611D01*
X128100500Y-91353389D01*
X163999500Y-91353389D01*
X163999500Y-91526611D01*
X164026598Y-91697701D01*
X164080127Y-91862445D01*
X164158768Y-92016788D01*
X164260586Y-92156928D01*
X164383072Y-92279414D01*
X164523212Y-92381232D01*
X164677555Y-92459873D01*
X164842299Y-92513402D01*
X165013389Y-92540500D01*
X165013390Y-92540500D01*
X165186610Y-92540500D01*
X165186611Y-92540500D01*
X165357701Y-92513402D01*
X165522445Y-92459873D01*
X165676788Y-92381232D01*
X165816928Y-92279414D01*
X165939414Y-92156928D01*
X166041232Y-92016788D01*
X166119873Y-91862445D01*
X166173402Y-91697701D01*
X166200500Y-91526611D01*
X166200500Y-91353389D01*
X166173402Y-91182299D01*
X166119873Y-91017555D01*
X166041232Y-90863212D01*
X165939414Y-90723072D01*
X165816928Y-90600586D01*
X165676788Y-90498768D01*
X165522445Y-90420127D01*
X165357701Y-90366598D01*
X165357699Y-90366597D01*
X165357698Y-90366597D01*
X165226271Y-90345781D01*
X165186611Y-90339500D01*
X165013389Y-90339500D01*
X164973728Y-90345781D01*
X164842302Y-90366597D01*
X164677552Y-90420128D01*
X164523211Y-90498768D01*
X164443256Y-90556859D01*
X164383072Y-90600586D01*
X164383070Y-90600588D01*
X164383069Y-90600588D01*
X164260588Y-90723069D01*
X164260588Y-90723070D01*
X164260586Y-90723072D01*
X164216859Y-90783256D01*
X164158768Y-90863211D01*
X164080128Y-91017552D01*
X164026597Y-91182302D01*
X163999500Y-91353389D01*
X128100500Y-91353389D01*
X128073402Y-91182299D01*
X128019873Y-91017555D01*
X127941232Y-90863212D01*
X127839414Y-90723072D01*
X127716928Y-90600586D01*
X127576788Y-90498768D01*
X127422445Y-90420127D01*
X127257701Y-90366598D01*
X127257699Y-90366597D01*
X127257698Y-90366597D01*
X127126271Y-90345781D01*
X127086611Y-90339500D01*
X126913389Y-90339500D01*
X126873728Y-90345781D01*
X126742302Y-90366597D01*
X126577552Y-90420128D01*
X126423211Y-90498768D01*
X126343256Y-90556859D01*
X126283072Y-90600586D01*
X126283070Y-90600588D01*
X126283069Y-90600588D01*
X126160588Y-90723069D01*
X126160588Y-90723070D01*
X126160586Y-90723072D01*
X126116859Y-90783256D01*
X126058768Y-90863211D01*
X125980128Y-91017552D01*
X125926597Y-91182302D01*
X125899500Y-91353389D01*
X124550500Y-91353389D01*
X124550500Y-88813389D01*
X125899500Y-88813389D01*
X125899500Y-88986611D01*
X125926598Y-89157701D01*
X125980127Y-89322445D01*
X126058768Y-89476788D01*
X126160586Y-89616928D01*
X126283072Y-89739414D01*
X126423212Y-89841232D01*
X126577555Y-89919873D01*
X126742299Y-89973402D01*
X126913389Y-90000500D01*
X126913390Y-90000500D01*
X127086610Y-90000500D01*
X127086611Y-90000500D01*
X127257701Y-89973402D01*
X127422445Y-89919873D01*
X127576788Y-89841232D01*
X127716928Y-89739414D01*
X127839414Y-89616928D01*
X127941232Y-89476788D01*
X128019873Y-89322445D01*
X128073402Y-89157701D01*
X128100500Y-88986611D01*
X128100500Y-88813389D01*
X163999500Y-88813389D01*
X163999500Y-88986611D01*
X164026598Y-89157701D01*
X164080127Y-89322445D01*
X164158768Y-89476788D01*
X164260586Y-89616928D01*
X164383072Y-89739414D01*
X164523212Y-89841232D01*
X164677555Y-89919873D01*
X164842299Y-89973402D01*
X165013389Y-90000500D01*
X165013390Y-90000500D01*
X165186610Y-90000500D01*
X165186611Y-90000500D01*
X165357701Y-89973402D01*
X165522445Y-89919873D01*
X165676788Y-89841232D01*
X165816928Y-89739414D01*
X165939414Y-89616928D01*
X166041232Y-89476788D01*
X166119873Y-89322445D01*
X166173402Y-89157701D01*
X166200500Y-88986611D01*
X166200500Y-88813389D01*
X166173402Y-88642299D01*
X166119873Y-88477555D01*
X166041232Y-88323212D01*
X165939414Y-88183072D01*
X165816928Y-88060586D01*
X165676788Y-87958768D01*
X165522445Y-87880127D01*
X165357701Y-87826598D01*
X165357699Y-87826597D01*
X165357698Y-87826597D01*
X165226271Y-87805781D01*
X165186611Y-87799500D01*
X165013389Y-87799500D01*
X164973728Y-87805781D01*
X164842302Y-87826597D01*
X164677552Y-87880128D01*
X164523211Y-87958768D01*
X164443256Y-88016859D01*
X164383072Y-88060586D01*
X164383070Y-88060588D01*
X164383069Y-88060588D01*
X164260588Y-88183069D01*
X164260588Y-88183070D01*
X164260586Y-88183072D01*
X164216859Y-88243256D01*
X164158768Y-88323211D01*
X164080128Y-88477552D01*
X164026597Y-88642302D01*
X163999500Y-88813389D01*
X128100500Y-88813389D01*
X128073402Y-88642299D01*
X128019873Y-88477555D01*
X127941232Y-88323212D01*
X127839414Y-88183072D01*
X127716928Y-88060586D01*
X127576788Y-87958768D01*
X127422445Y-87880127D01*
X127257701Y-87826598D01*
X127257699Y-87826597D01*
X127257698Y-87826597D01*
X127126271Y-87805781D01*
X127086611Y-87799500D01*
X126913389Y-87799500D01*
X126873728Y-87805781D01*
X126742302Y-87826597D01*
X126577552Y-87880128D01*
X126423211Y-87958768D01*
X126343256Y-88016859D01*
X126283072Y-88060586D01*
X126283070Y-88060588D01*
X126283069Y-88060588D01*
X126160588Y-88183069D01*
X126160588Y-88183070D01*
X126160586Y-88183072D01*
X126116859Y-88243256D01*
X126058768Y-88323211D01*
X125980128Y-88477552D01*
X125926597Y-88642302D01*
X125899500Y-88813389D01*
X124550500Y-88813389D01*
X124550500Y-78633753D01*
X125650000Y-78633753D01*
X125650000Y-78846246D01*
X125683242Y-79056127D01*
X125683242Y-79056130D01*
X125748904Y-79258217D01*
X125845375Y-79447550D01*
X125884728Y-79501716D01*
X126517037Y-78869408D01*
X126534075Y-78932993D01*
X126599901Y-79047007D01*
X126692993Y-79140099D01*
X126807007Y-79205925D01*
X126870590Y-79222962D01*
X126238282Y-79855269D01*
X126238282Y-79855270D01*
X126292449Y-79894624D01*
X126481784Y-79991096D01*
X126580711Y-80023239D01*
X126638387Y-80062676D01*
X126665586Y-80127034D01*
X126653672Y-80195881D01*
X126606428Y-80247357D01*
X126580722Y-80259097D01*
X126579522Y-80259487D01*
X126577550Y-80260128D01*
X126423211Y-80338768D01*
X126343256Y-80396859D01*
X126283072Y-80440586D01*
X126283070Y-80440588D01*
X126283069Y-80440588D01*
X126160588Y-80563069D01*
X126160588Y-80563070D01*
X126160586Y-80563072D01*
X126116859Y-80623256D01*
X126058768Y-80703211D01*
X125980128Y-80857552D01*
X125926597Y-81022302D01*
X125918416Y-81073956D01*
X125899500Y-81193389D01*
X125899500Y-81366611D01*
X125926598Y-81537701D01*
X125980127Y-81702445D01*
X126058768Y-81856788D01*
X126160586Y-81996928D01*
X126283072Y-82119414D01*
X126423212Y-82221232D01*
X126577555Y-82299873D01*
X126580708Y-82300897D01*
X126581752Y-82301611D01*
X126582048Y-82301734D01*
X126582022Y-82301795D01*
X126638383Y-82340330D01*
X126665585Y-82404688D01*
X126653674Y-82473535D01*
X126606433Y-82525013D01*
X126580712Y-82536760D01*
X126481783Y-82568904D01*
X126292439Y-82665380D01*
X126238282Y-82704727D01*
X126238282Y-82704728D01*
X126870591Y-83337037D01*
X126807007Y-83354075D01*
X126692993Y-83419901D01*
X126599901Y-83512993D01*
X126534075Y-83627007D01*
X126517037Y-83690591D01*
X125884728Y-83058282D01*
X125884727Y-83058282D01*
X125845380Y-83112439D01*
X125748904Y-83301782D01*
X125683242Y-83503869D01*
X125683242Y-83503872D01*
X125650000Y-83713753D01*
X125650000Y-83926246D01*
X125683242Y-84136127D01*
X125683242Y-84136130D01*
X125748904Y-84338217D01*
X125845375Y-84527550D01*
X125884728Y-84581716D01*
X126517037Y-83949408D01*
X126534075Y-84012993D01*
X126599901Y-84127007D01*
X126692993Y-84220099D01*
X126807007Y-84285925D01*
X126870590Y-84302962D01*
X126238282Y-84935269D01*
X126238282Y-84935270D01*
X126292449Y-84974624D01*
X126481784Y-85071096D01*
X126580711Y-85103239D01*
X126638387Y-85142676D01*
X126665586Y-85207034D01*
X126653672Y-85275881D01*
X126606428Y-85327357D01*
X126580722Y-85339097D01*
X126579522Y-85339487D01*
X126577550Y-85340128D01*
X126423211Y-85418768D01*
X126343256Y-85476859D01*
X126283072Y-85520586D01*
X126283070Y-85520588D01*
X126283069Y-85520588D01*
X126160588Y-85643069D01*
X126160588Y-85643070D01*
X126160586Y-85643072D01*
X126116859Y-85703256D01*
X126058768Y-85783211D01*
X125980128Y-85937552D01*
X125926597Y-86102302D01*
X125899500Y-86273389D01*
X125899500Y-86446611D01*
X125926598Y-86617701D01*
X125980127Y-86782445D01*
X126058768Y-86936788D01*
X126160586Y-87076928D01*
X126283072Y-87199414D01*
X126423212Y-87301232D01*
X126577555Y-87379873D01*
X126742299Y-87433402D01*
X126913389Y-87460500D01*
X126913390Y-87460500D01*
X127086610Y-87460500D01*
X127086611Y-87460500D01*
X127257701Y-87433402D01*
X127422445Y-87379873D01*
X127576788Y-87301232D01*
X127716928Y-87199414D01*
X127839414Y-87076928D01*
X127941232Y-86936788D01*
X128019873Y-86782445D01*
X128073402Y-86617701D01*
X128100500Y-86446611D01*
X128100500Y-86273389D01*
X163999500Y-86273389D01*
X163999500Y-86446611D01*
X164026598Y-86617701D01*
X164080127Y-86782445D01*
X164158768Y-86936788D01*
X164260586Y-87076928D01*
X164383072Y-87199414D01*
X164523212Y-87301232D01*
X164677555Y-87379873D01*
X164842299Y-87433402D01*
X165013389Y-87460500D01*
X165013390Y-87460500D01*
X165186610Y-87460500D01*
X165186611Y-87460500D01*
X165357701Y-87433402D01*
X165522445Y-87379873D01*
X165676788Y-87301232D01*
X165816928Y-87199414D01*
X165939414Y-87076928D01*
X166041232Y-86936788D01*
X166119873Y-86782445D01*
X166173402Y-86617701D01*
X166200500Y-86446611D01*
X166200500Y-86273389D01*
X166173402Y-86102299D01*
X166119873Y-85937555D01*
X166041232Y-85783212D01*
X165939414Y-85643072D01*
X165816928Y-85520586D01*
X165676788Y-85418768D01*
X165522445Y-85340127D01*
X165357701Y-85286598D01*
X165357699Y-85286597D01*
X165357698Y-85286597D01*
X165226271Y-85265781D01*
X165186611Y-85259500D01*
X165013389Y-85259500D01*
X164973728Y-85265781D01*
X164842302Y-85286597D01*
X164842299Y-85286598D01*
X164682923Y-85338383D01*
X164677552Y-85340128D01*
X164523211Y-85418768D01*
X164443256Y-85476859D01*
X164383072Y-85520586D01*
X164383070Y-85520588D01*
X164383069Y-85520588D01*
X164260588Y-85643069D01*
X164260588Y-85643070D01*
X164260586Y-85643072D01*
X164216859Y-85703256D01*
X164158768Y-85783211D01*
X164080128Y-85937552D01*
X164026597Y-86102302D01*
X163999500Y-86273389D01*
X128100500Y-86273389D01*
X128073402Y-86102299D01*
X128019873Y-85937555D01*
X127941232Y-85783212D01*
X127839414Y-85643072D01*
X127716928Y-85520586D01*
X127576788Y-85418768D01*
X127422446Y-85340127D01*
X127419284Y-85339100D01*
X127418236Y-85338383D01*
X127417952Y-85338266D01*
X127417976Y-85338206D01*
X127361609Y-85299661D01*
X127334413Y-85235302D01*
X127346329Y-85166456D01*
X127393574Y-85114981D01*
X127419288Y-85103239D01*
X127518215Y-85071096D01*
X127707554Y-84974622D01*
X127761716Y-84935270D01*
X127761717Y-84935270D01*
X127129408Y-84302962D01*
X127192993Y-84285925D01*
X127307007Y-84220099D01*
X127400099Y-84127007D01*
X127465925Y-84012993D01*
X127482962Y-83949408D01*
X128115270Y-84581717D01*
X128115270Y-84581716D01*
X128154622Y-84527554D01*
X128251095Y-84338217D01*
X128316757Y-84136130D01*
X128316757Y-84136127D01*
X128350000Y-83926246D01*
X128350000Y-83733389D01*
X163999500Y-83733389D01*
X163999500Y-83906611D01*
X164026598Y-84077701D01*
X164080127Y-84242445D01*
X164158768Y-84396788D01*
X164260586Y-84536928D01*
X164383072Y-84659414D01*
X164523212Y-84761232D01*
X164677555Y-84839873D01*
X164842299Y-84893402D01*
X165013389Y-84920500D01*
X165013390Y-84920500D01*
X165186610Y-84920500D01*
X165186611Y-84920500D01*
X165357701Y-84893402D01*
X165522445Y-84839873D01*
X165676788Y-84761232D01*
X165816928Y-84659414D01*
X165939414Y-84536928D01*
X166041232Y-84396788D01*
X166119873Y-84242445D01*
X166173402Y-84077701D01*
X166200500Y-83906611D01*
X166200500Y-83733389D01*
X166173402Y-83562299D01*
X166119873Y-83397555D01*
X166041232Y-83243212D01*
X165939414Y-83103072D01*
X165816928Y-82980586D01*
X165676788Y-82878768D01*
X165522445Y-82800127D01*
X165357701Y-82746598D01*
X165357699Y-82746597D01*
X165357698Y-82746597D01*
X165226271Y-82725781D01*
X165186611Y-82719500D01*
X165013389Y-82719500D01*
X164973728Y-82725781D01*
X164842302Y-82746597D01*
X164677552Y-82800128D01*
X164523211Y-82878768D01*
X164443256Y-82936859D01*
X164383072Y-82980586D01*
X164383070Y-82980588D01*
X164383069Y-82980588D01*
X164260588Y-83103069D01*
X164260588Y-83103070D01*
X164260586Y-83103072D01*
X164216859Y-83163256D01*
X164158768Y-83243211D01*
X164080128Y-83397552D01*
X164026597Y-83562302D01*
X164016349Y-83627007D01*
X163999500Y-83733389D01*
X128350000Y-83733389D01*
X128350000Y-83713753D01*
X128316757Y-83503872D01*
X128316757Y-83503869D01*
X128251095Y-83301782D01*
X128154624Y-83112449D01*
X128115270Y-83058282D01*
X128115269Y-83058282D01*
X127482962Y-83690590D01*
X127465925Y-83627007D01*
X127400099Y-83512993D01*
X127307007Y-83419901D01*
X127192993Y-83354075D01*
X127129409Y-83337037D01*
X127761716Y-82704728D01*
X127707550Y-82665375D01*
X127518217Y-82568904D01*
X127419287Y-82536760D01*
X127361611Y-82497323D01*
X127334413Y-82432964D01*
X127346328Y-82364118D01*
X127393572Y-82312642D01*
X127419290Y-82300897D01*
X127422445Y-82299873D01*
X127576788Y-82221232D01*
X127716928Y-82119414D01*
X127839414Y-81996928D01*
X127941232Y-81856788D01*
X128019873Y-81702445D01*
X128073402Y-81537701D01*
X128100500Y-81366611D01*
X128100500Y-81193389D01*
X163999500Y-81193389D01*
X163999500Y-81366611D01*
X164026598Y-81537701D01*
X164080127Y-81702445D01*
X164158768Y-81856788D01*
X164260586Y-81996928D01*
X164383072Y-82119414D01*
X164523212Y-82221232D01*
X164677555Y-82299873D01*
X164842299Y-82353402D01*
X165013389Y-82380500D01*
X165013390Y-82380500D01*
X165186610Y-82380500D01*
X165186611Y-82380500D01*
X165357701Y-82353402D01*
X165522445Y-82299873D01*
X165676788Y-82221232D01*
X165816928Y-82119414D01*
X165939414Y-81996928D01*
X166041232Y-81856788D01*
X166119873Y-81702445D01*
X166173402Y-81537701D01*
X166200500Y-81366611D01*
X166200500Y-81193389D01*
X166173402Y-81022299D01*
X166119873Y-80857555D01*
X166041232Y-80703212D01*
X165939414Y-80563072D01*
X165816928Y-80440586D01*
X165676788Y-80338768D01*
X165522445Y-80260127D01*
X165357701Y-80206598D01*
X165357699Y-80206597D01*
X165357698Y-80206597D01*
X165226271Y-80185781D01*
X165186611Y-80179500D01*
X165013389Y-80179500D01*
X164973728Y-80185781D01*
X164842302Y-80206597D01*
X164842299Y-80206598D01*
X164682923Y-80258383D01*
X164677552Y-80260128D01*
X164523211Y-80338768D01*
X164443256Y-80396859D01*
X164383072Y-80440586D01*
X164383070Y-80440588D01*
X164383069Y-80440588D01*
X164260588Y-80563069D01*
X164260588Y-80563070D01*
X164260586Y-80563072D01*
X164216859Y-80623256D01*
X164158768Y-80703211D01*
X164080128Y-80857552D01*
X164026597Y-81022302D01*
X164018416Y-81073956D01*
X163999500Y-81193389D01*
X128100500Y-81193389D01*
X128073402Y-81022299D01*
X128019873Y-80857555D01*
X127941232Y-80703212D01*
X127839414Y-80563072D01*
X127716928Y-80440586D01*
X127576788Y-80338768D01*
X127463011Y-80280796D01*
X127422446Y-80260127D01*
X127419284Y-80259100D01*
X127418236Y-80258383D01*
X127417952Y-80258266D01*
X127417976Y-80258206D01*
X127361609Y-80219661D01*
X127334413Y-80155302D01*
X127346329Y-80086456D01*
X127393574Y-80034981D01*
X127419288Y-80023239D01*
X127518215Y-79991096D01*
X127707554Y-79894622D01*
X127761716Y-79855270D01*
X127129408Y-79222962D01*
X127192993Y-79205925D01*
X127307007Y-79140099D01*
X127400099Y-79047007D01*
X127465925Y-78932993D01*
X127482962Y-78869408D01*
X128115270Y-79501717D01*
X128115270Y-79501716D01*
X128154622Y-79447554D01*
X128251095Y-79258217D01*
X128316757Y-79056130D01*
X128316757Y-79056127D01*
X128330952Y-78966504D01*
X131330000Y-78966504D01*
X131330000Y-79365000D01*
X132030000Y-79365000D01*
X132030000Y-79865000D01*
X131330000Y-79865000D01*
X131330000Y-80263495D01*
X131368427Y-80456681D01*
X131368430Y-80456693D01*
X131443807Y-80638671D01*
X131443814Y-80638684D01*
X131553248Y-80802462D01*
X131553251Y-80802466D01*
X131692533Y-80941748D01*
X131692537Y-80941751D01*
X131856315Y-81051185D01*
X131856328Y-81051192D01*
X132038308Y-81126569D01*
X132080000Y-81134862D01*
X132080000Y-80331988D01*
X132089940Y-80349205D01*
X132145795Y-80405060D01*
X132214204Y-80444556D01*
X132290504Y-80465000D01*
X132369496Y-80465000D01*
X132445796Y-80444556D01*
X132514205Y-80405060D01*
X132570060Y-80349205D01*
X132580000Y-80331988D01*
X132580000Y-81134862D01*
X132621690Y-81126569D01*
X132621692Y-81126569D01*
X132803671Y-81051192D01*
X132803684Y-81051185D01*
X132967462Y-80941751D01*
X132967466Y-80941748D01*
X133106748Y-80802466D01*
X133106751Y-80802462D01*
X133216185Y-80638684D01*
X133216192Y-80638671D01*
X133291569Y-80456693D01*
X133291572Y-80456681D01*
X133329999Y-80263495D01*
X133330000Y-80263492D01*
X133330000Y-79865000D01*
X132630000Y-79865000D01*
X132630000Y-79365000D01*
X133225950Y-79365000D01*
X133292989Y-79384685D01*
X133333337Y-79426999D01*
X133339492Y-79437661D01*
X133339495Y-79437665D01*
X133437335Y-79535505D01*
X133557164Y-79604688D01*
X133690817Y-79640500D01*
X133690819Y-79640500D01*
X133829181Y-79640500D01*
X133829183Y-79640500D01*
X133962836Y-79604688D01*
X134082665Y-79535505D01*
X134180505Y-79437665D01*
X134249688Y-79317836D01*
X134285500Y-79184183D01*
X134285500Y-79045817D01*
X139014500Y-79045817D01*
X139014500Y-79184183D01*
X139034338Y-79258217D01*
X139050312Y-79317835D01*
X139050313Y-79317838D01*
X139119492Y-79437661D01*
X139119494Y-79437664D01*
X139119495Y-79437665D01*
X139217335Y-79535505D01*
X139337164Y-79604688D01*
X139470817Y-79640500D01*
X139470819Y-79640500D01*
X139609181Y-79640500D01*
X139609183Y-79640500D01*
X139742836Y-79604688D01*
X139862665Y-79535505D01*
X139960505Y-79437665D01*
X139966663Y-79426999D01*
X140017231Y-79378784D01*
X140074050Y-79365000D01*
X140670000Y-79365000D01*
X140670000Y-79865000D01*
X139970000Y-79865000D01*
X139970000Y-80263495D01*
X140008427Y-80456681D01*
X140008430Y-80456693D01*
X140083807Y-80638671D01*
X140083814Y-80638684D01*
X140193248Y-80802462D01*
X140193251Y-80802466D01*
X140332533Y-80941748D01*
X140332537Y-80941751D01*
X140496315Y-81051185D01*
X140496328Y-81051192D01*
X140678308Y-81126569D01*
X140720000Y-81134862D01*
X140720000Y-80331988D01*
X140729940Y-80349205D01*
X140785795Y-80405060D01*
X140854204Y-80444556D01*
X140930504Y-80465000D01*
X141009496Y-80465000D01*
X141085796Y-80444556D01*
X141154205Y-80405060D01*
X141210060Y-80349205D01*
X141220000Y-80331988D01*
X141220000Y-81134862D01*
X141261690Y-81126569D01*
X141261692Y-81126569D01*
X141388714Y-81073956D01*
X141443671Y-81051192D01*
X141443684Y-81051185D01*
X141607462Y-80941751D01*
X141607466Y-80941748D01*
X141746748Y-80802466D01*
X141746751Y-80802462D01*
X141856185Y-80638684D01*
X141856192Y-80638671D01*
X141931569Y-80456693D01*
X141931572Y-80456681D01*
X141969999Y-80263495D01*
X141970000Y-80263492D01*
X141970000Y-79865000D01*
X141270000Y-79865000D01*
X141270000Y-79365000D01*
X141970000Y-79365000D01*
X141970000Y-78966508D01*
X141969999Y-78966504D01*
X141931572Y-78773318D01*
X141931570Y-78773310D01*
X141899535Y-78695970D01*
X141899534Y-78695968D01*
X141881898Y-78653389D01*
X163999500Y-78653389D01*
X163999500Y-78826610D01*
X164021657Y-78966508D01*
X164026598Y-78997701D01*
X164080127Y-79162445D01*
X164158768Y-79316788D01*
X164260586Y-79456928D01*
X164383072Y-79579414D01*
X164523212Y-79681232D01*
X164677555Y-79759873D01*
X164842299Y-79813402D01*
X165013389Y-79840500D01*
X165013390Y-79840500D01*
X165186610Y-79840500D01*
X165186611Y-79840500D01*
X165357701Y-79813402D01*
X165522445Y-79759873D01*
X165676788Y-79681232D01*
X165816928Y-79579414D01*
X165939414Y-79456928D01*
X166041232Y-79316788D01*
X166119873Y-79162445D01*
X166173402Y-78997701D01*
X166200500Y-78826611D01*
X166200500Y-78653389D01*
X166173402Y-78482299D01*
X166119873Y-78317555D01*
X166041232Y-78163212D01*
X165939414Y-78023072D01*
X165816928Y-77900586D01*
X165676788Y-77798768D01*
X165522445Y-77720127D01*
X165357701Y-77666598D01*
X165357699Y-77666597D01*
X165357698Y-77666597D01*
X165226271Y-77645781D01*
X165186611Y-77639500D01*
X165013389Y-77639500D01*
X164973728Y-77645781D01*
X164842302Y-77666597D01*
X164677552Y-77720128D01*
X164523211Y-77798768D01*
X164443256Y-77856859D01*
X164383072Y-77900586D01*
X164383070Y-77900588D01*
X164383069Y-77900588D01*
X164260588Y-78023069D01*
X164260588Y-78023070D01*
X164260586Y-78023072D01*
X164216859Y-78083256D01*
X164158768Y-78163211D01*
X164080128Y-78317552D01*
X164026597Y-78482302D01*
X163999500Y-78653389D01*
X141881898Y-78653389D01*
X141856192Y-78591328D01*
X141856185Y-78591315D01*
X141746751Y-78427537D01*
X141746748Y-78427533D01*
X141607466Y-78288251D01*
X141607462Y-78288248D01*
X141443684Y-78178814D01*
X141443671Y-78178807D01*
X141261691Y-78103429D01*
X141261683Y-78103427D01*
X141220000Y-78095135D01*
X141220000Y-78898011D01*
X141210060Y-78880795D01*
X141154205Y-78824940D01*
X141085796Y-78785444D01*
X141009496Y-78765000D01*
X140930504Y-78765000D01*
X140854204Y-78785444D01*
X140785795Y-78824940D01*
X140729940Y-78880795D01*
X140720000Y-78898011D01*
X140720000Y-78095136D01*
X140719999Y-78095135D01*
X140678316Y-78103427D01*
X140678308Y-78103429D01*
X140496328Y-78178807D01*
X140496315Y-78178814D01*
X140332537Y-78288248D01*
X140332533Y-78288251D01*
X140193251Y-78427533D01*
X140193248Y-78427537D01*
X140083814Y-78591315D01*
X140083807Y-78591328D01*
X140059838Y-78649197D01*
X140015997Y-78703601D01*
X139949703Y-78725666D01*
X139882004Y-78708387D01*
X139869624Y-78698770D01*
X139869110Y-78699441D01*
X139862661Y-78694492D01*
X139742838Y-78625313D01*
X139742837Y-78625312D01*
X139742836Y-78625312D01*
X139609183Y-78589500D01*
X139470817Y-78589500D01*
X139337164Y-78625312D01*
X139337161Y-78625313D01*
X139217338Y-78694492D01*
X139217333Y-78694496D01*
X139119496Y-78792333D01*
X139119492Y-78792338D01*
X139050313Y-78912161D01*
X139050312Y-78912164D01*
X139014500Y-79045817D01*
X134285500Y-79045817D01*
X134249688Y-78912164D01*
X134200294Y-78826610D01*
X134180507Y-78792338D01*
X134180503Y-78792333D01*
X134082666Y-78694496D01*
X134082661Y-78694492D01*
X133962838Y-78625313D01*
X133962837Y-78625312D01*
X133962836Y-78625312D01*
X133829183Y-78589500D01*
X133690817Y-78589500D01*
X133557164Y-78625312D01*
X133557161Y-78625313D01*
X133437338Y-78694492D01*
X133430890Y-78699441D01*
X133428883Y-78696825D01*
X133380991Y-78722931D01*
X133311303Y-78717895D01*
X133255400Y-78675982D01*
X133240160Y-78649196D01*
X133216189Y-78591322D01*
X133216185Y-78591315D01*
X133106751Y-78427537D01*
X133106748Y-78427533D01*
X132967466Y-78288251D01*
X132967462Y-78288248D01*
X132803684Y-78178814D01*
X132803671Y-78178807D01*
X132621691Y-78103429D01*
X132621683Y-78103427D01*
X132580000Y-78095135D01*
X132580000Y-78898011D01*
X132570060Y-78880795D01*
X132514205Y-78824940D01*
X132445796Y-78785444D01*
X132369496Y-78765000D01*
X132290504Y-78765000D01*
X132214204Y-78785444D01*
X132145795Y-78824940D01*
X132089940Y-78880795D01*
X132080000Y-78898011D01*
X132080000Y-78095136D01*
X132079999Y-78095135D01*
X132038316Y-78103427D01*
X132038308Y-78103429D01*
X131856328Y-78178807D01*
X131856315Y-78178814D01*
X131692537Y-78288248D01*
X131692533Y-78288251D01*
X131553251Y-78427533D01*
X131553248Y-78427537D01*
X131443814Y-78591315D01*
X131443807Y-78591328D01*
X131368430Y-78773306D01*
X131368427Y-78773318D01*
X131330000Y-78966504D01*
X128330952Y-78966504D01*
X128334989Y-78941019D01*
X128350000Y-78846245D01*
X128350000Y-78633753D01*
X128316757Y-78423872D01*
X128316757Y-78423869D01*
X128251095Y-78221782D01*
X128154624Y-78032449D01*
X128115270Y-77978282D01*
X128115269Y-77978282D01*
X127482962Y-78610590D01*
X127465925Y-78547007D01*
X127400099Y-78432993D01*
X127307007Y-78339901D01*
X127192993Y-78274075D01*
X127129409Y-78257037D01*
X127761716Y-77624728D01*
X127707550Y-77585375D01*
X127608655Y-77534985D01*
X127557859Y-77487010D01*
X127541064Y-77419189D01*
X127563602Y-77353054D01*
X127618317Y-77309603D01*
X127664950Y-77300500D01*
X127874676Y-77300500D01*
X127874677Y-77300499D01*
X127947740Y-77285966D01*
X128030601Y-77230601D01*
X128085966Y-77147740D01*
X128100500Y-77074674D01*
X128100500Y-75325326D01*
X128100500Y-75325323D01*
X128100499Y-75325321D01*
X128085967Y-75252264D01*
X128085966Y-75252260D01*
X128030601Y-75169399D01*
X127947740Y-75114034D01*
X127947739Y-75114033D01*
X127947735Y-75114032D01*
X127874677Y-75099500D01*
X127874674Y-75099500D01*
X126125326Y-75099500D01*
X126125323Y-75099500D01*
X126052264Y-75114032D01*
X126052260Y-75114033D01*
X125969399Y-75169399D01*
X125914033Y-75252260D01*
X125914032Y-75252264D01*
X125899500Y-75325321D01*
X125899500Y-77074678D01*
X125914032Y-77147735D01*
X125914033Y-77147739D01*
X125914034Y-77147740D01*
X125969399Y-77230601D01*
X126052260Y-77285966D01*
X126052264Y-77285967D01*
X126125321Y-77300499D01*
X126125324Y-77300500D01*
X126335051Y-77300500D01*
X126402090Y-77320185D01*
X126447845Y-77372989D01*
X126457789Y-77442147D01*
X126428764Y-77505703D01*
X126391346Y-77534985D01*
X126292439Y-77585380D01*
X126238282Y-77624727D01*
X126238282Y-77624728D01*
X126870591Y-78257037D01*
X126807007Y-78274075D01*
X126692993Y-78339901D01*
X126599901Y-78432993D01*
X126534075Y-78547007D01*
X126517037Y-78610591D01*
X125884728Y-77978282D01*
X125884727Y-77978282D01*
X125845380Y-78032439D01*
X125748904Y-78221782D01*
X125683242Y-78423869D01*
X125683242Y-78423872D01*
X125650000Y-78633753D01*
X124550500Y-78633753D01*
X124550500Y-76004427D01*
X124550816Y-75995581D01*
X124555213Y-75934108D01*
X124565131Y-75795434D01*
X124567646Y-75777938D01*
X124609356Y-75586199D01*
X124614333Y-75569248D01*
X124682911Y-75385385D01*
X124690252Y-75369309D01*
X124784295Y-75197082D01*
X124793845Y-75182221D01*
X124911448Y-75025123D01*
X124923020Y-75011769D01*
X125061769Y-74873020D01*
X125075123Y-74861448D01*
X125232221Y-74743845D01*
X125247089Y-74734291D01*
X125419298Y-74640258D01*
X125435385Y-74632911D01*
X125619248Y-74564333D01*
X125636199Y-74559356D01*
X125827938Y-74517646D01*
X125845436Y-74515130D01*
X126045582Y-74500816D01*
X126054428Y-74500500D01*
X126115892Y-74500500D01*
X131283425Y-74500500D01*
X131350464Y-74520185D01*
G37*
%TD.AperFunction*%
%TD*%
%TA.AperFunction,Conductor*%
%TO.N,GND*%
G36*
X149352000Y-105156000D02*
G01*
X142748000Y-105156000D01*
X142748000Y-98552000D01*
X149352000Y-98552000D01*
X149352000Y-105156000D01*
G37*
%TD.AperFunction*%
%TD*%
M02*
