M48
; DRILL file {KiCad 9.0.5} date 2026-03-15T20:25:35-0600
; FORMAT={-:-/ absolute / metric / decimal}
; #@! TF.CreationDate,2026-03-15T20:25:35-06:00
; #@! TF.GenerationSoftware,Kicad,Pcbnew,9.0.5
; #@! TF.FileFunction,Plated,1,4,PTH
FMAT,2
METRIC
; #@! TA.AperFunction,Plated,PTH,ViaDrill
T1C0.250
; #@! TA.AperFunction,Plated,PTH,ComponentDrill
T2C0.330
; #@! TA.AperFunction,Plated,PTH,ComponentDrill
T3C0.600
; #@! TA.AperFunction,Plated,PTH,ComponentDrill
T4C1.000
%
G90
G05
T1
X131.064Y-109.474
X131.064Y-110.744
X133.096Y-111.506
X133.604Y-122.682
X135.128Y-109.474
X135.128Y-110.744
X137.16Y-109.474
X137.16Y-110.744
X138.684Y-122.682
X139.192Y-111.506
X141.224Y-109.474
X141.224Y-110.744
X141.732Y-128.2
X143.256Y-123.19
X144.78Y-123.19
X147.32Y-123.19
X148.844Y-123.19
X150.368Y-128.2
X153.416Y-122.682
X158.496Y-122.682
T2
X143.676Y-99.528
X143.676Y-100.703
X143.676Y-101.878
X143.676Y-103.053
X143.676Y-104.228
X144.851Y-99.528
X144.851Y-100.703
X144.851Y-101.878
X144.851Y-103.053
X144.851Y-104.228
X146.026Y-99.528
X146.026Y-100.703
X146.026Y-101.878
X146.026Y-103.053
X146.026Y-104.228
X147.201Y-99.528
X147.201Y-100.703
X147.201Y-101.878
X147.201Y-103.053
X147.201Y-104.228
X148.376Y-99.528
X148.376Y-100.703
X148.376Y-101.878
X148.376Y-103.053
X148.376Y-104.228
T4
X127.0Y-76.2
X127.0Y-78.74
X127.0Y-81.28
X127.0Y-83.82
X127.0Y-86.36
X127.0Y-88.9
X127.0Y-91.44
X127.0Y-93.98
X127.0Y-96.52
X127.0Y-99.06
X127.0Y-101.6
X127.0Y-104.14
X127.0Y-106.68
X127.0Y-109.22
X127.0Y-111.76
X127.0Y-114.3
X127.0Y-116.84
X127.0Y-119.38
X127.0Y-121.92
X127.0Y-124.46
X165.1Y-78.74
X165.1Y-81.28
X165.1Y-83.82
X165.1Y-86.36
X165.1Y-88.9
X165.1Y-91.44
X165.1Y-93.98
X165.1Y-96.52
X165.1Y-99.06
X165.1Y-101.6
X165.1Y-104.14
X165.1Y-106.68
X165.1Y-109.22
X165.1Y-111.76
X165.1Y-114.3
X165.1Y-116.84
X165.1Y-119.38
X165.1Y-121.92
X165.1Y-124.46
X165.1Y-127.0
T3
G00X132.33Y-75.835
M15
G01X132.33Y-75.035
M16
G05
G00X132.33Y-80.165
M15
G01X132.33Y-79.065
M16
G05
G00X140.97Y-75.835
M15
G01X140.97Y-75.035
M16
G05
G00X140.97Y-80.165
M15
G01X140.97Y-79.065
M16
G05
M30
