%TF.GenerationSoftware,KiCad,Pcbnew,9.0.5*%
%TF.CreationDate,2026-05-05T19:59:56-06:00*%
%TF.ProjectId,EtherCatDevBoard_V1-1,45746865-7243-4617-9444-6576426f6172,rev?*%
%TF.SameCoordinates,Original*%
%TF.FileFunction,Copper,L1,Top*%
%TF.FilePolarity,Positive*%
%FSLAX46Y46*%
G04 Gerber Fmt 4.6, Leading zero omitted, Abs format (unit mm)*
G04 Created by KiCad (PCBNEW 9.0.5) date 2026-05-05 19:59:56*
%MOMM*%
%LPD*%
G01*
G04 APERTURE LIST*
G04 Aperture macros list*
%AMRoundRect*
0 Rectangle with rounded corners*
0 $1 Rounding radius*
0 $2 $3 $4 $5 $6 $7 $8 $9 X,Y pos of 4 corners*
0 Add a 4 corners polygon primitive as box body*
4,1,4,$2,$3,$4,$5,$6,$7,$8,$9,$2,$3,0*
0 Add four circle primitives for the rounded corners*
1,1,$1+$1,$2,$3*
1,1,$1+$1,$4,$5*
1,1,$1+$1,$6,$7*
1,1,$1+$1,$8,$9*
0 Add four rect primitives between the rounded corners*
20,1,$1+$1,$2,$3,$4,$5,0*
20,1,$1+$1,$4,$5,$6,$7,0*
20,1,$1+$1,$6,$7,$8,$9,0*
20,1,$1+$1,$8,$9,$2,$3,0*%
G04 Aperture macros list end*
%TA.AperFunction,SMDPad,CuDef*%
%ADD10RoundRect,0.140000X-0.140000X-0.170000X0.140000X-0.170000X0.140000X0.170000X-0.140000X0.170000X0*%
%TD*%
%TA.AperFunction,SMDPad,CuDef*%
%ADD11RoundRect,0.140000X-0.170000X0.140000X-0.170000X-0.140000X0.170000X-0.140000X0.170000X0.140000X0*%
%TD*%
%TA.AperFunction,SMDPad,CuDef*%
%ADD12RoundRect,0.135000X-0.185000X0.135000X-0.185000X-0.135000X0.185000X-0.135000X0.185000X0.135000X0*%
%TD*%
%TA.AperFunction,SMDPad,CuDef*%
%ADD13RoundRect,0.140000X0.170000X-0.140000X0.170000X0.140000X-0.170000X0.140000X-0.170000X-0.140000X0*%
%TD*%
%TA.AperFunction,SMDPad,CuDef*%
%ADD14RoundRect,0.135000X0.135000X0.185000X-0.135000X0.185000X-0.135000X-0.185000X0.135000X-0.185000X0*%
%TD*%
%TA.AperFunction,SMDPad,CuDef*%
%ADD15RoundRect,0.135000X-0.135000X-0.185000X0.135000X-0.185000X0.135000X0.185000X-0.135000X0.185000X0*%
%TD*%
%TA.AperFunction,SMDPad,CuDef*%
%ADD16RoundRect,0.140000X0.140000X0.170000X-0.140000X0.170000X-0.140000X-0.170000X0.140000X-0.170000X0*%
%TD*%
%TA.AperFunction,SMDPad,CuDef*%
%ADD17RoundRect,0.135000X0.185000X-0.135000X0.185000X0.135000X-0.185000X0.135000X-0.185000X-0.135000X0*%
%TD*%
%TA.AperFunction,SMDPad,CuDef*%
%ADD18RoundRect,0.375000X-0.375000X0.625000X-0.375000X-0.625000X0.375000X-0.625000X0.375000X0.625000X0*%
%TD*%
%TA.AperFunction,SMDPad,CuDef*%
%ADD19RoundRect,0.500000X-1.400000X0.500000X-1.400000X-0.500000X1.400000X-0.500000X1.400000X0.500000X0*%
%TD*%
%TA.AperFunction,SMDPad,CuDef*%
%ADD20R,0.970000X1.000000*%
%TD*%
%TA.AperFunction,SMDPad,CuDef*%
%ADD21R,1.000000X0.970000*%
%TD*%
%TA.AperFunction,SMDPad,CuDef*%
%ADD22RoundRect,0.225000X-0.225000X-0.250000X0.225000X-0.250000X0.225000X0.250000X-0.225000X0.250000X0*%
%TD*%
%TA.AperFunction,SMDPad,CuDef*%
%ADD23RoundRect,0.225000X0.250000X-0.225000X0.250000X0.225000X-0.250000X0.225000X-0.250000X-0.225000X0*%
%TD*%
%TA.AperFunction,SMDPad,CuDef*%
%ADD24RoundRect,0.050000X0.285000X0.100000X-0.285000X0.100000X-0.285000X-0.100000X0.285000X-0.100000X0*%
%TD*%
%TA.AperFunction,SMDPad,CuDef*%
%ADD25R,0.740000X2.790000*%
%TD*%
%TA.AperFunction,SMDPad,CuDef*%
%ADD26RoundRect,0.218750X0.256250X-0.218750X0.256250X0.218750X-0.256250X0.218750X-0.256250X-0.218750X0*%
%TD*%
%TA.AperFunction,SMDPad,CuDef*%
%ADD27RoundRect,0.150000X-0.512500X-0.150000X0.512500X-0.150000X0.512500X0.150000X-0.512500X0.150000X0*%
%TD*%
%TA.AperFunction,SMDPad,CuDef*%
%ADD28RoundRect,0.150000X-0.150000X-0.700000X0.150000X-0.700000X0.150000X0.700000X-0.150000X0.700000X0*%
%TD*%
%TA.AperFunction,SMDPad,CuDef*%
%ADD29RoundRect,0.250000X-0.250000X-1.100000X0.250000X-1.100000X0.250000X1.100000X-0.250000X1.100000X0*%
%TD*%
%TA.AperFunction,SMDPad,CuDef*%
%ADD30RoundRect,0.250000X-0.250000X-0.475000X0.250000X-0.475000X0.250000X0.475000X-0.250000X0.475000X0*%
%TD*%
%TA.AperFunction,SMDPad,CuDef*%
%ADD31RoundRect,0.218750X-0.218750X-0.256250X0.218750X-0.256250X0.218750X0.256250X-0.218750X0.256250X0*%
%TD*%
%TA.AperFunction,SMDPad,CuDef*%
%ADD32R,1.000000X1.250000*%
%TD*%
%TA.AperFunction,SMDPad,CuDef*%
%ADD33RoundRect,0.150000X0.150000X-0.825000X0.150000X0.825000X-0.150000X0.825000X-0.150000X-0.825000X0*%
%TD*%
%TA.AperFunction,SMDPad,CuDef*%
%ADD34RoundRect,0.062500X0.350000X0.062500X-0.350000X0.062500X-0.350000X-0.062500X0.350000X-0.062500X0*%
%TD*%
%TA.AperFunction,SMDPad,CuDef*%
%ADD35RoundRect,0.062500X0.062500X0.350000X-0.062500X0.350000X-0.062500X-0.350000X0.062500X-0.350000X0*%
%TD*%
%TA.AperFunction,HeatsinkPad*%
%ADD36C,0.650000*%
%TD*%
%TA.AperFunction,HeatsinkPad*%
%ADD37RoundRect,0.209369X2.790631X2.790631X-2.790631X2.790631X-2.790631X-2.790631X2.790631X-2.790631X0*%
%TD*%
%TA.AperFunction,SMDPad,CuDef*%
%ADD38RoundRect,0.075000X0.075000X-0.700000X0.075000X0.700000X-0.075000X0.700000X-0.075000X-0.700000X0*%
%TD*%
%TA.AperFunction,SMDPad,CuDef*%
%ADD39RoundRect,0.075000X0.700000X-0.075000X0.700000X0.075000X-0.700000X0.075000X-0.700000X-0.075000X0*%
%TD*%
%TA.AperFunction,SMDPad,CuDef*%
%ADD40RoundRect,0.149997X0.149997X0.414997X-0.149997X0.414997X-0.149997X-0.414997X0.149997X-0.414997X0*%
%TD*%
%TA.AperFunction,SMDPad,CuDef*%
%ADD41RoundRect,0.150000X0.150000X0.425000X-0.150000X0.425000X-0.150000X-0.425000X0.150000X-0.425000X0*%
%TD*%
%TA.AperFunction,SMDPad,CuDef*%
%ADD42RoundRect,0.075000X0.075000X0.500000X-0.075000X0.500000X-0.075000X-0.500000X0.075000X-0.500000X0*%
%TD*%
%TA.AperFunction,SMDPad,CuDef*%
%ADD43RoundRect,0.150000X0.149999X0.414999X-0.149999X0.414999X-0.149999X-0.414999X0.149999X-0.414999X0*%
%TD*%
%TA.AperFunction,SMDPad,CuDef*%
%ADD44RoundRect,0.150000X0.150000X0.415000X-0.150000X0.415000X-0.150000X-0.415000X0.150000X-0.415000X0*%
%TD*%
%TA.AperFunction,HeatsinkPad*%
%ADD45O,1.000000X2.100000*%
%TD*%
%TA.AperFunction,HeatsinkPad*%
%ADD46O,1.000000X1.800000*%
%TD*%
%TA.AperFunction,SMDPad,CuDef*%
%ADD47R,0.760000X1.670000*%
%TD*%
%TA.AperFunction,SMDPad,CuDef*%
%ADD48R,2.000000X5.500000*%
%TD*%
%TA.AperFunction,SMDPad,CuDef*%
%ADD49RoundRect,0.250000X-0.250000X0.325000X-0.250000X-0.325000X0.250000X-0.325000X0.250000X0.325000X0*%
%TD*%
%TA.AperFunction,ComponentPad*%
%ADD50R,1.700000X1.700000*%
%TD*%
%TA.AperFunction,ComponentPad*%
%ADD51C,1.700000*%
%TD*%
%TA.AperFunction,ViaPad*%
%ADD52C,0.450000*%
%TD*%
%TA.AperFunction,Conductor*%
%ADD53C,0.300000*%
%TD*%
%TA.AperFunction,Conductor*%
%ADD54C,0.450000*%
%TD*%
%TA.AperFunction,Conductor*%
%ADD55C,0.250000*%
%TD*%
%TA.AperFunction,Conductor*%
%ADD56C,0.200000*%
%TD*%
G04 APERTURE END LIST*
D10*
%TO.P,C13,1*%
%TO.N,Net-(U2-VCAP_1)*%
X154968000Y-83312000D03*
%TO.P,C13,2*%
%TO.N,GND*%
X155928000Y-83312000D03*
%TD*%
D11*
%TO.P,C3,1*%
%TO.N,+3.3V*%
X154432000Y-88674000D03*
%TO.P,C3,2*%
%TO.N,GND*%
X154432000Y-89634000D03*
%TD*%
D12*
%TO.P,R31,1*%
%TO.N,Net-(R31-Pad1)*%
X147320000Y-123696000D03*
%TO.P,R31,2*%
%TO.N,Net-(C40-Pad1)*%
X147320000Y-124716000D03*
%TD*%
D13*
%TO.P,C26,1*%
%TO.N,+3.3V*%
X147828000Y-94968000D03*
%TO.P,C26,2*%
%TO.N,GND*%
X147828000Y-94008000D03*
%TD*%
D14*
%TO.P,R13,1*%
%TO.N,/LAN9252/VDD33TXRX1*%
X140718000Y-109728000D03*
%TO.P,R13,2*%
%TO.N,/LAN9252/RXA_P*%
X139698000Y-109728000D03*
%TD*%
%TO.P,R4,1*%
%TO.N,GND*%
X135638000Y-82042000D03*
%TO.P,R4,2*%
%TO.N,Net-(J1-CC2)*%
X134618000Y-82042000D03*
%TD*%
D15*
%TO.P,R18,1*%
%TO.N,GND*%
X138428000Y-105410000D03*
%TO.P,R18,2*%
%TO.N,/LAN9252/GPIO0*%
X139448000Y-105410000D03*
%TD*%
D14*
%TO.P,R32,1*%
%TO.N,Net-(U6-PR1)*%
X139448000Y-84328000D03*
%TO.P,R32,2*%
%TO.N,/STM32F446RC/3.3V_USB*%
X138428000Y-84328000D03*
%TD*%
D16*
%TO.P,C29,1*%
%TO.N,+3.3V*%
X139418000Y-104394000D03*
%TO.P,C29,2*%
%TO.N,GND*%
X138458000Y-104394000D03*
%TD*%
D10*
%TO.P,C47,1*%
%TO.N,/LAN9252/TXB_N*%
X159540000Y-110744000D03*
%TO.P,C47,2*%
%TO.N,GND*%
X160500000Y-110744000D03*
%TD*%
D13*
%TO.P,C18,1*%
%TO.N,/LAN9252/VDD33TXRX2*%
X152400000Y-106398000D03*
%TO.P,C18,2*%
%TO.N,GND*%
X152400000Y-105438000D03*
%TD*%
%TO.P,C2,1*%
%TO.N,+3.3V*%
X140970000Y-91412000D03*
%TO.P,C2,2*%
%TO.N,GND*%
X140970000Y-90452000D03*
%TD*%
D11*
%TO.P,C22,1*%
%TO.N,/LAN9252/VDD12TX1*%
X145034000Y-109756000D03*
%TO.P,C22,2*%
%TO.N,GND*%
X145034000Y-110716000D03*
%TD*%
D10*
%TO.P,C25,1*%
%TO.N,+3.3V*%
X152682000Y-97790000D03*
%TO.P,C25,2*%
%TO.N,GND*%
X153642000Y-97790000D03*
%TD*%
D13*
%TO.P,C5,1*%
%TO.N,+3.3V*%
X141732000Y-79982000D03*
%TO.P,C5,2*%
%TO.N,GND*%
X141732000Y-79022000D03*
%TD*%
D12*
%TO.P,R24,1*%
%TO.N,/LAN9252/GPIO1*%
X150368000Y-123696000D03*
%TO.P,R24,2*%
%TO.N,Net-(D4-A)*%
X150368000Y-124716000D03*
%TD*%
D11*
%TO.P,C40,1*%
%TO.N,Net-(C40-Pad1)*%
X147320000Y-126266000D03*
%TO.P,C40,2*%
%TO.N,GND*%
X147320000Y-127226000D03*
%TD*%
D16*
%TO.P,C45,1*%
%TO.N,/LAN9252/RXA_N*%
X138656000Y-110744000D03*
%TO.P,C45,2*%
%TO.N,GND*%
X137696000Y-110744000D03*
%TD*%
D17*
%TO.P,R23,1*%
%TO.N,GND*%
X136906000Y-103380000D03*
%TO.P,R23,2*%
%TO.N,Net-(U5-A0)*%
X136906000Y-102360000D03*
%TD*%
D18*
%TO.P,U3,1,GND*%
%TO.N,GND*%
X136412000Y-88544000D03*
%TO.P,U3,2,VO*%
%TO.N,/STM32F446RC/3.3V_USB*%
X134112000Y-88544000D03*
D19*
X134112000Y-94844000D03*
D18*
%TO.P,U3,3,VI*%
%TO.N,+5V*%
X131812000Y-88544000D03*
%TD*%
D20*
%TO.P,FB5,1*%
%TO.N,Net-(U4-VDD33BIAS)*%
X144780000Y-112803000D03*
%TO.P,FB5,2*%
%TO.N,+3.3V*%
X144780000Y-114273000D03*
%TD*%
D15*
%TO.P,R14,1*%
%TO.N,/LAN9252/VDD33TXRX1*%
X137666000Y-109728000D03*
%TO.P,R14,2*%
%TO.N,/LAN9252/RXA_N*%
X138686000Y-109728000D03*
%TD*%
D11*
%TO.P,C24,1*%
%TO.N,Net-(U4-VDD33BIAS)*%
X146050000Y-112550000D03*
%TO.P,C24,2*%
%TO.N,GND*%
X146050000Y-113510000D03*
%TD*%
D10*
%TO.P,C44,1*%
%TO.N,/LAN9252/RXA_P*%
X139728000Y-110744000D03*
%TO.P,C44,2*%
%TO.N,GND*%
X140688000Y-110744000D03*
%TD*%
D11*
%TO.P,C7,1*%
%TO.N,+3.3VA*%
X151130000Y-94008000D03*
%TO.P,C7,2*%
%TO.N,GND*%
X151130000Y-94968000D03*
%TD*%
%TO.P,C37,1*%
%TO.N,Net-(C37-Pad1)*%
X144780000Y-126266000D03*
%TO.P,C37,2*%
%TO.N,GND*%
X144780000Y-127226000D03*
%TD*%
%TO.P,C8,1*%
%TO.N,+3.3VA*%
X150114000Y-94008000D03*
%TO.P,C8,2*%
%TO.N,GND*%
X150114000Y-94968000D03*
%TD*%
D13*
%TO.P,C50,1*%
%TO.N,/STM32F446RC/3.3V_USB*%
X136906000Y-84300000D03*
%TO.P,C50,2*%
%TO.N,GND*%
X136906000Y-83340000D03*
%TD*%
D15*
%TO.P,R1,1*%
%TO.N,/STM32F446RC/NRST*%
X154938000Y-85344000D03*
%TO.P,R1,2*%
%TO.N,Net-(R1-Pad2)*%
X155958000Y-85344000D03*
%TD*%
D16*
%TO.P,C10,1*%
%TO.N,/STM32F446RC/NRST*%
X155928000Y-84328000D03*
%TO.P,C10,2*%
%TO.N,GND*%
X154968000Y-84328000D03*
%TD*%
D10*
%TO.P,C30,1*%
%TO.N,+3.3V*%
X152682000Y-102362000D03*
%TO.P,C30,2*%
%TO.N,GND*%
X153642000Y-102362000D03*
%TD*%
%TO.P,C4,1*%
%TO.N,+3.3V*%
X154968000Y-82296000D03*
%TO.P,C4,2*%
%TO.N,GND*%
X155928000Y-82296000D03*
%TD*%
D16*
%TO.P,C48,1*%
%TO.N,/LAN9252/RXB_P*%
X152372000Y-110744000D03*
%TO.P,C48,2*%
%TO.N,GND*%
X151412000Y-110744000D03*
%TD*%
D13*
%TO.P,C19,1*%
%TO.N,/LAN9252/VDD33TXRX2*%
X151384000Y-106398000D03*
%TO.P,C19,2*%
%TO.N,GND*%
X151384000Y-105438000D03*
%TD*%
D21*
%TO.P,FB3,1*%
%TO.N,+3.3V*%
X132615000Y-105918000D03*
%TO.P,FB3,2*%
%TO.N,/LAN9252/VDD33TXRX1*%
X134085000Y-105918000D03*
%TD*%
D22*
%TO.P,C14,1*%
%TO.N,+5V*%
X131813000Y-86360000D03*
%TO.P,C14,2*%
%TO.N,GND*%
X133363000Y-86360000D03*
%TD*%
D10*
%TO.P,C12,1*%
%TO.N,/STM32F446RC/HSE_IN*%
X138458000Y-91440000D03*
%TO.P,C12,2*%
%TO.N,GND*%
X139418000Y-91440000D03*
%TD*%
D23*
%TO.P,C52,1*%
%TO.N,+3.3V*%
X131826000Y-84849000D03*
%TO.P,C52,2*%
%TO.N,GND*%
X131826000Y-83299000D03*
%TD*%
D14*
%TO.P,R29,1*%
%TO.N,/LAN9252/VDD33TXRX2*%
X150116000Y-109728000D03*
%TO.P,R29,2*%
%TO.N,Net-(C41-Pad1)*%
X149096000Y-109728000D03*
%TD*%
D24*
%TO.P,U6,1,GND*%
%TO.N,GND*%
X135106000Y-84824000D03*
%TO.P,U6,2,VOUT*%
%TO.N,+3.3V*%
X135106000Y-84324000D03*
%TO.P,U6,3,VIN1*%
%TO.N,/STM32F446RC/3.3V_USB*%
X135106000Y-83824000D03*
%TO.P,U6,4,PR1*%
%TO.N,Net-(U6-PR1)*%
X135106000Y-83324000D03*
%TO.P,U6,5,MODE*%
%TO.N,/STM32F446RC/3.3V_USB*%
X133626000Y-83324000D03*
%TO.P,U6,6,VIN2*%
%TO.N,/STM32F446RC/3.3V_Battery*%
X133626000Y-83824000D03*
%TO.P,U6,7,VOUT*%
%TO.N,+3.3V*%
X133626000Y-84324000D03*
%TO.P,U6,8,ST*%
%TO.N,Net-(U6-ST)*%
X133626000Y-84824000D03*
%TD*%
D12*
%TO.P,R17,1*%
%TO.N,Net-(R17-Pad1)*%
X144780000Y-123696000D03*
%TO.P,R17,2*%
%TO.N,Net-(C37-Pad1)*%
X144780000Y-124716000D03*
%TD*%
D16*
%TO.P,C36,1*%
%TO.N,/LAN9252/VDDCR*%
X139418000Y-99314000D03*
%TO.P,C36,2*%
%TO.N,GND*%
X138458000Y-99314000D03*
%TD*%
D15*
%TO.P,R19,1*%
%TO.N,GND*%
X138428000Y-103378000D03*
%TO.P,R19,2*%
%TO.N,/LAN9252/GPIO1*%
X139448000Y-103378000D03*
%TD*%
D11*
%TO.P,C21,1*%
%TO.N,/LAN9252/VDD12TX1*%
X147066000Y-109756000D03*
%TO.P,C21,2*%
%TO.N,GND*%
X147066000Y-110716000D03*
%TD*%
D12*
%TO.P,R10,1*%
%TO.N,/LAN9252/GPIO0*%
X141732000Y-123696000D03*
%TO.P,R10,2*%
%TO.N,Net-(D3-A)*%
X141732000Y-124716000D03*
%TD*%
D10*
%TO.P,C27,1*%
%TO.N,+3.3V*%
X142776000Y-94996000D03*
%TO.P,C27,2*%
%TO.N,GND*%
X143736000Y-94996000D03*
%TD*%
D15*
%TO.P,R6,1*%
%TO.N,/STM32F446RC/PWR_LED_K*%
X145540000Y-115570000D03*
%TO.P,R6,2*%
%TO.N,GND*%
X146560000Y-115570000D03*
%TD*%
%TO.P,R12,1*%
%TO.N,/LAN9252/VDD33TXRX1*%
X131570000Y-109728000D03*
%TO.P,R12,2*%
%TO.N,/LAN9252/TXA_N*%
X132590000Y-109728000D03*
%TD*%
D25*
%TO.P,J2,01,01*%
%TO.N,unconnected-(J2-Pad01)*%
X160655000Y-75943000D03*
%TO.P,J2,02,02*%
%TO.N,unconnected-(J2-Pad02)*%
X160655000Y-80013000D03*
%TO.P,J2,03,03*%
%TO.N,+3.3V*%
X159385000Y-75943000D03*
%TO.P,J2,04,04*%
%TO.N,/STM32F446RC/SWDIO*%
X159385000Y-80013000D03*
%TO.P,J2,05,05*%
%TO.N,GND*%
X158115000Y-75943000D03*
%TO.P,J2,06,06*%
%TO.N,/STM32F446RC/SWCLK*%
X158115000Y-80013000D03*
%TO.P,J2,07,07*%
%TO.N,GND*%
X156845000Y-75943000D03*
%TO.P,J2,08,08*%
%TO.N,/STM32F446RC/SWO*%
X156845000Y-80013000D03*
%TO.P,J2,09,09*%
%TO.N,unconnected-(J2-Pad09)*%
X155575000Y-75943000D03*
%TO.P,J2,10,10*%
%TO.N,unconnected-(J2-Pad10)*%
X155575000Y-80013000D03*
%TO.P,J2,11,11*%
%TO.N,Net-(J2-Pad11)*%
X154305000Y-75943000D03*
%TO.P,J2,12,12*%
%TO.N,/STM32F446RC/NRST*%
X154305000Y-80013000D03*
%TO.P,J2,13,13*%
%TO.N,/STM32F446RC/UART2_RX*%
X153035000Y-75943000D03*
%TO.P,J2,14,14*%
%TO.N,/STM32F446RC/UART2_TX*%
X153035000Y-80013000D03*
%TD*%
D26*
%TO.P,D4,1,K*%
%TO.N,GND*%
X150368000Y-127533500D03*
%TO.P,D4,2,A*%
%TO.N,Net-(D4-A)*%
X150368000Y-125958500D03*
%TD*%
D11*
%TO.P,C20,1*%
%TO.N,/LAN9252/VDD12TX1*%
X148082000Y-109756000D03*
%TO.P,C20,2*%
%TO.N,GND*%
X148082000Y-110716000D03*
%TD*%
D14*
%TO.P,R33,1*%
%TO.N,GND*%
X139448000Y-83312000D03*
%TO.P,R33,2*%
%TO.N,Net-(U6-PR1)*%
X138428000Y-83312000D03*
%TD*%
D12*
%TO.P,R20,1*%
%TO.N,Net-(R20-Pad1)*%
X143256000Y-123696000D03*
%TO.P,R20,2*%
%TO.N,Net-(C37-Pad1)*%
X143256000Y-124716000D03*
%TD*%
D22*
%TO.P,C1,1*%
%TO.N,+3.3V*%
X152387000Y-96520000D03*
%TO.P,C1,2*%
%TO.N,GND*%
X153937000Y-96520000D03*
%TD*%
D14*
%TO.P,R11,1*%
%TO.N,/LAN9252/VDD33TXRX1*%
X134622000Y-109728000D03*
%TO.P,R11,2*%
%TO.N,/LAN9252/TXA_P*%
X133602000Y-109728000D03*
%TD*%
D21*
%TO.P,FB4,1*%
%TO.N,+3.3V*%
X155675000Y-105918000D03*
%TO.P,FB4,2*%
%TO.N,/LAN9252/VDD33TXRX2*%
X154205000Y-105918000D03*
%TD*%
D14*
%TO.P,R16,1*%
%TO.N,/LAN9252/GPIO2*%
X139448000Y-102362000D03*
%TO.P,R16,2*%
%TO.N,+3.3V*%
X138428000Y-102362000D03*
%TD*%
D16*
%TO.P,C6,1*%
%TO.N,+3.3V*%
X139418000Y-89916000D03*
%TO.P,C6,2*%
%TO.N,GND*%
X138458000Y-89916000D03*
%TD*%
D27*
%TO.P,U1,1,I/O1*%
%TO.N,/STM32F446RC/USBC_D-*%
X142880500Y-76012000D03*
%TO.P,U1,2,GND*%
%TO.N,GND*%
X142880500Y-76962000D03*
%TO.P,U1,3,I/O2*%
%TO.N,/STM32F446RC/USBC_D+*%
X142880500Y-77912000D03*
%TO.P,U1,4,I/O2*%
%TO.N,/STM32F446RC/USB_D+*%
X145155500Y-77912000D03*
%TO.P,U1,5,VBUS*%
%TO.N,+5V*%
X145155500Y-76962000D03*
%TO.P,U1,6,I/O1*%
%TO.N,/STM32F446RC/USB_D-*%
X145155500Y-76012000D03*
%TD*%
D10*
%TO.P,C34,1*%
%TO.N,/LAN9252/VDDCR*%
X152682000Y-100330000D03*
%TO.P,C34,2*%
%TO.N,GND*%
X153642000Y-100330000D03*
%TD*%
D28*
%TO.P,J5,1,Pin_1*%
%TO.N,/LAN9252/LAN9252 Ports/TXA+*%
X134269000Y-123880000D03*
%TO.P,J5,2,Pin_2*%
%TO.N,/LAN9252/LAN9252 Ports/TXA-*%
X135519000Y-123880000D03*
%TO.P,J5,3,Pin_3*%
%TO.N,/LAN9252/LAN9252 Ports/RXA+*%
X136769000Y-123880000D03*
%TO.P,J5,4,Pin_4*%
%TO.N,/LAN9252/LAN9252 Ports/RXA-*%
X138019000Y-123880000D03*
D29*
%TO.P,J5,MP*%
%TO.N,N/C*%
X132419000Y-127080000D03*
X139869000Y-127080000D03*
%TD*%
D14*
%TO.P,R7,1*%
%TO.N,Net-(C31-Pad2)*%
X153672000Y-104394000D03*
%TO.P,R7,2*%
%TO.N,Net-(U4-OSCI)*%
X152652000Y-104394000D03*
%TD*%
D17*
%TO.P,R21,1*%
%TO.N,+3.3V*%
X136906000Y-101348000D03*
%TO.P,R21,2*%
%TO.N,/LAN9252/I2C_SCL*%
X136906000Y-100328000D03*
%TD*%
D30*
%TO.P,C15,1*%
%TO.N,/STM32F446RC/3.3V_USB*%
X136972000Y-86106000D03*
%TO.P,C15,2*%
%TO.N,GND*%
X138872000Y-86106000D03*
%TD*%
D16*
%TO.P,C46,1*%
%TO.N,/LAN9252/TXB_P*%
X158468000Y-110744000D03*
%TO.P,C46,2*%
%TO.N,GND*%
X157508000Y-110744000D03*
%TD*%
D31*
%TO.P,D1,1,K*%
%TO.N,/STM32F446RC/PWR_LED_K*%
X145262500Y-116840000D03*
%TO.P,D1,2,A*%
%TO.N,+3.3V*%
X146837500Y-116840000D03*
%TD*%
D32*
%TO.P,SW1,1,1*%
%TO.N,GND*%
X159766000Y-90489000D03*
%TO.P,SW1,2,2*%
%TO.N,Net-(R1-Pad2)*%
X159766000Y-82739000D03*
%TD*%
D13*
%TO.P,C16,1*%
%TO.N,/LAN9252/VDD33TXRX1*%
X135890000Y-106398000D03*
%TO.P,C16,2*%
%TO.N,GND*%
X135890000Y-105438000D03*
%TD*%
D33*
%TO.P,U5,1,A0*%
%TO.N,Net-(U5-A0)*%
X131699000Y-103567000D03*
%TO.P,U5,2,A1*%
X132969000Y-103567000D03*
%TO.P,U5,3,A2*%
X134239000Y-103567000D03*
%TO.P,U5,4,VSS*%
%TO.N,GND*%
X135509000Y-103567000D03*
%TO.P,U5,5,SDA*%
%TO.N,/LAN9252/I2C_SDL*%
X135509000Y-98617000D03*
%TO.P,U5,6,SCL*%
%TO.N,/LAN9252/I2C_SCL*%
X134239000Y-98617000D03*
%TO.P,U5,7,WP*%
%TO.N,Net-(U5-A0)*%
X132969000Y-98617000D03*
%TO.P,U5,8,VCC*%
%TO.N,+3.3V*%
X131699000Y-98617000D03*
%TD*%
D20*
%TO.P,FB2,1*%
%TO.N,/LAN9252/VDD12TX1*%
X147320000Y-112803000D03*
%TO.P,FB2,2*%
%TO.N,/LAN9252/VDDCR*%
X147320000Y-114273000D03*
%TD*%
D13*
%TO.P,C35,1*%
%TO.N,/LAN9252/VDDCR*%
X146812000Y-94968000D03*
%TO.P,C35,2*%
%TO.N,GND*%
X146812000Y-94008000D03*
%TD*%
D15*
%TO.P,R15,1*%
%TO.N,/LAN9252/VDD33TXRX1*%
X141984000Y-109728000D03*
%TO.P,R15,2*%
%TO.N,Net-(C38-Pad1)*%
X143004000Y-109728000D03*
%TD*%
D17*
%TO.P,R5,1*%
%TO.N,Net-(J2-Pad11)*%
X150622000Y-77472000D03*
%TO.P,R5,2*%
%TO.N,GND*%
X150622000Y-76452000D03*
%TD*%
D11*
%TO.P,C23,1*%
%TO.N,/LAN9252/VDD12TX1*%
X144018000Y-109756000D03*
%TO.P,C23,2*%
%TO.N,GND*%
X144018000Y-110716000D03*
%TD*%
D17*
%TO.P,R8,1*%
%TO.N,GND*%
X146050000Y-109222000D03*
%TO.P,R8,2*%
%TO.N,Net-(U4-RBIAS)*%
X146050000Y-108202000D03*
%TD*%
D15*
%TO.P,R27,1*%
%TO.N,/LAN9252/VDD33TXRX2*%
X151382000Y-109728000D03*
%TO.P,R27,2*%
%TO.N,/LAN9252/RXB_P*%
X152402000Y-109728000D03*
%TD*%
%TO.P,R34,1*%
%TO.N,Net-(U6-ST)*%
X134618000Y-86106000D03*
%TO.P,R34,2*%
%TO.N,+3.3V*%
X135638000Y-86106000D03*
%TD*%
D10*
%TO.P,C51,1*%
%TO.N,/STM32F446RC/3.3V_Battery*%
X132108000Y-82042000D03*
%TO.P,C51,2*%
%TO.N,GND*%
X133068000Y-82042000D03*
%TD*%
%TO.P,C38,1*%
%TO.N,Net-(C38-Pad1)*%
X142014000Y-110744000D03*
%TO.P,C38,2*%
%TO.N,GND*%
X142974000Y-110744000D03*
%TD*%
D34*
%TO.P,U4,1,OSCI*%
%TO.N,Net-(U4-OSCI)*%
X150487500Y-104334000D03*
%TO.P,U4,2,OSCO*%
%TO.N,Net-(U4-OSCO)*%
X150487500Y-103834000D03*
%TO.P,U4,3,OSCVDD12*%
%TO.N,unconnected-(U4-OSCVDD12-Pad3)*%
X150487500Y-103334000D03*
%TO.P,U4,4,OSCVSS*%
%TO.N,GND*%
X150487500Y-102834000D03*
%TO.P,U4,5,VDD33*%
%TO.N,+3.3V*%
X150487500Y-102334000D03*
%TO.P,U4,6,VDDCR*%
%TO.N,/LAN9252/VDDCR*%
X150487500Y-101834000D03*
%TO.P,U4,7,REG_EN*%
%TO.N,+3.3V*%
X150487500Y-101334000D03*
%TO.P,U4,8,~{FXLOSEN}*%
%TO.N,GND*%
X150487500Y-100834000D03*
%TO.P,U4,9,FXSDA*%
X150487500Y-100334000D03*
%TO.P,U4,10,FXSDB*%
X150487500Y-99834000D03*
%TO.P,U4,11,~{RST}*%
%TO.N,unconnected-(U4-~{RST}-Pad11)*%
X150487500Y-99334000D03*
%TO.P,U4,12,D2*%
%TO.N,unconnected-(U4-D2-Pad12)*%
X150487500Y-98834000D03*
%TO.P,U4,13,D1*%
%TO.N,/LAN9252/MISO*%
X150487500Y-98334000D03*
%TO.P,U4,14,VDDIO*%
%TO.N,+3.3V*%
X150487500Y-97834000D03*
%TO.P,U4,15,D14*%
%TO.N,unconnected-(U4-D14-Pad15)*%
X150487500Y-97334000D03*
%TO.P,U4,16,D13*%
%TO.N,unconnected-(U4-D13-Pad16)*%
X150487500Y-96834000D03*
D35*
%TO.P,U4,17,D0*%
%TO.N,/LAN9252/MOSI*%
X149800000Y-96146500D03*
%TO.P,U4,18,SYNC1*%
%TO.N,unconnected-(U4-SYNC1-Pad18)*%
X149300000Y-96146500D03*
%TO.P,U4,19,D9*%
%TO.N,/LAN9252/SCK*%
X148800000Y-96146500D03*
%TO.P,U4,20,VDDIO__1*%
%TO.N,+3.3V*%
X148300000Y-96146500D03*
%TO.P,U4,21,D12*%
%TO.N,unconnected-(U4-D12-Pad21)*%
X147800000Y-96146500D03*
%TO.P,U4,22,D11*%
%TO.N,unconnected-(U4-D11-Pad22)*%
X147300000Y-96146500D03*
%TO.P,U4,23,D10*%
%TO.N,unconnected-(U4-D10-Pad23)*%
X146800000Y-96146500D03*
%TO.P,U4,24,VDDCR__1*%
%TO.N,/LAN9252/VDDCR*%
X146300000Y-96146500D03*
%TO.P,U4,25,A1*%
%TO.N,unconnected-(U4-A1-Pad25)*%
X145800000Y-96146500D03*
%TO.P,U4,26,A3*%
%TO.N,unconnected-(U4-A3-Pad26)*%
X145300000Y-96146500D03*
%TO.P,U4,27,A4*%
%TO.N,unconnected-(U4-A4-Pad27)*%
X144800000Y-96146500D03*
%TO.P,U4,28,CS*%
%TO.N,unconnected-(U4-CS-Pad28)*%
X144300000Y-96146500D03*
%TO.P,U4,29,A2*%
%TO.N,unconnected-(U4-A2-Pad29)*%
X143800000Y-96146500D03*
%TO.P,U4,30,WR*%
%TO.N,unconnected-(U4-WR-Pad30)*%
X143300000Y-96146500D03*
%TO.P,U4,31,RD*%
%TO.N,unconnected-(U4-RD-Pad31)*%
X142800000Y-96146500D03*
%TO.P,U4,32,VDDIO__2*%
%TO.N,+3.3V*%
X142300000Y-96146500D03*
D34*
%TO.P,U4,33,A0*%
%TO.N,unconnected-(U4-A0-Pad33)*%
X141612500Y-96834000D03*
%TO.P,U4,34,SYNC0*%
%TO.N,unconnected-(U4-SYNC0-Pad34)*%
X141612500Y-97334000D03*
%TO.P,U4,35,D3*%
%TO.N,unconnected-(U4-D3-Pad35)*%
X141612500Y-97834000D03*
%TO.P,U4,36,D6*%
%TO.N,unconnected-(U4-D6-Pad36)*%
X141612500Y-98334000D03*
%TO.P,U4,37,VDDIO__3*%
%TO.N,+3.3V*%
X141612500Y-98834000D03*
%TO.P,U4,38,VDDCR__2*%
%TO.N,/LAN9252/VDDCR*%
X141612500Y-99334000D03*
%TO.P,U4,39,D7*%
%TO.N,unconnected-(U4-D7-Pad39)*%
X141612500Y-99834000D03*
%TO.P,U4,40,D8*%
%TO.N,unconnected-(U4-D8-Pad40)*%
X141612500Y-100334000D03*
%TO.P,U4,41,TESTMODE*%
%TO.N,GND*%
X141612500Y-100834000D03*
%TO.P,U4,42,EESDA*%
%TO.N,/LAN9252/I2C_SDL*%
X141612500Y-101334000D03*
%TO.P,U4,43,EESCL*%
%TO.N,/LAN9252/I2C_SCL*%
X141612500Y-101834000D03*
%TO.P,U4,44,IRQ*%
%TO.N,/LAN9252/IRQ*%
X141612500Y-102334000D03*
%TO.P,U4,45,RUNLED*%
%TO.N,/LAN9252/GPIO2*%
X141612500Y-102834000D03*
%TO.P,U4,46,LINKACTLED1*%
%TO.N,/LAN9252/GPIO1*%
X141612500Y-103334000D03*
%TO.P,U4,47,VDDIO__4*%
%TO.N,+3.3V*%
X141612500Y-103834000D03*
%TO.P,U4,48,LINKACTLED0*%
%TO.N,/LAN9252/GPIO0*%
X141612500Y-104334000D03*
D35*
%TO.P,U4,49,D4*%
%TO.N,unconnected-(U4-D4-Pad49)*%
X142300000Y-105021500D03*
%TO.P,U4,50,D5*%
%TO.N,/LAN9252/SCS*%
X142800000Y-105021500D03*
%TO.P,U4,51,VDD33TXRX1*%
%TO.N,/LAN9252/VDD33TXRX1*%
X143300000Y-105021500D03*
%TO.P,U4,52,TXNA*%
%TO.N,/LAN9252/TXA_N*%
X143800000Y-105021500D03*
%TO.P,U4,53,TXPA*%
%TO.N,/LAN9252/TXA_P*%
X144300000Y-105021500D03*
%TO.P,U4,54,RXNA*%
%TO.N,/LAN9252/RXA_N*%
X144800000Y-105021500D03*
%TO.P,U4,55,RXPA*%
%TO.N,/LAN9252/RXA_P*%
X145300000Y-105021500D03*
%TO.P,U4,56,VDD12TX1*%
%TO.N,/LAN9252/VDD12TX1*%
X145800000Y-105021500D03*
%TO.P,U4,57,RBIAS*%
%TO.N,Net-(U4-RBIAS)*%
X146300000Y-105021500D03*
%TO.P,U4,58,VDD33BIAS*%
%TO.N,Net-(U4-VDD33BIAS)*%
X146800000Y-105021500D03*
%TO.P,U4,59,VDD12TX2*%
%TO.N,/LAN9252/VDD12TX1*%
X147300000Y-105021500D03*
%TO.P,U4,60,RXPB*%
%TO.N,/LAN9252/RXB_P*%
X147800000Y-105021500D03*
%TO.P,U4,61,RXNB*%
%TO.N,/LAN9252/RXB_N*%
X148300000Y-105021500D03*
%TO.P,U4,62,TXPB*%
%TO.N,/LAN9252/TXB_P*%
X148800000Y-105021500D03*
%TO.P,U4,63,TXNB*%
%TO.N,/LAN9252/TXB_N*%
X149300000Y-105021500D03*
%TO.P,U4,64,VDD33TXRX2*%
%TO.N,/LAN9252/VDD33TXRX2*%
X149800000Y-105021500D03*
D36*
%TO.P,U4,65,VSS*%
%TO.N,GND*%
X148400000Y-102934000D03*
X148400000Y-101759000D03*
X148400000Y-100584000D03*
X148400000Y-99409000D03*
X148400000Y-98234000D03*
X147225000Y-102934000D03*
X147225000Y-101759000D03*
X147225000Y-100584000D03*
X147225000Y-99409000D03*
X147225000Y-98234000D03*
D37*
X146074259Y-100559741D03*
D36*
X146050000Y-102934000D03*
X146050000Y-101759000D03*
X146050000Y-100584000D03*
X146050000Y-99409000D03*
X146050000Y-98234000D03*
X144875000Y-102934000D03*
X144875000Y-101759000D03*
X144875000Y-100584000D03*
X144875000Y-99409000D03*
X144875000Y-98234000D03*
X143700000Y-102934000D03*
X143700000Y-101759000D03*
X143700000Y-100584000D03*
X143700000Y-99409000D03*
X143700000Y-98234000D03*
%TD*%
D31*
%TO.P,D2,1,K*%
%TO.N,Net-(D2-K)*%
X145262500Y-120904000D03*
%TO.P,D2,2,A*%
%TO.N,+3.3V*%
X146837500Y-120904000D03*
%TD*%
D11*
%TO.P,C9,1*%
%TO.N,+3.3V*%
X155194000Y-94008000D03*
%TO.P,C9,2*%
%TO.N,GND*%
X155194000Y-94968000D03*
%TD*%
D15*
%TO.P,R3,1*%
%TO.N,GND*%
X136650000Y-82042000D03*
%TO.P,R3,2*%
%TO.N,Net-(J1-CC1)*%
X137670000Y-82042000D03*
%TD*%
D11*
%TO.P,C31,1*%
%TO.N,GND*%
X155956000Y-103406000D03*
%TO.P,C31,2*%
%TO.N,Net-(C31-Pad2)*%
X155956000Y-104366000D03*
%TD*%
D16*
%TO.P,C41,1*%
%TO.N,Net-(C41-Pad1)*%
X150086000Y-110744000D03*
%TO.P,C41,2*%
%TO.N,GND*%
X149126000Y-110744000D03*
%TD*%
D15*
%TO.P,R25,1*%
%TO.N,/LAN9252/VDD33TXRX2*%
X157478000Y-109728000D03*
%TO.P,R25,2*%
%TO.N,/LAN9252/TXB_P*%
X158498000Y-109728000D03*
%TD*%
D28*
%TO.P,J6,1,Pin_1*%
%TO.N,/LAN9252/LAN9252 Ports/TXB+*%
X154081000Y-123880000D03*
%TO.P,J6,2,Pin_2*%
%TO.N,/LAN9252/LAN9252 Ports/TXB-*%
X155331000Y-123880000D03*
%TO.P,J6,3,Pin_3*%
%TO.N,/LAN9252/LAN9252 Ports/RXB+*%
X156581000Y-123880000D03*
%TO.P,J6,4,Pin_4*%
%TO.N,/LAN9252/LAN9252 Ports/RXB-*%
X157831000Y-123880000D03*
D29*
%TO.P,J6,MP*%
%TO.N,N/C*%
X152231000Y-127080000D03*
X159681000Y-127080000D03*
%TD*%
D16*
%TO.P,C11,1*%
%TO.N,/STM32F446RC/HSE_OUT*%
X139418000Y-96012000D03*
%TO.P,C11,2*%
%TO.N,GND*%
X138458000Y-96012000D03*
%TD*%
D11*
%TO.P,C32,1*%
%TO.N,GND*%
X155956000Y-96548000D03*
%TO.P,C32,2*%
%TO.N,Net-(U4-OSCO)*%
X155956000Y-97508000D03*
%TD*%
D10*
%TO.P,C33,1*%
%TO.N,/LAN9252/VDDCR*%
X152682000Y-101346000D03*
%TO.P,C33,2*%
%TO.N,GND*%
X153642000Y-101346000D03*
%TD*%
D26*
%TO.P,D3,1,K*%
%TO.N,GND*%
X141732000Y-127533500D03*
%TO.P,D3,2,A*%
%TO.N,Net-(D3-A)*%
X141732000Y-125958500D03*
%TD*%
D38*
%TO.P,U2,1,VBAT*%
%TO.N,+3.3V*%
X142935000Y-91527000D03*
%TO.P,U2,2,PC13*%
%TO.N,/STM32F446RC/PC13*%
X143435000Y-91527000D03*
%TO.P,U2,3,PC14*%
%TO.N,/STM32F446RC/PC14*%
X143935000Y-91527000D03*
%TO.P,U2,4,PC15*%
%TO.N,/LAN9252/IRQ*%
X144435000Y-91527000D03*
%TO.P,U2,5,PH0*%
%TO.N,/STM32F446RC/HSE_IN*%
X144935000Y-91527000D03*
%TO.P,U2,6,PH1*%
%TO.N,/STM32F446RC/HSE_OUT*%
X145435000Y-91527000D03*
%TO.P,U2,7,NRST*%
%TO.N,/STM32F446RC/NRST*%
X145935000Y-91527000D03*
%TO.P,U2,8,PC0*%
%TO.N,/STM32F446RC/PC0*%
X146435000Y-91527000D03*
%TO.P,U2,9,PC1*%
%TO.N,/STM32F446RC/PC1*%
X146935000Y-91527000D03*
%TO.P,U2,10,PC2*%
%TO.N,/STM32F446RC/PC2*%
X147435000Y-91527000D03*
%TO.P,U2,11,PC3*%
%TO.N,/STM32F446RC/PC3*%
X147935000Y-91527000D03*
%TO.P,U2,12,VSSA*%
%TO.N,GND*%
X148435000Y-91527000D03*
%TO.P,U2,13,VDDA*%
%TO.N,+3.3VA*%
X148935000Y-91527000D03*
%TO.P,U2,14,PA0*%
%TO.N,/STM32F446RC/PA0*%
X149435000Y-91527000D03*
%TO.P,U2,15,PA1*%
%TO.N,/STM32F446RC/PA1*%
X149935000Y-91527000D03*
%TO.P,U2,16,PA2*%
%TO.N,/STM32F446RC/UART2_TX*%
X150435000Y-91527000D03*
D39*
%TO.P,U2,17,PA3*%
%TO.N,/STM32F446RC/UART2_RX*%
X152360000Y-89602000D03*
%TO.P,U2,18,VSS*%
%TO.N,GND*%
X152360000Y-89102000D03*
%TO.P,U2,19,VDD*%
%TO.N,+3.3V*%
X152360000Y-88602000D03*
%TO.P,U2,20,PA4*%
%TO.N,/STM32F446RC/PA4*%
X152360000Y-88102000D03*
%TO.P,U2,21,PA5*%
%TO.N,/LAN9252/SCK*%
X152360000Y-87602000D03*
%TO.P,U2,22,PA6*%
%TO.N,/LAN9252/MISO*%
X152360000Y-87102000D03*
%TO.P,U2,23,PA7*%
%TO.N,/LAN9252/MOSI*%
X152360000Y-86602000D03*
%TO.P,U2,24,PC4*%
%TO.N,/LAN9252/SCS*%
X152360000Y-86102000D03*
%TO.P,U2,25,PC5*%
%TO.N,/STM32F446RC/PC5*%
X152360000Y-85602000D03*
%TO.P,U2,26,PB0*%
%TO.N,/STM32F446RC/PB0*%
X152360000Y-85102000D03*
%TO.P,U2,27,PB1*%
%TO.N,/STM32F446RC/PB1*%
X152360000Y-84602000D03*
%TO.P,U2,28,PB2*%
%TO.N,/STM32F446RC/PB2*%
X152360000Y-84102000D03*
%TO.P,U2,29,PB10*%
%TO.N,/STM32F446RC/PB10*%
X152360000Y-83602000D03*
%TO.P,U2,30,VCAP_1*%
%TO.N,Net-(U2-VCAP_1)*%
X152360000Y-83102000D03*
%TO.P,U2,31,VSS*%
%TO.N,GND*%
X152360000Y-82602000D03*
%TO.P,U2,32,VDD*%
%TO.N,+3.3V*%
X152360000Y-82102000D03*
D38*
%TO.P,U2,33,PB12*%
%TO.N,/STM32F446RC/PB12*%
X150435000Y-80177000D03*
%TO.P,U2,34,PB13*%
%TO.N,/STM32F446RC/PB13*%
X149935000Y-80177000D03*
%TO.P,U2,35,PB14*%
%TO.N,/STM32F446RC/PB14*%
X149435000Y-80177000D03*
%TO.P,U2,36,PB15*%
%TO.N,/STM32F446RC/PB15*%
X148935000Y-80177000D03*
%TO.P,U2,37,PC6*%
%TO.N,/STM32F446RC/PC6*%
X148435000Y-80177000D03*
%TO.P,U2,38,PC7*%
%TO.N,/STM32F446RC/PC7*%
X147935000Y-80177000D03*
%TO.P,U2,39,PC8*%
%TO.N,/STM32F446RC/PC8*%
X147435000Y-80177000D03*
%TO.P,U2,40,PC9*%
%TO.N,/STM32F446RC/PC9*%
X146935000Y-80177000D03*
%TO.P,U2,41,PA8*%
%TO.N,/STM32F446RC/PA8*%
X146435000Y-80177000D03*
%TO.P,U2,42,PA9*%
%TO.N,/STM32F446RC/PA9*%
X145935000Y-80177000D03*
%TO.P,U2,43,PA10*%
%TO.N,/STM32F446RC/PA10*%
X145435000Y-80177000D03*
%TO.P,U2,44,PA11*%
%TO.N,/STM32F446RC/USB_D-*%
X144935000Y-80177000D03*
%TO.P,U2,45,PA12*%
%TO.N,/STM32F446RC/USB_D+*%
X144435000Y-80177000D03*
%TO.P,U2,46,PA13*%
%TO.N,/STM32F446RC/SWDIO*%
X143935000Y-80177000D03*
%TO.P,U2,47,VSS*%
%TO.N,GND*%
X143435000Y-80177000D03*
%TO.P,U2,48,VDD*%
%TO.N,+3.3V*%
X142935000Y-80177000D03*
D39*
%TO.P,U2,49,PA14*%
%TO.N,/STM32F446RC/SWCLK*%
X141010000Y-82102000D03*
%TO.P,U2,50,PA15*%
%TO.N,/STM32F446RC/PA15*%
X141010000Y-82602000D03*
%TO.P,U2,51,PC10*%
%TO.N,/STM32F446RC/PC10*%
X141010000Y-83102000D03*
%TO.P,U2,52,PC11*%
%TO.N,/STM32F446RC/PC11*%
X141010000Y-83602000D03*
%TO.P,U2,53,PC12*%
%TO.N,/STM32F446RC/PC12*%
X141010000Y-84102000D03*
%TO.P,U2,54,PD2*%
%TO.N,/STM32F446RC/PD2*%
X141010000Y-84602000D03*
%TO.P,U2,55,PB3*%
%TO.N,/STM32F446RC/SWO*%
X141010000Y-85102000D03*
%TO.P,U2,56,PB4*%
%TO.N,/STM32F446RC/PB4*%
X141010000Y-85602000D03*
%TO.P,U2,57,PB5*%
%TO.N,/STM32F446RC/PB5*%
X141010000Y-86102000D03*
%TO.P,U2,58,PB6*%
%TO.N,/STM32F446RC/PB6*%
X141010000Y-86602000D03*
%TO.P,U2,59,PB7*%
%TO.N,/STM32F446RC/PB7*%
X141010000Y-87102000D03*
%TO.P,U2,60,BOOT0*%
%TO.N,/STM32F446RC/BOOT0*%
X141010000Y-87602000D03*
%TO.P,U2,61,PB8*%
%TO.N,/STM32F446RC/PB8*%
X141010000Y-88102000D03*
%TO.P,U2,62,PB9*%
%TO.N,/STM32F446RC/PB9*%
X141010000Y-88602000D03*
%TO.P,U2,63,VSS*%
%TO.N,GND*%
X141010000Y-89102000D03*
%TO.P,U2,64,VDD*%
%TO.N,+3.3V*%
X141010000Y-89602000D03*
%TD*%
D10*
%TO.P,C39,1*%
%TO.N,+3.3V*%
X132362000Y-96774000D03*
%TO.P,C39,2*%
%TO.N,GND*%
X133322000Y-96774000D03*
%TD*%
D14*
%TO.P,R9,1*%
%TO.N,/LAN9252/GPIO2*%
X146560000Y-119634000D03*
%TO.P,R9,2*%
%TO.N,Net-(D2-K)*%
X145540000Y-119634000D03*
%TD*%
D31*
%TO.P,FB1,1*%
%TO.N,+3.3VA*%
X152374500Y-94488000D03*
%TO.P,FB1,2*%
%TO.N,+3.3V*%
X153949500Y-94488000D03*
%TD*%
D13*
%TO.P,C17,1*%
%TO.N,/LAN9252/VDD33TXRX1*%
X136906000Y-106398000D03*
%TO.P,C17,2*%
%TO.N,GND*%
X136906000Y-105438000D03*
%TD*%
D14*
%TO.P,R26,1*%
%TO.N,/LAN9252/VDD33TXRX2*%
X160530000Y-109728000D03*
%TO.P,R26,2*%
%TO.N,/LAN9252/TXB_N*%
X159510000Y-109728000D03*
%TD*%
D40*
%TO.P,J1,A1,GND*%
%TO.N,GND*%
X139089994Y-80397994D03*
D41*
%TO.P,J1,A4,VBUS*%
%TO.N,+5V*%
X138290000Y-80388000D03*
D42*
%TO.P,J1,A5,CC1*%
%TO.N,Net-(J1-CC1)*%
X137140000Y-80388000D03*
%TO.P,J1,A6,D+*%
%TO.N,/STM32F446RC/USBC_D+*%
X136140000Y-80388000D03*
%TO.P,J1,A7,D-*%
%TO.N,/STM32F446RC/USBC_D-*%
X135640000Y-80388000D03*
%TO.P,J1,A8,SBU1*%
%TO.N,unconnected-(J1-SBU1-PadA8)*%
X134640000Y-80388000D03*
D41*
%TO.P,J1,A9,VBUS*%
%TO.N,+5V*%
X133490000Y-80388000D03*
D43*
%TO.P,J1,A12,GND*%
%TO.N,GND*%
X132690001Y-80397999D03*
%TO.P,J1,B1,GND*%
X132690001Y-80397999D03*
D41*
%TO.P,J1,B4,VBUS*%
%TO.N,+5V*%
X133490000Y-80388000D03*
D42*
%TO.P,J1,B5,CC2*%
%TO.N,Net-(J1-CC2)*%
X134140000Y-80388000D03*
%TO.P,J1,B6,D+*%
%TO.N,/STM32F446RC/USBC_D+*%
X135140000Y-80388000D03*
%TO.P,J1,B7,D-*%
%TO.N,/STM32F446RC/USBC_D-*%
X136640000Y-80388000D03*
%TO.P,J1,B8,SBU2*%
%TO.N,unconnected-(J1-SBU2-PadB8)*%
X137640000Y-80388000D03*
D41*
%TO.P,J1,B9,VBUS*%
%TO.N,+5V*%
X138290000Y-80388000D03*
D44*
%TO.P,J1,B12,GND*%
%TO.N,GND*%
X139090000Y-80398000D03*
D45*
%TO.P,J1,S1,SHIELD*%
X140210000Y-79813000D03*
D46*
X140210000Y-75633000D03*
D45*
X131570000Y-79813000D03*
D46*
X131570000Y-75633000D03*
%TD*%
D16*
%TO.P,C43,1*%
%TO.N,/LAN9252/TXA_N*%
X132560000Y-110744000D03*
%TO.P,C43,2*%
%TO.N,GND*%
X131600000Y-110744000D03*
%TD*%
D10*
%TO.P,C42,1*%
%TO.N,/LAN9252/TXA_P*%
X133632000Y-110744000D03*
%TO.P,C42,2*%
%TO.N,GND*%
X134592000Y-110744000D03*
%TD*%
D47*
%TO.P,T1,1*%
%TO.N,/LAN9252/RXA_P*%
X140589000Y-112829000D03*
%TO.P,T1,2*%
%TO.N,Net-(C38-Pad1)*%
X139319000Y-112829000D03*
%TO.P,T1,3*%
%TO.N,/LAN9252/RXA_N*%
X138049000Y-112829000D03*
%TO.P,T1,4*%
%TO.N,unconnected-(T1-Pad4)*%
X136779000Y-112829000D03*
%TO.P,T1,5*%
%TO.N,unconnected-(T1-Pad5)*%
X135509000Y-112829000D03*
%TO.P,T1,6*%
%TO.N,/LAN9252/TXA_P*%
X134239000Y-112829000D03*
%TO.P,T1,7*%
%TO.N,Net-(C38-Pad1)*%
X132969000Y-112829000D03*
%TO.P,T1,8*%
%TO.N,/LAN9252/TXA_N*%
X131699000Y-112829000D03*
%TO.P,T1,9*%
%TO.N,/LAN9252/LAN9252 Ports/TXA+*%
X131699000Y-121359000D03*
%TO.P,T1,10*%
%TO.N,Net-(R20-Pad1)*%
X132969000Y-121359000D03*
%TO.P,T1,11*%
%TO.N,/LAN9252/LAN9252 Ports/TXA-*%
X134239000Y-121359000D03*
%TO.P,T1,12*%
%TO.N,unconnected-(T1-Pad12)*%
X135509000Y-121359000D03*
%TO.P,T1,13*%
%TO.N,unconnected-(T1-Pad13)*%
X136779000Y-121359000D03*
%TO.P,T1,14*%
%TO.N,/LAN9252/LAN9252 Ports/RXA+*%
X138049000Y-121359000D03*
%TO.P,T1,15*%
%TO.N,Net-(R17-Pad1)*%
X139319000Y-121359000D03*
%TO.P,T1,16*%
%TO.N,/LAN9252/LAN9252 Ports/RXA-*%
X140589000Y-121359000D03*
%TD*%
D10*
%TO.P,C49,1*%
%TO.N,/LAN9252/RXB_N*%
X153444000Y-110744000D03*
%TO.P,C49,2*%
%TO.N,GND*%
X154404000Y-110744000D03*
%TD*%
D47*
%TO.P,T2,1*%
%TO.N,/LAN9252/TXB_N*%
X160401000Y-112829000D03*
%TO.P,T2,2*%
%TO.N,Net-(C41-Pad1)*%
X159131000Y-112829000D03*
%TO.P,T2,3*%
%TO.N,/LAN9252/TXB_P*%
X157861000Y-112829000D03*
%TO.P,T2,4*%
%TO.N,unconnected-(T2-Pad4)*%
X156591000Y-112829000D03*
%TO.P,T2,5*%
%TO.N,unconnected-(T2-Pad5)*%
X155321000Y-112829000D03*
%TO.P,T2,6*%
%TO.N,/LAN9252/RXB_N*%
X154051000Y-112829000D03*
%TO.P,T2,7*%
%TO.N,Net-(C41-Pad1)*%
X152781000Y-112829000D03*
%TO.P,T2,8*%
%TO.N,/LAN9252/RXB_P*%
X151511000Y-112829000D03*
%TO.P,T2,9*%
%TO.N,/LAN9252/LAN9252 Ports/TXB+*%
X151511000Y-121359000D03*
%TO.P,T2,10*%
%TO.N,Net-(R31-Pad1)*%
X152781000Y-121359000D03*
%TO.P,T2,11*%
%TO.N,/LAN9252/LAN9252 Ports/TXB-*%
X154051000Y-121359000D03*
%TO.P,T2,12*%
%TO.N,unconnected-(T2-Pad12)*%
X155321000Y-121359000D03*
%TO.P,T2,13*%
%TO.N,unconnected-(T2-Pad13)*%
X156591000Y-121359000D03*
%TO.P,T2,14*%
%TO.N,/LAN9252/LAN9252 Ports/RXB+*%
X157861000Y-121359000D03*
%TO.P,T2,15*%
%TO.N,Net-(R30-Pad1)*%
X159131000Y-121359000D03*
%TO.P,T2,16*%
%TO.N,/LAN9252/LAN9252 Ports/RXB-*%
X160401000Y-121359000D03*
%TD*%
D14*
%TO.P,R2,1*%
%TO.N,/STM32F446RC/BOOT0*%
X139448000Y-88138000D03*
%TO.P,R2,2*%
%TO.N,GND*%
X138428000Y-88138000D03*
%TD*%
D12*
%TO.P,R30,1*%
%TO.N,Net-(R30-Pad1)*%
X148844000Y-123696000D03*
%TO.P,R30,2*%
%TO.N,Net-(C40-Pad1)*%
X148844000Y-124716000D03*
%TD*%
D16*
%TO.P,C28,1*%
%TO.N,+3.3V*%
X139418000Y-98298000D03*
%TO.P,C28,2*%
%TO.N,GND*%
X138458000Y-98298000D03*
%TD*%
D12*
%TO.P,R22,1*%
%TO.N,+3.3V*%
X136906000Y-98296000D03*
%TO.P,R22,2*%
%TO.N,/LAN9252/I2C_SDL*%
X136906000Y-99316000D03*
%TD*%
D14*
%TO.P,R28,1*%
%TO.N,/LAN9252/VDD33TXRX2*%
X154434000Y-109728000D03*
%TO.P,R28,2*%
%TO.N,/LAN9252/RXB_N*%
X153414000Y-109728000D03*
%TD*%
D48*
%TO.P,Y2,1,1*%
%TO.N,Net-(U4-OSCO)*%
X159258000Y-94564000D03*
%TO.P,Y2,2,2*%
%TO.N,Net-(C31-Pad2)*%
X159258000Y-104064000D03*
%TD*%
D49*
%TO.P,Y1,1,1*%
%TO.N,/STM32F446RC/HSE_IN*%
X138746000Y-92851000D03*
%TO.P,Y1,2,2*%
%TO.N,GND*%
X138746000Y-94601000D03*
%TO.P,Y1,3,3*%
%TO.N,/STM32F446RC/HSE_OUT*%
X140146000Y-94601000D03*
%TO.P,Y1,4,4*%
%TO.N,GND*%
X140146000Y-92851000D03*
%TD*%
D50*
%TO.P,J3,1,Pin_1*%
%TO.N,/STM32F446RC/PC0*%
X165100000Y-127000000D03*
D51*
%TO.P,J3,2,Pin_2*%
%TO.N,/STM32F446RC/PC1*%
X165100000Y-124460000D03*
%TO.P,J3,3,Pin_3*%
%TO.N,/STM32F446RC/PC2*%
X165100000Y-121920000D03*
%TO.P,J3,4,Pin_4*%
%TO.N,/STM32F446RC/PC3*%
X165100000Y-119380000D03*
%TO.P,J3,5,Pin_5*%
%TO.N,/STM32F446RC/PA0*%
X165100000Y-116840000D03*
%TO.P,J3,6,Pin_6*%
%TO.N,/STM32F446RC/PA1*%
X165100000Y-114300000D03*
%TO.P,J3,7,Pin_7*%
%TO.N,/STM32F446RC/PA4*%
X165100000Y-111760000D03*
%TO.P,J3,8,Pin_8*%
%TO.N,/STM32F446RC/PC5*%
X165100000Y-109220000D03*
%TO.P,J3,9,Pin_9*%
%TO.N,/STM32F446RC/PB0*%
X165100000Y-106680000D03*
%TO.P,J3,10,Pin_10*%
%TO.N,/STM32F446RC/PB1*%
X165100000Y-104140000D03*
%TO.P,J3,11,Pin_11*%
%TO.N,/STM32F446RC/PB2*%
X165100000Y-101600000D03*
%TO.P,J3,12,Pin_12*%
%TO.N,/STM32F446RC/PB10*%
X165100000Y-99060000D03*
%TO.P,J3,13,Pin_13*%
%TO.N,/STM32F446RC/PB12*%
X165100000Y-96520000D03*
%TO.P,J3,14,Pin_14*%
%TO.N,/STM32F446RC/PB13*%
X165100000Y-93980000D03*
%TO.P,J3,15,Pin_15*%
%TO.N,/STM32F446RC/PB14*%
X165100000Y-91440000D03*
%TO.P,J3,16,Pin_16*%
%TO.N,/STM32F446RC/PB15*%
X165100000Y-88900000D03*
%TO.P,J3,17,Pin_17*%
%TO.N,/STM32F446RC/PC9*%
X165100000Y-86360000D03*
%TO.P,J3,18,Pin_18*%
%TO.N,/STM32F446RC/PC8*%
X165100000Y-83820000D03*
%TO.P,J3,19,Pin_19*%
%TO.N,/STM32F446RC/PC7*%
X165100000Y-81280000D03*
%TO.P,J3,20,Pin_20*%
%TO.N,/STM32F446RC/PC6*%
X165100000Y-78740000D03*
%TD*%
D50*
%TO.P,J4,1,Pin_1*%
%TO.N,/STM32F446RC/3.3V_Battery*%
X127000000Y-76200000D03*
D51*
%TO.P,J4,2,Pin_2*%
%TO.N,GND*%
X127000000Y-78740000D03*
%TO.P,J4,3,Pin_3*%
%TO.N,+3.3V*%
X127000000Y-81280000D03*
%TO.P,J4,4,Pin_4*%
%TO.N,GND*%
X127000000Y-83820000D03*
%TO.P,J4,5,Pin_5*%
%TO.N,/STM32F446RC/PA8*%
X127000000Y-86360000D03*
%TO.P,J4,6,Pin_6*%
%TO.N,/STM32F446RC/PA9*%
X127000000Y-88900000D03*
%TO.P,J4,7,Pin_7*%
%TO.N,/STM32F446RC/PA10*%
X127000000Y-91440000D03*
%TO.P,J4,8,Pin_8*%
%TO.N,/STM32F446RC/PA15*%
X127000000Y-93980000D03*
%TO.P,J4,9,Pin_9*%
%TO.N,/STM32F446RC/PC10*%
X127000000Y-96520000D03*
%TO.P,J4,10,Pin_10*%
%TO.N,/STM32F446RC/PC11*%
X127000000Y-99060000D03*
%TO.P,J4,11,Pin_11*%
%TO.N,/STM32F446RC/PC12*%
X127000000Y-101600000D03*
%TO.P,J4,12,Pin_12*%
%TO.N,/STM32F446RC/PD2*%
X127000000Y-104140000D03*
%TO.P,J4,13,Pin_13*%
%TO.N,/STM32F446RC/PB4*%
X127000000Y-106680000D03*
%TO.P,J4,14,Pin_14*%
%TO.N,/STM32F446RC/PB5*%
X127000000Y-109220000D03*
%TO.P,J4,15,Pin_15*%
%TO.N,/STM32F446RC/PB6*%
X127000000Y-111760000D03*
%TO.P,J4,16,Pin_16*%
%TO.N,/STM32F446RC/PB7*%
X127000000Y-114300000D03*
%TO.P,J4,17,Pin_17*%
%TO.N,/STM32F446RC/PB8*%
X127000000Y-116840000D03*
%TO.P,J4,18,Pin_18*%
%TO.N,/STM32F446RC/PB9*%
X127000000Y-119380000D03*
%TO.P,J4,19,Pin_19*%
%TO.N,/STM32F446RC/PC13*%
X127000000Y-121920000D03*
%TO.P,J4,20,Pin_20*%
%TO.N,/STM32F446RC/PC14*%
X127000000Y-124460000D03*
%TD*%
D52*
%TO.N,GND*%
X151892000Y-95504000D03*
X153797000Y-89662000D03*
X138430000Y-88646000D03*
X150876000Y-110744000D03*
X139267000Y-89102000D03*
X136906000Y-103886000D03*
X146050000Y-109728000D03*
X147320000Y-127762000D03*
X137922000Y-96012000D03*
X139700000Y-86106000D03*
X154178000Y-83058000D03*
X137922000Y-103378000D03*
X141986000Y-77216000D03*
X154432000Y-84328000D03*
X141224000Y-110744000D03*
X144272000Y-94996000D03*
X137922000Y-104394000D03*
X149733000Y-76962000D03*
X137160000Y-110744000D03*
X149098000Y-111302800D03*
X137922000Y-99314000D03*
X160528000Y-90489000D03*
X131572000Y-111302800D03*
X156972000Y-110744000D03*
X147066000Y-111252000D03*
X140970000Y-92710000D03*
X142974000Y-111302800D03*
X133604000Y-82042000D03*
X137922000Y-89916000D03*
X155956000Y-96012000D03*
X137414000Y-87376000D03*
X148463000Y-94008000D03*
X147066000Y-115570000D03*
X137922000Y-98298000D03*
X133363000Y-85613090D03*
X135255000Y-105410000D03*
X146050000Y-114046000D03*
X139446000Y-82677000D03*
X155829000Y-94996000D03*
X133858000Y-96774000D03*
X153035000Y-105410000D03*
X143002000Y-78740000D03*
X142367000Y-78994000D03*
X131077000Y-83299000D03*
X154178000Y-100330000D03*
X144780000Y-127762000D03*
X156464000Y-82296000D03*
X148310600Y-92779000D03*
X159258000Y-77978000D03*
X145034000Y-111252000D03*
X154178000Y-102362000D03*
X154178000Y-97790000D03*
X135128000Y-110744000D03*
X139954000Y-91440000D03*
X154686000Y-96520000D03*
X137922000Y-94742000D03*
X136144000Y-103886000D03*
X160528000Y-111302800D03*
X140335000Y-90452000D03*
X135890000Y-84836000D03*
X146177000Y-94008000D03*
X155956000Y-102870000D03*
X137541000Y-83340000D03*
X154940000Y-110744000D03*
X137922000Y-105410000D03*
X136144000Y-82042000D03*
X141732000Y-128200000D03*
X156464000Y-83312000D03*
X150368000Y-128200000D03*
X154178000Y-101346000D03*
%TO.N,+3.3V*%
X131572000Y-105918000D03*
X151384000Y-101092000D03*
X136906000Y-97790000D03*
X152146000Y-97790000D03*
X147574000Y-116840000D03*
X154432000Y-82296000D03*
X139954000Y-104394000D03*
X153797000Y-88646000D03*
X152146000Y-102362000D03*
X141605000Y-91412000D03*
X148463000Y-94968000D03*
X155829000Y-94008000D03*
X131826000Y-96774000D03*
X142367000Y-79982000D03*
X160274000Y-77978000D03*
X142240000Y-94996000D03*
X156718000Y-105918000D03*
X147574000Y-120904000D03*
X139954000Y-89916000D03*
X137541000Y-101346000D03*
X137922000Y-102362000D03*
X131077000Y-84849000D03*
X139954000Y-98298000D03*
X151638000Y-96520000D03*
X143891000Y-114273000D03*
X132588000Y-84324000D03*
%TO.N,/STM32F446RC/NRST*%
X156464000Y-84328000D03*
X147828000Y-85344000D03*
%TO.N,/LAN9252/VDD33TXRX1*%
X137160000Y-109728000D03*
X131572000Y-109169200D03*
X135128000Y-109728000D03*
X135255000Y-106426000D03*
X141224000Y-109728000D03*
%TO.N,+5V*%
X131812000Y-87122000D03*
X133490000Y-81280000D03*
X146050000Y-77216000D03*
X138290000Y-81280000D03*
%TO.N,/LAN9252/VDD33TXRX2*%
X154940000Y-109728000D03*
X156972000Y-109728000D03*
X160528000Y-109169200D03*
X150876000Y-109728000D03*
X153035000Y-106398000D03*
%TO.N,/LAN9252/VDDCR*%
X139954000Y-99314000D03*
X152146000Y-100330000D03*
X146177000Y-94968000D03*
X152146000Y-101346000D03*
X148209000Y-114273000D03*
%TO.N,Net-(C38-Pad1)*%
X139319000Y-111633000D03*
X132969000Y-111633000D03*
X141986000Y-111302800D03*
%TO.N,Net-(C41-Pad1)*%
X150114000Y-111302800D03*
X152781000Y-111633000D03*
X159131000Y-111633000D03*
%TO.N,Net-(U4-VDD33BIAS)*%
X146050000Y-112014000D03*
X147066000Y-108204000D03*
%TO.N,/STM32F446RC/SWDIO*%
X147052285Y-83806285D03*
X158750000Y-83058000D03*
%TO.N,/STM32F446RC/UART2_RX*%
X149352000Y-86614000D03*
X151765000Y-77343000D03*
%TO.N,/STM32F446RC/SWCLK*%
X146812000Y-84582000D03*
X157734000Y-83058000D03*
%TO.N,/STM32F446RC/SWO*%
X146558000Y-85598000D03*
X157734000Y-82042000D03*
%TO.N,/STM32F446RC/PB15*%
X148835000Y-78740000D03*
%TO.N,/STM32F446RC/PB2*%
X149860000Y-84074000D03*
%TO.N,/STM32F446RC/PC3*%
X147935000Y-88392000D03*
%TO.N,/STM32F446RC/PC1*%
X146431000Y-89662000D03*
%TO.N,/STM32F446RC/PB14*%
X149352000Y-77978000D03*
%TO.N,/STM32F446RC/PB12*%
X151384000Y-78994000D03*
%TO.N,/STM32F446RC/PC2*%
X147066000Y-88392000D03*
%TO.N,/STM32F446RC/PB13*%
X150368000Y-78740000D03*
%TO.N,/STM32F446RC/PA0*%
X148844000Y-89662000D03*
%TO.N,/STM32F446RC/PB1*%
X149606000Y-85090000D03*
%TO.N,/STM32F446RC/PB0*%
X153924000Y-85344000D03*
%TO.N,/STM32F446RC/PA1*%
X149787185Y-89480815D03*
%TO.N,/STM32F446RC/PC5*%
X150114000Y-85852000D03*
%TO.N,/STM32F446RC/PB10*%
X150622000Y-83312000D03*
%TO.N,/STM32F446RC/PA4*%
X150558500Y-87312500D03*
%TO.N,/STM32F446RC/PC0*%
X146435000Y-92779000D03*
%TO.N,/STM32F446RC/PC13*%
X142748000Y-92964000D03*
%TO.N,/STM32F446RC/PA15*%
X142494000Y-82042000D03*
%TO.N,/STM32F446RC/PB8*%
X143256000Y-87884000D03*
%TO.N,/STM32F446RC/PA9*%
X145796000Y-82550000D03*
%TO.N,/STM32F446RC/PC14*%
X144018000Y-89662000D03*
%TO.N,/STM32F446RC/PA8*%
X146812000Y-82296000D03*
%TO.N,/STM32F446RC/PC7*%
X147574000Y-76708000D03*
%TO.N,/STM32F446RC/PB5*%
X144018000Y-87122000D03*
%TO.N,/STM32F446RC/PC8*%
X146812000Y-78740000D03*
%TO.N,/STM32F446RC/PC10*%
X142748000Y-82804000D03*
%TO.N,/STM32F446RC/PD2*%
X144272000Y-84582000D03*
%TO.N,/STM32F446RC/PC11*%
X143764000Y-83058000D03*
%TO.N,/STM32F446RC/PA10*%
X145034000Y-81788000D03*
%TO.N,/STM32F446RC/PB6*%
X142748000Y-86868000D03*
%TO.N,/STM32F446RC/PC9*%
X147828000Y-81788000D03*
%TO.N,/STM32F446RC/PB7*%
X138938000Y-87376000D03*
%TO.N,/STM32F446RC/PC6*%
X147320000Y-75438000D03*
%TO.N,/STM32F446RC/PB9*%
X143510000Y-88900000D03*
%TO.N,/STM32F446RC/PB4*%
X144526000Y-86360000D03*
%TO.N,/STM32F446RC/PC12*%
X144526000Y-83820000D03*
%TO.N,/LAN9252/GPIO2*%
X139954000Y-102362000D03*
X147066000Y-119634000D03*
%TO.N,/LAN9252/GPIO0*%
X139954000Y-105410000D03*
X143256000Y-121666000D03*
%TO.N,Net-(R17-Pad1)*%
X144780000Y-123190000D03*
X139319000Y-122555000D03*
%TO.N,/LAN9252/GPIO1*%
X148844000Y-121666000D03*
X139954000Y-103378000D03*
%TO.N,Net-(R20-Pad1)*%
X143256000Y-123190000D03*
X132969000Y-122555000D03*
%TO.N,Net-(R30-Pad1)*%
X159131000Y-122555000D03*
X148844000Y-123190000D03*
%TO.N,Net-(R31-Pad1)*%
X147320000Y-123190000D03*
X152781000Y-122555000D03*
%TO.N,/LAN9252/MOSI*%
X150995500Y-96146500D03*
X153416000Y-93218000D03*
%TO.N,/LAN9252/MISO*%
X152654000Y-93218000D03*
X151384000Y-98552000D03*
%TO.N,/LAN9252/SCK*%
X151892000Y-93218000D03*
X149352000Y-94996000D03*
%TO.N,/LAN9252/IRQ*%
X139700000Y-101346000D03*
X144018000Y-92964000D03*
%TO.N,/LAN9252/SCS*%
X154178000Y-93218000D03*
X141732000Y-105801000D03*
%TD*%
D53*
%TO.N,+3.3V*%
X142300000Y-95056000D02*
X142300000Y-96146500D01*
X142240000Y-94996000D02*
X142300000Y-95056000D01*
D54*
%TO.N,GND*%
X160528000Y-90489000D02*
X159766000Y-90489000D01*
D55*
%TO.N,/LAN9252/TXA_P*%
X133632000Y-111280000D02*
X133632000Y-110744000D01*
X134239000Y-111887000D02*
X133632000Y-111280000D01*
X134239000Y-112829000D02*
X134239000Y-111887000D01*
%TO.N,/LAN9252/TXA_N*%
X132590000Y-111228851D02*
X132590000Y-109728000D01*
X131699000Y-112829000D02*
X131699000Y-112119851D01*
X131699000Y-112119851D02*
X132590000Y-111228851D01*
%TO.N,/LAN9252/RXA_N*%
X138656000Y-109758000D02*
X138686000Y-109728000D01*
X138049000Y-111633000D02*
X138656000Y-111026000D01*
X138049000Y-112829000D02*
X138049000Y-111633000D01*
X138656000Y-111026000D02*
X138656000Y-109758000D01*
%TO.N,/LAN9252/RXA_P*%
X143576170Y-108712000D02*
X145300000Y-106988171D01*
X145300000Y-106988171D02*
X145300000Y-105021500D01*
X140276170Y-108712000D02*
X143576170Y-108712000D01*
X139698000Y-110996000D02*
X139698000Y-109290170D01*
X140589000Y-111887000D02*
X139698000Y-110996000D01*
X139698000Y-109290170D02*
X140276170Y-108712000D01*
X140589000Y-112829000D02*
X140589000Y-111887000D01*
D54*
%TO.N,+3.3V*%
X144780000Y-114273000D02*
X143891000Y-114273000D01*
%TO.N,/LAN9252/VDDCR*%
X147320000Y-114273000D02*
X148209000Y-114273000D01*
%TO.N,/LAN9252/VDD33TXRX2*%
X152400000Y-106398000D02*
X153035000Y-106398000D01*
%TO.N,GND*%
X153035000Y-105410000D02*
X152428000Y-105410000D01*
X152428000Y-105410000D02*
X152400000Y-105438000D01*
X152908000Y-105410000D02*
X153035000Y-105410000D01*
D55*
%TO.N,/LAN9252/VDD33TXRX1*%
X134747000Y-105918000D02*
X134085000Y-105918000D01*
X135255000Y-106426000D02*
X134747000Y-105918000D01*
D54*
X135255000Y-106426000D02*
X135862000Y-106426000D01*
X135862000Y-106426000D02*
X135890000Y-106398000D01*
%TO.N,GND*%
X135862000Y-105410000D02*
X135890000Y-105438000D01*
X135255000Y-105410000D02*
X135862000Y-105410000D01*
X135382000Y-105410000D02*
X135255000Y-105410000D01*
%TO.N,+3.3V*%
X136908000Y-101346000D02*
X136906000Y-101348000D01*
X137541000Y-101346000D02*
X136908000Y-101346000D01*
D56*
%TO.N,Net-(U4-OSCO)*%
X155956000Y-101854000D02*
X155956000Y-97508000D01*
X152273000Y-103505000D02*
X154305000Y-103505000D01*
X151944000Y-103834000D02*
X152273000Y-103505000D01*
X154305000Y-103505000D02*
X155956000Y-101854000D01*
X150487500Y-103834000D02*
X151944000Y-103834000D01*
D54*
%TO.N,GND*%
X146177000Y-94008000D02*
X146812000Y-94008000D01*
D56*
%TO.N,/LAN9252/VDDCR*%
X146300000Y-95091000D02*
X146300000Y-96146500D01*
X146177000Y-94968000D02*
X146300000Y-95091000D01*
D54*
X146812000Y-94968000D02*
X146177000Y-94968000D01*
%TO.N,GND*%
X148463000Y-94008000D02*
X147828000Y-94008000D01*
D53*
%TO.N,+3.3V*%
X148300000Y-95131000D02*
X148463000Y-94968000D01*
X148300000Y-96146500D02*
X148300000Y-95131000D01*
D54*
X147828000Y-94968000D02*
X148463000Y-94968000D01*
D53*
%TO.N,GND*%
X151356000Y-94968000D02*
X151892000Y-95504000D01*
X151130000Y-94968000D02*
X151356000Y-94968000D01*
D56*
%TO.N,/LAN9252/MOSI*%
X150995500Y-96146500D02*
X149800000Y-96146500D01*
%TO.N,/LAN9252/SCK*%
X148800000Y-95548000D02*
X148800000Y-96146500D01*
X149352000Y-94996000D02*
X148800000Y-95548000D01*
D54*
%TO.N,GND*%
X150086000Y-94996000D02*
X150114000Y-94968000D01*
X155222000Y-94996000D02*
X155194000Y-94968000D01*
X155829000Y-94996000D02*
X155222000Y-94996000D01*
%TO.N,+3.3V*%
X155829000Y-94008000D02*
X155194000Y-94008000D01*
X155222000Y-93980000D02*
X155194000Y-94008000D01*
D53*
%TO.N,GND*%
X153364000Y-89102000D02*
X152360000Y-89102000D01*
X153797000Y-89535000D02*
X153364000Y-89102000D01*
X153797000Y-89662000D02*
X153797000Y-89535000D01*
%TO.N,+3.3V*%
X153753000Y-88602000D02*
X152360000Y-88602000D01*
X153797000Y-88646000D02*
X153753000Y-88602000D01*
D54*
X153797000Y-88646000D02*
X154404000Y-88646000D01*
%TO.N,GND*%
X153797000Y-89662000D02*
X154404000Y-89662000D01*
D53*
%TO.N,+3.3V*%
X142367000Y-79982000D02*
X142740000Y-79982000D01*
X142740000Y-79982000D02*
X142935000Y-80177000D01*
D54*
X141732000Y-79982000D02*
X142339000Y-79982000D01*
%TO.N,GND*%
X141760000Y-78994000D02*
X141732000Y-79022000D01*
X142367000Y-78994000D02*
X141760000Y-78994000D01*
X139446000Y-83310000D02*
X139448000Y-83312000D01*
X139446000Y-82677000D02*
X139446000Y-83310000D01*
X137541000Y-83340000D02*
X136906000Y-83340000D01*
X136906000Y-103380000D02*
X136906000Y-103886000D01*
D53*
X154178000Y-83058000D02*
X153722000Y-82602000D01*
D54*
X145034000Y-111252000D02*
X145034000Y-110716000D01*
D53*
X144018000Y-110716000D02*
X145034000Y-110716000D01*
D54*
X154432000Y-84328000D02*
X154968000Y-84328000D01*
D53*
X139089994Y-80397994D02*
X139625006Y-80397994D01*
D54*
X142880500Y-76962000D02*
X142240000Y-76962000D01*
X135509000Y-103886000D02*
X136144000Y-103886000D01*
X149098000Y-110772000D02*
X149126000Y-110744000D01*
X137414000Y-87376000D02*
X136412000Y-88378000D01*
D53*
X139625006Y-80397994D02*
X140210000Y-79813000D01*
D54*
X135509000Y-103313000D02*
X135509000Y-103886000D01*
X154404000Y-110744000D02*
X154940000Y-110744000D01*
X139954000Y-91440000D02*
X139418000Y-91440000D01*
X146050000Y-109222000D02*
X146050000Y-109728000D01*
X140688000Y-110744000D02*
X141224000Y-110744000D01*
D53*
X158750000Y-77978000D02*
X159258000Y-77978000D01*
X150487500Y-100334000D02*
X146300000Y-100334000D01*
X143106000Y-78740000D02*
X143435000Y-79069000D01*
X151384000Y-105438000D02*
X152400000Y-105438000D01*
D54*
X137696000Y-110744000D02*
X137160000Y-110744000D01*
X140970000Y-90452000D02*
X140335000Y-90452000D01*
X139700000Y-86106000D02*
X138872000Y-86106000D01*
D53*
X143435000Y-79069000D02*
X143435000Y-80177000D01*
X146348518Y-100834000D02*
X146074259Y-100559741D01*
D54*
X138428000Y-88138000D02*
X138428000Y-88644000D01*
D53*
X146800000Y-99834000D02*
X146074259Y-100559741D01*
X150487500Y-102834000D02*
X148348518Y-102834000D01*
X132154999Y-80397999D02*
X131570000Y-79813000D01*
X146300000Y-100334000D02*
X146074259Y-100559741D01*
D54*
X138458000Y-89916000D02*
X137922000Y-89916000D01*
D53*
X148435000Y-91527000D02*
X148435000Y-92654600D01*
D54*
X136144000Y-82042000D02*
X135638000Y-82042000D01*
X160528000Y-110772000D02*
X160500000Y-110744000D01*
X131572000Y-111302800D02*
X131572000Y-110772000D01*
X142240000Y-76962000D02*
X141986000Y-77216000D01*
D53*
X148348518Y-102834000D02*
X146074259Y-100559741D01*
D54*
X150368000Y-127533500D02*
X150368000Y-128200000D01*
D53*
X143002000Y-78740000D02*
X143106000Y-78740000D01*
D54*
X147320000Y-127762000D02*
X147320000Y-127226000D01*
D53*
X139267000Y-89102000D02*
X140883000Y-89102000D01*
X135382000Y-84836000D02*
X135370000Y-84824000D01*
X150487500Y-100834000D02*
X146348518Y-100834000D01*
D54*
X155928000Y-82296000D02*
X156464000Y-82296000D01*
X134592000Y-110744000D02*
X135128000Y-110744000D01*
X138428000Y-88644000D02*
X138430000Y-88646000D01*
X138428000Y-103378000D02*
X137922000Y-103378000D01*
D53*
X151130000Y-94968000D02*
X150114000Y-94968000D01*
D54*
X142974000Y-111302800D02*
X142974000Y-110744000D01*
X133100999Y-82074999D02*
X133068000Y-82042000D01*
X149098000Y-111302800D02*
X149098000Y-110772000D01*
X138428000Y-105410000D02*
X137922000Y-105410000D01*
X131826000Y-83299000D02*
X131077000Y-83299000D01*
X146050000Y-113510000D02*
X146050000Y-114046000D01*
X137922000Y-98298000D02*
X138458000Y-98298000D01*
X138458000Y-104394000D02*
X137922000Y-104394000D01*
X133604000Y-82042000D02*
X133068000Y-82042000D01*
D53*
X148082000Y-110716000D02*
X147066000Y-110716000D01*
D54*
X137922000Y-99314000D02*
X138458000Y-99314000D01*
D53*
X150487500Y-99834000D02*
X146800000Y-99834000D01*
D54*
X151412000Y-110744000D02*
X150876000Y-110744000D01*
D53*
X136412000Y-88378000D02*
X136412000Y-88544000D01*
D54*
X157508000Y-110744000D02*
X156972000Y-110744000D01*
D53*
X150112000Y-76962000D02*
X150622000Y-76452000D01*
D54*
X144272000Y-94996000D02*
X143736000Y-94996000D01*
D53*
X145800000Y-100834000D02*
X146074259Y-100559741D01*
D54*
X155956000Y-96012000D02*
X155956000Y-96548000D01*
X155928000Y-83312000D02*
X156464000Y-83312000D01*
X141732000Y-127533500D02*
X141732000Y-128200000D01*
X140970000Y-92710000D02*
X140287000Y-92710000D01*
D53*
X153722000Y-82602000D02*
X152360000Y-82602000D01*
X148435000Y-92654600D02*
X148310600Y-92779000D01*
X132690001Y-80397999D02*
X132154999Y-80397999D01*
D54*
X137922000Y-94742000D02*
X138605000Y-94742000D01*
X133363000Y-85613090D02*
X133363000Y-86360000D01*
X160528000Y-111302800D02*
X160528000Y-110772000D01*
D53*
X158115000Y-77343000D02*
X158750000Y-77978000D01*
D54*
X146560000Y-115570000D02*
X147066000Y-115570000D01*
X131572000Y-110772000D02*
X131600000Y-110744000D01*
D53*
X154404000Y-89662000D02*
X154432000Y-89634000D01*
D54*
X155956000Y-102870000D02*
X155956000Y-103406000D01*
D53*
X158115000Y-75943000D02*
X158115000Y-77343000D01*
X156845000Y-75943000D02*
X158115000Y-75943000D01*
D54*
X153642000Y-100330000D02*
X154178000Y-100330000D01*
X133322000Y-96774000D02*
X133858000Y-96774000D01*
X153642000Y-101346000D02*
X154178000Y-101346000D01*
X153642000Y-102362000D02*
X154178000Y-102362000D01*
D53*
X138746000Y-94601000D02*
X138746000Y-94855000D01*
X141612500Y-100834000D02*
X145800000Y-100834000D01*
X135370000Y-84824000D02*
X135106000Y-84824000D01*
X138605000Y-94742000D02*
X138746000Y-94601000D01*
D54*
X138458000Y-96012000D02*
X137922000Y-96012000D01*
D53*
X136906000Y-105438000D02*
X135890000Y-105438000D01*
X140287000Y-92710000D02*
X140146000Y-92851000D01*
D54*
X153937000Y-96520000D02*
X154686000Y-96520000D01*
D53*
X135890000Y-84836000D02*
X135382000Y-84836000D01*
D54*
X136144000Y-82042000D02*
X136650000Y-82042000D01*
D53*
X149733000Y-76962000D02*
X150112000Y-76962000D01*
D54*
X144780000Y-127762000D02*
X144780000Y-127226000D01*
X153642000Y-97790000D02*
X154178000Y-97790000D01*
X147066000Y-111252000D02*
X147066000Y-110716000D01*
D53*
%TO.N,+3.3V*%
X133880000Y-84324000D02*
X134366000Y-84324000D01*
X154238000Y-82102000D02*
X152360000Y-82102000D01*
X132351000Y-84324000D02*
X131826000Y-84849000D01*
D54*
X132362000Y-96774000D02*
X131826000Y-96774000D01*
D53*
X159385000Y-77089000D02*
X159385000Y-75943000D01*
D54*
X156718000Y-105918000D02*
X155675000Y-105918000D01*
D53*
X141633000Y-91440000D02*
X142848000Y-91440000D01*
D54*
X146837500Y-116840000D02*
X147574000Y-116840000D01*
D53*
X135121050Y-85598000D02*
X134958050Y-85435000D01*
D54*
X136906000Y-97790000D02*
X136906000Y-98296000D01*
X146837500Y-120904000D02*
X147574000Y-120904000D01*
X131826000Y-84849000D02*
X131077000Y-84849000D01*
X154968000Y-82296000D02*
X154432000Y-82296000D01*
D53*
X134366000Y-84324000D02*
X135360000Y-84324000D01*
X142848000Y-91440000D02*
X142935000Y-91527000D01*
X135130000Y-85598000D02*
X135121050Y-85598000D01*
D54*
X139418000Y-98298000D02*
X139954000Y-98298000D01*
D53*
X134366000Y-85214190D02*
X134366000Y-84324000D01*
X152146000Y-102362000D02*
X152118000Y-102334000D01*
X131826000Y-96774000D02*
X131826000Y-98490000D01*
X150487500Y-97834000D02*
X152102000Y-97834000D01*
X134586810Y-85435000D02*
X134366000Y-85214190D01*
X139954000Y-89916000D02*
X140268000Y-89602000D01*
X135638000Y-86106000D02*
X135130000Y-85598000D01*
D54*
X132615000Y-105918000D02*
X131572000Y-105918000D01*
X139418000Y-89916000D02*
X139954000Y-89916000D01*
D53*
X152102000Y-97834000D02*
X152146000Y-97790000D01*
D54*
X152387000Y-96520000D02*
X151638000Y-96520000D01*
X152146000Y-97790000D02*
X152682000Y-97790000D01*
D53*
X139954000Y-104394000D02*
X140514000Y-103834000D01*
X142935000Y-91527000D02*
X142935000Y-91654000D01*
X150487500Y-101334000D02*
X151142000Y-101334000D01*
X154404000Y-88646000D02*
X154432000Y-88674000D01*
D54*
X142776000Y-94996000D02*
X142240000Y-94996000D01*
D53*
X140514000Y-103834000D02*
X141612500Y-103834000D01*
X153949500Y-94488000D02*
X154429500Y-94008000D01*
X151142000Y-101334000D02*
X151384000Y-101092000D01*
X160274000Y-77978000D02*
X159385000Y-77089000D01*
X139954000Y-98298000D02*
X140490000Y-98834000D01*
X133626000Y-84324000D02*
X132588000Y-84324000D01*
D54*
X152682000Y-102362000D02*
X152146000Y-102362000D01*
X139418000Y-104394000D02*
X139954000Y-104394000D01*
D53*
X154429500Y-94008000D02*
X155194000Y-94008000D01*
X152118000Y-102334000D02*
X150487500Y-102334000D01*
X140268000Y-89602000D02*
X141010000Y-89602000D01*
X132588000Y-84324000D02*
X132351000Y-84324000D01*
X140490000Y-98834000D02*
X141612500Y-98834000D01*
X141605000Y-91412000D02*
X141633000Y-91440000D01*
X154432000Y-82296000D02*
X154238000Y-82102000D01*
X134958050Y-85435000D02*
X134586810Y-85435000D01*
X131826000Y-98490000D02*
X131699000Y-98617000D01*
D54*
X138428000Y-102362000D02*
X137922000Y-102362000D01*
X141605000Y-91412000D02*
X140970000Y-91412000D01*
D56*
%TO.N,/STM32F446RC/NRST*%
X155928000Y-84328000D02*
X155928000Y-84354000D01*
X147828000Y-85344000D02*
X144780000Y-88392000D01*
X152400000Y-78232000D02*
X153924000Y-78232000D01*
X154305000Y-78613000D02*
X154305000Y-80013000D01*
X147828000Y-84328000D02*
X152019000Y-80137000D01*
X145935000Y-90690000D02*
X145935000Y-91527000D01*
X152019000Y-78613000D02*
X152400000Y-78232000D01*
X152019000Y-80137000D02*
X152019000Y-78613000D01*
X153924000Y-78232000D02*
X154305000Y-78613000D01*
X144780000Y-89535000D02*
X145935000Y-90690000D01*
X144780000Y-88392000D02*
X144780000Y-89535000D01*
X147828000Y-85344000D02*
X147828000Y-84328000D01*
X155928000Y-84354000D02*
X154938000Y-85344000D01*
D54*
X156464000Y-84328000D02*
X155928000Y-84328000D01*
D56*
%TO.N,+3.3VA*%
X150114000Y-94008000D02*
X148935000Y-92829000D01*
X151130000Y-94008000D02*
X150114000Y-94008000D01*
X152374500Y-94488000D02*
X151610000Y-94488000D01*
X151610000Y-94488000D02*
X151130000Y-94008000D01*
X148935000Y-92829000D02*
X148935000Y-91527000D01*
%TO.N,/STM32F446RC/HSE_OUT*%
X139418000Y-96012000D02*
X139418000Y-95329000D01*
X145435000Y-93325000D02*
X145435000Y-91527000D01*
X139418000Y-95329000D02*
X140620000Y-94127000D01*
X144780000Y-93980000D02*
X145435000Y-93325000D01*
X144628600Y-94127000D02*
X144775600Y-93980000D01*
X140620000Y-94127000D02*
X144628600Y-94127000D01*
X144775600Y-93980000D02*
X144780000Y-93980000D01*
%TO.N,/STM32F446RC/HSE_IN*%
X138458000Y-91440000D02*
X138458000Y-92563000D01*
X139621000Y-93726000D02*
X138746000Y-92851000D01*
X144935000Y-93253500D02*
X144462500Y-93726000D01*
X144935000Y-91527000D02*
X144935000Y-93253500D01*
X144462500Y-93726000D02*
X139621000Y-93726000D01*
X138458000Y-92563000D02*
X138746000Y-92851000D01*
%TO.N,Net-(U2-VCAP_1)*%
X152360000Y-83102000D02*
X153206000Y-83102000D01*
X153206000Y-83102000D02*
X153763000Y-83659000D01*
X154621000Y-83659000D02*
X154968000Y-83312000D01*
X153763000Y-83659000D02*
X154621000Y-83659000D01*
D55*
%TO.N,/LAN9252/VDD33TXRX1*%
X143300000Y-105021500D02*
X143300000Y-105874000D01*
D54*
X131570000Y-109171200D02*
X131570000Y-109728000D01*
X134622000Y-109728000D02*
X135128000Y-109728000D01*
D55*
X142748000Y-106426000D02*
X136172000Y-106426000D01*
D54*
X137666000Y-109728000D02*
X137160000Y-109728000D01*
X140718000Y-109728000D02*
X141224000Y-109728000D01*
D55*
X143300000Y-105874000D02*
X142748000Y-106426000D01*
X136172000Y-106426000D02*
X136144000Y-106398000D01*
D54*
X131572000Y-109169200D02*
X131570000Y-109171200D01*
X141984000Y-109728000D02*
X141224000Y-109728000D01*
D55*
X136144000Y-106398000D02*
X135890000Y-106398000D01*
X134085000Y-105918000D02*
X134085000Y-105891000D01*
D54*
%TO.N,+5V*%
X131813000Y-86360000D02*
X131813000Y-87121000D01*
X145796000Y-76962000D02*
X146050000Y-77216000D01*
D53*
X131813000Y-87121000D02*
X131812000Y-87122000D01*
X131812000Y-86361000D02*
X131813000Y-86360000D01*
D54*
X145155500Y-76962000D02*
X145796000Y-76962000D01*
X131812000Y-88544000D02*
X131812000Y-86361000D01*
X138290000Y-81280000D02*
X138290000Y-80388000D01*
D53*
X131812000Y-88290000D02*
X131812000Y-87911000D01*
D54*
X133490000Y-81280000D02*
X133490000Y-80388000D01*
%TO.N,/LAN9252/VDD33TXRX2*%
X151382000Y-109728000D02*
X150876000Y-109728000D01*
D55*
X149800000Y-105350000D02*
X149800000Y-105021500D01*
X153515000Y-105918000D02*
X154205000Y-105918000D01*
X153035000Y-106398000D02*
X153515000Y-105918000D01*
D54*
X160530000Y-109171200D02*
X160528000Y-109169200D01*
D55*
X151384000Y-106398000D02*
X152400000Y-106398000D01*
D54*
X154940000Y-109728000D02*
X154434000Y-109728000D01*
D55*
X151384000Y-106398000D02*
X150848000Y-106398000D01*
D54*
X156972000Y-109728000D02*
X157478000Y-109728000D01*
D55*
X150848000Y-106398000D02*
X149800000Y-105350000D01*
D54*
X150116000Y-109728000D02*
X150876000Y-109728000D01*
X160530000Y-109728000D02*
X160530000Y-109171200D01*
D55*
%TO.N,/LAN9252/VDD12TX1*%
X147828000Y-108994000D02*
X147066000Y-109756000D01*
X145919226Y-110620774D02*
X145054452Y-109756000D01*
X147828000Y-107950000D02*
X147828000Y-108994000D01*
X145919226Y-110620774D02*
X146180774Y-110620774D01*
X147300000Y-107422000D02*
X147828000Y-107950000D01*
X147045548Y-109756000D02*
X146180774Y-110620774D01*
X145054452Y-109756000D02*
X145034000Y-109756000D01*
X146050000Y-110751548D02*
X145919226Y-110620774D01*
X146050000Y-111121298D02*
X146050000Y-110751548D01*
X147066000Y-109756000D02*
X148082000Y-109756000D01*
X145800000Y-105021500D02*
X145800000Y-107438000D01*
X145800000Y-107438000D02*
X145034000Y-108204000D01*
X146180774Y-110620774D02*
X146050000Y-110751548D01*
X145034000Y-108204000D02*
X145034000Y-109756000D01*
X146050000Y-111121298D02*
X147320000Y-112391298D01*
X144018000Y-109756000D02*
X145034000Y-109756000D01*
X147320000Y-112391298D02*
X147320000Y-112803000D01*
X147300000Y-105021500D02*
X147300000Y-107422000D01*
X147066000Y-109756000D02*
X147045548Y-109756000D01*
D56*
%TO.N,Net-(C31-Pad2)*%
X153672000Y-104394000D02*
X158928000Y-104394000D01*
X158928000Y-104394000D02*
X159258000Y-104064000D01*
%TO.N,Net-(U4-OSCO)*%
X158900000Y-94564000D02*
X159258000Y-94564000D01*
X155956000Y-97508000D02*
X158900000Y-94564000D01*
%TO.N,/LAN9252/VDDCR*%
X152146000Y-101346000D02*
X151658000Y-101834000D01*
D54*
X152682000Y-100330000D02*
X152146000Y-100330000D01*
X139418000Y-99314000D02*
X139954000Y-99314000D01*
X152682000Y-101346000D02*
X152146000Y-101346000D01*
D56*
X139954000Y-99314000D02*
X139974000Y-99334000D01*
X151658000Y-101834000D02*
X150487500Y-101834000D01*
X139974000Y-99334000D02*
X141612500Y-99334000D01*
%TO.N,Net-(C37-Pad1)*%
X144780000Y-124970000D02*
X144780000Y-126266000D01*
X143256000Y-125222000D02*
X143256000Y-124716000D01*
X144780000Y-126266000D02*
X144300000Y-126266000D01*
X144300000Y-126266000D02*
X143256000Y-125222000D01*
%TO.N,Net-(C38-Pad1)*%
X142014000Y-110718000D02*
X142014000Y-110744000D01*
D54*
X132969000Y-111633000D02*
X132969000Y-112829000D01*
D56*
X143004000Y-109728000D02*
X142014000Y-110718000D01*
X141986000Y-110772000D02*
X142014000Y-110744000D01*
D54*
X141986000Y-111302800D02*
X141986000Y-110772000D01*
X139319000Y-111633000D02*
X139319000Y-112829000D01*
D56*
%TO.N,Net-(C40-Pad1)*%
X147800000Y-126266000D02*
X148844000Y-125222000D01*
X147320000Y-126266000D02*
X147320000Y-124716000D01*
X147320000Y-126266000D02*
X147800000Y-126266000D01*
X148844000Y-125222000D02*
X148844000Y-124716000D01*
D54*
%TO.N,Net-(C41-Pad1)*%
X159131000Y-111633000D02*
X159131000Y-112829000D01*
D56*
X150114000Y-110772000D02*
X150086000Y-110744000D01*
D54*
X150114000Y-111302800D02*
X150114000Y-110772000D01*
X152781000Y-111633000D02*
X152781000Y-112829000D01*
D56*
X150086000Y-110718000D02*
X150086000Y-110744000D01*
X149096000Y-109728000D02*
X150086000Y-110718000D01*
%TO.N,/STM32F446RC/PWR_LED_K*%
X145540000Y-116562500D02*
X145262500Y-116840000D01*
X145540000Y-115570000D02*
X145540000Y-116562500D01*
%TO.N,Net-(D2-K)*%
X145540000Y-120626500D02*
X145262500Y-120904000D01*
X145540000Y-119634000D02*
X145540000Y-120626500D01*
%TO.N,Net-(D3-A)*%
X141732000Y-124716000D02*
X141732000Y-125958500D01*
%TO.N,Net-(D4-A)*%
X150368000Y-124716000D02*
X150368000Y-125958500D01*
%TO.N,Net-(U4-VDD33BIAS)*%
X146800000Y-105021500D02*
X146800000Y-107938000D01*
X145033000Y-112550000D02*
X144780000Y-112803000D01*
D54*
X146050000Y-112550000D02*
X146050000Y-112014000D01*
D56*
X146800000Y-107938000D02*
X147066000Y-108204000D01*
X146050000Y-112550000D02*
X145033000Y-112550000D01*
D55*
%TO.N,/STM32F446RC/USBC_D+*%
X144018000Y-77282000D02*
X143388000Y-77912000D01*
X138720364Y-77269000D02*
X138724364Y-77273000D01*
X136140000Y-79743822D02*
X136140000Y-79475744D01*
X136140000Y-79475744D02*
X138346744Y-77269000D01*
X144018000Y-75692000D02*
X144018000Y-77282000D01*
X138724364Y-77273000D02*
X140151000Y-77273000D01*
X135883178Y-79487000D02*
X136140000Y-79743822D01*
X143388000Y-77912000D02*
X143134500Y-77912000D01*
X135140000Y-79743822D02*
X135396822Y-79487000D01*
X135140000Y-80388000D02*
X135140000Y-79743822D01*
X138346744Y-77269000D02*
X138720364Y-77269000D01*
X135396822Y-79487000D02*
X135883178Y-79487000D01*
X142240000Y-75184000D02*
X143510000Y-75184000D01*
X140151000Y-77273000D02*
X142240000Y-75184000D01*
X136140000Y-79743822D02*
X136140000Y-80388000D01*
X143510000Y-75184000D02*
X144018000Y-75692000D01*
D56*
%TO.N,Net-(J1-CC1)*%
X137140000Y-81512000D02*
X137140000Y-80388000D01*
X137670000Y-82042000D02*
X137140000Y-81512000D01*
D55*
%TO.N,/STM32F446RC/USBC_D-*%
X138533554Y-77720000D02*
X138533554Y-77724000D01*
X136389000Y-81289000D02*
X136640000Y-81038000D01*
X135896822Y-81289000D02*
X136389000Y-81289000D01*
X140337810Y-77724000D02*
X142049810Y-76012000D01*
X142049810Y-76012000D02*
X142880500Y-76012000D01*
X138533554Y-77724000D02*
X140337810Y-77724000D01*
X136640000Y-79613554D02*
X138533554Y-77720000D01*
X136640000Y-81038000D02*
X136640000Y-80388000D01*
X136640000Y-80388000D02*
X136640000Y-79613554D01*
X135640000Y-81032178D02*
X135896822Y-81289000D01*
X135640000Y-80388000D02*
X135640000Y-81032178D01*
D56*
%TO.N,Net-(J1-CC2)*%
X134618000Y-82042000D02*
X134140000Y-81564000D01*
X134140000Y-81564000D02*
X134140000Y-80388000D01*
%TO.N,/STM32F446RC/SWDIO*%
X147052285Y-83806285D02*
X146095385Y-83806285D01*
X158750000Y-83058000D02*
X158750000Y-81874529D01*
X158750000Y-81874529D02*
X159385000Y-81239529D01*
X146095385Y-83806285D02*
X143935000Y-81645900D01*
X143935000Y-81645900D02*
X143935000Y-80177000D01*
X159385000Y-81239529D02*
X159385000Y-80013000D01*
%TO.N,/STM32F446RC/UART2_TX*%
X150435000Y-89280100D02*
X148590000Y-87435100D01*
X148590000Y-84133100D02*
X152547000Y-80176100D01*
X150435000Y-91527000D02*
X150435000Y-89280100D01*
X152547000Y-80176100D02*
X152871900Y-80176100D01*
X152871900Y-80176100D02*
X153035000Y-80013000D01*
X148590000Y-87435100D02*
X148590000Y-84133100D01*
%TO.N,Net-(J2-Pad11)*%
X154305000Y-75943000D02*
X154305000Y-77040000D01*
X152086900Y-77978000D02*
X151128000Y-77978000D01*
X152233900Y-77831000D02*
X152086900Y-77978000D01*
X151128000Y-77978000D02*
X150622000Y-77472000D01*
X154305000Y-77040000D02*
X153514000Y-77831000D01*
X153514000Y-77831000D02*
X152233900Y-77831000D01*
%TO.N,/STM32F446RC/UART2_RX*%
X153035000Y-75946000D02*
X153035000Y-75943000D01*
X149352000Y-87630000D02*
X151324000Y-89602000D01*
X151324000Y-89602000D02*
X152360000Y-89602000D01*
X149352000Y-86614000D02*
X149352000Y-87630000D01*
X151765000Y-77216000D02*
X153035000Y-75946000D01*
%TO.N,/STM32F446RC/SWCLK*%
X143163000Y-81441000D02*
X141671000Y-81441000D01*
X146812000Y-84582000D02*
X146304000Y-84582000D01*
X157734000Y-83058000D02*
X158349000Y-82443000D01*
X141671000Y-81441000D02*
X141010000Y-82102000D01*
X146304000Y-84582000D02*
X143163000Y-81441000D01*
X158349000Y-82443000D02*
X158349000Y-80247000D01*
X158349000Y-80247000D02*
X158115000Y-80013000D01*
%TO.N,/STM32F446RC/SWO*%
X157065000Y-80233000D02*
X156845000Y-80013000D01*
X157065000Y-81373000D02*
X157065000Y-80233000D01*
X157734000Y-82042000D02*
X157065000Y-81373000D01*
X143522000Y-85102000D02*
X141010000Y-85102000D01*
X144018000Y-85598000D02*
X143522000Y-85102000D01*
X146558000Y-85598000D02*
X144018000Y-85598000D01*
%TO.N,/STM32F446RC/PB15*%
X148935000Y-80177000D02*
X148935000Y-78840000D01*
X148935000Y-78840000D02*
X148835000Y-78740000D01*
%TO.N,/STM32F446RC/PB2*%
X149860000Y-84074000D02*
X149888000Y-84102000D01*
X149888000Y-84102000D02*
X152360000Y-84102000D01*
%TO.N,/STM32F446RC/PC3*%
X147935000Y-88392000D02*
X147935000Y-91527000D01*
%TO.N,/STM32F446RC/PC1*%
X146431000Y-89662000D02*
X146935000Y-90166000D01*
X146935000Y-90166000D02*
X146935000Y-91527000D01*
%TO.N,/STM32F446RC/PB14*%
X149435000Y-78061000D02*
X149435000Y-80177000D01*
X149352000Y-77978000D02*
X149435000Y-78061000D01*
%TO.N,/STM32F446RC/PB12*%
X151384000Y-78994000D02*
X150435000Y-79943000D01*
X150435000Y-79943000D02*
X150435000Y-80177000D01*
%TO.N,/STM32F446RC/PC2*%
X147066000Y-88392000D02*
X147435000Y-88761000D01*
X147435000Y-88761000D02*
X147435000Y-91527000D01*
%TO.N,/STM32F446RC/PB13*%
X149935000Y-79173000D02*
X149935000Y-80177000D01*
X150368000Y-78740000D02*
X149935000Y-79173000D01*
%TO.N,/STM32F446RC/PA0*%
X149435000Y-90253000D02*
X149435000Y-91527000D01*
X148844000Y-89662000D02*
X149435000Y-90253000D01*
%TO.N,/STM32F446RC/PB1*%
X149606000Y-85090000D02*
X150368000Y-85090000D01*
X150856000Y-84602000D02*
X152360000Y-84602000D01*
X150368000Y-85090000D02*
X150856000Y-84602000D01*
%TO.N,/STM32F446RC/PB0*%
X152360000Y-85102000D02*
X153682000Y-85102000D01*
X153682000Y-85102000D02*
X153924000Y-85344000D01*
%TO.N,/STM32F446RC/PA1*%
X149787185Y-89480815D02*
X149935000Y-89628630D01*
X149935000Y-89628630D02*
X149935000Y-91527000D01*
%TO.N,/STM32F446RC/PC5*%
X150364000Y-85602000D02*
X152360000Y-85602000D01*
X150114000Y-85852000D02*
X150364000Y-85602000D01*
%TO.N,/STM32F446RC/PB10*%
X150912000Y-83602000D02*
X152360000Y-83602000D01*
X150622000Y-83312000D02*
X150912000Y-83602000D01*
%TO.N,/STM32F446RC/PA4*%
X150558500Y-87312500D02*
X151348000Y-88102000D01*
X151348000Y-88102000D02*
X152360000Y-88102000D01*
%TO.N,/STM32F446RC/PC0*%
X146435000Y-92779000D02*
X146435000Y-91527000D01*
%TO.N,/STM32F446RC/PC13*%
X142748000Y-92964000D02*
X143002000Y-92964000D01*
X143435000Y-92531000D02*
X143435000Y-91527000D01*
X143002000Y-92964000D02*
X143435000Y-92531000D01*
%TO.N,/STM32F446RC/PA15*%
X141934000Y-82602000D02*
X141010000Y-82602000D01*
X142494000Y-82042000D02*
X141934000Y-82602000D01*
%TO.N,/STM32F446RC/PB8*%
X143038000Y-88102000D02*
X141010000Y-88102000D01*
X143256000Y-87884000D02*
X143038000Y-88102000D01*
%TO.N,/STM32F446RC/PA9*%
X145935000Y-82411000D02*
X145935000Y-80177000D01*
X145796000Y-82550000D02*
X145935000Y-82411000D01*
%TO.N,/STM32F446RC/PC14*%
X143935000Y-89745000D02*
X143935000Y-91527000D01*
X144018000Y-89662000D02*
X143935000Y-89745000D01*
%TO.N,/STM32F446RC/PA8*%
X146435000Y-81280000D02*
X146435000Y-80177000D01*
X146812000Y-82296000D02*
X146812000Y-81657000D01*
X146812000Y-81657000D02*
X146435000Y-81280000D01*
%TO.N,/STM32F446RC/PC7*%
X147574000Y-76708000D02*
X147574000Y-78896043D01*
X147574000Y-78896043D02*
X147935000Y-79257043D01*
X147935000Y-79257043D02*
X147935000Y-80177000D01*
%TO.N,/STM32F446RC/PB5*%
X144018000Y-87122000D02*
X143002000Y-86106000D01*
X142712463Y-86102000D02*
X141010000Y-86102000D01*
X142716463Y-86106000D02*
X142712463Y-86102000D01*
X143002000Y-86106000D02*
X142716463Y-86106000D01*
%TO.N,/STM32F446RC/PC8*%
X147435000Y-79363000D02*
X147435000Y-80177000D01*
X146812000Y-78740000D02*
X147435000Y-79363000D01*
%TO.N,/STM32F446RC/PC10*%
X142748000Y-82804000D02*
X142450000Y-83102000D01*
X142450000Y-83102000D02*
X141010000Y-83102000D01*
%TO.N,/STM32F446RC/PD2*%
X144272000Y-84582000D02*
X144252000Y-84602000D01*
X144252000Y-84602000D02*
X141010000Y-84602000D01*
%TO.N,/STM32F446RC/PC11*%
X143220000Y-83602000D02*
X141010000Y-83602000D01*
X143764000Y-83058000D02*
X143220000Y-83602000D01*
%TO.N,/STM32F446RC/PA10*%
X145034000Y-81788000D02*
X145435000Y-81387000D01*
X145435000Y-81387000D02*
X145435000Y-80177000D01*
%TO.N,/STM32F446RC/PB6*%
X142482000Y-86602000D02*
X142748000Y-86868000D01*
X141010000Y-86602000D02*
X142482000Y-86602000D01*
%TO.N,/STM32F446RC/PC9*%
X146935000Y-81149000D02*
X146935000Y-80177000D01*
X147828000Y-81788000D02*
X147574000Y-81788000D01*
X147574000Y-81788000D02*
X146935000Y-81149000D01*
%TO.N,/STM32F446RC/PB7*%
X139388900Y-87376000D02*
X139662900Y-87102000D01*
X139662900Y-87102000D02*
X140883000Y-87102000D01*
X138938000Y-87376000D02*
X139388900Y-87376000D01*
%TO.N,/STM32F446RC/PC6*%
X148435000Y-79189943D02*
X148435000Y-80177000D01*
X147320000Y-75438000D02*
X148234000Y-76352000D01*
X148234000Y-76352000D02*
X148234000Y-78988943D01*
X148234000Y-78988943D02*
X148435000Y-79189943D01*
%TO.N,/STM32F446RC/PB9*%
X143212000Y-88602000D02*
X141010000Y-88602000D01*
X143510000Y-88900000D02*
X143212000Y-88602000D01*
%TO.N,/STM32F446RC/PB4*%
X143260000Y-85602000D02*
X141010000Y-85602000D01*
X144018000Y-86360000D02*
X143260000Y-85602000D01*
X144526000Y-86360000D02*
X144018000Y-86360000D01*
%TO.N,/STM32F446RC/PC12*%
X143764000Y-83820000D02*
X143482000Y-84102000D01*
X143482000Y-84102000D02*
X141010000Y-84102000D01*
X144526000Y-83820000D02*
X143764000Y-83820000D01*
D55*
%TO.N,/LAN9252/LAN9252 Ports/RXA+*%
X138049000Y-121359000D02*
X138049000Y-122057500D01*
X138049000Y-122057500D02*
X136769000Y-123337500D01*
X136769000Y-123337500D02*
X136769000Y-123880000D01*
%TO.N,/LAN9252/LAN9252 Ports/TXA-*%
X134239000Y-121359000D02*
X134239000Y-122047000D01*
X134239000Y-122047000D02*
X135519000Y-123327000D01*
X135519000Y-123327000D02*
X135519000Y-123880000D01*
%TO.N,/LAN9252/LAN9252 Ports/TXA+*%
X133278000Y-123880000D02*
X134269000Y-123880000D01*
X131699000Y-122301000D02*
X133278000Y-123880000D01*
X131699000Y-121359000D02*
X131699000Y-122301000D01*
%TO.N,/LAN9252/LAN9252 Ports/RXA-*%
X140589000Y-121359000D02*
X140589000Y-122301000D01*
X140589000Y-122301000D02*
X139010000Y-123880000D01*
X139010000Y-123880000D02*
X138019000Y-123880000D01*
%TO.N,/LAN9252/LAN9252 Ports/RXB-*%
X160401000Y-121359000D02*
X160401000Y-122301000D01*
X160401000Y-122301000D02*
X158822000Y-123880000D01*
X158822000Y-123880000D02*
X157831000Y-123880000D01*
%TO.N,/LAN9252/LAN9252 Ports/TXB-*%
X154051000Y-121359000D02*
X154051000Y-122047000D01*
X154051000Y-122047000D02*
X155331000Y-123327000D01*
X155331000Y-123327000D02*
X155331000Y-123880000D01*
%TO.N,/LAN9252/LAN9252 Ports/TXB+*%
X151511000Y-121359000D02*
X151511000Y-122301000D01*
X153090000Y-123880000D02*
X154081000Y-123880000D01*
X151511000Y-122301000D02*
X153090000Y-123880000D01*
%TO.N,/LAN9252/LAN9252 Ports/RXB+*%
X156581000Y-123327000D02*
X156581000Y-123880000D01*
X157861000Y-122047000D02*
X156581000Y-123327000D01*
X157861000Y-121359000D02*
X157861000Y-122047000D01*
D56*
%TO.N,Net-(R1-Pad2)*%
X159766000Y-82739000D02*
X159766000Y-83820000D01*
X159766000Y-83820000D02*
X158496000Y-85090000D01*
X158496000Y-85090000D02*
X156212000Y-85090000D01*
X156212000Y-85090000D02*
X155958000Y-85344000D01*
%TO.N,/STM32F446RC/BOOT0*%
X140883000Y-87602000D02*
X139984000Y-87602000D01*
X139984000Y-87602000D02*
X139448000Y-88138000D01*
%TO.N,Net-(U4-OSCI)*%
X150487500Y-104334000D02*
X152592000Y-104334000D01*
X152592000Y-104334000D02*
X152652000Y-104394000D01*
%TO.N,Net-(U4-RBIAS)*%
X146050000Y-108202000D02*
X146300000Y-107952000D01*
X146300000Y-107952000D02*
X146300000Y-105021500D01*
D54*
%TO.N,/LAN9252/GPIO2*%
X139448000Y-102362000D02*
X139954000Y-102362000D01*
X146560000Y-119634000D02*
X147066000Y-119634000D01*
D56*
X139954000Y-102362000D02*
X140426000Y-102834000D01*
X140426000Y-102834000D02*
X141612500Y-102834000D01*
D54*
%TO.N,/LAN9252/GPIO0*%
X139448000Y-105410000D02*
X139954000Y-105410000D01*
D56*
X140519000Y-104845000D02*
X140524620Y-104845000D01*
X141732000Y-123190000D02*
X141732000Y-123696000D01*
X139954000Y-105410000D02*
X140519000Y-104845000D01*
X143256000Y-121666000D02*
X141732000Y-123190000D01*
X141035620Y-104334000D02*
X141612500Y-104334000D01*
X140524620Y-104845000D02*
X141035620Y-104334000D01*
D55*
%TO.N,/LAN9252/TXA_P*%
X134591158Y-108301012D02*
X133602000Y-109290170D01*
X133632000Y-110744000D02*
X133602000Y-110714000D01*
X142977001Y-107721000D02*
X135171170Y-107721000D01*
X144300000Y-105021500D02*
X144300000Y-106398000D01*
X135171170Y-107721000D02*
X134711550Y-108180619D01*
X133602000Y-110714000D02*
X133602000Y-109728000D01*
X134711550Y-108180619D02*
X134591158Y-108301012D01*
X133602000Y-109290170D02*
X133602000Y-109728000D01*
X144300000Y-106398000D02*
X142977001Y-107721000D01*
%TO.N,/LAN9252/TXA_N*%
X142808830Y-107315000D02*
X143800000Y-106323830D01*
X132590000Y-109728000D02*
X135003000Y-107315000D01*
X143800000Y-106323830D02*
X143800000Y-105021500D01*
X135003000Y-107315000D02*
X142808830Y-107315000D01*
%TO.N,/LAN9252/RXA_N*%
X144800000Y-106914000D02*
X144800000Y-105021500D01*
X140108000Y-108306000D02*
X143408000Y-108306000D01*
X138686000Y-109728000D02*
X140108000Y-108306000D01*
X143408000Y-108306000D02*
X144800000Y-106914000D01*
D54*
%TO.N,Net-(R17-Pad1)*%
X144780000Y-123190000D02*
X144780000Y-123696000D01*
X139319000Y-122555000D02*
X139319000Y-121359000D01*
%TO.N,/LAN9252/GPIO1*%
X139448000Y-103378000D02*
X139954000Y-103378000D01*
D56*
X150368000Y-123190000D02*
X150368000Y-123696000D01*
X139998000Y-103334000D02*
X141612500Y-103334000D01*
X139954000Y-103378000D02*
X139998000Y-103334000D01*
X148844000Y-121666000D02*
X150368000Y-123190000D01*
D54*
%TO.N,Net-(R20-Pad1)*%
X132969000Y-121359000D02*
X132969000Y-122555000D01*
X143256000Y-123190000D02*
X143256000Y-123696000D01*
D56*
%TO.N,/LAN9252/I2C_SCL*%
X136906000Y-100328000D02*
X135380000Y-100328000D01*
X137350900Y-100328000D02*
X136906000Y-100328000D01*
X139760102Y-100477000D02*
X137499900Y-100477000D01*
X135380000Y-100328000D02*
X134239000Y-99187000D01*
X141612500Y-101834000D02*
X141117102Y-101834000D01*
X141117102Y-101834000D02*
X139760102Y-100477000D01*
X137499900Y-100477000D02*
X137350900Y-100328000D01*
X134239000Y-99187000D02*
X134239000Y-98617000D01*
%TO.N,/LAN9252/I2C_SDL*%
X136208000Y-99316000D02*
X135509000Y-98617000D01*
X139926202Y-100076000D02*
X137666000Y-100076000D01*
X141612500Y-101334000D02*
X141184202Y-101334000D01*
X141184202Y-101334000D02*
X139926202Y-100076000D01*
X137666000Y-100076000D02*
X136906000Y-99316000D01*
X136906000Y-99316000D02*
X136208000Y-99316000D01*
%TO.N,Net-(U5-A0)*%
X136654000Y-102108000D02*
X136906000Y-102360000D01*
X132969000Y-103567000D02*
X132969000Y-98617000D01*
X134620000Y-102108000D02*
X136654000Y-102108000D01*
X134239000Y-103567000D02*
X134239000Y-102489000D01*
X134239000Y-102489000D02*
X134620000Y-102108000D01*
X131699000Y-103567000D02*
X134239000Y-103567000D01*
D55*
%TO.N,/LAN9252/TXB_P*%
X148800000Y-105021500D02*
X148800000Y-106382000D01*
X157861000Y-111887000D02*
X158468000Y-111280000D01*
X157531790Y-108069960D02*
X158498000Y-109036170D01*
X158498000Y-109036170D02*
X158498000Y-110714000D01*
X156477601Y-107721000D02*
X157182830Y-107721000D01*
X157182830Y-107721000D02*
X157531790Y-108069960D01*
X158498000Y-110714000D02*
X158468000Y-110744000D01*
X158468000Y-111280000D02*
X158468000Y-110744000D01*
X150138999Y-107721000D02*
X156477601Y-107721000D01*
X148800000Y-106382000D02*
X150138999Y-107721000D01*
X157861000Y-112829000D02*
X157861000Y-111887000D01*
%TO.N,/LAN9252/TXB_N*%
X150307170Y-107315000D02*
X149300000Y-106307830D01*
X159510000Y-110714000D02*
X159510000Y-109474000D01*
X159540000Y-110744000D02*
X159510000Y-110714000D01*
X159540000Y-111237702D02*
X159540000Y-110744000D01*
X159510000Y-109474000D02*
X157351000Y-107315000D01*
X157351000Y-107315000D02*
X150307170Y-107315000D01*
X160401000Y-112829000D02*
X160401000Y-112098702D01*
X149300000Y-106307830D02*
X149300000Y-105021500D01*
X160401000Y-112098702D02*
X159540000Y-111237702D01*
%TO.N,/LAN9252/RXB_P*%
X152402000Y-109474000D02*
X152402000Y-109036170D01*
X151511000Y-111744000D02*
X152372000Y-110883000D01*
X152402000Y-110714000D02*
X152402000Y-109474000D01*
X152372000Y-110883000D02*
X152372000Y-110744000D01*
X152402000Y-109036170D02*
X152077830Y-108712000D01*
X151511000Y-112829000D02*
X151511000Y-111744000D01*
X147800000Y-106972171D02*
X147800000Y-105021500D01*
X152372000Y-110744000D02*
X152402000Y-110714000D01*
X149539829Y-108712000D02*
X147800000Y-106972171D01*
X152077830Y-108712000D02*
X149539829Y-108712000D01*
%TO.N,/LAN9252/RXB_N*%
X153414000Y-110714000D02*
X153414000Y-109474000D01*
X148300000Y-106898000D02*
X148300000Y-105021500D01*
X153444000Y-111137000D02*
X153444000Y-110744000D01*
X149708000Y-108306000D02*
X148300000Y-106898000D01*
X154051000Y-112829000D02*
X154051000Y-111744000D01*
X153414000Y-109474000D02*
X152246000Y-108306000D01*
X152246000Y-108306000D02*
X149708000Y-108306000D01*
X154051000Y-111744000D02*
X153444000Y-111137000D01*
X153444000Y-110744000D02*
X153414000Y-110714000D01*
D54*
%TO.N,Net-(R30-Pad1)*%
X159131000Y-121359000D02*
X159131000Y-122555000D01*
X148844000Y-123190000D02*
X148844000Y-123696000D01*
%TO.N,Net-(R31-Pad1)*%
X147320000Y-123190000D02*
X147320000Y-123696000D01*
X152781000Y-122555000D02*
X152781000Y-121359000D01*
D55*
%TO.N,/STM32F446RC/USB_D-*%
X145219310Y-78740000D02*
X144935000Y-79024310D01*
X145796000Y-78740000D02*
X145219310Y-78740000D01*
X145409500Y-76012000D02*
X146071999Y-76012000D01*
X144935000Y-79024310D02*
X144935000Y-80177000D01*
X146812000Y-76752001D02*
X146812000Y-77724000D01*
X146071999Y-76012000D02*
X146812000Y-76752001D01*
X146812000Y-77724000D02*
X145796000Y-78740000D01*
%TO.N,/STM32F446RC/USB_D+*%
X145409500Y-77912000D02*
X144435000Y-78886500D01*
X144435000Y-78886500D02*
X144435000Y-80177000D01*
D56*
%TO.N,/LAN9252/MOSI*%
X153416000Y-92828200D02*
X155996000Y-90248200D01*
X155996000Y-88059800D02*
X154538200Y-86602000D01*
X153416000Y-93218000D02*
X153416000Y-92828200D01*
X155996000Y-90248200D02*
X155996000Y-88059800D01*
X154538200Y-86602000D02*
X152360000Y-86602000D01*
%TO.N,/LAN9252/MISO*%
X155595000Y-90082100D02*
X155595000Y-88225900D01*
X150487500Y-98334000D02*
X151166000Y-98334000D01*
X154471100Y-87102000D02*
X152360000Y-87102000D01*
X152654000Y-93218000D02*
X152654000Y-93023100D01*
X152654000Y-93023100D02*
X155595000Y-90082100D01*
X151166000Y-98334000D02*
X151384000Y-98552000D01*
X155595000Y-88225900D02*
X154471100Y-87102000D01*
%TO.N,/LAN9252/SCK*%
X151892000Y-93218000D02*
X155194000Y-89916000D01*
X155194000Y-89916000D02*
X155194000Y-88392000D01*
X154404000Y-87602000D02*
X152360000Y-87602000D01*
X155194000Y-88392000D02*
X154404000Y-87602000D01*
%TO.N,/LAN9252/IRQ*%
X139700000Y-101346000D02*
X140062002Y-101346000D01*
X144435000Y-92547000D02*
X144018000Y-92964000D01*
X140062002Y-101346000D02*
X141050002Y-102334000D01*
X144435000Y-91527000D02*
X144435000Y-92547000D01*
X141050002Y-102334000D02*
X141612500Y-102334000D01*
%TO.N,/LAN9252/SCS*%
X141732000Y-105801000D02*
X142581450Y-105801000D01*
X156397000Y-87893700D02*
X154605300Y-86102000D01*
X154178000Y-93218000D02*
X154178000Y-92633300D01*
X142581450Y-105801000D02*
X142800000Y-105582450D01*
X154178000Y-92633300D02*
X156397000Y-90414300D01*
X156397000Y-90414300D02*
X156397000Y-87893700D01*
X154605300Y-86102000D02*
X152360000Y-86102000D01*
X142800000Y-105582450D02*
X142800000Y-105021500D01*
D53*
%TO.N,/STM32F446RC/3.3V_USB*%
X136972000Y-86106000D02*
X136652000Y-86106000D01*
X138428000Y-84328000D02*
X138400000Y-84300000D01*
X136906000Y-84300000D02*
X136906000Y-86040000D01*
X136652000Y-86106000D02*
X134112000Y-88646000D01*
X136352130Y-84300000D02*
X135876130Y-83824000D01*
X134123000Y-83323000D02*
X133626000Y-83323000D01*
X135106000Y-83824000D02*
X134624000Y-83824000D01*
X134624000Y-83824000D02*
X134123000Y-83323000D01*
X136906000Y-86040000D02*
X136972000Y-86106000D01*
X138400000Y-84300000D02*
X136352130Y-84300000D01*
X135876130Y-83824000D02*
X135106000Y-83824000D01*
X134112000Y-88646000D02*
X134112000Y-94844000D01*
X135568521Y-83824000D02*
X135106000Y-83824000D01*
%TO.N,/STM32F446RC/3.3V_Battery*%
X132842000Y-82824260D02*
X132108000Y-82090260D01*
X132108000Y-82042000D02*
X130810000Y-82042000D01*
X133626000Y-83824000D02*
X133100000Y-83824000D01*
X132842000Y-83566000D02*
X132842000Y-82824260D01*
X130810000Y-82042000D02*
X129286000Y-80518000D01*
X132108000Y-82090260D02*
X132108000Y-82042000D01*
X133100000Y-83824000D02*
X132842000Y-83566000D01*
X129286000Y-80518000D02*
X129286000Y-78486000D01*
X129286000Y-78486000D02*
X127000000Y-76200000D01*
D56*
%TO.N,Net-(U6-PR1)*%
X136491000Y-82711000D02*
X135878000Y-83324000D01*
X139194000Y-84078000D02*
X137827000Y-82711000D01*
X137827000Y-82711000D02*
X136491000Y-82711000D01*
X139198000Y-84078000D02*
X139194000Y-84078000D01*
X139448000Y-84328000D02*
X139198000Y-84078000D01*
X135878000Y-83324000D02*
X135106000Y-83324000D01*
%TO.N,Net-(U6-ST)*%
X133915000Y-85113000D02*
X133626000Y-84824000D01*
X134366000Y-85852000D02*
X133915000Y-85401000D01*
X134366000Y-85854000D02*
X134366000Y-85852000D01*
X133915000Y-85401000D02*
X133915000Y-85113000D01*
X134618000Y-86106000D02*
X134366000Y-85854000D01*
%TD*%
M02*
