%TF.GenerationSoftware,KiCad,Pcbnew,9.0.5*%
%TF.CreationDate,2026-05-05T19:59:56-06:00*%
%TF.ProjectId,EtherCatDevBoard_V1-1,45746865-7243-4617-9444-6576426f6172,rev?*%
%TF.SameCoordinates,Original*%
%TF.FileFunction,Soldermask,Top*%
%TF.FilePolarity,Negative*%
%FSLAX46Y46*%
G04 Gerber Fmt 4.6, Leading zero omitted, Abs format (unit mm)*
G04 Created by KiCad (PCBNEW 9.0.5) date 2026-05-05 19:59:56*
%MOMM*%
%LPD*%
G01*
G04 APERTURE LIST*
G04 Aperture macros list*
%AMRoundRect*
0 Rectangle with rounded corners*
0 $1 Rounding radius*
0 $2 $3 $4 $5 $6 $7 $8 $9 X,Y pos of 4 corners*
0 Add a 4 corners polygon primitive as box body*
4,1,4,$2,$3,$4,$5,$6,$7,$8,$9,$2,$3,0*
0 Add four circle primitives for the rounded corners*
1,1,$1+$1,$2,$3*
1,1,$1+$1,$4,$5*
1,1,$1+$1,$6,$7*
1,1,$1+$1,$8,$9*
0 Add four rect primitives between the rounded corners*
20,1,$1+$1,$2,$3,$4,$5,0*
20,1,$1+$1,$4,$5,$6,$7,0*
20,1,$1+$1,$6,$7,$8,$9,0*
20,1,$1+$1,$8,$9,$2,$3,0*%
G04 Aperture macros list end*
%ADD10RoundRect,0.140000X-0.140000X-0.170000X0.140000X-0.170000X0.140000X0.170000X-0.140000X0.170000X0*%
%ADD11RoundRect,0.140000X-0.170000X0.140000X-0.170000X-0.140000X0.170000X-0.140000X0.170000X0.140000X0*%
%ADD12RoundRect,0.135000X-0.185000X0.135000X-0.185000X-0.135000X0.185000X-0.135000X0.185000X0.135000X0*%
%ADD13RoundRect,0.140000X0.170000X-0.140000X0.170000X0.140000X-0.170000X0.140000X-0.170000X-0.140000X0*%
%ADD14RoundRect,0.135000X0.135000X0.185000X-0.135000X0.185000X-0.135000X-0.185000X0.135000X-0.185000X0*%
%ADD15RoundRect,0.135000X-0.135000X-0.185000X0.135000X-0.185000X0.135000X0.185000X-0.135000X0.185000X0*%
%ADD16RoundRect,0.140000X0.140000X0.170000X-0.140000X0.170000X-0.140000X-0.170000X0.140000X-0.170000X0*%
%ADD17RoundRect,0.135000X0.185000X-0.135000X0.185000X0.135000X-0.185000X0.135000X-0.185000X-0.135000X0*%
%ADD18RoundRect,0.375000X-0.375000X0.625000X-0.375000X-0.625000X0.375000X-0.625000X0.375000X0.625000X0*%
%ADD19RoundRect,0.500000X-1.400000X0.500000X-1.400000X-0.500000X1.400000X-0.500000X1.400000X0.500000X0*%
%ADD20RoundRect,0.102000X-0.485000X0.500000X-0.485000X-0.500000X0.485000X-0.500000X0.485000X0.500000X0*%
%ADD21C,1.300000*%
%ADD22RoundRect,0.102000X-0.500000X-0.485000X0.500000X-0.485000X0.500000X0.485000X-0.500000X0.485000X0*%
%ADD23RoundRect,0.225000X-0.225000X-0.250000X0.225000X-0.250000X0.225000X0.250000X-0.225000X0.250000X0*%
%ADD24RoundRect,0.225000X0.250000X-0.225000X0.250000X0.225000X-0.250000X0.225000X-0.250000X-0.225000X0*%
%ADD25RoundRect,0.050000X0.285000X0.100000X-0.285000X0.100000X-0.285000X-0.100000X0.285000X-0.100000X0*%
%ADD26RoundRect,0.102000X0.370000X1.395000X-0.370000X1.395000X-0.370000X-1.395000X0.370000X-1.395000X0*%
%ADD27RoundRect,0.218750X0.256250X-0.218750X0.256250X0.218750X-0.256250X0.218750X-0.256250X-0.218750X0*%
%ADD28RoundRect,0.102000X0.500000X0.485000X-0.500000X0.485000X-0.500000X-0.485000X0.500000X-0.485000X0*%
%ADD29RoundRect,0.150000X-0.512500X-0.150000X0.512500X-0.150000X0.512500X0.150000X-0.512500X0.150000X0*%
%ADD30RoundRect,0.150000X-0.150000X-0.700000X0.150000X-0.700000X0.150000X0.700000X-0.150000X0.700000X0*%
%ADD31RoundRect,0.250000X-0.250000X-1.100000X0.250000X-1.100000X0.250000X1.100000X-0.250000X1.100000X0*%
%ADD32RoundRect,0.250000X-0.250000X-0.475000X0.250000X-0.475000X0.250000X0.475000X-0.250000X0.475000X0*%
%ADD33RoundRect,0.218750X-0.218750X-0.256250X0.218750X-0.256250X0.218750X0.256250X-0.218750X0.256250X0*%
%ADD34R,1.000000X1.250000*%
%ADD35RoundRect,0.150000X0.150000X-0.825000X0.150000X0.825000X-0.150000X0.825000X-0.150000X-0.825000X0*%
%ADD36RoundRect,0.062500X0.350000X0.062500X-0.350000X0.062500X-0.350000X-0.062500X0.350000X-0.062500X0*%
%ADD37RoundRect,0.062500X0.062500X0.350000X-0.062500X0.350000X-0.062500X-0.350000X0.062500X-0.350000X0*%
%ADD38RoundRect,0.209369X2.790631X2.790631X-2.790631X2.790631X-2.790631X-2.790631X2.790631X-2.790631X0*%
%ADD39RoundRect,0.075000X0.075000X-0.700000X0.075000X0.700000X-0.075000X0.700000X-0.075000X-0.700000X0*%
%ADD40RoundRect,0.075000X0.700000X-0.075000X0.700000X0.075000X-0.700000X0.075000X-0.700000X-0.075000X0*%
%ADD41C,0.650000*%
%ADD42RoundRect,0.149997X0.149997X0.414997X-0.149997X0.414997X-0.149997X-0.414997X0.149997X-0.414997X0*%
%ADD43RoundRect,0.150000X0.150000X0.425000X-0.150000X0.425000X-0.150000X-0.425000X0.150000X-0.425000X0*%
%ADD44RoundRect,0.075000X0.075000X0.500000X-0.075000X0.500000X-0.075000X-0.500000X0.075000X-0.500000X0*%
%ADD45RoundRect,0.150000X0.149999X0.414999X-0.149999X0.414999X-0.149999X-0.414999X0.149999X-0.414999X0*%
%ADD46RoundRect,0.150000X0.150000X0.415000X-0.150000X0.415000X-0.150000X-0.415000X0.150000X-0.415000X0*%
%ADD47O,1.000000X2.100000*%
%ADD48O,1.000000X1.800000*%
%ADD49RoundRect,0.102000X-0.380000X0.835000X-0.380000X-0.835000X0.380000X-0.835000X0.380000X0.835000X0*%
%ADD50R,2.000000X5.500000*%
%ADD51RoundRect,0.250000X-0.250000X0.325000X-0.250000X-0.325000X0.250000X-0.325000X0.250000X0.325000X0*%
%ADD52R,1.700000X1.700000*%
%ADD53C,1.700000*%
G04 APERTURE END LIST*
D10*
%TO.C,C13*%
X154968000Y-83312000D03*
X155928000Y-83312000D03*
%TD*%
D11*
%TO.C,C3*%
X154432000Y-88674000D03*
X154432000Y-89634000D03*
%TD*%
D12*
%TO.C,R31*%
X147320000Y-123696000D03*
X147320000Y-124716000D03*
%TD*%
D13*
%TO.C,C26*%
X147828000Y-94968000D03*
X147828000Y-94008000D03*
%TD*%
D14*
%TO.C,R13*%
X140718000Y-109728000D03*
X139698000Y-109728000D03*
%TD*%
%TO.C,R4*%
X135638000Y-82042000D03*
X134618000Y-82042000D03*
%TD*%
D15*
%TO.C,R18*%
X138428000Y-105410000D03*
X139448000Y-105410000D03*
%TD*%
D14*
%TO.C,R32*%
X139448000Y-84328000D03*
X138428000Y-84328000D03*
%TD*%
D16*
%TO.C,C29*%
X139418000Y-104394000D03*
X138458000Y-104394000D03*
%TD*%
D10*
%TO.C,C47*%
X159540000Y-110744000D03*
X160500000Y-110744000D03*
%TD*%
D13*
%TO.C,C18*%
X152400000Y-106398000D03*
X152400000Y-105438000D03*
%TD*%
%TO.C,C2*%
X140970000Y-91412000D03*
X140970000Y-90452000D03*
%TD*%
D11*
%TO.C,C22*%
X145034000Y-109756000D03*
X145034000Y-110716000D03*
%TD*%
D10*
%TO.C,C25*%
X152682000Y-97790000D03*
X153642000Y-97790000D03*
%TD*%
D13*
%TO.C,C5*%
X141732000Y-79982000D03*
X141732000Y-79022000D03*
%TD*%
D12*
%TO.C,R24*%
X150368000Y-123696000D03*
X150368000Y-124716000D03*
%TD*%
D11*
%TO.C,C40*%
X147320000Y-126266000D03*
X147320000Y-127226000D03*
%TD*%
D16*
%TO.C,C45*%
X138656000Y-110744000D03*
X137696000Y-110744000D03*
%TD*%
D17*
%TO.C,R23*%
X136906000Y-103380000D03*
X136906000Y-102360000D03*
%TD*%
D18*
%TO.C,U3*%
X136412000Y-88544000D03*
X134112000Y-88544000D03*
D19*
X134112000Y-94844000D03*
D18*
X131812000Y-88544000D03*
%TD*%
D20*
%TO.C,FB5*%
X144780000Y-112803000D03*
X144780000Y-114273000D03*
%TD*%
D15*
%TO.C,R14*%
X137666000Y-109728000D03*
X138686000Y-109728000D03*
%TD*%
D11*
%TO.C,C24*%
X146050000Y-112550000D03*
X146050000Y-113510000D03*
%TD*%
D10*
%TO.C,C44*%
X139728000Y-110744000D03*
X140688000Y-110744000D03*
%TD*%
D11*
%TO.C,C7*%
X151130000Y-94008000D03*
X151130000Y-94968000D03*
%TD*%
%TO.C,C37*%
X144780000Y-126266000D03*
X144780000Y-127226000D03*
%TD*%
%TO.C,C8*%
X150114000Y-94008000D03*
X150114000Y-94968000D03*
%TD*%
D13*
%TO.C,C50*%
X136906000Y-84300000D03*
X136906000Y-83340000D03*
%TD*%
D15*
%TO.C,R1*%
X154938000Y-85344000D03*
X155958000Y-85344000D03*
%TD*%
D16*
%TO.C,C10*%
X155928000Y-84328000D03*
X154968000Y-84328000D03*
%TD*%
D10*
%TO.C,C30*%
X152682000Y-102362000D03*
X153642000Y-102362000D03*
%TD*%
D21*
%TO.C,REF\u002A\u002A*%
X127000000Y-127000000D03*
%TD*%
D10*
%TO.C,C4*%
X154968000Y-82296000D03*
X155928000Y-82296000D03*
%TD*%
D16*
%TO.C,C48*%
X152372000Y-110744000D03*
X151412000Y-110744000D03*
%TD*%
D13*
%TO.C,C19*%
X151384000Y-106398000D03*
X151384000Y-105438000D03*
%TD*%
D22*
%TO.C,FB3*%
X132615000Y-105918000D03*
X134085000Y-105918000D03*
%TD*%
D23*
%TO.C,C14*%
X131813000Y-86360000D03*
X133363000Y-86360000D03*
%TD*%
D10*
%TO.C,C12*%
X138458000Y-91440000D03*
X139418000Y-91440000D03*
%TD*%
D24*
%TO.C,C52*%
X131826000Y-84849000D03*
X131826000Y-83299000D03*
%TD*%
D14*
%TO.C,R29*%
X150116000Y-109728000D03*
X149096000Y-109728000D03*
%TD*%
D25*
%TO.C,U6*%
X135106000Y-84824000D03*
X135106000Y-84324000D03*
X135106000Y-83824000D03*
X135106000Y-83324000D03*
X133626000Y-83324000D03*
X133626000Y-83824000D03*
X133626000Y-84324000D03*
X133626000Y-84824000D03*
%TD*%
D12*
%TO.C,R17*%
X144780000Y-123696000D03*
X144780000Y-124716000D03*
%TD*%
D16*
%TO.C,C36*%
X139418000Y-99314000D03*
X138458000Y-99314000D03*
%TD*%
D15*
%TO.C,R19*%
X138428000Y-103378000D03*
X139448000Y-103378000D03*
%TD*%
D11*
%TO.C,C21*%
X147066000Y-109756000D03*
X147066000Y-110716000D03*
%TD*%
D12*
%TO.C,R10*%
X141732000Y-123696000D03*
X141732000Y-124716000D03*
%TD*%
D10*
%TO.C,C27*%
X142776000Y-94996000D03*
X143736000Y-94996000D03*
%TD*%
D15*
%TO.C,R6*%
X145540000Y-115570000D03*
X146560000Y-115570000D03*
%TD*%
%TO.C,R12*%
X131570000Y-109728000D03*
X132590000Y-109728000D03*
%TD*%
D26*
%TO.C,J2*%
X160655000Y-75943000D03*
X160655000Y-80013000D03*
X159385000Y-75943000D03*
X159385000Y-80013000D03*
X158115000Y-75943000D03*
X158115000Y-80013000D03*
X156845000Y-75943000D03*
X156845000Y-80013000D03*
X155575000Y-75943000D03*
X155575000Y-80013000D03*
X154305000Y-75943000D03*
X154305000Y-80013000D03*
X153035000Y-75943000D03*
X153035000Y-80013000D03*
%TD*%
D27*
%TO.C,D4*%
X150368000Y-127533500D03*
X150368000Y-125958500D03*
%TD*%
D11*
%TO.C,C20*%
X148082000Y-109756000D03*
X148082000Y-110716000D03*
%TD*%
D14*
%TO.C,R33*%
X139448000Y-83312000D03*
X138428000Y-83312000D03*
%TD*%
D12*
%TO.C,R20*%
X143256000Y-123696000D03*
X143256000Y-124716000D03*
%TD*%
D23*
%TO.C,C1*%
X152387000Y-96520000D03*
X153937000Y-96520000D03*
%TD*%
D14*
%TO.C,R11*%
X134622000Y-109728000D03*
X133602000Y-109728000D03*
%TD*%
D28*
%TO.C,FB4*%
X155675000Y-105918000D03*
X154205000Y-105918000D03*
%TD*%
D14*
%TO.C,R16*%
X139448000Y-102362000D03*
X138428000Y-102362000D03*
%TD*%
D16*
%TO.C,C6*%
X139418000Y-89916000D03*
X138458000Y-89916000D03*
%TD*%
D29*
%TO.C,U1*%
X142880500Y-76012000D03*
X142880500Y-76962000D03*
X142880500Y-77912000D03*
X145155500Y-77912000D03*
X145155500Y-76962000D03*
X145155500Y-76012000D03*
%TD*%
D10*
%TO.C,C34*%
X152682000Y-100330000D03*
X153642000Y-100330000D03*
%TD*%
D30*
%TO.C,J5*%
X134269000Y-123880000D03*
X135519000Y-123880000D03*
X136769000Y-123880000D03*
X138019000Y-123880000D03*
D31*
X132419000Y-127080000D03*
X139869000Y-127080000D03*
%TD*%
D14*
%TO.C,R7*%
X153672000Y-104394000D03*
X152652000Y-104394000D03*
%TD*%
D17*
%TO.C,R21*%
X136906000Y-101348000D03*
X136906000Y-100328000D03*
%TD*%
D32*
%TO.C,C15*%
X136972000Y-86106000D03*
X138872000Y-86106000D03*
%TD*%
D16*
%TO.C,C46*%
X158468000Y-110744000D03*
X157508000Y-110744000D03*
%TD*%
D33*
%TO.C,D1*%
X145262500Y-116840000D03*
X146837500Y-116840000D03*
%TD*%
D34*
%TO.C,SW1*%
X159766000Y-90489000D03*
X159766000Y-82739000D03*
%TD*%
D13*
%TO.C,C16*%
X135890000Y-106398000D03*
X135890000Y-105438000D03*
%TD*%
D35*
%TO.C,U5*%
X131699000Y-103567000D03*
X132969000Y-103567000D03*
X134239000Y-103567000D03*
X135509000Y-103567000D03*
X135509000Y-98617000D03*
X134239000Y-98617000D03*
X132969000Y-98617000D03*
X131699000Y-98617000D03*
%TD*%
D20*
%TO.C,FB2*%
X147320000Y-112803000D03*
X147320000Y-114273000D03*
%TD*%
D13*
%TO.C,C35*%
X146812000Y-94968000D03*
X146812000Y-94008000D03*
%TD*%
D15*
%TO.C,R15*%
X141984000Y-109728000D03*
X143004000Y-109728000D03*
%TD*%
D17*
%TO.C,R5*%
X150622000Y-77472000D03*
X150622000Y-76452000D03*
%TD*%
D11*
%TO.C,C23*%
X144018000Y-109756000D03*
X144018000Y-110716000D03*
%TD*%
D17*
%TO.C,R8*%
X146050000Y-109222000D03*
X146050000Y-108202000D03*
%TD*%
D15*
%TO.C,R27*%
X151382000Y-109728000D03*
X152402000Y-109728000D03*
%TD*%
%TO.C,R34*%
X134618000Y-86106000D03*
X135638000Y-86106000D03*
%TD*%
D10*
%TO.C,C51*%
X132108000Y-82042000D03*
X133068000Y-82042000D03*
%TD*%
%TO.C,C38*%
X142014000Y-110744000D03*
X142974000Y-110744000D03*
%TD*%
D36*
%TO.C,U4*%
X150487500Y-104334000D03*
X150487500Y-103834000D03*
X150487500Y-103334000D03*
X150487500Y-102834000D03*
X150487500Y-102334000D03*
X150487500Y-101834000D03*
X150487500Y-101334000D03*
X150487500Y-100834000D03*
X150487500Y-100334000D03*
X150487500Y-99834000D03*
X150487500Y-99334000D03*
X150487500Y-98834000D03*
X150487500Y-98334000D03*
X150487500Y-97834000D03*
X150487500Y-97334000D03*
X150487500Y-96834000D03*
D37*
X149800000Y-96146500D03*
X149300000Y-96146500D03*
X148800000Y-96146500D03*
X148300000Y-96146500D03*
X147800000Y-96146500D03*
X147300000Y-96146500D03*
X146800000Y-96146500D03*
X146300000Y-96146500D03*
X145800000Y-96146500D03*
X145300000Y-96146500D03*
X144800000Y-96146500D03*
X144300000Y-96146500D03*
X143800000Y-96146500D03*
X143300000Y-96146500D03*
X142800000Y-96146500D03*
X142300000Y-96146500D03*
D36*
X141612500Y-96834000D03*
X141612500Y-97334000D03*
X141612500Y-97834000D03*
X141612500Y-98334000D03*
X141612500Y-98834000D03*
X141612500Y-99334000D03*
X141612500Y-99834000D03*
X141612500Y-100334000D03*
X141612500Y-100834000D03*
X141612500Y-101334000D03*
X141612500Y-101834000D03*
X141612500Y-102334000D03*
X141612500Y-102834000D03*
X141612500Y-103334000D03*
X141612500Y-103834000D03*
X141612500Y-104334000D03*
D37*
X142300000Y-105021500D03*
X142800000Y-105021500D03*
X143300000Y-105021500D03*
X143800000Y-105021500D03*
X144300000Y-105021500D03*
X144800000Y-105021500D03*
X145300000Y-105021500D03*
X145800000Y-105021500D03*
X146300000Y-105021500D03*
X146800000Y-105021500D03*
X147300000Y-105021500D03*
X147800000Y-105021500D03*
X148300000Y-105021500D03*
X148800000Y-105021500D03*
X149300000Y-105021500D03*
X149800000Y-105021500D03*
D38*
X146074259Y-100559741D03*
%TD*%
D33*
%TO.C,D2*%
X145262500Y-120904000D03*
X146837500Y-120904000D03*
%TD*%
D11*
%TO.C,C9*%
X155194000Y-94008000D03*
X155194000Y-94968000D03*
%TD*%
D15*
%TO.C,R3*%
X136650000Y-82042000D03*
X137670000Y-82042000D03*
%TD*%
D11*
%TO.C,C31*%
X155956000Y-103406000D03*
X155956000Y-104366000D03*
%TD*%
D16*
%TO.C,C41*%
X150086000Y-110744000D03*
X149126000Y-110744000D03*
%TD*%
D15*
%TO.C,R25*%
X157478000Y-109728000D03*
X158498000Y-109728000D03*
%TD*%
D30*
%TO.C,J6*%
X154081000Y-123880000D03*
X155331000Y-123880000D03*
X156581000Y-123880000D03*
X157831000Y-123880000D03*
D31*
X152231000Y-127080000D03*
X159681000Y-127080000D03*
%TD*%
D16*
%TO.C,C11*%
X139418000Y-96012000D03*
X138458000Y-96012000D03*
%TD*%
D11*
%TO.C,C32*%
X155956000Y-96548000D03*
X155956000Y-97508000D03*
%TD*%
D10*
%TO.C,C33*%
X152682000Y-101346000D03*
X153642000Y-101346000D03*
%TD*%
D27*
%TO.C,D3*%
X141732000Y-127533500D03*
X141732000Y-125958500D03*
%TD*%
D39*
%TO.C,U2*%
X142935000Y-91527000D03*
X143435000Y-91527000D03*
X143935000Y-91527000D03*
X144435000Y-91527000D03*
X144935000Y-91527000D03*
X145435000Y-91527000D03*
X145935000Y-91527000D03*
X146435000Y-91527000D03*
X146935000Y-91527000D03*
X147435000Y-91527000D03*
X147935000Y-91527000D03*
X148435000Y-91527000D03*
X148935000Y-91527000D03*
X149435000Y-91527000D03*
X149935000Y-91527000D03*
X150435000Y-91527000D03*
D40*
X152360000Y-89602000D03*
X152360000Y-89102000D03*
X152360000Y-88602000D03*
X152360000Y-88102000D03*
X152360000Y-87602000D03*
X152360000Y-87102000D03*
X152360000Y-86602000D03*
X152360000Y-86102000D03*
X152360000Y-85602000D03*
X152360000Y-85102000D03*
X152360000Y-84602000D03*
X152360000Y-84102000D03*
X152360000Y-83602000D03*
X152360000Y-83102000D03*
X152360000Y-82602000D03*
X152360000Y-82102000D03*
D39*
X150435000Y-80177000D03*
X149935000Y-80177000D03*
X149435000Y-80177000D03*
X148935000Y-80177000D03*
X148435000Y-80177000D03*
X147935000Y-80177000D03*
X147435000Y-80177000D03*
X146935000Y-80177000D03*
X146435000Y-80177000D03*
X145935000Y-80177000D03*
X145435000Y-80177000D03*
X144935000Y-80177000D03*
X144435000Y-80177000D03*
X143935000Y-80177000D03*
X143435000Y-80177000D03*
X142935000Y-80177000D03*
D40*
X141010000Y-82102000D03*
X141010000Y-82602000D03*
X141010000Y-83102000D03*
X141010000Y-83602000D03*
X141010000Y-84102000D03*
X141010000Y-84602000D03*
X141010000Y-85102000D03*
X141010000Y-85602000D03*
X141010000Y-86102000D03*
X141010000Y-86602000D03*
X141010000Y-87102000D03*
X141010000Y-87602000D03*
X141010000Y-88102000D03*
X141010000Y-88602000D03*
X141010000Y-89102000D03*
X141010000Y-89602000D03*
%TD*%
D10*
%TO.C,C39*%
X132362000Y-96774000D03*
X133322000Y-96774000D03*
%TD*%
D14*
%TO.C,R9*%
X146560000Y-119634000D03*
X145540000Y-119634000D03*
%TD*%
D33*
%TO.C,FB1*%
X152374500Y-94488000D03*
X153949500Y-94488000D03*
%TD*%
D13*
%TO.C,C17*%
X136906000Y-106398000D03*
X136906000Y-105438000D03*
%TD*%
D14*
%TO.C,R26*%
X160530000Y-109728000D03*
X159510000Y-109728000D03*
%TD*%
D41*
%TO.C,J1*%
X138780000Y-79313000D03*
X133000000Y-79313000D03*
D42*
X139089994Y-80397994D03*
D43*
X138290000Y-80388000D03*
D44*
X137140000Y-80388000D03*
X136140000Y-80388000D03*
X135640000Y-80388000D03*
X134640000Y-80388000D03*
D43*
X133490000Y-80388000D03*
D45*
X132690001Y-80397999D03*
X132690001Y-80397999D03*
D43*
X133490000Y-80388000D03*
D44*
X134140000Y-80388000D03*
X135140000Y-80388000D03*
X136640000Y-80388000D03*
X137640000Y-80388000D03*
D43*
X138290000Y-80388000D03*
D46*
X139090000Y-80398000D03*
D47*
X140210000Y-79813000D03*
D48*
X140210000Y-75633000D03*
D47*
X131570000Y-79813000D03*
D48*
X131570000Y-75633000D03*
%TD*%
D16*
%TO.C,C43*%
X132560000Y-110744000D03*
X131600000Y-110744000D03*
%TD*%
D10*
%TO.C,C42*%
X133632000Y-110744000D03*
X134592000Y-110744000D03*
%TD*%
D49*
%TO.C,T1*%
X140589000Y-112829000D03*
X139319000Y-112829000D03*
X138049000Y-112829000D03*
X136779000Y-112829000D03*
X135509000Y-112829000D03*
X134239000Y-112829000D03*
X132969000Y-112829000D03*
X131699000Y-112829000D03*
X131699000Y-121359000D03*
X132969000Y-121359000D03*
X134239000Y-121359000D03*
X135509000Y-121359000D03*
X136779000Y-121359000D03*
X138049000Y-121359000D03*
X139319000Y-121359000D03*
X140589000Y-121359000D03*
%TD*%
D10*
%TO.C,C49*%
X153444000Y-110744000D03*
X154404000Y-110744000D03*
%TD*%
D49*
%TO.C,T2*%
X160401000Y-112829000D03*
X159131000Y-112829000D03*
X157861000Y-112829000D03*
X156591000Y-112829000D03*
X155321000Y-112829000D03*
X154051000Y-112829000D03*
X152781000Y-112829000D03*
X151511000Y-112829000D03*
X151511000Y-121359000D03*
X152781000Y-121359000D03*
X154051000Y-121359000D03*
X155321000Y-121359000D03*
X156591000Y-121359000D03*
X157861000Y-121359000D03*
X159131000Y-121359000D03*
X160401000Y-121359000D03*
%TD*%
D14*
%TO.C,R2*%
X139448000Y-88138000D03*
X138428000Y-88138000D03*
%TD*%
D12*
%TO.C,R30*%
X148844000Y-123696000D03*
X148844000Y-124716000D03*
%TD*%
D16*
%TO.C,C28*%
X139418000Y-98298000D03*
X138458000Y-98298000D03*
%TD*%
D12*
%TO.C,R22*%
X136906000Y-98296000D03*
X136906000Y-99316000D03*
%TD*%
D14*
%TO.C,R28*%
X154434000Y-109728000D03*
X153414000Y-109728000D03*
%TD*%
D50*
%TO.C,Y2*%
X159258000Y-94564000D03*
X159258000Y-104064000D03*
%TD*%
D21*
%TO.C,REF\u002A\u002A*%
X165100000Y-76200000D03*
%TD*%
D51*
%TO.C,Y1*%
X138746000Y-92851000D03*
X138746000Y-94601000D03*
X140146000Y-94601000D03*
X140146000Y-92851000D03*
%TD*%
D52*
%TO.C,J3*%
X165100000Y-127000000D03*
D53*
X165100000Y-124460000D03*
X165100000Y-121920000D03*
X165100000Y-119380000D03*
X165100000Y-116840000D03*
X165100000Y-114300000D03*
X165100000Y-111760000D03*
X165100000Y-109220000D03*
X165100000Y-106680000D03*
X165100000Y-104140000D03*
X165100000Y-101600000D03*
X165100000Y-99060000D03*
X165100000Y-96520000D03*
X165100000Y-93980000D03*
X165100000Y-91440000D03*
X165100000Y-88900000D03*
X165100000Y-86360000D03*
X165100000Y-83820000D03*
X165100000Y-81280000D03*
X165100000Y-78740000D03*
%TD*%
D52*
%TO.C,J4*%
X127000000Y-76200000D03*
D53*
X127000000Y-78740000D03*
X127000000Y-81280000D03*
X127000000Y-83820000D03*
X127000000Y-86360000D03*
X127000000Y-88900000D03*
X127000000Y-91440000D03*
X127000000Y-93980000D03*
X127000000Y-96520000D03*
X127000000Y-99060000D03*
X127000000Y-101600000D03*
X127000000Y-104140000D03*
X127000000Y-106680000D03*
X127000000Y-109220000D03*
X127000000Y-111760000D03*
X127000000Y-114300000D03*
X127000000Y-116840000D03*
X127000000Y-119380000D03*
X127000000Y-121920000D03*
X127000000Y-124460000D03*
%TD*%
M02*
