%TF.GenerationSoftware,KiCad,Pcbnew,9.0.5*%
%TF.CreationDate,2026-05-05T19:59:56-06:00*%
%TF.ProjectId,EtherCatDevBoard_V1-1,45746865-7243-4617-9444-6576426f6172,rev?*%
%TF.SameCoordinates,Original*%
%TF.FileFunction,Copper,L2,Inr*%
%TF.FilePolarity,Positive*%
%FSLAX46Y46*%
G04 Gerber Fmt 4.6, Leading zero omitted, Abs format (unit mm)*
G04 Created by KiCad (PCBNEW 9.0.5) date 2026-05-05 19:59:56*
%MOMM*%
%LPD*%
G01*
G04 APERTURE LIST*
%TA.AperFunction,HeatsinkPad*%
%ADD10C,0.650000*%
%TD*%
%TA.AperFunction,HeatsinkPad*%
%ADD11O,1.000000X2.100000*%
%TD*%
%TA.AperFunction,HeatsinkPad*%
%ADD12O,1.000000X1.800000*%
%TD*%
%TA.AperFunction,ComponentPad*%
%ADD13R,1.700000X1.700000*%
%TD*%
%TA.AperFunction,ComponentPad*%
%ADD14C,1.700000*%
%TD*%
%TA.AperFunction,ViaPad*%
%ADD15C,0.450000*%
%TD*%
G04 APERTURE END LIST*
D10*
%TO.N,GND*%
%TO.C,U4*%
X148400000Y-102934000D03*
X148400000Y-101759000D03*
X148400000Y-100584000D03*
X148400000Y-99409000D03*
X148400000Y-98234000D03*
X147225000Y-102934000D03*
X147225000Y-101759000D03*
X147225000Y-100584000D03*
X147225000Y-99409000D03*
X147225000Y-98234000D03*
X146050000Y-102934000D03*
X146050000Y-101759000D03*
X146050000Y-100584000D03*
X146050000Y-99409000D03*
X146050000Y-98234000D03*
X144875000Y-102934000D03*
X144875000Y-101759000D03*
X144875000Y-100584000D03*
X144875000Y-99409000D03*
X144875000Y-98234000D03*
X143700000Y-102934000D03*
X143700000Y-101759000D03*
X143700000Y-100584000D03*
X143700000Y-99409000D03*
X143700000Y-98234000D03*
%TD*%
D11*
%TO.N,GND*%
%TO.C,J1*%
X140210000Y-79813000D03*
D12*
X140210000Y-75633000D03*
D11*
X131570000Y-79813000D03*
D12*
X131570000Y-75633000D03*
%TD*%
D13*
%TO.N,/STM32F446RC/PC0*%
%TO.C,J3*%
X165100000Y-127000000D03*
D14*
%TO.N,/STM32F446RC/PC1*%
X165100000Y-124460000D03*
%TO.N,/STM32F446RC/PC2*%
X165100000Y-121920000D03*
%TO.N,/STM32F446RC/PC3*%
X165100000Y-119380000D03*
%TO.N,/STM32F446RC/PA0*%
X165100000Y-116840000D03*
%TO.N,/STM32F446RC/PA1*%
X165100000Y-114300000D03*
%TO.N,/STM32F446RC/PA4*%
X165100000Y-111760000D03*
%TO.N,/STM32F446RC/PC5*%
X165100000Y-109220000D03*
%TO.N,/STM32F446RC/PB0*%
X165100000Y-106680000D03*
%TO.N,/STM32F446RC/PB1*%
X165100000Y-104140000D03*
%TO.N,/STM32F446RC/PB2*%
X165100000Y-101600000D03*
%TO.N,/STM32F446RC/PB10*%
X165100000Y-99060000D03*
%TO.N,/STM32F446RC/PB12*%
X165100000Y-96520000D03*
%TO.N,/STM32F446RC/PB13*%
X165100000Y-93980000D03*
%TO.N,/STM32F446RC/PB14*%
X165100000Y-91440000D03*
%TO.N,/STM32F446RC/PB15*%
X165100000Y-88900000D03*
%TO.N,/STM32F446RC/PC9*%
X165100000Y-86360000D03*
%TO.N,/STM32F446RC/PC8*%
X165100000Y-83820000D03*
%TO.N,/STM32F446RC/PC7*%
X165100000Y-81280000D03*
%TO.N,/STM32F446RC/PC6*%
X165100000Y-78740000D03*
%TD*%
D13*
%TO.N,/STM32F446RC/3.3V_Battery*%
%TO.C,J4*%
X127000000Y-76200000D03*
D14*
%TO.N,GND*%
X127000000Y-78740000D03*
%TO.N,+3.3V*%
X127000000Y-81280000D03*
%TO.N,GND*%
X127000000Y-83820000D03*
%TO.N,/STM32F446RC/PA8*%
X127000000Y-86360000D03*
%TO.N,/STM32F446RC/PA9*%
X127000000Y-88900000D03*
%TO.N,/STM32F446RC/PA10*%
X127000000Y-91440000D03*
%TO.N,/STM32F446RC/PA15*%
X127000000Y-93980000D03*
%TO.N,/STM32F446RC/PC10*%
X127000000Y-96520000D03*
%TO.N,/STM32F446RC/PC11*%
X127000000Y-99060000D03*
%TO.N,/STM32F446RC/PC12*%
X127000000Y-101600000D03*
%TO.N,/STM32F446RC/PD2*%
X127000000Y-104140000D03*
%TO.N,/STM32F446RC/PB4*%
X127000000Y-106680000D03*
%TO.N,/STM32F446RC/PB5*%
X127000000Y-109220000D03*
%TO.N,/STM32F446RC/PB6*%
X127000000Y-111760000D03*
%TO.N,/STM32F446RC/PB7*%
X127000000Y-114300000D03*
%TO.N,/STM32F446RC/PB8*%
X127000000Y-116840000D03*
%TO.N,/STM32F446RC/PB9*%
X127000000Y-119380000D03*
%TO.N,/STM32F446RC/PC13*%
X127000000Y-121920000D03*
%TO.N,/STM32F446RC/PC14*%
X127000000Y-124460000D03*
%TD*%
D15*
%TO.N,GND*%
X151892000Y-95504000D03*
X153797000Y-89662000D03*
X138430000Y-88646000D03*
X150876000Y-110744000D03*
X139267000Y-89102000D03*
X136906000Y-103886000D03*
X146050000Y-109728000D03*
X147320000Y-127762000D03*
X137922000Y-96012000D03*
X139700000Y-86106000D03*
X154178000Y-83058000D03*
X137922000Y-103378000D03*
X141986000Y-77216000D03*
X154432000Y-84328000D03*
X141224000Y-110744000D03*
X144272000Y-94996000D03*
X137922000Y-104394000D03*
X149733000Y-76962000D03*
X137160000Y-110744000D03*
X149098000Y-111302800D03*
X137922000Y-99314000D03*
X160528000Y-90489000D03*
X131572000Y-111302800D03*
X156972000Y-110744000D03*
X147066000Y-111252000D03*
X140970000Y-92710000D03*
X142974000Y-111302800D03*
X133604000Y-82042000D03*
X137922000Y-89916000D03*
X155956000Y-96012000D03*
X137414000Y-87376000D03*
X148463000Y-94008000D03*
X147066000Y-115570000D03*
X137922000Y-98298000D03*
X133363000Y-85613090D03*
X135255000Y-105410000D03*
X146050000Y-114046000D03*
X139446000Y-82677000D03*
X155829000Y-94996000D03*
X133858000Y-96774000D03*
X153035000Y-105410000D03*
X143002000Y-78740000D03*
X142367000Y-78994000D03*
X131077000Y-83299000D03*
X154178000Y-100330000D03*
X144780000Y-127762000D03*
X156464000Y-82296000D03*
X148310600Y-92779000D03*
X159258000Y-77978000D03*
X145034000Y-111252000D03*
X154178000Y-102362000D03*
X154178000Y-97790000D03*
X135128000Y-110744000D03*
X139954000Y-91440000D03*
X154686000Y-96520000D03*
X137922000Y-94742000D03*
X136144000Y-103886000D03*
X160528000Y-111302800D03*
X140335000Y-90452000D03*
X135890000Y-84836000D03*
X146177000Y-94008000D03*
X155956000Y-102870000D03*
X137541000Y-83340000D03*
X154940000Y-110744000D03*
X137922000Y-105410000D03*
X136144000Y-82042000D03*
X141732000Y-128200000D03*
X156464000Y-83312000D03*
X150368000Y-128200000D03*
X154178000Y-101346000D03*
%TO.N,+3.3V*%
X131572000Y-105918000D03*
X151384000Y-101092000D03*
X136906000Y-97790000D03*
X152146000Y-97790000D03*
X147574000Y-116840000D03*
X154432000Y-82296000D03*
X139954000Y-104394000D03*
X153797000Y-88646000D03*
X152146000Y-102362000D03*
X141605000Y-91412000D03*
X148463000Y-94968000D03*
X155829000Y-94008000D03*
X131826000Y-96774000D03*
X142367000Y-79982000D03*
X160274000Y-77978000D03*
X142240000Y-94996000D03*
X156718000Y-105918000D03*
X147574000Y-120904000D03*
X139954000Y-89916000D03*
X137541000Y-101346000D03*
X137922000Y-102362000D03*
X131077000Y-84849000D03*
X139954000Y-98298000D03*
X151638000Y-96520000D03*
X143891000Y-114273000D03*
X132588000Y-84324000D03*
%TO.N,/STM32F446RC/NRST*%
X156464000Y-84328000D03*
X147828000Y-85344000D03*
%TO.N,/LAN9252/VDD33TXRX1*%
X137160000Y-109728000D03*
X131572000Y-109169200D03*
X135128000Y-109728000D03*
X135255000Y-106426000D03*
X141224000Y-109728000D03*
%TO.N,+5V*%
X131812000Y-87122000D03*
X133490000Y-81280000D03*
X146050000Y-77216000D03*
X138290000Y-81280000D03*
%TO.N,/LAN9252/VDD33TXRX2*%
X154940000Y-109728000D03*
X156972000Y-109728000D03*
X160528000Y-109169200D03*
X150876000Y-109728000D03*
X153035000Y-106398000D03*
%TO.N,/LAN9252/VDDCR*%
X139954000Y-99314000D03*
X152146000Y-100330000D03*
X146177000Y-94968000D03*
X152146000Y-101346000D03*
X148209000Y-114273000D03*
%TO.N,Net-(C38-Pad1)*%
X139319000Y-111633000D03*
X132969000Y-111633000D03*
X141986000Y-111302800D03*
%TO.N,Net-(C41-Pad1)*%
X150114000Y-111302800D03*
X152781000Y-111633000D03*
X159131000Y-111633000D03*
%TO.N,Net-(U4-VDD33BIAS)*%
X146050000Y-112014000D03*
X147066000Y-108204000D03*
%TO.N,/STM32F446RC/SWDIO*%
X147052285Y-83806285D03*
X158750000Y-83058000D03*
%TO.N,/STM32F446RC/UART2_RX*%
X149352000Y-86614000D03*
X151765000Y-77343000D03*
%TO.N,/STM32F446RC/SWCLK*%
X146812000Y-84582000D03*
X157734000Y-83058000D03*
%TO.N,/STM32F446RC/SWO*%
X146558000Y-85598000D03*
X157734000Y-82042000D03*
%TO.N,/STM32F446RC/PB15*%
X148835000Y-78740000D03*
%TO.N,/STM32F446RC/PB2*%
X149860000Y-84074000D03*
%TO.N,/STM32F446RC/PC3*%
X147935000Y-88392000D03*
%TO.N,/STM32F446RC/PC1*%
X146431000Y-89662000D03*
%TO.N,/STM32F446RC/PB14*%
X149352000Y-77978000D03*
%TO.N,/STM32F446RC/PB12*%
X151384000Y-78994000D03*
%TO.N,/STM32F446RC/PC2*%
X147066000Y-88392000D03*
%TO.N,/STM32F446RC/PB13*%
X150368000Y-78740000D03*
%TO.N,/STM32F446RC/PA0*%
X148844000Y-89662000D03*
%TO.N,/STM32F446RC/PB1*%
X149606000Y-85090000D03*
%TO.N,/STM32F446RC/PB0*%
X153924000Y-85344000D03*
%TO.N,/STM32F446RC/PA1*%
X149787185Y-89480815D03*
%TO.N,/STM32F446RC/PC5*%
X150114000Y-85852000D03*
%TO.N,/STM32F446RC/PB10*%
X150622000Y-83312000D03*
%TO.N,/STM32F446RC/PA4*%
X150558500Y-87312500D03*
%TO.N,/STM32F446RC/PC0*%
X146435000Y-92779000D03*
%TO.N,/STM32F446RC/PC13*%
X142748000Y-92964000D03*
%TO.N,/STM32F446RC/PA15*%
X142494000Y-82042000D03*
%TO.N,/STM32F446RC/PB8*%
X143256000Y-87884000D03*
%TO.N,/STM32F446RC/PA9*%
X145796000Y-82550000D03*
%TO.N,/STM32F446RC/PC14*%
X144018000Y-89662000D03*
%TO.N,/STM32F446RC/PA8*%
X146812000Y-82296000D03*
%TO.N,/STM32F446RC/PC7*%
X147574000Y-76708000D03*
%TO.N,/STM32F446RC/PB5*%
X144018000Y-87122000D03*
%TO.N,/STM32F446RC/PC8*%
X146812000Y-78740000D03*
%TO.N,/STM32F446RC/PC10*%
X142748000Y-82804000D03*
%TO.N,/STM32F446RC/PD2*%
X144272000Y-84582000D03*
%TO.N,/STM32F446RC/PC11*%
X143764000Y-83058000D03*
%TO.N,/STM32F446RC/PA10*%
X145034000Y-81788000D03*
%TO.N,/STM32F446RC/PB6*%
X142748000Y-86868000D03*
%TO.N,/STM32F446RC/PC9*%
X147828000Y-81788000D03*
%TO.N,/STM32F446RC/PB7*%
X138938000Y-87376000D03*
%TO.N,/STM32F446RC/PC6*%
X147320000Y-75438000D03*
%TO.N,/STM32F446RC/PB9*%
X143510000Y-88900000D03*
%TO.N,/STM32F446RC/PB4*%
X144526000Y-86360000D03*
%TO.N,/STM32F446RC/PC12*%
X144526000Y-83820000D03*
%TO.N,/LAN9252/GPIO2*%
X139954000Y-102362000D03*
X147066000Y-119634000D03*
%TO.N,/LAN9252/GPIO0*%
X139954000Y-105410000D03*
X143256000Y-121666000D03*
%TO.N,Net-(R17-Pad1)*%
X144780000Y-123190000D03*
X139319000Y-122555000D03*
%TO.N,/LAN9252/GPIO1*%
X148844000Y-121666000D03*
X139954000Y-103378000D03*
%TO.N,Net-(R20-Pad1)*%
X143256000Y-123190000D03*
X132969000Y-122555000D03*
%TO.N,Net-(R30-Pad1)*%
X159131000Y-122555000D03*
X148844000Y-123190000D03*
%TO.N,Net-(R31-Pad1)*%
X147320000Y-123190000D03*
X152781000Y-122555000D03*
%TO.N,/LAN9252/MOSI*%
X150995500Y-96146500D03*
X153416000Y-93218000D03*
%TO.N,/LAN9252/MISO*%
X152654000Y-93218000D03*
X151384000Y-98552000D03*
%TO.N,/LAN9252/SCK*%
X151892000Y-93218000D03*
X149352000Y-94996000D03*
%TO.N,/LAN9252/IRQ*%
X139700000Y-101346000D03*
X144018000Y-92964000D03*
%TO.N,/LAN9252/SCS*%
X154178000Y-93218000D03*
X141732000Y-105801000D03*
%TD*%
%TA.AperFunction,Conductor*%
%TO.N,GND*%
G36*
X149376259Y-103861741D02*
G01*
X142772259Y-103861741D01*
X142772259Y-97257741D01*
X149376259Y-97257741D01*
X149376259Y-103861741D01*
G37*
%TD.AperFunction*%
%TD*%
%TA.AperFunction,Conductor*%
%TO.N,GND*%
G36*
X130691801Y-74520185D02*
G01*
X130737556Y-74572989D01*
X130747500Y-74642147D01*
X130727864Y-74693391D01*
X130683814Y-74759315D01*
X130683807Y-74759328D01*
X130608430Y-74941306D01*
X130608427Y-74941318D01*
X130570000Y-75134504D01*
X130570000Y-75383000D01*
X131270000Y-75383000D01*
X131270000Y-75883000D01*
X130570000Y-75883000D01*
X130570000Y-76131495D01*
X130608427Y-76324681D01*
X130608430Y-76324693D01*
X130683807Y-76506671D01*
X130683814Y-76506684D01*
X130793248Y-76670462D01*
X130793251Y-76670466D01*
X130932533Y-76809748D01*
X130932537Y-76809751D01*
X131096315Y-76919185D01*
X131096328Y-76919192D01*
X131278308Y-76994569D01*
X131320000Y-77002862D01*
X131320000Y-76199988D01*
X131329940Y-76217205D01*
X131385795Y-76273060D01*
X131454204Y-76312556D01*
X131530504Y-76333000D01*
X131609496Y-76333000D01*
X131685796Y-76312556D01*
X131754205Y-76273060D01*
X131810060Y-76217205D01*
X131820000Y-76199988D01*
X131820000Y-77002862D01*
X131861690Y-76994569D01*
X131861692Y-76994569D01*
X132043671Y-76919192D01*
X132043684Y-76919185D01*
X132207462Y-76809751D01*
X132207466Y-76809748D01*
X132346748Y-76670466D01*
X132346751Y-76670462D01*
X132456185Y-76506684D01*
X132456192Y-76506671D01*
X132531569Y-76324693D01*
X132531572Y-76324681D01*
X132569999Y-76131495D01*
X132570000Y-76131492D01*
X132570000Y-75883000D01*
X131870000Y-75883000D01*
X131870000Y-75383000D01*
X132570000Y-75383000D01*
X132570000Y-75134508D01*
X132569999Y-75134504D01*
X132531572Y-74941318D01*
X132531569Y-74941306D01*
X132456192Y-74759328D01*
X132456185Y-74759315D01*
X132412136Y-74693391D01*
X132391258Y-74626713D01*
X132409743Y-74559333D01*
X132461721Y-74512643D01*
X132515238Y-74500500D01*
X139264762Y-74500500D01*
X139331801Y-74520185D01*
X139377556Y-74572989D01*
X139387500Y-74642147D01*
X139367864Y-74693391D01*
X139323814Y-74759315D01*
X139323807Y-74759328D01*
X139248430Y-74941306D01*
X139248427Y-74941318D01*
X139210000Y-75134504D01*
X139210000Y-75383000D01*
X139910000Y-75383000D01*
X139910000Y-75883000D01*
X139210000Y-75883000D01*
X139210000Y-76131495D01*
X139248427Y-76324681D01*
X139248430Y-76324693D01*
X139323807Y-76506671D01*
X139323814Y-76506684D01*
X139433248Y-76670462D01*
X139433251Y-76670466D01*
X139572533Y-76809748D01*
X139572537Y-76809751D01*
X139736315Y-76919185D01*
X139736328Y-76919192D01*
X139918308Y-76994569D01*
X139960000Y-77002862D01*
X139960000Y-76199988D01*
X139969940Y-76217205D01*
X140025795Y-76273060D01*
X140094204Y-76312556D01*
X140170504Y-76333000D01*
X140249496Y-76333000D01*
X140325796Y-76312556D01*
X140394205Y-76273060D01*
X140450060Y-76217205D01*
X140460000Y-76199988D01*
X140460000Y-77002862D01*
X140501690Y-76994569D01*
X140501692Y-76994569D01*
X140683671Y-76919192D01*
X140683684Y-76919185D01*
X140847462Y-76809751D01*
X140847466Y-76809748D01*
X140986748Y-76670466D01*
X140986751Y-76670462D01*
X141003498Y-76645399D01*
X147098500Y-76645399D01*
X147098500Y-76770601D01*
X147130905Y-76891536D01*
X147193505Y-76999964D01*
X147282036Y-77088495D01*
X147390464Y-77151095D01*
X147511399Y-77183500D01*
X147511401Y-77183500D01*
X147636599Y-77183500D01*
X147636601Y-77183500D01*
X147757536Y-77151095D01*
X147865964Y-77088495D01*
X147954495Y-76999964D01*
X148017095Y-76891536D01*
X148049500Y-76770601D01*
X148049500Y-76645399D01*
X148017095Y-76524464D01*
X147954495Y-76416036D01*
X147865964Y-76327505D01*
X147777587Y-76276481D01*
X164323499Y-76276481D01*
X164353339Y-76426491D01*
X164353342Y-76426501D01*
X164411873Y-76567809D01*
X164411875Y-76567812D01*
X164496849Y-76694985D01*
X164496855Y-76694993D01*
X164605006Y-76803144D01*
X164605014Y-76803150D01*
X164732187Y-76888124D01*
X164732190Y-76888126D01*
X164818888Y-76924037D01*
X164873503Y-76946659D01*
X164873507Y-76946659D01*
X164873508Y-76946660D01*
X165023518Y-76976500D01*
X165023521Y-76976500D01*
X165176481Y-76976500D01*
X165277404Y-76956424D01*
X165326497Y-76946659D01*
X165420706Y-76907636D01*
X165467809Y-76888126D01*
X165467812Y-76888124D01*
X165594990Y-76803147D01*
X165703147Y-76694990D01*
X165788125Y-76567811D01*
X165846659Y-76426497D01*
X165866350Y-76327505D01*
X165876500Y-76276481D01*
X165876500Y-76123518D01*
X165846660Y-75973508D01*
X165846659Y-75973507D01*
X165846659Y-75973503D01*
X165809172Y-75883000D01*
X165788126Y-75832190D01*
X165788124Y-75832187D01*
X165703150Y-75705014D01*
X165703144Y-75705006D01*
X165594993Y-75596855D01*
X165594985Y-75596849D01*
X165467812Y-75511875D01*
X165467809Y-75511873D01*
X165326501Y-75453342D01*
X165326491Y-75453339D01*
X165176481Y-75423500D01*
X165176479Y-75423500D01*
X165023521Y-75423500D01*
X165023519Y-75423500D01*
X164873508Y-75453339D01*
X164873498Y-75453342D01*
X164732190Y-75511873D01*
X164732187Y-75511875D01*
X164605014Y-75596849D01*
X164605006Y-75596855D01*
X164496855Y-75705006D01*
X164496849Y-75705014D01*
X164411875Y-75832187D01*
X164411873Y-75832190D01*
X164353342Y-75973498D01*
X164353339Y-75973508D01*
X164323500Y-76123518D01*
X164323500Y-76123521D01*
X164323500Y-76276479D01*
X164323500Y-76276481D01*
X164323499Y-76276481D01*
X147777587Y-76276481D01*
X147757536Y-76264905D01*
X147757537Y-76264905D01*
X147711817Y-76252654D01*
X147636601Y-76232500D01*
X147511399Y-76232500D01*
X147430775Y-76254103D01*
X147390463Y-76264905D01*
X147282037Y-76327504D01*
X147282034Y-76327506D01*
X147193506Y-76416034D01*
X147193504Y-76416037D01*
X147130905Y-76524463D01*
X147119290Y-76567811D01*
X147098500Y-76645399D01*
X141003498Y-76645399D01*
X141096185Y-76506684D01*
X141096192Y-76506671D01*
X141171569Y-76324693D01*
X141171572Y-76324681D01*
X141209999Y-76131495D01*
X141210000Y-76131492D01*
X141210000Y-75883000D01*
X140510000Y-75883000D01*
X140510000Y-75383000D01*
X141210000Y-75383000D01*
X141210000Y-75375399D01*
X146844500Y-75375399D01*
X146844500Y-75500601D01*
X146876905Y-75621536D01*
X146939505Y-75729964D01*
X147028036Y-75818495D01*
X147136464Y-75881095D01*
X147257399Y-75913500D01*
X147257401Y-75913500D01*
X147382599Y-75913500D01*
X147382601Y-75913500D01*
X147503536Y-75881095D01*
X147611964Y-75818495D01*
X147700495Y-75729964D01*
X147763095Y-75621536D01*
X147795500Y-75500601D01*
X147795500Y-75375399D01*
X147763095Y-75254464D01*
X147700495Y-75146036D01*
X147611964Y-75057505D01*
X147503536Y-74994905D01*
X147503537Y-74994905D01*
X147463224Y-74984103D01*
X147382601Y-74962500D01*
X147257399Y-74962500D01*
X147176775Y-74984103D01*
X147136463Y-74994905D01*
X147028037Y-75057504D01*
X147028034Y-75057506D01*
X146939506Y-75146034D01*
X146939504Y-75146037D01*
X146876905Y-75254463D01*
X146875473Y-75259807D01*
X146844500Y-75375399D01*
X141210000Y-75375399D01*
X141210000Y-75134508D01*
X141209999Y-75134504D01*
X141171572Y-74941318D01*
X141171569Y-74941306D01*
X141096192Y-74759328D01*
X141096185Y-74759315D01*
X141052136Y-74693391D01*
X141031258Y-74626713D01*
X141049743Y-74559333D01*
X141101721Y-74512643D01*
X141155238Y-74500500D01*
X165984108Y-74500500D01*
X166045572Y-74500500D01*
X166054418Y-74500816D01*
X166254561Y-74515130D01*
X166272063Y-74517647D01*
X166463797Y-74559355D01*
X166480755Y-74564334D01*
X166647997Y-74626713D01*
X166664609Y-74632909D01*
X166680701Y-74640259D01*
X166852904Y-74734288D01*
X166867784Y-74743849D01*
X167024867Y-74861441D01*
X167038237Y-74873027D01*
X167176972Y-75011762D01*
X167188558Y-75025132D01*
X167296555Y-75169399D01*
X167306146Y-75182210D01*
X167315711Y-75197095D01*
X167409740Y-75369298D01*
X167417090Y-75385390D01*
X167485662Y-75569236D01*
X167490646Y-75586212D01*
X167532351Y-75777931D01*
X167534869Y-75795442D01*
X167549184Y-75995580D01*
X167549500Y-76004427D01*
X167549500Y-126995572D01*
X167549184Y-127004419D01*
X167534869Y-127204557D01*
X167532351Y-127222068D01*
X167490646Y-127413787D01*
X167485662Y-127430763D01*
X167417090Y-127614609D01*
X167409740Y-127630701D01*
X167315711Y-127802904D01*
X167306146Y-127817789D01*
X167188558Y-127974867D01*
X167176972Y-127988237D01*
X167038237Y-128126972D01*
X167024867Y-128138558D01*
X166867789Y-128256146D01*
X166852904Y-128265711D01*
X166680701Y-128359740D01*
X166664609Y-128367090D01*
X166480763Y-128435662D01*
X166463787Y-128440646D01*
X166272068Y-128482351D01*
X166254557Y-128484869D01*
X166073779Y-128497799D01*
X166054417Y-128499184D01*
X166045572Y-128499500D01*
X126054428Y-128499500D01*
X126045582Y-128499184D01*
X126023622Y-128497613D01*
X125845442Y-128484869D01*
X125827931Y-128482351D01*
X125636212Y-128440646D01*
X125619236Y-128435662D01*
X125435390Y-128367090D01*
X125419298Y-128359740D01*
X125247095Y-128265711D01*
X125232210Y-128256146D01*
X125075132Y-128138558D01*
X125061762Y-128126972D01*
X124923027Y-127988237D01*
X124911441Y-127974867D01*
X124836440Y-127874678D01*
X124793849Y-127817784D01*
X124784288Y-127802904D01*
X124690259Y-127630701D01*
X124682909Y-127614609D01*
X124622091Y-127451551D01*
X124614334Y-127430755D01*
X124609355Y-127413797D01*
X124567647Y-127222063D01*
X124565130Y-127204556D01*
X124555970Y-127076481D01*
X126223499Y-127076481D01*
X126253339Y-127226491D01*
X126253342Y-127226501D01*
X126311873Y-127367809D01*
X126311875Y-127367812D01*
X126396849Y-127494985D01*
X126396855Y-127494993D01*
X126505006Y-127603144D01*
X126505014Y-127603150D01*
X126632187Y-127688124D01*
X126632190Y-127688126D01*
X126770140Y-127745266D01*
X126773503Y-127746659D01*
X126773507Y-127746659D01*
X126773508Y-127746660D01*
X126923518Y-127776500D01*
X126923521Y-127776500D01*
X127076481Y-127776500D01*
X127177404Y-127756424D01*
X127226497Y-127746659D01*
X127367811Y-127688125D01*
X127494990Y-127603147D01*
X127603147Y-127494990D01*
X127688125Y-127367811D01*
X127746659Y-127226497D01*
X127756424Y-127177404D01*
X127776500Y-127076481D01*
X127776500Y-126923518D01*
X127746660Y-126773508D01*
X127746659Y-126773507D01*
X127746659Y-126773503D01*
X127746657Y-126773498D01*
X127688126Y-126632190D01*
X127688124Y-126632187D01*
X127603150Y-126505014D01*
X127603144Y-126505006D01*
X127494993Y-126396855D01*
X127494985Y-126396849D01*
X127367812Y-126311875D01*
X127367809Y-126311873D01*
X127226501Y-126253342D01*
X127226491Y-126253339D01*
X127163709Y-126240851D01*
X127076481Y-126223500D01*
X127076479Y-126223500D01*
X126923521Y-126223500D01*
X126923519Y-126223500D01*
X126773508Y-126253339D01*
X126773498Y-126253342D01*
X126632190Y-126311873D01*
X126632187Y-126311875D01*
X126505014Y-126396849D01*
X126505006Y-126396855D01*
X126396855Y-126505006D01*
X126396849Y-126505014D01*
X126311875Y-126632187D01*
X126311873Y-126632190D01*
X126253342Y-126773498D01*
X126253339Y-126773508D01*
X126223500Y-126923518D01*
X126223500Y-126923521D01*
X126223500Y-127076479D01*
X126223500Y-127076481D01*
X126223499Y-127076481D01*
X124555970Y-127076481D01*
X124550816Y-127004418D01*
X124550500Y-126995572D01*
X124550500Y-126125321D01*
X163999500Y-126125321D01*
X163999500Y-127874678D01*
X164014032Y-127947735D01*
X164014033Y-127947739D01*
X164014034Y-127947740D01*
X164069399Y-128030601D01*
X164152260Y-128085966D01*
X164152264Y-128085967D01*
X164225321Y-128100499D01*
X164225324Y-128100500D01*
X164225326Y-128100500D01*
X165974676Y-128100500D01*
X165974677Y-128100499D01*
X166047740Y-128085966D01*
X166130601Y-128030601D01*
X166185966Y-127947740D01*
X166200500Y-127874674D01*
X166200500Y-126125326D01*
X166200500Y-126125323D01*
X166200499Y-126125321D01*
X166185967Y-126052264D01*
X166185966Y-126052260D01*
X166130601Y-125969399D01*
X166047740Y-125914034D01*
X166047739Y-125914033D01*
X166047735Y-125914032D01*
X165974677Y-125899500D01*
X165974674Y-125899500D01*
X164225326Y-125899500D01*
X164225323Y-125899500D01*
X164152264Y-125914032D01*
X164152260Y-125914033D01*
X164069399Y-125969399D01*
X164014033Y-126052260D01*
X164014032Y-126052264D01*
X163999500Y-126125321D01*
X124550500Y-126125321D01*
X124550500Y-124373389D01*
X125899500Y-124373389D01*
X125899500Y-124546611D01*
X125926598Y-124717701D01*
X125980127Y-124882445D01*
X126058768Y-125036788D01*
X126160586Y-125176928D01*
X126283072Y-125299414D01*
X126423212Y-125401232D01*
X126577555Y-125479873D01*
X126742299Y-125533402D01*
X126913389Y-125560500D01*
X126913390Y-125560500D01*
X127086610Y-125560500D01*
X127086611Y-125560500D01*
X127257701Y-125533402D01*
X127422445Y-125479873D01*
X127576788Y-125401232D01*
X127716928Y-125299414D01*
X127839414Y-125176928D01*
X127941232Y-125036788D01*
X128019873Y-124882445D01*
X128073402Y-124717701D01*
X128100500Y-124546611D01*
X128100500Y-124373389D01*
X163999500Y-124373389D01*
X163999500Y-124546611D01*
X164026598Y-124717701D01*
X164080127Y-124882445D01*
X164158768Y-125036788D01*
X164260586Y-125176928D01*
X164383072Y-125299414D01*
X164523212Y-125401232D01*
X164677555Y-125479873D01*
X164842299Y-125533402D01*
X165013389Y-125560500D01*
X165013390Y-125560500D01*
X165186610Y-125560500D01*
X165186611Y-125560500D01*
X165357701Y-125533402D01*
X165522445Y-125479873D01*
X165676788Y-125401232D01*
X165816928Y-125299414D01*
X165939414Y-125176928D01*
X166041232Y-125036788D01*
X166119873Y-124882445D01*
X166173402Y-124717701D01*
X166200500Y-124546611D01*
X166200500Y-124373389D01*
X166173402Y-124202299D01*
X166119873Y-124037555D01*
X166041232Y-123883212D01*
X165939414Y-123743072D01*
X165816928Y-123620586D01*
X165676788Y-123518768D01*
X165522445Y-123440127D01*
X165357701Y-123386598D01*
X165357699Y-123386597D01*
X165357698Y-123386597D01*
X165226271Y-123365781D01*
X165186611Y-123359500D01*
X165013389Y-123359500D01*
X164973728Y-123365781D01*
X164842302Y-123386597D01*
X164677552Y-123440128D01*
X164523211Y-123518768D01*
X164452019Y-123570493D01*
X164383072Y-123620586D01*
X164383070Y-123620588D01*
X164383069Y-123620588D01*
X164260588Y-123743069D01*
X164260588Y-123743070D01*
X164260586Y-123743072D01*
X164216859Y-123803256D01*
X164158768Y-123883211D01*
X164080128Y-124037552D01*
X164026597Y-124202302D01*
X163999500Y-124373389D01*
X128100500Y-124373389D01*
X128073402Y-124202299D01*
X128019873Y-124037555D01*
X127941232Y-123883212D01*
X127839414Y-123743072D01*
X127716928Y-123620586D01*
X127576788Y-123518768D01*
X127422445Y-123440127D01*
X127257701Y-123386598D01*
X127257699Y-123386597D01*
X127257698Y-123386597D01*
X127126271Y-123365781D01*
X127086611Y-123359500D01*
X126913389Y-123359500D01*
X126873728Y-123365781D01*
X126742302Y-123386597D01*
X126577552Y-123440128D01*
X126423211Y-123518768D01*
X126352019Y-123570493D01*
X126283072Y-123620586D01*
X126283070Y-123620588D01*
X126283069Y-123620588D01*
X126160588Y-123743069D01*
X126160588Y-123743070D01*
X126160586Y-123743072D01*
X126116859Y-123803256D01*
X126058768Y-123883211D01*
X125980128Y-124037552D01*
X125926597Y-124202302D01*
X125899500Y-124373389D01*
X124550500Y-124373389D01*
X124550500Y-123127399D01*
X142780500Y-123127399D01*
X142780500Y-123252601D01*
X142812905Y-123373536D01*
X142875505Y-123481964D01*
X142964036Y-123570495D01*
X143072464Y-123633095D01*
X143193399Y-123665500D01*
X143193401Y-123665500D01*
X143318599Y-123665500D01*
X143318601Y-123665500D01*
X143439536Y-123633095D01*
X143547964Y-123570495D01*
X143636495Y-123481964D01*
X143699095Y-123373536D01*
X143731500Y-123252601D01*
X143731500Y-123127399D01*
X144304500Y-123127399D01*
X144304500Y-123252601D01*
X144336905Y-123373536D01*
X144399505Y-123481964D01*
X144488036Y-123570495D01*
X144596464Y-123633095D01*
X144717399Y-123665500D01*
X144717401Y-123665500D01*
X144842599Y-123665500D01*
X144842601Y-123665500D01*
X144963536Y-123633095D01*
X145071964Y-123570495D01*
X145160495Y-123481964D01*
X145223095Y-123373536D01*
X145255500Y-123252601D01*
X145255500Y-123127399D01*
X146844500Y-123127399D01*
X146844500Y-123252601D01*
X146876905Y-123373536D01*
X146939505Y-123481964D01*
X147028036Y-123570495D01*
X147136464Y-123633095D01*
X147257399Y-123665500D01*
X147257401Y-123665500D01*
X147382599Y-123665500D01*
X147382601Y-123665500D01*
X147503536Y-123633095D01*
X147611964Y-123570495D01*
X147700495Y-123481964D01*
X147763095Y-123373536D01*
X147795500Y-123252601D01*
X147795500Y-123127399D01*
X148368500Y-123127399D01*
X148368500Y-123252601D01*
X148400905Y-123373536D01*
X148463505Y-123481964D01*
X148552036Y-123570495D01*
X148660464Y-123633095D01*
X148781399Y-123665500D01*
X148781401Y-123665500D01*
X148906599Y-123665500D01*
X148906601Y-123665500D01*
X149027536Y-123633095D01*
X149135964Y-123570495D01*
X149224495Y-123481964D01*
X149287095Y-123373536D01*
X149319500Y-123252601D01*
X149319500Y-123127399D01*
X149287095Y-123006464D01*
X149224495Y-122898036D01*
X149135964Y-122809505D01*
X149027536Y-122746905D01*
X149027537Y-122746905D01*
X148987224Y-122736103D01*
X148906601Y-122714500D01*
X148781399Y-122714500D01*
X148700775Y-122736103D01*
X148660463Y-122746905D01*
X148552037Y-122809504D01*
X148552034Y-122809506D01*
X148463506Y-122898034D01*
X148463504Y-122898037D01*
X148400905Y-123006463D01*
X148400905Y-123006464D01*
X148368500Y-123127399D01*
X147795500Y-123127399D01*
X147763095Y-123006464D01*
X147700495Y-122898036D01*
X147611964Y-122809505D01*
X147503536Y-122746905D01*
X147503537Y-122746905D01*
X147463224Y-122736103D01*
X147382601Y-122714500D01*
X147257399Y-122714500D01*
X147176775Y-122736103D01*
X147136463Y-122746905D01*
X147028037Y-122809504D01*
X147028034Y-122809506D01*
X146939506Y-122898034D01*
X146939504Y-122898037D01*
X146876905Y-123006463D01*
X146876905Y-123006464D01*
X146844500Y-123127399D01*
X145255500Y-123127399D01*
X145223095Y-123006464D01*
X145160495Y-122898036D01*
X145071964Y-122809505D01*
X144963536Y-122746905D01*
X144963537Y-122746905D01*
X144923224Y-122736103D01*
X144842601Y-122714500D01*
X144717399Y-122714500D01*
X144636775Y-122736103D01*
X144596463Y-122746905D01*
X144488037Y-122809504D01*
X144488034Y-122809506D01*
X144399506Y-122898034D01*
X144399504Y-122898037D01*
X144336905Y-123006463D01*
X144336905Y-123006464D01*
X144304500Y-123127399D01*
X143731500Y-123127399D01*
X143699095Y-123006464D01*
X143636495Y-122898036D01*
X143547964Y-122809505D01*
X143439536Y-122746905D01*
X143439537Y-122746905D01*
X143399224Y-122736103D01*
X143318601Y-122714500D01*
X143193399Y-122714500D01*
X143112775Y-122736103D01*
X143072463Y-122746905D01*
X142964037Y-122809504D01*
X142964034Y-122809506D01*
X142875506Y-122898034D01*
X142875504Y-122898037D01*
X142812905Y-123006463D01*
X142812905Y-123006464D01*
X142780500Y-123127399D01*
X124550500Y-123127399D01*
X124550500Y-121833389D01*
X125899500Y-121833389D01*
X125899500Y-122006610D01*
X125926091Y-122174505D01*
X125926598Y-122177701D01*
X125980127Y-122342445D01*
X126058768Y-122496788D01*
X126160586Y-122636928D01*
X126283072Y-122759414D01*
X126423212Y-122861232D01*
X126577555Y-122939873D01*
X126742299Y-122993402D01*
X126913389Y-123020500D01*
X126913390Y-123020500D01*
X127086610Y-123020500D01*
X127086611Y-123020500D01*
X127257701Y-122993402D01*
X127422445Y-122939873D01*
X127576788Y-122861232D01*
X127716928Y-122759414D01*
X127839414Y-122636928D01*
X127941232Y-122496788D01*
X128019873Y-122342445D01*
X128073402Y-122177701D01*
X128100500Y-122006611D01*
X128100500Y-121833389D01*
X128073402Y-121662299D01*
X128019873Y-121497555D01*
X127941232Y-121343212D01*
X127839414Y-121203072D01*
X127716928Y-121080586D01*
X127576788Y-120978768D01*
X127422445Y-120900127D01*
X127257701Y-120846598D01*
X127257699Y-120846597D01*
X127257698Y-120846597D01*
X127126271Y-120825781D01*
X127086611Y-120819500D01*
X126913389Y-120819500D01*
X126873728Y-120825781D01*
X126742302Y-120846597D01*
X126577552Y-120900128D01*
X126423211Y-120978768D01*
X126343256Y-121036859D01*
X126283072Y-121080586D01*
X126283070Y-121080588D01*
X126283069Y-121080588D01*
X126160588Y-121203069D01*
X126160588Y-121203070D01*
X126160586Y-121203072D01*
X126116859Y-121263256D01*
X126058768Y-121343211D01*
X125980128Y-121497552D01*
X125926597Y-121662302D01*
X125899500Y-121833389D01*
X124550500Y-121833389D01*
X124550500Y-119293389D01*
X125899500Y-119293389D01*
X125899500Y-119466611D01*
X125926598Y-119637701D01*
X125980127Y-119802445D01*
X126058768Y-119956788D01*
X126160586Y-120096928D01*
X126283072Y-120219414D01*
X126423212Y-120321232D01*
X126577555Y-120399873D01*
X126742299Y-120453402D01*
X126913389Y-120480500D01*
X126913390Y-120480500D01*
X127086610Y-120480500D01*
X127086611Y-120480500D01*
X127257701Y-120453402D01*
X127422445Y-120399873D01*
X127576788Y-120321232D01*
X127716928Y-120219414D01*
X127839414Y-120096928D01*
X127941232Y-119956788D01*
X128019873Y-119802445D01*
X128073402Y-119637701D01*
X128100500Y-119466611D01*
X128100500Y-119293389D01*
X128073402Y-119122299D01*
X128019873Y-118957555D01*
X127941232Y-118803212D01*
X127839414Y-118663072D01*
X127716928Y-118540586D01*
X127576788Y-118438768D01*
X127422445Y-118360127D01*
X127257701Y-118306598D01*
X127257699Y-118306597D01*
X127257698Y-118306597D01*
X127126271Y-118285781D01*
X127086611Y-118279500D01*
X126913389Y-118279500D01*
X126873728Y-118285781D01*
X126742302Y-118306597D01*
X126577552Y-118360128D01*
X126423211Y-118438768D01*
X126343256Y-118496859D01*
X126283072Y-118540586D01*
X126283070Y-118540588D01*
X126283069Y-118540588D01*
X126160588Y-118663069D01*
X126160588Y-118663070D01*
X126160586Y-118663072D01*
X126116859Y-118723256D01*
X126058768Y-118803211D01*
X125980128Y-118957552D01*
X125926597Y-119122302D01*
X125920864Y-119158500D01*
X125899500Y-119293389D01*
X124550500Y-119293389D01*
X124550500Y-116753389D01*
X125899500Y-116753389D01*
X125899500Y-116926611D01*
X125926598Y-117097701D01*
X125980127Y-117262445D01*
X126058768Y-117416788D01*
X126160586Y-117556928D01*
X126283072Y-117679414D01*
X126423212Y-117781232D01*
X126577555Y-117859873D01*
X126742299Y-117913402D01*
X126913389Y-117940500D01*
X126913390Y-117940500D01*
X127086610Y-117940500D01*
X127086611Y-117940500D01*
X127257701Y-117913402D01*
X127422445Y-117859873D01*
X127576788Y-117781232D01*
X127716928Y-117679414D01*
X127839414Y-117556928D01*
X127941232Y-117416788D01*
X128019873Y-117262445D01*
X128073402Y-117097701D01*
X128100500Y-116926611D01*
X128100500Y-116753389D01*
X128073402Y-116582299D01*
X128019873Y-116417555D01*
X127941232Y-116263212D01*
X127839414Y-116123072D01*
X127716928Y-116000586D01*
X127576788Y-115898768D01*
X127422445Y-115820127D01*
X127257701Y-115766598D01*
X127257699Y-115766597D01*
X127257698Y-115766597D01*
X127126271Y-115745781D01*
X127086611Y-115739500D01*
X126913389Y-115739500D01*
X126873728Y-115745781D01*
X126742302Y-115766597D01*
X126577552Y-115820128D01*
X126423211Y-115898768D01*
X126343256Y-115956859D01*
X126283072Y-116000586D01*
X126283070Y-116000588D01*
X126283069Y-116000588D01*
X126160588Y-116123069D01*
X126160588Y-116123070D01*
X126160586Y-116123072D01*
X126116859Y-116183256D01*
X126058768Y-116263211D01*
X125980128Y-116417552D01*
X125926597Y-116582302D01*
X125914851Y-116656464D01*
X125899500Y-116753389D01*
X124550500Y-116753389D01*
X124550500Y-114213389D01*
X125899500Y-114213389D01*
X125899500Y-114386611D01*
X125926598Y-114557701D01*
X125980127Y-114722445D01*
X126058768Y-114876788D01*
X126160586Y-115016928D01*
X126283072Y-115139414D01*
X126423212Y-115241232D01*
X126577555Y-115319873D01*
X126742299Y-115373402D01*
X126913389Y-115400500D01*
X126913390Y-115400500D01*
X127086610Y-115400500D01*
X127086611Y-115400500D01*
X127257701Y-115373402D01*
X127422445Y-115319873D01*
X127576788Y-115241232D01*
X127716928Y-115139414D01*
X127839414Y-115016928D01*
X127941232Y-114876788D01*
X128019873Y-114722445D01*
X128073402Y-114557701D01*
X128100500Y-114386611D01*
X128100500Y-114213389D01*
X128073402Y-114042299D01*
X128019873Y-113877555D01*
X127941232Y-113723212D01*
X127839414Y-113583072D01*
X127716928Y-113460586D01*
X127576788Y-113358768D01*
X127422445Y-113280127D01*
X127257701Y-113226598D01*
X127257699Y-113226597D01*
X127257698Y-113226597D01*
X127126271Y-113205781D01*
X127086611Y-113199500D01*
X126913389Y-113199500D01*
X126873728Y-113205781D01*
X126742302Y-113226597D01*
X126577552Y-113280128D01*
X126423211Y-113358768D01*
X126343256Y-113416859D01*
X126283072Y-113460586D01*
X126283070Y-113460588D01*
X126283069Y-113460588D01*
X126160588Y-113583069D01*
X126160588Y-113583070D01*
X126160586Y-113583072D01*
X126116859Y-113643256D01*
X126058768Y-113723211D01*
X125980128Y-113877552D01*
X125926597Y-114042302D01*
X125899974Y-114210399D01*
X125899500Y-114213389D01*
X124550500Y-114213389D01*
X124550500Y-111673389D01*
X125899500Y-111673389D01*
X125899500Y-111846610D01*
X125926011Y-112014000D01*
X125926598Y-112017701D01*
X125980127Y-112182445D01*
X126058768Y-112336788D01*
X126160586Y-112476928D01*
X126283072Y-112599414D01*
X126423212Y-112701232D01*
X126577555Y-112779873D01*
X126742299Y-112833402D01*
X126913389Y-112860500D01*
X126913390Y-112860500D01*
X127086610Y-112860500D01*
X127086611Y-112860500D01*
X127257701Y-112833402D01*
X127422445Y-112779873D01*
X127576788Y-112701232D01*
X127716928Y-112599414D01*
X127839414Y-112476928D01*
X127941232Y-112336788D01*
X127976281Y-112267999D01*
X130556000Y-112267999D01*
X130556000Y-112268000D01*
X130556000Y-121920000D01*
X130810000Y-122174000D01*
X132425137Y-122174000D01*
X132492176Y-122193685D01*
X132537931Y-122246489D01*
X132547875Y-122315647D01*
X132532523Y-122360001D01*
X132525907Y-122371459D01*
X132525905Y-122371462D01*
X132504301Y-122452087D01*
X132493500Y-122492399D01*
X132493500Y-122617601D01*
X132525905Y-122738536D01*
X132588505Y-122846964D01*
X132677036Y-122935495D01*
X132785464Y-122998095D01*
X132906399Y-123030500D01*
X132906401Y-123030500D01*
X133031599Y-123030500D01*
X133031601Y-123030500D01*
X133152536Y-122998095D01*
X133260964Y-122935495D01*
X133349495Y-122846964D01*
X133412095Y-122738536D01*
X133444500Y-122617601D01*
X133444500Y-122492399D01*
X133412095Y-122371464D01*
X133405477Y-122360001D01*
X133389003Y-122292101D01*
X133411855Y-122226074D01*
X133466776Y-122182883D01*
X133512863Y-122174000D01*
X138775137Y-122174000D01*
X138842176Y-122193685D01*
X138887931Y-122246489D01*
X138897875Y-122315647D01*
X138882523Y-122360001D01*
X138875907Y-122371459D01*
X138875905Y-122371462D01*
X138854301Y-122452087D01*
X138843500Y-122492399D01*
X138843500Y-122617601D01*
X138875905Y-122738536D01*
X138938505Y-122846964D01*
X139027036Y-122935495D01*
X139135464Y-122998095D01*
X139256399Y-123030500D01*
X139256401Y-123030500D01*
X139381599Y-123030500D01*
X139381601Y-123030500D01*
X139502536Y-122998095D01*
X139610964Y-122935495D01*
X139699495Y-122846964D01*
X139762095Y-122738536D01*
X139794500Y-122617601D01*
X139794500Y-122492399D01*
X139762095Y-122371464D01*
X139755477Y-122360001D01*
X139739003Y-122292101D01*
X139761855Y-122226074D01*
X139816776Y-122182883D01*
X139862863Y-122174000D01*
X141478000Y-122174000D01*
X141732000Y-121920000D01*
X141732000Y-121603399D01*
X142780500Y-121603399D01*
X142780500Y-121728601D01*
X142812905Y-121849536D01*
X142875505Y-121957964D01*
X142964036Y-122046495D01*
X143072464Y-122109095D01*
X143193399Y-122141500D01*
X143193401Y-122141500D01*
X143318599Y-122141500D01*
X143318601Y-122141500D01*
X143439536Y-122109095D01*
X143547964Y-122046495D01*
X143636495Y-121957964D01*
X143699095Y-121849536D01*
X143731500Y-121728601D01*
X143731500Y-121603399D01*
X148368500Y-121603399D01*
X148368500Y-121728601D01*
X148400905Y-121849536D01*
X148463505Y-121957964D01*
X148552036Y-122046495D01*
X148660464Y-122109095D01*
X148781399Y-122141500D01*
X148781401Y-122141500D01*
X148906599Y-122141500D01*
X148906601Y-122141500D01*
X149027536Y-122109095D01*
X149135964Y-122046495D01*
X149224495Y-121957964D01*
X149287095Y-121849536D01*
X149319500Y-121728601D01*
X149319500Y-121603399D01*
X149287095Y-121482464D01*
X149224495Y-121374036D01*
X149135964Y-121285505D01*
X149027536Y-121222905D01*
X149027537Y-121222905D01*
X148987224Y-121212103D01*
X148906601Y-121190500D01*
X148781399Y-121190500D01*
X148700775Y-121212103D01*
X148660463Y-121222905D01*
X148552037Y-121285504D01*
X148552034Y-121285506D01*
X148463506Y-121374034D01*
X148463504Y-121374037D01*
X148400905Y-121482463D01*
X148400905Y-121482464D01*
X148368500Y-121603399D01*
X143731500Y-121603399D01*
X143699095Y-121482464D01*
X143636495Y-121374036D01*
X143547964Y-121285505D01*
X143439536Y-121222905D01*
X143439537Y-121222905D01*
X143399224Y-121212103D01*
X143318601Y-121190500D01*
X143193399Y-121190500D01*
X143112775Y-121212103D01*
X143072463Y-121222905D01*
X142964037Y-121285504D01*
X142964034Y-121285506D01*
X142875506Y-121374034D01*
X142875504Y-121374037D01*
X142812905Y-121482463D01*
X142812905Y-121482464D01*
X142780500Y-121603399D01*
X141732000Y-121603399D01*
X141732000Y-120841399D01*
X147098500Y-120841399D01*
X147098500Y-120966601D01*
X147130905Y-121087536D01*
X147193505Y-121195964D01*
X147282036Y-121284495D01*
X147390464Y-121347095D01*
X147511399Y-121379500D01*
X147511401Y-121379500D01*
X147636599Y-121379500D01*
X147636601Y-121379500D01*
X147757536Y-121347095D01*
X147865964Y-121284495D01*
X147954495Y-121195964D01*
X148017095Y-121087536D01*
X148049500Y-120966601D01*
X148049500Y-120841399D01*
X148017095Y-120720464D01*
X147954495Y-120612036D01*
X147865964Y-120523505D01*
X147757536Y-120460905D01*
X147757537Y-120460905D01*
X147717224Y-120450103D01*
X147636601Y-120428500D01*
X147511399Y-120428500D01*
X147430775Y-120450103D01*
X147390463Y-120460905D01*
X147282037Y-120523504D01*
X147282034Y-120523506D01*
X147193506Y-120612034D01*
X147193504Y-120612037D01*
X147130905Y-120720463D01*
X147130905Y-120720464D01*
X147098500Y-120841399D01*
X141732000Y-120841399D01*
X141732000Y-119571399D01*
X146590500Y-119571399D01*
X146590500Y-119696601D01*
X146622905Y-119817536D01*
X146685505Y-119925964D01*
X146774036Y-120014495D01*
X146882464Y-120077095D01*
X147003399Y-120109500D01*
X147003401Y-120109500D01*
X147128599Y-120109500D01*
X147128601Y-120109500D01*
X147249536Y-120077095D01*
X147357964Y-120014495D01*
X147446495Y-119925964D01*
X147509095Y-119817536D01*
X147541500Y-119696601D01*
X147541500Y-119571399D01*
X147509095Y-119450464D01*
X147446495Y-119342036D01*
X147357964Y-119253505D01*
X147249536Y-119190905D01*
X147249537Y-119190905D01*
X147209224Y-119180103D01*
X147128601Y-119158500D01*
X147003399Y-119158500D01*
X146922775Y-119180103D01*
X146882463Y-119190905D01*
X146774037Y-119253504D01*
X146774034Y-119253506D01*
X146685506Y-119342034D01*
X146685504Y-119342037D01*
X146622905Y-119450463D01*
X146618578Y-119466611D01*
X146590500Y-119571399D01*
X141732000Y-119571399D01*
X141732000Y-116777399D01*
X147098500Y-116777399D01*
X147098500Y-116902601D01*
X147130905Y-117023536D01*
X147193505Y-117131964D01*
X147282036Y-117220495D01*
X147390464Y-117283095D01*
X147511399Y-117315500D01*
X147511401Y-117315500D01*
X147636599Y-117315500D01*
X147636601Y-117315500D01*
X147757536Y-117283095D01*
X147865964Y-117220495D01*
X147954495Y-117131964D01*
X148017095Y-117023536D01*
X148049500Y-116902601D01*
X148049500Y-116777399D01*
X148017095Y-116656464D01*
X147954495Y-116548036D01*
X147865964Y-116459505D01*
X147757536Y-116396905D01*
X147757537Y-116396905D01*
X147717224Y-116386103D01*
X147636601Y-116364500D01*
X147511399Y-116364500D01*
X147430775Y-116386103D01*
X147390463Y-116396905D01*
X147282037Y-116459504D01*
X147282034Y-116459506D01*
X147193506Y-116548034D01*
X147193504Y-116548037D01*
X147130905Y-116656463D01*
X147130905Y-116656464D01*
X147098500Y-116777399D01*
X141732000Y-116777399D01*
X141732000Y-114210399D01*
X143415500Y-114210399D01*
X143415500Y-114335601D01*
X143447905Y-114456536D01*
X143510505Y-114564964D01*
X143599036Y-114653495D01*
X143707464Y-114716095D01*
X143828399Y-114748500D01*
X143828401Y-114748500D01*
X143953599Y-114748500D01*
X143953601Y-114748500D01*
X144074536Y-114716095D01*
X144182964Y-114653495D01*
X144271495Y-114564964D01*
X144334095Y-114456536D01*
X144366500Y-114335601D01*
X144366500Y-114210399D01*
X147733500Y-114210399D01*
X147733500Y-114335601D01*
X147765905Y-114456536D01*
X147828505Y-114564964D01*
X147917036Y-114653495D01*
X148025464Y-114716095D01*
X148146399Y-114748500D01*
X148146401Y-114748500D01*
X148271599Y-114748500D01*
X148271601Y-114748500D01*
X148392536Y-114716095D01*
X148500964Y-114653495D01*
X148589495Y-114564964D01*
X148652095Y-114456536D01*
X148684500Y-114335601D01*
X148684500Y-114210399D01*
X148652095Y-114089464D01*
X148589495Y-113981036D01*
X148500964Y-113892505D01*
X148392536Y-113829905D01*
X148392537Y-113829905D01*
X148352224Y-113819103D01*
X148271601Y-113797500D01*
X148146399Y-113797500D01*
X148065775Y-113819103D01*
X148025463Y-113829905D01*
X147917037Y-113892504D01*
X147917034Y-113892506D01*
X147828506Y-113981034D01*
X147828504Y-113981037D01*
X147765905Y-114089463D01*
X147765905Y-114089464D01*
X147733500Y-114210399D01*
X144366500Y-114210399D01*
X144334095Y-114089464D01*
X144271495Y-113981036D01*
X144182964Y-113892505D01*
X144074536Y-113829905D01*
X144074537Y-113829905D01*
X144034224Y-113819103D01*
X143953601Y-113797500D01*
X143828399Y-113797500D01*
X143747775Y-113819103D01*
X143707463Y-113829905D01*
X143599037Y-113892504D01*
X143599034Y-113892506D01*
X143510506Y-113981034D01*
X143510504Y-113981037D01*
X143447905Y-114089463D01*
X143447905Y-114089464D01*
X143415500Y-114210399D01*
X141732000Y-114210399D01*
X141732000Y-112268000D01*
X141478000Y-112014000D01*
X139862863Y-112014000D01*
X139795824Y-111994315D01*
X139758637Y-111951399D01*
X145574500Y-111951399D01*
X145574500Y-112076601D01*
X145606905Y-112197536D01*
X145669505Y-112305964D01*
X145758036Y-112394495D01*
X145866464Y-112457095D01*
X145987399Y-112489500D01*
X145987401Y-112489500D01*
X146112599Y-112489500D01*
X146112601Y-112489500D01*
X146233536Y-112457095D01*
X146341964Y-112394495D01*
X146430495Y-112305964D01*
X146452414Y-112267999D01*
X150368000Y-112267999D01*
X150368000Y-112268000D01*
X150368000Y-121920000D01*
X150622000Y-122174000D01*
X152237137Y-122174000D01*
X152304176Y-122193685D01*
X152349931Y-122246489D01*
X152359875Y-122315647D01*
X152344523Y-122360001D01*
X152337907Y-122371459D01*
X152337905Y-122371462D01*
X152316301Y-122452087D01*
X152305500Y-122492399D01*
X152305500Y-122617601D01*
X152337905Y-122738536D01*
X152400505Y-122846964D01*
X152489036Y-122935495D01*
X152597464Y-122998095D01*
X152718399Y-123030500D01*
X152718401Y-123030500D01*
X152843599Y-123030500D01*
X152843601Y-123030500D01*
X152964536Y-122998095D01*
X153072964Y-122935495D01*
X153161495Y-122846964D01*
X153224095Y-122738536D01*
X153256500Y-122617601D01*
X153256500Y-122492399D01*
X153224095Y-122371464D01*
X153217477Y-122360001D01*
X153201003Y-122292101D01*
X153223855Y-122226074D01*
X153278776Y-122182883D01*
X153324863Y-122174000D01*
X158587137Y-122174000D01*
X158654176Y-122193685D01*
X158699931Y-122246489D01*
X158709875Y-122315647D01*
X158694523Y-122360001D01*
X158687907Y-122371459D01*
X158687905Y-122371462D01*
X158666301Y-122452087D01*
X158655500Y-122492399D01*
X158655500Y-122617601D01*
X158687905Y-122738536D01*
X158750505Y-122846964D01*
X158839036Y-122935495D01*
X158947464Y-122998095D01*
X159068399Y-123030500D01*
X159068401Y-123030500D01*
X159193599Y-123030500D01*
X159193601Y-123030500D01*
X159314536Y-122998095D01*
X159422964Y-122935495D01*
X159511495Y-122846964D01*
X159574095Y-122738536D01*
X159606500Y-122617601D01*
X159606500Y-122492399D01*
X159574095Y-122371464D01*
X159567477Y-122360001D01*
X159551003Y-122292101D01*
X159573855Y-122226074D01*
X159628776Y-122182883D01*
X159674863Y-122174000D01*
X161290000Y-122174000D01*
X161544000Y-121920000D01*
X161544000Y-121833389D01*
X163999500Y-121833389D01*
X163999500Y-122006610D01*
X164026091Y-122174505D01*
X164026598Y-122177701D01*
X164080127Y-122342445D01*
X164158768Y-122496788D01*
X164260586Y-122636928D01*
X164383072Y-122759414D01*
X164523212Y-122861232D01*
X164677555Y-122939873D01*
X164842299Y-122993402D01*
X165013389Y-123020500D01*
X165013390Y-123020500D01*
X165186610Y-123020500D01*
X165186611Y-123020500D01*
X165357701Y-122993402D01*
X165522445Y-122939873D01*
X165676788Y-122861232D01*
X165816928Y-122759414D01*
X165939414Y-122636928D01*
X166041232Y-122496788D01*
X166119873Y-122342445D01*
X166173402Y-122177701D01*
X166200500Y-122006611D01*
X166200500Y-121833389D01*
X166173402Y-121662299D01*
X166119873Y-121497555D01*
X166041232Y-121343212D01*
X165939414Y-121203072D01*
X165816928Y-121080586D01*
X165676788Y-120978768D01*
X165522445Y-120900127D01*
X165357701Y-120846598D01*
X165357699Y-120846597D01*
X165357698Y-120846597D01*
X165226271Y-120825781D01*
X165186611Y-120819500D01*
X165013389Y-120819500D01*
X164973728Y-120825781D01*
X164842302Y-120846597D01*
X164677552Y-120900128D01*
X164523211Y-120978768D01*
X164443256Y-121036859D01*
X164383072Y-121080586D01*
X164383070Y-121080588D01*
X164383069Y-121080588D01*
X164260588Y-121203069D01*
X164260588Y-121203070D01*
X164260586Y-121203072D01*
X164216859Y-121263256D01*
X164158768Y-121343211D01*
X164080128Y-121497552D01*
X164026597Y-121662302D01*
X163999500Y-121833389D01*
X161544000Y-121833389D01*
X161544000Y-119293389D01*
X163999500Y-119293389D01*
X163999500Y-119466611D01*
X164026598Y-119637701D01*
X164080127Y-119802445D01*
X164158768Y-119956788D01*
X164260586Y-120096928D01*
X164383072Y-120219414D01*
X164523212Y-120321232D01*
X164677555Y-120399873D01*
X164842299Y-120453402D01*
X165013389Y-120480500D01*
X165013390Y-120480500D01*
X165186610Y-120480500D01*
X165186611Y-120480500D01*
X165357701Y-120453402D01*
X165522445Y-120399873D01*
X165676788Y-120321232D01*
X165816928Y-120219414D01*
X165939414Y-120096928D01*
X166041232Y-119956788D01*
X166119873Y-119802445D01*
X166173402Y-119637701D01*
X166200500Y-119466611D01*
X166200500Y-119293389D01*
X166173402Y-119122299D01*
X166119873Y-118957555D01*
X166041232Y-118803212D01*
X165939414Y-118663072D01*
X165816928Y-118540586D01*
X165676788Y-118438768D01*
X165522445Y-118360127D01*
X165357701Y-118306598D01*
X165357699Y-118306597D01*
X165357698Y-118306597D01*
X165226271Y-118285781D01*
X165186611Y-118279500D01*
X165013389Y-118279500D01*
X164973728Y-118285781D01*
X164842302Y-118306597D01*
X164677552Y-118360128D01*
X164523211Y-118438768D01*
X164443256Y-118496859D01*
X164383072Y-118540586D01*
X164383070Y-118540588D01*
X164383069Y-118540588D01*
X164260588Y-118663069D01*
X164260588Y-118663070D01*
X164260586Y-118663072D01*
X164216859Y-118723256D01*
X164158768Y-118803211D01*
X164080128Y-118957552D01*
X164026597Y-119122302D01*
X164020864Y-119158500D01*
X163999500Y-119293389D01*
X161544000Y-119293389D01*
X161544000Y-116753389D01*
X163999500Y-116753389D01*
X163999500Y-116926611D01*
X164026598Y-117097701D01*
X164080127Y-117262445D01*
X164158768Y-117416788D01*
X164260586Y-117556928D01*
X164383072Y-117679414D01*
X164523212Y-117781232D01*
X164677555Y-117859873D01*
X164842299Y-117913402D01*
X165013389Y-117940500D01*
X165013390Y-117940500D01*
X165186610Y-117940500D01*
X165186611Y-117940500D01*
X165357701Y-117913402D01*
X165522445Y-117859873D01*
X165676788Y-117781232D01*
X165816928Y-117679414D01*
X165939414Y-117556928D01*
X166041232Y-117416788D01*
X166119873Y-117262445D01*
X166173402Y-117097701D01*
X166200500Y-116926611D01*
X166200500Y-116753389D01*
X166173402Y-116582299D01*
X166119873Y-116417555D01*
X166041232Y-116263212D01*
X165939414Y-116123072D01*
X165816928Y-116000586D01*
X165676788Y-115898768D01*
X165522445Y-115820127D01*
X165357701Y-115766598D01*
X165357699Y-115766597D01*
X165357698Y-115766597D01*
X165226271Y-115745781D01*
X165186611Y-115739500D01*
X165013389Y-115739500D01*
X164973728Y-115745781D01*
X164842302Y-115766597D01*
X164677552Y-115820128D01*
X164523211Y-115898768D01*
X164443256Y-115956859D01*
X164383072Y-116000586D01*
X164383070Y-116000588D01*
X164383069Y-116000588D01*
X164260588Y-116123069D01*
X164260588Y-116123070D01*
X164260586Y-116123072D01*
X164216859Y-116183256D01*
X164158768Y-116263211D01*
X164080128Y-116417552D01*
X164026597Y-116582302D01*
X164014851Y-116656464D01*
X163999500Y-116753389D01*
X161544000Y-116753389D01*
X161544000Y-114213389D01*
X163999500Y-114213389D01*
X163999500Y-114386611D01*
X164026598Y-114557701D01*
X164080127Y-114722445D01*
X164158768Y-114876788D01*
X164260586Y-115016928D01*
X164383072Y-115139414D01*
X164523212Y-115241232D01*
X164677555Y-115319873D01*
X164842299Y-115373402D01*
X165013389Y-115400500D01*
X165013390Y-115400500D01*
X165186610Y-115400500D01*
X165186611Y-115400500D01*
X165357701Y-115373402D01*
X165522445Y-115319873D01*
X165676788Y-115241232D01*
X165816928Y-115139414D01*
X165939414Y-115016928D01*
X166041232Y-114876788D01*
X166119873Y-114722445D01*
X166173402Y-114557701D01*
X166200500Y-114386611D01*
X166200500Y-114213389D01*
X166173402Y-114042299D01*
X166119873Y-113877555D01*
X166041232Y-113723212D01*
X165939414Y-113583072D01*
X165816928Y-113460586D01*
X165676788Y-113358768D01*
X165522445Y-113280127D01*
X165357701Y-113226598D01*
X165357699Y-113226597D01*
X165357698Y-113226597D01*
X165226271Y-113205781D01*
X165186611Y-113199500D01*
X165013389Y-113199500D01*
X164973728Y-113205781D01*
X164842302Y-113226597D01*
X164677552Y-113280128D01*
X164523211Y-113358768D01*
X164443256Y-113416859D01*
X164383072Y-113460586D01*
X164383070Y-113460588D01*
X164383069Y-113460588D01*
X164260588Y-113583069D01*
X164260588Y-113583070D01*
X164260586Y-113583072D01*
X164216859Y-113643256D01*
X164158768Y-113723211D01*
X164080128Y-113877552D01*
X164026597Y-114042302D01*
X163999974Y-114210399D01*
X163999500Y-114213389D01*
X161544000Y-114213389D01*
X161544000Y-112268000D01*
X161290000Y-112014000D01*
X159674863Y-112014000D01*
X159607824Y-111994315D01*
X159562069Y-111941511D01*
X159552125Y-111872353D01*
X159554599Y-111859790D01*
X159558817Y-111842998D01*
X159574095Y-111816536D01*
X159606500Y-111695601D01*
X159606500Y-111673389D01*
X163999500Y-111673389D01*
X163999500Y-111846610D01*
X164026011Y-112014000D01*
X164026598Y-112017701D01*
X164080127Y-112182445D01*
X164158768Y-112336788D01*
X164260586Y-112476928D01*
X164383072Y-112599414D01*
X164523212Y-112701232D01*
X164677555Y-112779873D01*
X164842299Y-112833402D01*
X165013389Y-112860500D01*
X165013390Y-112860500D01*
X165186610Y-112860500D01*
X165186611Y-112860500D01*
X165357701Y-112833402D01*
X165522445Y-112779873D01*
X165676788Y-112701232D01*
X165816928Y-112599414D01*
X165939414Y-112476928D01*
X166041232Y-112336788D01*
X166119873Y-112182445D01*
X166173402Y-112017701D01*
X166200500Y-111846611D01*
X166200500Y-111673389D01*
X166173402Y-111502299D01*
X166119873Y-111337555D01*
X166041232Y-111183212D01*
X165939414Y-111043072D01*
X165816928Y-110920586D01*
X165676788Y-110818768D01*
X165522445Y-110740127D01*
X165357701Y-110686598D01*
X165357699Y-110686597D01*
X165357698Y-110686597D01*
X165226271Y-110665781D01*
X165186611Y-110659500D01*
X165013389Y-110659500D01*
X164973728Y-110665781D01*
X164842302Y-110686597D01*
X164677552Y-110740128D01*
X164523211Y-110818768D01*
X164466867Y-110859705D01*
X164383072Y-110920586D01*
X164383070Y-110920588D01*
X164383069Y-110920588D01*
X164260588Y-111043069D01*
X164260588Y-111043070D01*
X164260586Y-111043072D01*
X164216859Y-111103256D01*
X164158768Y-111183211D01*
X164080128Y-111337552D01*
X164026597Y-111502302D01*
X163999500Y-111673389D01*
X159606500Y-111673389D01*
X159606500Y-111570399D01*
X159574095Y-111449464D01*
X159511495Y-111341036D01*
X159422964Y-111252505D01*
X159314536Y-111189905D01*
X159314537Y-111189905D01*
X159274224Y-111179103D01*
X159193601Y-111157500D01*
X159068399Y-111157500D01*
X158987775Y-111179103D01*
X158947463Y-111189905D01*
X158839037Y-111252504D01*
X158839034Y-111252506D01*
X158750506Y-111341034D01*
X158750504Y-111341037D01*
X158687905Y-111449463D01*
X158687905Y-111449464D01*
X158655500Y-111570399D01*
X158655500Y-111695601D01*
X158677103Y-111776224D01*
X158687905Y-111816537D01*
X158687907Y-111816540D01*
X158694523Y-111827999D01*
X158710997Y-111895899D01*
X158688145Y-111961926D01*
X158633224Y-112005117D01*
X158587137Y-112014000D01*
X153324863Y-112014000D01*
X153257824Y-111994315D01*
X153212069Y-111941511D01*
X153202125Y-111872353D01*
X153217477Y-111827999D01*
X153218064Y-111826981D01*
X153224095Y-111816536D01*
X153256500Y-111695601D01*
X153256500Y-111570399D01*
X153224095Y-111449464D01*
X153161495Y-111341036D01*
X153072964Y-111252505D01*
X152964536Y-111189905D01*
X152964537Y-111189905D01*
X152924224Y-111179103D01*
X152843601Y-111157500D01*
X152718399Y-111157500D01*
X152637775Y-111179103D01*
X152597463Y-111189905D01*
X152489037Y-111252504D01*
X152489034Y-111252506D01*
X152400506Y-111341034D01*
X152400504Y-111341037D01*
X152337905Y-111449463D01*
X152337905Y-111449464D01*
X152305500Y-111570399D01*
X152305500Y-111695601D01*
X152327103Y-111776224D01*
X152337905Y-111816537D01*
X152337907Y-111816540D01*
X152344523Y-111827999D01*
X152360997Y-111895899D01*
X152338145Y-111961926D01*
X152283224Y-112005117D01*
X152237137Y-112014000D01*
X150621999Y-112014000D01*
X150368000Y-112267999D01*
X146452414Y-112267999D01*
X146493095Y-112197536D01*
X146525500Y-112076601D01*
X146525500Y-111951399D01*
X146493095Y-111830464D01*
X146430495Y-111722036D01*
X146341964Y-111633505D01*
X146233536Y-111570905D01*
X146233537Y-111570905D01*
X146193224Y-111560103D01*
X146112601Y-111538500D01*
X145987399Y-111538500D01*
X145906775Y-111560103D01*
X145866463Y-111570905D01*
X145758037Y-111633504D01*
X145758034Y-111633506D01*
X145669506Y-111722034D01*
X145669504Y-111722037D01*
X145606905Y-111830463D01*
X145602578Y-111846611D01*
X145574500Y-111951399D01*
X139758637Y-111951399D01*
X139750069Y-111941511D01*
X139740125Y-111872353D01*
X139755477Y-111827999D01*
X139756064Y-111826981D01*
X139762095Y-111816536D01*
X139794500Y-111695601D01*
X139794500Y-111570399D01*
X139762095Y-111449464D01*
X139699495Y-111341036D01*
X139610964Y-111252505D01*
X139589649Y-111240199D01*
X141510500Y-111240199D01*
X141510500Y-111365401D01*
X141542905Y-111486336D01*
X141605505Y-111594764D01*
X141694036Y-111683295D01*
X141802464Y-111745895D01*
X141923399Y-111778300D01*
X141923401Y-111778300D01*
X142048599Y-111778300D01*
X142048601Y-111778300D01*
X142169536Y-111745895D01*
X142277964Y-111683295D01*
X142366495Y-111594764D01*
X142429095Y-111486336D01*
X142461500Y-111365401D01*
X142461500Y-111240199D01*
X149638500Y-111240199D01*
X149638500Y-111365401D01*
X149670905Y-111486336D01*
X149733505Y-111594764D01*
X149822036Y-111683295D01*
X149930464Y-111745895D01*
X150051399Y-111778300D01*
X150051401Y-111778300D01*
X150176599Y-111778300D01*
X150176601Y-111778300D01*
X150297536Y-111745895D01*
X150405964Y-111683295D01*
X150494495Y-111594764D01*
X150557095Y-111486336D01*
X150589500Y-111365401D01*
X150589500Y-111240199D01*
X150557095Y-111119264D01*
X150494495Y-111010836D01*
X150405964Y-110922305D01*
X150297536Y-110859705D01*
X150297537Y-110859705D01*
X150257224Y-110848903D01*
X150176601Y-110827300D01*
X150051399Y-110827300D01*
X149970775Y-110848903D01*
X149930463Y-110859705D01*
X149822037Y-110922304D01*
X149822034Y-110922306D01*
X149733506Y-111010834D01*
X149733504Y-111010837D01*
X149670905Y-111119263D01*
X149654702Y-111179731D01*
X149638500Y-111240199D01*
X142461500Y-111240199D01*
X142429095Y-111119264D01*
X142366495Y-111010836D01*
X142277964Y-110922305D01*
X142169536Y-110859705D01*
X142169537Y-110859705D01*
X142129224Y-110848903D01*
X142048601Y-110827300D01*
X141923399Y-110827300D01*
X141842775Y-110848903D01*
X141802463Y-110859705D01*
X141694037Y-110922304D01*
X141694034Y-110922306D01*
X141605506Y-111010834D01*
X141605504Y-111010837D01*
X141542905Y-111119263D01*
X141526702Y-111179731D01*
X141510500Y-111240199D01*
X139589649Y-111240199D01*
X139502536Y-111189905D01*
X139502537Y-111189905D01*
X139462224Y-111179103D01*
X139381601Y-111157500D01*
X139256399Y-111157500D01*
X139175775Y-111179103D01*
X139135463Y-111189905D01*
X139027037Y-111252504D01*
X139027034Y-111252506D01*
X138938506Y-111341034D01*
X138938504Y-111341037D01*
X138875905Y-111449463D01*
X138875905Y-111449464D01*
X138843500Y-111570399D01*
X138843500Y-111695601D01*
X138865103Y-111776224D01*
X138875905Y-111816537D01*
X138875907Y-111816540D01*
X138882523Y-111827999D01*
X138898997Y-111895899D01*
X138876145Y-111961926D01*
X138821224Y-112005117D01*
X138775137Y-112014000D01*
X133512863Y-112014000D01*
X133445824Y-111994315D01*
X133400069Y-111941511D01*
X133390125Y-111872353D01*
X133405477Y-111827999D01*
X133406064Y-111826981D01*
X133412095Y-111816536D01*
X133444500Y-111695601D01*
X133444500Y-111570399D01*
X133412095Y-111449464D01*
X133349495Y-111341036D01*
X133260964Y-111252505D01*
X133152536Y-111189905D01*
X133152537Y-111189905D01*
X133112224Y-111179103D01*
X133031601Y-111157500D01*
X132906399Y-111157500D01*
X132825775Y-111179103D01*
X132785463Y-111189905D01*
X132677037Y-111252504D01*
X132677034Y-111252506D01*
X132588506Y-111341034D01*
X132588504Y-111341037D01*
X132525905Y-111449463D01*
X132525905Y-111449464D01*
X132493500Y-111570399D01*
X132493500Y-111695601D01*
X132515103Y-111776224D01*
X132525905Y-111816537D01*
X132525907Y-111816540D01*
X132532523Y-111827999D01*
X132548997Y-111895899D01*
X132526145Y-111961926D01*
X132471224Y-112005117D01*
X132425137Y-112014000D01*
X130809999Y-112014000D01*
X130556000Y-112267999D01*
X127976281Y-112267999D01*
X128019873Y-112182445D01*
X128073402Y-112017701D01*
X128100500Y-111846611D01*
X128100500Y-111673389D01*
X128073402Y-111502299D01*
X128019873Y-111337555D01*
X127941232Y-111183212D01*
X127839414Y-111043072D01*
X127716928Y-110920586D01*
X127576788Y-110818768D01*
X127422445Y-110740127D01*
X127257701Y-110686598D01*
X127257699Y-110686597D01*
X127257698Y-110686597D01*
X127126271Y-110665781D01*
X127086611Y-110659500D01*
X126913389Y-110659500D01*
X126873728Y-110665781D01*
X126742302Y-110686597D01*
X126577552Y-110740128D01*
X126423211Y-110818768D01*
X126366867Y-110859705D01*
X126283072Y-110920586D01*
X126283070Y-110920588D01*
X126283069Y-110920588D01*
X126160588Y-111043069D01*
X126160588Y-111043070D01*
X126160586Y-111043072D01*
X126116859Y-111103256D01*
X126058768Y-111183211D01*
X125980128Y-111337552D01*
X125926597Y-111502302D01*
X125899500Y-111673389D01*
X124550500Y-111673389D01*
X124550500Y-109133389D01*
X125899500Y-109133389D01*
X125899500Y-109306611D01*
X125907677Y-109358239D01*
X125923978Y-109461164D01*
X125926598Y-109477701D01*
X125980127Y-109642445D01*
X126058768Y-109796788D01*
X126160586Y-109936928D01*
X126283072Y-110059414D01*
X126423212Y-110161232D01*
X126577555Y-110239873D01*
X126742299Y-110293402D01*
X126913389Y-110320500D01*
X126913390Y-110320500D01*
X127086610Y-110320500D01*
X127086611Y-110320500D01*
X127257701Y-110293402D01*
X127422445Y-110239873D01*
X127576788Y-110161232D01*
X127716928Y-110059414D01*
X127839414Y-109936928D01*
X127941232Y-109796788D01*
X128008177Y-109665399D01*
X134652500Y-109665399D01*
X134652500Y-109790601D01*
X134684905Y-109911536D01*
X134747505Y-110019964D01*
X134836036Y-110108495D01*
X134944464Y-110171095D01*
X135065399Y-110203500D01*
X135065401Y-110203500D01*
X135190599Y-110203500D01*
X135190601Y-110203500D01*
X135311536Y-110171095D01*
X135419964Y-110108495D01*
X135508495Y-110019964D01*
X135571095Y-109911536D01*
X135603500Y-109790601D01*
X135603500Y-109665399D01*
X136684500Y-109665399D01*
X136684500Y-109790601D01*
X136716905Y-109911536D01*
X136779505Y-110019964D01*
X136868036Y-110108495D01*
X136976464Y-110171095D01*
X137097399Y-110203500D01*
X137097401Y-110203500D01*
X137222599Y-110203500D01*
X137222601Y-110203500D01*
X137343536Y-110171095D01*
X137451964Y-110108495D01*
X137540495Y-110019964D01*
X137603095Y-109911536D01*
X137635500Y-109790601D01*
X137635500Y-109665399D01*
X140748500Y-109665399D01*
X140748500Y-109790601D01*
X140780905Y-109911536D01*
X140843505Y-110019964D01*
X140932036Y-110108495D01*
X141040464Y-110171095D01*
X141161399Y-110203500D01*
X141161401Y-110203500D01*
X141286599Y-110203500D01*
X141286601Y-110203500D01*
X141407536Y-110171095D01*
X141515964Y-110108495D01*
X141604495Y-110019964D01*
X141667095Y-109911536D01*
X141699500Y-109790601D01*
X141699500Y-109665399D01*
X150400500Y-109665399D01*
X150400500Y-109790601D01*
X150432905Y-109911536D01*
X150495505Y-110019964D01*
X150584036Y-110108495D01*
X150692464Y-110171095D01*
X150813399Y-110203500D01*
X150813401Y-110203500D01*
X150938599Y-110203500D01*
X150938601Y-110203500D01*
X151059536Y-110171095D01*
X151167964Y-110108495D01*
X151256495Y-110019964D01*
X151319095Y-109911536D01*
X151351500Y-109790601D01*
X151351500Y-109665399D01*
X154464500Y-109665399D01*
X154464500Y-109790601D01*
X154496905Y-109911536D01*
X154559505Y-110019964D01*
X154648036Y-110108495D01*
X154756464Y-110171095D01*
X154877399Y-110203500D01*
X154877401Y-110203500D01*
X155002599Y-110203500D01*
X155002601Y-110203500D01*
X155123536Y-110171095D01*
X155231964Y-110108495D01*
X155320495Y-110019964D01*
X155383095Y-109911536D01*
X155415500Y-109790601D01*
X155415500Y-109665399D01*
X156496500Y-109665399D01*
X156496500Y-109790601D01*
X156528905Y-109911536D01*
X156591505Y-110019964D01*
X156680036Y-110108495D01*
X156788464Y-110171095D01*
X156909399Y-110203500D01*
X156909401Y-110203500D01*
X157034599Y-110203500D01*
X157034601Y-110203500D01*
X157155536Y-110171095D01*
X157263964Y-110108495D01*
X157352495Y-110019964D01*
X157415095Y-109911536D01*
X157447500Y-109790601D01*
X157447500Y-109665399D01*
X157415095Y-109544464D01*
X157352495Y-109436036D01*
X157263964Y-109347505D01*
X157155536Y-109284905D01*
X157155537Y-109284905D01*
X157115224Y-109274103D01*
X157034601Y-109252500D01*
X156909399Y-109252500D01*
X156828775Y-109274103D01*
X156788463Y-109284905D01*
X156680037Y-109347504D01*
X156680034Y-109347506D01*
X156591506Y-109436034D01*
X156591504Y-109436037D01*
X156528905Y-109544463D01*
X156528905Y-109544464D01*
X156496500Y-109665399D01*
X155415500Y-109665399D01*
X155383095Y-109544464D01*
X155320495Y-109436036D01*
X155231964Y-109347505D01*
X155123536Y-109284905D01*
X155123537Y-109284905D01*
X155083224Y-109274103D01*
X155002601Y-109252500D01*
X154877399Y-109252500D01*
X154796775Y-109274103D01*
X154756463Y-109284905D01*
X154648037Y-109347504D01*
X154648034Y-109347506D01*
X154559506Y-109436034D01*
X154559504Y-109436037D01*
X154496905Y-109544463D01*
X154496905Y-109544464D01*
X154464500Y-109665399D01*
X151351500Y-109665399D01*
X151319095Y-109544464D01*
X151256495Y-109436036D01*
X151167964Y-109347505D01*
X151059536Y-109284905D01*
X151059537Y-109284905D01*
X151019224Y-109274103D01*
X150938601Y-109252500D01*
X150813399Y-109252500D01*
X150732775Y-109274103D01*
X150692463Y-109284905D01*
X150584037Y-109347504D01*
X150584034Y-109347506D01*
X150495506Y-109436034D01*
X150495504Y-109436037D01*
X150432905Y-109544463D01*
X150432905Y-109544464D01*
X150400500Y-109665399D01*
X141699500Y-109665399D01*
X141667095Y-109544464D01*
X141604495Y-109436036D01*
X141515964Y-109347505D01*
X141407536Y-109284905D01*
X141407537Y-109284905D01*
X141367224Y-109274103D01*
X141286601Y-109252500D01*
X141161399Y-109252500D01*
X141080775Y-109274103D01*
X141040463Y-109284905D01*
X140932037Y-109347504D01*
X140932034Y-109347506D01*
X140843506Y-109436034D01*
X140843504Y-109436037D01*
X140780905Y-109544463D01*
X140780905Y-109544464D01*
X140748500Y-109665399D01*
X137635500Y-109665399D01*
X137603095Y-109544464D01*
X137540495Y-109436036D01*
X137451964Y-109347505D01*
X137343536Y-109284905D01*
X137343537Y-109284905D01*
X137303224Y-109274103D01*
X137222601Y-109252500D01*
X137097399Y-109252500D01*
X137016775Y-109274103D01*
X136976463Y-109284905D01*
X136868037Y-109347504D01*
X136868034Y-109347506D01*
X136779506Y-109436034D01*
X136779504Y-109436037D01*
X136716905Y-109544463D01*
X136716905Y-109544464D01*
X136684500Y-109665399D01*
X135603500Y-109665399D01*
X135571095Y-109544464D01*
X135508495Y-109436036D01*
X135419964Y-109347505D01*
X135311536Y-109284905D01*
X135311537Y-109284905D01*
X135271224Y-109274103D01*
X135190601Y-109252500D01*
X135065399Y-109252500D01*
X134984775Y-109274103D01*
X134944463Y-109284905D01*
X134836037Y-109347504D01*
X134836034Y-109347506D01*
X134747506Y-109436034D01*
X134747504Y-109436037D01*
X134684905Y-109544463D01*
X134684905Y-109544464D01*
X134652500Y-109665399D01*
X128008177Y-109665399D01*
X128019873Y-109642445D01*
X128073402Y-109477701D01*
X128100500Y-109306611D01*
X128100500Y-109133389D01*
X128096257Y-109106599D01*
X131096500Y-109106599D01*
X131096500Y-109231801D01*
X131128905Y-109352736D01*
X131191505Y-109461164D01*
X131280036Y-109549695D01*
X131388464Y-109612295D01*
X131509399Y-109644700D01*
X131509401Y-109644700D01*
X131634599Y-109644700D01*
X131634601Y-109644700D01*
X131755536Y-109612295D01*
X131863964Y-109549695D01*
X131952495Y-109461164D01*
X132015095Y-109352736D01*
X132047500Y-109231801D01*
X132047500Y-109106599D01*
X160052500Y-109106599D01*
X160052500Y-109231801D01*
X160084905Y-109352736D01*
X160147505Y-109461164D01*
X160236036Y-109549695D01*
X160344464Y-109612295D01*
X160465399Y-109644700D01*
X160465401Y-109644700D01*
X160590599Y-109644700D01*
X160590601Y-109644700D01*
X160711536Y-109612295D01*
X160819964Y-109549695D01*
X160908495Y-109461164D01*
X160971095Y-109352736D01*
X161003500Y-109231801D01*
X161003500Y-109133389D01*
X163999500Y-109133389D01*
X163999500Y-109306611D01*
X164007677Y-109358239D01*
X164023978Y-109461164D01*
X164026598Y-109477701D01*
X164080127Y-109642445D01*
X164158768Y-109796788D01*
X164260586Y-109936928D01*
X164383072Y-110059414D01*
X164523212Y-110161232D01*
X164677555Y-110239873D01*
X164842299Y-110293402D01*
X165013389Y-110320500D01*
X165013390Y-110320500D01*
X165186610Y-110320500D01*
X165186611Y-110320500D01*
X165357701Y-110293402D01*
X165522445Y-110239873D01*
X165676788Y-110161232D01*
X165816928Y-110059414D01*
X165939414Y-109936928D01*
X166041232Y-109796788D01*
X166119873Y-109642445D01*
X166173402Y-109477701D01*
X166200500Y-109306611D01*
X166200500Y-109133389D01*
X166173402Y-108962299D01*
X166119873Y-108797555D01*
X166041232Y-108643212D01*
X165939414Y-108503072D01*
X165816928Y-108380586D01*
X165676788Y-108278768D01*
X165522445Y-108200127D01*
X165357701Y-108146598D01*
X165357699Y-108146597D01*
X165357698Y-108146597D01*
X165226271Y-108125781D01*
X165186611Y-108119500D01*
X165013389Y-108119500D01*
X164973728Y-108125781D01*
X164842302Y-108146597D01*
X164677552Y-108200128D01*
X164523211Y-108278768D01*
X164443256Y-108336859D01*
X164383072Y-108380586D01*
X164383070Y-108380588D01*
X164383069Y-108380588D01*
X164260588Y-108503069D01*
X164260588Y-108503070D01*
X164260586Y-108503072D01*
X164216859Y-108563256D01*
X164158768Y-108643211D01*
X164080128Y-108797552D01*
X164026597Y-108962302D01*
X164022897Y-108985664D01*
X163999500Y-109133389D01*
X161003500Y-109133389D01*
X161003500Y-109106599D01*
X160971095Y-108985664D01*
X160908495Y-108877236D01*
X160819964Y-108788705D01*
X160711536Y-108726105D01*
X160711537Y-108726105D01*
X160671224Y-108715303D01*
X160590601Y-108693700D01*
X160465399Y-108693700D01*
X160384775Y-108715303D01*
X160344463Y-108726105D01*
X160236037Y-108788704D01*
X160236034Y-108788706D01*
X160147506Y-108877234D01*
X160147504Y-108877237D01*
X160084905Y-108985663D01*
X160084905Y-108985664D01*
X160052500Y-109106599D01*
X132047500Y-109106599D01*
X132015095Y-108985664D01*
X131952495Y-108877236D01*
X131863964Y-108788705D01*
X131755536Y-108726105D01*
X131755537Y-108726105D01*
X131715224Y-108715303D01*
X131634601Y-108693700D01*
X131509399Y-108693700D01*
X131428775Y-108715303D01*
X131388463Y-108726105D01*
X131280037Y-108788704D01*
X131280034Y-108788706D01*
X131191506Y-108877234D01*
X131191504Y-108877237D01*
X131128905Y-108985663D01*
X131128905Y-108985664D01*
X131096500Y-109106599D01*
X128096257Y-109106599D01*
X128073402Y-108962299D01*
X128019873Y-108797555D01*
X127941232Y-108643212D01*
X127839414Y-108503072D01*
X127716928Y-108380586D01*
X127646858Y-108329677D01*
X127576786Y-108278766D01*
X127508073Y-108243756D01*
X127508072Y-108243756D01*
X127422447Y-108200128D01*
X127422446Y-108200127D01*
X127422445Y-108200127D01*
X127257701Y-108146598D01*
X127257699Y-108146597D01*
X127257698Y-108146597D01*
X127224879Y-108141399D01*
X146590500Y-108141399D01*
X146590500Y-108266601D01*
X146622905Y-108387536D01*
X146685505Y-108495964D01*
X146774036Y-108584495D01*
X146882464Y-108647095D01*
X147003399Y-108679500D01*
X147003401Y-108679500D01*
X147128599Y-108679500D01*
X147128601Y-108679500D01*
X147249536Y-108647095D01*
X147357964Y-108584495D01*
X147446495Y-108495964D01*
X147509095Y-108387536D01*
X147541500Y-108266601D01*
X147541500Y-108141399D01*
X147509095Y-108020464D01*
X147446495Y-107912036D01*
X147357964Y-107823505D01*
X147249536Y-107760905D01*
X147249537Y-107760905D01*
X147209224Y-107750103D01*
X147128601Y-107728500D01*
X147003399Y-107728500D01*
X146922775Y-107750103D01*
X146882463Y-107760905D01*
X146774037Y-107823504D01*
X146774034Y-107823506D01*
X146685506Y-107912034D01*
X146685504Y-107912037D01*
X146622905Y-108020463D01*
X146622905Y-108020464D01*
X146590500Y-108141399D01*
X127224879Y-108141399D01*
X127126271Y-108125781D01*
X127086611Y-108119500D01*
X126913389Y-108119500D01*
X126873728Y-108125781D01*
X126742302Y-108146597D01*
X126577552Y-108200128D01*
X126423211Y-108278768D01*
X126343256Y-108336859D01*
X126283072Y-108380586D01*
X126283070Y-108380588D01*
X126283069Y-108380588D01*
X126160588Y-108503069D01*
X126160588Y-108503070D01*
X126160586Y-108503072D01*
X126116859Y-108563256D01*
X126058768Y-108643211D01*
X125980128Y-108797552D01*
X125926597Y-108962302D01*
X125922897Y-108985664D01*
X125899500Y-109133389D01*
X124550500Y-109133389D01*
X124550500Y-106593389D01*
X125899500Y-106593389D01*
X125899500Y-106766610D01*
X125916429Y-106873500D01*
X125926598Y-106937701D01*
X125980127Y-107102445D01*
X126058768Y-107256788D01*
X126160586Y-107396928D01*
X126283072Y-107519414D01*
X126423212Y-107621232D01*
X126577555Y-107699873D01*
X126742299Y-107753402D01*
X126913389Y-107780500D01*
X126913390Y-107780500D01*
X127086610Y-107780500D01*
X127086611Y-107780500D01*
X127257701Y-107753402D01*
X127422445Y-107699873D01*
X127576788Y-107621232D01*
X127716928Y-107519414D01*
X127839414Y-107396928D01*
X127941232Y-107256788D01*
X128019873Y-107102445D01*
X128073402Y-106937701D01*
X128100500Y-106766611D01*
X128100500Y-106593389D01*
X128073402Y-106422299D01*
X128019873Y-106257555D01*
X127941232Y-106103212D01*
X127839414Y-105963072D01*
X127731741Y-105855399D01*
X131096500Y-105855399D01*
X131096500Y-105980601D01*
X131128905Y-106101536D01*
X131191505Y-106209964D01*
X131280036Y-106298495D01*
X131388464Y-106361095D01*
X131509399Y-106393500D01*
X131509401Y-106393500D01*
X131634599Y-106393500D01*
X131634601Y-106393500D01*
X131746938Y-106363399D01*
X134779500Y-106363399D01*
X134779500Y-106488601D01*
X134811905Y-106609536D01*
X134874505Y-106717964D01*
X134963036Y-106806495D01*
X135071464Y-106869095D01*
X135192399Y-106901500D01*
X135192401Y-106901500D01*
X135317599Y-106901500D01*
X135317601Y-106901500D01*
X135438536Y-106869095D01*
X135546964Y-106806495D01*
X135635495Y-106717964D01*
X135698095Y-106609536D01*
X135730500Y-106488601D01*
X135730500Y-106363399D01*
X135722997Y-106335399D01*
X152559500Y-106335399D01*
X152559500Y-106460601D01*
X152591905Y-106581536D01*
X152654505Y-106689964D01*
X152743036Y-106778495D01*
X152851464Y-106841095D01*
X152972399Y-106873500D01*
X152972401Y-106873500D01*
X153097599Y-106873500D01*
X153097601Y-106873500D01*
X153218536Y-106841095D01*
X153326964Y-106778495D01*
X153415495Y-106689964D01*
X153471252Y-106593389D01*
X163999500Y-106593389D01*
X163999500Y-106766610D01*
X164016429Y-106873500D01*
X164026598Y-106937701D01*
X164080127Y-107102445D01*
X164158768Y-107256788D01*
X164260586Y-107396928D01*
X164383072Y-107519414D01*
X164523212Y-107621232D01*
X164677555Y-107699873D01*
X164842299Y-107753402D01*
X165013389Y-107780500D01*
X165013390Y-107780500D01*
X165186610Y-107780500D01*
X165186611Y-107780500D01*
X165357701Y-107753402D01*
X165522445Y-107699873D01*
X165676788Y-107621232D01*
X165816928Y-107519414D01*
X165939414Y-107396928D01*
X166041232Y-107256788D01*
X166119873Y-107102445D01*
X166173402Y-106937701D01*
X166200500Y-106766611D01*
X166200500Y-106593389D01*
X166173402Y-106422299D01*
X166119873Y-106257555D01*
X166041232Y-106103212D01*
X165939414Y-105963072D01*
X165816928Y-105840586D01*
X165676788Y-105738768D01*
X165522445Y-105660127D01*
X165357701Y-105606598D01*
X165357699Y-105606597D01*
X165357698Y-105606597D01*
X165226271Y-105585781D01*
X165186611Y-105579500D01*
X165013389Y-105579500D01*
X164973728Y-105585781D01*
X164842302Y-105606597D01*
X164677552Y-105660128D01*
X164523211Y-105738768D01*
X164452019Y-105790493D01*
X164383072Y-105840586D01*
X164383070Y-105840588D01*
X164383069Y-105840588D01*
X164260588Y-105963069D01*
X164260588Y-105963070D01*
X164260586Y-105963072D01*
X164221039Y-106017504D01*
X164158768Y-106103211D01*
X164080128Y-106257552D01*
X164026597Y-106422302D01*
X163999500Y-106593389D01*
X153471252Y-106593389D01*
X153478095Y-106581536D01*
X153510500Y-106460601D01*
X153510500Y-106335399D01*
X153478095Y-106214464D01*
X153415495Y-106106036D01*
X153326964Y-106017505D01*
X153326963Y-106017504D01*
X153263040Y-105980599D01*
X153218536Y-105954905D01*
X153218537Y-105954905D01*
X153178224Y-105944103D01*
X153097601Y-105922500D01*
X152972399Y-105922500D01*
X152891775Y-105944103D01*
X152851463Y-105954905D01*
X152743037Y-106017504D01*
X152743034Y-106017506D01*
X152654506Y-106106034D01*
X152654504Y-106106037D01*
X152591905Y-106214463D01*
X152583965Y-106244095D01*
X152559500Y-106335399D01*
X135722997Y-106335399D01*
X135698095Y-106242464D01*
X135635495Y-106134036D01*
X135546964Y-106045505D01*
X135438536Y-105982905D01*
X135438537Y-105982905D01*
X135398224Y-105972103D01*
X135317601Y-105950500D01*
X135192399Y-105950500D01*
X135111775Y-105972103D01*
X135071463Y-105982905D01*
X134963037Y-106045504D01*
X134963034Y-106045506D01*
X134874506Y-106134034D01*
X134874504Y-106134037D01*
X134811905Y-106242463D01*
X134811905Y-106242464D01*
X134779500Y-106363399D01*
X131746938Y-106363399D01*
X131755536Y-106361095D01*
X131863964Y-106298495D01*
X131952495Y-106209964D01*
X132015095Y-106101536D01*
X132047500Y-105980601D01*
X132047500Y-105855399D01*
X132015095Y-105734464D01*
X131952495Y-105626036D01*
X131863964Y-105537505D01*
X131755536Y-105474905D01*
X131755537Y-105474905D01*
X131715224Y-105464103D01*
X131634601Y-105442500D01*
X131509399Y-105442500D01*
X131428775Y-105464103D01*
X131388463Y-105474905D01*
X131280037Y-105537504D01*
X131280034Y-105537506D01*
X131191506Y-105626034D01*
X131191504Y-105626037D01*
X131128905Y-105734463D01*
X131113892Y-105790493D01*
X131096500Y-105855399D01*
X127731741Y-105855399D01*
X127716928Y-105840586D01*
X127576788Y-105738768D01*
X127422445Y-105660127D01*
X127257701Y-105606598D01*
X127257699Y-105606597D01*
X127257698Y-105606597D01*
X127126271Y-105585781D01*
X127086611Y-105579500D01*
X126913389Y-105579500D01*
X126873728Y-105585781D01*
X126742302Y-105606597D01*
X126577552Y-105660128D01*
X126423211Y-105738768D01*
X126352019Y-105790493D01*
X126283072Y-105840586D01*
X126283070Y-105840588D01*
X126283069Y-105840588D01*
X126160588Y-105963069D01*
X126160588Y-105963070D01*
X126160586Y-105963072D01*
X126121039Y-106017504D01*
X126058768Y-106103211D01*
X125980128Y-106257552D01*
X125926597Y-106422302D01*
X125899500Y-106593389D01*
X124550500Y-106593389D01*
X124550500Y-104053389D01*
X125899500Y-104053389D01*
X125899500Y-104226611D01*
X125926598Y-104397701D01*
X125980127Y-104562445D01*
X126058768Y-104716788D01*
X126160586Y-104856928D01*
X126283072Y-104979414D01*
X126423212Y-105081232D01*
X126577555Y-105159873D01*
X126742299Y-105213402D01*
X126913389Y-105240500D01*
X126913390Y-105240500D01*
X127086610Y-105240500D01*
X127086611Y-105240500D01*
X127257701Y-105213402D01*
X127422445Y-105159873D01*
X127576788Y-105081232D01*
X127716928Y-104979414D01*
X127839414Y-104856928D01*
X127941232Y-104716788D01*
X128019873Y-104562445D01*
X128073402Y-104397701D01*
X128100500Y-104226611D01*
X128100500Y-104053389D01*
X128073402Y-103882299D01*
X128019873Y-103717555D01*
X127941232Y-103563212D01*
X127839414Y-103423072D01*
X127716928Y-103300586D01*
X127576788Y-103198768D01*
X127422445Y-103120127D01*
X127257701Y-103066598D01*
X127257699Y-103066597D01*
X127257698Y-103066597D01*
X127126271Y-103045781D01*
X127086611Y-103039500D01*
X126913389Y-103039500D01*
X126873728Y-103045781D01*
X126742302Y-103066597D01*
X126577552Y-103120128D01*
X126423211Y-103198768D01*
X126343256Y-103256859D01*
X126283072Y-103300586D01*
X126283070Y-103300588D01*
X126283069Y-103300588D01*
X126160588Y-103423069D01*
X126160588Y-103423070D01*
X126160586Y-103423072D01*
X126116859Y-103483256D01*
X126058768Y-103563211D01*
X125980128Y-103717552D01*
X125926597Y-103882302D01*
X125913871Y-103962651D01*
X125899500Y-104053389D01*
X124550500Y-104053389D01*
X124550500Y-101513389D01*
X125899500Y-101513389D01*
X125899500Y-101686610D01*
X125925768Y-101852465D01*
X125926598Y-101857701D01*
X125980127Y-102022445D01*
X126058768Y-102176788D01*
X126160586Y-102316928D01*
X126283072Y-102439414D01*
X126423212Y-102541232D01*
X126577555Y-102619873D01*
X126742299Y-102673402D01*
X126913389Y-102700500D01*
X126913390Y-102700500D01*
X127086610Y-102700500D01*
X127086611Y-102700500D01*
X127257701Y-102673402D01*
X127422445Y-102619873D01*
X127576788Y-102541232D01*
X127716928Y-102439414D01*
X127839414Y-102316928D01*
X127941232Y-102176788D01*
X128019873Y-102022445D01*
X128073402Y-101857701D01*
X128100500Y-101686611D01*
X128100500Y-101513389D01*
X128073402Y-101342299D01*
X128054264Y-101283399D01*
X137065500Y-101283399D01*
X137065500Y-101408601D01*
X137097905Y-101529536D01*
X137160505Y-101637964D01*
X137249036Y-101726495D01*
X137357464Y-101789095D01*
X137478399Y-101821500D01*
X137478401Y-101821500D01*
X137490679Y-101821500D01*
X137557718Y-101841185D01*
X137603473Y-101893989D01*
X137613417Y-101963147D01*
X137584392Y-102026703D01*
X137578360Y-102033181D01*
X137541506Y-102070034D01*
X137541504Y-102070037D01*
X137478905Y-102178463D01*
X137478905Y-102178464D01*
X137446500Y-102299399D01*
X137446500Y-102424601D01*
X137478905Y-102545536D01*
X137541505Y-102653964D01*
X137630036Y-102742495D01*
X137738464Y-102805095D01*
X137859399Y-102837500D01*
X137859401Y-102837500D01*
X137984599Y-102837500D01*
X137984601Y-102837500D01*
X138105536Y-102805095D01*
X138213964Y-102742495D01*
X138302495Y-102653964D01*
X138365095Y-102545536D01*
X138397500Y-102424601D01*
X138397500Y-102299399D01*
X138365095Y-102178464D01*
X138302495Y-102070036D01*
X138213964Y-101981505D01*
X138105536Y-101918905D01*
X138105537Y-101918905D01*
X138050448Y-101904144D01*
X137984601Y-101886500D01*
X137972321Y-101886500D01*
X137905282Y-101866815D01*
X137859527Y-101814011D01*
X137849583Y-101744853D01*
X137878608Y-101681297D01*
X137884640Y-101674819D01*
X137893924Y-101665535D01*
X137921495Y-101637964D01*
X137984095Y-101529536D01*
X138016500Y-101408601D01*
X138016500Y-101283399D01*
X139224500Y-101283399D01*
X139224500Y-101408601D01*
X139256905Y-101529536D01*
X139319505Y-101637964D01*
X139408036Y-101726495D01*
X139516464Y-101789095D01*
X139575567Y-101804932D01*
X139635226Y-101841296D01*
X139665755Y-101904144D01*
X139657460Y-101973519D01*
X139631154Y-102012387D01*
X139573504Y-102070037D01*
X139510905Y-102178463D01*
X139510905Y-102178464D01*
X139478500Y-102299399D01*
X139478500Y-102424601D01*
X139510905Y-102545536D01*
X139573505Y-102653964D01*
X139662036Y-102742495D01*
X139662037Y-102742496D01*
X139662039Y-102742497D01*
X139696881Y-102762613D01*
X139745096Y-102813180D01*
X139758320Y-102881787D01*
X139732352Y-102946651D01*
X139696881Y-102977387D01*
X139662039Y-102997502D01*
X139662034Y-102997506D01*
X139573506Y-103086034D01*
X139573504Y-103086037D01*
X139510905Y-103194463D01*
X139494702Y-103254931D01*
X139478500Y-103315399D01*
X139478500Y-103440601D01*
X139510905Y-103561536D01*
X139573505Y-103669964D01*
X139662036Y-103758495D01*
X139662037Y-103758496D01*
X139662039Y-103758497D01*
X139696881Y-103778613D01*
X139745096Y-103829180D01*
X139758320Y-103897787D01*
X139732352Y-103962651D01*
X139696881Y-103993387D01*
X139662039Y-104013502D01*
X139662034Y-104013506D01*
X139573506Y-104102034D01*
X139573504Y-104102037D01*
X139510905Y-104210463D01*
X139506578Y-104226611D01*
X139478500Y-104331399D01*
X139478500Y-104456601D01*
X139510905Y-104577536D01*
X139573505Y-104685964D01*
X139662036Y-104774495D01*
X139662037Y-104774496D01*
X139662039Y-104774497D01*
X139696881Y-104794613D01*
X139745096Y-104845180D01*
X139758320Y-104913787D01*
X139732352Y-104978651D01*
X139696881Y-105009387D01*
X139662039Y-105029502D01*
X139662034Y-105029506D01*
X139573506Y-105118034D01*
X139573504Y-105118037D01*
X139510905Y-105226463D01*
X139510905Y-105226464D01*
X139478500Y-105347399D01*
X139478500Y-105472601D01*
X139510905Y-105593536D01*
X139573505Y-105701964D01*
X139662036Y-105790495D01*
X139770464Y-105853095D01*
X139891399Y-105885500D01*
X139891401Y-105885500D01*
X140016599Y-105885500D01*
X140016601Y-105885500D01*
X140137536Y-105853095D01*
X140245964Y-105790495D01*
X140298060Y-105738399D01*
X141256500Y-105738399D01*
X141256500Y-105863601D01*
X141288905Y-105984536D01*
X141351505Y-106092964D01*
X141440036Y-106181495D01*
X141548464Y-106244095D01*
X141669399Y-106276500D01*
X141669401Y-106276500D01*
X141794599Y-106276500D01*
X141794601Y-106276500D01*
X141915536Y-106244095D01*
X142023964Y-106181495D01*
X142112495Y-106092964D01*
X142175095Y-105984536D01*
X142207500Y-105863601D01*
X142207500Y-105855399D01*
X156242500Y-105855399D01*
X156242500Y-105980601D01*
X156274905Y-106101536D01*
X156337505Y-106209964D01*
X156426036Y-106298495D01*
X156534464Y-106361095D01*
X156655399Y-106393500D01*
X156655401Y-106393500D01*
X156780599Y-106393500D01*
X156780601Y-106393500D01*
X156901536Y-106361095D01*
X157009964Y-106298495D01*
X157098495Y-106209964D01*
X157161095Y-106101536D01*
X157193500Y-105980601D01*
X157193500Y-105855399D01*
X157161095Y-105734464D01*
X157098495Y-105626036D01*
X157009964Y-105537505D01*
X156901536Y-105474905D01*
X156901537Y-105474905D01*
X156861224Y-105464103D01*
X156780601Y-105442500D01*
X156655399Y-105442500D01*
X156574775Y-105464103D01*
X156534463Y-105474905D01*
X156426037Y-105537504D01*
X156426034Y-105537506D01*
X156337506Y-105626034D01*
X156337504Y-105626037D01*
X156274905Y-105734463D01*
X156259892Y-105790493D01*
X156242500Y-105855399D01*
X142207500Y-105855399D01*
X142207500Y-105738399D01*
X142175095Y-105617464D01*
X142112495Y-105509036D01*
X142023964Y-105420505D01*
X141915536Y-105357905D01*
X141915537Y-105357905D01*
X141875224Y-105347103D01*
X141794601Y-105325500D01*
X141669399Y-105325500D01*
X141588775Y-105347103D01*
X141548463Y-105357905D01*
X141440037Y-105420504D01*
X141440034Y-105420506D01*
X141351506Y-105509034D01*
X141351504Y-105509037D01*
X141288905Y-105617463D01*
X141286608Y-105626036D01*
X141256500Y-105738399D01*
X140298060Y-105738399D01*
X140334495Y-105701964D01*
X140340917Y-105690840D01*
X140353948Y-105668271D01*
X140378331Y-105626036D01*
X140397095Y-105593536D01*
X140429500Y-105472601D01*
X140429500Y-105347399D01*
X140397095Y-105226464D01*
X140334495Y-105118036D01*
X140245964Y-105029505D01*
X140245963Y-105029504D01*
X140229458Y-105019975D01*
X140211118Y-105009386D01*
X140162903Y-104958822D01*
X140149679Y-104890215D01*
X140175646Y-104825350D01*
X140211117Y-104794613D01*
X140245964Y-104774495D01*
X140334495Y-104685964D01*
X140397095Y-104577536D01*
X140429500Y-104456601D01*
X140429500Y-104331399D01*
X140397095Y-104210464D01*
X140334495Y-104102036D01*
X140285848Y-104053389D01*
X163999500Y-104053389D01*
X163999500Y-104226611D01*
X164026598Y-104397701D01*
X164080127Y-104562445D01*
X164158768Y-104716788D01*
X164260586Y-104856928D01*
X164383072Y-104979414D01*
X164523212Y-105081232D01*
X164677555Y-105159873D01*
X164842299Y-105213402D01*
X165013389Y-105240500D01*
X165013390Y-105240500D01*
X165186610Y-105240500D01*
X165186611Y-105240500D01*
X165357701Y-105213402D01*
X165522445Y-105159873D01*
X165676788Y-105081232D01*
X165816928Y-104979414D01*
X165939414Y-104856928D01*
X166041232Y-104716788D01*
X166119873Y-104562445D01*
X166173402Y-104397701D01*
X166200500Y-104226611D01*
X166200500Y-104053389D01*
X166173402Y-103882299D01*
X166119873Y-103717555D01*
X166041232Y-103563212D01*
X165939414Y-103423072D01*
X165816928Y-103300586D01*
X165676788Y-103198768D01*
X165522445Y-103120127D01*
X165357701Y-103066598D01*
X165357699Y-103066597D01*
X165357698Y-103066597D01*
X165226271Y-103045781D01*
X165186611Y-103039500D01*
X165013389Y-103039500D01*
X164973728Y-103045781D01*
X164842302Y-103066597D01*
X164677552Y-103120128D01*
X164523211Y-103198768D01*
X164443256Y-103256859D01*
X164383072Y-103300586D01*
X164383070Y-103300588D01*
X164383069Y-103300588D01*
X164260588Y-103423069D01*
X164260588Y-103423070D01*
X164260586Y-103423072D01*
X164216859Y-103483256D01*
X164158768Y-103563211D01*
X164080128Y-103717552D01*
X164026597Y-103882302D01*
X164013871Y-103962651D01*
X163999500Y-104053389D01*
X140285848Y-104053389D01*
X140245964Y-104013505D01*
X140198786Y-103986267D01*
X140188390Y-103976538D01*
X140177584Y-103958218D01*
X140162903Y-103942822D01*
X140160185Y-103928722D01*
X140152892Y-103916358D01*
X140153705Y-103895104D01*
X140149679Y-103874215D01*
X140154671Y-103861741D01*
X142772259Y-103861741D01*
X149376259Y-103861741D01*
X149376259Y-101029399D01*
X150908500Y-101029399D01*
X150908500Y-101154601D01*
X150940905Y-101275536D01*
X151003505Y-101383964D01*
X151092036Y-101472495D01*
X151200464Y-101535095D01*
X151321399Y-101567500D01*
X151321401Y-101567500D01*
X151446599Y-101567500D01*
X151446601Y-101567500D01*
X151567536Y-101535095D01*
X151567539Y-101535092D01*
X151575046Y-101531984D01*
X151575966Y-101534206D01*
X151631977Y-101520616D01*
X151698005Y-101543466D01*
X151733469Y-101582477D01*
X151765500Y-101637957D01*
X151765504Y-101637962D01*
X151765505Y-101637964D01*
X151854036Y-101726495D01*
X151854037Y-101726496D01*
X151854039Y-101726497D01*
X151888881Y-101746613D01*
X151937096Y-101797180D01*
X151950320Y-101865787D01*
X151924352Y-101930651D01*
X151888881Y-101961387D01*
X151854039Y-101981502D01*
X151854034Y-101981506D01*
X151765506Y-102070034D01*
X151765504Y-102070037D01*
X151702905Y-102178463D01*
X151702905Y-102178464D01*
X151670500Y-102299399D01*
X151670500Y-102424601D01*
X151702905Y-102545536D01*
X151765505Y-102653964D01*
X151854036Y-102742495D01*
X151962464Y-102805095D01*
X152083399Y-102837500D01*
X152083401Y-102837500D01*
X152208599Y-102837500D01*
X152208601Y-102837500D01*
X152329536Y-102805095D01*
X152437964Y-102742495D01*
X152526495Y-102653964D01*
X152589095Y-102545536D01*
X152621500Y-102424601D01*
X152621500Y-102299399D01*
X152589095Y-102178464D01*
X152526495Y-102070036D01*
X152437964Y-101981505D01*
X152437963Y-101981504D01*
X152421458Y-101971975D01*
X152403118Y-101961386D01*
X152354903Y-101910822D01*
X152341679Y-101842215D01*
X152367646Y-101777350D01*
X152403117Y-101746613D01*
X152437964Y-101726495D01*
X152526495Y-101637964D01*
X152589095Y-101529536D01*
X152593422Y-101513389D01*
X163999500Y-101513389D01*
X163999500Y-101686610D01*
X164025768Y-101852465D01*
X164026598Y-101857701D01*
X164080127Y-102022445D01*
X164158768Y-102176788D01*
X164260586Y-102316928D01*
X164383072Y-102439414D01*
X164523212Y-102541232D01*
X164677555Y-102619873D01*
X164842299Y-102673402D01*
X165013389Y-102700500D01*
X165013390Y-102700500D01*
X165186610Y-102700500D01*
X165186611Y-102700500D01*
X165357701Y-102673402D01*
X165522445Y-102619873D01*
X165676788Y-102541232D01*
X165816928Y-102439414D01*
X165939414Y-102316928D01*
X166041232Y-102176788D01*
X166119873Y-102022445D01*
X166173402Y-101857701D01*
X166200500Y-101686611D01*
X166200500Y-101513389D01*
X166173402Y-101342299D01*
X166119873Y-101177555D01*
X166041232Y-101023212D01*
X165939414Y-100883072D01*
X165816928Y-100760586D01*
X165676788Y-100658768D01*
X165522445Y-100580127D01*
X165357701Y-100526598D01*
X165357699Y-100526597D01*
X165357698Y-100526597D01*
X165226271Y-100505781D01*
X165186611Y-100499500D01*
X165013389Y-100499500D01*
X164973728Y-100505781D01*
X164842302Y-100526597D01*
X164677552Y-100580128D01*
X164523211Y-100658768D01*
X164452016Y-100710495D01*
X164383072Y-100760586D01*
X164383070Y-100760588D01*
X164383069Y-100760588D01*
X164260588Y-100883069D01*
X164260588Y-100883070D01*
X164260586Y-100883072D01*
X164242138Y-100908464D01*
X164158768Y-101023211D01*
X164080128Y-101177552D01*
X164026597Y-101342302D01*
X163999500Y-101513389D01*
X152593422Y-101513389D01*
X152621500Y-101408601D01*
X152621500Y-101283399D01*
X152589095Y-101162464D01*
X152526495Y-101054036D01*
X152437964Y-100965505D01*
X152437963Y-100965504D01*
X152421458Y-100955975D01*
X152403118Y-100945386D01*
X152354903Y-100894822D01*
X152341679Y-100826215D01*
X152367646Y-100761350D01*
X152403117Y-100730613D01*
X152437964Y-100710495D01*
X152526495Y-100621964D01*
X152589095Y-100513536D01*
X152621500Y-100392601D01*
X152621500Y-100267399D01*
X152589095Y-100146464D01*
X152526495Y-100038036D01*
X152437964Y-99949505D01*
X152329536Y-99886905D01*
X152329537Y-99886905D01*
X152289224Y-99876103D01*
X152208601Y-99854500D01*
X152083399Y-99854500D01*
X152002775Y-99876103D01*
X151962463Y-99886905D01*
X151854037Y-99949504D01*
X151854034Y-99949506D01*
X151765506Y-100038034D01*
X151765504Y-100038037D01*
X151702905Y-100146463D01*
X151702905Y-100146464D01*
X151670500Y-100267399D01*
X151670500Y-100392601D01*
X151696742Y-100490535D01*
X151696866Y-100490997D01*
X151695203Y-100560847D01*
X151656041Y-100618710D01*
X151591813Y-100646214D01*
X151544999Y-100642866D01*
X151446601Y-100616500D01*
X151321399Y-100616500D01*
X151240775Y-100638103D01*
X151200463Y-100648905D01*
X151092037Y-100711504D01*
X151092034Y-100711506D01*
X151003506Y-100800034D01*
X151003504Y-100800037D01*
X150940905Y-100908463D01*
X150940905Y-100908464D01*
X150908500Y-101029399D01*
X149376259Y-101029399D01*
X149376259Y-98489399D01*
X150908500Y-98489399D01*
X150908500Y-98614601D01*
X150940905Y-98735536D01*
X151003505Y-98843964D01*
X151092036Y-98932495D01*
X151200464Y-98995095D01*
X151321399Y-99027500D01*
X151321401Y-99027500D01*
X151446599Y-99027500D01*
X151446601Y-99027500D01*
X151567536Y-98995095D01*
X151605132Y-98973389D01*
X163999500Y-98973389D01*
X163999500Y-99146611D01*
X164026598Y-99317701D01*
X164080127Y-99482445D01*
X164158768Y-99636788D01*
X164260586Y-99776928D01*
X164383072Y-99899414D01*
X164523212Y-100001232D01*
X164677555Y-100079873D01*
X164842299Y-100133402D01*
X165013389Y-100160500D01*
X165013390Y-100160500D01*
X165186610Y-100160500D01*
X165186611Y-100160500D01*
X165357701Y-100133402D01*
X165522445Y-100079873D01*
X165676788Y-100001232D01*
X165816928Y-99899414D01*
X165939414Y-99776928D01*
X166041232Y-99636788D01*
X166119873Y-99482445D01*
X166173402Y-99317701D01*
X166200500Y-99146611D01*
X166200500Y-98973389D01*
X166173402Y-98802299D01*
X166119873Y-98637555D01*
X166041232Y-98483212D01*
X165939414Y-98343072D01*
X165816928Y-98220586D01*
X165676788Y-98118768D01*
X165522445Y-98040127D01*
X165357701Y-97986598D01*
X165357699Y-97986597D01*
X165357698Y-97986597D01*
X165226271Y-97965781D01*
X165186611Y-97959500D01*
X165013389Y-97959500D01*
X164973728Y-97965781D01*
X164842302Y-97986597D01*
X164677552Y-98040128D01*
X164523211Y-98118768D01*
X164476448Y-98152744D01*
X164383072Y-98220586D01*
X164383070Y-98220588D01*
X164383069Y-98220588D01*
X164260588Y-98343069D01*
X164260588Y-98343070D01*
X164260586Y-98343072D01*
X164242138Y-98368464D01*
X164158768Y-98483211D01*
X164080128Y-98637552D01*
X164026597Y-98802302D01*
X164009003Y-98913387D01*
X163999500Y-98973389D01*
X151605132Y-98973389D01*
X151675964Y-98932495D01*
X151764495Y-98843964D01*
X151827095Y-98735536D01*
X151859500Y-98614601D01*
X151859500Y-98489399D01*
X151833134Y-98391001D01*
X151834796Y-98321153D01*
X151873957Y-98263290D01*
X151938186Y-98235785D01*
X151985000Y-98239133D01*
X152083399Y-98265500D01*
X152083400Y-98265500D01*
X152208599Y-98265500D01*
X152208601Y-98265500D01*
X152329536Y-98233095D01*
X152437964Y-98170495D01*
X152526495Y-98081964D01*
X152589095Y-97973536D01*
X152621500Y-97852601D01*
X152621500Y-97727399D01*
X152589095Y-97606464D01*
X152526495Y-97498036D01*
X152437964Y-97409505D01*
X152329536Y-97346905D01*
X152329537Y-97346905D01*
X152289224Y-97336103D01*
X152208601Y-97314500D01*
X152083399Y-97314500D01*
X152002775Y-97336103D01*
X151962463Y-97346905D01*
X151854037Y-97409504D01*
X151854034Y-97409506D01*
X151765506Y-97498034D01*
X151765504Y-97498037D01*
X151702905Y-97606463D01*
X151702905Y-97606464D01*
X151670500Y-97727399D01*
X151670500Y-97852601D01*
X151687892Y-97917506D01*
X151696866Y-97950997D01*
X151695203Y-98020847D01*
X151656041Y-98078710D01*
X151591813Y-98106214D01*
X151544999Y-98102866D01*
X151446601Y-98076500D01*
X151321399Y-98076500D01*
X151240775Y-98098103D01*
X151200463Y-98108905D01*
X151092037Y-98171504D01*
X151092034Y-98171506D01*
X151003506Y-98260034D01*
X151003504Y-98260037D01*
X150940905Y-98368463D01*
X150932723Y-98399000D01*
X150908500Y-98489399D01*
X149376259Y-98489399D01*
X149376259Y-97257741D01*
X142772259Y-97257741D01*
X142772259Y-103861741D01*
X140154671Y-103861741D01*
X140155014Y-103860885D01*
X140155564Y-103846539D01*
X140167740Y-103829097D01*
X140175646Y-103809350D01*
X140190532Y-103796450D01*
X140195560Y-103789249D01*
X140201808Y-103786679D01*
X140211117Y-103778613D01*
X140245964Y-103758495D01*
X140334495Y-103669964D01*
X140397095Y-103561536D01*
X140429500Y-103440601D01*
X140429500Y-103315399D01*
X140397095Y-103194464D01*
X140334495Y-103086036D01*
X140245964Y-102997505D01*
X140245963Y-102997504D01*
X140229458Y-102987975D01*
X140211118Y-102977386D01*
X140206928Y-102972993D01*
X140201190Y-102971007D01*
X140183101Y-102948004D01*
X140162903Y-102926822D01*
X140161753Y-102920858D01*
X140158000Y-102916085D01*
X140155218Y-102886954D01*
X140149679Y-102858215D01*
X140151936Y-102852576D01*
X140151359Y-102846532D01*
X140164768Y-102820521D01*
X140175646Y-102793350D01*
X140181304Y-102788446D01*
X140183376Y-102784429D01*
X140211116Y-102762613D01*
X140245964Y-102742495D01*
X140334495Y-102653964D01*
X140397095Y-102545536D01*
X140429500Y-102424601D01*
X140429500Y-102299399D01*
X140397095Y-102178464D01*
X140334495Y-102070036D01*
X140245964Y-101981505D01*
X140137536Y-101918905D01*
X140137531Y-101918903D01*
X140078432Y-101903067D01*
X140077988Y-101902796D01*
X140077470Y-101902805D01*
X140048213Y-101884647D01*
X140018772Y-101866702D01*
X140018545Y-101866234D01*
X140018104Y-101865961D01*
X140003283Y-101834815D01*
X139988244Y-101803854D01*
X139988305Y-101803339D01*
X139988082Y-101802870D01*
X139992447Y-101768702D01*
X139996539Y-101734479D01*
X139996892Y-101733904D01*
X139996936Y-101733564D01*
X139998610Y-101731111D01*
X140015547Y-101703576D01*
X140019014Y-101699444D01*
X140080495Y-101637964D01*
X140143095Y-101529536D01*
X140175500Y-101408601D01*
X140175500Y-101283399D01*
X140143095Y-101162464D01*
X140080495Y-101054036D01*
X139991964Y-100965505D01*
X139883536Y-100902905D01*
X139883537Y-100902905D01*
X139843224Y-100892103D01*
X139762601Y-100870500D01*
X139637399Y-100870500D01*
X139556775Y-100892103D01*
X139516463Y-100902905D01*
X139408037Y-100965504D01*
X139408034Y-100965506D01*
X139319506Y-101054034D01*
X139319504Y-101054037D01*
X139256905Y-101162463D01*
X139256905Y-101162464D01*
X139224500Y-101283399D01*
X138016500Y-101283399D01*
X137984095Y-101162464D01*
X137921495Y-101054036D01*
X137832964Y-100965505D01*
X137724536Y-100902905D01*
X137724537Y-100902905D01*
X137684224Y-100892103D01*
X137603601Y-100870500D01*
X137478399Y-100870500D01*
X137397775Y-100892103D01*
X137357463Y-100902905D01*
X137249037Y-100965504D01*
X137249034Y-100965506D01*
X137160506Y-101054034D01*
X137160504Y-101054037D01*
X137097905Y-101162463D01*
X137097905Y-101162464D01*
X137065500Y-101283399D01*
X128054264Y-101283399D01*
X128019873Y-101177555D01*
X127941232Y-101023212D01*
X127839414Y-100883072D01*
X127716928Y-100760586D01*
X127576788Y-100658768D01*
X127545578Y-100642866D01*
X127475458Y-100607138D01*
X127475456Y-100607136D01*
X127422450Y-100580129D01*
X127422447Y-100580128D01*
X127422445Y-100580127D01*
X127257701Y-100526598D01*
X127257699Y-100526597D01*
X127257698Y-100526597D01*
X127126271Y-100505781D01*
X127086611Y-100499500D01*
X126913389Y-100499500D01*
X126873728Y-100505781D01*
X126742302Y-100526597D01*
X126577552Y-100580128D01*
X126423211Y-100658768D01*
X126352016Y-100710495D01*
X126283072Y-100760586D01*
X126283070Y-100760588D01*
X126283069Y-100760588D01*
X126160588Y-100883069D01*
X126160588Y-100883070D01*
X126160586Y-100883072D01*
X126142138Y-100908464D01*
X126058768Y-101023211D01*
X125980128Y-101177552D01*
X125926597Y-101342302D01*
X125899500Y-101513389D01*
X124550500Y-101513389D01*
X124550500Y-98973389D01*
X125899500Y-98973389D01*
X125899500Y-99146611D01*
X125926598Y-99317701D01*
X125980127Y-99482445D01*
X126058768Y-99636788D01*
X126160586Y-99776928D01*
X126283072Y-99899414D01*
X126423212Y-100001232D01*
X126577555Y-100079873D01*
X126742299Y-100133402D01*
X126913389Y-100160500D01*
X126913390Y-100160500D01*
X127086610Y-100160500D01*
X127086611Y-100160500D01*
X127257701Y-100133402D01*
X127422445Y-100079873D01*
X127576788Y-100001232D01*
X127716928Y-99899414D01*
X127839414Y-99776928D01*
X127941232Y-99636788D01*
X128019873Y-99482445D01*
X128073402Y-99317701D01*
X128100500Y-99146611D01*
X128100500Y-98973389D01*
X128073402Y-98802299D01*
X128019873Y-98637555D01*
X127941232Y-98483212D01*
X127839414Y-98343072D01*
X127716928Y-98220586D01*
X127576788Y-98118768D01*
X127422445Y-98040127D01*
X127257701Y-97986598D01*
X127257699Y-97986597D01*
X127257698Y-97986597D01*
X127126271Y-97965781D01*
X127086611Y-97959500D01*
X126913389Y-97959500D01*
X126873728Y-97965781D01*
X126742302Y-97986597D01*
X126577552Y-98040128D01*
X126423211Y-98118768D01*
X126376448Y-98152744D01*
X126283072Y-98220586D01*
X126283070Y-98220588D01*
X126283069Y-98220588D01*
X126160588Y-98343069D01*
X126160588Y-98343070D01*
X126160586Y-98343072D01*
X126142138Y-98368464D01*
X126058768Y-98483211D01*
X125980128Y-98637552D01*
X125926597Y-98802302D01*
X125909003Y-98913387D01*
X125899500Y-98973389D01*
X124550500Y-98973389D01*
X124550500Y-97727399D01*
X136430500Y-97727399D01*
X136430500Y-97852601D01*
X136462905Y-97973536D01*
X136525505Y-98081964D01*
X136614036Y-98170495D01*
X136722464Y-98233095D01*
X136843399Y-98265500D01*
X136843401Y-98265500D01*
X136968599Y-98265500D01*
X136968601Y-98265500D01*
X137080938Y-98235399D01*
X139478500Y-98235399D01*
X139478500Y-98360601D01*
X139510905Y-98481536D01*
X139573505Y-98589964D01*
X139662036Y-98678495D01*
X139662037Y-98678496D01*
X139662039Y-98678497D01*
X139696881Y-98698613D01*
X139745096Y-98749180D01*
X139758320Y-98817787D01*
X139732352Y-98882651D01*
X139696881Y-98913387D01*
X139662039Y-98933502D01*
X139662034Y-98933506D01*
X139573506Y-99022034D01*
X139573504Y-99022037D01*
X139510905Y-99130463D01*
X139506578Y-99146611D01*
X139478500Y-99251399D01*
X139478500Y-99376601D01*
X139510905Y-99497536D01*
X139573505Y-99605964D01*
X139662036Y-99694495D01*
X139770464Y-99757095D01*
X139891399Y-99789500D01*
X139891401Y-99789500D01*
X140016599Y-99789500D01*
X140016601Y-99789500D01*
X140137536Y-99757095D01*
X140245964Y-99694495D01*
X140334495Y-99605964D01*
X140397095Y-99497536D01*
X140429500Y-99376601D01*
X140429500Y-99251399D01*
X140397095Y-99130464D01*
X140334495Y-99022036D01*
X140245964Y-98933505D01*
X140245963Y-98933504D01*
X140229458Y-98923975D01*
X140211118Y-98913386D01*
X140208739Y-98910892D01*
X140205438Y-98909901D01*
X140184810Y-98885797D01*
X140162903Y-98862822D01*
X140162250Y-98859434D01*
X140160009Y-98856816D01*
X140155686Y-98825384D01*
X140149679Y-98794215D01*
X140150960Y-98791013D01*
X140150491Y-98787598D01*
X140163849Y-98758817D01*
X140175646Y-98729350D01*
X140178885Y-98726423D01*
X140179907Y-98724222D01*
X140195319Y-98711576D01*
X140206722Y-98701274D01*
X140208891Y-98699898D01*
X140245964Y-98678495D01*
X140334495Y-98589964D01*
X140397095Y-98481536D01*
X140429500Y-98360601D01*
X140429500Y-98235399D01*
X140397095Y-98114464D01*
X140334495Y-98006036D01*
X140245964Y-97917505D01*
X140137536Y-97854905D01*
X140137537Y-97854905D01*
X140097224Y-97844103D01*
X140016601Y-97822500D01*
X139891399Y-97822500D01*
X139810775Y-97844103D01*
X139770463Y-97854905D01*
X139662037Y-97917504D01*
X139662034Y-97917506D01*
X139573506Y-98006034D01*
X139573504Y-98006037D01*
X139510905Y-98114463D01*
X139504172Y-98139590D01*
X139478500Y-98235399D01*
X137080938Y-98235399D01*
X137089536Y-98233095D01*
X137197964Y-98170495D01*
X137286495Y-98081964D01*
X137349095Y-97973536D01*
X137381500Y-97852601D01*
X137381500Y-97727399D01*
X137349095Y-97606464D01*
X137286495Y-97498036D01*
X137197964Y-97409505D01*
X137089536Y-97346905D01*
X137089537Y-97346905D01*
X137049224Y-97336103D01*
X136968601Y-97314500D01*
X136843399Y-97314500D01*
X136762775Y-97336103D01*
X136722463Y-97346905D01*
X136614037Y-97409504D01*
X136614034Y-97409506D01*
X136525506Y-97498034D01*
X136525504Y-97498037D01*
X136462905Y-97606463D01*
X136462905Y-97606464D01*
X136430500Y-97727399D01*
X124550500Y-97727399D01*
X124550500Y-96433389D01*
X125899500Y-96433389D01*
X125899500Y-96606611D01*
X125926598Y-96777701D01*
X125980127Y-96942445D01*
X126058768Y-97096788D01*
X126160586Y-97236928D01*
X126283072Y-97359414D01*
X126423212Y-97461232D01*
X126577555Y-97539873D01*
X126742299Y-97593402D01*
X126913389Y-97620500D01*
X126913390Y-97620500D01*
X127086610Y-97620500D01*
X127086611Y-97620500D01*
X127257701Y-97593402D01*
X127422445Y-97539873D01*
X127576788Y-97461232D01*
X127716928Y-97359414D01*
X127839414Y-97236928D01*
X127941232Y-97096788D01*
X128019873Y-96942445D01*
X128073402Y-96777701D01*
X128083903Y-96711399D01*
X131350500Y-96711399D01*
X131350500Y-96836601D01*
X131382905Y-96957536D01*
X131445505Y-97065964D01*
X131534036Y-97154495D01*
X131642464Y-97217095D01*
X131763399Y-97249500D01*
X131763401Y-97249500D01*
X131888599Y-97249500D01*
X131888601Y-97249500D01*
X132009536Y-97217095D01*
X132117964Y-97154495D01*
X132206495Y-97065964D01*
X132269095Y-96957536D01*
X132301500Y-96836601D01*
X132301500Y-96711399D01*
X132269095Y-96590464D01*
X132206495Y-96482036D01*
X132117964Y-96393505D01*
X132009536Y-96330905D01*
X132009537Y-96330905D01*
X131969224Y-96320103D01*
X131888601Y-96298500D01*
X131763399Y-96298500D01*
X131682775Y-96320103D01*
X131642463Y-96330905D01*
X131534037Y-96393504D01*
X131534034Y-96393506D01*
X131445506Y-96482034D01*
X131445504Y-96482037D01*
X131382905Y-96590463D01*
X131374455Y-96622000D01*
X131350500Y-96711399D01*
X128083903Y-96711399D01*
X128100500Y-96606611D01*
X128100500Y-96433389D01*
X128073402Y-96262299D01*
X128019873Y-96097555D01*
X128012915Y-96083899D01*
X150520000Y-96083899D01*
X150520000Y-96209101D01*
X150552405Y-96330036D01*
X150615005Y-96438464D01*
X150703536Y-96526995D01*
X150811964Y-96589595D01*
X150932899Y-96622000D01*
X150932901Y-96622000D01*
X151058097Y-96622000D01*
X151058101Y-96622000D01*
X151058104Y-96621998D01*
X151061460Y-96621557D01*
X151064302Y-96622000D01*
X151066229Y-96622000D01*
X151066229Y-96622300D01*
X151130496Y-96632318D01*
X151182755Y-96678694D01*
X151192215Y-96697041D01*
X151194905Y-96703536D01*
X151257505Y-96811964D01*
X151346036Y-96900495D01*
X151454464Y-96963095D01*
X151575399Y-96995500D01*
X151575401Y-96995500D01*
X151700599Y-96995500D01*
X151700601Y-96995500D01*
X151821536Y-96963095D01*
X151929964Y-96900495D01*
X152018495Y-96811964D01*
X152081095Y-96703536D01*
X152113500Y-96582601D01*
X152113500Y-96457399D01*
X152107066Y-96433389D01*
X163999500Y-96433389D01*
X163999500Y-96606611D01*
X164026598Y-96777701D01*
X164080127Y-96942445D01*
X164158768Y-97096788D01*
X164260586Y-97236928D01*
X164383072Y-97359414D01*
X164523212Y-97461232D01*
X164677555Y-97539873D01*
X164842299Y-97593402D01*
X165013389Y-97620500D01*
X165013390Y-97620500D01*
X165186610Y-97620500D01*
X165186611Y-97620500D01*
X165357701Y-97593402D01*
X165522445Y-97539873D01*
X165676788Y-97461232D01*
X165816928Y-97359414D01*
X165939414Y-97236928D01*
X166041232Y-97096788D01*
X166119873Y-96942445D01*
X166173402Y-96777701D01*
X166200500Y-96606611D01*
X166200500Y-96433389D01*
X166173402Y-96262299D01*
X166119873Y-96097555D01*
X166041232Y-95943212D01*
X165939414Y-95803072D01*
X165816928Y-95680586D01*
X165676788Y-95578768D01*
X165522445Y-95500127D01*
X165357701Y-95446598D01*
X165357699Y-95446597D01*
X165357698Y-95446597D01*
X165226271Y-95425781D01*
X165186611Y-95419500D01*
X165013389Y-95419500D01*
X164973728Y-95425781D01*
X164842302Y-95446597D01*
X164677552Y-95500128D01*
X164523211Y-95578768D01*
X164443256Y-95636859D01*
X164383072Y-95680586D01*
X164383070Y-95680588D01*
X164383069Y-95680588D01*
X164260588Y-95803069D01*
X164260588Y-95803070D01*
X164260586Y-95803072D01*
X164223197Y-95854534D01*
X164158768Y-95943211D01*
X164080128Y-96097552D01*
X164026597Y-96262302D01*
X164014851Y-96336464D01*
X163999500Y-96433389D01*
X152107066Y-96433389D01*
X152081095Y-96336464D01*
X152018495Y-96228036D01*
X151929964Y-96139505D01*
X151821536Y-96076905D01*
X151821537Y-96076905D01*
X151781224Y-96066103D01*
X151700601Y-96044500D01*
X151575399Y-96044500D01*
X151572026Y-96044944D01*
X151569179Y-96044500D01*
X151567272Y-96044500D01*
X151567272Y-96044202D01*
X151502991Y-96034176D01*
X151450737Y-95987794D01*
X151441283Y-95969454D01*
X151438595Y-95962965D01*
X151438595Y-95962964D01*
X151375995Y-95854536D01*
X151287464Y-95766005D01*
X151179036Y-95703405D01*
X151179037Y-95703405D01*
X151138724Y-95692603D01*
X151058101Y-95671000D01*
X150932899Y-95671000D01*
X150852275Y-95692603D01*
X150811963Y-95703405D01*
X150703537Y-95766004D01*
X150703534Y-95766006D01*
X150615006Y-95854534D01*
X150615004Y-95854537D01*
X150552405Y-95962963D01*
X150550666Y-95969454D01*
X150520000Y-96083899D01*
X128012915Y-96083899D01*
X127941232Y-95943212D01*
X127839414Y-95803072D01*
X127716928Y-95680586D01*
X127576788Y-95578768D01*
X127422445Y-95500127D01*
X127257701Y-95446598D01*
X127257699Y-95446597D01*
X127257698Y-95446597D01*
X127126271Y-95425781D01*
X127086611Y-95419500D01*
X126913389Y-95419500D01*
X126873728Y-95425781D01*
X126742302Y-95446597D01*
X126577552Y-95500128D01*
X126423211Y-95578768D01*
X126343256Y-95636859D01*
X126283072Y-95680586D01*
X126283070Y-95680588D01*
X126283069Y-95680588D01*
X126160588Y-95803069D01*
X126160588Y-95803070D01*
X126160586Y-95803072D01*
X126123197Y-95854534D01*
X126058768Y-95943211D01*
X125980128Y-96097552D01*
X125926597Y-96262302D01*
X125914851Y-96336464D01*
X125899500Y-96433389D01*
X124550500Y-96433389D01*
X124550500Y-93893389D01*
X125899500Y-93893389D01*
X125899500Y-94066611D01*
X125926598Y-94237701D01*
X125975594Y-94388495D01*
X125980128Y-94402447D01*
X126042523Y-94524905D01*
X126058768Y-94556788D01*
X126160586Y-94696928D01*
X126283072Y-94819414D01*
X126423212Y-94921232D01*
X126577555Y-94999873D01*
X126742299Y-95053402D01*
X126913389Y-95080500D01*
X126913390Y-95080500D01*
X127086610Y-95080500D01*
X127086611Y-95080500D01*
X127257701Y-95053402D01*
X127422445Y-94999873D01*
X127552909Y-94933399D01*
X141764500Y-94933399D01*
X141764500Y-95058601D01*
X141796905Y-95179536D01*
X141859505Y-95287964D01*
X141948036Y-95376495D01*
X142056464Y-95439095D01*
X142177399Y-95471500D01*
X142177401Y-95471500D01*
X142302599Y-95471500D01*
X142302601Y-95471500D01*
X142423536Y-95439095D01*
X142531964Y-95376495D01*
X142620495Y-95287964D01*
X142683095Y-95179536D01*
X142715500Y-95058601D01*
X142715500Y-94933399D01*
X142707997Y-94905399D01*
X145701500Y-94905399D01*
X145701500Y-95030601D01*
X145733905Y-95151536D01*
X145796505Y-95259964D01*
X145885036Y-95348495D01*
X145993464Y-95411095D01*
X146114399Y-95443500D01*
X146114401Y-95443500D01*
X146239599Y-95443500D01*
X146239601Y-95443500D01*
X146360536Y-95411095D01*
X146468964Y-95348495D01*
X146557495Y-95259964D01*
X146620095Y-95151536D01*
X146652500Y-95030601D01*
X146652500Y-94905399D01*
X147987500Y-94905399D01*
X147987500Y-95030601D01*
X148019905Y-95151536D01*
X148082505Y-95259964D01*
X148171036Y-95348495D01*
X148279464Y-95411095D01*
X148400399Y-95443500D01*
X148400401Y-95443500D01*
X148525599Y-95443500D01*
X148525601Y-95443500D01*
X148646536Y-95411095D01*
X148754964Y-95348495D01*
X148805819Y-95297640D01*
X148867142Y-95264155D01*
X148936834Y-95269139D01*
X148981181Y-95297640D01*
X149060036Y-95376495D01*
X149168464Y-95439095D01*
X149289399Y-95471500D01*
X149289401Y-95471500D01*
X149414599Y-95471500D01*
X149414601Y-95471500D01*
X149535536Y-95439095D01*
X149643964Y-95376495D01*
X149732495Y-95287964D01*
X149795095Y-95179536D01*
X149827500Y-95058601D01*
X149827500Y-94933399D01*
X149795095Y-94812464D01*
X149732495Y-94704036D01*
X149643964Y-94615505D01*
X149535536Y-94552905D01*
X149535537Y-94552905D01*
X149495224Y-94542103D01*
X149414601Y-94520500D01*
X149289399Y-94520500D01*
X149208775Y-94542103D01*
X149168463Y-94552905D01*
X149060037Y-94615504D01*
X149060034Y-94615506D01*
X149009181Y-94666360D01*
X148947858Y-94699845D01*
X148878166Y-94694861D01*
X148833819Y-94666360D01*
X148754965Y-94587506D01*
X148754964Y-94587505D01*
X148646536Y-94524905D01*
X148646537Y-94524905D01*
X148606224Y-94514103D01*
X148525601Y-94492500D01*
X148400399Y-94492500D01*
X148319775Y-94514103D01*
X148279463Y-94524905D01*
X148171037Y-94587504D01*
X148171034Y-94587506D01*
X148082506Y-94676034D01*
X148082504Y-94676037D01*
X148019905Y-94784463D01*
X148012402Y-94812464D01*
X147987500Y-94905399D01*
X146652500Y-94905399D01*
X146620095Y-94784464D01*
X146557495Y-94676036D01*
X146468964Y-94587505D01*
X146360536Y-94524905D01*
X146360537Y-94524905D01*
X146320224Y-94514103D01*
X146239601Y-94492500D01*
X146114399Y-94492500D01*
X146033775Y-94514103D01*
X145993463Y-94524905D01*
X145885037Y-94587504D01*
X145885034Y-94587506D01*
X145796506Y-94676034D01*
X145796504Y-94676037D01*
X145733905Y-94784463D01*
X145726402Y-94812464D01*
X145701500Y-94905399D01*
X142707997Y-94905399D01*
X142683095Y-94812464D01*
X142620495Y-94704036D01*
X142531964Y-94615505D01*
X142423536Y-94552905D01*
X142423537Y-94552905D01*
X142383224Y-94542103D01*
X142302601Y-94520500D01*
X142177399Y-94520500D01*
X142096775Y-94542103D01*
X142056463Y-94552905D01*
X141948037Y-94615504D01*
X141948034Y-94615506D01*
X141859506Y-94704034D01*
X141859504Y-94704037D01*
X141796905Y-94812463D01*
X141780702Y-94872931D01*
X141764500Y-94933399D01*
X127552909Y-94933399D01*
X127576788Y-94921232D01*
X127716928Y-94819414D01*
X127839414Y-94696928D01*
X127941232Y-94556788D01*
X128019873Y-94402445D01*
X128073402Y-94237701D01*
X128100500Y-94066611D01*
X128100500Y-93945399D01*
X155353500Y-93945399D01*
X155353500Y-94070601D01*
X155385905Y-94191536D01*
X155448505Y-94299964D01*
X155537036Y-94388495D01*
X155645464Y-94451095D01*
X155766399Y-94483500D01*
X155766401Y-94483500D01*
X155891599Y-94483500D01*
X155891601Y-94483500D01*
X156012536Y-94451095D01*
X156120964Y-94388495D01*
X156209495Y-94299964D01*
X156272095Y-94191536D01*
X156304500Y-94070601D01*
X156304500Y-93945399D01*
X156290564Y-93893389D01*
X163999500Y-93893389D01*
X163999500Y-94066611D01*
X164026598Y-94237701D01*
X164075594Y-94388495D01*
X164080128Y-94402447D01*
X164142523Y-94524905D01*
X164158768Y-94556788D01*
X164260586Y-94696928D01*
X164383072Y-94819414D01*
X164523212Y-94921232D01*
X164677555Y-94999873D01*
X164842299Y-95053402D01*
X165013389Y-95080500D01*
X165013390Y-95080500D01*
X165186610Y-95080500D01*
X165186611Y-95080500D01*
X165357701Y-95053402D01*
X165522445Y-94999873D01*
X165676788Y-94921232D01*
X165816928Y-94819414D01*
X165939414Y-94696928D01*
X166041232Y-94556788D01*
X166119873Y-94402445D01*
X166173402Y-94237701D01*
X166200500Y-94066611D01*
X166200500Y-93893389D01*
X166173402Y-93722299D01*
X166119873Y-93557555D01*
X166041232Y-93403212D01*
X165939414Y-93263072D01*
X165816928Y-93140586D01*
X165676788Y-93038768D01*
X165522445Y-92960127D01*
X165357701Y-92906598D01*
X165357699Y-92906597D01*
X165357698Y-92906597D01*
X165226271Y-92885781D01*
X165186611Y-92879500D01*
X165013389Y-92879500D01*
X164973728Y-92885781D01*
X164842302Y-92906597D01*
X164677552Y-92960128D01*
X164523211Y-93038768D01*
X164443256Y-93096859D01*
X164383072Y-93140586D01*
X164383070Y-93140588D01*
X164383069Y-93140588D01*
X164260588Y-93263069D01*
X164260588Y-93263070D01*
X164260586Y-93263072D01*
X164216859Y-93323256D01*
X164158768Y-93403211D01*
X164080128Y-93557552D01*
X164026597Y-93722302D01*
X163999500Y-93893389D01*
X156290564Y-93893389D01*
X156272095Y-93824464D01*
X156209495Y-93716036D01*
X156120964Y-93627505D01*
X156012536Y-93564905D01*
X156012537Y-93564905D01*
X155972224Y-93554103D01*
X155891601Y-93532500D01*
X155766399Y-93532500D01*
X155685775Y-93554103D01*
X155645463Y-93564905D01*
X155537037Y-93627504D01*
X155537034Y-93627506D01*
X155448506Y-93716034D01*
X155448504Y-93716037D01*
X155385905Y-93824463D01*
X155385905Y-93824464D01*
X155353500Y-93945399D01*
X128100500Y-93945399D01*
X128100500Y-93893389D01*
X128073402Y-93722299D01*
X128019873Y-93557555D01*
X127941232Y-93403212D01*
X127839414Y-93263072D01*
X127716928Y-93140586D01*
X127646858Y-93089677D01*
X127576786Y-93038766D01*
X127508073Y-93003756D01*
X127508072Y-93003756D01*
X127422447Y-92960128D01*
X127422446Y-92960127D01*
X127422445Y-92960127D01*
X127257701Y-92906598D01*
X127257699Y-92906597D01*
X127257698Y-92906597D01*
X127224879Y-92901399D01*
X142272500Y-92901399D01*
X142272500Y-93026601D01*
X142304905Y-93147536D01*
X142367505Y-93255964D01*
X142456036Y-93344495D01*
X142564464Y-93407095D01*
X142685399Y-93439500D01*
X142685401Y-93439500D01*
X142810599Y-93439500D01*
X142810601Y-93439500D01*
X142931536Y-93407095D01*
X143039964Y-93344495D01*
X143128495Y-93255964D01*
X143191095Y-93147536D01*
X143223500Y-93026601D01*
X143223500Y-92901399D01*
X143542500Y-92901399D01*
X143542500Y-93026601D01*
X143574905Y-93147536D01*
X143637505Y-93255964D01*
X143726036Y-93344495D01*
X143834464Y-93407095D01*
X143955399Y-93439500D01*
X143955401Y-93439500D01*
X144080599Y-93439500D01*
X144080601Y-93439500D01*
X144201536Y-93407095D01*
X144309964Y-93344495D01*
X144398495Y-93255964D01*
X144461095Y-93147536D01*
X144493500Y-93026601D01*
X144493500Y-92901399D01*
X144461095Y-92780464D01*
X144424108Y-92716399D01*
X145959500Y-92716399D01*
X145959500Y-92841601D01*
X145991905Y-92962536D01*
X146054505Y-93070964D01*
X146143036Y-93159495D01*
X146251464Y-93222095D01*
X146372399Y-93254500D01*
X146372401Y-93254500D01*
X146497599Y-93254500D01*
X146497601Y-93254500D01*
X146618536Y-93222095D01*
X146726964Y-93159495D01*
X146731060Y-93155399D01*
X151416500Y-93155399D01*
X151416500Y-93280601D01*
X151448905Y-93401536D01*
X151511505Y-93509964D01*
X151600036Y-93598495D01*
X151708464Y-93661095D01*
X151829399Y-93693500D01*
X151829401Y-93693500D01*
X151954599Y-93693500D01*
X151954601Y-93693500D01*
X152075536Y-93661095D01*
X152183964Y-93598495D01*
X152185319Y-93597140D01*
X152186741Y-93596363D01*
X152190409Y-93593549D01*
X152190847Y-93594120D01*
X152246642Y-93563655D01*
X152316334Y-93568639D01*
X152355426Y-93593763D01*
X152355591Y-93593549D01*
X152358155Y-93595516D01*
X152360681Y-93597140D01*
X152362036Y-93598495D01*
X152470464Y-93661095D01*
X152591399Y-93693500D01*
X152591401Y-93693500D01*
X152716599Y-93693500D01*
X152716601Y-93693500D01*
X152837536Y-93661095D01*
X152945964Y-93598495D01*
X152947319Y-93597140D01*
X152948741Y-93596363D01*
X152952409Y-93593549D01*
X152952847Y-93594120D01*
X153008642Y-93563655D01*
X153078334Y-93568639D01*
X153117426Y-93593763D01*
X153117591Y-93593549D01*
X153120155Y-93595516D01*
X153122681Y-93597140D01*
X153124036Y-93598495D01*
X153232464Y-93661095D01*
X153353399Y-93693500D01*
X153353401Y-93693500D01*
X153478599Y-93693500D01*
X153478601Y-93693500D01*
X153599536Y-93661095D01*
X153707964Y-93598495D01*
X153709319Y-93597140D01*
X153710741Y-93596363D01*
X153714409Y-93593549D01*
X153714847Y-93594120D01*
X153770642Y-93563655D01*
X153840334Y-93568639D01*
X153879426Y-93593763D01*
X153879591Y-93593549D01*
X153882155Y-93595516D01*
X153884681Y-93597140D01*
X153886036Y-93598495D01*
X153994464Y-93661095D01*
X154115399Y-93693500D01*
X154115401Y-93693500D01*
X154240599Y-93693500D01*
X154240601Y-93693500D01*
X154361536Y-93661095D01*
X154469964Y-93598495D01*
X154558495Y-93509964D01*
X154621095Y-93401536D01*
X154653500Y-93280601D01*
X154653500Y-93155399D01*
X154621095Y-93034464D01*
X154558495Y-92926036D01*
X154469964Y-92837505D01*
X154361536Y-92774905D01*
X154361537Y-92774905D01*
X154321224Y-92764103D01*
X154240601Y-92742500D01*
X154115399Y-92742500D01*
X154034775Y-92764103D01*
X153994463Y-92774905D01*
X153886037Y-92837504D01*
X153886031Y-92837508D01*
X153884675Y-92838865D01*
X153883250Y-92839642D01*
X153879591Y-92842451D01*
X153879152Y-92841879D01*
X153823350Y-92872346D01*
X153753658Y-92867357D01*
X153714572Y-92842237D01*
X153714409Y-92842451D01*
X153711853Y-92840490D01*
X153709325Y-92838865D01*
X153707968Y-92837508D01*
X153707962Y-92837504D01*
X153599536Y-92774905D01*
X153599537Y-92774905D01*
X153559224Y-92764103D01*
X153478601Y-92742500D01*
X153353399Y-92742500D01*
X153272775Y-92764103D01*
X153232463Y-92774905D01*
X153124037Y-92837504D01*
X153124031Y-92837508D01*
X153122675Y-92838865D01*
X153121250Y-92839642D01*
X153117591Y-92842451D01*
X153117152Y-92841879D01*
X153061350Y-92872346D01*
X152991658Y-92867357D01*
X152952572Y-92842237D01*
X152952409Y-92842451D01*
X152949853Y-92840490D01*
X152947325Y-92838865D01*
X152945968Y-92837508D01*
X152945962Y-92837504D01*
X152837536Y-92774905D01*
X152837537Y-92774905D01*
X152797224Y-92764103D01*
X152716601Y-92742500D01*
X152591399Y-92742500D01*
X152510775Y-92764103D01*
X152470463Y-92774905D01*
X152362037Y-92837504D01*
X152362031Y-92837508D01*
X152360675Y-92838865D01*
X152359250Y-92839642D01*
X152355591Y-92842451D01*
X152355152Y-92841879D01*
X152299350Y-92872346D01*
X152229658Y-92867357D01*
X152190572Y-92842237D01*
X152190409Y-92842451D01*
X152187853Y-92840490D01*
X152185325Y-92838865D01*
X152183968Y-92837508D01*
X152183962Y-92837504D01*
X152075536Y-92774905D01*
X152075537Y-92774905D01*
X152035224Y-92764103D01*
X151954601Y-92742500D01*
X151829399Y-92742500D01*
X151748775Y-92764103D01*
X151708463Y-92774905D01*
X151600037Y-92837504D01*
X151600034Y-92837506D01*
X151511506Y-92926034D01*
X151511504Y-92926037D01*
X151448905Y-93034463D01*
X151439125Y-93070962D01*
X151416500Y-93155399D01*
X146731060Y-93155399D01*
X146815495Y-93070964D01*
X146878095Y-92962536D01*
X146910500Y-92841601D01*
X146910500Y-92716399D01*
X146878095Y-92595464D01*
X146815495Y-92487036D01*
X146726964Y-92398505D01*
X146618536Y-92335905D01*
X146618537Y-92335905D01*
X146578224Y-92325103D01*
X146497601Y-92303500D01*
X146372399Y-92303500D01*
X146291775Y-92325103D01*
X146251463Y-92335905D01*
X146143037Y-92398504D01*
X146143034Y-92398506D01*
X146054506Y-92487034D01*
X146054504Y-92487037D01*
X145991905Y-92595463D01*
X145991905Y-92595464D01*
X145959500Y-92716399D01*
X144424108Y-92716399D01*
X144398495Y-92672036D01*
X144309964Y-92583505D01*
X144201536Y-92520905D01*
X144201537Y-92520905D01*
X144161224Y-92510103D01*
X144080601Y-92488500D01*
X143955399Y-92488500D01*
X143874775Y-92510103D01*
X143834463Y-92520905D01*
X143726037Y-92583504D01*
X143726034Y-92583506D01*
X143637506Y-92672034D01*
X143637504Y-92672037D01*
X143574905Y-92780463D01*
X143574905Y-92780464D01*
X143542500Y-92901399D01*
X143223500Y-92901399D01*
X143191095Y-92780464D01*
X143128495Y-92672036D01*
X143039964Y-92583505D01*
X142931536Y-92520905D01*
X142931537Y-92520905D01*
X142891224Y-92510103D01*
X142810601Y-92488500D01*
X142685399Y-92488500D01*
X142604775Y-92510103D01*
X142564463Y-92520905D01*
X142456037Y-92583504D01*
X142456034Y-92583506D01*
X142367506Y-92672034D01*
X142367504Y-92672037D01*
X142304905Y-92780463D01*
X142304905Y-92780464D01*
X142272500Y-92901399D01*
X127224879Y-92901399D01*
X127126271Y-92885781D01*
X127086611Y-92879500D01*
X126913389Y-92879500D01*
X126873728Y-92885781D01*
X126742302Y-92906597D01*
X126577552Y-92960128D01*
X126423211Y-93038768D01*
X126343256Y-93096859D01*
X126283072Y-93140586D01*
X126283070Y-93140588D01*
X126283069Y-93140588D01*
X126160588Y-93263069D01*
X126160588Y-93263070D01*
X126160586Y-93263072D01*
X126116859Y-93323256D01*
X126058768Y-93403211D01*
X125980128Y-93557552D01*
X125926597Y-93722302D01*
X125899500Y-93893389D01*
X124550500Y-93893389D01*
X124550500Y-91353389D01*
X125899500Y-91353389D01*
X125899500Y-91526611D01*
X125926598Y-91697701D01*
X125980127Y-91862445D01*
X126058768Y-92016788D01*
X126160586Y-92156928D01*
X126283072Y-92279414D01*
X126423212Y-92381232D01*
X126577555Y-92459873D01*
X126742299Y-92513402D01*
X126913389Y-92540500D01*
X126913390Y-92540500D01*
X127086610Y-92540500D01*
X127086611Y-92540500D01*
X127257701Y-92513402D01*
X127422445Y-92459873D01*
X127576788Y-92381232D01*
X127716928Y-92279414D01*
X127839414Y-92156928D01*
X127941232Y-92016788D01*
X128019873Y-91862445D01*
X128073402Y-91697701D01*
X128100500Y-91526611D01*
X128100500Y-91353389D01*
X128099868Y-91349399D01*
X141129500Y-91349399D01*
X141129500Y-91474601D01*
X141161905Y-91595536D01*
X141224505Y-91703964D01*
X141313036Y-91792495D01*
X141421464Y-91855095D01*
X141542399Y-91887500D01*
X141542401Y-91887500D01*
X141667599Y-91887500D01*
X141667601Y-91887500D01*
X141788536Y-91855095D01*
X141896964Y-91792495D01*
X141985495Y-91703964D01*
X142048095Y-91595536D01*
X142080500Y-91474601D01*
X142080500Y-91353389D01*
X163999500Y-91353389D01*
X163999500Y-91526611D01*
X164026598Y-91697701D01*
X164080127Y-91862445D01*
X164158768Y-92016788D01*
X164260586Y-92156928D01*
X164383072Y-92279414D01*
X164523212Y-92381232D01*
X164677555Y-92459873D01*
X164842299Y-92513402D01*
X165013389Y-92540500D01*
X165013390Y-92540500D01*
X165186610Y-92540500D01*
X165186611Y-92540500D01*
X165357701Y-92513402D01*
X165522445Y-92459873D01*
X165676788Y-92381232D01*
X165816928Y-92279414D01*
X165939414Y-92156928D01*
X166041232Y-92016788D01*
X166119873Y-91862445D01*
X166173402Y-91697701D01*
X166200500Y-91526611D01*
X166200500Y-91353389D01*
X166173402Y-91182299D01*
X166119873Y-91017555D01*
X166041232Y-90863212D01*
X165939414Y-90723072D01*
X165816928Y-90600586D01*
X165676788Y-90498768D01*
X165522445Y-90420127D01*
X165357701Y-90366598D01*
X165357699Y-90366597D01*
X165357698Y-90366597D01*
X165226271Y-90345781D01*
X165186611Y-90339500D01*
X165013389Y-90339500D01*
X164973728Y-90345781D01*
X164842302Y-90366597D01*
X164677552Y-90420128D01*
X164523211Y-90498768D01*
X164443256Y-90556859D01*
X164383072Y-90600586D01*
X164383070Y-90600588D01*
X164383069Y-90600588D01*
X164260588Y-90723069D01*
X164260588Y-90723070D01*
X164260586Y-90723072D01*
X164216859Y-90783256D01*
X164158768Y-90863211D01*
X164080128Y-91017552D01*
X164026597Y-91182302D01*
X164019286Y-91228463D01*
X163999500Y-91353389D01*
X142080500Y-91353389D01*
X142080500Y-91349399D01*
X142048095Y-91228464D01*
X141985495Y-91120036D01*
X141896964Y-91031505D01*
X141788536Y-90968905D01*
X141788537Y-90968905D01*
X141748224Y-90958103D01*
X141667601Y-90936500D01*
X141542399Y-90936500D01*
X141461775Y-90958103D01*
X141421463Y-90968905D01*
X141313037Y-91031504D01*
X141313034Y-91031506D01*
X141224506Y-91120034D01*
X141224504Y-91120037D01*
X141161905Y-91228463D01*
X141161905Y-91228464D01*
X141129500Y-91349399D01*
X128099868Y-91349399D01*
X128073402Y-91182299D01*
X128019873Y-91017555D01*
X127941232Y-90863212D01*
X127839414Y-90723072D01*
X127716928Y-90600586D01*
X127576788Y-90498768D01*
X127422445Y-90420127D01*
X127257701Y-90366598D01*
X127257699Y-90366597D01*
X127257698Y-90366597D01*
X127126271Y-90345781D01*
X127086611Y-90339500D01*
X126913389Y-90339500D01*
X126873728Y-90345781D01*
X126742302Y-90366597D01*
X126577552Y-90420128D01*
X126423211Y-90498768D01*
X126343256Y-90556859D01*
X126283072Y-90600586D01*
X126283070Y-90600588D01*
X126283069Y-90600588D01*
X126160588Y-90723069D01*
X126160588Y-90723070D01*
X126160586Y-90723072D01*
X126116859Y-90783256D01*
X126058768Y-90863211D01*
X125980128Y-91017552D01*
X125926597Y-91182302D01*
X125919286Y-91228463D01*
X125899500Y-91353389D01*
X124550500Y-91353389D01*
X124550500Y-88813389D01*
X125899500Y-88813389D01*
X125899500Y-88986611D01*
X125905817Y-89026493D01*
X125917509Y-89100319D01*
X125926598Y-89157701D01*
X125974444Y-89304956D01*
X125980128Y-89322447D01*
X126044094Y-89447989D01*
X126058768Y-89476788D01*
X126160586Y-89616928D01*
X126283072Y-89739414D01*
X126423212Y-89841232D01*
X126577555Y-89919873D01*
X126742299Y-89973402D01*
X126913389Y-90000500D01*
X126913390Y-90000500D01*
X127086610Y-90000500D01*
X127086611Y-90000500D01*
X127257701Y-89973402D01*
X127422445Y-89919873D01*
X127552909Y-89853399D01*
X139478500Y-89853399D01*
X139478500Y-89978601D01*
X139510905Y-90099536D01*
X139573505Y-90207964D01*
X139662036Y-90296495D01*
X139770464Y-90359095D01*
X139891399Y-90391500D01*
X139891401Y-90391500D01*
X140016599Y-90391500D01*
X140016601Y-90391500D01*
X140137536Y-90359095D01*
X140245964Y-90296495D01*
X140334495Y-90207964D01*
X140397095Y-90099536D01*
X140429500Y-89978601D01*
X140429500Y-89853399D01*
X140397095Y-89732464D01*
X140334495Y-89624036D01*
X140245964Y-89535505D01*
X140137536Y-89472905D01*
X140137537Y-89472905D01*
X140097224Y-89462103D01*
X140016601Y-89440500D01*
X139891399Y-89440500D01*
X139810775Y-89462103D01*
X139770463Y-89472905D01*
X139662037Y-89535504D01*
X139662034Y-89535506D01*
X139573506Y-89624034D01*
X139573504Y-89624037D01*
X139510905Y-89732463D01*
X139500103Y-89772777D01*
X139478500Y-89853399D01*
X127552909Y-89853399D01*
X127576788Y-89841232D01*
X127716928Y-89739414D01*
X127839414Y-89616928D01*
X127941232Y-89476788D01*
X128019873Y-89322445D01*
X128073402Y-89157701D01*
X128100500Y-88986611D01*
X128100500Y-88813389D01*
X128073402Y-88642299D01*
X128019873Y-88477555D01*
X127941232Y-88323212D01*
X127839414Y-88183072D01*
X127716928Y-88060586D01*
X127576788Y-87958768D01*
X127422445Y-87880127D01*
X127257701Y-87826598D01*
X127257699Y-87826597D01*
X127257698Y-87826597D01*
X127126271Y-87805781D01*
X127086611Y-87799500D01*
X126913389Y-87799500D01*
X126873728Y-87805781D01*
X126742302Y-87826597D01*
X126577552Y-87880128D01*
X126423211Y-87958768D01*
X126350627Y-88011504D01*
X126283072Y-88060586D01*
X126283070Y-88060588D01*
X126283069Y-88060588D01*
X126160588Y-88183069D01*
X126160588Y-88183070D01*
X126160586Y-88183072D01*
X126123864Y-88233615D01*
X126058768Y-88323211D01*
X125980128Y-88477552D01*
X125926597Y-88642302D01*
X125914851Y-88716464D01*
X125899500Y-88813389D01*
X124550500Y-88813389D01*
X124550500Y-78633753D01*
X125650000Y-78633753D01*
X125650000Y-78846246D01*
X125683242Y-79056127D01*
X125683242Y-79056130D01*
X125748904Y-79258217D01*
X125845375Y-79447550D01*
X125884728Y-79501716D01*
X126517037Y-78869408D01*
X126534075Y-78932993D01*
X126599901Y-79047007D01*
X126692993Y-79140099D01*
X126807007Y-79205925D01*
X126870590Y-79222962D01*
X126238282Y-79855269D01*
X126238282Y-79855270D01*
X126292449Y-79894624D01*
X126481784Y-79991096D01*
X126580711Y-80023239D01*
X126638387Y-80062676D01*
X126665586Y-80127034D01*
X126653672Y-80195881D01*
X126606428Y-80247357D01*
X126580722Y-80259097D01*
X126579522Y-80259487D01*
X126577550Y-80260128D01*
X126423211Y-80338768D01*
X126343256Y-80396859D01*
X126283072Y-80440586D01*
X126283070Y-80440588D01*
X126283069Y-80440588D01*
X126160588Y-80563069D01*
X126160588Y-80563070D01*
X126160586Y-80563072D01*
X126131533Y-80603060D01*
X126058768Y-80703211D01*
X125980128Y-80857552D01*
X125926597Y-81022302D01*
X125899500Y-81193389D01*
X125899500Y-81366610D01*
X125919998Y-81496034D01*
X125926598Y-81537701D01*
X125966824Y-81661504D01*
X125980128Y-81702447D01*
X126055615Y-81850599D01*
X126058768Y-81856788D01*
X126160586Y-81996928D01*
X126283072Y-82119414D01*
X126423212Y-82221232D01*
X126577555Y-82299873D01*
X126580708Y-82300897D01*
X126581752Y-82301611D01*
X126582048Y-82301734D01*
X126582022Y-82301795D01*
X126638383Y-82340330D01*
X126665585Y-82404688D01*
X126653674Y-82473535D01*
X126606433Y-82525013D01*
X126580712Y-82536760D01*
X126481783Y-82568904D01*
X126292439Y-82665380D01*
X126238282Y-82704727D01*
X126238282Y-82704728D01*
X126870591Y-83337037D01*
X126807007Y-83354075D01*
X126692993Y-83419901D01*
X126599901Y-83512993D01*
X126534075Y-83627007D01*
X126517037Y-83690591D01*
X125884728Y-83058282D01*
X125884727Y-83058282D01*
X125845380Y-83112439D01*
X125748904Y-83301782D01*
X125683242Y-83503869D01*
X125683242Y-83503872D01*
X125650000Y-83713753D01*
X125650000Y-83926246D01*
X125683242Y-84136127D01*
X125683242Y-84136130D01*
X125748904Y-84338217D01*
X125845375Y-84527550D01*
X125884728Y-84581716D01*
X126517037Y-83949408D01*
X126534075Y-84012993D01*
X126599901Y-84127007D01*
X126692993Y-84220099D01*
X126807007Y-84285925D01*
X126870590Y-84302962D01*
X126238282Y-84935269D01*
X126238282Y-84935270D01*
X126292449Y-84974624D01*
X126481784Y-85071096D01*
X126580711Y-85103239D01*
X126638387Y-85142676D01*
X126665586Y-85207034D01*
X126653672Y-85275881D01*
X126606428Y-85327357D01*
X126580722Y-85339097D01*
X126579522Y-85339487D01*
X126577550Y-85340128D01*
X126423211Y-85418768D01*
X126352019Y-85470493D01*
X126283072Y-85520586D01*
X126283070Y-85520588D01*
X126283069Y-85520588D01*
X126160588Y-85643069D01*
X126160588Y-85643070D01*
X126160586Y-85643072D01*
X126142138Y-85668464D01*
X126058768Y-85783211D01*
X125980128Y-85937552D01*
X125926597Y-86102302D01*
X125914851Y-86176464D01*
X125899500Y-86273389D01*
X125899500Y-86446611D01*
X125905977Y-86487504D01*
X125919998Y-86576034D01*
X125926598Y-86617701D01*
X125966824Y-86741504D01*
X125980128Y-86782447D01*
X126043062Y-86905962D01*
X126058768Y-86936788D01*
X126160586Y-87076928D01*
X126283072Y-87199414D01*
X126423212Y-87301232D01*
X126577555Y-87379873D01*
X126742299Y-87433402D01*
X126913389Y-87460500D01*
X126913390Y-87460500D01*
X127086610Y-87460500D01*
X127086611Y-87460500D01*
X127257701Y-87433402D01*
X127422445Y-87379873D01*
X127576788Y-87301232D01*
X127716928Y-87199414D01*
X127839414Y-87076928D01*
X127852150Y-87059399D01*
X131336500Y-87059399D01*
X131336500Y-87184601D01*
X131368905Y-87305536D01*
X131431505Y-87413964D01*
X131520036Y-87502495D01*
X131628464Y-87565095D01*
X131749399Y-87597500D01*
X131749401Y-87597500D01*
X131874599Y-87597500D01*
X131874601Y-87597500D01*
X131995536Y-87565095D01*
X132103964Y-87502495D01*
X132192495Y-87413964D01*
X132250555Y-87313399D01*
X138462500Y-87313399D01*
X138462500Y-87438601D01*
X138494905Y-87559536D01*
X138557505Y-87667964D01*
X138646036Y-87756495D01*
X138754464Y-87819095D01*
X138875399Y-87851500D01*
X138875401Y-87851500D01*
X139000599Y-87851500D01*
X139000601Y-87851500D01*
X139121536Y-87819095D01*
X139229964Y-87756495D01*
X139318495Y-87667964D01*
X139381095Y-87559536D01*
X139413500Y-87438601D01*
X139413500Y-87313399D01*
X139381095Y-87192464D01*
X139318495Y-87084036D01*
X139229964Y-86995505D01*
X139121536Y-86932905D01*
X139121537Y-86932905D01*
X139079883Y-86921744D01*
X139000601Y-86900500D01*
X138875399Y-86900500D01*
X138813650Y-86917046D01*
X138754463Y-86932905D01*
X138646037Y-86995504D01*
X138646034Y-86995506D01*
X138557506Y-87084034D01*
X138557504Y-87084037D01*
X138494905Y-87192463D01*
X138479892Y-87248493D01*
X138462500Y-87313399D01*
X132250555Y-87313399D01*
X132255095Y-87305536D01*
X132287500Y-87184601D01*
X132287500Y-87059399D01*
X132255095Y-86938464D01*
X132192495Y-86830036D01*
X132167858Y-86805399D01*
X142272500Y-86805399D01*
X142272500Y-86930601D01*
X142304905Y-87051536D01*
X142367505Y-87159964D01*
X142456036Y-87248495D01*
X142564464Y-87311095D01*
X142685399Y-87343500D01*
X142685401Y-87343500D01*
X142818729Y-87343500D01*
X142818729Y-87345116D01*
X142878416Y-87354417D01*
X142930678Y-87400790D01*
X142949572Y-87468056D01*
X142929100Y-87534859D01*
X142913263Y-87554277D01*
X142875506Y-87592034D01*
X142875504Y-87592037D01*
X142812905Y-87700463D01*
X142798133Y-87755594D01*
X142780500Y-87821399D01*
X142780500Y-87946601D01*
X142812905Y-88067536D01*
X142875505Y-88175964D01*
X142964036Y-88264495D01*
X143072464Y-88327095D01*
X143131567Y-88342932D01*
X143191226Y-88379296D01*
X143221755Y-88442144D01*
X143213460Y-88511519D01*
X143187154Y-88550387D01*
X143129504Y-88608037D01*
X143066905Y-88716463D01*
X143066905Y-88716464D01*
X143034500Y-88837399D01*
X143034500Y-88962601D01*
X143066905Y-89083536D01*
X143129505Y-89191964D01*
X143218036Y-89280495D01*
X143326464Y-89343095D01*
X143447399Y-89375500D01*
X143447401Y-89375500D01*
X143455458Y-89376561D01*
X143455050Y-89379656D01*
X143507933Y-89395185D01*
X143553688Y-89447989D01*
X143563632Y-89517147D01*
X143560670Y-89531587D01*
X143542500Y-89599399D01*
X143542500Y-89724601D01*
X143574905Y-89845536D01*
X143637505Y-89953964D01*
X143726036Y-90042495D01*
X143834464Y-90105095D01*
X143955399Y-90137500D01*
X143955401Y-90137500D01*
X144080599Y-90137500D01*
X144080601Y-90137500D01*
X144201536Y-90105095D01*
X144309964Y-90042495D01*
X144398495Y-89953964D01*
X144461095Y-89845536D01*
X144493500Y-89724601D01*
X144493500Y-89599399D01*
X145955500Y-89599399D01*
X145955500Y-89724601D01*
X145987905Y-89845536D01*
X146050505Y-89953964D01*
X146139036Y-90042495D01*
X146247464Y-90105095D01*
X146368399Y-90137500D01*
X146368401Y-90137500D01*
X146493599Y-90137500D01*
X146493601Y-90137500D01*
X146614536Y-90105095D01*
X146722964Y-90042495D01*
X146811495Y-89953964D01*
X146874095Y-89845536D01*
X146906500Y-89724601D01*
X146906500Y-89599399D01*
X148368500Y-89599399D01*
X148368500Y-89724601D01*
X148400905Y-89845536D01*
X148463505Y-89953964D01*
X148552036Y-90042495D01*
X148660464Y-90105095D01*
X148781399Y-90137500D01*
X148781401Y-90137500D01*
X148906599Y-90137500D01*
X148906601Y-90137500D01*
X149027536Y-90105095D01*
X149135964Y-90042495D01*
X149224495Y-89953964D01*
X149276701Y-89863538D01*
X149327267Y-89815324D01*
X149395874Y-89802100D01*
X149460739Y-89828068D01*
X149471769Y-89837858D01*
X149495221Y-89861310D01*
X149603649Y-89923910D01*
X149724584Y-89956315D01*
X149724586Y-89956315D01*
X149849784Y-89956315D01*
X149849786Y-89956315D01*
X149970721Y-89923910D01*
X150079149Y-89861310D01*
X150167680Y-89772779D01*
X150230280Y-89664351D01*
X150262685Y-89543416D01*
X150262685Y-89418214D01*
X150230280Y-89297279D01*
X150167680Y-89188851D01*
X150079149Y-89100320D01*
X149970721Y-89037720D01*
X149970722Y-89037720D01*
X149928822Y-89026493D01*
X149849786Y-89005315D01*
X149724584Y-89005315D01*
X149645548Y-89026493D01*
X149603648Y-89037720D01*
X149495222Y-89100319D01*
X149495219Y-89100321D01*
X149406691Y-89188849D01*
X149406687Y-89188854D01*
X149354483Y-89279275D01*
X149303916Y-89327491D01*
X149235309Y-89340713D01*
X149170444Y-89314745D01*
X149159415Y-89304956D01*
X149135965Y-89281506D01*
X149135964Y-89281505D01*
X149027536Y-89218905D01*
X149027537Y-89218905D01*
X148987224Y-89208103D01*
X148906601Y-89186500D01*
X148781399Y-89186500D01*
X148700775Y-89208103D01*
X148660463Y-89218905D01*
X148552037Y-89281504D01*
X148552034Y-89281506D01*
X148463506Y-89370034D01*
X148463504Y-89370037D01*
X148400905Y-89478463D01*
X148400905Y-89478464D01*
X148368500Y-89599399D01*
X146906500Y-89599399D01*
X146874095Y-89478464D01*
X146811495Y-89370036D01*
X146722964Y-89281505D01*
X146614536Y-89218905D01*
X146614537Y-89218905D01*
X146574224Y-89208103D01*
X146493601Y-89186500D01*
X146368399Y-89186500D01*
X146287775Y-89208103D01*
X146247463Y-89218905D01*
X146139037Y-89281504D01*
X146139034Y-89281506D01*
X146050506Y-89370034D01*
X146050504Y-89370037D01*
X145987905Y-89478463D01*
X145987905Y-89478464D01*
X145955500Y-89599399D01*
X144493500Y-89599399D01*
X144461095Y-89478464D01*
X144398495Y-89370036D01*
X144309964Y-89281505D01*
X144201536Y-89218905D01*
X144201537Y-89218905D01*
X144080598Y-89186499D01*
X144072542Y-89185439D01*
X144072949Y-89182343D01*
X144020067Y-89166815D01*
X143974312Y-89114011D01*
X143964368Y-89044853D01*
X143967331Y-89030406D01*
X143968379Y-89026495D01*
X143985500Y-88962601D01*
X143985500Y-88837399D01*
X143953095Y-88716464D01*
X143890495Y-88608036D01*
X143801964Y-88519505D01*
X143693536Y-88456905D01*
X143693531Y-88456903D01*
X143634432Y-88441067D01*
X143629249Y-88437908D01*
X143623193Y-88437475D01*
X143612346Y-88429355D01*
X143599510Y-88425586D01*
X143588848Y-88413282D01*
X143574772Y-88404702D01*
X143572119Y-88399240D01*
X143567260Y-88395603D01*
X143562521Y-88382899D01*
X143553755Y-88372782D01*
X143551437Y-88356662D01*
X143544244Y-88341854D01*
X143544964Y-88335827D01*
X143542843Y-88330139D01*
X143543004Y-88329399D01*
X146590500Y-88329399D01*
X146590500Y-88454601D01*
X146622905Y-88575536D01*
X146685505Y-88683964D01*
X146774036Y-88772495D01*
X146882464Y-88835095D01*
X147003399Y-88867500D01*
X147003401Y-88867500D01*
X147128599Y-88867500D01*
X147128601Y-88867500D01*
X147249536Y-88835095D01*
X147357964Y-88772495D01*
X147412819Y-88717640D01*
X147474142Y-88684155D01*
X147543834Y-88689139D01*
X147588181Y-88717640D01*
X147643036Y-88772495D01*
X147751464Y-88835095D01*
X147872399Y-88867500D01*
X147872401Y-88867500D01*
X147997599Y-88867500D01*
X147997601Y-88867500D01*
X148118536Y-88835095D01*
X148226964Y-88772495D01*
X148315495Y-88683964D01*
X148373555Y-88583399D01*
X153321500Y-88583399D01*
X153321500Y-88708601D01*
X153353905Y-88829536D01*
X153416505Y-88937964D01*
X153505036Y-89026495D01*
X153613464Y-89089095D01*
X153734399Y-89121500D01*
X153734401Y-89121500D01*
X153859599Y-89121500D01*
X153859601Y-89121500D01*
X153980536Y-89089095D01*
X154088964Y-89026495D01*
X154177495Y-88937964D01*
X154240095Y-88829536D01*
X154244422Y-88813389D01*
X163999500Y-88813389D01*
X163999500Y-88986611D01*
X164005817Y-89026493D01*
X164017509Y-89100319D01*
X164026598Y-89157701D01*
X164074444Y-89304956D01*
X164080128Y-89322447D01*
X164144094Y-89447989D01*
X164158768Y-89476788D01*
X164260586Y-89616928D01*
X164383072Y-89739414D01*
X164523212Y-89841232D01*
X164677555Y-89919873D01*
X164842299Y-89973402D01*
X165013389Y-90000500D01*
X165013390Y-90000500D01*
X165186610Y-90000500D01*
X165186611Y-90000500D01*
X165357701Y-89973402D01*
X165522445Y-89919873D01*
X165676788Y-89841232D01*
X165816928Y-89739414D01*
X165939414Y-89616928D01*
X166041232Y-89476788D01*
X166119873Y-89322445D01*
X166173402Y-89157701D01*
X166200500Y-88986611D01*
X166200500Y-88813389D01*
X166173402Y-88642299D01*
X166119873Y-88477555D01*
X166041232Y-88323212D01*
X165939414Y-88183072D01*
X165816928Y-88060586D01*
X165676788Y-87958768D01*
X165522445Y-87880127D01*
X165357701Y-87826598D01*
X165357699Y-87826597D01*
X165357698Y-87826597D01*
X165226271Y-87805781D01*
X165186611Y-87799500D01*
X165013389Y-87799500D01*
X164973728Y-87805781D01*
X164842302Y-87826597D01*
X164677552Y-87880128D01*
X164523211Y-87958768D01*
X164450627Y-88011504D01*
X164383072Y-88060586D01*
X164383070Y-88060588D01*
X164383069Y-88060588D01*
X164260588Y-88183069D01*
X164260588Y-88183070D01*
X164260586Y-88183072D01*
X164223864Y-88233615D01*
X164158768Y-88323211D01*
X164080128Y-88477552D01*
X164026597Y-88642302D01*
X164014851Y-88716464D01*
X163999500Y-88813389D01*
X154244422Y-88813389D01*
X154272500Y-88708601D01*
X154272500Y-88583399D01*
X154240095Y-88462464D01*
X154177495Y-88354036D01*
X154088964Y-88265505D01*
X153980536Y-88202905D01*
X153980537Y-88202905D01*
X153940224Y-88192103D01*
X153859601Y-88170500D01*
X153734399Y-88170500D01*
X153653775Y-88192103D01*
X153613463Y-88202905D01*
X153505037Y-88265504D01*
X153505034Y-88265506D01*
X153416506Y-88354034D01*
X153416504Y-88354037D01*
X153353905Y-88462463D01*
X153338621Y-88519504D01*
X153321500Y-88583399D01*
X148373555Y-88583399D01*
X148378095Y-88575536D01*
X148410500Y-88454601D01*
X148410500Y-88329399D01*
X148378095Y-88208464D01*
X148315495Y-88100036D01*
X148226964Y-88011505D01*
X148118536Y-87948905D01*
X148118537Y-87948905D01*
X148078224Y-87938103D01*
X147997601Y-87916500D01*
X147872399Y-87916500D01*
X147791775Y-87938103D01*
X147751463Y-87948905D01*
X147643037Y-88011504D01*
X147643034Y-88011506D01*
X147588181Y-88066360D01*
X147526858Y-88099845D01*
X147457166Y-88094861D01*
X147412819Y-88066360D01*
X147357965Y-88011506D01*
X147357964Y-88011505D01*
X147249536Y-87948905D01*
X147249537Y-87948905D01*
X147209224Y-87938103D01*
X147128601Y-87916500D01*
X147003399Y-87916500D01*
X146922775Y-87938103D01*
X146882463Y-87948905D01*
X146774037Y-88011504D01*
X146774034Y-88011506D01*
X146685506Y-88100034D01*
X146685504Y-88100037D01*
X146622905Y-88208463D01*
X146613356Y-88244100D01*
X146590500Y-88329399D01*
X143543004Y-88329399D01*
X143545721Y-88316908D01*
X143543811Y-88303624D01*
X143550589Y-88288780D01*
X143552539Y-88272479D01*
X143556734Y-88266279D01*
X143557695Y-88261866D01*
X143570994Y-88244100D01*
X143572836Y-88240068D01*
X143578829Y-88233629D01*
X143636495Y-88175964D01*
X143699095Y-88067536D01*
X143731500Y-87946601D01*
X143731500Y-87821399D01*
X143705134Y-87723001D01*
X143706796Y-87653153D01*
X143745957Y-87595290D01*
X143810186Y-87567785D01*
X143857000Y-87571133D01*
X143955399Y-87597500D01*
X143955400Y-87597500D01*
X144080599Y-87597500D01*
X144080601Y-87597500D01*
X144201536Y-87565095D01*
X144309964Y-87502495D01*
X144398495Y-87413964D01*
X144461095Y-87305536D01*
X144476003Y-87249899D01*
X150083000Y-87249899D01*
X150083000Y-87375101D01*
X150115405Y-87496036D01*
X150178005Y-87604464D01*
X150266536Y-87692995D01*
X150374964Y-87755595D01*
X150495899Y-87788000D01*
X150495901Y-87788000D01*
X150621099Y-87788000D01*
X150621101Y-87788000D01*
X150742036Y-87755595D01*
X150850464Y-87692995D01*
X150938995Y-87604464D01*
X151001595Y-87496036D01*
X151034000Y-87375101D01*
X151034000Y-87249899D01*
X151001595Y-87128964D01*
X150938995Y-87020536D01*
X150850464Y-86932005D01*
X150742036Y-86869405D01*
X150742037Y-86869405D01*
X150701724Y-86858603D01*
X150621101Y-86837000D01*
X150495899Y-86837000D01*
X150415275Y-86858603D01*
X150374963Y-86869405D01*
X150266537Y-86932004D01*
X150266534Y-86932006D01*
X150178006Y-87020534D01*
X150178004Y-87020537D01*
X150115405Y-87128963D01*
X150115405Y-87128964D01*
X150083000Y-87249899D01*
X144476003Y-87249899D01*
X144493500Y-87184601D01*
X144493500Y-87059399D01*
X144475331Y-86991592D01*
X144476994Y-86921744D01*
X144516156Y-86863881D01*
X144580384Y-86836377D01*
X144583224Y-86836207D01*
X144588598Y-86835500D01*
X144588601Y-86835500D01*
X144709536Y-86803095D01*
X144817964Y-86740495D01*
X144906495Y-86651964D01*
X144964555Y-86551399D01*
X148876500Y-86551399D01*
X148876500Y-86676601D01*
X148908905Y-86797536D01*
X148971505Y-86905964D01*
X149060036Y-86994495D01*
X149168464Y-87057095D01*
X149289399Y-87089500D01*
X149289401Y-87089500D01*
X149414599Y-87089500D01*
X149414601Y-87089500D01*
X149535536Y-87057095D01*
X149643964Y-86994495D01*
X149732495Y-86905964D01*
X149795095Y-86797536D01*
X149827500Y-86676601D01*
X149827500Y-86551399D01*
X149801134Y-86453001D01*
X149802796Y-86383153D01*
X149841957Y-86325290D01*
X149906186Y-86297785D01*
X149953000Y-86301133D01*
X150051399Y-86327500D01*
X150051400Y-86327500D01*
X150176599Y-86327500D01*
X150176601Y-86327500D01*
X150297536Y-86295095D01*
X150335132Y-86273389D01*
X163999500Y-86273389D01*
X163999500Y-86446611D01*
X164005977Y-86487504D01*
X164019998Y-86576034D01*
X164026598Y-86617701D01*
X164066824Y-86741504D01*
X164080128Y-86782447D01*
X164143062Y-86905962D01*
X164158768Y-86936788D01*
X164260586Y-87076928D01*
X164383072Y-87199414D01*
X164523212Y-87301232D01*
X164677555Y-87379873D01*
X164842299Y-87433402D01*
X165013389Y-87460500D01*
X165013390Y-87460500D01*
X165186610Y-87460500D01*
X165186611Y-87460500D01*
X165357701Y-87433402D01*
X165522445Y-87379873D01*
X165676788Y-87301232D01*
X165816928Y-87199414D01*
X165939414Y-87076928D01*
X166041232Y-86936788D01*
X166119873Y-86782445D01*
X166173402Y-86617701D01*
X166200500Y-86446611D01*
X166200500Y-86273389D01*
X166173402Y-86102299D01*
X166119873Y-85937555D01*
X166041232Y-85783212D01*
X165939414Y-85643072D01*
X165816928Y-85520586D01*
X165676788Y-85418768D01*
X165522445Y-85340127D01*
X165357701Y-85286598D01*
X165357699Y-85286597D01*
X165357698Y-85286597D01*
X165226271Y-85265781D01*
X165186611Y-85259500D01*
X165013389Y-85259500D01*
X164973728Y-85265781D01*
X164842302Y-85286597D01*
X164842299Y-85286598D01*
X164682923Y-85338383D01*
X164677552Y-85340128D01*
X164523211Y-85418768D01*
X164452019Y-85470493D01*
X164383072Y-85520586D01*
X164383070Y-85520588D01*
X164383069Y-85520588D01*
X164260588Y-85643069D01*
X164260588Y-85643070D01*
X164260586Y-85643072D01*
X164242138Y-85668464D01*
X164158768Y-85783211D01*
X164080128Y-85937552D01*
X164026597Y-86102302D01*
X164014851Y-86176464D01*
X163999500Y-86273389D01*
X150335132Y-86273389D01*
X150405964Y-86232495D01*
X150494495Y-86143964D01*
X150557095Y-86035536D01*
X150589500Y-85914601D01*
X150589500Y-85789399D01*
X150557095Y-85668464D01*
X150494495Y-85560036D01*
X150405964Y-85471505D01*
X150297536Y-85408905D01*
X150297537Y-85408905D01*
X150240023Y-85393494D01*
X150240017Y-85393492D01*
X150176601Y-85376500D01*
X150168565Y-85376500D01*
X150154416Y-85373135D01*
X150136197Y-85362726D01*
X150116067Y-85356815D01*
X150106473Y-85345743D01*
X150093750Y-85338474D01*
X150084050Y-85319866D01*
X150070312Y-85304011D01*
X150068226Y-85289509D01*
X150063999Y-85281399D01*
X153448500Y-85281399D01*
X153448500Y-85406601D01*
X153480905Y-85527536D01*
X153543505Y-85635964D01*
X153632036Y-85724495D01*
X153740464Y-85787095D01*
X153861399Y-85819500D01*
X153861401Y-85819500D01*
X153986599Y-85819500D01*
X153986601Y-85819500D01*
X154107536Y-85787095D01*
X154215964Y-85724495D01*
X154304495Y-85635964D01*
X154367095Y-85527536D01*
X154399500Y-85406601D01*
X154399500Y-85281399D01*
X154367095Y-85160464D01*
X154304495Y-85052036D01*
X154215964Y-84963505D01*
X154107536Y-84900905D01*
X154107537Y-84900905D01*
X154067224Y-84890103D01*
X153986601Y-84868500D01*
X153861399Y-84868500D01*
X153780775Y-84890103D01*
X153740463Y-84900905D01*
X153632037Y-84963504D01*
X153632034Y-84963506D01*
X153543506Y-85052034D01*
X153543504Y-85052037D01*
X153480905Y-85160463D01*
X153475286Y-85181435D01*
X153448500Y-85281399D01*
X150063999Y-85281399D01*
X150061454Y-85276516D01*
X150063354Y-85255621D01*
X150060368Y-85234853D01*
X150063331Y-85220406D01*
X150064108Y-85217506D01*
X150081500Y-85152601D01*
X150081500Y-85027399D01*
X150049095Y-84906464D01*
X149986495Y-84798036D01*
X149928846Y-84740387D01*
X149895361Y-84679064D01*
X149900345Y-84609372D01*
X149942217Y-84553439D01*
X149984428Y-84532932D01*
X150043536Y-84517095D01*
X150151964Y-84454495D01*
X150240495Y-84365964D01*
X150298555Y-84265399D01*
X155988500Y-84265399D01*
X155988500Y-84390601D01*
X156020905Y-84511536D01*
X156083505Y-84619964D01*
X156172036Y-84708495D01*
X156280464Y-84771095D01*
X156401399Y-84803500D01*
X156401401Y-84803500D01*
X156526599Y-84803500D01*
X156526601Y-84803500D01*
X156647536Y-84771095D01*
X156755964Y-84708495D01*
X156844495Y-84619964D01*
X156907095Y-84511536D01*
X156939500Y-84390601D01*
X156939500Y-84265399D01*
X156907095Y-84144464D01*
X156844495Y-84036036D01*
X156755964Y-83947505D01*
X156647536Y-83884905D01*
X156647537Y-83884905D01*
X156587753Y-83868886D01*
X156526601Y-83852500D01*
X156401399Y-83852500D01*
X156340247Y-83868886D01*
X156280463Y-83884905D01*
X156172037Y-83947504D01*
X156172034Y-83947506D01*
X156083506Y-84036034D01*
X156083504Y-84036037D01*
X156020905Y-84144463D01*
X156020905Y-84144464D01*
X155988500Y-84265399D01*
X150298555Y-84265399D01*
X150303095Y-84257536D01*
X150335500Y-84136601D01*
X150335500Y-84011399D01*
X150309134Y-83913001D01*
X150310796Y-83843153D01*
X150349957Y-83785290D01*
X150414186Y-83757785D01*
X150461000Y-83761133D01*
X150559399Y-83787500D01*
X150559400Y-83787500D01*
X150684599Y-83787500D01*
X150684601Y-83787500D01*
X150805536Y-83755095D01*
X150843132Y-83733389D01*
X163999500Y-83733389D01*
X163999500Y-83906611D01*
X164002610Y-83926246D01*
X164025456Y-84070494D01*
X164026598Y-84077701D01*
X164080127Y-84242445D01*
X164158768Y-84396788D01*
X164260586Y-84536928D01*
X164383072Y-84659414D01*
X164523212Y-84761232D01*
X164677555Y-84839873D01*
X164842299Y-84893402D01*
X165013389Y-84920500D01*
X165013390Y-84920500D01*
X165186610Y-84920500D01*
X165186611Y-84920500D01*
X165357701Y-84893402D01*
X165522445Y-84839873D01*
X165676788Y-84761232D01*
X165816928Y-84659414D01*
X165939414Y-84536928D01*
X166041232Y-84396788D01*
X166119873Y-84242445D01*
X166173402Y-84077701D01*
X166200500Y-83906611D01*
X166200500Y-83733389D01*
X166173402Y-83562299D01*
X166119873Y-83397555D01*
X166041232Y-83243212D01*
X165939414Y-83103072D01*
X165816928Y-82980586D01*
X165676788Y-82878768D01*
X165522445Y-82800127D01*
X165357701Y-82746598D01*
X165357699Y-82746597D01*
X165357698Y-82746597D01*
X165226271Y-82725781D01*
X165186611Y-82719500D01*
X165013389Y-82719500D01*
X164973728Y-82725781D01*
X164842302Y-82746597D01*
X164677552Y-82800128D01*
X164523211Y-82878768D01*
X164452019Y-82930493D01*
X164383072Y-82980586D01*
X164383070Y-82980588D01*
X164383069Y-82980588D01*
X164260588Y-83103069D01*
X164260588Y-83103070D01*
X164260586Y-83103072D01*
X164242138Y-83128464D01*
X164158768Y-83243211D01*
X164080128Y-83397552D01*
X164080127Y-83397554D01*
X164080127Y-83397555D01*
X164066825Y-83438493D01*
X164026597Y-83562302D01*
X164014851Y-83636464D01*
X163999500Y-83733389D01*
X150843132Y-83733389D01*
X150913964Y-83692495D01*
X151002495Y-83603964D01*
X151065095Y-83495536D01*
X151097500Y-83374601D01*
X151097500Y-83249399D01*
X151065095Y-83128464D01*
X151002495Y-83020036D01*
X150913964Y-82931505D01*
X150805536Y-82868905D01*
X150805537Y-82868905D01*
X150765224Y-82858103D01*
X150684601Y-82836500D01*
X150559399Y-82836500D01*
X150478775Y-82858103D01*
X150438463Y-82868905D01*
X150330037Y-82931504D01*
X150330034Y-82931506D01*
X150241506Y-83020034D01*
X150241504Y-83020037D01*
X150178905Y-83128463D01*
X150178905Y-83128464D01*
X150146500Y-83249399D01*
X150146500Y-83374601D01*
X150172866Y-83472997D01*
X150171203Y-83542847D01*
X150132041Y-83600710D01*
X150067813Y-83628214D01*
X150020999Y-83624866D01*
X149922601Y-83598500D01*
X149797399Y-83598500D01*
X149716775Y-83620103D01*
X149676463Y-83630905D01*
X149568037Y-83693504D01*
X149568034Y-83693506D01*
X149479506Y-83782034D01*
X149479504Y-83782037D01*
X149416905Y-83890463D01*
X149407317Y-83926246D01*
X149384500Y-84011399D01*
X149384500Y-84136601D01*
X149401892Y-84201506D01*
X149416905Y-84257536D01*
X149479504Y-84365962D01*
X149479506Y-84365965D01*
X149537153Y-84423612D01*
X149570638Y-84484935D01*
X149565654Y-84554627D01*
X149523782Y-84610560D01*
X149481568Y-84631067D01*
X149422466Y-84646904D01*
X149422463Y-84646905D01*
X149314037Y-84709504D01*
X149314034Y-84709506D01*
X149225506Y-84798034D01*
X149225504Y-84798037D01*
X149162905Y-84906463D01*
X149155186Y-84935270D01*
X149130500Y-85027399D01*
X149130500Y-85152601D01*
X149162905Y-85273536D01*
X149225505Y-85381964D01*
X149314036Y-85470495D01*
X149422464Y-85533095D01*
X149543399Y-85565500D01*
X149543401Y-85565500D01*
X149551458Y-85566561D01*
X149551050Y-85569656D01*
X149603933Y-85585185D01*
X149649688Y-85637989D01*
X149659632Y-85707147D01*
X149656670Y-85721587D01*
X149638500Y-85789399D01*
X149638500Y-85914601D01*
X149655892Y-85979506D01*
X149664866Y-86012997D01*
X149663203Y-86082847D01*
X149624041Y-86140710D01*
X149559813Y-86168214D01*
X149512999Y-86164866D01*
X149414601Y-86138500D01*
X149289399Y-86138500D01*
X149208775Y-86160103D01*
X149168463Y-86170905D01*
X149060037Y-86233504D01*
X149060034Y-86233506D01*
X148971506Y-86322034D01*
X148971504Y-86322037D01*
X148908905Y-86430463D01*
X148893621Y-86487504D01*
X148876500Y-86551399D01*
X144964555Y-86551399D01*
X144969095Y-86543536D01*
X145001500Y-86422601D01*
X145001500Y-86297399D01*
X144969095Y-86176464D01*
X144906495Y-86068036D01*
X144817964Y-85979505D01*
X144709536Y-85916905D01*
X144709537Y-85916905D01*
X144669224Y-85906103D01*
X144588601Y-85884500D01*
X144463399Y-85884500D01*
X144382775Y-85906103D01*
X144342463Y-85916905D01*
X144234037Y-85979504D01*
X144234034Y-85979506D01*
X144145506Y-86068034D01*
X144145504Y-86068037D01*
X144082905Y-86176463D01*
X144067892Y-86232493D01*
X144050500Y-86297399D01*
X144050500Y-86422601D01*
X144067892Y-86487506D01*
X144068669Y-86490406D01*
X144067006Y-86560256D01*
X144027844Y-86618119D01*
X143963616Y-86645623D01*
X143960775Y-86645792D01*
X143955401Y-86646499D01*
X143834463Y-86678905D01*
X143726037Y-86741504D01*
X143726034Y-86741506D01*
X143637506Y-86830034D01*
X143637504Y-86830037D01*
X143574905Y-86938463D01*
X143564208Y-86978385D01*
X143542500Y-87059399D01*
X143542500Y-87184601D01*
X143568866Y-87282997D01*
X143567203Y-87352847D01*
X143528041Y-87410710D01*
X143463813Y-87438214D01*
X143416999Y-87434866D01*
X143318601Y-87408500D01*
X143193399Y-87408500D01*
X143185271Y-87408500D01*
X143185271Y-87406887D01*
X143125565Y-87397574D01*
X143073310Y-87351192D01*
X143054427Y-87283923D01*
X143074910Y-87217123D01*
X143090733Y-87197725D01*
X143128495Y-87159964D01*
X143191095Y-87051536D01*
X143223500Y-86930601D01*
X143223500Y-86805399D01*
X143191095Y-86684464D01*
X143128495Y-86576036D01*
X143039964Y-86487505D01*
X142931536Y-86424905D01*
X142931537Y-86424905D01*
X142891224Y-86414103D01*
X142810601Y-86392500D01*
X142685399Y-86392500D01*
X142604775Y-86414103D01*
X142564463Y-86424905D01*
X142456037Y-86487504D01*
X142456034Y-86487506D01*
X142367506Y-86576034D01*
X142367504Y-86576037D01*
X142304905Y-86684463D01*
X142304905Y-86684464D01*
X142272500Y-86805399D01*
X132167858Y-86805399D01*
X132103964Y-86741505D01*
X131995536Y-86678905D01*
X131995537Y-86678905D01*
X131955224Y-86668103D01*
X131874601Y-86646500D01*
X131749399Y-86646500D01*
X131668775Y-86668103D01*
X131628463Y-86678905D01*
X131520037Y-86741504D01*
X131520034Y-86741506D01*
X131431506Y-86830034D01*
X131431504Y-86830037D01*
X131368905Y-86938463D01*
X131358208Y-86978385D01*
X131336500Y-87059399D01*
X127852150Y-87059399D01*
X127941232Y-86936788D01*
X128019873Y-86782445D01*
X128073402Y-86617701D01*
X128100500Y-86446611D01*
X128100500Y-86273389D01*
X128073402Y-86102299D01*
X128019873Y-85937555D01*
X127941232Y-85783212D01*
X127839414Y-85643072D01*
X127731741Y-85535399D01*
X146082500Y-85535399D01*
X146082500Y-85660601D01*
X146114905Y-85781536D01*
X146177505Y-85889964D01*
X146266036Y-85978495D01*
X146374464Y-86041095D01*
X146495399Y-86073500D01*
X146495401Y-86073500D01*
X146620599Y-86073500D01*
X146620601Y-86073500D01*
X146741536Y-86041095D01*
X146849964Y-85978495D01*
X146938495Y-85889964D01*
X147001095Y-85781536D01*
X147033500Y-85660601D01*
X147033500Y-85535399D01*
X147001095Y-85414464D01*
X146938495Y-85306036D01*
X146913858Y-85281399D01*
X147352500Y-85281399D01*
X147352500Y-85406601D01*
X147384905Y-85527536D01*
X147447505Y-85635964D01*
X147536036Y-85724495D01*
X147644464Y-85787095D01*
X147765399Y-85819500D01*
X147765401Y-85819500D01*
X147890599Y-85819500D01*
X147890601Y-85819500D01*
X148011536Y-85787095D01*
X148119964Y-85724495D01*
X148208495Y-85635964D01*
X148271095Y-85527536D01*
X148303500Y-85406601D01*
X148303500Y-85281399D01*
X148271095Y-85160464D01*
X148208495Y-85052036D01*
X148119964Y-84963505D01*
X148011536Y-84900905D01*
X148011537Y-84900905D01*
X147971224Y-84890103D01*
X147890601Y-84868500D01*
X147765399Y-84868500D01*
X147684775Y-84890103D01*
X147644463Y-84900905D01*
X147536037Y-84963504D01*
X147536034Y-84963506D01*
X147447506Y-85052034D01*
X147447504Y-85052037D01*
X147384905Y-85160463D01*
X147379286Y-85181435D01*
X147352500Y-85281399D01*
X146913858Y-85281399D01*
X146876962Y-85244503D01*
X146873446Y-85240303D01*
X146861579Y-85213102D01*
X146847361Y-85187064D01*
X146847763Y-85181435D01*
X146845507Y-85176263D01*
X146850228Y-85146970D01*
X146852345Y-85117372D01*
X146855727Y-85112854D01*
X146856625Y-85107283D01*
X146876436Y-85085190D01*
X146894217Y-85061439D01*
X146900451Y-85058410D01*
X146903272Y-85055265D01*
X146911703Y-85052944D01*
X146936428Y-85040932D01*
X146995536Y-85025095D01*
X147103964Y-84962495D01*
X147192495Y-84873964D01*
X147255095Y-84765536D01*
X147287500Y-84644601D01*
X147287500Y-84519399D01*
X147255095Y-84398464D01*
X147247720Y-84385691D01*
X147231248Y-84317792D01*
X147254100Y-84251765D01*
X147293107Y-84216305D01*
X147344249Y-84186780D01*
X147432780Y-84098249D01*
X147495380Y-83989821D01*
X147527785Y-83868886D01*
X147527785Y-83743684D01*
X147495380Y-83622749D01*
X147432780Y-83514321D01*
X147344249Y-83425790D01*
X147235821Y-83363190D01*
X147235822Y-83363190D01*
X147186454Y-83349962D01*
X147114886Y-83330785D01*
X146989684Y-83330785D01*
X146918116Y-83349962D01*
X146868748Y-83363190D01*
X146760322Y-83425789D01*
X146760319Y-83425791D01*
X146671791Y-83514319D01*
X146671789Y-83514322D01*
X146609190Y-83622748D01*
X146605515Y-83636463D01*
X146576785Y-83743684D01*
X146576785Y-83868886D01*
X146596780Y-83943506D01*
X146609190Y-83989821D01*
X146616564Y-84002593D01*
X146633035Y-84070494D01*
X146610183Y-84136520D01*
X146571176Y-84171979D01*
X146520039Y-84201502D01*
X146520034Y-84201506D01*
X146431506Y-84290034D01*
X146431504Y-84290037D01*
X146368905Y-84398463D01*
X146368905Y-84398464D01*
X146336500Y-84519399D01*
X146336500Y-84644601D01*
X146368905Y-84765536D01*
X146428350Y-84868500D01*
X146431504Y-84873962D01*
X146431506Y-84873965D01*
X146489153Y-84931612D01*
X146522638Y-84992935D01*
X146517654Y-85062627D01*
X146475782Y-85118560D01*
X146433568Y-85139067D01*
X146374466Y-85154904D01*
X146374463Y-85154905D01*
X146266037Y-85217504D01*
X146266034Y-85217506D01*
X146177506Y-85306034D01*
X146177504Y-85306037D01*
X146114905Y-85414463D01*
X146099892Y-85470493D01*
X146082500Y-85535399D01*
X127731741Y-85535399D01*
X127716928Y-85520586D01*
X127576788Y-85418768D01*
X127527185Y-85393494D01*
X127422446Y-85340127D01*
X127419284Y-85339100D01*
X127418236Y-85338383D01*
X127417952Y-85338266D01*
X127417976Y-85338206D01*
X127361609Y-85299661D01*
X127334413Y-85235302D01*
X127346329Y-85166456D01*
X127393574Y-85114981D01*
X127419288Y-85103239D01*
X127518215Y-85071096D01*
X127707554Y-84974622D01*
X127761716Y-84935270D01*
X127761717Y-84935270D01*
X127692399Y-84865952D01*
X127612846Y-84786399D01*
X130601500Y-84786399D01*
X130601500Y-84911601D01*
X130633905Y-85032536D01*
X130696505Y-85140964D01*
X130785036Y-85229495D01*
X130893464Y-85292095D01*
X131014399Y-85324500D01*
X131014401Y-85324500D01*
X131139599Y-85324500D01*
X131139601Y-85324500D01*
X131260536Y-85292095D01*
X131368964Y-85229495D01*
X131457495Y-85140964D01*
X131520095Y-85032536D01*
X131552500Y-84911601D01*
X131552500Y-84786399D01*
X131520095Y-84665464D01*
X131457495Y-84557036D01*
X131368964Y-84468505D01*
X131260536Y-84405905D01*
X131260537Y-84405905D01*
X131204739Y-84390954D01*
X131139601Y-84373500D01*
X131014399Y-84373500D01*
X130949261Y-84390954D01*
X130893463Y-84405905D01*
X130785037Y-84468504D01*
X130785034Y-84468506D01*
X130696506Y-84557034D01*
X130696504Y-84557037D01*
X130633905Y-84665463D01*
X130633905Y-84665464D01*
X130601500Y-84786399D01*
X127612846Y-84786399D01*
X127129408Y-84302962D01*
X127192993Y-84285925D01*
X127307007Y-84220099D01*
X127400099Y-84127007D01*
X127465925Y-84012993D01*
X127482962Y-83949408D01*
X128115270Y-84581717D01*
X128115270Y-84581716D01*
X128154622Y-84527554D01*
X128251095Y-84338217D01*
X128276055Y-84261399D01*
X132112500Y-84261399D01*
X132112500Y-84386601D01*
X132144905Y-84507536D01*
X132207505Y-84615964D01*
X132296036Y-84704495D01*
X132404464Y-84767095D01*
X132525399Y-84799500D01*
X132525401Y-84799500D01*
X132650599Y-84799500D01*
X132650601Y-84799500D01*
X132771536Y-84767095D01*
X132879964Y-84704495D01*
X132968495Y-84615964D01*
X133031095Y-84507536D01*
X133063500Y-84386601D01*
X133063500Y-84261399D01*
X133031095Y-84140464D01*
X132968495Y-84032036D01*
X132879964Y-83943505D01*
X132771536Y-83880905D01*
X132771537Y-83880905D01*
X132726674Y-83868884D01*
X132650601Y-83848500D01*
X132525399Y-83848500D01*
X132449326Y-83868884D01*
X132404463Y-83880905D01*
X132296037Y-83943504D01*
X132296034Y-83943506D01*
X132207506Y-84032034D01*
X132207504Y-84032037D01*
X132144905Y-84140463D01*
X132144905Y-84140464D01*
X132112500Y-84261399D01*
X128276055Y-84261399D01*
X128316757Y-84136130D01*
X128316757Y-84136127D01*
X128350000Y-83926246D01*
X128350000Y-83713753D01*
X128316757Y-83503872D01*
X128316757Y-83503869D01*
X128251095Y-83301782D01*
X128154624Y-83112449D01*
X128115270Y-83058282D01*
X128115269Y-83058282D01*
X127482962Y-83690590D01*
X127465925Y-83627007D01*
X127400099Y-83512993D01*
X127307007Y-83419901D01*
X127192993Y-83354075D01*
X127129409Y-83337037D01*
X127761716Y-82704728D01*
X127707550Y-82665375D01*
X127518217Y-82568904D01*
X127419287Y-82536760D01*
X127361611Y-82497323D01*
X127334413Y-82432964D01*
X127346328Y-82364118D01*
X127393572Y-82312642D01*
X127419290Y-82300897D01*
X127422445Y-82299873D01*
X127576788Y-82221232D01*
X127716928Y-82119414D01*
X127839414Y-81996928D01*
X127852150Y-81979399D01*
X142018500Y-81979399D01*
X142018500Y-82104601D01*
X142050905Y-82225536D01*
X142113505Y-82333964D01*
X142202036Y-82422495D01*
X142257522Y-82454529D01*
X142305738Y-82505096D01*
X142318962Y-82573703D01*
X142306607Y-82612370D01*
X142308016Y-82612954D01*
X142304905Y-82620462D01*
X142289620Y-82677506D01*
X142272500Y-82741399D01*
X142272500Y-82866601D01*
X142304905Y-82987536D01*
X142367505Y-83095964D01*
X142456036Y-83184495D01*
X142564464Y-83247095D01*
X142685399Y-83279500D01*
X142685401Y-83279500D01*
X142810599Y-83279500D01*
X142810601Y-83279500D01*
X142931536Y-83247095D01*
X143039964Y-83184495D01*
X143097615Y-83126843D01*
X143158934Y-83093361D01*
X143228626Y-83098345D01*
X143284560Y-83140216D01*
X143305067Y-83182432D01*
X143320903Y-83241531D01*
X143320905Y-83241536D01*
X143383505Y-83349964D01*
X143472036Y-83438495D01*
X143580464Y-83501095D01*
X143701399Y-83533500D01*
X143701401Y-83533500D01*
X143826600Y-83533500D01*
X143826601Y-83533500D01*
X143924998Y-83507134D01*
X143994846Y-83508795D01*
X144052709Y-83547957D01*
X144080214Y-83612185D01*
X144076866Y-83659001D01*
X144050500Y-83757399D01*
X144050500Y-83882601D01*
X144066820Y-83943506D01*
X144082905Y-84003537D01*
X144086016Y-84011046D01*
X144083797Y-84011964D01*
X144097382Y-84068003D01*
X144074518Y-84134026D01*
X144035523Y-84169469D01*
X143980039Y-84201502D01*
X143980034Y-84201506D01*
X143891506Y-84290034D01*
X143891504Y-84290037D01*
X143828905Y-84398463D01*
X143828905Y-84398464D01*
X143796500Y-84519399D01*
X143796500Y-84644601D01*
X143828905Y-84765536D01*
X143891505Y-84873964D01*
X143980036Y-84962495D01*
X144088464Y-85025095D01*
X144209399Y-85057500D01*
X144209401Y-85057500D01*
X144334599Y-85057500D01*
X144334601Y-85057500D01*
X144455536Y-85025095D01*
X144563964Y-84962495D01*
X144652495Y-84873964D01*
X144715095Y-84765536D01*
X144747500Y-84644601D01*
X144747500Y-84519399D01*
X144715095Y-84398464D01*
X144715094Y-84398462D01*
X144711984Y-84390954D01*
X144714204Y-84390034D01*
X144700617Y-84334007D01*
X144723474Y-84267982D01*
X144762476Y-84232530D01*
X144817964Y-84200495D01*
X144906495Y-84111964D01*
X144969095Y-84003536D01*
X145001500Y-83882601D01*
X145001500Y-83757399D01*
X144969095Y-83636464D01*
X144906495Y-83528036D01*
X144817964Y-83439505D01*
X144709536Y-83376905D01*
X144709537Y-83376905D01*
X144658352Y-83363190D01*
X144588601Y-83344500D01*
X144463399Y-83344500D01*
X144365001Y-83370865D01*
X144295152Y-83369203D01*
X144237289Y-83330041D01*
X144209785Y-83265812D01*
X144213133Y-83218999D01*
X144239500Y-83120601D01*
X144239500Y-82995399D01*
X144207095Y-82874464D01*
X144144495Y-82766036D01*
X144055964Y-82677505D01*
X143947536Y-82614905D01*
X143947537Y-82614905D01*
X143907224Y-82604103D01*
X143826601Y-82582500D01*
X143701399Y-82582500D01*
X143620775Y-82604103D01*
X143580463Y-82614905D01*
X143472037Y-82677504D01*
X143414387Y-82735154D01*
X143353063Y-82768638D01*
X143283372Y-82763653D01*
X143227438Y-82721782D01*
X143206932Y-82679568D01*
X143191095Y-82620464D01*
X143128495Y-82512036D01*
X143039964Y-82423505D01*
X143039962Y-82423504D01*
X143039957Y-82423500D01*
X142984477Y-82391469D01*
X142936261Y-82340903D01*
X142923037Y-82272296D01*
X142935397Y-82233631D01*
X142933984Y-82233046D01*
X142937094Y-82225537D01*
X142937095Y-82225536D01*
X142969500Y-82104601D01*
X142969500Y-81979399D01*
X142937095Y-81858464D01*
X142891372Y-81779269D01*
X142891372Y-81779267D01*
X142874499Y-81750042D01*
X142874496Y-81750038D01*
X142874495Y-81750036D01*
X142849858Y-81725399D01*
X144558500Y-81725399D01*
X144558500Y-81850601D01*
X144590905Y-81971536D01*
X144653505Y-82079964D01*
X144742036Y-82168495D01*
X144850464Y-82231095D01*
X144971399Y-82263500D01*
X144971401Y-82263500D01*
X145096600Y-82263500D01*
X145096601Y-82263500D01*
X145194998Y-82237134D01*
X145264846Y-82238795D01*
X145322709Y-82277957D01*
X145350214Y-82342185D01*
X145346866Y-82389001D01*
X145320500Y-82487399D01*
X145320500Y-82612601D01*
X145352905Y-82733536D01*
X145415505Y-82841964D01*
X145504036Y-82930495D01*
X145612464Y-82993095D01*
X145733399Y-83025500D01*
X145733401Y-83025500D01*
X145858599Y-83025500D01*
X145858601Y-83025500D01*
X145979536Y-82993095D01*
X146087964Y-82930495D01*
X146176495Y-82841964D01*
X146239095Y-82733536D01*
X146254932Y-82674430D01*
X146291296Y-82614773D01*
X146354143Y-82584244D01*
X146423519Y-82592539D01*
X146462387Y-82618846D01*
X146520036Y-82676495D01*
X146628464Y-82739095D01*
X146749399Y-82771500D01*
X146749401Y-82771500D01*
X146874599Y-82771500D01*
X146874601Y-82771500D01*
X146995536Y-82739095D01*
X147103964Y-82676495D01*
X147192495Y-82587964D01*
X147255095Y-82479536D01*
X147287500Y-82358601D01*
X147287500Y-82233399D01*
X147287500Y-82225271D01*
X147289116Y-82225271D01*
X147298418Y-82165581D01*
X147344792Y-82113320D01*
X147412059Y-82094427D01*
X147478861Y-82114900D01*
X147498278Y-82130737D01*
X147536036Y-82168495D01*
X147644464Y-82231095D01*
X147765399Y-82263500D01*
X147765401Y-82263500D01*
X147890599Y-82263500D01*
X147890601Y-82263500D01*
X148002938Y-82233399D01*
X153956500Y-82233399D01*
X153956500Y-82358601D01*
X153988905Y-82479536D01*
X154051505Y-82587964D01*
X154140036Y-82676495D01*
X154248464Y-82739095D01*
X154369399Y-82771500D01*
X154369401Y-82771500D01*
X154494599Y-82771500D01*
X154494601Y-82771500D01*
X154615536Y-82739095D01*
X154723964Y-82676495D01*
X154812495Y-82587964D01*
X154875095Y-82479536D01*
X154907500Y-82358601D01*
X154907500Y-82233399D01*
X154875095Y-82112464D01*
X154829372Y-82033269D01*
X154829372Y-82033267D01*
X154812499Y-82004042D01*
X154812496Y-82004038D01*
X154812495Y-82004036D01*
X154787858Y-81979399D01*
X157258500Y-81979399D01*
X157258500Y-82104601D01*
X157290905Y-82225536D01*
X157353505Y-82333964D01*
X157442036Y-82422495D01*
X157442037Y-82422496D01*
X157442039Y-82422497D01*
X157476881Y-82442613D01*
X157525096Y-82493180D01*
X157538320Y-82561787D01*
X157512352Y-82626651D01*
X157476881Y-82657387D01*
X157442039Y-82677502D01*
X157442034Y-82677506D01*
X157353506Y-82766034D01*
X157353504Y-82766037D01*
X157290905Y-82874463D01*
X157275892Y-82930493D01*
X157258500Y-82995399D01*
X157258500Y-83120601D01*
X157290905Y-83241536D01*
X157353505Y-83349964D01*
X157442036Y-83438495D01*
X157550464Y-83501095D01*
X157671399Y-83533500D01*
X157671401Y-83533500D01*
X157796599Y-83533500D01*
X157796601Y-83533500D01*
X157917536Y-83501095D01*
X158025964Y-83438495D01*
X158114495Y-83349964D01*
X158134613Y-83315118D01*
X158185178Y-83266903D01*
X158253785Y-83253679D01*
X158318650Y-83279646D01*
X158349388Y-83315119D01*
X158369503Y-83349962D01*
X158369505Y-83349964D01*
X158458036Y-83438495D01*
X158566464Y-83501095D01*
X158687399Y-83533500D01*
X158687401Y-83533500D01*
X158812599Y-83533500D01*
X158812601Y-83533500D01*
X158933536Y-83501095D01*
X159041964Y-83438495D01*
X159130495Y-83349964D01*
X159193095Y-83241536D01*
X159225500Y-83120601D01*
X159225500Y-82995399D01*
X159193095Y-82874464D01*
X159130495Y-82766036D01*
X159041964Y-82677505D01*
X158933536Y-82614905D01*
X158933537Y-82614905D01*
X158893224Y-82604103D01*
X158812601Y-82582500D01*
X158687399Y-82582500D01*
X158606775Y-82604103D01*
X158566463Y-82614905D01*
X158458037Y-82677504D01*
X158458034Y-82677506D01*
X158369506Y-82766034D01*
X158369502Y-82766039D01*
X158349387Y-82800881D01*
X158298820Y-82849096D01*
X158230213Y-82862320D01*
X158165349Y-82836352D01*
X158134613Y-82800881D01*
X158114497Y-82766039D01*
X158114496Y-82766037D01*
X158114495Y-82766036D01*
X158025964Y-82677505D01*
X158025963Y-82677504D01*
X158009458Y-82667975D01*
X157991118Y-82657386D01*
X157942903Y-82606822D01*
X157929679Y-82538215D01*
X157955646Y-82473350D01*
X157991117Y-82442613D01*
X158025964Y-82422495D01*
X158114495Y-82333964D01*
X158177095Y-82225536D01*
X158209500Y-82104601D01*
X158209500Y-81979399D01*
X158177095Y-81858464D01*
X158114495Y-81750036D01*
X158025964Y-81661505D01*
X157917536Y-81598905D01*
X157917537Y-81598905D01*
X157877224Y-81588103D01*
X157796601Y-81566500D01*
X157671399Y-81566500D01*
X157590775Y-81588103D01*
X157550463Y-81598905D01*
X157442037Y-81661504D01*
X157442034Y-81661506D01*
X157353506Y-81750034D01*
X157353504Y-81750037D01*
X157290905Y-81858463D01*
X157280208Y-81898385D01*
X157258500Y-81979399D01*
X154787858Y-81979399D01*
X154723964Y-81915505D01*
X154615536Y-81852905D01*
X154615537Y-81852905D01*
X154575224Y-81842103D01*
X154494601Y-81820500D01*
X154369399Y-81820500D01*
X154288775Y-81842103D01*
X154248463Y-81852905D01*
X154140037Y-81915504D01*
X154140034Y-81915506D01*
X154051506Y-82004034D01*
X154051504Y-82004037D01*
X153988905Y-82112463D01*
X153982172Y-82137590D01*
X153956500Y-82233399D01*
X148002938Y-82233399D01*
X148011536Y-82231095D01*
X148119964Y-82168495D01*
X148208495Y-82079964D01*
X148271095Y-81971536D01*
X148303500Y-81850601D01*
X148303500Y-81725399D01*
X148271095Y-81604464D01*
X148208495Y-81496036D01*
X148119964Y-81407505D01*
X148011536Y-81344905D01*
X148011537Y-81344905D01*
X147966592Y-81332862D01*
X147890601Y-81312500D01*
X147765399Y-81312500D01*
X147689408Y-81332862D01*
X147644463Y-81344905D01*
X147536037Y-81407504D01*
X147536034Y-81407506D01*
X147447506Y-81496034D01*
X147447504Y-81496037D01*
X147384905Y-81604463D01*
X147384905Y-81604464D01*
X147353118Y-81723095D01*
X147352500Y-81725400D01*
X147352500Y-81858729D01*
X147350886Y-81858729D01*
X147341575Y-81918432D01*
X147295194Y-81970688D01*
X147227925Y-81989572D01*
X147161125Y-81969090D01*
X147141721Y-81953262D01*
X147103965Y-81915506D01*
X147103964Y-81915505D01*
X146995536Y-81852905D01*
X146995537Y-81852905D01*
X146955224Y-81842103D01*
X146874601Y-81820500D01*
X146749399Y-81820500D01*
X146668775Y-81842103D01*
X146628463Y-81852905D01*
X146520037Y-81915504D01*
X146520034Y-81915506D01*
X146431506Y-82004034D01*
X146431504Y-82004037D01*
X146368905Y-82112463D01*
X146368904Y-82112466D01*
X146353067Y-82171568D01*
X146316701Y-82231227D01*
X146253854Y-82261756D01*
X146184478Y-82253459D01*
X146145612Y-82227153D01*
X146087965Y-82169506D01*
X146087964Y-82169505D01*
X145979536Y-82106905D01*
X145979537Y-82106905D01*
X145932968Y-82094427D01*
X145858601Y-82074500D01*
X145733399Y-82074500D01*
X145635001Y-82100865D01*
X145565152Y-82099203D01*
X145507289Y-82060041D01*
X145479785Y-81995812D01*
X145483133Y-81948999D01*
X145509500Y-81850601D01*
X145509500Y-81725399D01*
X145477095Y-81604464D01*
X145414495Y-81496036D01*
X145325964Y-81407505D01*
X145217536Y-81344905D01*
X145217537Y-81344905D01*
X145172592Y-81332862D01*
X145096601Y-81312500D01*
X144971399Y-81312500D01*
X144895408Y-81332862D01*
X144850463Y-81344905D01*
X144742037Y-81407504D01*
X144742034Y-81407506D01*
X144653506Y-81496034D01*
X144653504Y-81496037D01*
X144590905Y-81604463D01*
X144590905Y-81604464D01*
X144558500Y-81725399D01*
X142849858Y-81725399D01*
X142785964Y-81661505D01*
X142677536Y-81598905D01*
X142677537Y-81598905D01*
X142637224Y-81588103D01*
X142556601Y-81566500D01*
X142431399Y-81566500D01*
X142350775Y-81588103D01*
X142310463Y-81598905D01*
X142202037Y-81661504D01*
X142202034Y-81661506D01*
X142113506Y-81750034D01*
X142113504Y-81750037D01*
X142050905Y-81858463D01*
X142040208Y-81898385D01*
X142018500Y-81979399D01*
X127852150Y-81979399D01*
X127941232Y-81856788D01*
X128019873Y-81702445D01*
X128073402Y-81537701D01*
X128100500Y-81366611D01*
X128100500Y-81193389D01*
X128073402Y-81022299D01*
X128019873Y-80857555D01*
X127941232Y-80703212D01*
X127839414Y-80563072D01*
X127716928Y-80440586D01*
X127576788Y-80338768D01*
X127422446Y-80260127D01*
X127419284Y-80259100D01*
X127418236Y-80258383D01*
X127417952Y-80258266D01*
X127417976Y-80258206D01*
X127361609Y-80219661D01*
X127334413Y-80155302D01*
X127346329Y-80086456D01*
X127393574Y-80034981D01*
X127419288Y-80023239D01*
X127518215Y-79991096D01*
X127694738Y-79901153D01*
X127707554Y-79894622D01*
X127761716Y-79855270D01*
X127761717Y-79855270D01*
X127129408Y-79222962D01*
X127192993Y-79205925D01*
X127307007Y-79140099D01*
X127400099Y-79047007D01*
X127465925Y-78932993D01*
X127482962Y-78869408D01*
X128115270Y-79501717D01*
X128115270Y-79501716D01*
X128154622Y-79447554D01*
X128251095Y-79258217D01*
X128281545Y-79164504D01*
X130570000Y-79164504D01*
X130570000Y-79563000D01*
X131270000Y-79563000D01*
X131270000Y-80063000D01*
X130570000Y-80063000D01*
X130570000Y-80461495D01*
X130608427Y-80654681D01*
X130608430Y-80654693D01*
X130683807Y-80836671D01*
X130683814Y-80836684D01*
X130793248Y-81000462D01*
X130793251Y-81000466D01*
X130932533Y-81139748D01*
X130932537Y-81139751D01*
X131096315Y-81249185D01*
X131096328Y-81249192D01*
X131278308Y-81324569D01*
X131320000Y-81332862D01*
X131320000Y-80529988D01*
X131329940Y-80547205D01*
X131385795Y-80603060D01*
X131454204Y-80642556D01*
X131530504Y-80663000D01*
X131609496Y-80663000D01*
X131685796Y-80642556D01*
X131754205Y-80603060D01*
X131810060Y-80547205D01*
X131820000Y-80529988D01*
X131820000Y-81332862D01*
X131861690Y-81324569D01*
X131861692Y-81324569D01*
X132043671Y-81249192D01*
X132043684Y-81249185D01*
X132091255Y-81217399D01*
X133014500Y-81217399D01*
X133014500Y-81342601D01*
X133046905Y-81463536D01*
X133109505Y-81571964D01*
X133198036Y-81660495D01*
X133306464Y-81723095D01*
X133427399Y-81755500D01*
X133427401Y-81755500D01*
X133552599Y-81755500D01*
X133552601Y-81755500D01*
X133673536Y-81723095D01*
X133781964Y-81660495D01*
X133870495Y-81571964D01*
X133933095Y-81463536D01*
X133965500Y-81342601D01*
X133965500Y-81217399D01*
X137814500Y-81217399D01*
X137814500Y-81342601D01*
X137846905Y-81463536D01*
X137909505Y-81571964D01*
X137998036Y-81660495D01*
X138106464Y-81723095D01*
X138227399Y-81755500D01*
X138227401Y-81755500D01*
X138352599Y-81755500D01*
X138352601Y-81755500D01*
X138473536Y-81723095D01*
X138581964Y-81660495D01*
X138670495Y-81571964D01*
X138733095Y-81463536D01*
X138765500Y-81342601D01*
X138765500Y-81217399D01*
X138733095Y-81096464D01*
X138670495Y-80988036D01*
X138581964Y-80899505D01*
X138473536Y-80836905D01*
X138473537Y-80836905D01*
X138433224Y-80826103D01*
X138352601Y-80804500D01*
X138227399Y-80804500D01*
X138146775Y-80826103D01*
X138106463Y-80836905D01*
X137998037Y-80899504D01*
X137998034Y-80899506D01*
X137909506Y-80988034D01*
X137909504Y-80988037D01*
X137846905Y-81096463D01*
X137846905Y-81096464D01*
X137814500Y-81217399D01*
X133965500Y-81217399D01*
X133933095Y-81096464D01*
X133870495Y-80988036D01*
X133781964Y-80899505D01*
X133673536Y-80836905D01*
X133673537Y-80836905D01*
X133633224Y-80826103D01*
X133552601Y-80804500D01*
X133427399Y-80804500D01*
X133346775Y-80826103D01*
X133306463Y-80836905D01*
X133198037Y-80899504D01*
X133198034Y-80899506D01*
X133109506Y-80988034D01*
X133109504Y-80988037D01*
X133046905Y-81096463D01*
X133046905Y-81096464D01*
X133014500Y-81217399D01*
X132091255Y-81217399D01*
X132207462Y-81139751D01*
X132207466Y-81139748D01*
X132225625Y-81121590D01*
X132346748Y-81000466D01*
X132346751Y-81000462D01*
X132456185Y-80836684D01*
X132456192Y-80836671D01*
X132531569Y-80654693D01*
X132531572Y-80654681D01*
X132569999Y-80461495D01*
X132570000Y-80461492D01*
X132570000Y-80063000D01*
X131870000Y-80063000D01*
X131870000Y-79563000D01*
X132465950Y-79563000D01*
X132532989Y-79582685D01*
X132573337Y-79624999D01*
X132579492Y-79635661D01*
X132579495Y-79635665D01*
X132677335Y-79733505D01*
X132797164Y-79802688D01*
X132930817Y-79838500D01*
X132930819Y-79838500D01*
X133069181Y-79838500D01*
X133069183Y-79838500D01*
X133202836Y-79802688D01*
X133322665Y-79733505D01*
X133420505Y-79635665D01*
X133489688Y-79515836D01*
X133525500Y-79382183D01*
X133525500Y-79243817D01*
X138254500Y-79243817D01*
X138254500Y-79382183D01*
X138287811Y-79506500D01*
X138290312Y-79515835D01*
X138290313Y-79515838D01*
X138359492Y-79635661D01*
X138359494Y-79635664D01*
X138359495Y-79635665D01*
X138457335Y-79733505D01*
X138577164Y-79802688D01*
X138710817Y-79838500D01*
X138710819Y-79838500D01*
X138849181Y-79838500D01*
X138849183Y-79838500D01*
X138982836Y-79802688D01*
X139102665Y-79733505D01*
X139200505Y-79635665D01*
X139206663Y-79624999D01*
X139257231Y-79576784D01*
X139314050Y-79563000D01*
X139910000Y-79563000D01*
X139910000Y-80063000D01*
X139210000Y-80063000D01*
X139210000Y-80461495D01*
X139248427Y-80654681D01*
X139248430Y-80654693D01*
X139323807Y-80836671D01*
X139323814Y-80836684D01*
X139433248Y-81000462D01*
X139433251Y-81000466D01*
X139572533Y-81139748D01*
X139572537Y-81139751D01*
X139736315Y-81249185D01*
X139736328Y-81249192D01*
X139918308Y-81324569D01*
X139960000Y-81332862D01*
X139960000Y-80529988D01*
X139969940Y-80547205D01*
X140025795Y-80603060D01*
X140094204Y-80642556D01*
X140170504Y-80663000D01*
X140249496Y-80663000D01*
X140325796Y-80642556D01*
X140394205Y-80603060D01*
X140450060Y-80547205D01*
X140460000Y-80529988D01*
X140460000Y-81332862D01*
X140501690Y-81324569D01*
X140501692Y-81324569D01*
X140683671Y-81249192D01*
X140683684Y-81249185D01*
X140767188Y-81193389D01*
X163999500Y-81193389D01*
X163999500Y-81366610D01*
X164019998Y-81496034D01*
X164026598Y-81537701D01*
X164066824Y-81661504D01*
X164080128Y-81702447D01*
X164155615Y-81850599D01*
X164158768Y-81856788D01*
X164260586Y-81996928D01*
X164383072Y-82119414D01*
X164523212Y-82221232D01*
X164677555Y-82299873D01*
X164842299Y-82353402D01*
X165013389Y-82380500D01*
X165013390Y-82380500D01*
X165186610Y-82380500D01*
X165186611Y-82380500D01*
X165357701Y-82353402D01*
X165522445Y-82299873D01*
X165676788Y-82221232D01*
X165816928Y-82119414D01*
X165939414Y-81996928D01*
X166041232Y-81856788D01*
X166119873Y-81702445D01*
X166173402Y-81537701D01*
X166200500Y-81366611D01*
X166200500Y-81193389D01*
X166173402Y-81022299D01*
X166119873Y-80857555D01*
X166041232Y-80703212D01*
X165939414Y-80563072D01*
X165816928Y-80440586D01*
X165676788Y-80338768D01*
X165522445Y-80260127D01*
X165357701Y-80206598D01*
X165357699Y-80206597D01*
X165357698Y-80206597D01*
X165226271Y-80185781D01*
X165186611Y-80179500D01*
X165013389Y-80179500D01*
X164973728Y-80185781D01*
X164842302Y-80206597D01*
X164842299Y-80206598D01*
X164682923Y-80258383D01*
X164677552Y-80260128D01*
X164523211Y-80338768D01*
X164443256Y-80396859D01*
X164383072Y-80440586D01*
X164383070Y-80440588D01*
X164383069Y-80440588D01*
X164260588Y-80563069D01*
X164260588Y-80563070D01*
X164260586Y-80563072D01*
X164231533Y-80603060D01*
X164158768Y-80703211D01*
X164080128Y-80857552D01*
X164026597Y-81022302D01*
X163999500Y-81193389D01*
X140767188Y-81193389D01*
X140847462Y-81139751D01*
X140847466Y-81139748D01*
X140986748Y-81000466D01*
X140986751Y-81000462D01*
X141096185Y-80836684D01*
X141096192Y-80836671D01*
X141171569Y-80654693D01*
X141171572Y-80654681D01*
X141209999Y-80461495D01*
X141210000Y-80461492D01*
X141210000Y-80063000D01*
X140510000Y-80063000D01*
X140510000Y-79919399D01*
X141891500Y-79919399D01*
X141891500Y-80044601D01*
X141923905Y-80165536D01*
X141986505Y-80273964D01*
X142075036Y-80362495D01*
X142183464Y-80425095D01*
X142304399Y-80457500D01*
X142304401Y-80457500D01*
X142429599Y-80457500D01*
X142429601Y-80457500D01*
X142550536Y-80425095D01*
X142658964Y-80362495D01*
X142747495Y-80273964D01*
X142810095Y-80165536D01*
X142842500Y-80044601D01*
X142842500Y-79919399D01*
X142810095Y-79798464D01*
X142747495Y-79690036D01*
X142658964Y-79601505D01*
X142550536Y-79538905D01*
X142550537Y-79538905D01*
X142510224Y-79528103D01*
X142429601Y-79506500D01*
X142304399Y-79506500D01*
X142223775Y-79528103D01*
X142183463Y-79538905D01*
X142075037Y-79601504D01*
X142075034Y-79601506D01*
X141986506Y-79690034D01*
X141986504Y-79690037D01*
X141923905Y-79798463D01*
X141922773Y-79802687D01*
X141891500Y-79919399D01*
X140510000Y-79919399D01*
X140510000Y-79563000D01*
X141210000Y-79563000D01*
X141210000Y-79164508D01*
X141209999Y-79164504D01*
X141171572Y-78971318D01*
X141171569Y-78971306D01*
X141096192Y-78789328D01*
X141096188Y-78789321D01*
X141062005Y-78738163D01*
X141062004Y-78738161D01*
X141021404Y-78677399D01*
X146336500Y-78677399D01*
X146336500Y-78802601D01*
X146368905Y-78923536D01*
X146431505Y-79031964D01*
X146520036Y-79120495D01*
X146628464Y-79183095D01*
X146749399Y-79215500D01*
X146749401Y-79215500D01*
X146874599Y-79215500D01*
X146874601Y-79215500D01*
X146995536Y-79183095D01*
X147103964Y-79120495D01*
X147192495Y-79031964D01*
X147255095Y-78923536D01*
X147287500Y-78802601D01*
X147287500Y-78677399D01*
X148359500Y-78677399D01*
X148359500Y-78802601D01*
X148391905Y-78923536D01*
X148454505Y-79031964D01*
X148543036Y-79120495D01*
X148651464Y-79183095D01*
X148772399Y-79215500D01*
X148772401Y-79215500D01*
X148897599Y-79215500D01*
X148897601Y-79215500D01*
X149018536Y-79183095D01*
X149126964Y-79120495D01*
X149215495Y-79031964D01*
X149278095Y-78923536D01*
X149310500Y-78802601D01*
X149310500Y-78677399D01*
X149892500Y-78677399D01*
X149892500Y-78802601D01*
X149924905Y-78923536D01*
X149987505Y-79031964D01*
X150076036Y-79120495D01*
X150184464Y-79183095D01*
X150305399Y-79215500D01*
X150305401Y-79215500D01*
X150430599Y-79215500D01*
X150430601Y-79215500D01*
X150551536Y-79183095D01*
X150659964Y-79120495D01*
X150717615Y-79062843D01*
X150778934Y-79029361D01*
X150848626Y-79034345D01*
X150904560Y-79076216D01*
X150925067Y-79118432D01*
X150940903Y-79177531D01*
X150940905Y-79177536D01*
X151003505Y-79285964D01*
X151092036Y-79374495D01*
X151200464Y-79437095D01*
X151321399Y-79469500D01*
X151321401Y-79469500D01*
X151446599Y-79469500D01*
X151446601Y-79469500D01*
X151567536Y-79437095D01*
X151675964Y-79374495D01*
X151764495Y-79285964D01*
X151827095Y-79177536D01*
X151859500Y-79056601D01*
X151859500Y-78931399D01*
X151827095Y-78810464D01*
X151764495Y-78702036D01*
X151715848Y-78653389D01*
X163999500Y-78653389D01*
X163999500Y-78826610D01*
X164025431Y-78990338D01*
X164026598Y-78997701D01*
X164080127Y-79162445D01*
X164158768Y-79316788D01*
X164260586Y-79456928D01*
X164383072Y-79579414D01*
X164523212Y-79681232D01*
X164677555Y-79759873D01*
X164842299Y-79813402D01*
X165013389Y-79840500D01*
X165013390Y-79840500D01*
X165186610Y-79840500D01*
X165186611Y-79840500D01*
X165357701Y-79813402D01*
X165522445Y-79759873D01*
X165676788Y-79681232D01*
X165816928Y-79579414D01*
X165939414Y-79456928D01*
X166041232Y-79316788D01*
X166119873Y-79162445D01*
X166173402Y-78997701D01*
X166200500Y-78826611D01*
X166200500Y-78653389D01*
X166173402Y-78482299D01*
X166119873Y-78317555D01*
X166041232Y-78163212D01*
X165939414Y-78023072D01*
X165816928Y-77900586D01*
X165676788Y-77798768D01*
X165522445Y-77720127D01*
X165357701Y-77666598D01*
X165357699Y-77666597D01*
X165357698Y-77666597D01*
X165226271Y-77645781D01*
X165186611Y-77639500D01*
X165013389Y-77639500D01*
X164973728Y-77645781D01*
X164842302Y-77666597D01*
X164677552Y-77720128D01*
X164523211Y-77798768D01*
X164496053Y-77818500D01*
X164383072Y-77900586D01*
X164383070Y-77900588D01*
X164383069Y-77900588D01*
X164260588Y-78023069D01*
X164260588Y-78023070D01*
X164260586Y-78023072D01*
X164216859Y-78083256D01*
X164158768Y-78163211D01*
X164080128Y-78317552D01*
X164026597Y-78482302D01*
X163999500Y-78653389D01*
X151715848Y-78653389D01*
X151675964Y-78613505D01*
X151567536Y-78550905D01*
X151567537Y-78550905D01*
X151521409Y-78538545D01*
X151446601Y-78518500D01*
X151321399Y-78518500D01*
X151246591Y-78538545D01*
X151200463Y-78550905D01*
X151092037Y-78613504D01*
X151034387Y-78671154D01*
X150973063Y-78704638D01*
X150903372Y-78699653D01*
X150847438Y-78657782D01*
X150826932Y-78615568D01*
X150811095Y-78556464D01*
X150748495Y-78448036D01*
X150659964Y-78359505D01*
X150551536Y-78296905D01*
X150551537Y-78296905D01*
X150511224Y-78286103D01*
X150430601Y-78264500D01*
X150305399Y-78264500D01*
X150224775Y-78286103D01*
X150184463Y-78296905D01*
X150076037Y-78359504D01*
X150076034Y-78359506D01*
X149987506Y-78448034D01*
X149987504Y-78448037D01*
X149924905Y-78556463D01*
X149924905Y-78556464D01*
X149892500Y-78677399D01*
X149310500Y-78677399D01*
X149291972Y-78608256D01*
X149291641Y-78606896D01*
X149293193Y-78573351D01*
X149293994Y-78539744D01*
X149294805Y-78538545D01*
X149294872Y-78537101D01*
X149314323Y-78509706D01*
X149333156Y-78481881D01*
X149334485Y-78481311D01*
X149335323Y-78480132D01*
X149366508Y-78467598D01*
X149397384Y-78454377D01*
X149399758Y-78454235D01*
X149400153Y-78454077D01*
X149400691Y-78454179D01*
X149412106Y-78453500D01*
X149414599Y-78453500D01*
X149414601Y-78453500D01*
X149535536Y-78421095D01*
X149643964Y-78358495D01*
X149732495Y-78269964D01*
X149795095Y-78161536D01*
X149827500Y-78040601D01*
X149827500Y-77915399D01*
X159798500Y-77915399D01*
X159798500Y-78040601D01*
X159830905Y-78161536D01*
X159893505Y-78269964D01*
X159982036Y-78358495D01*
X160090464Y-78421095D01*
X160211399Y-78453500D01*
X160211401Y-78453500D01*
X160336599Y-78453500D01*
X160336601Y-78453500D01*
X160457536Y-78421095D01*
X160565964Y-78358495D01*
X160654495Y-78269964D01*
X160717095Y-78161536D01*
X160749500Y-78040601D01*
X160749500Y-77915399D01*
X160717095Y-77794464D01*
X160654495Y-77686036D01*
X160565964Y-77597505D01*
X160457536Y-77534905D01*
X160457537Y-77534905D01*
X160417224Y-77524103D01*
X160336601Y-77502500D01*
X160211399Y-77502500D01*
X160130775Y-77524103D01*
X160090463Y-77534905D01*
X159982037Y-77597504D01*
X159982034Y-77597506D01*
X159893506Y-77686034D01*
X159893504Y-77686037D01*
X159830905Y-77794463D01*
X159824464Y-77818500D01*
X159798500Y-77915399D01*
X149827500Y-77915399D01*
X149795095Y-77794464D01*
X149732495Y-77686036D01*
X149643964Y-77597505D01*
X149535536Y-77534905D01*
X149535537Y-77534905D01*
X149495224Y-77524103D01*
X149414601Y-77502500D01*
X149289399Y-77502500D01*
X149208775Y-77524103D01*
X149168463Y-77534905D01*
X149060037Y-77597504D01*
X149060034Y-77597506D01*
X148971506Y-77686034D01*
X148971504Y-77686037D01*
X148908905Y-77794463D01*
X148902464Y-77818500D01*
X148876500Y-77915399D01*
X148876500Y-78040601D01*
X148894669Y-78108406D01*
X148893006Y-78178256D01*
X148853844Y-78236119D01*
X148789616Y-78263623D01*
X148774894Y-78264500D01*
X148772399Y-78264500D01*
X148691775Y-78286103D01*
X148651463Y-78296905D01*
X148543037Y-78359504D01*
X148543034Y-78359506D01*
X148454506Y-78448034D01*
X148454504Y-78448037D01*
X148391905Y-78556463D01*
X148391905Y-78556464D01*
X148359500Y-78677399D01*
X147287500Y-78677399D01*
X147255095Y-78556464D01*
X147192495Y-78448036D01*
X147103964Y-78359505D01*
X146995536Y-78296905D01*
X146995537Y-78296905D01*
X146955224Y-78286103D01*
X146874601Y-78264500D01*
X146749399Y-78264500D01*
X146668775Y-78286103D01*
X146628463Y-78296905D01*
X146520037Y-78359504D01*
X146520034Y-78359506D01*
X146431506Y-78448034D01*
X146431504Y-78448037D01*
X146368905Y-78556463D01*
X146368905Y-78556464D01*
X146336500Y-78677399D01*
X141021404Y-78677399D01*
X140986751Y-78625537D01*
X140986748Y-78625533D01*
X140847466Y-78486251D01*
X140847462Y-78486248D01*
X140683684Y-78376814D01*
X140683671Y-78376807D01*
X140501691Y-78301429D01*
X140501683Y-78301427D01*
X140460000Y-78293135D01*
X140460000Y-79096011D01*
X140450060Y-79078795D01*
X140394205Y-79022940D01*
X140325796Y-78983444D01*
X140249496Y-78963000D01*
X140170504Y-78963000D01*
X140094204Y-78983444D01*
X140025795Y-79022940D01*
X139969940Y-79078795D01*
X139960000Y-79096011D01*
X139960000Y-78293136D01*
X139959999Y-78293135D01*
X139918316Y-78301427D01*
X139918308Y-78301429D01*
X139736328Y-78376807D01*
X139736315Y-78376814D01*
X139572537Y-78486248D01*
X139572533Y-78486251D01*
X139433251Y-78625533D01*
X139433248Y-78625537D01*
X139323814Y-78789315D01*
X139323807Y-78789328D01*
X139299838Y-78847197D01*
X139255997Y-78901601D01*
X139189703Y-78923666D01*
X139122004Y-78906387D01*
X139109624Y-78896770D01*
X139109110Y-78897441D01*
X139102661Y-78892492D01*
X138982838Y-78823313D01*
X138982837Y-78823312D01*
X138982836Y-78823312D01*
X138849183Y-78787500D01*
X138710817Y-78787500D01*
X138577164Y-78823312D01*
X138577161Y-78823313D01*
X138457338Y-78892492D01*
X138457333Y-78892496D01*
X138359496Y-78990333D01*
X138359492Y-78990338D01*
X138290313Y-79110161D01*
X138290312Y-79110164D01*
X138254500Y-79243817D01*
X133525500Y-79243817D01*
X133489688Y-79110164D01*
X133443037Y-79029361D01*
X133420507Y-78990338D01*
X133420503Y-78990333D01*
X133322666Y-78892496D01*
X133322661Y-78892492D01*
X133202838Y-78823313D01*
X133202837Y-78823312D01*
X133202836Y-78823312D01*
X133069183Y-78787500D01*
X132930817Y-78787500D01*
X132797164Y-78823312D01*
X132797161Y-78823313D01*
X132677338Y-78892492D01*
X132670890Y-78897441D01*
X132668883Y-78894825D01*
X132620991Y-78920931D01*
X132551303Y-78915895D01*
X132495400Y-78873982D01*
X132480160Y-78847196D01*
X132456189Y-78789322D01*
X132456185Y-78789315D01*
X132346751Y-78625537D01*
X132346748Y-78625533D01*
X132207466Y-78486251D01*
X132207462Y-78486248D01*
X132043684Y-78376814D01*
X132043671Y-78376807D01*
X131861691Y-78301429D01*
X131861683Y-78301427D01*
X131820000Y-78293135D01*
X131820000Y-79096011D01*
X131810060Y-79078795D01*
X131754205Y-79022940D01*
X131685796Y-78983444D01*
X131609496Y-78963000D01*
X131530504Y-78963000D01*
X131454204Y-78983444D01*
X131385795Y-79022940D01*
X131329940Y-79078795D01*
X131320000Y-79096011D01*
X131320000Y-78293136D01*
X131319999Y-78293135D01*
X131278316Y-78301427D01*
X131278308Y-78301429D01*
X131096328Y-78376807D01*
X131096315Y-78376814D01*
X130932537Y-78486248D01*
X130932533Y-78486251D01*
X130793251Y-78625533D01*
X130793248Y-78625537D01*
X130683814Y-78789315D01*
X130683807Y-78789328D01*
X130608430Y-78971306D01*
X130608427Y-78971318D01*
X130570000Y-79164504D01*
X128281545Y-79164504D01*
X128295973Y-79120099D01*
X128295973Y-79120098D01*
X128316756Y-79056134D01*
X128316757Y-79056127D01*
X128350000Y-78846246D01*
X128350000Y-78633753D01*
X128316757Y-78423872D01*
X128316757Y-78423869D01*
X128251095Y-78221782D01*
X128154624Y-78032449D01*
X128115270Y-77978282D01*
X128115269Y-77978282D01*
X127482962Y-78610590D01*
X127465925Y-78547007D01*
X127400099Y-78432993D01*
X127307007Y-78339901D01*
X127192993Y-78274075D01*
X127129409Y-78257037D01*
X127761716Y-77624728D01*
X127707550Y-77585375D01*
X127608655Y-77534985D01*
X127557859Y-77487010D01*
X127541064Y-77419189D01*
X127563602Y-77353054D01*
X127618317Y-77309603D01*
X127664950Y-77300500D01*
X127874676Y-77300500D01*
X127874677Y-77300499D01*
X127947740Y-77285966D01*
X128030601Y-77230601D01*
X128082185Y-77153399D01*
X145574500Y-77153399D01*
X145574500Y-77278601D01*
X145606905Y-77399536D01*
X145669505Y-77507964D01*
X145758036Y-77596495D01*
X145866464Y-77659095D01*
X145987399Y-77691500D01*
X145987401Y-77691500D01*
X146112599Y-77691500D01*
X146112601Y-77691500D01*
X146233536Y-77659095D01*
X146341964Y-77596495D01*
X146430495Y-77507964D01*
X146493095Y-77399536D01*
X146525018Y-77280399D01*
X151289500Y-77280399D01*
X151289500Y-77405601D01*
X151321905Y-77526536D01*
X151384505Y-77634964D01*
X151473036Y-77723495D01*
X151581464Y-77786095D01*
X151702399Y-77818500D01*
X151702401Y-77818500D01*
X151827599Y-77818500D01*
X151827601Y-77818500D01*
X151948536Y-77786095D01*
X152056964Y-77723495D01*
X152145495Y-77634964D01*
X152208095Y-77526536D01*
X152240500Y-77405601D01*
X152240500Y-77280399D01*
X152208095Y-77159464D01*
X152145495Y-77051036D01*
X152056964Y-76962505D01*
X151948536Y-76899905D01*
X151948537Y-76899905D01*
X151904569Y-76888124D01*
X151827601Y-76867500D01*
X151702399Y-76867500D01*
X151625431Y-76888124D01*
X151581463Y-76899905D01*
X151473037Y-76962504D01*
X151473034Y-76962506D01*
X151384506Y-77051034D01*
X151384504Y-77051037D01*
X151321905Y-77159463D01*
X151321905Y-77159464D01*
X151289500Y-77280399D01*
X146525018Y-77280399D01*
X146525500Y-77278601D01*
X146525500Y-77153399D01*
X146493095Y-77032464D01*
X146430495Y-76924036D01*
X146341964Y-76835505D01*
X146233536Y-76772905D01*
X146233537Y-76772905D01*
X146209250Y-76766397D01*
X146112601Y-76740500D01*
X145987399Y-76740500D01*
X145925650Y-76757046D01*
X145866463Y-76772905D01*
X145758037Y-76835504D01*
X145758034Y-76835506D01*
X145669506Y-76924034D01*
X145669504Y-76924037D01*
X145606905Y-77032463D01*
X145601928Y-77051037D01*
X145574500Y-77153399D01*
X128082185Y-77153399D01*
X128085966Y-77147740D01*
X128085967Y-77147735D01*
X128091270Y-77121079D01*
X128091270Y-77121078D01*
X128100499Y-77074678D01*
X128100500Y-77074676D01*
X128100500Y-75325323D01*
X128100499Y-75325321D01*
X128085967Y-75252264D01*
X128085966Y-75252260D01*
X128030601Y-75169399D01*
X127975235Y-75132405D01*
X127947739Y-75114033D01*
X127947735Y-75114032D01*
X127874677Y-75099500D01*
X127874674Y-75099500D01*
X126125326Y-75099500D01*
X126125323Y-75099500D01*
X126052264Y-75114032D01*
X126052260Y-75114033D01*
X125969399Y-75169399D01*
X125914033Y-75252260D01*
X125914032Y-75252264D01*
X125899500Y-75325321D01*
X125899500Y-77074678D01*
X125914032Y-77147735D01*
X125914033Y-77147739D01*
X125932405Y-77175235D01*
X125969399Y-77230601D01*
X126043928Y-77280399D01*
X126052260Y-77285966D01*
X126052264Y-77285967D01*
X126125321Y-77300499D01*
X126125324Y-77300500D01*
X126335051Y-77300500D01*
X126402090Y-77320185D01*
X126447845Y-77372989D01*
X126457789Y-77442147D01*
X126428764Y-77505703D01*
X126391346Y-77534985D01*
X126292439Y-77585380D01*
X126238282Y-77624727D01*
X126238282Y-77624728D01*
X126870591Y-78257037D01*
X126807007Y-78274075D01*
X126692993Y-78339901D01*
X126599901Y-78432993D01*
X126534075Y-78547007D01*
X126517037Y-78610591D01*
X125884728Y-77978282D01*
X125884727Y-77978282D01*
X125845380Y-78032439D01*
X125748904Y-78221782D01*
X125683242Y-78423869D01*
X125683242Y-78423872D01*
X125650000Y-78633753D01*
X124550500Y-78633753D01*
X124550500Y-76004427D01*
X124550816Y-75995581D01*
X124555213Y-75934108D01*
X124565131Y-75795434D01*
X124567646Y-75777938D01*
X124609356Y-75586199D01*
X124614333Y-75569248D01*
X124682911Y-75385385D01*
X124690252Y-75369309D01*
X124784295Y-75197082D01*
X124793845Y-75182221D01*
X124911448Y-75025123D01*
X124923020Y-75011769D01*
X125061769Y-74873020D01*
X125075123Y-74861448D01*
X125232221Y-74743845D01*
X125247089Y-74734291D01*
X125419298Y-74640258D01*
X125435385Y-74632911D01*
X125619248Y-74564333D01*
X125636199Y-74559356D01*
X125827938Y-74517646D01*
X125845436Y-74515130D01*
X126045582Y-74500816D01*
X126054428Y-74500500D01*
X126115892Y-74500500D01*
X130624762Y-74500500D01*
X130691801Y-74520185D01*
G37*
%TD.AperFunction*%
%TD*%
M02*
