%TF.GenerationSoftware,KiCad,Pcbnew,9.0.5*%
%TF.CreationDate,2026-05-05T19:59:56-06:00*%
%TF.ProjectId,EtherCatDevBoard_V1-1,45746865-7243-4617-9444-6576426f6172,rev?*%
%TF.SameCoordinates,Original*%
%TF.FileFunction,Legend,Bot*%
%TF.FilePolarity,Positive*%
%FSLAX46Y46*%
G04 Gerber Fmt 4.6, Leading zero omitted, Abs format (unit mm)*
G04 Created by KiCad (PCBNEW 9.0.5) date 2026-05-05 19:59:56*
%MOMM*%
%LPD*%
G01*
G04 APERTURE LIST*
%ADD10C,0.150000*%
%ADD11C,0.120000*%
%ADD12C,0.100000*%
%ADD13C,0.000000*%
%ADD14C,1.300000*%
%ADD15C,0.650000*%
%ADD16O,1.000000X2.100000*%
%ADD17O,1.000000X1.800000*%
%ADD18R,1.700000X1.700000*%
%ADD19C,1.700000*%
G04 APERTURE END LIST*
D10*
X138819739Y-125442599D02*
X138819739Y-124642599D01*
X138819739Y-125023551D02*
X138419739Y-125023551D01*
X138419739Y-125442599D02*
X138419739Y-124642599D01*
X137819739Y-125404504D02*
X137886406Y-125442599D01*
X137886406Y-125442599D02*
X138019739Y-125442599D01*
X138019739Y-125442599D02*
X138086406Y-125404504D01*
X138086406Y-125404504D02*
X138119739Y-125328313D01*
X138119739Y-125328313D02*
X138119739Y-125023551D01*
X138119739Y-125023551D02*
X138086406Y-124947361D01*
X138086406Y-124947361D02*
X138019739Y-124909265D01*
X138019739Y-124909265D02*
X137886406Y-124909265D01*
X137886406Y-124909265D02*
X137819739Y-124947361D01*
X137819739Y-124947361D02*
X137786406Y-125023551D01*
X137786406Y-125023551D02*
X137786406Y-125099742D01*
X137786406Y-125099742D02*
X138119739Y-125175932D01*
X137486406Y-124909265D02*
X137486406Y-125442599D01*
X137486406Y-124985456D02*
X137453073Y-124947361D01*
X137453073Y-124947361D02*
X137386406Y-124909265D01*
X137386406Y-124909265D02*
X137286406Y-124909265D01*
X137286406Y-124909265D02*
X137219739Y-124947361D01*
X137219739Y-124947361D02*
X137186406Y-125023551D01*
X137186406Y-125023551D02*
X137186406Y-125442599D01*
X136853073Y-125442599D02*
X136853073Y-124909265D01*
X136853073Y-125061646D02*
X136819740Y-124985456D01*
X136819740Y-124985456D02*
X136786406Y-124947361D01*
X136786406Y-124947361D02*
X136719740Y-124909265D01*
X136719740Y-124909265D02*
X136653073Y-124909265D01*
X136486407Y-124909265D02*
X136319740Y-125442599D01*
X136153073Y-124909265D02*
X136319740Y-125442599D01*
X136319740Y-125442599D02*
X136386407Y-125633075D01*
X136386407Y-125633075D02*
X136419740Y-125671170D01*
X136419740Y-125671170D02*
X136486407Y-125709265D01*
X135353074Y-125442599D02*
X135353074Y-124642599D01*
X135353074Y-124642599D02*
X135186407Y-124642599D01*
X135186407Y-124642599D02*
X135086407Y-124680694D01*
X135086407Y-124680694D02*
X135019741Y-124756884D01*
X135019741Y-124756884D02*
X134986407Y-124833075D01*
X134986407Y-124833075D02*
X134953074Y-124985456D01*
X134953074Y-124985456D02*
X134953074Y-125099742D01*
X134953074Y-125099742D02*
X134986407Y-125252123D01*
X134986407Y-125252123D02*
X135019741Y-125328313D01*
X135019741Y-125328313D02*
X135086407Y-125404504D01*
X135086407Y-125404504D02*
X135186407Y-125442599D01*
X135186407Y-125442599D02*
X135353074Y-125442599D01*
X134653074Y-125442599D02*
X134653074Y-124909265D01*
X134653074Y-124642599D02*
X134686407Y-124680694D01*
X134686407Y-124680694D02*
X134653074Y-124718789D01*
X134653074Y-124718789D02*
X134619741Y-124680694D01*
X134619741Y-124680694D02*
X134653074Y-124642599D01*
X134653074Y-124642599D02*
X134653074Y-124718789D01*
X134053074Y-125404504D02*
X134119741Y-125442599D01*
X134119741Y-125442599D02*
X134253074Y-125442599D01*
X134253074Y-125442599D02*
X134319741Y-125404504D01*
X134319741Y-125404504D02*
X134353074Y-125328313D01*
X134353074Y-125328313D02*
X134353074Y-125023551D01*
X134353074Y-125023551D02*
X134319741Y-124947361D01*
X134319741Y-124947361D02*
X134253074Y-124909265D01*
X134253074Y-124909265D02*
X134119741Y-124909265D01*
X134119741Y-124909265D02*
X134053074Y-124947361D01*
X134053074Y-124947361D02*
X134019741Y-125023551D01*
X134019741Y-125023551D02*
X134019741Y-125099742D01*
X134019741Y-125099742D02*
X134353074Y-125175932D01*
X133719741Y-124909265D02*
X133719741Y-125709265D01*
X133719741Y-124947361D02*
X133653074Y-124909265D01*
X133653074Y-124909265D02*
X133519741Y-124909265D01*
X133519741Y-124909265D02*
X133453074Y-124947361D01*
X133453074Y-124947361D02*
X133419741Y-124985456D01*
X133419741Y-124985456D02*
X133386408Y-125061646D01*
X133386408Y-125061646D02*
X133386408Y-125290218D01*
X133386408Y-125290218D02*
X133419741Y-125366408D01*
X133419741Y-125366408D02*
X133453074Y-125404504D01*
X133453074Y-125404504D02*
X133519741Y-125442599D01*
X133519741Y-125442599D02*
X133653074Y-125442599D01*
X133653074Y-125442599D02*
X133719741Y-125404504D01*
X139569739Y-126654363D02*
X139603072Y-126692459D01*
X139603072Y-126692459D02*
X139703072Y-126730554D01*
X139703072Y-126730554D02*
X139769739Y-126730554D01*
X139769739Y-126730554D02*
X139869739Y-126692459D01*
X139869739Y-126692459D02*
X139936406Y-126616268D01*
X139936406Y-126616268D02*
X139969739Y-126540078D01*
X139969739Y-126540078D02*
X140003072Y-126387697D01*
X140003072Y-126387697D02*
X140003072Y-126273411D01*
X140003072Y-126273411D02*
X139969739Y-126121030D01*
X139969739Y-126121030D02*
X139936406Y-126044839D01*
X139936406Y-126044839D02*
X139869739Y-125968649D01*
X139869739Y-125968649D02*
X139769739Y-125930554D01*
X139769739Y-125930554D02*
X139703072Y-125930554D01*
X139703072Y-125930554D02*
X139603072Y-125968649D01*
X139603072Y-125968649D02*
X139569739Y-126006744D01*
X139269739Y-126730554D02*
X139269739Y-125930554D01*
X138969739Y-126730554D02*
X138969739Y-126311506D01*
X138969739Y-126311506D02*
X139003072Y-126235316D01*
X139003072Y-126235316D02*
X139069739Y-126197220D01*
X139069739Y-126197220D02*
X139169739Y-126197220D01*
X139169739Y-126197220D02*
X139236406Y-126235316D01*
X139236406Y-126235316D02*
X139269739Y-126273411D01*
X138636406Y-126730554D02*
X138636406Y-126197220D01*
X138636406Y-126349601D02*
X138603073Y-126273411D01*
X138603073Y-126273411D02*
X138569739Y-126235316D01*
X138569739Y-126235316D02*
X138503073Y-126197220D01*
X138503073Y-126197220D02*
X138436406Y-126197220D01*
X138203073Y-126730554D02*
X138203073Y-126197220D01*
X138203073Y-125930554D02*
X138236406Y-125968649D01*
X138236406Y-125968649D02*
X138203073Y-126006744D01*
X138203073Y-126006744D02*
X138169740Y-125968649D01*
X138169740Y-125968649D02*
X138203073Y-125930554D01*
X138203073Y-125930554D02*
X138203073Y-126006744D01*
X137903073Y-126692459D02*
X137836407Y-126730554D01*
X137836407Y-126730554D02*
X137703073Y-126730554D01*
X137703073Y-126730554D02*
X137636407Y-126692459D01*
X137636407Y-126692459D02*
X137603073Y-126616268D01*
X137603073Y-126616268D02*
X137603073Y-126578173D01*
X137603073Y-126578173D02*
X137636407Y-126501982D01*
X137636407Y-126501982D02*
X137703073Y-126463887D01*
X137703073Y-126463887D02*
X137803073Y-126463887D01*
X137803073Y-126463887D02*
X137869740Y-126425792D01*
X137869740Y-126425792D02*
X137903073Y-126349601D01*
X137903073Y-126349601D02*
X137903073Y-126311506D01*
X137903073Y-126311506D02*
X137869740Y-126235316D01*
X137869740Y-126235316D02*
X137803073Y-126197220D01*
X137803073Y-126197220D02*
X137703073Y-126197220D01*
X137703073Y-126197220D02*
X137636407Y-126235316D01*
X136369740Y-126730554D02*
X136603073Y-126349601D01*
X136769740Y-126730554D02*
X136769740Y-125930554D01*
X136769740Y-125930554D02*
X136503073Y-125930554D01*
X136503073Y-125930554D02*
X136436407Y-125968649D01*
X136436407Y-125968649D02*
X136403073Y-126006744D01*
X136403073Y-126006744D02*
X136369740Y-126082935D01*
X136369740Y-126082935D02*
X136369740Y-126197220D01*
X136369740Y-126197220D02*
X136403073Y-126273411D01*
X136403073Y-126273411D02*
X136436407Y-126311506D01*
X136436407Y-126311506D02*
X136503073Y-126349601D01*
X136503073Y-126349601D02*
X136769740Y-126349601D01*
X136069740Y-126730554D02*
X136069740Y-126197220D01*
X136069740Y-125930554D02*
X136103073Y-125968649D01*
X136103073Y-125968649D02*
X136069740Y-126006744D01*
X136069740Y-126006744D02*
X136036407Y-125968649D01*
X136036407Y-125968649D02*
X136069740Y-125930554D01*
X136069740Y-125930554D02*
X136069740Y-126006744D01*
X135803074Y-126197220D02*
X135636407Y-126730554D01*
X135636407Y-126730554D02*
X135469740Y-126197220D01*
X135203074Y-126730554D02*
X135203074Y-126197220D01*
X135203074Y-125930554D02*
X135236407Y-125968649D01*
X135236407Y-125968649D02*
X135203074Y-126006744D01*
X135203074Y-126006744D02*
X135169741Y-125968649D01*
X135169741Y-125968649D02*
X135203074Y-125930554D01*
X135203074Y-125930554D02*
X135203074Y-126006744D01*
X134869741Y-126197220D02*
X134869741Y-126730554D01*
X134869741Y-126273411D02*
X134836408Y-126235316D01*
X134836408Y-126235316D02*
X134769741Y-126197220D01*
X134769741Y-126197220D02*
X134669741Y-126197220D01*
X134669741Y-126197220D02*
X134603074Y-126235316D01*
X134603074Y-126235316D02*
X134569741Y-126311506D01*
X134569741Y-126311506D02*
X134569741Y-126730554D01*
X133936408Y-126197220D02*
X133936408Y-126844839D01*
X133936408Y-126844839D02*
X133969741Y-126921030D01*
X133969741Y-126921030D02*
X134003075Y-126959125D01*
X134003075Y-126959125D02*
X134069741Y-126997220D01*
X134069741Y-126997220D02*
X134169741Y-126997220D01*
X134169741Y-126997220D02*
X134236408Y-126959125D01*
X133936408Y-126692459D02*
X134003075Y-126730554D01*
X134003075Y-126730554D02*
X134136408Y-126730554D01*
X134136408Y-126730554D02*
X134203075Y-126692459D01*
X134203075Y-126692459D02*
X134236408Y-126654363D01*
X134236408Y-126654363D02*
X134269741Y-126578173D01*
X134269741Y-126578173D02*
X134269741Y-126349601D01*
X134269741Y-126349601D02*
X134236408Y-126273411D01*
X134236408Y-126273411D02*
X134203075Y-126235316D01*
X134203075Y-126235316D02*
X134136408Y-126197220D01*
X134136408Y-126197220D02*
X134003075Y-126197220D01*
X134003075Y-126197220D02*
X133936408Y-126235316D01*
X133703075Y-126197220D02*
X133436408Y-126197220D01*
X133603075Y-125930554D02*
X133603075Y-126616268D01*
X133603075Y-126616268D02*
X133569742Y-126692459D01*
X133569742Y-126692459D02*
X133503075Y-126730554D01*
X133503075Y-126730554D02*
X133436408Y-126730554D01*
X133103075Y-126730554D02*
X133169742Y-126692459D01*
X133169742Y-126692459D02*
X133203075Y-126654363D01*
X133203075Y-126654363D02*
X133236408Y-126578173D01*
X133236408Y-126578173D02*
X133236408Y-126349601D01*
X133236408Y-126349601D02*
X133203075Y-126273411D01*
X133203075Y-126273411D02*
X133169742Y-126235316D01*
X133169742Y-126235316D02*
X133103075Y-126197220D01*
X133103075Y-126197220D02*
X133003075Y-126197220D01*
X133003075Y-126197220D02*
X132936408Y-126235316D01*
X132936408Y-126235316D02*
X132903075Y-126273411D01*
X132903075Y-126273411D02*
X132869742Y-126349601D01*
X132869742Y-126349601D02*
X132869742Y-126578173D01*
X132869742Y-126578173D02*
X132903075Y-126654363D01*
X132903075Y-126654363D02*
X132936408Y-126692459D01*
X132936408Y-126692459D02*
X133003075Y-126730554D01*
X133003075Y-126730554D02*
X133103075Y-126730554D01*
X132569742Y-126197220D02*
X132569742Y-126730554D01*
X132569742Y-126273411D02*
X132536409Y-126235316D01*
X132536409Y-126235316D02*
X132469742Y-126197220D01*
X132469742Y-126197220D02*
X132369742Y-126197220D01*
X132369742Y-126197220D02*
X132303075Y-126235316D01*
X132303075Y-126235316D02*
X132269742Y-126311506D01*
X132269742Y-126311506D02*
X132269742Y-126730554D01*
X139069739Y-128018509D02*
X139303072Y-127637556D01*
X139469739Y-128018509D02*
X139469739Y-127218509D01*
X139469739Y-127218509D02*
X139203072Y-127218509D01*
X139203072Y-127218509D02*
X139136406Y-127256604D01*
X139136406Y-127256604D02*
X139103072Y-127294699D01*
X139103072Y-127294699D02*
X139069739Y-127370890D01*
X139069739Y-127370890D02*
X139069739Y-127485175D01*
X139069739Y-127485175D02*
X139103072Y-127561366D01*
X139103072Y-127561366D02*
X139136406Y-127599461D01*
X139136406Y-127599461D02*
X139203072Y-127637556D01*
X139203072Y-127637556D02*
X139469739Y-127637556D01*
X138669739Y-128018509D02*
X138736406Y-127980414D01*
X138736406Y-127980414D02*
X138769739Y-127942318D01*
X138769739Y-127942318D02*
X138803072Y-127866128D01*
X138803072Y-127866128D02*
X138803072Y-127637556D01*
X138803072Y-127637556D02*
X138769739Y-127561366D01*
X138769739Y-127561366D02*
X138736406Y-127523271D01*
X138736406Y-127523271D02*
X138669739Y-127485175D01*
X138669739Y-127485175D02*
X138569739Y-127485175D01*
X138569739Y-127485175D02*
X138503072Y-127523271D01*
X138503072Y-127523271D02*
X138469739Y-127561366D01*
X138469739Y-127561366D02*
X138436406Y-127637556D01*
X138436406Y-127637556D02*
X138436406Y-127866128D01*
X138436406Y-127866128D02*
X138469739Y-127942318D01*
X138469739Y-127942318D02*
X138503072Y-127980414D01*
X138503072Y-127980414D02*
X138569739Y-128018509D01*
X138569739Y-128018509D02*
X138669739Y-128018509D01*
X138136406Y-127485175D02*
X138136406Y-128018509D01*
X138136406Y-127561366D02*
X138103073Y-127523271D01*
X138103073Y-127523271D02*
X138036406Y-127485175D01*
X138036406Y-127485175D02*
X137936406Y-127485175D01*
X137936406Y-127485175D02*
X137869739Y-127523271D01*
X137869739Y-127523271D02*
X137836406Y-127599461D01*
X137836406Y-127599461D02*
X137836406Y-128018509D01*
X137203073Y-128018509D02*
X137203073Y-127599461D01*
X137203073Y-127599461D02*
X137236406Y-127523271D01*
X137236406Y-127523271D02*
X137303073Y-127485175D01*
X137303073Y-127485175D02*
X137436406Y-127485175D01*
X137436406Y-127485175D02*
X137503073Y-127523271D01*
X137203073Y-127980414D02*
X137269740Y-128018509D01*
X137269740Y-128018509D02*
X137436406Y-128018509D01*
X137436406Y-128018509D02*
X137503073Y-127980414D01*
X137503073Y-127980414D02*
X137536406Y-127904223D01*
X137536406Y-127904223D02*
X137536406Y-127828033D01*
X137536406Y-127828033D02*
X137503073Y-127751842D01*
X137503073Y-127751842D02*
X137436406Y-127713747D01*
X137436406Y-127713747D02*
X137269740Y-127713747D01*
X137269740Y-127713747D02*
X137203073Y-127675652D01*
X136869740Y-128018509D02*
X136869740Y-127218509D01*
X136803073Y-127713747D02*
X136603073Y-128018509D01*
X136603073Y-127485175D02*
X136869740Y-127789937D01*
X135403073Y-127256604D02*
X135469740Y-127218509D01*
X135469740Y-127218509D02*
X135569740Y-127218509D01*
X135569740Y-127218509D02*
X135669740Y-127256604D01*
X135669740Y-127256604D02*
X135736407Y-127332794D01*
X135736407Y-127332794D02*
X135769740Y-127408985D01*
X135769740Y-127408985D02*
X135803073Y-127561366D01*
X135803073Y-127561366D02*
X135803073Y-127675652D01*
X135803073Y-127675652D02*
X135769740Y-127828033D01*
X135769740Y-127828033D02*
X135736407Y-127904223D01*
X135736407Y-127904223D02*
X135669740Y-127980414D01*
X135669740Y-127980414D02*
X135569740Y-128018509D01*
X135569740Y-128018509D02*
X135503073Y-128018509D01*
X135503073Y-128018509D02*
X135403073Y-127980414D01*
X135403073Y-127980414D02*
X135369740Y-127942318D01*
X135369740Y-127942318D02*
X135369740Y-127675652D01*
X135369740Y-127675652D02*
X135503073Y-127675652D01*
X135069740Y-128018509D02*
X135069740Y-127485175D01*
X135069740Y-127637556D02*
X135036407Y-127561366D01*
X135036407Y-127561366D02*
X135003073Y-127523271D01*
X135003073Y-127523271D02*
X134936407Y-127485175D01*
X134936407Y-127485175D02*
X134869740Y-127485175D01*
X134536407Y-128018509D02*
X134603074Y-127980414D01*
X134603074Y-127980414D02*
X134636407Y-127942318D01*
X134636407Y-127942318D02*
X134669740Y-127866128D01*
X134669740Y-127866128D02*
X134669740Y-127637556D01*
X134669740Y-127637556D02*
X134636407Y-127561366D01*
X134636407Y-127561366D02*
X134603074Y-127523271D01*
X134603074Y-127523271D02*
X134536407Y-127485175D01*
X134536407Y-127485175D02*
X134436407Y-127485175D01*
X134436407Y-127485175D02*
X134369740Y-127523271D01*
X134369740Y-127523271D02*
X134336407Y-127561366D01*
X134336407Y-127561366D02*
X134303074Y-127637556D01*
X134303074Y-127637556D02*
X134303074Y-127866128D01*
X134303074Y-127866128D02*
X134336407Y-127942318D01*
X134336407Y-127942318D02*
X134369740Y-127980414D01*
X134369740Y-127980414D02*
X134436407Y-128018509D01*
X134436407Y-128018509D02*
X134536407Y-128018509D01*
X134069741Y-127485175D02*
X133903074Y-128018509D01*
X133903074Y-128018509D02*
X133736407Y-127485175D01*
X133203074Y-127980414D02*
X133269741Y-128018509D01*
X133269741Y-128018509D02*
X133403074Y-128018509D01*
X133403074Y-128018509D02*
X133469741Y-127980414D01*
X133469741Y-127980414D02*
X133503074Y-127904223D01*
X133503074Y-127904223D02*
X133503074Y-127599461D01*
X133503074Y-127599461D02*
X133469741Y-127523271D01*
X133469741Y-127523271D02*
X133403074Y-127485175D01*
X133403074Y-127485175D02*
X133269741Y-127485175D01*
X133269741Y-127485175D02*
X133203074Y-127523271D01*
X133203074Y-127523271D02*
X133169741Y-127599461D01*
X133169741Y-127599461D02*
X133169741Y-127675652D01*
X133169741Y-127675652D02*
X133503074Y-127751842D01*
X132869741Y-128018509D02*
X132869741Y-127485175D01*
X132869741Y-127637556D02*
X132836408Y-127561366D01*
X132836408Y-127561366D02*
X132803074Y-127523271D01*
X132803074Y-127523271D02*
X132736408Y-127485175D01*
X132736408Y-127485175D02*
X132669741Y-127485175D01*
X160405998Y-125380245D02*
X160305998Y-125418340D01*
X160305998Y-125418340D02*
X160139332Y-125418340D01*
X160139332Y-125418340D02*
X160072665Y-125380245D01*
X160072665Y-125380245D02*
X160039332Y-125342149D01*
X160039332Y-125342149D02*
X160005998Y-125265959D01*
X160005998Y-125265959D02*
X160005998Y-125189768D01*
X160005998Y-125189768D02*
X160039332Y-125113578D01*
X160039332Y-125113578D02*
X160072665Y-125075483D01*
X160072665Y-125075483D02*
X160139332Y-125037387D01*
X160139332Y-125037387D02*
X160272665Y-124999292D01*
X160272665Y-124999292D02*
X160339332Y-124961197D01*
X160339332Y-124961197D02*
X160372665Y-124923102D01*
X160372665Y-124923102D02*
X160405998Y-124846911D01*
X160405998Y-124846911D02*
X160405998Y-124770721D01*
X160405998Y-124770721D02*
X160372665Y-124694530D01*
X160372665Y-124694530D02*
X160339332Y-124656435D01*
X160339332Y-124656435D02*
X160272665Y-124618340D01*
X160272665Y-124618340D02*
X160105998Y-124618340D01*
X160105998Y-124618340D02*
X160005998Y-124656435D01*
X159705998Y-124885006D02*
X159705998Y-125685006D01*
X159705998Y-124923102D02*
X159639331Y-124885006D01*
X159639331Y-124885006D02*
X159505998Y-124885006D01*
X159505998Y-124885006D02*
X159439331Y-124923102D01*
X159439331Y-124923102D02*
X159405998Y-124961197D01*
X159405998Y-124961197D02*
X159372665Y-125037387D01*
X159372665Y-125037387D02*
X159372665Y-125265959D01*
X159372665Y-125265959D02*
X159405998Y-125342149D01*
X159405998Y-125342149D02*
X159439331Y-125380245D01*
X159439331Y-125380245D02*
X159505998Y-125418340D01*
X159505998Y-125418340D02*
X159639331Y-125418340D01*
X159639331Y-125418340D02*
X159705998Y-125380245D01*
X158772665Y-125418340D02*
X158772665Y-124999292D01*
X158772665Y-124999292D02*
X158805998Y-124923102D01*
X158805998Y-124923102D02*
X158872665Y-124885006D01*
X158872665Y-124885006D02*
X159005998Y-124885006D01*
X159005998Y-124885006D02*
X159072665Y-124923102D01*
X158772665Y-125380245D02*
X158839332Y-125418340D01*
X158839332Y-125418340D02*
X159005998Y-125418340D01*
X159005998Y-125418340D02*
X159072665Y-125380245D01*
X159072665Y-125380245D02*
X159105998Y-125304054D01*
X159105998Y-125304054D02*
X159105998Y-125227864D01*
X159105998Y-125227864D02*
X159072665Y-125151673D01*
X159072665Y-125151673D02*
X159005998Y-125113578D01*
X159005998Y-125113578D02*
X158839332Y-125113578D01*
X158839332Y-125113578D02*
X158772665Y-125075483D01*
X158139332Y-125380245D02*
X158205999Y-125418340D01*
X158205999Y-125418340D02*
X158339332Y-125418340D01*
X158339332Y-125418340D02*
X158405999Y-125380245D01*
X158405999Y-125380245D02*
X158439332Y-125342149D01*
X158439332Y-125342149D02*
X158472665Y-125265959D01*
X158472665Y-125265959D02*
X158472665Y-125037387D01*
X158472665Y-125037387D02*
X158439332Y-124961197D01*
X158439332Y-124961197D02*
X158405999Y-124923102D01*
X158405999Y-124923102D02*
X158339332Y-124885006D01*
X158339332Y-124885006D02*
X158205999Y-124885006D01*
X158205999Y-124885006D02*
X158139332Y-124923102D01*
X157572665Y-125380245D02*
X157639332Y-125418340D01*
X157639332Y-125418340D02*
X157772665Y-125418340D01*
X157772665Y-125418340D02*
X157839332Y-125380245D01*
X157839332Y-125380245D02*
X157872665Y-125304054D01*
X157872665Y-125304054D02*
X157872665Y-124999292D01*
X157872665Y-124999292D02*
X157839332Y-124923102D01*
X157839332Y-124923102D02*
X157772665Y-124885006D01*
X157772665Y-124885006D02*
X157639332Y-124885006D01*
X157639332Y-124885006D02*
X157572665Y-124923102D01*
X157572665Y-124923102D02*
X157539332Y-124999292D01*
X157539332Y-124999292D02*
X157539332Y-125075483D01*
X157539332Y-125075483D02*
X157872665Y-125151673D01*
X156705999Y-124999292D02*
X156472666Y-124999292D01*
X156372666Y-125418340D02*
X156705999Y-125418340D01*
X156705999Y-125418340D02*
X156705999Y-124618340D01*
X156705999Y-124618340D02*
X156372666Y-124618340D01*
X156139333Y-125418340D02*
X155772666Y-124885006D01*
X156139333Y-124885006D02*
X155772666Y-125418340D01*
X155505999Y-124885006D02*
X155505999Y-125685006D01*
X155505999Y-124923102D02*
X155439332Y-124885006D01*
X155439332Y-124885006D02*
X155305999Y-124885006D01*
X155305999Y-124885006D02*
X155239332Y-124923102D01*
X155239332Y-124923102D02*
X155205999Y-124961197D01*
X155205999Y-124961197D02*
X155172666Y-125037387D01*
X155172666Y-125037387D02*
X155172666Y-125265959D01*
X155172666Y-125265959D02*
X155205999Y-125342149D01*
X155205999Y-125342149D02*
X155239332Y-125380245D01*
X155239332Y-125380245D02*
X155305999Y-125418340D01*
X155305999Y-125418340D02*
X155439332Y-125418340D01*
X155439332Y-125418340D02*
X155505999Y-125380245D01*
X154772666Y-125418340D02*
X154839333Y-125380245D01*
X154839333Y-125380245D02*
X154872666Y-125304054D01*
X154872666Y-125304054D02*
X154872666Y-124618340D01*
X154405999Y-125418340D02*
X154472666Y-125380245D01*
X154472666Y-125380245D02*
X154505999Y-125342149D01*
X154505999Y-125342149D02*
X154539332Y-125265959D01*
X154539332Y-125265959D02*
X154539332Y-125037387D01*
X154539332Y-125037387D02*
X154505999Y-124961197D01*
X154505999Y-124961197D02*
X154472666Y-124923102D01*
X154472666Y-124923102D02*
X154405999Y-124885006D01*
X154405999Y-124885006D02*
X154305999Y-124885006D01*
X154305999Y-124885006D02*
X154239332Y-124923102D01*
X154239332Y-124923102D02*
X154205999Y-124961197D01*
X154205999Y-124961197D02*
X154172666Y-125037387D01*
X154172666Y-125037387D02*
X154172666Y-125265959D01*
X154172666Y-125265959D02*
X154205999Y-125342149D01*
X154205999Y-125342149D02*
X154239332Y-125380245D01*
X154239332Y-125380245D02*
X154305999Y-125418340D01*
X154305999Y-125418340D02*
X154405999Y-125418340D01*
X153872666Y-125418340D02*
X153872666Y-124885006D01*
X153872666Y-125037387D02*
X153839333Y-124961197D01*
X153839333Y-124961197D02*
X153805999Y-124923102D01*
X153805999Y-124923102D02*
X153739333Y-124885006D01*
X153739333Y-124885006D02*
X153672666Y-124885006D01*
X153139333Y-125418340D02*
X153139333Y-124999292D01*
X153139333Y-124999292D02*
X153172666Y-124923102D01*
X153172666Y-124923102D02*
X153239333Y-124885006D01*
X153239333Y-124885006D02*
X153372666Y-124885006D01*
X153372666Y-124885006D02*
X153439333Y-124923102D01*
X153139333Y-125380245D02*
X153206000Y-125418340D01*
X153206000Y-125418340D02*
X153372666Y-125418340D01*
X153372666Y-125418340D02*
X153439333Y-125380245D01*
X153439333Y-125380245D02*
X153472666Y-125304054D01*
X153472666Y-125304054D02*
X153472666Y-125227864D01*
X153472666Y-125227864D02*
X153439333Y-125151673D01*
X153439333Y-125151673D02*
X153372666Y-125113578D01*
X153372666Y-125113578D02*
X153206000Y-125113578D01*
X153206000Y-125113578D02*
X153139333Y-125075483D01*
X152906000Y-124885006D02*
X152639333Y-124885006D01*
X152806000Y-124618340D02*
X152806000Y-125304054D01*
X152806000Y-125304054D02*
X152772667Y-125380245D01*
X152772667Y-125380245D02*
X152706000Y-125418340D01*
X152706000Y-125418340D02*
X152639333Y-125418340D01*
X152406000Y-125418340D02*
X152406000Y-124885006D01*
X152406000Y-124618340D02*
X152439333Y-124656435D01*
X152439333Y-124656435D02*
X152406000Y-124694530D01*
X152406000Y-124694530D02*
X152372667Y-124656435D01*
X152372667Y-124656435D02*
X152406000Y-124618340D01*
X152406000Y-124618340D02*
X152406000Y-124694530D01*
X151972667Y-125418340D02*
X152039334Y-125380245D01*
X152039334Y-125380245D02*
X152072667Y-125342149D01*
X152072667Y-125342149D02*
X152106000Y-125265959D01*
X152106000Y-125265959D02*
X152106000Y-125037387D01*
X152106000Y-125037387D02*
X152072667Y-124961197D01*
X152072667Y-124961197D02*
X152039334Y-124923102D01*
X152039334Y-124923102D02*
X151972667Y-124885006D01*
X151972667Y-124885006D02*
X151872667Y-124885006D01*
X151872667Y-124885006D02*
X151806000Y-124923102D01*
X151806000Y-124923102D02*
X151772667Y-124961197D01*
X151772667Y-124961197D02*
X151739334Y-125037387D01*
X151739334Y-125037387D02*
X151739334Y-125265959D01*
X151739334Y-125265959D02*
X151772667Y-125342149D01*
X151772667Y-125342149D02*
X151806000Y-125380245D01*
X151806000Y-125380245D02*
X151872667Y-125418340D01*
X151872667Y-125418340D02*
X151972667Y-125418340D01*
X151439334Y-124885006D02*
X151439334Y-125418340D01*
X151439334Y-124961197D02*
X151406001Y-124923102D01*
X151406001Y-124923102D02*
X151339334Y-124885006D01*
X151339334Y-124885006D02*
X151239334Y-124885006D01*
X151239334Y-124885006D02*
X151172667Y-124923102D01*
X151172667Y-124923102D02*
X151139334Y-124999292D01*
X151139334Y-124999292D02*
X151139334Y-125418340D01*
X159972665Y-126477723D02*
X159639332Y-126477723D01*
X160039332Y-126706295D02*
X159805999Y-125906295D01*
X159805999Y-125906295D02*
X159572665Y-126706295D01*
X159239332Y-126706295D02*
X159305999Y-126668200D01*
X159305999Y-126668200D02*
X159339332Y-126592009D01*
X159339332Y-126592009D02*
X159339332Y-125906295D01*
X158972665Y-126706295D02*
X158972665Y-125906295D01*
X158972665Y-126211057D02*
X158905998Y-126172961D01*
X158905998Y-126172961D02*
X158772665Y-126172961D01*
X158772665Y-126172961D02*
X158705998Y-126211057D01*
X158705998Y-126211057D02*
X158672665Y-126249152D01*
X158672665Y-126249152D02*
X158639332Y-126325342D01*
X158639332Y-126325342D02*
X158639332Y-126553914D01*
X158639332Y-126553914D02*
X158672665Y-126630104D01*
X158672665Y-126630104D02*
X158705998Y-126668200D01*
X158705998Y-126668200D02*
X158772665Y-126706295D01*
X158772665Y-126706295D02*
X158905998Y-126706295D01*
X158905998Y-126706295D02*
X158972665Y-126668200D01*
X158072665Y-126668200D02*
X158139332Y-126706295D01*
X158139332Y-126706295D02*
X158272665Y-126706295D01*
X158272665Y-126706295D02*
X158339332Y-126668200D01*
X158339332Y-126668200D02*
X158372665Y-126592009D01*
X158372665Y-126592009D02*
X158372665Y-126287247D01*
X158372665Y-126287247D02*
X158339332Y-126211057D01*
X158339332Y-126211057D02*
X158272665Y-126172961D01*
X158272665Y-126172961D02*
X158139332Y-126172961D01*
X158139332Y-126172961D02*
X158072665Y-126211057D01*
X158072665Y-126211057D02*
X158039332Y-126287247D01*
X158039332Y-126287247D02*
X158039332Y-126363438D01*
X158039332Y-126363438D02*
X158372665Y-126439628D01*
X157739332Y-126706295D02*
X157739332Y-126172961D01*
X157739332Y-126325342D02*
X157705999Y-126249152D01*
X157705999Y-126249152D02*
X157672665Y-126211057D01*
X157672665Y-126211057D02*
X157605999Y-126172961D01*
X157605999Y-126172961D02*
X157539332Y-126172961D01*
X157405999Y-126172961D02*
X157139332Y-126172961D01*
X157305999Y-125906295D02*
X157305999Y-126592009D01*
X157305999Y-126592009D02*
X157272666Y-126668200D01*
X157272666Y-126668200D02*
X157205999Y-126706295D01*
X157205999Y-126706295D02*
X157139332Y-126706295D01*
X156605999Y-126706295D02*
X156605999Y-126287247D01*
X156605999Y-126287247D02*
X156639332Y-126211057D01*
X156639332Y-126211057D02*
X156705999Y-126172961D01*
X156705999Y-126172961D02*
X156839332Y-126172961D01*
X156839332Y-126172961D02*
X156905999Y-126211057D01*
X156605999Y-126668200D02*
X156672666Y-126706295D01*
X156672666Y-126706295D02*
X156839332Y-126706295D01*
X156839332Y-126706295D02*
X156905999Y-126668200D01*
X156905999Y-126668200D02*
X156939332Y-126592009D01*
X156939332Y-126592009D02*
X156939332Y-126515819D01*
X156939332Y-126515819D02*
X156905999Y-126439628D01*
X156905999Y-126439628D02*
X156839332Y-126401533D01*
X156839332Y-126401533D02*
X156672666Y-126401533D01*
X156672666Y-126401533D02*
X156605999Y-126363438D01*
X155339333Y-126706295D02*
X155572666Y-126325342D01*
X155739333Y-126706295D02*
X155739333Y-125906295D01*
X155739333Y-125906295D02*
X155472666Y-125906295D01*
X155472666Y-125906295D02*
X155406000Y-125944390D01*
X155406000Y-125944390D02*
X155372666Y-125982485D01*
X155372666Y-125982485D02*
X155339333Y-126058676D01*
X155339333Y-126058676D02*
X155339333Y-126172961D01*
X155339333Y-126172961D02*
X155372666Y-126249152D01*
X155372666Y-126249152D02*
X155406000Y-126287247D01*
X155406000Y-126287247D02*
X155472666Y-126325342D01*
X155472666Y-126325342D02*
X155739333Y-126325342D01*
X154939333Y-126706295D02*
X155006000Y-126668200D01*
X155006000Y-126668200D02*
X155039333Y-126630104D01*
X155039333Y-126630104D02*
X155072666Y-126553914D01*
X155072666Y-126553914D02*
X155072666Y-126325342D01*
X155072666Y-126325342D02*
X155039333Y-126249152D01*
X155039333Y-126249152D02*
X155006000Y-126211057D01*
X155006000Y-126211057D02*
X154939333Y-126172961D01*
X154939333Y-126172961D02*
X154839333Y-126172961D01*
X154839333Y-126172961D02*
X154772666Y-126211057D01*
X154772666Y-126211057D02*
X154739333Y-126249152D01*
X154739333Y-126249152D02*
X154706000Y-126325342D01*
X154706000Y-126325342D02*
X154706000Y-126553914D01*
X154706000Y-126553914D02*
X154739333Y-126630104D01*
X154739333Y-126630104D02*
X154772666Y-126668200D01*
X154772666Y-126668200D02*
X154839333Y-126706295D01*
X154839333Y-126706295D02*
X154939333Y-126706295D01*
X154406000Y-126706295D02*
X154406000Y-125906295D01*
X154406000Y-126211057D02*
X154339333Y-126172961D01*
X154339333Y-126172961D02*
X154206000Y-126172961D01*
X154206000Y-126172961D02*
X154139333Y-126211057D01*
X154139333Y-126211057D02*
X154106000Y-126249152D01*
X154106000Y-126249152D02*
X154072667Y-126325342D01*
X154072667Y-126325342D02*
X154072667Y-126553914D01*
X154072667Y-126553914D02*
X154106000Y-126630104D01*
X154106000Y-126630104D02*
X154139333Y-126668200D01*
X154139333Y-126668200D02*
X154206000Y-126706295D01*
X154206000Y-126706295D02*
X154339333Y-126706295D01*
X154339333Y-126706295D02*
X154406000Y-126668200D01*
X153672667Y-126706295D02*
X153739334Y-126668200D01*
X153739334Y-126668200D02*
X153772667Y-126630104D01*
X153772667Y-126630104D02*
X153806000Y-126553914D01*
X153806000Y-126553914D02*
X153806000Y-126325342D01*
X153806000Y-126325342D02*
X153772667Y-126249152D01*
X153772667Y-126249152D02*
X153739334Y-126211057D01*
X153739334Y-126211057D02*
X153672667Y-126172961D01*
X153672667Y-126172961D02*
X153572667Y-126172961D01*
X153572667Y-126172961D02*
X153506000Y-126211057D01*
X153506000Y-126211057D02*
X153472667Y-126249152D01*
X153472667Y-126249152D02*
X153439334Y-126325342D01*
X153439334Y-126325342D02*
X153439334Y-126553914D01*
X153439334Y-126553914D02*
X153472667Y-126630104D01*
X153472667Y-126630104D02*
X153506000Y-126668200D01*
X153506000Y-126668200D02*
X153572667Y-126706295D01*
X153572667Y-126706295D02*
X153672667Y-126706295D01*
X153239334Y-126172961D02*
X152972667Y-126172961D01*
X153139334Y-125906295D02*
X153139334Y-126592009D01*
X153139334Y-126592009D02*
X153106001Y-126668200D01*
X153106001Y-126668200D02*
X153039334Y-126706295D01*
X153039334Y-126706295D02*
X152972667Y-126706295D01*
X152739334Y-126706295D02*
X152739334Y-126172961D01*
X152739334Y-125906295D02*
X152772667Y-125944390D01*
X152772667Y-125944390D02*
X152739334Y-125982485D01*
X152739334Y-125982485D02*
X152706001Y-125944390D01*
X152706001Y-125944390D02*
X152739334Y-125906295D01*
X152739334Y-125906295D02*
X152739334Y-125982485D01*
X152106001Y-126668200D02*
X152172668Y-126706295D01*
X152172668Y-126706295D02*
X152306001Y-126706295D01*
X152306001Y-126706295D02*
X152372668Y-126668200D01*
X152372668Y-126668200D02*
X152406001Y-126630104D01*
X152406001Y-126630104D02*
X152439334Y-126553914D01*
X152439334Y-126553914D02*
X152439334Y-126325342D01*
X152439334Y-126325342D02*
X152406001Y-126249152D01*
X152406001Y-126249152D02*
X152372668Y-126211057D01*
X152372668Y-126211057D02*
X152306001Y-126172961D01*
X152306001Y-126172961D02*
X152172668Y-126172961D01*
X152172668Y-126172961D02*
X152106001Y-126211057D01*
X151839334Y-126668200D02*
X151772668Y-126706295D01*
X151772668Y-126706295D02*
X151639334Y-126706295D01*
X151639334Y-126706295D02*
X151572668Y-126668200D01*
X151572668Y-126668200D02*
X151539334Y-126592009D01*
X151539334Y-126592009D02*
X151539334Y-126553914D01*
X151539334Y-126553914D02*
X151572668Y-126477723D01*
X151572668Y-126477723D02*
X151639334Y-126439628D01*
X151639334Y-126439628D02*
X151739334Y-126439628D01*
X151739334Y-126439628D02*
X151806001Y-126401533D01*
X151806001Y-126401533D02*
X151839334Y-126325342D01*
X151839334Y-126325342D02*
X151839334Y-126287247D01*
X151839334Y-126287247D02*
X151806001Y-126211057D01*
X151806001Y-126211057D02*
X151739334Y-126172961D01*
X151739334Y-126172961D02*
X151639334Y-126172961D01*
X151639334Y-126172961D02*
X151572668Y-126211057D01*
X156956000Y-127270440D02*
X156922667Y-127232345D01*
X156922667Y-127232345D02*
X156856000Y-127194250D01*
X156856000Y-127194250D02*
X156689334Y-127194250D01*
X156689334Y-127194250D02*
X156622667Y-127232345D01*
X156622667Y-127232345D02*
X156589334Y-127270440D01*
X156589334Y-127270440D02*
X156556000Y-127346631D01*
X156556000Y-127346631D02*
X156556000Y-127422821D01*
X156556000Y-127422821D02*
X156589334Y-127537107D01*
X156589334Y-127537107D02*
X156989334Y-127994250D01*
X156989334Y-127994250D02*
X156556000Y-127994250D01*
X156122667Y-127194250D02*
X156056000Y-127194250D01*
X156056000Y-127194250D02*
X155989333Y-127232345D01*
X155989333Y-127232345D02*
X155956000Y-127270440D01*
X155956000Y-127270440D02*
X155922667Y-127346631D01*
X155922667Y-127346631D02*
X155889333Y-127499012D01*
X155889333Y-127499012D02*
X155889333Y-127689488D01*
X155889333Y-127689488D02*
X155922667Y-127841869D01*
X155922667Y-127841869D02*
X155956000Y-127918059D01*
X155956000Y-127918059D02*
X155989333Y-127956155D01*
X155989333Y-127956155D02*
X156056000Y-127994250D01*
X156056000Y-127994250D02*
X156122667Y-127994250D01*
X156122667Y-127994250D02*
X156189333Y-127956155D01*
X156189333Y-127956155D02*
X156222667Y-127918059D01*
X156222667Y-127918059D02*
X156256000Y-127841869D01*
X156256000Y-127841869D02*
X156289333Y-127689488D01*
X156289333Y-127689488D02*
X156289333Y-127499012D01*
X156289333Y-127499012D02*
X156256000Y-127346631D01*
X156256000Y-127346631D02*
X156222667Y-127270440D01*
X156222667Y-127270440D02*
X156189333Y-127232345D01*
X156189333Y-127232345D02*
X156122667Y-127194250D01*
X155622666Y-127270440D02*
X155589333Y-127232345D01*
X155589333Y-127232345D02*
X155522666Y-127194250D01*
X155522666Y-127194250D02*
X155356000Y-127194250D01*
X155356000Y-127194250D02*
X155289333Y-127232345D01*
X155289333Y-127232345D02*
X155256000Y-127270440D01*
X155256000Y-127270440D02*
X155222666Y-127346631D01*
X155222666Y-127346631D02*
X155222666Y-127422821D01*
X155222666Y-127422821D02*
X155256000Y-127537107D01*
X155256000Y-127537107D02*
X155656000Y-127994250D01*
X155656000Y-127994250D02*
X155222666Y-127994250D01*
X154622666Y-127194250D02*
X154755999Y-127194250D01*
X154755999Y-127194250D02*
X154822666Y-127232345D01*
X154822666Y-127232345D02*
X154855999Y-127270440D01*
X154855999Y-127270440D02*
X154922666Y-127384726D01*
X154922666Y-127384726D02*
X154955999Y-127537107D01*
X154955999Y-127537107D02*
X154955999Y-127841869D01*
X154955999Y-127841869D02*
X154922666Y-127918059D01*
X154922666Y-127918059D02*
X154889333Y-127956155D01*
X154889333Y-127956155D02*
X154822666Y-127994250D01*
X154822666Y-127994250D02*
X154689333Y-127994250D01*
X154689333Y-127994250D02*
X154622666Y-127956155D01*
X154622666Y-127956155D02*
X154589333Y-127918059D01*
X154589333Y-127918059D02*
X154555999Y-127841869D01*
X154555999Y-127841869D02*
X154555999Y-127651393D01*
X154555999Y-127651393D02*
X154589333Y-127575202D01*
X154589333Y-127575202D02*
X154622666Y-127537107D01*
X154622666Y-127537107D02*
X154689333Y-127499012D01*
X154689333Y-127499012D02*
X154822666Y-127499012D01*
X154822666Y-127499012D02*
X154889333Y-127537107D01*
X154889333Y-127537107D02*
X154922666Y-127575202D01*
X154922666Y-127575202D02*
X154955999Y-127651393D01*
D11*
%TO.C,J3*%
X163720000Y-77360000D02*
X166480000Y-77360000D01*
X163720000Y-125730000D02*
X163720000Y-77360000D01*
X163720000Y-125730000D02*
X166480000Y-125730000D01*
X163720000Y-127000000D02*
X163720000Y-128380000D01*
X163720000Y-128380000D02*
X165100000Y-128380000D01*
X166480000Y-125730000D02*
X166480000Y-77360000D01*
D12*
%TO.C,G\u002A\u002A\u002A*%
X154196000Y-121284000D02*
X153216000Y-120814000D01*
X152556000Y-120214000D01*
X151776000Y-118984000D01*
X151546000Y-118314000D01*
X151586000Y-118184000D01*
X151796000Y-117974000D01*
X152056000Y-117744000D01*
X152486000Y-117384000D01*
X152826000Y-117114000D01*
X153206000Y-116824000D01*
X153556000Y-116574000D01*
X153966000Y-116304000D01*
X154116000Y-116214000D01*
X154196000Y-116174000D01*
X154196000Y-121284000D01*
G36*
X154196000Y-121284000D02*
G01*
X153216000Y-120814000D01*
X152556000Y-120214000D01*
X151776000Y-118984000D01*
X151546000Y-118314000D01*
X151586000Y-118184000D01*
X151796000Y-117974000D01*
X152056000Y-117744000D01*
X152486000Y-117384000D01*
X152826000Y-117114000D01*
X153206000Y-116824000D01*
X153556000Y-116574000D01*
X153966000Y-116304000D01*
X154116000Y-116214000D01*
X154196000Y-116174000D01*
X154196000Y-121284000D01*
G37*
X155076000Y-115794000D02*
X155416000Y-116004000D01*
X155876000Y-116264000D01*
X156016000Y-116314000D01*
X156076000Y-116314000D01*
X156596000Y-115934000D01*
X157106000Y-116364000D01*
X157726000Y-116824000D01*
X158396000Y-117244000D01*
X159136000Y-117644000D01*
X159546000Y-117844000D01*
X160046000Y-118064000D01*
X160336000Y-118174000D01*
X160436000Y-118304000D01*
X159566000Y-120054000D01*
X158606000Y-120924000D01*
X157246000Y-121584000D01*
X155516000Y-121704000D01*
X155036000Y-121504000D01*
X155036000Y-115774000D01*
X155076000Y-115794000D01*
G36*
X155076000Y-115794000D02*
G01*
X155416000Y-116004000D01*
X155876000Y-116264000D01*
X156016000Y-116314000D01*
X156076000Y-116314000D01*
X156596000Y-115934000D01*
X157106000Y-116364000D01*
X157726000Y-116824000D01*
X158396000Y-117244000D01*
X159136000Y-117644000D01*
X159546000Y-117844000D01*
X160046000Y-118064000D01*
X160336000Y-118174000D01*
X160436000Y-118304000D01*
X159566000Y-120054000D01*
X158606000Y-120924000D01*
X157246000Y-121584000D01*
X155516000Y-121704000D01*
X155036000Y-121504000D01*
X155036000Y-115774000D01*
X155076000Y-115794000D01*
G37*
D13*
G36*
X156510182Y-114943246D02*
G01*
X156510182Y-115563402D01*
X155942806Y-115563402D01*
X155375429Y-115563402D01*
X155375429Y-115451420D01*
X155375429Y-115339437D01*
X155827351Y-115335965D01*
X156279273Y-115332493D01*
X156283033Y-115197246D01*
X156286794Y-115062000D01*
X155916878Y-115062000D01*
X155546961Y-115062000D01*
X155546961Y-114943246D01*
X155546961Y-114824493D01*
X155916416Y-114824493D01*
X156285870Y-114824493D01*
X156285870Y-114692545D01*
X156285870Y-114560597D01*
X155830650Y-114560597D01*
X155375429Y-114560597D01*
X155375429Y-114441844D01*
X155375429Y-114323091D01*
X155942806Y-114323091D01*
X156510182Y-114323091D01*
X156510182Y-114943246D01*
G37*
G36*
X157869247Y-114943246D02*
G01*
X157869247Y-115563402D01*
X157757091Y-115563402D01*
X157644935Y-115563402D01*
X157644935Y-115352285D01*
X157644935Y-115141169D01*
X157239195Y-115140879D01*
X157130146Y-115140659D01*
X157025934Y-115139780D01*
X156942550Y-115137758D01*
X156877010Y-115134100D01*
X156826331Y-115128310D01*
X156787529Y-115119895D01*
X156757619Y-115108359D01*
X156733619Y-115093208D01*
X156712545Y-115073947D01*
X156691412Y-115050083D01*
X156668296Y-115018043D01*
X156650705Y-114980436D01*
X156638971Y-114934154D01*
X156632345Y-114874807D01*
X156630074Y-114798005D01*
X156631408Y-114699358D01*
X156632194Y-114671378D01*
X156635699Y-114590262D01*
X156638465Y-114560597D01*
X156866442Y-114560597D01*
X156866442Y-114732130D01*
X156866442Y-114903662D01*
X157255689Y-114903662D01*
X157644935Y-114903662D01*
X157644935Y-114732130D01*
X157644935Y-114560597D01*
X157255689Y-114560597D01*
X156866442Y-114560597D01*
X156638465Y-114560597D01*
X156641375Y-114529384D01*
X156650449Y-114483981D01*
X156664148Y-114449291D01*
X156683699Y-114420549D01*
X156710329Y-114392993D01*
X156710946Y-114392418D01*
X156729785Y-114375614D01*
X156748640Y-114361769D01*
X156770148Y-114350597D01*
X156796948Y-114341812D01*
X156831676Y-114335127D01*
X156876969Y-114330257D01*
X156935465Y-114326913D01*
X157009802Y-114324811D01*
X157102616Y-114323665D01*
X157216545Y-114323186D01*
X157354226Y-114323091D01*
X157869247Y-114323091D01*
X157869247Y-114560597D01*
X157869247Y-114943246D01*
G37*
G36*
X153858026Y-114943246D02*
G01*
X153858026Y-115563402D01*
X153745870Y-115563402D01*
X153633715Y-115563402D01*
X153633715Y-115352285D01*
X153633715Y-115141169D01*
X153429861Y-115141169D01*
X153226007Y-115141169D01*
X153049787Y-115348987D01*
X152873568Y-115556805D01*
X152745641Y-115560581D01*
X152725623Y-115561162D01*
X152673751Y-115562187D01*
X152641928Y-115561011D01*
X152625278Y-115556625D01*
X152618926Y-115548021D01*
X152617996Y-115534192D01*
X152618736Y-115529740D01*
X152632621Y-115502183D01*
X152663088Y-115457832D01*
X152708846Y-115398475D01*
X152768603Y-115325896D01*
X152918929Y-115147766D01*
X152847472Y-115139611D01*
X152829987Y-115137135D01*
X152752201Y-115112352D01*
X152689813Y-115067980D01*
X152645703Y-115005925D01*
X152644853Y-115004161D01*
X152634436Y-114979724D01*
X152627056Y-114953663D01*
X152622204Y-114921026D01*
X152619370Y-114876861D01*
X152618043Y-114816216D01*
X152617715Y-114734137D01*
X152617769Y-114708083D01*
X152619133Y-114619102D01*
X152622093Y-114560597D01*
X152855221Y-114560597D01*
X152855221Y-114732130D01*
X152855221Y-114903662D01*
X153244468Y-114903662D01*
X153633715Y-114903662D01*
X153633715Y-114732130D01*
X153633715Y-114560597D01*
X153244468Y-114560597D01*
X152855221Y-114560597D01*
X152622093Y-114560597D01*
X152622481Y-114552927D01*
X152628014Y-114506736D01*
X152635933Y-114477706D01*
X152644605Y-114460570D01*
X152683470Y-114410026D01*
X152734593Y-114366108D01*
X152787917Y-114338055D01*
X152790606Y-114337271D01*
X152821153Y-114332889D01*
X152875882Y-114329330D01*
X152955231Y-114326583D01*
X153059640Y-114324635D01*
X153189550Y-114323475D01*
X153345398Y-114323091D01*
X153858026Y-114323091D01*
X153858026Y-114560597D01*
X153858026Y-114943246D01*
G37*
G36*
X158761099Y-114323169D02*
G01*
X158870488Y-114323723D01*
X158958426Y-114325103D01*
X159027841Y-114327647D01*
X159081662Y-114331691D01*
X159122817Y-114337576D01*
X159154233Y-114345637D01*
X159178840Y-114356215D01*
X159199565Y-114369646D01*
X159219337Y-114386269D01*
X159237559Y-114404359D01*
X159261110Y-114437003D01*
X159277366Y-114477047D01*
X159287490Y-114529205D01*
X159292646Y-114598192D01*
X159293996Y-114688721D01*
X159293952Y-114702101D01*
X159291752Y-114793135D01*
X159285243Y-114862919D01*
X159272994Y-114915887D01*
X159253568Y-114956474D01*
X159225534Y-114989114D01*
X159187456Y-115018244D01*
X159131334Y-115055402D01*
X158711407Y-115059227D01*
X158291481Y-115063051D01*
X158291481Y-115201270D01*
X158291481Y-115339489D01*
X158677429Y-115335991D01*
X159063377Y-115332493D01*
X159067472Y-115283013D01*
X159071567Y-115233532D01*
X159184416Y-115233532D01*
X159297264Y-115233532D01*
X159292087Y-115325152D01*
X159289605Y-115359454D01*
X159282725Y-115401983D01*
X159269709Y-115434043D01*
X159247384Y-115465607D01*
X159237647Y-115476866D01*
X159199735Y-115512620D01*
X159162213Y-115538922D01*
X159161144Y-115539491D01*
X159146767Y-115546081D01*
X159129349Y-115551343D01*
X159105971Y-115555426D01*
X159073714Y-115558477D01*
X159029661Y-115560643D01*
X158970892Y-115562071D01*
X158894489Y-115562909D01*
X158797535Y-115563303D01*
X158677109Y-115563402D01*
X158659238Y-115563401D01*
X158542254Y-115563275D01*
X158448316Y-115562838D01*
X158374477Y-115561939D01*
X158317796Y-115560428D01*
X158275326Y-115558154D01*
X158244126Y-115554967D01*
X158221250Y-115550715D01*
X158203754Y-115545249D01*
X158188695Y-115538417D01*
X158143489Y-115511259D01*
X158106755Y-115476813D01*
X158081130Y-115433074D01*
X158064928Y-115375859D01*
X158056462Y-115300984D01*
X158054048Y-115204268D01*
X158055033Y-115140764D01*
X158057912Y-115077539D01*
X158062223Y-115026212D01*
X158067504Y-114994026D01*
X158089287Y-114949716D01*
X158130079Y-114902531D01*
X158181119Y-114863044D01*
X158234469Y-114838640D01*
X158254161Y-114835432D01*
X158301090Y-114831769D01*
X158369598Y-114828765D01*
X158456969Y-114826506D01*
X158560485Y-114825077D01*
X158677429Y-114824567D01*
X159069974Y-114824493D01*
X159069974Y-114692545D01*
X159069974Y-114560597D01*
X158681524Y-114560597D01*
X158293074Y-114560597D01*
X158288979Y-114610078D01*
X158284883Y-114659558D01*
X158167910Y-114663393D01*
X158050936Y-114667227D01*
X158056081Y-114576168D01*
X158061802Y-114525408D01*
X158085537Y-114450419D01*
X158127629Y-114392951D01*
X158189218Y-114351079D01*
X158195355Y-114348156D01*
X158212343Y-114340998D01*
X158231165Y-114335348D01*
X158254892Y-114331029D01*
X158286592Y-114327862D01*
X158329335Y-114325670D01*
X158386190Y-114324275D01*
X158460227Y-114323498D01*
X158554515Y-114323163D01*
X158672123Y-114323091D01*
X158761099Y-114323169D01*
G37*
G36*
X160911831Y-117368678D02*
G01*
X160886806Y-117679685D01*
X160843314Y-117978052D01*
X160842479Y-117982633D01*
X160764254Y-118339165D01*
X160661771Y-118685307D01*
X160535039Y-119021041D01*
X160384067Y-119346349D01*
X160208862Y-119661213D01*
X160009434Y-119965613D01*
X159785791Y-120259531D01*
X159752539Y-120299172D01*
X159676096Y-120385164D01*
X159586854Y-120480468D01*
X159489753Y-120580144D01*
X159389732Y-120679253D01*
X159291728Y-120772856D01*
X159200682Y-120856015D01*
X159121532Y-120923790D01*
X159111673Y-120931822D01*
X158818161Y-121153814D01*
X158513060Y-121352315D01*
X158197051Y-121527039D01*
X157870813Y-121677699D01*
X157535028Y-121804011D01*
X157190376Y-121905688D01*
X156837539Y-121982445D01*
X156477195Y-122033996D01*
X156433371Y-122038112D01*
X156327544Y-122045000D01*
X156204918Y-122049840D01*
X156071649Y-122052626D01*
X155933895Y-122053348D01*
X155797815Y-122051997D01*
X155669566Y-122048566D01*
X155555307Y-122043044D01*
X155461195Y-122035424D01*
X155186159Y-121999297D01*
X154828054Y-121930017D01*
X154480723Y-121836669D01*
X154144030Y-121719190D01*
X153817838Y-121577520D01*
X153502009Y-121411599D01*
X153196407Y-121221364D01*
X152900895Y-121006755D01*
X152615336Y-120767711D01*
X152549235Y-120707153D01*
X152336762Y-120493774D01*
X152132489Y-120260380D01*
X151939895Y-120011658D01*
X151762458Y-119752296D01*
X151603656Y-119486981D01*
X151466967Y-119220398D01*
X151464901Y-119215983D01*
X151329478Y-118900536D01*
X151217742Y-118583123D01*
X151128582Y-118259720D01*
X151060887Y-117926304D01*
X151013546Y-117578852D01*
X151005927Y-117484602D01*
X151000456Y-117367085D01*
X150997433Y-117235509D01*
X150996787Y-117095645D01*
X150998450Y-116953258D01*
X150998622Y-116947125D01*
X151452228Y-116947125D01*
X151454712Y-117291993D01*
X151483163Y-117640200D01*
X151537648Y-117991246D01*
X151571122Y-118148739D01*
X151657537Y-118462877D01*
X151768858Y-118772926D01*
X151904108Y-119076794D01*
X152062309Y-119372386D01*
X152242483Y-119657611D01*
X152443651Y-119930374D01*
X152484132Y-119978988D01*
X152550063Y-120052937D01*
X152628327Y-120136637D01*
X152714686Y-120225851D01*
X152804903Y-120316343D01*
X152894743Y-120403875D01*
X152979968Y-120484211D01*
X153056341Y-120553115D01*
X153119626Y-120606349D01*
X153202534Y-120670615D01*
X153418273Y-120824272D01*
X153644226Y-120967402D01*
X153874796Y-121096782D01*
X154104386Y-121209191D01*
X154327398Y-121301409D01*
X154342793Y-121307143D01*
X154392471Y-121325734D01*
X154432404Y-121340807D01*
X154455091Y-121349534D01*
X154457239Y-121349787D01*
X154459627Y-121347870D01*
X154461827Y-121342587D01*
X154463846Y-121332939D01*
X154465693Y-121317924D01*
X154467374Y-121296541D01*
X154468898Y-121267789D01*
X154470272Y-121230667D01*
X154471504Y-121184174D01*
X154472601Y-121127309D01*
X154473572Y-121059070D01*
X154474424Y-120978456D01*
X154475165Y-120884468D01*
X154475802Y-120776102D01*
X154476344Y-120652359D01*
X154476797Y-120512238D01*
X154477170Y-120354736D01*
X154477470Y-120178853D01*
X154477705Y-119983589D01*
X154477883Y-119767941D01*
X154478011Y-119530909D01*
X154478098Y-119271492D01*
X154478150Y-118988688D01*
X154478175Y-118681497D01*
X154478182Y-118348918D01*
X154478174Y-118194649D01*
X154478119Y-117918486D01*
X154478013Y-117649999D01*
X154477860Y-117390357D01*
X154477661Y-117140729D01*
X154477419Y-116902286D01*
X154477136Y-116676197D01*
X154476814Y-116463631D01*
X154476457Y-116265758D01*
X154476066Y-116083749D01*
X154475644Y-115918772D01*
X154475193Y-115771996D01*
X154474716Y-115644593D01*
X154474215Y-115537731D01*
X154473692Y-115452580D01*
X154473151Y-115390310D01*
X154472592Y-115352090D01*
X154472019Y-115339091D01*
X154471152Y-115339311D01*
X154453486Y-115346596D01*
X154416305Y-115362975D01*
X154363303Y-115386790D01*
X154298176Y-115416383D01*
X154224616Y-115450097D01*
X154208874Y-115457326D01*
X154136946Y-115489971D01*
X154074303Y-115517786D01*
X154024601Y-115539188D01*
X153991499Y-115552597D01*
X153978655Y-115556431D01*
X153980314Y-115551740D01*
X153991992Y-115526759D01*
X154013618Y-115482626D01*
X154043826Y-115422009D01*
X154081252Y-115347575D01*
X154124530Y-115261993D01*
X154172294Y-115167929D01*
X154223180Y-115068050D01*
X154275820Y-114965024D01*
X154328850Y-114861518D01*
X154380905Y-114760200D01*
X154430619Y-114663737D01*
X154476626Y-114574796D01*
X154517562Y-114496045D01*
X154552059Y-114430151D01*
X154578754Y-114379782D01*
X154596281Y-114347604D01*
X154603274Y-114336285D01*
X154606216Y-114340573D01*
X154619777Y-114364964D01*
X154643012Y-114408602D01*
X154674558Y-114468819D01*
X154713054Y-114542946D01*
X154757140Y-114628315D01*
X154805453Y-114722257D01*
X154856633Y-114822104D01*
X154909318Y-114925187D01*
X154962148Y-115028838D01*
X155013760Y-115130388D01*
X155062794Y-115227169D01*
X155107888Y-115316513D01*
X155147682Y-115395750D01*
X155180813Y-115462213D01*
X155205922Y-115513232D01*
X155221646Y-115546140D01*
X155226624Y-115558268D01*
X155225827Y-115558345D01*
X155208584Y-115552393D01*
X155171877Y-115537091D01*
X155119360Y-115514037D01*
X155054685Y-115484830D01*
X154981507Y-115451068D01*
X154967564Y-115444581D01*
X154894897Y-115411108D01*
X154830834Y-115382133D01*
X154779190Y-115359346D01*
X154743783Y-115344436D01*
X154728428Y-115339091D01*
X154727228Y-115347351D01*
X154725791Y-115381139D01*
X154724443Y-115440649D01*
X154723186Y-115525511D01*
X154722020Y-115635352D01*
X154720947Y-115769800D01*
X154719969Y-115928484D01*
X154719087Y-116111032D01*
X154718303Y-116317071D01*
X154717619Y-116546231D01*
X154717036Y-116798139D01*
X154716555Y-117072424D01*
X154716178Y-117368714D01*
X154715907Y-117686636D01*
X154715744Y-118025819D01*
X154715689Y-118385892D01*
X154715689Y-121432693D01*
X154883922Y-121473181D01*
X154943948Y-121487099D01*
X155138275Y-121526004D01*
X155337389Y-121557471D01*
X155527169Y-121579173D01*
X155647341Y-121588294D01*
X155843332Y-121597111D01*
X156035805Y-121598754D01*
X156213886Y-121593003D01*
X156454118Y-121572883D01*
X156787576Y-121523224D01*
X157113010Y-121449533D01*
X157429422Y-121352722D01*
X157735815Y-121233706D01*
X158031190Y-121093396D01*
X158314552Y-120932706D01*
X158584902Y-120752549D01*
X158841244Y-120553839D01*
X159082579Y-120337487D01*
X159307911Y-120104408D01*
X159516242Y-119855514D01*
X159706575Y-119591718D01*
X159877912Y-119313934D01*
X160029256Y-119023074D01*
X160159610Y-118720052D01*
X160267976Y-118405781D01*
X160353357Y-118081173D01*
X160414755Y-117747143D01*
X160433868Y-117598391D01*
X160459328Y-117255309D01*
X160458968Y-116913941D01*
X160433106Y-116575544D01*
X160382060Y-116241374D01*
X160306150Y-115912687D01*
X160205694Y-115590741D01*
X160081010Y-115276791D01*
X159932417Y-114972093D01*
X159760234Y-114677905D01*
X159564780Y-114395482D01*
X159560841Y-114390234D01*
X159356977Y-114137090D01*
X159140837Y-113904741D01*
X158908118Y-113688885D01*
X158654518Y-113485220D01*
X158534621Y-113398357D01*
X158246941Y-113212826D01*
X157948061Y-113050725D01*
X157639222Y-112912368D01*
X157321668Y-112798071D01*
X156996640Y-112708149D01*
X156665380Y-112642915D01*
X156329129Y-112602687D01*
X155989131Y-112587777D01*
X155646626Y-112598503D01*
X155302857Y-112635177D01*
X154974964Y-112695154D01*
X154647697Y-112780836D01*
X154329669Y-112890309D01*
X154022036Y-113022729D01*
X153725952Y-113177256D01*
X153442573Y-113353045D01*
X153173054Y-113549256D01*
X152918550Y-113765045D01*
X152680217Y-113999570D01*
X152459209Y-114251988D01*
X152256681Y-114521458D01*
X152073790Y-114807137D01*
X151911689Y-115108181D01*
X151827056Y-115290473D01*
X151700675Y-115611105D01*
X151599937Y-115937589D01*
X151524906Y-116269422D01*
X151475648Y-116606101D01*
X151452228Y-116947125D01*
X150998622Y-116947125D01*
X151002351Y-116814116D01*
X151008423Y-116683988D01*
X151016596Y-116568642D01*
X151026800Y-116473844D01*
X151064174Y-116236201D01*
X151138237Y-115891228D01*
X151234545Y-115558072D01*
X151353857Y-115234216D01*
X151496934Y-114917142D01*
X151552868Y-114806763D01*
X151714025Y-114519139D01*
X151890102Y-114247780D01*
X152084931Y-113986623D01*
X152093051Y-113976526D01*
X152153911Y-113904998D01*
X152230025Y-113820939D01*
X152317328Y-113728411D01*
X152411759Y-113631478D01*
X152509255Y-113534203D01*
X152605752Y-113440647D01*
X152697187Y-113354875D01*
X152779499Y-113280948D01*
X152848624Y-113222930D01*
X152995606Y-113110102D01*
X153296861Y-112903449D01*
X153609918Y-112720335D01*
X153934309Y-112560957D01*
X154269565Y-112425516D01*
X154615218Y-112314210D01*
X154970801Y-112227238D01*
X155335844Y-112164800D01*
X155426432Y-112154964D01*
X155541070Y-112146709D01*
X155670719Y-112140552D01*
X155809611Y-112136562D01*
X155951979Y-112134809D01*
X156092055Y-112135361D01*
X156224071Y-112138289D01*
X156342259Y-112143660D01*
X156440853Y-112151545D01*
X156718981Y-112188177D01*
X157077928Y-112257878D01*
X157427076Y-112351633D01*
X157765731Y-112469165D01*
X158093201Y-112610199D01*
X158408795Y-112774458D01*
X158711820Y-112961668D01*
X159001583Y-113171553D01*
X159099435Y-113250016D01*
X159368805Y-113488135D01*
X159619246Y-113743407D01*
X159850001Y-114014568D01*
X160060312Y-114300357D01*
X160249422Y-114599513D01*
X160416574Y-114910774D01*
X160561010Y-115232878D01*
X160681973Y-115564563D01*
X160778705Y-115904568D01*
X160850450Y-116251631D01*
X160875843Y-116422197D01*
X160906375Y-116733698D01*
X160918362Y-117051270D01*
X160914164Y-117255309D01*
X160911831Y-117368678D01*
G37*
D11*
%TO.C,J4*%
X125620000Y-77470000D02*
X125620000Y-125840000D01*
X128380000Y-74820000D02*
X127000000Y-74820000D01*
X128380000Y-76200000D02*
X128380000Y-74820000D01*
X128380000Y-77470000D02*
X125620000Y-77470000D01*
X128380000Y-77470000D02*
X128380000Y-125840000D01*
X128380000Y-125840000D02*
X125620000Y-125840000D01*
D13*
%TO.C,G\u002A\u002A\u002A*%
G36*
X134845156Y-115491035D02*
G01*
X134909680Y-115525824D01*
X134957897Y-115587150D01*
X134976849Y-115660836D01*
X134974841Y-115687773D01*
X134951075Y-115745652D01*
X134893635Y-115807119D01*
X134810421Y-115880791D01*
X134826844Y-116165538D01*
X134830384Y-116229117D01*
X134834727Y-116332601D01*
X134834247Y-116405452D01*
X134828067Y-116458117D01*
X134815315Y-116501041D01*
X134795117Y-116544669D01*
X134780538Y-116571421D01*
X134745168Y-116624402D01*
X134717458Y-116650916D01*
X134634223Y-116665270D01*
X134562766Y-116638903D01*
X134510482Y-116574963D01*
X134482744Y-116477421D01*
X134475961Y-116421695D01*
X134464135Y-116325279D01*
X134452040Y-116227302D01*
X134449911Y-116207192D01*
X134448317Y-116085018D01*
X134461553Y-115950998D01*
X134486952Y-115819601D01*
X134521845Y-115705298D01*
X134563563Y-115622561D01*
X134630661Y-115556903D01*
X134723665Y-115506880D01*
X134818612Y-115487721D01*
X134845156Y-115491035D01*
G37*
G36*
X135829854Y-114851039D02*
G01*
X135862958Y-114871239D01*
X135909068Y-114920999D01*
X135933355Y-114991320D01*
X135937740Y-115089795D01*
X135924141Y-115224020D01*
X135920474Y-115251811D01*
X135906891Y-115452362D01*
X135911713Y-115670403D01*
X135911785Y-115671517D01*
X135918161Y-115782263D01*
X135919598Y-115856436D01*
X135915229Y-115903430D01*
X135904190Y-115932637D01*
X135885613Y-115953451D01*
X135853717Y-115977771D01*
X135808878Y-116002667D01*
X135780916Y-116008473D01*
X135707423Y-115994810D01*
X135635539Y-115946914D01*
X135628643Y-115939934D01*
X135611133Y-115915035D01*
X135599703Y-115879479D01*
X135593094Y-115824378D01*
X135590050Y-115740843D01*
X135589315Y-115619984D01*
X135591569Y-115467862D01*
X135598236Y-115305096D01*
X135608484Y-115151169D01*
X135621476Y-115018539D01*
X135636376Y-114919663D01*
X135646850Y-114891506D01*
X135692769Y-114848797D01*
X135758704Y-114833558D01*
X135829854Y-114851039D01*
G37*
G36*
X135416898Y-116752110D02*
G01*
X135592664Y-116789640D01*
X135749620Y-116847556D01*
X135875275Y-116923066D01*
X135896852Y-116941962D01*
X135953787Y-117009820D01*
X135999653Y-117088361D01*
X136027076Y-117163300D01*
X136028684Y-117220349D01*
X136023844Y-117233974D01*
X135976664Y-117301501D01*
X135908392Y-117333447D01*
X135828658Y-117327700D01*
X135747093Y-117282146D01*
X135680107Y-117233037D01*
X135608867Y-117190253D01*
X135603605Y-117187654D01*
X135524949Y-117160167D01*
X135420358Y-117136563D01*
X135307280Y-117119527D01*
X135203160Y-117111743D01*
X135125446Y-117115892D01*
X135103603Y-117121514D01*
X135038453Y-117150664D01*
X134974882Y-117192383D01*
X134926649Y-117236710D01*
X134907513Y-117273682D01*
X134907510Y-117273961D01*
X134892570Y-117307579D01*
X134857261Y-117352519D01*
X134826986Y-117378505D01*
X134750889Y-117406495D01*
X134673005Y-117394301D01*
X134606535Y-117342453D01*
X134572860Y-117275510D01*
X134568576Y-117185720D01*
X134598243Y-117090388D01*
X134656940Y-116995668D01*
X134739744Y-116907713D01*
X134841734Y-116832677D01*
X134957989Y-116776715D01*
X135083586Y-116745979D01*
X135234813Y-116737761D01*
X135416898Y-116752110D01*
G37*
G36*
X139847019Y-115864586D02*
G01*
X139822352Y-116031057D01*
X139774661Y-116179079D01*
X139706241Y-116303390D01*
X139619383Y-116398729D01*
X139516381Y-116459835D01*
X139399527Y-116481447D01*
X139376286Y-116482563D01*
X139287844Y-116498487D01*
X139203076Y-116527250D01*
X139150295Y-116549528D01*
X139072435Y-116569925D01*
X139004732Y-116563739D01*
X138929440Y-116531228D01*
X138882061Y-116494828D01*
X138814758Y-116424276D01*
X138738777Y-116331295D01*
X138661120Y-116225475D01*
X138588794Y-116116410D01*
X138528802Y-116013690D01*
X138488147Y-115926908D01*
X138473088Y-115881664D01*
X138444470Y-115730964D01*
X138441107Y-115589822D01*
X138819738Y-115589822D01*
X138845436Y-115697488D01*
X138894986Y-115813393D01*
X138964240Y-115925164D01*
X139014950Y-115993046D01*
X139058612Y-116046193D01*
X139088887Y-116071947D01*
X139112980Y-116076076D01*
X139138098Y-116064348D01*
X139142178Y-116062075D01*
X139191306Y-116048496D01*
X139257441Y-116042761D01*
X139282733Y-116042319D01*
X139325889Y-116034193D01*
X139349976Y-116005996D01*
X139369403Y-115945172D01*
X139375348Y-115918262D01*
X139384711Y-115817412D01*
X139380442Y-115706530D01*
X139373026Y-115650464D01*
X139354486Y-115579123D01*
X139320391Y-115513406D01*
X139262364Y-115433974D01*
X139257489Y-115427797D01*
X139204073Y-115364600D01*
X139159937Y-115319827D01*
X139134215Y-115302826D01*
X139128330Y-115303847D01*
X139089732Y-115324004D01*
X139038878Y-115361829D01*
X139030747Y-115368411D01*
X138964828Y-115410017D01*
X138902349Y-115434113D01*
X138856214Y-115452198D01*
X138822281Y-115501818D01*
X138822044Y-115502774D01*
X138819738Y-115589822D01*
X138441107Y-115589822D01*
X138440705Y-115572929D01*
X138462930Y-115429941D01*
X138468691Y-115411122D01*
X138504662Y-115322723D01*
X138556640Y-115220127D01*
X138617761Y-115114662D01*
X138681165Y-115017657D01*
X138739988Y-114940441D01*
X138787369Y-114894341D01*
X138830291Y-114872365D01*
X138922668Y-114844340D01*
X139031040Y-114825708D01*
X139137250Y-114819243D01*
X139223142Y-114827722D01*
X139320659Y-114867817D01*
X139432371Y-114943302D01*
X139546155Y-115046231D01*
X139652910Y-115169366D01*
X139660434Y-115179220D01*
X139726091Y-115270167D01*
X139769419Y-115345097D01*
X139798537Y-115420557D01*
X139821566Y-115513094D01*
X139846370Y-115684926D01*
X139846849Y-115817412D01*
X139847019Y-115864586D01*
G37*
G36*
X135254204Y-120083647D02*
G01*
X135401938Y-120114424D01*
X135533158Y-120140783D01*
X135640710Y-120161333D01*
X135717438Y-120174682D01*
X135756187Y-120179441D01*
X135759276Y-120179496D01*
X135821090Y-120192772D01*
X135887042Y-120222330D01*
X135907157Y-120233295D01*
X135984399Y-120266863D01*
X136067408Y-120294255D01*
X136086969Y-120299922D01*
X136162845Y-120334900D01*
X136195009Y-120374890D01*
X136184359Y-120414475D01*
X136131790Y-120448237D01*
X136038199Y-120470760D01*
X135988257Y-120479262D01*
X135934997Y-120499463D01*
X135918376Y-120521763D01*
X135911215Y-120531370D01*
X135889057Y-120570206D01*
X135836948Y-120635596D01*
X135762621Y-120717490D01*
X135672984Y-120808867D01*
X135574947Y-120902711D01*
X135475418Y-120992000D01*
X135381307Y-121069717D01*
X135299125Y-121131664D01*
X135061002Y-121285071D01*
X134829903Y-121394474D01*
X134607058Y-121459255D01*
X134583905Y-121462648D01*
X134493256Y-121466328D01*
X134379945Y-121462063D01*
X134260676Y-121451223D01*
X134152152Y-121435178D01*
X134071078Y-121415298D01*
X133997859Y-121381197D01*
X133893476Y-121300355D01*
X133808088Y-121195724D01*
X133750355Y-121078800D01*
X133728934Y-120961075D01*
X133718935Y-120935868D01*
X133676803Y-120914852D01*
X133675201Y-120914459D01*
X134132252Y-120914459D01*
X134143198Y-120970438D01*
X134188660Y-121008215D01*
X134274461Y-121035731D01*
X134392165Y-121052129D01*
X134553915Y-121039475D01*
X134723704Y-120986022D01*
X134906114Y-120890716D01*
X134969935Y-120849569D01*
X135059057Y-120787254D01*
X135149759Y-120719596D01*
X135234110Y-120652907D01*
X135304180Y-120593498D01*
X135352037Y-120547680D01*
X135369752Y-120521763D01*
X135369543Y-120520361D01*
X135345791Y-120507765D01*
X135294638Y-120502083D01*
X135274702Y-120500594D01*
X135206948Y-120490902D01*
X135109052Y-120473724D01*
X134990873Y-120450840D01*
X134862268Y-120424029D01*
X134505013Y-120346900D01*
X134400030Y-120462536D01*
X134384483Y-120479798D01*
X134267279Y-120622463D01*
X134187612Y-120746750D01*
X134142991Y-120856478D01*
X134132252Y-120914459D01*
X133675201Y-120914459D01*
X133655040Y-120909512D01*
X133634085Y-120890141D01*
X133621783Y-120847012D01*
X133613246Y-120768898D01*
X133601690Y-120630330D01*
X133557080Y-120729901D01*
X133548921Y-120747038D01*
X133501597Y-120822384D01*
X133445999Y-120883700D01*
X133391744Y-120921865D01*
X133348448Y-120927760D01*
X133316206Y-120900772D01*
X133288177Y-120829204D01*
X133276013Y-120718852D01*
X133280254Y-120572518D01*
X133280752Y-120566193D01*
X133292915Y-120460274D01*
X133313784Y-120361599D01*
X133347575Y-120254087D01*
X133398506Y-120121661D01*
X133405178Y-120105254D01*
X133417938Y-120075437D01*
X133844365Y-120075437D01*
X133855921Y-120086993D01*
X133867477Y-120075437D01*
X133855921Y-120063881D01*
X133844365Y-120075437D01*
X133417938Y-120075437D01*
X133461699Y-119973176D01*
X133510176Y-119878521D01*
X133556050Y-119815309D01*
X133604760Y-119777560D01*
X133661744Y-119759296D01*
X133732442Y-119754537D01*
X133763055Y-119753948D01*
X133844352Y-119742037D01*
X133895033Y-119712758D01*
X133916727Y-119694703D01*
X133962354Y-119676658D01*
X134022244Y-119677833D01*
X134102622Y-119699559D01*
X134209715Y-119743168D01*
X134349750Y-119809990D01*
X134422513Y-119845799D01*
X134504132Y-119883940D01*
X134579512Y-119915296D01*
X134657238Y-119942551D01*
X134745896Y-119968388D01*
X134854071Y-119995490D01*
X134990351Y-120026540D01*
X135163321Y-120064221D01*
X135215794Y-120075437D01*
X135254204Y-120083647D01*
G37*
G36*
X140571719Y-115422418D02*
G01*
X140570380Y-115597233D01*
X140563779Y-115753420D01*
X140550138Y-115886471D01*
X140527733Y-116008320D01*
X140494837Y-116130900D01*
X140449726Y-116266146D01*
X140438393Y-116298425D01*
X140406690Y-116399232D01*
X140387816Y-116487644D01*
X140378467Y-116583169D01*
X140375339Y-116705317D01*
X140375082Y-116734907D01*
X140373121Y-116832934D01*
X140367928Y-116898313D01*
X140357102Y-116941994D01*
X140338242Y-116974926D01*
X140308947Y-117008057D01*
X140284098Y-117030958D01*
X140211664Y-117083459D01*
X140132196Y-117128017D01*
X140019981Y-117180575D01*
X140056936Y-117264403D01*
X140057266Y-117265155D01*
X140074513Y-117320116D01*
X140081083Y-117363999D01*
X140086020Y-117396980D01*
X140092588Y-117503814D01*
X140095015Y-117648685D01*
X140095111Y-117715599D01*
X140094180Y-117787357D01*
X140093702Y-117824152D01*
X140090333Y-117879805D01*
X140088968Y-117902354D01*
X140079508Y-117960873D01*
X140063921Y-118010379D01*
X140040807Y-118061543D01*
X140021529Y-118095266D01*
X140008240Y-118111716D01*
X139958784Y-118172936D01*
X139881436Y-118240901D01*
X139802097Y-118289076D01*
X139733380Y-118307375D01*
X139717580Y-118308888D01*
X139693978Y-118329873D01*
X139705686Y-118370590D01*
X139751710Y-118424684D01*
X139816257Y-118500843D01*
X139878640Y-118621924D01*
X139900629Y-118710057D01*
X139911349Y-118753024D01*
X139908860Y-118878197D01*
X139907026Y-118886634D01*
X139870267Y-118966890D01*
X139806207Y-119045596D01*
X139728635Y-119105370D01*
X139716970Y-119112138D01*
X139699579Y-119129913D01*
X139705300Y-119157464D01*
X139735029Y-119209373D01*
X139750850Y-119240197D01*
X139778930Y-119345146D01*
X139780975Y-119410128D01*
X139782619Y-119462389D01*
X139760464Y-119571248D01*
X139755944Y-119581281D01*
X139720436Y-119633409D01*
X139662769Y-119700593D01*
X139634543Y-119729016D01*
X139592978Y-119770872D01*
X139580457Y-119782625D01*
X139515928Y-119845721D01*
X139481693Y-119886420D01*
X139473349Y-119911148D01*
X139486496Y-119926330D01*
X139503495Y-119938119D01*
X139547046Y-119998719D01*
X139565712Y-120077186D01*
X139553830Y-120154346D01*
X139542200Y-120177454D01*
X139492594Y-120228676D01*
X139411402Y-120265198D01*
X139291604Y-120290670D01*
X139185433Y-120306556D01*
X139264698Y-120433672D01*
X139325015Y-120540091D01*
X139385069Y-120689434D01*
X139385634Y-120693219D01*
X139404435Y-120819103D01*
X139383157Y-120928450D01*
X139321282Y-121016826D01*
X139218855Y-121083581D01*
X139156271Y-121102509D01*
X139042749Y-121118342D01*
X138892235Y-121126364D01*
X138709432Y-121126480D01*
X138499045Y-121118596D01*
X138265778Y-121102619D01*
X138136959Y-121090539D01*
X137921341Y-121060921D01*
X137739252Y-121020112D01*
X137582652Y-120964984D01*
X137443501Y-120892409D01*
X137313759Y-120799262D01*
X137185385Y-120682413D01*
X137001838Y-120499751D01*
X136903586Y-120524491D01*
X136768965Y-120546689D01*
X136637138Y-120536992D01*
X136508638Y-120490313D01*
X136443332Y-120452305D01*
X136378700Y-120388686D01*
X136371447Y-120364403D01*
X137334265Y-120364403D01*
X137340255Y-120373082D01*
X137380065Y-120398443D01*
X137449087Y-120432256D01*
X137537774Y-120470500D01*
X137636576Y-120509154D01*
X137735943Y-120544198D01*
X137826329Y-120571610D01*
X137930995Y-120596349D01*
X138059512Y-120621235D01*
X138177850Y-120639311D01*
X138252945Y-120647536D01*
X138376975Y-120658771D01*
X138514639Y-120669325D01*
X138647603Y-120677698D01*
X138932460Y-120693219D01*
X138869923Y-120569224D01*
X138867092Y-120563665D01*
X138816520Y-120475747D01*
X138754779Y-120383517D01*
X138690278Y-120298152D01*
X138631427Y-120230828D01*
X138586635Y-120192722D01*
X138545631Y-120175487D01*
X138464895Y-120153498D01*
X138375606Y-120137575D01*
X138299528Y-120132299D01*
X138275080Y-120130095D01*
X138212710Y-120103408D01*
X138163291Y-120057115D01*
X138143182Y-120004582D01*
X138146915Y-119977971D01*
X138166352Y-119925100D01*
X138166999Y-119923860D01*
X138177576Y-119862394D01*
X138164337Y-119764371D01*
X138139152Y-119646935D01*
X138052639Y-119780294D01*
X137989390Y-119869692D01*
X137914082Y-119954869D01*
X137823330Y-120035006D01*
X137708162Y-120117949D01*
X137559606Y-120211545D01*
X137477942Y-120261985D01*
X137403412Y-120310549D01*
X137352874Y-120346483D01*
X137334265Y-120364403D01*
X136371447Y-120364403D01*
X136357010Y-120316067D01*
X136376317Y-120230626D01*
X136381683Y-120218985D01*
X136434615Y-120159199D01*
X136511209Y-120136523D01*
X136605591Y-120152948D01*
X136675258Y-120171034D01*
X136751385Y-120179441D01*
X136761357Y-120178922D01*
X136833338Y-120160307D01*
X136934078Y-120117942D01*
X137057209Y-120055866D01*
X137196364Y-119978116D01*
X137345174Y-119888731D01*
X137497274Y-119791748D01*
X137646295Y-119691206D01*
X137785870Y-119591141D01*
X137806105Y-119575519D01*
X138486891Y-119575519D01*
X138494154Y-119663695D01*
X138494355Y-119666109D01*
X138503275Y-119723055D01*
X138524826Y-119748461D01*
X138570752Y-119756564D01*
X138628706Y-119754999D01*
X138685447Y-119742982D01*
X138701742Y-119736697D01*
X138715057Y-119729016D01*
X138711794Y-119717989D01*
X138686316Y-119698303D01*
X138632982Y-119664642D01*
X138546156Y-119611693D01*
X138486891Y-119575519D01*
X137806105Y-119575519D01*
X137909632Y-119495593D01*
X138011214Y-119408598D01*
X138084247Y-119334195D01*
X138109451Y-119303671D01*
X138171140Y-119218724D01*
X138182319Y-119197572D01*
X138587770Y-119197572D01*
X138606344Y-119214182D01*
X138651854Y-119237941D01*
X138729547Y-119272383D01*
X138844672Y-119321039D01*
X138913065Y-119349405D01*
X139049800Y-119402755D01*
X139153763Y-119436972D01*
X139230819Y-119453491D01*
X139286832Y-119453745D01*
X139327668Y-119439169D01*
X139361728Y-119410128D01*
X139358529Y-119382235D01*
X139309633Y-119360857D01*
X139266777Y-119338750D01*
X139238063Y-119280736D01*
X139237910Y-119279971D01*
X139229698Y-119248652D01*
X139213948Y-119228751D01*
X139181011Y-119216696D01*
X139121238Y-119208915D01*
X139024979Y-119201833D01*
X138996860Y-119199741D01*
X138896115Y-119189254D01*
X138808929Y-119175965D01*
X138751615Y-119162237D01*
X138739152Y-119157999D01*
X138676241Y-119148337D01*
X138617302Y-119168031D01*
X138610429Y-119171676D01*
X138590881Y-119184581D01*
X138587770Y-119197572D01*
X138182319Y-119197572D01*
X138206323Y-119152152D01*
X138212931Y-119108717D01*
X138188897Y-119093180D01*
X138180203Y-119091019D01*
X138145794Y-119059210D01*
X138105333Y-118998131D01*
X138064792Y-118919022D01*
X138030147Y-118833121D01*
X138007371Y-118751668D01*
X138001640Y-118720136D01*
X137992721Y-118608985D01*
X138006580Y-118502901D01*
X138007294Y-118499635D01*
X138016624Y-118440297D01*
X138593098Y-118440297D01*
X138627885Y-118468812D01*
X138633449Y-118472098D01*
X138666433Y-118511891D01*
X138673756Y-118560034D01*
X138651644Y-118596274D01*
X138637561Y-118616051D01*
X138628532Y-118663674D01*
X138630350Y-118685096D01*
X138642540Y-118703797D01*
X138674065Y-118716586D01*
X138733836Y-118726712D01*
X138830762Y-118737424D01*
X138843555Y-118738668D01*
X138965926Y-118746122D01*
X139094049Y-118747678D01*
X139202177Y-118742951D01*
X139221428Y-118741153D01*
X139307175Y-118730750D01*
X139364183Y-118719864D01*
X139388171Y-118710057D01*
X139374858Y-118702894D01*
X139319964Y-118699937D01*
X139244473Y-118691123D01*
X139156137Y-118652016D01*
X139098785Y-118586299D01*
X139075480Y-118557803D01*
X139010675Y-118512990D01*
X138920392Y-118469862D01*
X138816646Y-118433872D01*
X138711451Y-118410475D01*
X138708408Y-118410029D01*
X138639084Y-118406909D01*
X138598739Y-118418330D01*
X138593098Y-118440297D01*
X138016624Y-118440297D01*
X138020374Y-118416446D01*
X138030566Y-118310314D01*
X138035717Y-118203372D01*
X138038702Y-118047410D01*
X139093956Y-118047410D01*
X139108741Y-118073354D01*
X139163555Y-118097107D01*
X139195672Y-118108351D01*
X139235407Y-118119811D01*
X139245938Y-118111716D01*
X139229015Y-118077407D01*
X139186387Y-118010224D01*
X139164727Y-117979016D01*
X139145072Y-117970867D01*
X139122917Y-117995364D01*
X139121159Y-117997308D01*
X139114072Y-118007204D01*
X139093956Y-118047410D01*
X138038702Y-118047410D01*
X138039256Y-118018476D01*
X137804212Y-118261844D01*
X137734024Y-118333360D01*
X137631442Y-118431084D01*
X137535733Y-118510725D01*
X137433005Y-118583474D01*
X137309364Y-118660525D01*
X137292082Y-118670820D01*
X137194635Y-118727512D01*
X137111659Y-118773581D01*
X137051473Y-118804523D01*
X137022395Y-118815837D01*
X137018659Y-118816561D01*
X137006535Y-118839720D01*
X137002406Y-118898989D01*
X137005842Y-118999149D01*
X137006636Y-119027561D01*
X137008071Y-119078952D01*
X136988847Y-119289949D01*
X136934685Y-119477576D01*
X136849094Y-119639043D01*
X136735579Y-119771555D01*
X136597647Y-119872321D01*
X136438807Y-119938549D01*
X136262564Y-119967445D01*
X136072425Y-119956217D01*
X135871898Y-119902073D01*
X135776530Y-119859210D01*
X135650411Y-119789524D01*
X135514365Y-119704001D01*
X135381083Y-119610659D01*
X135263256Y-119517516D01*
X135202261Y-119467158D01*
X135154183Y-119430674D01*
X135130363Y-119416747D01*
X135127207Y-119418830D01*
X135118866Y-119450336D01*
X135115520Y-119507690D01*
X135114357Y-119545593D01*
X135099298Y-119636117D01*
X135069241Y-119695728D01*
X135027227Y-119717202D01*
X135022376Y-119717076D01*
X134982724Y-119704444D01*
X134942578Y-119666794D01*
X134896848Y-119597981D01*
X134840440Y-119491861D01*
X134838232Y-119487464D01*
X134800362Y-119416801D01*
X134769154Y-119366727D01*
X134751175Y-119347835D01*
X134735823Y-119349432D01*
X134681857Y-119356379D01*
X134599876Y-119367537D01*
X134500411Y-119381495D01*
X134418806Y-119392022D01*
X134250144Y-119407864D01*
X134083668Y-119416519D01*
X133930213Y-119417773D01*
X133800610Y-119411410D01*
X133705693Y-119397217D01*
X133674330Y-119389672D01*
X133615534Y-119376541D01*
X133584356Y-119371088D01*
X133578507Y-119377435D01*
X133570260Y-119417196D01*
X133567022Y-119481461D01*
X133564995Y-119501318D01*
X133557542Y-119574331D01*
X133527479Y-119629857D01*
X133475594Y-119647867D01*
X133473482Y-119647981D01*
X133439842Y-119669736D01*
X133408709Y-119717732D01*
X133389634Y-119751457D01*
X133320112Y-119814594D01*
X133225624Y-119849267D01*
X133116090Y-119852913D01*
X133001433Y-119822968D01*
X132999203Y-119822025D01*
X132906976Y-119767033D01*
X132810627Y-119684617D01*
X132724810Y-119589043D01*
X132664176Y-119494580D01*
X132653412Y-119470339D01*
X132620153Y-119352112D01*
X132601988Y-119196008D01*
X132591224Y-119023461D01*
X132993310Y-119023461D01*
X132999173Y-119106342D01*
X133011155Y-119194241D01*
X133027945Y-119274220D01*
X133048233Y-119333342D01*
X133088749Y-119395262D01*
X133139312Y-119446034D01*
X133198685Y-119478098D01*
X133271441Y-119501565D01*
X133277298Y-119502692D01*
X133323443Y-119509688D01*
X133331784Y-119501318D01*
X133309151Y-119472278D01*
X133293001Y-119448036D01*
X133259646Y-119385018D01*
X133218707Y-119298212D01*
X133175654Y-119198825D01*
X133159956Y-119161180D01*
X133112367Y-119051193D01*
X133076528Y-118977763D01*
X133049157Y-118935541D01*
X133026974Y-118919179D01*
X133006698Y-118923325D01*
X133005181Y-118924504D01*
X132994875Y-118958536D01*
X132993310Y-119023461D01*
X132591224Y-119023461D01*
X132589806Y-119000733D01*
X132509888Y-119000733D01*
X132459815Y-118992673D01*
X132382405Y-118947940D01*
X132320381Y-118872430D01*
X132283442Y-118775779D01*
X132278961Y-118743276D01*
X132273532Y-118658431D01*
X132273187Y-118645802D01*
X132608227Y-118645802D01*
X132618471Y-118709302D01*
X132635988Y-118750725D01*
X132647751Y-118769436D01*
X132652230Y-118764941D01*
X132674248Y-118731828D01*
X132706718Y-118677117D01*
X132719787Y-118655959D01*
X132770992Y-118590918D01*
X132822278Y-118545619D01*
X132825020Y-118543904D01*
X132869935Y-118515767D01*
X132892704Y-118501412D01*
X132892934Y-118501040D01*
X132889509Y-118474453D01*
X132876606Y-118412605D01*
X132856146Y-118324183D01*
X132830048Y-118217873D01*
X132803542Y-118108784D01*
X132777077Y-117991933D01*
X132756384Y-117891980D01*
X132744473Y-117822824D01*
X132740164Y-117794688D01*
X132721655Y-117728990D01*
X132697347Y-117706465D01*
X132684385Y-117706965D01*
X132664504Y-117712243D01*
X132663855Y-117721020D01*
X132661294Y-117766815D01*
X132657385Y-117842462D01*
X132652673Y-117937584D01*
X132650212Y-117983925D01*
X132641456Y-118120745D01*
X132630372Y-118268730D01*
X132618767Y-118403069D01*
X132608817Y-118538309D01*
X132608227Y-118645802D01*
X132273187Y-118645802D01*
X132270361Y-118542520D01*
X132269314Y-118404917D01*
X132270251Y-118254996D01*
X132273037Y-118102131D01*
X132277534Y-117955693D01*
X132283605Y-117825058D01*
X132291113Y-117719597D01*
X132299921Y-117648685D01*
X132308604Y-117606764D01*
X132356834Y-117456301D01*
X132424246Y-117336421D01*
X132507457Y-117252040D01*
X132603083Y-117208074D01*
X132627153Y-117201833D01*
X132657671Y-117181435D01*
X132656512Y-117143705D01*
X132655186Y-117137183D01*
X132650442Y-117086155D01*
X132646559Y-117001614D01*
X132643908Y-116893652D01*
X132642861Y-116772358D01*
X132642718Y-116730219D01*
X132641304Y-116621579D01*
X132638642Y-116535476D01*
X132635038Y-116479805D01*
X132630800Y-116462463D01*
X132628435Y-116467356D01*
X132619137Y-116507811D01*
X132607455Y-116578688D01*
X132595359Y-116668544D01*
X132562320Y-116865658D01*
X132492364Y-117102183D01*
X132393324Y-117303329D01*
X132265005Y-117469568D01*
X132203237Y-117525918D01*
X132132990Y-117563841D01*
X132077569Y-117558825D01*
X132037756Y-117510730D01*
X132034317Y-117502300D01*
X132026560Y-117462409D01*
X132028216Y-117404405D01*
X132039990Y-117319403D01*
X132062590Y-117198522D01*
X132074015Y-117138190D01*
X132099506Y-116985406D01*
X132122639Y-116824730D01*
X132139513Y-116682348D01*
X132165601Y-116421317D01*
X132018904Y-116179860D01*
X131930115Y-116028051D01*
X131837135Y-115848111D01*
X131773469Y-115692015D01*
X131737415Y-115554453D01*
X131727271Y-115430114D01*
X131741336Y-115313686D01*
X131759172Y-115245895D01*
X131799814Y-115142904D01*
X131857986Y-115048485D01*
X131938044Y-114958684D01*
X132044345Y-114869546D01*
X132181245Y-114777115D01*
X132353100Y-114677437D01*
X132564267Y-114566556D01*
X132671637Y-114513726D01*
X132796203Y-114460266D01*
X132894139Y-114432379D01*
X132972523Y-114430220D01*
X133038428Y-114453946D01*
X133098931Y-114503710D01*
X133161107Y-114579670D01*
X133205528Y-114649105D01*
X133240249Y-114742111D01*
X133235885Y-114818154D01*
X133192088Y-114873945D01*
X133120423Y-114905777D01*
X133042761Y-114897417D01*
X132968566Y-114843214D01*
X132906251Y-114776506D01*
X132613636Y-114952996D01*
X132608169Y-114956295D01*
X132461836Y-115046499D01*
X132350560Y-115120075D01*
X132268655Y-115181714D01*
X132210433Y-115236111D01*
X132170206Y-115287958D01*
X132142287Y-115341950D01*
X132129460Y-115375700D01*
X132119976Y-115424816D01*
X132135276Y-115438060D01*
X132174387Y-115413273D01*
X132199605Y-115393960D01*
X132282398Y-115362393D01*
X132363948Y-115371268D01*
X132433544Y-115417604D01*
X132480480Y-115498423D01*
X132483900Y-115509396D01*
X132495464Y-115567116D01*
X132492409Y-115603132D01*
X132489887Y-115627076D01*
X132497967Y-115684869D01*
X132516403Y-115759590D01*
X132525532Y-115792829D01*
X132549152Y-115890492D01*
X132574301Y-116006822D01*
X132596882Y-116123299D01*
X132611109Y-116197237D01*
X132625823Y-116261509D01*
X132636194Y-116292212D01*
X132640581Y-116283333D01*
X132640672Y-116280998D01*
X132650113Y-116221962D01*
X132671458Y-116138137D01*
X132700325Y-116046870D01*
X132704314Y-116035371D01*
X132731565Y-115951929D01*
X132750811Y-115884557D01*
X132758105Y-115846923D01*
X132775638Y-115811091D01*
X132818217Y-115772966D01*
X132835235Y-115762455D01*
X132886950Y-115745750D01*
X132946639Y-115759363D01*
X132961179Y-115764614D01*
X133005687Y-115773390D01*
X133024525Y-115757772D01*
X133074233Y-115617669D01*
X133122871Y-115486991D01*
X133166786Y-115378142D01*
X133210827Y-115279178D01*
X133259845Y-115178154D01*
X133309576Y-115082732D01*
X133385147Y-114946949D01*
X133471125Y-114800172D01*
X133563798Y-114648079D01*
X133659455Y-114496346D01*
X133754382Y-114350649D01*
X133844869Y-114216665D01*
X133927204Y-114100070D01*
X133997674Y-114006541D01*
X134052568Y-113941755D01*
X134088175Y-113911388D01*
X134094263Y-113908770D01*
X134166618Y-113899881D01*
X134229787Y-113926526D01*
X134274927Y-113978831D01*
X134293198Y-114046919D01*
X134275758Y-114120916D01*
X134275379Y-114121634D01*
X134252806Y-114157527D01*
X134207177Y-114225127D01*
X134142344Y-114318899D01*
X134062161Y-114433311D01*
X133970482Y-114562827D01*
X133871161Y-114701916D01*
X133718442Y-114919293D01*
X133553309Y-115168224D01*
X133418082Y-115390677D01*
X133310946Y-115589853D01*
X133230082Y-115768954D01*
X133173676Y-115931180D01*
X133170634Y-115941687D01*
X133138231Y-116052550D01*
X133100779Y-116179338D01*
X133065781Y-116296638D01*
X133052328Y-116342349D01*
X133029091Y-116433884D01*
X133017638Y-116513204D01*
X133015925Y-116599672D01*
X133021912Y-116712653D01*
X133021958Y-116713322D01*
X133039912Y-116912231D01*
X133067494Y-117140311D01*
X133102472Y-117382119D01*
X133142611Y-117622209D01*
X133185678Y-117845137D01*
X133209113Y-117953108D01*
X133240162Y-118089139D01*
X133275688Y-118239597D01*
X133314022Y-118397880D01*
X133339551Y-118501040D01*
X133353494Y-118557383D01*
X133392435Y-118711503D01*
X133429175Y-118853637D01*
X133462044Y-118977181D01*
X133489373Y-119075531D01*
X133509491Y-119142084D01*
X133520730Y-119170237D01*
X133534179Y-119172842D01*
X133584729Y-119165961D01*
X133662127Y-119147557D01*
X133756070Y-119119837D01*
X133785187Y-119110746D01*
X133956754Y-119063909D01*
X134159344Y-119017714D01*
X134380323Y-118974860D01*
X134607058Y-118938046D01*
X134734174Y-118919495D01*
X134745001Y-118786631D01*
X135139936Y-118786631D01*
X135140353Y-118886500D01*
X135147533Y-118956673D01*
X135161744Y-118989177D01*
X135173645Y-119002619D01*
X135184856Y-119045815D01*
X135196301Y-119076027D01*
X135244208Y-119103066D01*
X135249039Y-119104509D01*
X135296600Y-119125571D01*
X135372356Y-119165036D01*
X135466912Y-119217845D01*
X135570872Y-119278939D01*
X135574442Y-119281084D01*
X135689341Y-119346655D01*
X135805425Y-119407106D01*
X135909344Y-119455803D01*
X135987749Y-119486111D01*
X136027988Y-119498090D01*
X136132079Y-119521951D01*
X136220487Y-119527287D01*
X136312526Y-119515870D01*
X136313792Y-119515619D01*
X136380807Y-119482920D01*
X136449504Y-119418964D01*
X136508657Y-119336550D01*
X136547040Y-119248478D01*
X136555438Y-119206510D01*
X136563724Y-119124555D01*
X136567768Y-119027561D01*
X136567657Y-118927748D01*
X136563482Y-118837339D01*
X136555331Y-118768555D01*
X136543292Y-118733617D01*
X136530603Y-118733178D01*
X136491120Y-118754523D01*
X136438449Y-118796519D01*
X136361714Y-118859728D01*
X136185360Y-118969635D01*
X135994203Y-119048127D01*
X135798884Y-119091364D01*
X135610045Y-119095505D01*
X135501056Y-119078837D01*
X135406878Y-119049053D01*
X135345477Y-119010160D01*
X135323528Y-118965192D01*
X135331526Y-118940892D01*
X135371745Y-118903917D01*
X135448491Y-118862649D01*
X135564716Y-118815583D01*
X135723367Y-118761213D01*
X135818611Y-118730267D01*
X135917525Y-118696698D01*
X135982453Y-118670736D01*
X136019217Y-118648533D01*
X136033635Y-118626245D01*
X136031528Y-118600024D01*
X136018715Y-118566024D01*
X136015519Y-118558526D01*
X135958372Y-118470429D01*
X135871656Y-118406736D01*
X135748025Y-118361909D01*
X135686074Y-118344753D01*
X135611777Y-118317671D01*
X135544024Y-118281231D01*
X135469520Y-118227880D01*
X135374966Y-118150069D01*
X135371437Y-118147082D01*
X135309837Y-118098160D01*
X135262899Y-118066595D01*
X135240537Y-118059095D01*
X135240522Y-118059110D01*
X135232122Y-118085671D01*
X135218541Y-118148509D01*
X135201651Y-118238246D01*
X135183326Y-118345505D01*
X135176589Y-118388593D01*
X135158321Y-118529704D01*
X135146014Y-118665041D01*
X135139936Y-118786631D01*
X134745001Y-118786631D01*
X134752052Y-118700105D01*
X134766534Y-118571715D01*
X134791119Y-118420438D01*
X134822380Y-118267410D01*
X134857614Y-118124578D01*
X134894118Y-118003889D01*
X134929187Y-117917291D01*
X134948805Y-117882240D01*
X135023134Y-117789140D01*
X135109392Y-117728272D01*
X135198844Y-117706465D01*
X135256686Y-117715372D01*
X135361406Y-117754557D01*
X135498756Y-117825146D01*
X135669184Y-117927349D01*
X135732471Y-117964293D01*
X135796193Y-117995091D01*
X135836498Y-118006920D01*
X135859706Y-118010015D01*
X135920942Y-118026137D01*
X135994830Y-118051419D01*
X136026401Y-118063095D01*
X136089153Y-118081120D01*
X136136082Y-118081291D01*
X136186082Y-118064942D01*
X136239423Y-118050723D01*
X136346401Y-118051008D01*
X136464963Y-118078768D01*
X136581130Y-118131643D01*
X136586754Y-118134956D01*
X136657586Y-118181558D01*
X136714842Y-118232988D01*
X136770027Y-118301375D01*
X136834647Y-118398843D01*
X136909714Y-118517899D01*
X137127767Y-118352601D01*
X137189229Y-118304668D01*
X137308386Y-118206289D01*
X137426463Y-118103075D01*
X137525131Y-118010793D01*
X137552725Y-117982225D01*
X138466729Y-117982225D01*
X138473058Y-117985396D01*
X138514984Y-117990517D01*
X138587526Y-117994048D01*
X138680514Y-117995364D01*
X138894319Y-117995364D01*
X138891388Y-117860489D01*
X139167586Y-117860489D01*
X139185724Y-117879590D01*
X139238091Y-117884410D01*
X139316449Y-117886631D01*
X139317324Y-117879805D01*
X139668569Y-117879805D01*
X139680125Y-117891361D01*
X139691681Y-117879805D01*
X139680125Y-117868249D01*
X139668569Y-117879805D01*
X139317324Y-117879805D01*
X139329821Y-117782361D01*
X139695060Y-117782361D01*
X139699633Y-117828243D01*
X139700554Y-117830303D01*
X139707789Y-117826828D01*
X139710287Y-117787357D01*
X139710134Y-117780180D01*
X139706133Y-117749482D01*
X139698776Y-117758907D01*
X139695060Y-117782361D01*
X139329821Y-117782361D01*
X139342281Y-117685201D01*
X139345068Y-117662777D01*
X139356780Y-117551357D01*
X139365008Y-117444985D01*
X139368114Y-117363999D01*
X139368114Y-117244227D01*
X139281444Y-117244364D01*
X139194774Y-117244501D01*
X139189609Y-117492817D01*
X139187537Y-117569107D01*
X139183130Y-117673904D01*
X139177736Y-117759211D01*
X139172088Y-117811661D01*
X139171697Y-117813902D01*
X139167586Y-117860489D01*
X138891388Y-117860489D01*
X138886790Y-117648860D01*
X138885321Y-117588317D01*
X138881637Y-117474017D01*
X138877419Y-117381014D01*
X138873079Y-117317615D01*
X138869032Y-117292127D01*
X138849717Y-117295734D01*
X138809800Y-117328141D01*
X138758134Y-117382322D01*
X138702369Y-117449562D01*
X138650150Y-117521144D01*
X138609126Y-117588352D01*
X138603902Y-117598423D01*
X138567847Y-117676502D01*
X138531118Y-117767708D01*
X138498699Y-117858255D01*
X138475574Y-117934356D01*
X138466729Y-117982225D01*
X137552725Y-117982225D01*
X137599968Y-117933314D01*
X137685157Y-117837606D01*
X137767933Y-117737990D01*
X137842466Y-117642001D01*
X137902923Y-117557171D01*
X137943474Y-117491038D01*
X137958287Y-117451133D01*
X137958287Y-117451090D01*
X137973072Y-117413778D01*
X138008539Y-117367054D01*
X138047911Y-117335822D01*
X138127322Y-117314413D01*
X138210300Y-117335488D01*
X138210768Y-117335736D01*
X138236160Y-117340459D01*
X138266625Y-117324348D01*
X138309286Y-117281709D01*
X138371268Y-117206850D01*
X138491270Y-117056288D01*
X138380784Y-117074564D01*
X138268336Y-117086426D01*
X138125727Y-117074538D01*
X138008327Y-117026111D01*
X137913696Y-116939389D01*
X137839396Y-116812616D01*
X137782987Y-116644035D01*
X137775147Y-116609260D01*
X137756116Y-116462325D01*
X137749815Y-116283519D01*
X137752506Y-116192634D01*
X138211246Y-116192634D01*
X138211396Y-116257503D01*
X138215171Y-116397453D01*
X138224566Y-116497533D01*
X138240497Y-116562193D01*
X138263877Y-116595882D01*
X138295622Y-116603050D01*
X138305957Y-116601691D01*
X138364620Y-116593415D01*
X138436822Y-116582717D01*
X138517120Y-116579448D01*
X138644829Y-116603205D01*
X138689617Y-116615885D01*
X138791217Y-116638462D01*
X138890450Y-116654329D01*
X138939489Y-116661603D01*
X139051999Y-116685337D01*
X139154077Y-116714554D01*
X139200505Y-116728540D01*
X139304636Y-116749101D01*
X139407609Y-116757664D01*
X139495157Y-116753472D01*
X139553009Y-116735765D01*
X139582337Y-116725960D01*
X139647660Y-116716715D01*
X139728790Y-116713007D01*
X139869904Y-116712653D01*
X139883432Y-116545091D01*
X139896308Y-116450693D01*
X139931128Y-116299265D01*
X139982522Y-116134855D01*
X139993737Y-116102899D01*
X140023818Y-116013147D01*
X140044942Y-115937693D01*
X140059060Y-115864434D01*
X140068120Y-115781267D01*
X140074074Y-115676088D01*
X140078871Y-115536796D01*
X140081582Y-115410649D01*
X140079663Y-115244182D01*
X140069064Y-115109113D01*
X140048507Y-114996663D01*
X140016718Y-114898059D01*
X139972420Y-114804523D01*
X139946392Y-114761887D01*
X139895595Y-114697249D01*
X139848932Y-114656993D01*
X139804772Y-114636514D01*
X139771438Y-114641408D01*
X139728817Y-114676485D01*
X139698043Y-114700343D01*
X139608648Y-114738984D01*
X139483277Y-114761975D01*
X139317858Y-114770245D01*
X139303668Y-114770259D01*
X139201133Y-114763645D01*
X139102578Y-114741842D01*
X138986361Y-114700282D01*
X138926062Y-114676449D01*
X138859513Y-114652762D01*
X138817933Y-114644477D01*
X138790566Y-114650002D01*
X138766656Y-114667743D01*
X138766618Y-114667778D01*
X138736853Y-114708251D01*
X138699658Y-114777319D01*
X138663077Y-114860050D01*
X138626012Y-114950044D01*
X138586544Y-115031915D01*
X138550611Y-115083840D01*
X138512412Y-115113761D01*
X138466146Y-115129619D01*
X138462399Y-115130459D01*
X138429513Y-115140921D01*
X138403048Y-115159506D01*
X138380487Y-115192426D01*
X138359313Y-115245894D01*
X138337010Y-115326125D01*
X138311060Y-115439331D01*
X138278946Y-115591725D01*
X138248280Y-115751280D01*
X138226567Y-115899833D01*
X138214933Y-116040651D01*
X138211246Y-116192634D01*
X137752506Y-116192634D01*
X137755767Y-116082477D01*
X137773496Y-115868833D01*
X137802525Y-115652221D01*
X137842380Y-115442275D01*
X137863918Y-115348163D01*
X137906957Y-115181213D01*
X137948405Y-115052142D01*
X137990163Y-114955435D01*
X138034131Y-114885576D01*
X138055251Y-114864382D01*
X138107937Y-114821255D01*
X138174165Y-114773243D01*
X138209694Y-114749324D01*
X138242727Y-114724378D01*
X138263632Y-114698022D01*
X138272796Y-114662964D01*
X138270605Y-114611909D01*
X138257445Y-114537564D01*
X138233702Y-114432635D01*
X138199763Y-114289829D01*
X138181927Y-114213477D01*
X138161904Y-114124584D01*
X138148238Y-114059914D01*
X138143182Y-114029820D01*
X138149785Y-114007917D01*
X138186119Y-113965883D01*
X138239003Y-113930796D01*
X138290953Y-113916110D01*
X138309750Y-113915673D01*
X138332818Y-113907385D01*
X138336416Y-113878909D01*
X138324802Y-113817885D01*
X138267402Y-113643852D01*
X138169899Y-113483278D01*
X138037252Y-113351664D01*
X137871744Y-113251861D01*
X137832283Y-113235527D01*
X137690323Y-113205302D01*
X137552698Y-113220272D01*
X137423064Y-113280204D01*
X137373492Y-113315624D01*
X137341159Y-113354006D01*
X137344561Y-113393783D01*
X137380489Y-113447565D01*
X137381278Y-113448573D01*
X137413394Y-113497885D01*
X137426712Y-113534676D01*
X137429240Y-113540477D01*
X137461788Y-113566125D01*
X137523995Y-113600504D01*
X137605830Y-113637835D01*
X137725537Y-113690516D01*
X137863206Y-113760244D01*
X137965342Y-113824364D01*
X138028875Y-113880877D01*
X138050734Y-113927782D01*
X138043376Y-113962966D01*
X138007603Y-113996021D01*
X137992121Y-113998610D01*
X137931494Y-113999103D01*
X137843896Y-113993776D01*
X137742013Y-113983952D01*
X137638530Y-113970954D01*
X137546132Y-113956106D01*
X137477503Y-113940731D01*
X137463576Y-113936894D01*
X137413353Y-113930272D01*
X137393385Y-113946266D01*
X137388349Y-113977059D01*
X137379035Y-114046065D01*
X137366422Y-114145574D01*
X137351485Y-114267873D01*
X137335203Y-114405253D01*
X137314480Y-114576760D01*
X137289761Y-114761430D01*
X137266592Y-114907870D01*
X137244056Y-115020531D01*
X137221234Y-115103863D01*
X137197206Y-115162316D01*
X137171055Y-115200341D01*
X137139972Y-115227347D01*
X137058660Y-115261772D01*
X136972046Y-115261483D01*
X136893567Y-115227988D01*
X136836656Y-115162796D01*
X136831227Y-115151239D01*
X136810141Y-115073637D01*
X136801514Y-114979355D01*
X136804974Y-114883790D01*
X136820147Y-114802338D01*
X136846659Y-114750395D01*
X136848215Y-114748780D01*
X136867165Y-114718187D01*
X136885643Y-114664795D01*
X136905035Y-114582816D01*
X136926728Y-114466465D01*
X136952104Y-114309956D01*
X136968070Y-114204084D01*
X136985136Y-114082945D01*
X136997895Y-113982768D01*
X137005315Y-113911774D01*
X137006362Y-113878185D01*
X137006195Y-113877509D01*
X136980325Y-113854086D01*
X136920844Y-113824020D01*
X136838746Y-113791081D01*
X136745026Y-113759037D01*
X136650678Y-113731659D01*
X136566697Y-113712716D01*
X136504078Y-113705977D01*
X136483287Y-113707358D01*
X136413898Y-113716144D01*
X136314378Y-113731646D01*
X136194729Y-113752262D01*
X136064952Y-113776386D01*
X136008835Y-113787427D01*
X135727586Y-113851312D01*
X135476551Y-113925409D01*
X135242379Y-114014694D01*
X135011719Y-114124145D01*
X134771222Y-114258740D01*
X134554039Y-114388099D01*
X134659644Y-114415039D01*
X134678541Y-114420106D01*
X134774379Y-114456865D01*
X134855515Y-114512626D01*
X134931722Y-114595673D01*
X135012776Y-114714288D01*
X135120416Y-114886989D01*
X135190060Y-114788674D01*
X135198230Y-114777316D01*
X135266583Y-114691098D01*
X135346781Y-114601244D01*
X135428907Y-114517891D01*
X135503045Y-114451176D01*
X135559277Y-114411236D01*
X135610581Y-114389631D01*
X135696282Y-114382132D01*
X135766612Y-114416599D01*
X135768327Y-114418182D01*
X135803304Y-114479436D01*
X135801882Y-114552017D01*
X135764253Y-114619534D01*
X135758459Y-114626238D01*
X135723594Y-114673305D01*
X135670665Y-114750451D01*
X135604433Y-114850352D01*
X135529659Y-114965683D01*
X135451106Y-115089118D01*
X135373536Y-115213335D01*
X135301709Y-115331007D01*
X135251073Y-115405380D01*
X135181255Y-115472111D01*
X135108060Y-115497835D01*
X135026386Y-115485413D01*
X134988697Y-115468177D01*
X134956057Y-115437778D01*
X134925409Y-115385055D01*
X134888733Y-115299151D01*
X134869783Y-115256639D01*
X134820983Y-115165575D01*
X134759349Y-115064791D01*
X134691809Y-114964381D01*
X134625293Y-114874440D01*
X134566730Y-114805064D01*
X134523047Y-114766349D01*
X134462308Y-114716279D01*
X134426872Y-114638962D01*
X134430535Y-114538718D01*
X134437050Y-114498084D01*
X134429546Y-114481679D01*
X134399097Y-114493884D01*
X134392128Y-114497888D01*
X134345554Y-114528680D01*
X134277589Y-114576998D01*
X134200350Y-114634283D01*
X134172684Y-114654846D01*
X134083302Y-114713438D01*
X134020875Y-114738376D01*
X133982416Y-114730368D01*
X133964937Y-114690124D01*
X133974741Y-114650873D01*
X134011276Y-114583275D01*
X134069373Y-114495764D01*
X134143573Y-114395198D01*
X134228417Y-114288431D01*
X134318446Y-114182320D01*
X134408200Y-114083721D01*
X134492221Y-113999490D01*
X134565048Y-113936483D01*
X134710951Y-113833577D01*
X134929663Y-113708407D01*
X135174570Y-113600097D01*
X135452077Y-113505917D01*
X135768586Y-113423135D01*
X135811104Y-113413147D01*
X135913665Y-113386143D01*
X135985216Y-113360545D01*
X136036747Y-113331838D01*
X136079247Y-113295507D01*
X136082440Y-113292347D01*
X136129965Y-113254210D01*
X136183872Y-113231497D01*
X136251603Y-113224197D01*
X136340602Y-113232296D01*
X136458310Y-113255784D01*
X136612172Y-113294648D01*
X136881570Y-113366543D01*
X136940356Y-113296008D01*
X137004602Y-113219618D01*
X137110488Y-113099533D01*
X137200305Y-113009947D01*
X137281511Y-112946452D01*
X137361564Y-112904643D01*
X137447923Y-112880112D01*
X137548044Y-112868452D01*
X137669388Y-112865258D01*
X137778884Y-112866014D01*
X137857613Y-112871154D01*
X137920850Y-112883737D01*
X137983955Y-112906818D01*
X138062290Y-112943456D01*
X138225370Y-113040854D01*
X138389492Y-113186194D01*
X138521044Y-113360945D01*
X138617785Y-113561294D01*
X138677474Y-113783434D01*
X138697868Y-114023554D01*
X138697868Y-114213733D01*
X138807650Y-114229706D01*
X138836840Y-114234677D01*
X138918376Y-114254685D01*
X138981366Y-114278135D01*
X138990845Y-114282811D01*
X139035121Y-114297556D01*
X139082890Y-114294724D01*
X139153575Y-114273830D01*
X139210958Y-114256599D01*
X139338871Y-114227657D01*
X139483510Y-114203718D01*
X139629600Y-114186759D01*
X139761863Y-114178761D01*
X139865020Y-114181700D01*
X139878380Y-114183276D01*
X140010149Y-114211035D01*
X140131916Y-114256649D01*
X140225690Y-114313543D01*
X140228746Y-114316174D01*
X140267765Y-114361628D01*
X140318452Y-114434498D01*
X140372859Y-114522061D01*
X140423037Y-114611589D01*
X140461039Y-114690360D01*
X140469799Y-114711452D01*
X140510321Y-114824984D01*
X140539181Y-114942317D01*
X140557973Y-115073980D01*
X140568289Y-115230504D01*
X140571509Y-115410649D01*
X140571719Y-115422418D01*
G37*
%TD*%
%LPC*%
D14*
%TO.C,REF\u002A\u002A*%
X127000000Y-127000000D03*
%TD*%
D15*
%TO.C,J1*%
X138780000Y-79313000D03*
X133000000Y-79313000D03*
D16*
X140210000Y-79813000D03*
D17*
X140210000Y-75633000D03*
D16*
X131570000Y-79813000D03*
D17*
X131570000Y-75633000D03*
%TD*%
D14*
%TO.C,REF\u002A\u002A*%
X165100000Y-76200000D03*
%TD*%
D18*
%TO.C,J3*%
X165100000Y-127000000D03*
D19*
X165100000Y-124460000D03*
X165100000Y-121920000D03*
X165100000Y-119380000D03*
X165100000Y-116840000D03*
X165100000Y-114300000D03*
X165100000Y-111760000D03*
X165100000Y-109220000D03*
X165100000Y-106680000D03*
X165100000Y-104140000D03*
X165100000Y-101600000D03*
X165100000Y-99060000D03*
X165100000Y-96520000D03*
X165100000Y-93980000D03*
X165100000Y-91440000D03*
X165100000Y-88900000D03*
X165100000Y-86360000D03*
X165100000Y-83820000D03*
X165100000Y-81280000D03*
X165100000Y-78740000D03*
%TD*%
D18*
%TO.C,J4*%
X127000000Y-76200000D03*
D19*
X127000000Y-78740000D03*
X127000000Y-81280000D03*
X127000000Y-83820000D03*
X127000000Y-86360000D03*
X127000000Y-88900000D03*
X127000000Y-91440000D03*
X127000000Y-93980000D03*
X127000000Y-96520000D03*
X127000000Y-99060000D03*
X127000000Y-101600000D03*
X127000000Y-104140000D03*
X127000000Y-106680000D03*
X127000000Y-109220000D03*
X127000000Y-111760000D03*
X127000000Y-114300000D03*
X127000000Y-116840000D03*
X127000000Y-119380000D03*
X127000000Y-121920000D03*
X127000000Y-124460000D03*
%TD*%
%LPD*%
M02*
