M48
; DRILL file {KiCad 9.0.5} date 2026-04-30T20:18:43-0600
; FORMAT={-:-/ absolute / metric / decimal}
; #@! TF.CreationDate,2026-04-30T20:18:43-06:00
; #@! TF.GenerationSoftware,Kicad,Pcbnew,9.0.5
; #@! TF.FileFunction,Plated,1,4,PTH
FMAT,2
METRIC
; #@! TA.AperFunction,Plated,PTH,ViaDrill
T1C0.300
; #@! TA.AperFunction,Plated,PTH,ComponentDrill
T2C0.330
; #@! TA.AperFunction,Plated,PTH,ComponentDrill
T3C0.600
; #@! TA.AperFunction,Plated,PTH,ComponentDrill
T4C1.000
%
G90
G05
T1
X131.064Y-83.312
X131.064Y-84.836
X131.572Y-105.918
X131.572Y-109.22
X131.572Y-111.252
X131.812Y-87.122
X131.826Y-96.774
X132.588Y-84.324
X132.969Y-111.714
X132.969Y-122.474
X133.348Y-85.599
X133.49Y-81.28
X133.594Y-82.075
X133.858Y-96.774
X135.128Y-109.728
X135.128Y-110.744
X135.354Y-106.426
X135.382Y-105.41
X135.89Y-84.836
X136.144Y-82.042
X136.144Y-103.886
X136.906Y-97.79
X136.906Y-103.886
X137.16Y-109.728
X137.16Y-110.744
X137.367Y-83.349
X137.414Y-87.376
X137.414Y-101.346
X137.922Y-89.916
X137.922Y-94.742
X137.922Y-96.012
X137.922Y-98.298
X137.922Y-99.314
X137.922Y-102.362
X137.922Y-103.378
X137.922Y-104.394
X137.922Y-105.41
X138.29Y-81.28
X138.43Y-88.646
X138.938Y-87.376
X139.267Y-89.102
X139.319Y-111.714
X139.319Y-122.474
X139.446Y-82.804
X139.7Y-86.106
X139.7Y-101.346
X139.954Y-89.916
X139.954Y-91.44
X139.954Y-98.298
X139.954Y-99.314
X139.954Y-102.362
X139.954Y-103.378
X139.954Y-104.394
X139.954Y-105.41
X140.52Y-90.482
X140.97Y-92.71
X141.224Y-109.728
X141.224Y-110.744
X141.478Y-91.44
X141.732Y-105.801
X141.732Y-128.2
X141.986Y-77.216
X141.986Y-111.252
X142.24Y-78.994
X142.24Y-80.01
X142.24Y-94.996
X142.494Y-82.042
X142.748Y-82.804
X142.748Y-86.868
X142.748Y-92.964
X143.002Y-78.74
X143.002Y-111.252
X143.256Y-87.884
X143.256Y-121.666
X143.256Y-123.19
X143.51Y-88.9
X143.764Y-83.058
X144.018Y-87.122
X144.018Y-89.662
X144.018Y-92.964
X144.018Y-114.3
X144.272Y-84.582
X144.272Y-94.996
X144.526Y-83.82
X144.526Y-86.36
X144.78Y-123.19
X144.78Y-127.762
X145.034Y-81.788
X145.034Y-111.252
X145.796Y-82.55
X145.796Y-89.408
X146.05Y-77.216
X146.05Y-109.728
X146.05Y-112.014
X146.05Y-114.046
X146.304Y-93.98
X146.304Y-94.996
X146.435Y-92.779
X146.558Y-85.598
X146.558Y-88.9
X146.812Y-78.74
X146.812Y-82.296
X146.812Y-84.582
X147.052Y-83.806
X147.066Y-108.204
X147.066Y-111.252
X147.066Y-115.57
X147.066Y-119.634
X147.32Y-75.438
X147.32Y-123.19
X147.32Y-127.762
X147.574Y-76.708
X147.574Y-88.646
X147.574Y-116.84
X147.574Y-120.904
X147.828Y-81.788
X147.828Y-85.344
X148.082Y-114.3
X148.311Y-92.779
X148.336Y-93.98
X148.336Y-94.996
X148.59Y-89.408
X148.771Y-88.465
X148.835Y-78.74
X148.844Y-121.666
X148.844Y-123.19
X149.098Y-94.234
X149.098Y-111.252
X149.352Y-77.978
X149.352Y-86.614
X149.606Y-76.962
X149.606Y-85.09
X149.606Y-94.996
X149.86Y-84.074
X150.114Y-85.852
X150.114Y-111.252
X150.368Y-78.74
X150.368Y-87.122
X150.368Y-128.2
X150.622Y-83.312
X150.876Y-109.728
X150.876Y-110.744
X151.384Y-78.994
X151.384Y-95.758
X151.384Y-98.552
X151.384Y-101.092
X151.638Y-96.52
X151.765Y-77.343
X151.892Y-93.218
X152.146Y-97.834
X152.146Y-100.33
X152.146Y-101.346
X152.146Y-102.362
X152.781Y-111.714
X152.781Y-122.474
X152.908Y-93.218
X152.908Y-105.41
X152.908Y-106.426
X153.924Y-85.344
X153.924Y-88.602
X153.924Y-89.662
X153.924Y-93.218
X154.178Y-83.058
X154.178Y-97.79
X154.178Y-100.33
X154.178Y-101.346
X154.178Y-102.362
X154.432Y-82.296
X154.432Y-84.328
X154.686Y-96.52
X154.94Y-93.218
X154.94Y-109.728
X154.94Y-110.744
X155.702Y-93.98
X155.702Y-94.996
X155.956Y-96.012
X155.956Y-102.87
X156.464Y-82.296
X156.464Y-83.312
X156.464Y-84.328
X156.718Y-105.918
X156.972Y-109.728
X156.972Y-110.744
X157.734Y-82.042
X157.734Y-83.058
X158.75Y-83.058
X159.131Y-111.714
X159.131Y-122.474
X159.258Y-77.978
X160.274Y-77.978
X160.528Y-90.424
X160.528Y-109.22
X160.528Y-111.252
T2
X143.7Y-98.234
X143.7Y-99.409
X143.7Y-100.584
X143.7Y-101.759
X143.7Y-102.934
X144.875Y-98.234
X144.875Y-99.409
X144.875Y-100.584
X144.875Y-101.759
X144.875Y-102.934
X146.05Y-98.234
X146.05Y-99.409
X146.05Y-100.584
X146.05Y-101.759
X146.05Y-102.934
X147.225Y-98.234
X147.225Y-99.409
X147.225Y-100.584
X147.225Y-101.759
X147.225Y-102.934
X148.4Y-98.234
X148.4Y-99.409
X148.4Y-100.584
X148.4Y-101.759
X148.4Y-102.934
T4
X127.0Y-76.2
X127.0Y-78.74
X127.0Y-81.28
X127.0Y-83.82
X127.0Y-86.36
X127.0Y-88.9
X127.0Y-91.44
X127.0Y-93.98
X127.0Y-96.52
X127.0Y-99.06
X127.0Y-101.6
X127.0Y-104.14
X127.0Y-106.68
X127.0Y-109.22
X127.0Y-111.76
X127.0Y-114.3
X127.0Y-116.84
X127.0Y-119.38
X127.0Y-121.92
X127.0Y-124.46
X165.1Y-78.74
X165.1Y-81.28
X165.1Y-83.82
X165.1Y-86.36
X165.1Y-88.9
X165.1Y-91.44
X165.1Y-93.98
X165.1Y-96.52
X165.1Y-99.06
X165.1Y-101.6
X165.1Y-104.14
X165.1Y-106.68
X165.1Y-109.22
X165.1Y-111.76
X165.1Y-114.3
X165.1Y-116.84
X165.1Y-119.38
X165.1Y-121.92
X165.1Y-124.46
X165.1Y-127.0
T3
G00X131.57Y-76.033
M15
G01X131.57Y-75.233
M16
G05
G00X131.57Y-80.363
M15
G01X131.57Y-79.263
M16
G05
G00X140.21Y-76.033
M15
G01X140.21Y-75.233
M16
G05
G00X140.21Y-80.363
M15
G01X140.21Y-79.263
M16
G05
M30
