%TF.GenerationSoftware,KiCad,Pcbnew,9.0.5*%
%TF.CreationDate,2026-03-15T20:25:34-06:00*%
%TF.ProjectId,EtherCatDevBoard_V1-1,45746865-7243-4617-9444-6576426f6172,rev?*%
%TF.SameCoordinates,Original*%
%TF.FileFunction,Soldermask,Bot*%
%TF.FilePolarity,Negative*%
%FSLAX46Y46*%
G04 Gerber Fmt 4.6, Leading zero omitted, Abs format (unit mm)*
G04 Created by KiCad (PCBNEW 9.0.5) date 2026-03-15 20:25:34*
%MOMM*%
%LPD*%
G01*
G04 APERTURE LIST*
%ADD10C,0.650000*%
%ADD11O,1.000000X2.100000*%
%ADD12O,1.000000X1.800000*%
%ADD13R,1.700000X1.700000*%
%ADD14C,1.700000*%
%ADD15C,1.300000*%
G04 APERTURE END LIST*
D10*
%TO.C,J1*%
X139540000Y-79115000D03*
X133760000Y-79115000D03*
D11*
X140970000Y-79615000D03*
D12*
X140970000Y-75435000D03*
D11*
X132330000Y-79615000D03*
D12*
X132330000Y-75435000D03*
%TD*%
D13*
%TO.C,J4*%
X127000000Y-76200000D03*
D14*
X127000000Y-78740000D03*
X127000000Y-81280000D03*
X127000000Y-83820000D03*
X127000000Y-86360000D03*
X127000000Y-88900000D03*
X127000000Y-91440000D03*
X127000000Y-93980000D03*
X127000000Y-96520000D03*
X127000000Y-99060000D03*
X127000000Y-101600000D03*
X127000000Y-104140000D03*
X127000000Y-106680000D03*
X127000000Y-109220000D03*
X127000000Y-111760000D03*
X127000000Y-114300000D03*
X127000000Y-116840000D03*
X127000000Y-119380000D03*
X127000000Y-121920000D03*
X127000000Y-124460000D03*
%TD*%
D13*
%TO.C,J3*%
X165100000Y-127000000D03*
D14*
X165100000Y-124460000D03*
X165100000Y-121920000D03*
X165100000Y-119380000D03*
X165100000Y-116840000D03*
X165100000Y-114300000D03*
X165100000Y-111760000D03*
X165100000Y-109220000D03*
X165100000Y-106680000D03*
X165100000Y-104140000D03*
X165100000Y-101600000D03*
X165100000Y-99060000D03*
X165100000Y-96520000D03*
X165100000Y-93980000D03*
X165100000Y-91440000D03*
X165100000Y-88900000D03*
X165100000Y-86360000D03*
X165100000Y-83820000D03*
X165100000Y-81280000D03*
X165100000Y-78740000D03*
%TD*%
D15*
%TO.C,REF\u002A\u002A*%
X165100000Y-76200000D03*
%TD*%
%TO.C,REF\u002A\u002A*%
X127000000Y-127000000D03*
%TD*%
M02*
