M48
; DRILL file {KiCad 8.0.5} date 2026-02-12T00:50:26-0700
; FORMAT={-:-/ absolute / inch / decimal}
; #@! TF.CreationDate,2026-02-12T00:50:26-07:00
; #@! TF.GenerationSoftware,Kicad,Pcbnew,8.0.5
; #@! TF.FileFunction,Plated,1,2,PTH
FMAT,2
INCH
; #@! TA.AperFunction,Plated,PTH,ViaDrill
T1C0.0118
; #@! TA.AperFunction,Plated,PTH,ComponentDrill
T2C0.0236
; #@! TA.AperFunction,Plated,PTH,ComponentDrill
T3C0.0394
; #@! TA.AperFunction,Plated,PTH,ComponentDrill
T4C0.0630
; #@! TA.AperFunction,Plated,PTH,ComponentDrill
T5C0.0669
; #@! TA.AperFunction,Plated,PTH,ComponentDrill
T6C0.1535
%
G90
G05
T1
X6.1024Y-3.0118
T3
X7.6575Y-2.7559
X7.6575Y-3.189
X7.6575Y-3.3661
X7.6575Y-3.7992
X7.6575Y-3.9764
X7.6575Y-4.4094
T4
X5.9252Y-3.1496
X5.9252Y-3.2835
X6.4555Y-3.1496
X6.4555Y-3.2835
X6.5169Y-2.8346
X6.5169Y-2.9685
X6.5169Y-3.4764
X6.5169Y-3.6102
X6.5169Y-4.1142
X6.5169Y-4.248
X7.0472Y-2.8346
X7.0472Y-2.9685
X7.0472Y-3.4764
X7.0472Y-3.6102
X7.0472Y-4.1142
X7.0472Y-4.248
T5
X7.2638Y-2.874
X7.2638Y-3.0709
X7.2638Y-3.4843
X7.2638Y-3.6811
X7.2638Y-4.0945
X7.2638Y-4.2913
T6
X6.2362Y-3.7795
X6.2362Y-4.2087
T2
G00X5.8858Y-3.622
M15
G01X5.8465Y-3.622
M16
G05
G00X5.8858Y-4.3661
M15
G01X5.8465Y-4.3661
M16
G05
M30
