%TF.GenerationSoftware,KiCad,Pcbnew,8.0.5*%
%TF.CreationDate,2026-02-14T15:21:18-07:00*%
%TF.ProjectId,SPEAR power junction,53504541-5220-4706-9f77-6572206a756e,rev?*%
%TF.SameCoordinates,Original*%
%TF.FileFunction,Legend,Bot*%
%TF.FilePolarity,Positive*%
%FSLAX46Y46*%
G04 Gerber Fmt 4.6, Leading zero omitted, Abs format (unit mm)*
G04 Created by KiCad (PCBNEW 8.0.5) date 2026-02-14 15:21:18*
%MOMM*%
%LPD*%
G01*
G04 APERTURE LIST*
%ADD10C,0.300000*%
%ADD11C,0.508000*%
G04 APERTURE END LIST*
D10*
X155516917Y-67800828D02*
X155516917Y-68872257D01*
X155516917Y-68872257D02*
X155588346Y-69086542D01*
X155588346Y-69086542D02*
X155731203Y-69229400D01*
X155731203Y-69229400D02*
X155945489Y-69300828D01*
X155945489Y-69300828D02*
X156088346Y-69300828D01*
X154588346Y-69300828D02*
X154731203Y-69229400D01*
X154731203Y-69229400D02*
X154802632Y-69157971D01*
X154802632Y-69157971D02*
X154874060Y-69015114D01*
X154874060Y-69015114D02*
X154874060Y-68586542D01*
X154874060Y-68586542D02*
X154802632Y-68443685D01*
X154802632Y-68443685D02*
X154731203Y-68372257D01*
X154731203Y-68372257D02*
X154588346Y-68300828D01*
X154588346Y-68300828D02*
X154374060Y-68300828D01*
X154374060Y-68300828D02*
X154231203Y-68372257D01*
X154231203Y-68372257D02*
X154159775Y-68443685D01*
X154159775Y-68443685D02*
X154088346Y-68586542D01*
X154088346Y-68586542D02*
X154088346Y-69015114D01*
X154088346Y-69015114D02*
X154159775Y-69157971D01*
X154159775Y-69157971D02*
X154231203Y-69229400D01*
X154231203Y-69229400D02*
X154374060Y-69300828D01*
X154374060Y-69300828D02*
X154588346Y-69300828D01*
X152874060Y-69229400D02*
X153016917Y-69300828D01*
X153016917Y-69300828D02*
X153302632Y-69300828D01*
X153302632Y-69300828D02*
X153445489Y-69229400D01*
X153445489Y-69229400D02*
X153516917Y-69086542D01*
X153516917Y-69086542D02*
X153516917Y-68515114D01*
X153516917Y-68515114D02*
X153445489Y-68372257D01*
X153445489Y-68372257D02*
X153302632Y-68300828D01*
X153302632Y-68300828D02*
X153016917Y-68300828D01*
X153016917Y-68300828D02*
X152874060Y-68372257D01*
X152874060Y-68372257D02*
X152802632Y-68515114D01*
X152802632Y-68515114D02*
X152802632Y-68657971D01*
X152802632Y-68657971D02*
X153516917Y-68800828D01*
X151945489Y-69300828D02*
X152088346Y-69229400D01*
X152088346Y-69229400D02*
X152159775Y-69086542D01*
X152159775Y-69086542D02*
X152159775Y-67800828D01*
X151159775Y-69300828D02*
X151302632Y-69229400D01*
X151302632Y-69229400D02*
X151374061Y-69086542D01*
X151374061Y-69086542D02*
X151374061Y-67800828D01*
X150016918Y-69229400D02*
X150159775Y-69300828D01*
X150159775Y-69300828D02*
X150445490Y-69300828D01*
X150445490Y-69300828D02*
X150588347Y-69229400D01*
X150588347Y-69229400D02*
X150659775Y-69086542D01*
X150659775Y-69086542D02*
X150659775Y-68515114D01*
X150659775Y-68515114D02*
X150588347Y-68372257D01*
X150588347Y-68372257D02*
X150445490Y-68300828D01*
X150445490Y-68300828D02*
X150159775Y-68300828D01*
X150159775Y-68300828D02*
X150016918Y-68372257D01*
X150016918Y-68372257D02*
X149945490Y-68515114D01*
X149945490Y-68515114D02*
X149945490Y-68657971D01*
X149945490Y-68657971D02*
X150659775Y-68800828D01*
X148231204Y-68872257D02*
X147516919Y-68872257D01*
X148374061Y-69300828D02*
X147874061Y-67800828D01*
X147874061Y-67800828D02*
X147374061Y-69300828D01*
X146231205Y-69300828D02*
X146231205Y-67800828D01*
X146231205Y-69229400D02*
X146374062Y-69300828D01*
X146374062Y-69300828D02*
X146659776Y-69300828D01*
X146659776Y-69300828D02*
X146802633Y-69229400D01*
X146802633Y-69229400D02*
X146874062Y-69157971D01*
X146874062Y-69157971D02*
X146945490Y-69015114D01*
X146945490Y-69015114D02*
X146945490Y-68586542D01*
X146945490Y-68586542D02*
X146874062Y-68443685D01*
X146874062Y-68443685D02*
X146802633Y-68372257D01*
X146802633Y-68372257D02*
X146659776Y-68300828D01*
X146659776Y-68300828D02*
X146374062Y-68300828D01*
X146374062Y-68300828D02*
X146231205Y-68372257D01*
X144945490Y-69229400D02*
X145088347Y-69300828D01*
X145088347Y-69300828D02*
X145374062Y-69300828D01*
X145374062Y-69300828D02*
X145516919Y-69229400D01*
X145516919Y-69229400D02*
X145588347Y-69086542D01*
X145588347Y-69086542D02*
X145588347Y-68515114D01*
X145588347Y-68515114D02*
X145516919Y-68372257D01*
X145516919Y-68372257D02*
X145374062Y-68300828D01*
X145374062Y-68300828D02*
X145088347Y-68300828D01*
X145088347Y-68300828D02*
X144945490Y-68372257D01*
X144945490Y-68372257D02*
X144874062Y-68515114D01*
X144874062Y-68515114D02*
X144874062Y-68657971D01*
X144874062Y-68657971D02*
X145588347Y-68800828D01*
X143588348Y-69300828D02*
X143588348Y-67800828D01*
X143588348Y-69229400D02*
X143731205Y-69300828D01*
X143731205Y-69300828D02*
X144016919Y-69300828D01*
X144016919Y-69300828D02*
X144159776Y-69229400D01*
X144159776Y-69229400D02*
X144231205Y-69157971D01*
X144231205Y-69157971D02*
X144302633Y-69015114D01*
X144302633Y-69015114D02*
X144302633Y-68586542D01*
X144302633Y-68586542D02*
X144231205Y-68443685D01*
X144231205Y-68443685D02*
X144159776Y-68372257D01*
X144159776Y-68372257D02*
X144016919Y-68300828D01*
X144016919Y-68300828D02*
X143731205Y-68300828D01*
X143731205Y-68300828D02*
X143588348Y-68372257D01*
X142231205Y-68300828D02*
X142231205Y-69300828D01*
X142874062Y-68300828D02*
X142874062Y-69086542D01*
X142874062Y-69086542D02*
X142802633Y-69229400D01*
X142802633Y-69229400D02*
X142659776Y-69300828D01*
X142659776Y-69300828D02*
X142445490Y-69300828D01*
X142445490Y-69300828D02*
X142302633Y-69229400D01*
X142302633Y-69229400D02*
X142231205Y-69157971D01*
X141516919Y-68300828D02*
X141516919Y-69300828D01*
X141516919Y-68443685D02*
X141445490Y-68372257D01*
X141445490Y-68372257D02*
X141302633Y-68300828D01*
X141302633Y-68300828D02*
X141088347Y-68300828D01*
X141088347Y-68300828D02*
X140945490Y-68372257D01*
X140945490Y-68372257D02*
X140874062Y-68515114D01*
X140874062Y-68515114D02*
X140874062Y-69300828D01*
X154516917Y-73729400D02*
X154302632Y-73800828D01*
X154302632Y-73800828D02*
X153945489Y-73800828D01*
X153945489Y-73800828D02*
X153802632Y-73729400D01*
X153802632Y-73729400D02*
X153731203Y-73657971D01*
X153731203Y-73657971D02*
X153659774Y-73515114D01*
X153659774Y-73515114D02*
X153659774Y-73372257D01*
X153659774Y-73372257D02*
X153731203Y-73229400D01*
X153731203Y-73229400D02*
X153802632Y-73157971D01*
X153802632Y-73157971D02*
X153945489Y-73086542D01*
X153945489Y-73086542D02*
X154231203Y-73015114D01*
X154231203Y-73015114D02*
X154374060Y-72943685D01*
X154374060Y-72943685D02*
X154445489Y-72872257D01*
X154445489Y-72872257D02*
X154516917Y-72729400D01*
X154516917Y-72729400D02*
X154516917Y-72586542D01*
X154516917Y-72586542D02*
X154445489Y-72443685D01*
X154445489Y-72443685D02*
X154374060Y-72372257D01*
X154374060Y-72372257D02*
X154231203Y-72300828D01*
X154231203Y-72300828D02*
X153874060Y-72300828D01*
X153874060Y-72300828D02*
X153659774Y-72372257D01*
X153016918Y-73800828D02*
X153016918Y-72300828D01*
X153016918Y-72300828D02*
X152445489Y-72300828D01*
X152445489Y-72300828D02*
X152302632Y-72372257D01*
X152302632Y-72372257D02*
X152231203Y-72443685D01*
X152231203Y-72443685D02*
X152159775Y-72586542D01*
X152159775Y-72586542D02*
X152159775Y-72800828D01*
X152159775Y-72800828D02*
X152231203Y-72943685D01*
X152231203Y-72943685D02*
X152302632Y-73015114D01*
X152302632Y-73015114D02*
X152445489Y-73086542D01*
X152445489Y-73086542D02*
X153016918Y-73086542D01*
X151516918Y-73015114D02*
X151016918Y-73015114D01*
X150802632Y-73800828D02*
X151516918Y-73800828D01*
X151516918Y-73800828D02*
X151516918Y-72300828D01*
X151516918Y-72300828D02*
X150802632Y-72300828D01*
X150231203Y-73372257D02*
X149516918Y-73372257D01*
X150374060Y-73800828D02*
X149874060Y-72300828D01*
X149874060Y-72300828D02*
X149374060Y-73800828D01*
X148016918Y-73800828D02*
X148516918Y-73086542D01*
X148874061Y-73800828D02*
X148874061Y-72300828D01*
X148874061Y-72300828D02*
X148302632Y-72300828D01*
X148302632Y-72300828D02*
X148159775Y-72372257D01*
X148159775Y-72372257D02*
X148088346Y-72443685D01*
X148088346Y-72443685D02*
X148016918Y-72586542D01*
X148016918Y-72586542D02*
X148016918Y-72800828D01*
X148016918Y-72800828D02*
X148088346Y-72943685D01*
X148088346Y-72943685D02*
X148159775Y-73015114D01*
X148159775Y-73015114D02*
X148302632Y-73086542D01*
X148302632Y-73086542D02*
X148874061Y-73086542D01*
D11*
%TO.C,J4*%
X138581001Y-67754251D02*
G75*
G02*
X137819001Y-67754251I-381000J0D01*
G01*
X137819001Y-67754251D02*
G75*
G02*
X138581001Y-67754251I381000J0D01*
G01*
%TD*%
M02*
