M48
; DRILL file {KiCad 8.0.5} date 2026-02-14T15:21:46-0700
; FORMAT={-:-/ absolute / metric / decimal}
; #@! TF.CreationDate,2026-02-14T15:21:46-07:00
; #@! TF.GenerationSoftware,Kicad,Pcbnew,8.0.5
; #@! TF.FileFunction,Plated,1,2,PTH
FMAT,2
METRIC
; #@! TA.AperFunction,Plated,PTH,ViaDrill
T1C0.300
; #@! TA.AperFunction,Plated,PTH,ComponentDrill
T2C0.600
; #@! TA.AperFunction,Plated,PTH,ComponentDrill
T3C1.000
; #@! TA.AperFunction,Plated,PTH,ComponentDrill
T4C1.600
; #@! TA.AperFunction,Plated,PTH,ComponentDrill
T5C1.700
; #@! TA.AperFunction,Plated,PTH,ComponentDrill
T6C3.900
%
G90
G05
T1
X140.0Y-71.904
T3
X194.5Y-70.0
X194.5Y-81.0
X194.5Y-85.5
X194.5Y-96.5
X194.5Y-101.0
X194.5Y-112.0
T4
X150.5Y-80.0
X150.5Y-83.4
X163.97Y-80.0
X163.97Y-83.4
X165.53Y-72.0
X165.53Y-75.4
X165.53Y-88.3
X165.53Y-91.7
X165.53Y-104.5
X165.53Y-107.9
X179.0Y-72.0
X179.0Y-75.4
X179.0Y-88.3
X179.0Y-91.7
X179.0Y-104.5
X179.0Y-107.9
T5
X184.5Y-73.0
X184.5Y-78.0
X184.5Y-88.5
X184.5Y-93.5
X184.5Y-104.0
X184.5Y-109.0
T6
X158.4Y-96.0
X158.4Y-106.9
T2
G00X149.5Y-92.0
M15
G01X148.5Y-92.0
M16
G05
G00X149.5Y-110.9
M15
G01X148.5Y-110.9
M16
G05
M30
