%TF.GenerationSoftware,KiCad,Pcbnew,8.0.5*%
%TF.CreationDate,2026-02-12T00:50:06-07:00*%
%TF.ProjectId,SPEAR power junction,53504541-5220-4706-9f77-6572206a756e,rev?*%
%TF.SameCoordinates,Original*%
%TF.FileFunction,Legend,Bot*%
%TF.FilePolarity,Positive*%
%FSLAX46Y46*%
G04 Gerber Fmt 4.6, Leading zero omitted, Abs format (unit mm)*
G04 Created by KiCad (PCBNEW 8.0.5) date 2026-02-12 00:50:06*
%MOMM*%
%LPD*%
G01*
G04 APERTURE LIST*
%ADD10C,0.300000*%
%ADD11C,0.508000*%
G04 APERTURE END LIST*
D10*
X138983082Y-85729400D02*
X139197368Y-85800828D01*
X139197368Y-85800828D02*
X139554510Y-85800828D01*
X139554510Y-85800828D02*
X139697368Y-85729400D01*
X139697368Y-85729400D02*
X139768796Y-85657971D01*
X139768796Y-85657971D02*
X139840225Y-85515114D01*
X139840225Y-85515114D02*
X139840225Y-85372257D01*
X139840225Y-85372257D02*
X139768796Y-85229400D01*
X139768796Y-85229400D02*
X139697368Y-85157971D01*
X139697368Y-85157971D02*
X139554510Y-85086542D01*
X139554510Y-85086542D02*
X139268796Y-85015114D01*
X139268796Y-85015114D02*
X139125939Y-84943685D01*
X139125939Y-84943685D02*
X139054510Y-84872257D01*
X139054510Y-84872257D02*
X138983082Y-84729400D01*
X138983082Y-84729400D02*
X138983082Y-84586542D01*
X138983082Y-84586542D02*
X139054510Y-84443685D01*
X139054510Y-84443685D02*
X139125939Y-84372257D01*
X139125939Y-84372257D02*
X139268796Y-84300828D01*
X139268796Y-84300828D02*
X139625939Y-84300828D01*
X139625939Y-84300828D02*
X139840225Y-84372257D01*
X140483081Y-85800828D02*
X140483081Y-84300828D01*
X140483081Y-84300828D02*
X141054510Y-84300828D01*
X141054510Y-84300828D02*
X141197367Y-84372257D01*
X141197367Y-84372257D02*
X141268796Y-84443685D01*
X141268796Y-84443685D02*
X141340224Y-84586542D01*
X141340224Y-84586542D02*
X141340224Y-84800828D01*
X141340224Y-84800828D02*
X141268796Y-84943685D01*
X141268796Y-84943685D02*
X141197367Y-85015114D01*
X141197367Y-85015114D02*
X141054510Y-85086542D01*
X141054510Y-85086542D02*
X140483081Y-85086542D01*
X141983081Y-85015114D02*
X142483081Y-85015114D01*
X142697367Y-85800828D02*
X141983081Y-85800828D01*
X141983081Y-85800828D02*
X141983081Y-84300828D01*
X141983081Y-84300828D02*
X142697367Y-84300828D01*
X143268796Y-85372257D02*
X143983082Y-85372257D01*
X143125939Y-85800828D02*
X143625939Y-84300828D01*
X143625939Y-84300828D02*
X144125939Y-85800828D01*
X145483081Y-85800828D02*
X144983081Y-85086542D01*
X144625938Y-85800828D02*
X144625938Y-84300828D01*
X144625938Y-84300828D02*
X145197367Y-84300828D01*
X145197367Y-84300828D02*
X145340224Y-84372257D01*
X145340224Y-84372257D02*
X145411653Y-84443685D01*
X145411653Y-84443685D02*
X145483081Y-84586542D01*
X145483081Y-84586542D02*
X145483081Y-84800828D01*
X145483081Y-84800828D02*
X145411653Y-84943685D01*
X145411653Y-84943685D02*
X145340224Y-85015114D01*
X145340224Y-85015114D02*
X145197367Y-85086542D01*
X145197367Y-85086542D02*
X144625938Y-85086542D01*
X142983082Y-68300828D02*
X142983082Y-69372257D01*
X142983082Y-69372257D02*
X142911653Y-69586542D01*
X142911653Y-69586542D02*
X142768796Y-69729400D01*
X142768796Y-69729400D02*
X142554510Y-69800828D01*
X142554510Y-69800828D02*
X142411653Y-69800828D01*
X143911653Y-69800828D02*
X143768796Y-69729400D01*
X143768796Y-69729400D02*
X143697367Y-69657971D01*
X143697367Y-69657971D02*
X143625939Y-69515114D01*
X143625939Y-69515114D02*
X143625939Y-69086542D01*
X143625939Y-69086542D02*
X143697367Y-68943685D01*
X143697367Y-68943685D02*
X143768796Y-68872257D01*
X143768796Y-68872257D02*
X143911653Y-68800828D01*
X143911653Y-68800828D02*
X144125939Y-68800828D01*
X144125939Y-68800828D02*
X144268796Y-68872257D01*
X144268796Y-68872257D02*
X144340225Y-68943685D01*
X144340225Y-68943685D02*
X144411653Y-69086542D01*
X144411653Y-69086542D02*
X144411653Y-69515114D01*
X144411653Y-69515114D02*
X144340225Y-69657971D01*
X144340225Y-69657971D02*
X144268796Y-69729400D01*
X144268796Y-69729400D02*
X144125939Y-69800828D01*
X144125939Y-69800828D02*
X143911653Y-69800828D01*
X145625939Y-69729400D02*
X145483082Y-69800828D01*
X145483082Y-69800828D02*
X145197368Y-69800828D01*
X145197368Y-69800828D02*
X145054510Y-69729400D01*
X145054510Y-69729400D02*
X144983082Y-69586542D01*
X144983082Y-69586542D02*
X144983082Y-69015114D01*
X144983082Y-69015114D02*
X145054510Y-68872257D01*
X145054510Y-68872257D02*
X145197368Y-68800828D01*
X145197368Y-68800828D02*
X145483082Y-68800828D01*
X145483082Y-68800828D02*
X145625939Y-68872257D01*
X145625939Y-68872257D02*
X145697368Y-69015114D01*
X145697368Y-69015114D02*
X145697368Y-69157971D01*
X145697368Y-69157971D02*
X144983082Y-69300828D01*
X146554510Y-69800828D02*
X146411653Y-69729400D01*
X146411653Y-69729400D02*
X146340224Y-69586542D01*
X146340224Y-69586542D02*
X146340224Y-68300828D01*
X147340224Y-69800828D02*
X147197367Y-69729400D01*
X147197367Y-69729400D02*
X147125938Y-69586542D01*
X147125938Y-69586542D02*
X147125938Y-68300828D01*
X148483081Y-69729400D02*
X148340224Y-69800828D01*
X148340224Y-69800828D02*
X148054510Y-69800828D01*
X148054510Y-69800828D02*
X147911652Y-69729400D01*
X147911652Y-69729400D02*
X147840224Y-69586542D01*
X147840224Y-69586542D02*
X147840224Y-69015114D01*
X147840224Y-69015114D02*
X147911652Y-68872257D01*
X147911652Y-68872257D02*
X148054510Y-68800828D01*
X148054510Y-68800828D02*
X148340224Y-68800828D01*
X148340224Y-68800828D02*
X148483081Y-68872257D01*
X148483081Y-68872257D02*
X148554510Y-69015114D01*
X148554510Y-69015114D02*
X148554510Y-69157971D01*
X148554510Y-69157971D02*
X147840224Y-69300828D01*
X150268795Y-69372257D02*
X150983081Y-69372257D01*
X150125938Y-69800828D02*
X150625938Y-68300828D01*
X150625938Y-68300828D02*
X151125938Y-69800828D01*
X152268795Y-69800828D02*
X152268795Y-68300828D01*
X152268795Y-69729400D02*
X152125937Y-69800828D01*
X152125937Y-69800828D02*
X151840223Y-69800828D01*
X151840223Y-69800828D02*
X151697366Y-69729400D01*
X151697366Y-69729400D02*
X151625937Y-69657971D01*
X151625937Y-69657971D02*
X151554509Y-69515114D01*
X151554509Y-69515114D02*
X151554509Y-69086542D01*
X151554509Y-69086542D02*
X151625937Y-68943685D01*
X151625937Y-68943685D02*
X151697366Y-68872257D01*
X151697366Y-68872257D02*
X151840223Y-68800828D01*
X151840223Y-68800828D02*
X152125937Y-68800828D01*
X152125937Y-68800828D02*
X152268795Y-68872257D01*
X153554509Y-69729400D02*
X153411652Y-69800828D01*
X153411652Y-69800828D02*
X153125938Y-69800828D01*
X153125938Y-69800828D02*
X152983080Y-69729400D01*
X152983080Y-69729400D02*
X152911652Y-69586542D01*
X152911652Y-69586542D02*
X152911652Y-69015114D01*
X152911652Y-69015114D02*
X152983080Y-68872257D01*
X152983080Y-68872257D02*
X153125938Y-68800828D01*
X153125938Y-68800828D02*
X153411652Y-68800828D01*
X153411652Y-68800828D02*
X153554509Y-68872257D01*
X153554509Y-68872257D02*
X153625938Y-69015114D01*
X153625938Y-69015114D02*
X153625938Y-69157971D01*
X153625938Y-69157971D02*
X152911652Y-69300828D01*
X154911652Y-69800828D02*
X154911652Y-68300828D01*
X154911652Y-69729400D02*
X154768794Y-69800828D01*
X154768794Y-69800828D02*
X154483080Y-69800828D01*
X154483080Y-69800828D02*
X154340223Y-69729400D01*
X154340223Y-69729400D02*
X154268794Y-69657971D01*
X154268794Y-69657971D02*
X154197366Y-69515114D01*
X154197366Y-69515114D02*
X154197366Y-69086542D01*
X154197366Y-69086542D02*
X154268794Y-68943685D01*
X154268794Y-68943685D02*
X154340223Y-68872257D01*
X154340223Y-68872257D02*
X154483080Y-68800828D01*
X154483080Y-68800828D02*
X154768794Y-68800828D01*
X154768794Y-68800828D02*
X154911652Y-68872257D01*
X156268795Y-68800828D02*
X156268795Y-69800828D01*
X155625937Y-68800828D02*
X155625937Y-69586542D01*
X155625937Y-69586542D02*
X155697366Y-69729400D01*
X155697366Y-69729400D02*
X155840223Y-69800828D01*
X155840223Y-69800828D02*
X156054509Y-69800828D01*
X156054509Y-69800828D02*
X156197366Y-69729400D01*
X156197366Y-69729400D02*
X156268795Y-69657971D01*
X156983080Y-68800828D02*
X156983080Y-69800828D01*
X156983080Y-68943685D02*
X157054509Y-68872257D01*
X157054509Y-68872257D02*
X157197366Y-68800828D01*
X157197366Y-68800828D02*
X157411652Y-68800828D01*
X157411652Y-68800828D02*
X157554509Y-68872257D01*
X157554509Y-68872257D02*
X157625938Y-69015114D01*
X157625938Y-69015114D02*
X157625938Y-69800828D01*
D11*
%TO.C,J4*%
X138581001Y-67754251D02*
G75*
G02*
X137819001Y-67754251I-381000J0D01*
G01*
X137819001Y-67754251D02*
G75*
G02*
X138581001Y-67754251I381000J0D01*
G01*
%TD*%
M02*
