%TF.GenerationSoftware,KiCad,Pcbnew,8.0.5*%
%TF.CreationDate,2026-02-14T15:21:18-07:00*%
%TF.ProjectId,SPEAR power junction,53504541-5220-4706-9f77-6572206a756e,rev?*%
%TF.SameCoordinates,Original*%
%TF.FileFunction,Legend,Top*%
%TF.FilePolarity,Positive*%
%FSLAX46Y46*%
G04 Gerber Fmt 4.6, Leading zero omitted, Abs format (unit mm)*
G04 Created by KiCad (PCBNEW 8.0.5) date 2026-02-14 15:21:18*
%MOMM*%
%LPD*%
G01*
G04 APERTURE LIST*
%ADD10C,0.150000*%
%ADD11C,0.300000*%
%ADD12C,0.127000*%
%ADD13C,0.152400*%
%ADD14C,0.508000*%
G04 APERTURE END LIST*
D10*
X180836779Y-67988866D02*
X181598684Y-67988866D01*
X181217731Y-68369819D02*
X181217731Y-67607914D01*
D11*
X171840225Y-69300828D02*
X170983082Y-69300828D01*
X171411653Y-69300828D02*
X171411653Y-67800828D01*
X171411653Y-67800828D02*
X171268796Y-68015114D01*
X171268796Y-68015114D02*
X171125939Y-68157971D01*
X171125939Y-68157971D02*
X170983082Y-68229400D01*
X173197367Y-67800828D02*
X172483081Y-67800828D01*
X172483081Y-67800828D02*
X172411653Y-68515114D01*
X172411653Y-68515114D02*
X172483081Y-68443685D01*
X172483081Y-68443685D02*
X172625939Y-68372257D01*
X172625939Y-68372257D02*
X172983081Y-68372257D01*
X172983081Y-68372257D02*
X173125939Y-68443685D01*
X173125939Y-68443685D02*
X173197367Y-68515114D01*
X173197367Y-68515114D02*
X173268796Y-68657971D01*
X173268796Y-68657971D02*
X173268796Y-69015114D01*
X173268796Y-69015114D02*
X173197367Y-69157971D01*
X173197367Y-69157971D02*
X173125939Y-69229400D01*
X173125939Y-69229400D02*
X172983081Y-69300828D01*
X172983081Y-69300828D02*
X172625939Y-69300828D01*
X172625939Y-69300828D02*
X172483081Y-69229400D01*
X172483081Y-69229400D02*
X172411653Y-69157971D01*
X173840224Y-68872257D02*
X174554510Y-68872257D01*
X173697367Y-69300828D02*
X174197367Y-67800828D01*
X174197367Y-67800828D02*
X174697367Y-69300828D01*
X155840225Y-87300828D02*
X154983082Y-87300828D01*
X155411653Y-87300828D02*
X155411653Y-85800828D01*
X155411653Y-85800828D02*
X155268796Y-86015114D01*
X155268796Y-86015114D02*
X155125939Y-86157971D01*
X155125939Y-86157971D02*
X154983082Y-86229400D01*
X156411653Y-86872257D02*
X157125939Y-86872257D01*
X156268796Y-87300828D02*
X156768796Y-85800828D01*
X156768796Y-85800828D02*
X157268796Y-87300828D01*
X172340225Y-85800828D02*
X171483082Y-85800828D01*
X171911653Y-85800828D02*
X171911653Y-84300828D01*
X171911653Y-84300828D02*
X171768796Y-84515114D01*
X171768796Y-84515114D02*
X171625939Y-84657971D01*
X171625939Y-84657971D02*
X171483082Y-84729400D01*
X173697367Y-84300828D02*
X172983081Y-84300828D01*
X172983081Y-84300828D02*
X172911653Y-85015114D01*
X172911653Y-85015114D02*
X172983081Y-84943685D01*
X172983081Y-84943685D02*
X173125939Y-84872257D01*
X173125939Y-84872257D02*
X173483081Y-84872257D01*
X173483081Y-84872257D02*
X173625939Y-84943685D01*
X173625939Y-84943685D02*
X173697367Y-85015114D01*
X173697367Y-85015114D02*
X173768796Y-85157971D01*
X173768796Y-85157971D02*
X173768796Y-85515114D01*
X173768796Y-85515114D02*
X173697367Y-85657971D01*
X173697367Y-85657971D02*
X173625939Y-85729400D01*
X173625939Y-85729400D02*
X173483081Y-85800828D01*
X173483081Y-85800828D02*
X173125939Y-85800828D01*
X173125939Y-85800828D02*
X172983081Y-85729400D01*
X172983081Y-85729400D02*
X172911653Y-85657971D01*
X174340224Y-85372257D02*
X175054510Y-85372257D01*
X174197367Y-85800828D02*
X174697367Y-84300828D01*
X174697367Y-84300828D02*
X175197367Y-85800828D01*
X181800828Y-98445489D02*
X180300828Y-98445489D01*
X180300828Y-98445489D02*
X180300828Y-97874060D01*
X180300828Y-97874060D02*
X180372257Y-97731203D01*
X180372257Y-97731203D02*
X180443685Y-97659774D01*
X180443685Y-97659774D02*
X180586542Y-97588346D01*
X180586542Y-97588346D02*
X180800828Y-97588346D01*
X180800828Y-97588346D02*
X180943685Y-97659774D01*
X180943685Y-97659774D02*
X181015114Y-97731203D01*
X181015114Y-97731203D02*
X181086542Y-97874060D01*
X181086542Y-97874060D02*
X181086542Y-98445489D01*
X180300828Y-96659774D02*
X180300828Y-96374060D01*
X180300828Y-96374060D02*
X180372257Y-96231203D01*
X180372257Y-96231203D02*
X180515114Y-96088346D01*
X180515114Y-96088346D02*
X180800828Y-96016917D01*
X180800828Y-96016917D02*
X181300828Y-96016917D01*
X181300828Y-96016917D02*
X181586542Y-96088346D01*
X181586542Y-96088346D02*
X181729400Y-96231203D01*
X181729400Y-96231203D02*
X181800828Y-96374060D01*
X181800828Y-96374060D02*
X181800828Y-96659774D01*
X181800828Y-96659774D02*
X181729400Y-96802632D01*
X181729400Y-96802632D02*
X181586542Y-96945489D01*
X181586542Y-96945489D02*
X181300828Y-97016917D01*
X181300828Y-97016917D02*
X180800828Y-97016917D01*
X180800828Y-97016917D02*
X180515114Y-96945489D01*
X180515114Y-96945489D02*
X180372257Y-96802632D01*
X180372257Y-96802632D02*
X180300828Y-96659774D01*
X180443685Y-95445488D02*
X180372257Y-95374060D01*
X180372257Y-95374060D02*
X180300828Y-95231203D01*
X180300828Y-95231203D02*
X180300828Y-94874060D01*
X180300828Y-94874060D02*
X180372257Y-94731203D01*
X180372257Y-94731203D02*
X180443685Y-94659774D01*
X180443685Y-94659774D02*
X180586542Y-94588345D01*
X180586542Y-94588345D02*
X180729400Y-94588345D01*
X180729400Y-94588345D02*
X180943685Y-94659774D01*
X180943685Y-94659774D02*
X181800828Y-95516917D01*
X181800828Y-95516917D02*
X181800828Y-94588345D01*
X178554510Y-113300828D02*
X178554510Y-111800828D01*
X178554510Y-111800828D02*
X179125939Y-111800828D01*
X179125939Y-111800828D02*
X179268796Y-111872257D01*
X179268796Y-111872257D02*
X179340225Y-111943685D01*
X179340225Y-111943685D02*
X179411653Y-112086542D01*
X179411653Y-112086542D02*
X179411653Y-112300828D01*
X179411653Y-112300828D02*
X179340225Y-112443685D01*
X179340225Y-112443685D02*
X179268796Y-112515114D01*
X179268796Y-112515114D02*
X179125939Y-112586542D01*
X179125939Y-112586542D02*
X178554510Y-112586542D01*
X180340225Y-111800828D02*
X180625939Y-111800828D01*
X180625939Y-111800828D02*
X180768796Y-111872257D01*
X180768796Y-111872257D02*
X180911653Y-112015114D01*
X180911653Y-112015114D02*
X180983082Y-112300828D01*
X180983082Y-112300828D02*
X180983082Y-112800828D01*
X180983082Y-112800828D02*
X180911653Y-113086542D01*
X180911653Y-113086542D02*
X180768796Y-113229400D01*
X180768796Y-113229400D02*
X180625939Y-113300828D01*
X180625939Y-113300828D02*
X180340225Y-113300828D01*
X180340225Y-113300828D02*
X180197368Y-113229400D01*
X180197368Y-113229400D02*
X180054510Y-113086542D01*
X180054510Y-113086542D02*
X179983082Y-112800828D01*
X179983082Y-112800828D02*
X179983082Y-112300828D01*
X179983082Y-112300828D02*
X180054510Y-112015114D01*
X180054510Y-112015114D02*
X180197368Y-111872257D01*
X180197368Y-111872257D02*
X180340225Y-111800828D01*
X182411654Y-113300828D02*
X181554511Y-113300828D01*
X181983082Y-113300828D02*
X181983082Y-111800828D01*
X181983082Y-111800828D02*
X181840225Y-112015114D01*
X181840225Y-112015114D02*
X181697368Y-112157971D01*
X181697368Y-112157971D02*
X181554511Y-112229400D01*
D10*
X180488866Y-81163220D02*
X180488866Y-80401316D01*
D11*
X139054510Y-65800828D02*
X139054510Y-64300828D01*
X139054510Y-64300828D02*
X139625939Y-64300828D01*
X139625939Y-64300828D02*
X139768796Y-64372257D01*
X139768796Y-64372257D02*
X139840225Y-64443685D01*
X139840225Y-64443685D02*
X139911653Y-64586542D01*
X139911653Y-64586542D02*
X139911653Y-64800828D01*
X139911653Y-64800828D02*
X139840225Y-64943685D01*
X139840225Y-64943685D02*
X139768796Y-65015114D01*
X139768796Y-65015114D02*
X139625939Y-65086542D01*
X139625939Y-65086542D02*
X139054510Y-65086542D01*
X140768796Y-65800828D02*
X140625939Y-65729400D01*
X140625939Y-65729400D02*
X140554510Y-65657971D01*
X140554510Y-65657971D02*
X140483082Y-65515114D01*
X140483082Y-65515114D02*
X140483082Y-65086542D01*
X140483082Y-65086542D02*
X140554510Y-64943685D01*
X140554510Y-64943685D02*
X140625939Y-64872257D01*
X140625939Y-64872257D02*
X140768796Y-64800828D01*
X140768796Y-64800828D02*
X140983082Y-64800828D01*
X140983082Y-64800828D02*
X141125939Y-64872257D01*
X141125939Y-64872257D02*
X141197368Y-64943685D01*
X141197368Y-64943685D02*
X141268796Y-65086542D01*
X141268796Y-65086542D02*
X141268796Y-65515114D01*
X141268796Y-65515114D02*
X141197368Y-65657971D01*
X141197368Y-65657971D02*
X141125939Y-65729400D01*
X141125939Y-65729400D02*
X140983082Y-65800828D01*
X140983082Y-65800828D02*
X140768796Y-65800828D01*
X141768796Y-64800828D02*
X142054511Y-65800828D01*
X142054511Y-65800828D02*
X142340225Y-65086542D01*
X142340225Y-65086542D02*
X142625939Y-65800828D01*
X142625939Y-65800828D02*
X142911653Y-64800828D01*
X144054511Y-65729400D02*
X143911654Y-65800828D01*
X143911654Y-65800828D02*
X143625940Y-65800828D01*
X143625940Y-65800828D02*
X143483082Y-65729400D01*
X143483082Y-65729400D02*
X143411654Y-65586542D01*
X143411654Y-65586542D02*
X143411654Y-65015114D01*
X143411654Y-65015114D02*
X143483082Y-64872257D01*
X143483082Y-64872257D02*
X143625940Y-64800828D01*
X143625940Y-64800828D02*
X143911654Y-64800828D01*
X143911654Y-64800828D02*
X144054511Y-64872257D01*
X144054511Y-64872257D02*
X144125940Y-65015114D01*
X144125940Y-65015114D02*
X144125940Y-65157971D01*
X144125940Y-65157971D02*
X143411654Y-65300828D01*
X144768796Y-65800828D02*
X144768796Y-64800828D01*
X144768796Y-65086542D02*
X144840225Y-64943685D01*
X144840225Y-64943685D02*
X144911654Y-64872257D01*
X144911654Y-64872257D02*
X145054511Y-64800828D01*
X145054511Y-64800828D02*
X145197368Y-64800828D01*
X147268796Y-64300828D02*
X147268796Y-65372257D01*
X147268796Y-65372257D02*
X147197367Y-65586542D01*
X147197367Y-65586542D02*
X147054510Y-65729400D01*
X147054510Y-65729400D02*
X146840224Y-65800828D01*
X146840224Y-65800828D02*
X146697367Y-65800828D01*
X148625939Y-64800828D02*
X148625939Y-65800828D01*
X147983081Y-64800828D02*
X147983081Y-65586542D01*
X147983081Y-65586542D02*
X148054510Y-65729400D01*
X148054510Y-65729400D02*
X148197367Y-65800828D01*
X148197367Y-65800828D02*
X148411653Y-65800828D01*
X148411653Y-65800828D02*
X148554510Y-65729400D01*
X148554510Y-65729400D02*
X148625939Y-65657971D01*
X149340224Y-64800828D02*
X149340224Y-65800828D01*
X149340224Y-64943685D02*
X149411653Y-64872257D01*
X149411653Y-64872257D02*
X149554510Y-64800828D01*
X149554510Y-64800828D02*
X149768796Y-64800828D01*
X149768796Y-64800828D02*
X149911653Y-64872257D01*
X149911653Y-64872257D02*
X149983082Y-65015114D01*
X149983082Y-65015114D02*
X149983082Y-65800828D01*
X151340225Y-65729400D02*
X151197367Y-65800828D01*
X151197367Y-65800828D02*
X150911653Y-65800828D01*
X150911653Y-65800828D02*
X150768796Y-65729400D01*
X150768796Y-65729400D02*
X150697367Y-65657971D01*
X150697367Y-65657971D02*
X150625939Y-65515114D01*
X150625939Y-65515114D02*
X150625939Y-65086542D01*
X150625939Y-65086542D02*
X150697367Y-64943685D01*
X150697367Y-64943685D02*
X150768796Y-64872257D01*
X150768796Y-64872257D02*
X150911653Y-64800828D01*
X150911653Y-64800828D02*
X151197367Y-64800828D01*
X151197367Y-64800828D02*
X151340225Y-64872257D01*
X151768796Y-64800828D02*
X152340224Y-64800828D01*
X151983081Y-64300828D02*
X151983081Y-65586542D01*
X151983081Y-65586542D02*
X152054510Y-65729400D01*
X152054510Y-65729400D02*
X152197367Y-65800828D01*
X152197367Y-65800828D02*
X152340224Y-65800828D01*
X152840224Y-65800828D02*
X152840224Y-64800828D01*
X152840224Y-64300828D02*
X152768796Y-64372257D01*
X152768796Y-64372257D02*
X152840224Y-64443685D01*
X152840224Y-64443685D02*
X152911653Y-64372257D01*
X152911653Y-64372257D02*
X152840224Y-64300828D01*
X152840224Y-64300828D02*
X152840224Y-64443685D01*
X153768796Y-65800828D02*
X153625939Y-65729400D01*
X153625939Y-65729400D02*
X153554510Y-65657971D01*
X153554510Y-65657971D02*
X153483082Y-65515114D01*
X153483082Y-65515114D02*
X153483082Y-65086542D01*
X153483082Y-65086542D02*
X153554510Y-64943685D01*
X153554510Y-64943685D02*
X153625939Y-64872257D01*
X153625939Y-64872257D02*
X153768796Y-64800828D01*
X153768796Y-64800828D02*
X153983082Y-64800828D01*
X153983082Y-64800828D02*
X154125939Y-64872257D01*
X154125939Y-64872257D02*
X154197368Y-64943685D01*
X154197368Y-64943685D02*
X154268796Y-65086542D01*
X154268796Y-65086542D02*
X154268796Y-65515114D01*
X154268796Y-65515114D02*
X154197368Y-65657971D01*
X154197368Y-65657971D02*
X154125939Y-65729400D01*
X154125939Y-65729400D02*
X153983082Y-65800828D01*
X153983082Y-65800828D02*
X153768796Y-65800828D01*
X154911653Y-64800828D02*
X154911653Y-65800828D01*
X154911653Y-64943685D02*
X154983082Y-64872257D01*
X154983082Y-64872257D02*
X155125939Y-64800828D01*
X155125939Y-64800828D02*
X155340225Y-64800828D01*
X155340225Y-64800828D02*
X155483082Y-64872257D01*
X155483082Y-64872257D02*
X155554511Y-65015114D01*
X155554511Y-65015114D02*
X155554511Y-65800828D01*
X157197368Y-64300828D02*
X157697368Y-65800828D01*
X157697368Y-65800828D02*
X158197368Y-64300828D01*
X159268796Y-65729400D02*
X159125939Y-65800828D01*
X159125939Y-65800828D02*
X158840225Y-65800828D01*
X158840225Y-65800828D02*
X158697367Y-65729400D01*
X158697367Y-65729400D02*
X158625939Y-65586542D01*
X158625939Y-65586542D02*
X158625939Y-65015114D01*
X158625939Y-65015114D02*
X158697367Y-64872257D01*
X158697367Y-64872257D02*
X158840225Y-64800828D01*
X158840225Y-64800828D02*
X159125939Y-64800828D01*
X159125939Y-64800828D02*
X159268796Y-64872257D01*
X159268796Y-64872257D02*
X159340225Y-65015114D01*
X159340225Y-65015114D02*
X159340225Y-65157971D01*
X159340225Y-65157971D02*
X158625939Y-65300828D01*
X159983081Y-65800828D02*
X159983081Y-64800828D01*
X159983081Y-65086542D02*
X160054510Y-64943685D01*
X160054510Y-64943685D02*
X160125939Y-64872257D01*
X160125939Y-64872257D02*
X160268796Y-64800828D01*
X160268796Y-64800828D02*
X160411653Y-64800828D01*
X160840224Y-65729400D02*
X160983081Y-65800828D01*
X160983081Y-65800828D02*
X161268795Y-65800828D01*
X161268795Y-65800828D02*
X161411652Y-65729400D01*
X161411652Y-65729400D02*
X161483081Y-65586542D01*
X161483081Y-65586542D02*
X161483081Y-65515114D01*
X161483081Y-65515114D02*
X161411652Y-65372257D01*
X161411652Y-65372257D02*
X161268795Y-65300828D01*
X161268795Y-65300828D02*
X161054510Y-65300828D01*
X161054510Y-65300828D02*
X160911652Y-65229400D01*
X160911652Y-65229400D02*
X160840224Y-65086542D01*
X160840224Y-65086542D02*
X160840224Y-65015114D01*
X160840224Y-65015114D02*
X160911652Y-64872257D01*
X160911652Y-64872257D02*
X161054510Y-64800828D01*
X161054510Y-64800828D02*
X161268795Y-64800828D01*
X161268795Y-64800828D02*
X161411652Y-64872257D01*
X162125938Y-65800828D02*
X162125938Y-64800828D01*
X162125938Y-64300828D02*
X162054510Y-64372257D01*
X162054510Y-64372257D02*
X162125938Y-64443685D01*
X162125938Y-64443685D02*
X162197367Y-64372257D01*
X162197367Y-64372257D02*
X162125938Y-64300828D01*
X162125938Y-64300828D02*
X162125938Y-64443685D01*
X163054510Y-65800828D02*
X162911653Y-65729400D01*
X162911653Y-65729400D02*
X162840224Y-65657971D01*
X162840224Y-65657971D02*
X162768796Y-65515114D01*
X162768796Y-65515114D02*
X162768796Y-65086542D01*
X162768796Y-65086542D02*
X162840224Y-64943685D01*
X162840224Y-64943685D02*
X162911653Y-64872257D01*
X162911653Y-64872257D02*
X163054510Y-64800828D01*
X163054510Y-64800828D02*
X163268796Y-64800828D01*
X163268796Y-64800828D02*
X163411653Y-64872257D01*
X163411653Y-64872257D02*
X163483082Y-64943685D01*
X163483082Y-64943685D02*
X163554510Y-65086542D01*
X163554510Y-65086542D02*
X163554510Y-65515114D01*
X163554510Y-65515114D02*
X163483082Y-65657971D01*
X163483082Y-65657971D02*
X163411653Y-65729400D01*
X163411653Y-65729400D02*
X163268796Y-65800828D01*
X163268796Y-65800828D02*
X163054510Y-65800828D01*
X164197367Y-64800828D02*
X164197367Y-65800828D01*
X164197367Y-64943685D02*
X164268796Y-64872257D01*
X164268796Y-64872257D02*
X164411653Y-64800828D01*
X164411653Y-64800828D02*
X164625939Y-64800828D01*
X164625939Y-64800828D02*
X164768796Y-64872257D01*
X164768796Y-64872257D02*
X164840225Y-65015114D01*
X164840225Y-65015114D02*
X164840225Y-65800828D01*
X167483082Y-65800828D02*
X166625939Y-65800828D01*
X167054510Y-65800828D02*
X167054510Y-64300828D01*
X167054510Y-64300828D02*
X166911653Y-64515114D01*
X166911653Y-64515114D02*
X166768796Y-64657971D01*
X166768796Y-64657971D02*
X166625939Y-64729400D01*
X138054510Y-90300828D02*
X138054510Y-88800828D01*
X138054510Y-88800828D02*
X138625939Y-88800828D01*
X138625939Y-88800828D02*
X138768796Y-88872257D01*
X138768796Y-88872257D02*
X138840225Y-88943685D01*
X138840225Y-88943685D02*
X138911653Y-89086542D01*
X138911653Y-89086542D02*
X138911653Y-89300828D01*
X138911653Y-89300828D02*
X138840225Y-89443685D01*
X138840225Y-89443685D02*
X138768796Y-89515114D01*
X138768796Y-89515114D02*
X138625939Y-89586542D01*
X138625939Y-89586542D02*
X138054510Y-89586542D01*
X139768796Y-90300828D02*
X139625939Y-90229400D01*
X139625939Y-90229400D02*
X139554510Y-90157971D01*
X139554510Y-90157971D02*
X139483082Y-90015114D01*
X139483082Y-90015114D02*
X139483082Y-89586542D01*
X139483082Y-89586542D02*
X139554510Y-89443685D01*
X139554510Y-89443685D02*
X139625939Y-89372257D01*
X139625939Y-89372257D02*
X139768796Y-89300828D01*
X139768796Y-89300828D02*
X139983082Y-89300828D01*
X139983082Y-89300828D02*
X140125939Y-89372257D01*
X140125939Y-89372257D02*
X140197368Y-89443685D01*
X140197368Y-89443685D02*
X140268796Y-89586542D01*
X140268796Y-89586542D02*
X140268796Y-90015114D01*
X140268796Y-90015114D02*
X140197368Y-90157971D01*
X140197368Y-90157971D02*
X140125939Y-90229400D01*
X140125939Y-90229400D02*
X139983082Y-90300828D01*
X139983082Y-90300828D02*
X139768796Y-90300828D01*
X140768796Y-89300828D02*
X141054511Y-90300828D01*
X141054511Y-90300828D02*
X141340225Y-89586542D01*
X141340225Y-89586542D02*
X141625939Y-90300828D01*
X141625939Y-90300828D02*
X141911653Y-89300828D01*
X143054511Y-90229400D02*
X142911654Y-90300828D01*
X142911654Y-90300828D02*
X142625940Y-90300828D01*
X142625940Y-90300828D02*
X142483082Y-90229400D01*
X142483082Y-90229400D02*
X142411654Y-90086542D01*
X142411654Y-90086542D02*
X142411654Y-89515114D01*
X142411654Y-89515114D02*
X142483082Y-89372257D01*
X142483082Y-89372257D02*
X142625940Y-89300828D01*
X142625940Y-89300828D02*
X142911654Y-89300828D01*
X142911654Y-89300828D02*
X143054511Y-89372257D01*
X143054511Y-89372257D02*
X143125940Y-89515114D01*
X143125940Y-89515114D02*
X143125940Y-89657971D01*
X143125940Y-89657971D02*
X142411654Y-89800828D01*
X143768796Y-90300828D02*
X143768796Y-89300828D01*
X143768796Y-89586542D02*
X143840225Y-89443685D01*
X143840225Y-89443685D02*
X143911654Y-89372257D01*
X143911654Y-89372257D02*
X144054511Y-89300828D01*
X144054511Y-89300828D02*
X144197368Y-89300828D01*
X145840224Y-90300828D02*
X145840224Y-89300828D01*
X145840224Y-88800828D02*
X145768796Y-88872257D01*
X145768796Y-88872257D02*
X145840224Y-88943685D01*
X145840224Y-88943685D02*
X145911653Y-88872257D01*
X145911653Y-88872257D02*
X145840224Y-88800828D01*
X145840224Y-88800828D02*
X145840224Y-88943685D01*
X146554510Y-89300828D02*
X146554510Y-90300828D01*
X146554510Y-89443685D02*
X146625939Y-89372257D01*
X146625939Y-89372257D02*
X146768796Y-89300828D01*
X146768796Y-89300828D02*
X146983082Y-89300828D01*
X146983082Y-89300828D02*
X147125939Y-89372257D01*
X147125939Y-89372257D02*
X147197368Y-89515114D01*
X147197368Y-89515114D02*
X147197368Y-90300828D01*
X171840225Y-101800828D02*
X170983082Y-101800828D01*
X171411653Y-101800828D02*
X171411653Y-100300828D01*
X171411653Y-100300828D02*
X171268796Y-100515114D01*
X171268796Y-100515114D02*
X171125939Y-100657971D01*
X171125939Y-100657971D02*
X170983082Y-100729400D01*
X173197367Y-100300828D02*
X172483081Y-100300828D01*
X172483081Y-100300828D02*
X172411653Y-101015114D01*
X172411653Y-101015114D02*
X172483081Y-100943685D01*
X172483081Y-100943685D02*
X172625939Y-100872257D01*
X172625939Y-100872257D02*
X172983081Y-100872257D01*
X172983081Y-100872257D02*
X173125939Y-100943685D01*
X173125939Y-100943685D02*
X173197367Y-101015114D01*
X173197367Y-101015114D02*
X173268796Y-101157971D01*
X173268796Y-101157971D02*
X173268796Y-101515114D01*
X173268796Y-101515114D02*
X173197367Y-101657971D01*
X173197367Y-101657971D02*
X173125939Y-101729400D01*
X173125939Y-101729400D02*
X172983081Y-101800828D01*
X172983081Y-101800828D02*
X172625939Y-101800828D01*
X172625939Y-101800828D02*
X172483081Y-101729400D01*
X172483081Y-101729400D02*
X172411653Y-101657971D01*
X173840224Y-101372257D02*
X174554510Y-101372257D01*
X173697367Y-101800828D02*
X174197367Y-100300828D01*
X174197367Y-100300828D02*
X174697367Y-101800828D01*
X188554510Y-67300828D02*
X188554510Y-65800828D01*
X188554510Y-65800828D02*
X189125939Y-65800828D01*
X189125939Y-65800828D02*
X189268796Y-65872257D01*
X189268796Y-65872257D02*
X189340225Y-65943685D01*
X189340225Y-65943685D02*
X189411653Y-66086542D01*
X189411653Y-66086542D02*
X189411653Y-66300828D01*
X189411653Y-66300828D02*
X189340225Y-66443685D01*
X189340225Y-66443685D02*
X189268796Y-66515114D01*
X189268796Y-66515114D02*
X189125939Y-66586542D01*
X189125939Y-66586542D02*
X188554510Y-66586542D01*
X190340225Y-65800828D02*
X190625939Y-65800828D01*
X190625939Y-65800828D02*
X190768796Y-65872257D01*
X190768796Y-65872257D02*
X190911653Y-66015114D01*
X190911653Y-66015114D02*
X190983082Y-66300828D01*
X190983082Y-66300828D02*
X190983082Y-66800828D01*
X190983082Y-66800828D02*
X190911653Y-67086542D01*
X190911653Y-67086542D02*
X190768796Y-67229400D01*
X190768796Y-67229400D02*
X190625939Y-67300828D01*
X190625939Y-67300828D02*
X190340225Y-67300828D01*
X190340225Y-67300828D02*
X190197368Y-67229400D01*
X190197368Y-67229400D02*
X190054510Y-67086542D01*
X190054510Y-67086542D02*
X189983082Y-66800828D01*
X189983082Y-66800828D02*
X189983082Y-66300828D01*
X189983082Y-66300828D02*
X190054510Y-66015114D01*
X190054510Y-66015114D02*
X190197368Y-65872257D01*
X190197368Y-65872257D02*
X190340225Y-65800828D01*
X191483082Y-65800828D02*
X192411654Y-65800828D01*
X192411654Y-65800828D02*
X191911654Y-66372257D01*
X191911654Y-66372257D02*
X192125939Y-66372257D01*
X192125939Y-66372257D02*
X192268797Y-66443685D01*
X192268797Y-66443685D02*
X192340225Y-66515114D01*
X192340225Y-66515114D02*
X192411654Y-66657971D01*
X192411654Y-66657971D02*
X192411654Y-67015114D01*
X192411654Y-67015114D02*
X192340225Y-67157971D01*
X192340225Y-67157971D02*
X192268797Y-67229400D01*
X192268797Y-67229400D02*
X192125939Y-67300828D01*
X192125939Y-67300828D02*
X191697368Y-67300828D01*
X191697368Y-67300828D02*
X191554511Y-67229400D01*
X191554511Y-67229400D02*
X191483082Y-67157971D01*
D10*
X135666666Y-78254819D02*
X135333333Y-77778628D01*
X135095238Y-78254819D02*
X135095238Y-77254819D01*
X135095238Y-77254819D02*
X135476190Y-77254819D01*
X135476190Y-77254819D02*
X135571428Y-77302438D01*
X135571428Y-77302438D02*
X135619047Y-77350057D01*
X135619047Y-77350057D02*
X135666666Y-77445295D01*
X135666666Y-77445295D02*
X135666666Y-77588152D01*
X135666666Y-77588152D02*
X135619047Y-77683390D01*
X135619047Y-77683390D02*
X135571428Y-77731009D01*
X135571428Y-77731009D02*
X135476190Y-77778628D01*
X135476190Y-77778628D02*
X135095238Y-77778628D01*
X136095238Y-77731009D02*
X136428571Y-77731009D01*
X136571428Y-78254819D02*
X136095238Y-78254819D01*
X136095238Y-78254819D02*
X136095238Y-77254819D01*
X136095238Y-77254819D02*
X136571428Y-77254819D01*
X137333333Y-77731009D02*
X137000000Y-77731009D01*
X137000000Y-78254819D02*
X137000000Y-77254819D01*
X137000000Y-77254819D02*
X137476190Y-77254819D01*
X138000000Y-77254819D02*
X138000000Y-77492914D01*
X137761905Y-77397676D02*
X138000000Y-77492914D01*
X138000000Y-77492914D02*
X138238095Y-77397676D01*
X137857143Y-77683390D02*
X138000000Y-77492914D01*
X138000000Y-77492914D02*
X138142857Y-77683390D01*
X138761905Y-77254819D02*
X138761905Y-77492914D01*
X138523810Y-77397676D02*
X138761905Y-77492914D01*
X138761905Y-77492914D02*
X139000000Y-77397676D01*
X138619048Y-77683390D02*
X138761905Y-77492914D01*
X138761905Y-77492914D02*
X138904762Y-77683390D01*
D12*
%TO.C,J3*%
X195750000Y-68850000D02*
X195750000Y-70550000D01*
X193250000Y-68850000D02*
X195750000Y-68850000D01*
X197450000Y-70550000D02*
X197450000Y-80450000D01*
X195750000Y-70550000D02*
X197450000Y-70550000D01*
X193250000Y-70550000D02*
X193250000Y-68850000D01*
X188450000Y-70550000D02*
X193250000Y-70550000D01*
X182250000Y-72500000D02*
X182250000Y-73500000D01*
X181750000Y-73000000D02*
X182750000Y-73000000D01*
X182250000Y-77500000D02*
X182250000Y-78500000D01*
X197450000Y-80450000D02*
X195750000Y-80450000D01*
X195750000Y-80450000D02*
X195750000Y-82150000D01*
X193250000Y-80450000D02*
X188450000Y-80450000D01*
X188450000Y-80450000D02*
X188450000Y-70550000D01*
X195750000Y-82150000D02*
X193250000Y-82150000D01*
X193250000Y-82150000D02*
X193250000Y-80450000D01*
%TO.C,J1*%
X195750000Y-99850000D02*
X195750000Y-101550000D01*
X193250000Y-99850000D02*
X195750000Y-99850000D01*
X197450000Y-101550000D02*
X197450000Y-111450000D01*
X195750000Y-101550000D02*
X197450000Y-101550000D01*
X193250000Y-101550000D02*
X193250000Y-99850000D01*
X188450000Y-101550000D02*
X193250000Y-101550000D01*
X182250000Y-103500000D02*
X182250000Y-104500000D01*
X181750000Y-104000000D02*
X182750000Y-104000000D01*
X182250000Y-108500000D02*
X182250000Y-109500000D01*
X197450000Y-111450000D02*
X195750000Y-111450000D01*
X195750000Y-111450000D02*
X195750000Y-113150000D01*
X193250000Y-111450000D02*
X188450000Y-111450000D01*
X188450000Y-111450000D02*
X188450000Y-101550000D01*
X195750000Y-113150000D02*
X193250000Y-113150000D01*
X193250000Y-113150000D02*
X193250000Y-111450000D01*
%TO.C,J5*%
X158000000Y-89700000D02*
X159000000Y-89700000D01*
X158500000Y-90200000D02*
X158500000Y-89200000D01*
X161100000Y-91050000D02*
X150400000Y-91050000D01*
X147650000Y-91050000D02*
X134000000Y-91050000D01*
X134000000Y-91050000D02*
X134000000Y-111850000D01*
X161100000Y-93200000D02*
X161100000Y-91050000D01*
X161100000Y-98850000D02*
X161100000Y-104050000D01*
X161100000Y-111850000D02*
X161100000Y-109700000D01*
X150400000Y-111850000D02*
X161100000Y-111850000D01*
X134000000Y-111850000D02*
X147650000Y-111850000D01*
X158500000Y-112700000D02*
X158500000Y-113700000D01*
%TO.C,J2*%
X195750000Y-84350000D02*
X195750000Y-86050000D01*
X193250000Y-84350000D02*
X195750000Y-84350000D01*
X197450000Y-86050000D02*
X197450000Y-95950000D01*
X195750000Y-86050000D02*
X197450000Y-86050000D01*
X193250000Y-86050000D02*
X193250000Y-84350000D01*
X188450000Y-86050000D02*
X193250000Y-86050000D01*
X182250000Y-88000000D02*
X182250000Y-89000000D01*
X181750000Y-88500000D02*
X182750000Y-88500000D01*
X182250000Y-93000000D02*
X182250000Y-94000000D01*
X197450000Y-95950000D02*
X195750000Y-95950000D01*
X195750000Y-95950000D02*
X195750000Y-97650000D01*
X193250000Y-95950000D02*
X188450000Y-95950000D01*
X188450000Y-95950000D02*
X188450000Y-86050000D01*
X195750000Y-97650000D02*
X193250000Y-97650000D01*
X193250000Y-97650000D02*
X193250000Y-95950000D01*
%TO.C,F4*%
X162360000Y-102835000D02*
X162360000Y-109565000D01*
X162360000Y-109565000D02*
X182170000Y-109565000D01*
X182170000Y-102835000D02*
X162360000Y-102835000D01*
X182170000Y-109565000D02*
X182170000Y-102835000D01*
%TO.C,F1*%
X167140000Y-85065000D02*
X167140000Y-78335000D01*
X167140000Y-78335000D02*
X147330000Y-78335000D01*
X147330000Y-85065000D02*
X167140000Y-85065000D01*
X147330000Y-78335000D02*
X147330000Y-85065000D01*
%TO.C,F5*%
X162360000Y-86635000D02*
X162360000Y-93365000D01*
X162360000Y-93365000D02*
X182170000Y-93365000D01*
X182170000Y-86635000D02*
X162360000Y-86635000D01*
X182170000Y-93365000D02*
X182170000Y-86635000D01*
%TO.C,F6*%
X162360000Y-70335000D02*
X162360000Y-77065000D01*
X162360000Y-77065000D02*
X182170000Y-77065000D01*
X182170000Y-70335000D02*
X162360000Y-70335000D01*
X182170000Y-77065000D02*
X182170000Y-70335000D01*
D13*
%TO.C,J4*%
X133729601Y-70933292D02*
X133729601Y-74125610D01*
X136729740Y-75526651D02*
X138022201Y-75526651D01*
X138022201Y-69532251D02*
X136729740Y-69532251D01*
X138022201Y-71241511D02*
X138022201Y-69532251D01*
X138022201Y-75526651D02*
X138022201Y-73817391D01*
D14*
X138581001Y-67754251D02*
G75*
G02*
X137819001Y-67754251I-381000J0D01*
G01*
X137819001Y-67754251D02*
G75*
G02*
X138581001Y-67754251I381000J0D01*
G01*
%TD*%
M02*
