%TF.GenerationSoftware,KiCad,Pcbnew,8.0.5*%
%TF.CreationDate,2026-02-12T00:50:06-07:00*%
%TF.ProjectId,SPEAR power junction,53504541-5220-4706-9f77-6572206a756e,rev?*%
%TF.SameCoordinates,Original*%
%TF.FileFunction,Copper,L2,Bot*%
%TF.FilePolarity,Positive*%
%FSLAX46Y46*%
G04 Gerber Fmt 4.6, Leading zero omitted, Abs format (unit mm)*
G04 Created by KiCad (PCBNEW 8.0.5) date 2026-02-12 00:50:06*
%MOMM*%
%LPD*%
G01*
G04 APERTURE LIST*
%TA.AperFunction,ComponentPad*%
%ADD10C,4.916000*%
%TD*%
%TA.AperFunction,ComponentPad*%
%ADD11R,4.916000X4.916000*%
%TD*%
%TA.AperFunction,ComponentPad*%
%ADD12O,2.600000X1.300000*%
%TD*%
%TA.AperFunction,ComponentPad*%
%ADD13C,2.400000*%
%TD*%
%TA.AperFunction,ComponentPad*%
%ADD14C,1.508000*%
%TD*%
%TA.AperFunction,ComponentPad*%
%ADD15R,2.550000X2.550000*%
%TD*%
%TA.AperFunction,ComponentPad*%
%ADD16C,2.550000*%
%TD*%
%TA.AperFunction,ViaPad*%
%ADD17C,0.600000*%
%TD*%
%TA.AperFunction,Conductor*%
%ADD18C,0.200000*%
%TD*%
G04 APERTURE END LIST*
D10*
%TO.P,J5,N,NEG*%
%TO.N,GND*%
X158400000Y-106900000D03*
D11*
%TO.P,J5,P,POS*%
%TO.N,Power*%
X158400000Y-96000000D03*
D12*
%TO.P,J5,S1,S1*%
%TO.N,unconnected-(J5-PadS1)*%
X149000000Y-92000000D03*
%TO.P,J5,S2,S2*%
%TO.N,unconnected-(J5-PadS2)*%
X149000000Y-110900000D03*
%TD*%
D13*
%TO.P,F1,1_1*%
%TO.N,Power*%
X163970000Y-83400000D03*
%TO.P,F1,1_2*%
X163970000Y-80000000D03*
%TO.P,F1,2_1*%
%TO.N,Net-(F1-Pad2_1)*%
X150500000Y-83400000D03*
%TO.P,F1,2_2*%
X150500000Y-80000000D03*
%TD*%
%TO.P,F4,1_1*%
%TO.N,Power*%
X165530000Y-104500000D03*
%TO.P,F4,1_2*%
X165530000Y-107900000D03*
%TO.P,F4,2_1*%
%TO.N,Net-(F4-Pad2_1)*%
X179000000Y-104500000D03*
%TO.P,F4,2_2*%
X179000000Y-107900000D03*
%TD*%
%TO.P,F5,1_1*%
%TO.N,Power*%
X165530000Y-88300000D03*
%TO.P,F5,1_2*%
X165530000Y-91700000D03*
%TO.P,F5,2_1*%
%TO.N,Net-(F5-Pad2_1)*%
X179000000Y-88300000D03*
%TO.P,F5,2_2*%
X179000000Y-91700000D03*
%TD*%
%TO.P,F6,1_1*%
%TO.N,Power*%
X165530000Y-72000000D03*
%TO.P,F6,1_2*%
X165530000Y-75400000D03*
%TO.P,F6,2_1*%
%TO.N,Net-(F6-Pad2_1)*%
X179000000Y-72000000D03*
%TO.P,F6,2_2*%
X179000000Y-75400000D03*
%TD*%
D14*
%TO.P,J1,S2,S2*%
%TO.N,unconnected-(J1-PadS2)*%
X194500000Y-101000000D03*
%TO.P,J1,S1,S1*%
%TO.N,unconnected-(J1-PadS1)*%
X194500000Y-112000000D03*
D15*
%TO.P,J1,P,P*%
%TO.N,Net-(F4-Pad2_1)*%
X184500000Y-104000000D03*
D16*
%TO.P,J1,N,N*%
%TO.N,GND*%
X184500000Y-109000000D03*
%TD*%
D14*
%TO.P,J2,S2,S2*%
%TO.N,unconnected-(J2-PadS2)*%
X194500000Y-85500000D03*
%TO.P,J2,S1,S1*%
%TO.N,unconnected-(J2-PadS1)*%
X194500000Y-96500000D03*
D15*
%TO.P,J2,P,P*%
%TO.N,Net-(F5-Pad2_1)*%
X184500000Y-88500000D03*
D16*
%TO.P,J2,N,N*%
%TO.N,GND*%
X184500000Y-93500000D03*
%TD*%
D14*
%TO.P,J3,S2,S2*%
%TO.N,unconnected-(J3-PadS2)*%
X194500000Y-70000000D03*
%TO.P,J3,S1,S1*%
%TO.N,unconnected-(J3-PadS1)*%
X194500000Y-81000000D03*
D15*
%TO.P,J3,P,P*%
%TO.N,Net-(F6-Pad2_1)*%
X184500000Y-73000000D03*
D16*
%TO.P,J3,N,N*%
%TO.N,GND*%
X184500000Y-78000000D03*
%TD*%
D17*
%TO.N,GND*%
X155000000Y-76500000D03*
%TD*%
D18*
%TO.N,GND*%
X155000000Y-76500000D02*
X156500000Y-78000000D01*
X156500000Y-78000000D02*
X184500000Y-78000000D01*
%TD*%
%TA.AperFunction,Conductor*%
%TO.N,GND*%
G36*
X168485956Y-64020185D02*
G01*
X168531711Y-64072989D01*
X168540534Y-64100309D01*
X168614704Y-64473194D01*
X168614707Y-64473205D01*
X168728810Y-64849354D01*
X168879230Y-65212499D01*
X168879232Y-65212504D01*
X169064511Y-65559137D01*
X169064522Y-65559155D01*
X169282887Y-65885960D01*
X169282897Y-65885974D01*
X169532254Y-66189817D01*
X169810182Y-66467745D01*
X169810187Y-66467749D01*
X169810188Y-66467750D01*
X170114031Y-66717107D01*
X170440851Y-66935482D01*
X170440860Y-66935487D01*
X170440862Y-66935488D01*
X170787495Y-67120767D01*
X170787497Y-67120767D01*
X170787503Y-67120771D01*
X171150647Y-67271190D01*
X171526785Y-67385290D01*
X171526791Y-67385291D01*
X171526794Y-67385292D01*
X171526805Y-67385295D01*
X171912297Y-67461973D01*
X172303468Y-67500500D01*
X172303471Y-67500500D01*
X172696529Y-67500500D01*
X172696532Y-67500500D01*
X173087703Y-67461973D01*
X173162748Y-67447045D01*
X173473194Y-67385295D01*
X173473205Y-67385292D01*
X173473205Y-67385291D01*
X173473215Y-67385290D01*
X173849353Y-67271190D01*
X174212497Y-67120771D01*
X174559149Y-66935482D01*
X174885969Y-66717107D01*
X175189812Y-66467750D01*
X175467750Y-66189812D01*
X175717107Y-65885969D01*
X175935482Y-65559149D01*
X176120771Y-65212497D01*
X176271190Y-64849353D01*
X176385290Y-64473215D01*
X176385292Y-64473205D01*
X176385295Y-64473194D01*
X176459466Y-64100309D01*
X176491851Y-64038398D01*
X176552566Y-64003824D01*
X176581083Y-64000500D01*
X197375500Y-64000500D01*
X197442539Y-64020185D01*
X197488294Y-64072989D01*
X197499500Y-64124500D01*
X197499500Y-114375500D01*
X197479815Y-114442539D01*
X197427011Y-114488294D01*
X197375500Y-114499500D01*
X177581083Y-114499500D01*
X177514044Y-114479815D01*
X177468289Y-114427011D01*
X177459466Y-114399691D01*
X177385295Y-114026805D01*
X177385292Y-114026794D01*
X177385291Y-114026791D01*
X177385290Y-114026785D01*
X177271190Y-113650647D01*
X177120771Y-113287503D01*
X176935482Y-112940851D01*
X176717107Y-112614031D01*
X176467750Y-112310188D01*
X176467749Y-112310187D01*
X176467745Y-112310182D01*
X176189817Y-112032254D01*
X176150512Y-111999997D01*
X193240708Y-111999997D01*
X193240708Y-112000002D01*
X193255477Y-112168822D01*
X193259839Y-112218674D01*
X193316653Y-112430703D01*
X193316654Y-112430706D01*
X193316655Y-112430708D01*
X193409419Y-112629642D01*
X193409423Y-112629650D01*
X193535322Y-112809452D01*
X193535327Y-112809458D01*
X193690541Y-112964672D01*
X193690547Y-112964677D01*
X193870349Y-113090576D01*
X193870351Y-113090577D01*
X193870354Y-113090579D01*
X194069297Y-113183347D01*
X194281326Y-113240161D01*
X194437521Y-113253826D01*
X194499998Y-113259292D01*
X194500000Y-113259292D01*
X194500002Y-113259292D01*
X194554668Y-113254509D01*
X194718674Y-113240161D01*
X194930703Y-113183347D01*
X195129646Y-113090579D01*
X195309457Y-112964674D01*
X195464674Y-112809457D01*
X195590579Y-112629646D01*
X195683347Y-112430703D01*
X195740161Y-112218674D01*
X195757352Y-112022171D01*
X195759292Y-112000002D01*
X195759292Y-111999997D01*
X195740298Y-111782893D01*
X195740161Y-111781326D01*
X195683347Y-111569297D01*
X195590579Y-111370354D01*
X195590577Y-111370351D01*
X195590576Y-111370349D01*
X195464677Y-111190547D01*
X195464672Y-111190541D01*
X195309458Y-111035327D01*
X195309452Y-111035322D01*
X195129650Y-110909423D01*
X195129642Y-110909419D01*
X194930708Y-110816655D01*
X194930706Y-110816654D01*
X194930703Y-110816653D01*
X194775251Y-110774999D01*
X194718675Y-110759839D01*
X194718668Y-110759838D01*
X194500002Y-110740708D01*
X194499998Y-110740708D01*
X194281331Y-110759838D01*
X194281324Y-110759839D01*
X194158902Y-110792642D01*
X194069297Y-110816653D01*
X194069295Y-110816653D01*
X194069291Y-110816655D01*
X193870357Y-110909419D01*
X193870349Y-110909423D01*
X193690547Y-111035322D01*
X193690541Y-111035327D01*
X193535327Y-111190541D01*
X193535322Y-111190547D01*
X193409423Y-111370349D01*
X193409419Y-111370357D01*
X193316655Y-111569291D01*
X193259839Y-111781324D01*
X193259838Y-111781331D01*
X193240708Y-111999997D01*
X176150512Y-111999997D01*
X175885974Y-111782897D01*
X175885973Y-111782896D01*
X175885969Y-111782893D01*
X175559149Y-111564518D01*
X175559144Y-111564515D01*
X175559137Y-111564511D01*
X175212504Y-111379232D01*
X175212499Y-111379230D01*
X175191070Y-111370354D01*
X175106135Y-111335172D01*
X174849354Y-111228810D01*
X174473205Y-111114707D01*
X174473194Y-111114704D01*
X174087702Y-111038026D01*
X173793089Y-111009010D01*
X173696532Y-110999500D01*
X173303468Y-110999500D01*
X173214251Y-111008287D01*
X172912297Y-111038026D01*
X172526805Y-111114704D01*
X172526794Y-111114707D01*
X172150645Y-111228810D01*
X171787500Y-111379230D01*
X171787495Y-111379232D01*
X171440862Y-111564511D01*
X171440844Y-111564522D01*
X171114039Y-111782887D01*
X171114025Y-111782897D01*
X170810182Y-112032254D01*
X170532254Y-112310182D01*
X170282897Y-112614025D01*
X170282887Y-112614039D01*
X170064522Y-112940844D01*
X170064511Y-112940862D01*
X169879232Y-113287495D01*
X169879230Y-113287500D01*
X169728810Y-113650645D01*
X169614707Y-114026794D01*
X169614704Y-114026805D01*
X169540534Y-114399691D01*
X169508149Y-114461602D01*
X169447434Y-114496176D01*
X169418917Y-114499500D01*
X133624500Y-114499500D01*
X133557461Y-114479815D01*
X133511706Y-114427011D01*
X133500500Y-114375500D01*
X133500500Y-110809448D01*
X147199500Y-110809448D01*
X147199500Y-110990551D01*
X147227829Y-111169410D01*
X147283787Y-111341636D01*
X147283788Y-111341639D01*
X147366006Y-111502997D01*
X147472441Y-111649494D01*
X147472445Y-111649499D01*
X147600500Y-111777554D01*
X147600505Y-111777558D01*
X147607854Y-111782897D01*
X147747006Y-111883996D01*
X147852484Y-111937740D01*
X147908360Y-111966211D01*
X147908363Y-111966212D01*
X147994476Y-111994191D01*
X148080591Y-112022171D01*
X148163429Y-112035291D01*
X148259449Y-112050500D01*
X148259454Y-112050500D01*
X149740551Y-112050500D01*
X149827259Y-112036765D01*
X149919409Y-112022171D01*
X150091639Y-111966211D01*
X150252994Y-111883996D01*
X150399501Y-111777553D01*
X150527553Y-111649501D01*
X150633996Y-111502994D01*
X150716211Y-111341639D01*
X150772171Y-111169409D01*
X150792980Y-111038026D01*
X150800500Y-110990551D01*
X150800500Y-110809448D01*
X150776343Y-110656932D01*
X150772171Y-110630591D01*
X150716211Y-110458361D01*
X150716211Y-110458360D01*
X150687740Y-110402484D01*
X150633996Y-110297006D01*
X150620396Y-110278287D01*
X150527558Y-110150505D01*
X150527554Y-110150500D01*
X150399499Y-110022445D01*
X150399494Y-110022441D01*
X150252997Y-109916006D01*
X150252996Y-109916005D01*
X150252994Y-109916004D01*
X150201300Y-109889664D01*
X150091639Y-109833788D01*
X150091636Y-109833787D01*
X149919410Y-109777829D01*
X149740551Y-109749500D01*
X149740546Y-109749500D01*
X148259454Y-109749500D01*
X148259449Y-109749500D01*
X148080589Y-109777829D01*
X147908363Y-109833787D01*
X147908360Y-109833788D01*
X147747002Y-109916006D01*
X147600505Y-110022441D01*
X147600500Y-110022445D01*
X147472445Y-110150500D01*
X147472441Y-110150505D01*
X147366006Y-110297002D01*
X147283788Y-110458360D01*
X147283787Y-110458363D01*
X147227829Y-110630589D01*
X147199500Y-110809448D01*
X133500500Y-110809448D01*
X133500500Y-106899996D01*
X155436987Y-106899996D01*
X155436987Y-106900003D01*
X155457022Y-107243985D01*
X155457023Y-107243996D01*
X155516851Y-107583300D01*
X155516853Y-107583309D01*
X155615679Y-107913411D01*
X155752151Y-108229789D01*
X155752157Y-108229802D01*
X155924436Y-108528197D01*
X155924443Y-108528209D01*
X156130192Y-108804579D01*
X156130198Y-108804585D01*
X156135859Y-108810586D01*
X156855739Y-108090705D01*
X156930767Y-108188483D01*
X157111517Y-108369233D01*
X157209292Y-108444258D01*
X156492629Y-109160921D01*
X156492630Y-109160922D01*
X156630610Y-109276700D01*
X156630616Y-109276705D01*
X156918483Y-109466039D01*
X157226411Y-109620685D01*
X157550191Y-109738532D01*
X157550206Y-109738537D01*
X157885462Y-109817995D01*
X157885477Y-109817997D01*
X158227722Y-109857999D01*
X158227723Y-109858000D01*
X158572277Y-109858000D01*
X158572277Y-109857999D01*
X158914522Y-109817997D01*
X158914537Y-109817995D01*
X159249793Y-109738537D01*
X159249808Y-109738532D01*
X159573588Y-109620685D01*
X159881516Y-109466039D01*
X160169383Y-109276705D01*
X160169391Y-109276699D01*
X160307368Y-109160922D01*
X160307369Y-109160921D01*
X159590706Y-108444259D01*
X159688483Y-108369233D01*
X159869233Y-108188483D01*
X159944259Y-108090707D01*
X160664139Y-108810587D01*
X160669798Y-108804588D01*
X160669801Y-108804585D01*
X160875561Y-108528200D01*
X160875563Y-108528197D01*
X161047842Y-108229802D01*
X161047848Y-108229789D01*
X161184320Y-107913411D01*
X161283146Y-107583309D01*
X161283148Y-107583300D01*
X161342976Y-107243996D01*
X161342977Y-107243985D01*
X161363013Y-106900003D01*
X161363013Y-106899996D01*
X161342977Y-106556014D01*
X161342976Y-106556003D01*
X161283148Y-106216699D01*
X161283146Y-106216690D01*
X161184320Y-105886588D01*
X161047848Y-105570210D01*
X161047842Y-105570197D01*
X160875563Y-105271802D01*
X160875556Y-105271790D01*
X160669807Y-104995420D01*
X160669801Y-104995414D01*
X160664139Y-104989411D01*
X159944258Y-105709292D01*
X159869233Y-105611517D01*
X159688483Y-105430767D01*
X159590706Y-105355740D01*
X160307369Y-104639077D01*
X160307368Y-104639076D01*
X160169389Y-104523299D01*
X160169383Y-104523294D01*
X160133959Y-104499995D01*
X163824732Y-104499995D01*
X163824732Y-104500004D01*
X163843777Y-104754154D01*
X163898844Y-104995420D01*
X163900492Y-105002637D01*
X163993607Y-105239888D01*
X164121041Y-105460612D01*
X164279950Y-105659877D01*
X164466783Y-105833232D01*
X164677366Y-105976805D01*
X164677371Y-105976807D01*
X164677372Y-105976808D01*
X164677374Y-105976809D01*
X164908846Y-106088280D01*
X164960706Y-106135102D01*
X164979019Y-106202529D01*
X164957971Y-106269153D01*
X164908846Y-106311720D01*
X164677374Y-106423190D01*
X164677372Y-106423191D01*
X164466782Y-106566768D01*
X164279952Y-106740121D01*
X164279950Y-106740123D01*
X164121041Y-106939388D01*
X163993608Y-107160109D01*
X163900492Y-107397362D01*
X163900490Y-107397369D01*
X163843777Y-107645845D01*
X163824732Y-107899995D01*
X163824732Y-107900004D01*
X163843777Y-108154154D01*
X163892867Y-108369233D01*
X163900492Y-108402637D01*
X163993607Y-108639888D01*
X164121041Y-108860612D01*
X164279950Y-109059877D01*
X164466783Y-109233232D01*
X164677366Y-109376805D01*
X164677371Y-109376807D01*
X164677372Y-109376808D01*
X164677373Y-109376809D01*
X164799328Y-109435538D01*
X164906992Y-109487387D01*
X164906993Y-109487387D01*
X164906996Y-109487389D01*
X165150542Y-109562513D01*
X165402565Y-109600500D01*
X165657435Y-109600500D01*
X165909458Y-109562513D01*
X166153004Y-109487389D01*
X166382634Y-109376805D01*
X166593217Y-109233232D01*
X166780050Y-109059877D01*
X166938959Y-108860612D01*
X167066393Y-108639888D01*
X167159508Y-108402637D01*
X167216222Y-108154157D01*
X167232747Y-107933638D01*
X167235268Y-107900004D01*
X167235268Y-107899995D01*
X167216222Y-107645845D01*
X167189359Y-107528152D01*
X167159508Y-107397363D01*
X167066393Y-107160112D01*
X166938959Y-106939388D01*
X166780050Y-106740123D01*
X166593217Y-106566768D01*
X166382634Y-106423195D01*
X166382630Y-106423193D01*
X166382627Y-106423191D01*
X166382626Y-106423190D01*
X166210407Y-106340255D01*
X166153004Y-106312611D01*
X166153001Y-106312610D01*
X166151153Y-106311720D01*
X166099293Y-106264898D01*
X166080980Y-106197471D01*
X166102028Y-106130847D01*
X166151153Y-106088280D01*
X166153001Y-106087389D01*
X166153004Y-106087389D01*
X166382634Y-105976805D01*
X166593217Y-105833232D01*
X166780050Y-105659877D01*
X166938959Y-105460612D01*
X167066393Y-105239888D01*
X167159508Y-105002637D01*
X167216222Y-104754157D01*
X167233522Y-104523299D01*
X167235268Y-104500004D01*
X167235268Y-104499995D01*
X177294732Y-104499995D01*
X177294732Y-104500004D01*
X177313777Y-104754154D01*
X177368844Y-104995420D01*
X177370492Y-105002637D01*
X177463607Y-105239888D01*
X177591041Y-105460612D01*
X177749950Y-105659877D01*
X177936783Y-105833232D01*
X178147366Y-105976805D01*
X178147371Y-105976807D01*
X178147372Y-105976808D01*
X178147374Y-105976809D01*
X178378846Y-106088280D01*
X178430706Y-106135102D01*
X178449019Y-106202529D01*
X178427971Y-106269153D01*
X178378846Y-106311720D01*
X178147374Y-106423190D01*
X178147372Y-106423191D01*
X177936782Y-106566768D01*
X177749952Y-106740121D01*
X177749950Y-106740123D01*
X177591041Y-106939388D01*
X177463608Y-107160109D01*
X177370492Y-107397362D01*
X177370490Y-107397369D01*
X177313777Y-107645845D01*
X177294732Y-107899995D01*
X177294732Y-107900004D01*
X177313777Y-108154154D01*
X177362867Y-108369233D01*
X177370492Y-108402637D01*
X177463607Y-108639888D01*
X177591041Y-108860612D01*
X177749950Y-109059877D01*
X177936783Y-109233232D01*
X178147366Y-109376805D01*
X178147371Y-109376807D01*
X178147372Y-109376808D01*
X178147373Y-109376809D01*
X178269328Y-109435538D01*
X178376992Y-109487387D01*
X178376993Y-109487387D01*
X178376996Y-109487389D01*
X178620542Y-109562513D01*
X178872565Y-109600500D01*
X179127435Y-109600500D01*
X179379458Y-109562513D01*
X179623004Y-109487389D01*
X179852634Y-109376805D01*
X180063217Y-109233232D01*
X180250050Y-109059877D01*
X180297804Y-108999995D01*
X182720023Y-108999995D01*
X182720023Y-109000004D01*
X182739903Y-109265290D01*
X182739903Y-109265292D01*
X182799098Y-109524643D01*
X182799104Y-109524662D01*
X182896296Y-109772303D01*
X183029316Y-110002700D01*
X183080083Y-110066361D01*
X183080084Y-110066361D01*
X183745884Y-109400560D01*
X183746740Y-109402626D01*
X183839762Y-109541844D01*
X183958156Y-109660238D01*
X184097374Y-109753260D01*
X184099437Y-109754114D01*
X183432840Y-110420711D01*
X183610011Y-110541504D01*
X183610015Y-110541506D01*
X183849695Y-110656931D01*
X183849699Y-110656932D01*
X184103909Y-110735346D01*
X184103915Y-110735347D01*
X184366976Y-110774999D01*
X184366983Y-110775000D01*
X184633017Y-110775000D01*
X184633023Y-110774999D01*
X184896084Y-110735347D01*
X184896090Y-110735346D01*
X185150299Y-110656933D01*
X185389992Y-110541503D01*
X185567158Y-110420711D01*
X184900562Y-109754114D01*
X184902626Y-109753260D01*
X185041844Y-109660238D01*
X185160238Y-109541844D01*
X185253260Y-109402626D01*
X185254114Y-109400561D01*
X185919914Y-110066361D01*
X185919915Y-110066360D01*
X185970679Y-110002706D01*
X185970686Y-110002695D01*
X186103703Y-109772303D01*
X186200895Y-109524662D01*
X186200901Y-109524643D01*
X186260096Y-109265292D01*
X186260096Y-109265290D01*
X186279977Y-109000004D01*
X186279977Y-108999995D01*
X186260096Y-108734709D01*
X186260096Y-108734707D01*
X186200901Y-108475356D01*
X186200895Y-108475337D01*
X186103703Y-108227696D01*
X185970683Y-107997299D01*
X185919915Y-107933637D01*
X185254114Y-108599437D01*
X185253260Y-108597374D01*
X185160238Y-108458156D01*
X185041844Y-108339762D01*
X184902626Y-108246740D01*
X184900561Y-108245884D01*
X185567158Y-107579287D01*
X185389984Y-107458492D01*
X185150299Y-107343066D01*
X184896090Y-107264653D01*
X184896084Y-107264652D01*
X184633023Y-107225000D01*
X184366976Y-107225000D01*
X184103915Y-107264652D01*
X184103909Y-107264653D01*
X183849699Y-107343067D01*
X183849695Y-107343068D01*
X183610015Y-107458493D01*
X183610011Y-107458495D01*
X183432840Y-107579287D01*
X184099438Y-108245884D01*
X184097374Y-108246740D01*
X183958156Y-108339762D01*
X183839762Y-108458156D01*
X183746740Y-108597374D01*
X183745884Y-108599438D01*
X183080084Y-107933638D01*
X183029314Y-107997302D01*
X182896296Y-108227696D01*
X182799104Y-108475337D01*
X182799098Y-108475356D01*
X182739903Y-108734707D01*
X182739903Y-108734709D01*
X182720023Y-108999995D01*
X180297804Y-108999995D01*
X180408959Y-108860612D01*
X180536393Y-108639888D01*
X180629508Y-108402637D01*
X180686222Y-108154157D01*
X180702747Y-107933638D01*
X180705268Y-107900004D01*
X180705268Y-107899995D01*
X180686222Y-107645845D01*
X180659359Y-107528152D01*
X180629508Y-107397363D01*
X180536393Y-107160112D01*
X180408959Y-106939388D01*
X180250050Y-106740123D01*
X180063217Y-106566768D01*
X179852634Y-106423195D01*
X179852630Y-106423193D01*
X179852627Y-106423191D01*
X179852626Y-106423190D01*
X179680407Y-106340255D01*
X179623004Y-106312611D01*
X179623001Y-106312610D01*
X179621153Y-106311720D01*
X179569293Y-106264898D01*
X179550980Y-106197471D01*
X179572028Y-106130847D01*
X179621153Y-106088280D01*
X179623001Y-106087389D01*
X179623004Y-106087389D01*
X179852634Y-105976805D01*
X180063217Y-105833232D01*
X180250050Y-105659877D01*
X180408959Y-105460612D01*
X180536393Y-105239888D01*
X180629508Y-105002637D01*
X180686222Y-104754157D01*
X180703522Y-104523299D01*
X180705268Y-104500004D01*
X180705268Y-104499995D01*
X180686222Y-104245845D01*
X180629509Y-103997369D01*
X180629508Y-103997363D01*
X180536393Y-103760112D01*
X180408959Y-103539388D01*
X180250050Y-103340123D01*
X180063217Y-103166768D01*
X179852634Y-103023195D01*
X179852630Y-103023193D01*
X179852627Y-103023191D01*
X179852626Y-103023190D01*
X179623006Y-102912612D01*
X179623008Y-102912612D01*
X179379466Y-102837489D01*
X179379462Y-102837488D01*
X179379458Y-102837487D01*
X179258231Y-102819214D01*
X179127440Y-102799500D01*
X179127435Y-102799500D01*
X178872565Y-102799500D01*
X178872559Y-102799500D01*
X178715609Y-102823157D01*
X178620542Y-102837487D01*
X178620539Y-102837488D01*
X178620533Y-102837489D01*
X178376992Y-102912612D01*
X178147373Y-103023190D01*
X178147372Y-103023191D01*
X177936782Y-103166768D01*
X177749952Y-103340121D01*
X177749950Y-103340123D01*
X177591041Y-103539388D01*
X177463608Y-103760109D01*
X177370492Y-103997362D01*
X177370490Y-103997369D01*
X177313777Y-104245845D01*
X177294732Y-104499995D01*
X167235268Y-104499995D01*
X167216222Y-104245845D01*
X167159509Y-103997369D01*
X167159508Y-103997363D01*
X167066393Y-103760112D01*
X166938959Y-103539388D01*
X166780050Y-103340123D01*
X166593217Y-103166768D01*
X166382634Y-103023195D01*
X166382630Y-103023193D01*
X166382627Y-103023191D01*
X166382626Y-103023190D01*
X166153006Y-102912612D01*
X166153008Y-102912612D01*
X165909466Y-102837489D01*
X165909462Y-102837488D01*
X165909458Y-102837487D01*
X165788231Y-102819214D01*
X165657440Y-102799500D01*
X165657435Y-102799500D01*
X165402565Y-102799500D01*
X165402559Y-102799500D01*
X165245609Y-102823157D01*
X165150542Y-102837487D01*
X165150539Y-102837488D01*
X165150533Y-102837489D01*
X164906992Y-102912612D01*
X164677373Y-103023190D01*
X164677372Y-103023191D01*
X164466782Y-103166768D01*
X164279952Y-103340121D01*
X164279950Y-103340123D01*
X164121041Y-103539388D01*
X163993608Y-103760109D01*
X163900492Y-103997362D01*
X163900490Y-103997369D01*
X163843777Y-104245845D01*
X163824732Y-104499995D01*
X160133959Y-104499995D01*
X159881516Y-104333960D01*
X159573588Y-104179314D01*
X159249808Y-104061467D01*
X159249793Y-104061462D01*
X158914537Y-103982004D01*
X158914522Y-103982002D01*
X158572277Y-103942000D01*
X158227723Y-103942000D01*
X157885477Y-103982002D01*
X157885462Y-103982004D01*
X157550206Y-104061462D01*
X157550191Y-104061467D01*
X157226411Y-104179314D01*
X156918483Y-104333960D01*
X156630620Y-104523291D01*
X156630615Y-104523295D01*
X156492629Y-104639076D01*
X157209293Y-105355740D01*
X157111517Y-105430767D01*
X156930767Y-105611517D01*
X156855740Y-105709293D01*
X156135859Y-104989412D01*
X156135858Y-104989412D01*
X156130198Y-104995413D01*
X155924436Y-105271802D01*
X155752157Y-105570197D01*
X155752151Y-105570210D01*
X155615679Y-105886588D01*
X155516853Y-106216690D01*
X155516851Y-106216699D01*
X155457023Y-106556003D01*
X155457022Y-106556014D01*
X155436987Y-106899996D01*
X133500500Y-106899996D01*
X133500500Y-102677135D01*
X182724500Y-102677135D01*
X182724500Y-105322870D01*
X182724501Y-105322876D01*
X182730908Y-105382483D01*
X182781202Y-105517328D01*
X182781206Y-105517335D01*
X182867452Y-105632544D01*
X182867455Y-105632547D01*
X182982664Y-105718793D01*
X182982671Y-105718797D01*
X183117517Y-105769091D01*
X183117516Y-105769091D01*
X183124444Y-105769835D01*
X183177127Y-105775500D01*
X185822872Y-105775499D01*
X185882483Y-105769091D01*
X186017331Y-105718796D01*
X186132546Y-105632546D01*
X186218796Y-105517331D01*
X186269091Y-105382483D01*
X186275500Y-105322873D01*
X186275499Y-102677128D01*
X186269091Y-102617517D01*
X186218796Y-102482669D01*
X186218795Y-102482668D01*
X186218793Y-102482664D01*
X186132547Y-102367455D01*
X186132544Y-102367452D01*
X186017335Y-102281206D01*
X186017328Y-102281202D01*
X185882482Y-102230908D01*
X185882483Y-102230908D01*
X185822883Y-102224501D01*
X185822881Y-102224500D01*
X185822873Y-102224500D01*
X185822864Y-102224500D01*
X183177129Y-102224500D01*
X183177123Y-102224501D01*
X183117516Y-102230908D01*
X182982671Y-102281202D01*
X182982664Y-102281206D01*
X182867455Y-102367452D01*
X182867452Y-102367455D01*
X182781206Y-102482664D01*
X182781202Y-102482671D01*
X182730908Y-102617517D01*
X182724501Y-102677116D01*
X182724501Y-102677123D01*
X182724500Y-102677135D01*
X133500500Y-102677135D01*
X133500500Y-100999997D01*
X193240708Y-100999997D01*
X193240708Y-101000000D01*
X193259839Y-101218674D01*
X193316653Y-101430703D01*
X193316654Y-101430706D01*
X193316655Y-101430708D01*
X193409419Y-101629642D01*
X193409423Y-101629650D01*
X193535322Y-101809452D01*
X193535327Y-101809458D01*
X193690541Y-101964672D01*
X193690547Y-101964677D01*
X193870349Y-102090576D01*
X193870351Y-102090577D01*
X193870354Y-102090579D01*
X194069297Y-102183347D01*
X194281326Y-102240161D01*
X194437521Y-102253826D01*
X194499998Y-102259292D01*
X194500000Y-102259292D01*
X194500002Y-102259292D01*
X194554668Y-102254509D01*
X194718674Y-102240161D01*
X194930703Y-102183347D01*
X195129646Y-102090579D01*
X195309457Y-101964674D01*
X195464674Y-101809457D01*
X195590579Y-101629646D01*
X195683347Y-101430703D01*
X195740161Y-101218674D01*
X195759292Y-101000000D01*
X195740161Y-100781326D01*
X195683347Y-100569297D01*
X195590579Y-100370354D01*
X195590577Y-100370351D01*
X195590576Y-100370349D01*
X195464677Y-100190547D01*
X195464672Y-100190541D01*
X195309458Y-100035327D01*
X195309452Y-100035322D01*
X195129650Y-99909423D01*
X195129642Y-99909419D01*
X194930708Y-99816655D01*
X194930706Y-99816654D01*
X194930703Y-99816653D01*
X194779885Y-99776240D01*
X194718675Y-99759839D01*
X194718668Y-99759838D01*
X194500002Y-99740708D01*
X194499998Y-99740708D01*
X194281331Y-99759838D01*
X194281324Y-99759839D01*
X194158902Y-99792642D01*
X194069297Y-99816653D01*
X194069295Y-99816653D01*
X194069291Y-99816655D01*
X193870357Y-99909419D01*
X193870349Y-99909423D01*
X193690547Y-100035322D01*
X193690541Y-100035327D01*
X193535327Y-100190541D01*
X193535322Y-100190547D01*
X193409423Y-100370349D01*
X193409419Y-100370357D01*
X193316655Y-100569291D01*
X193259839Y-100781324D01*
X193259838Y-100781331D01*
X193240708Y-100999997D01*
X133500500Y-100999997D01*
X133500500Y-93494135D01*
X155441500Y-93494135D01*
X155441500Y-98505870D01*
X155441501Y-98505876D01*
X155447908Y-98565483D01*
X155498202Y-98700328D01*
X155498206Y-98700335D01*
X155584452Y-98815544D01*
X155584455Y-98815547D01*
X155699664Y-98901793D01*
X155699671Y-98901797D01*
X155834517Y-98952091D01*
X155834516Y-98952091D01*
X155841444Y-98952835D01*
X155894127Y-98958500D01*
X160905872Y-98958499D01*
X160965483Y-98952091D01*
X161100331Y-98901796D01*
X161215546Y-98815546D01*
X161301796Y-98700331D01*
X161352091Y-98565483D01*
X161358500Y-98505873D01*
X161358500Y-96499997D01*
X193240708Y-96499997D01*
X193240708Y-96500000D01*
X193259839Y-96718674D01*
X193316653Y-96930703D01*
X193316654Y-96930706D01*
X193316655Y-96930708D01*
X193409419Y-97129642D01*
X193409423Y-97129650D01*
X193535322Y-97309452D01*
X193535327Y-97309458D01*
X193690541Y-97464672D01*
X193690547Y-97464677D01*
X193870349Y-97590576D01*
X193870351Y-97590577D01*
X193870354Y-97590579D01*
X194069297Y-97683347D01*
X194281326Y-97740161D01*
X194437521Y-97753826D01*
X194499998Y-97759292D01*
X194500000Y-97759292D01*
X194500002Y-97759292D01*
X194554668Y-97754509D01*
X194718674Y-97740161D01*
X194930703Y-97683347D01*
X195129646Y-97590579D01*
X195309457Y-97464674D01*
X195464674Y-97309457D01*
X195590579Y-97129646D01*
X195683347Y-96930703D01*
X195740161Y-96718674D01*
X195759292Y-96500000D01*
X195740161Y-96281326D01*
X195683347Y-96069297D01*
X195590579Y-95870354D01*
X195590577Y-95870351D01*
X195590576Y-95870349D01*
X195464677Y-95690547D01*
X195464672Y-95690541D01*
X195309458Y-95535327D01*
X195309452Y-95535322D01*
X195129650Y-95409423D01*
X195129642Y-95409419D01*
X194930708Y-95316655D01*
X194930706Y-95316654D01*
X194930703Y-95316653D01*
X194775251Y-95274999D01*
X194718675Y-95259839D01*
X194718668Y-95259838D01*
X194500002Y-95240708D01*
X194499998Y-95240708D01*
X194281331Y-95259838D01*
X194281324Y-95259839D01*
X194158902Y-95292642D01*
X194069297Y-95316653D01*
X194069295Y-95316653D01*
X194069291Y-95316655D01*
X193870357Y-95409419D01*
X193870349Y-95409423D01*
X193690547Y-95535322D01*
X193690541Y-95535327D01*
X193535327Y-95690541D01*
X193535322Y-95690547D01*
X193409423Y-95870349D01*
X193409419Y-95870357D01*
X193316655Y-96069291D01*
X193259839Y-96281324D01*
X193259838Y-96281331D01*
X193240708Y-96499997D01*
X161358500Y-96499997D01*
X161358499Y-93499995D01*
X182720023Y-93499995D01*
X182720023Y-93500004D01*
X182739903Y-93765290D01*
X182739903Y-93765292D01*
X182799098Y-94024643D01*
X182799104Y-94024662D01*
X182896296Y-94272303D01*
X183029316Y-94502700D01*
X183080083Y-94566361D01*
X183080084Y-94566361D01*
X183745884Y-93900560D01*
X183746740Y-93902626D01*
X183839762Y-94041844D01*
X183958156Y-94160238D01*
X184097374Y-94253260D01*
X184099437Y-94254114D01*
X183432840Y-94920711D01*
X183610011Y-95041504D01*
X183610015Y-95041506D01*
X183849695Y-95156931D01*
X183849699Y-95156932D01*
X184103909Y-95235346D01*
X184103915Y-95235347D01*
X184366976Y-95274999D01*
X184366983Y-95275000D01*
X184633017Y-95275000D01*
X184633023Y-95274999D01*
X184896084Y-95235347D01*
X184896090Y-95235346D01*
X185150299Y-95156933D01*
X185389992Y-95041503D01*
X185567158Y-94920711D01*
X184900562Y-94254114D01*
X184902626Y-94253260D01*
X185041844Y-94160238D01*
X185160238Y-94041844D01*
X185253260Y-93902626D01*
X185254114Y-93900561D01*
X185919914Y-94566361D01*
X185919915Y-94566360D01*
X185970679Y-94502706D01*
X185970686Y-94502695D01*
X186103703Y-94272303D01*
X186200895Y-94024662D01*
X186200901Y-94024643D01*
X186260096Y-93765292D01*
X186260096Y-93765290D01*
X186279977Y-93500004D01*
X186279977Y-93499995D01*
X186260096Y-93234709D01*
X186260096Y-93234707D01*
X186200901Y-92975356D01*
X186200895Y-92975337D01*
X186103703Y-92727696D01*
X185970683Y-92497299D01*
X185919915Y-92433637D01*
X185254114Y-93099437D01*
X185253260Y-93097374D01*
X185160238Y-92958156D01*
X185041844Y-92839762D01*
X184902626Y-92746740D01*
X184900561Y-92745884D01*
X185567158Y-92079287D01*
X185389984Y-91958492D01*
X185150299Y-91843066D01*
X184896090Y-91764653D01*
X184896084Y-91764652D01*
X184633023Y-91725000D01*
X184366976Y-91725000D01*
X184103915Y-91764652D01*
X184103909Y-91764653D01*
X183849699Y-91843067D01*
X183849695Y-91843068D01*
X183610015Y-91958493D01*
X183610011Y-91958495D01*
X183432840Y-92079287D01*
X184099438Y-92745884D01*
X184097374Y-92746740D01*
X183958156Y-92839762D01*
X183839762Y-92958156D01*
X183746740Y-93097374D01*
X183745884Y-93099438D01*
X183080084Y-92433638D01*
X183029314Y-92497302D01*
X182896296Y-92727696D01*
X182799104Y-92975337D01*
X182799098Y-92975356D01*
X182739903Y-93234707D01*
X182739903Y-93234709D01*
X182720023Y-93499995D01*
X161358499Y-93499995D01*
X161358499Y-93494128D01*
X161352091Y-93434517D01*
X161339403Y-93400500D01*
X161301797Y-93299671D01*
X161301793Y-93299664D01*
X161215547Y-93184455D01*
X161215544Y-93184452D01*
X161100335Y-93098206D01*
X161100328Y-93098202D01*
X160965482Y-93047908D01*
X160965483Y-93047908D01*
X160905883Y-93041501D01*
X160905881Y-93041500D01*
X160905873Y-93041500D01*
X160905864Y-93041500D01*
X155894129Y-93041500D01*
X155894123Y-93041501D01*
X155834516Y-93047908D01*
X155699671Y-93098202D01*
X155699664Y-93098206D01*
X155584455Y-93184452D01*
X155584452Y-93184455D01*
X155498206Y-93299664D01*
X155498202Y-93299671D01*
X155447908Y-93434517D01*
X155441501Y-93494116D01*
X155441501Y-93494123D01*
X155441500Y-93494135D01*
X133500500Y-93494135D01*
X133500500Y-91909448D01*
X147199500Y-91909448D01*
X147199500Y-92090551D01*
X147227829Y-92269410D01*
X147283787Y-92441636D01*
X147283788Y-92441639D01*
X147366006Y-92602997D01*
X147472441Y-92749494D01*
X147472445Y-92749499D01*
X147600500Y-92877554D01*
X147600505Y-92877558D01*
X147711440Y-92958156D01*
X147747006Y-92983996D01*
X147852484Y-93037740D01*
X147908360Y-93066211D01*
X147908363Y-93066212D01*
X147994476Y-93094191D01*
X148080591Y-93122171D01*
X148163429Y-93135291D01*
X148259449Y-93150500D01*
X148259454Y-93150500D01*
X149740551Y-93150500D01*
X149827259Y-93136765D01*
X149919409Y-93122171D01*
X150091639Y-93066211D01*
X150252994Y-92983996D01*
X150399501Y-92877553D01*
X150527553Y-92749501D01*
X150633996Y-92602994D01*
X150716211Y-92441639D01*
X150772171Y-92269409D01*
X150786765Y-92177259D01*
X150800500Y-92090551D01*
X150800500Y-91909448D01*
X150784019Y-91805397D01*
X150772171Y-91730591D01*
X150716211Y-91558361D01*
X150716211Y-91558360D01*
X150687740Y-91502484D01*
X150633996Y-91397006D01*
X150620396Y-91378287D01*
X150527558Y-91250505D01*
X150527554Y-91250500D01*
X150399499Y-91122445D01*
X150399494Y-91122441D01*
X150252997Y-91016006D01*
X150252996Y-91016005D01*
X150252994Y-91016004D01*
X150201300Y-90989664D01*
X150091639Y-90933788D01*
X150091636Y-90933787D01*
X149919410Y-90877829D01*
X149740551Y-90849500D01*
X149740546Y-90849500D01*
X148259454Y-90849500D01*
X148259449Y-90849500D01*
X148080589Y-90877829D01*
X147908363Y-90933787D01*
X147908360Y-90933788D01*
X147747002Y-91016006D01*
X147600505Y-91122441D01*
X147600500Y-91122445D01*
X147472445Y-91250500D01*
X147472441Y-91250505D01*
X147366006Y-91397002D01*
X147283788Y-91558360D01*
X147283787Y-91558363D01*
X147227829Y-91730589D01*
X147199500Y-91909448D01*
X133500500Y-91909448D01*
X133500500Y-88299995D01*
X163824732Y-88299995D01*
X163824732Y-88300004D01*
X163843777Y-88554154D01*
X163843778Y-88554157D01*
X163900492Y-88802637D01*
X163993607Y-89039888D01*
X164121041Y-89260612D01*
X164279950Y-89459877D01*
X164466783Y-89633232D01*
X164677366Y-89776805D01*
X164677371Y-89776807D01*
X164677372Y-89776808D01*
X164677374Y-89776809D01*
X164908846Y-89888280D01*
X164960706Y-89935102D01*
X164979019Y-90002529D01*
X164957971Y-90069153D01*
X164908846Y-90111720D01*
X164677374Y-90223190D01*
X164677372Y-90223191D01*
X164466782Y-90366768D01*
X164279952Y-90540121D01*
X164279950Y-90540123D01*
X164121041Y-90739388D01*
X163993608Y-90960109D01*
X163900492Y-91197362D01*
X163900490Y-91197369D01*
X163843777Y-91445845D01*
X163824732Y-91699995D01*
X163824732Y-91700004D01*
X163843777Y-91954154D01*
X163844767Y-91958493D01*
X163900492Y-92202637D01*
X163993607Y-92439888D01*
X164121041Y-92660612D01*
X164279950Y-92859877D01*
X164466783Y-93033232D01*
X164677366Y-93176805D01*
X164677371Y-93176807D01*
X164677372Y-93176808D01*
X164677373Y-93176809D01*
X164797601Y-93234707D01*
X164906992Y-93287387D01*
X164906993Y-93287387D01*
X164906996Y-93287389D01*
X165150542Y-93362513D01*
X165402565Y-93400500D01*
X165657435Y-93400500D01*
X165909458Y-93362513D01*
X166153004Y-93287389D01*
X166382634Y-93176805D01*
X166593217Y-93033232D01*
X166780050Y-92859877D01*
X166938959Y-92660612D01*
X167066393Y-92439888D01*
X167159508Y-92202637D01*
X167216222Y-91954157D01*
X167235268Y-91700000D01*
X167216222Y-91445843D01*
X167159508Y-91197363D01*
X167066393Y-90960112D01*
X166938959Y-90739388D01*
X166780050Y-90540123D01*
X166593217Y-90366768D01*
X166382634Y-90223195D01*
X166382630Y-90223193D01*
X166382627Y-90223191D01*
X166382626Y-90223190D01*
X166210407Y-90140255D01*
X166153004Y-90112611D01*
X166153001Y-90112610D01*
X166151153Y-90111720D01*
X166099293Y-90064898D01*
X166080980Y-89997471D01*
X166102028Y-89930847D01*
X166151153Y-89888280D01*
X166153001Y-89887389D01*
X166153004Y-89887389D01*
X166382634Y-89776805D01*
X166593217Y-89633232D01*
X166780050Y-89459877D01*
X166938959Y-89260612D01*
X167066393Y-89039888D01*
X167159508Y-88802637D01*
X167216222Y-88554157D01*
X167235268Y-88300000D01*
X167235268Y-88299995D01*
X177294732Y-88299995D01*
X177294732Y-88300004D01*
X177313777Y-88554154D01*
X177313778Y-88554157D01*
X177370492Y-88802637D01*
X177463607Y-89039888D01*
X177591041Y-89260612D01*
X177749950Y-89459877D01*
X177936783Y-89633232D01*
X178147366Y-89776805D01*
X178147371Y-89776807D01*
X178147372Y-89776808D01*
X178147374Y-89776809D01*
X178378846Y-89888280D01*
X178430706Y-89935102D01*
X178449019Y-90002529D01*
X178427971Y-90069153D01*
X178378846Y-90111720D01*
X178147374Y-90223190D01*
X178147372Y-90223191D01*
X177936782Y-90366768D01*
X177749952Y-90540121D01*
X177749950Y-90540123D01*
X177591041Y-90739388D01*
X177463608Y-90960109D01*
X177370492Y-91197362D01*
X177370490Y-91197369D01*
X177313777Y-91445845D01*
X177294732Y-91699995D01*
X177294732Y-91700004D01*
X177313777Y-91954154D01*
X177314767Y-91958493D01*
X177370492Y-92202637D01*
X177463607Y-92439888D01*
X177591041Y-92660612D01*
X177749950Y-92859877D01*
X177936783Y-93033232D01*
X178147366Y-93176805D01*
X178147371Y-93176807D01*
X178147372Y-93176808D01*
X178147373Y-93176809D01*
X178267601Y-93234707D01*
X178376992Y-93287387D01*
X178376993Y-93287387D01*
X178376996Y-93287389D01*
X178620542Y-93362513D01*
X178872565Y-93400500D01*
X179127435Y-93400500D01*
X179379458Y-93362513D01*
X179623004Y-93287389D01*
X179852634Y-93176805D01*
X180063217Y-93033232D01*
X180250050Y-92859877D01*
X180408959Y-92660612D01*
X180536393Y-92439888D01*
X180629508Y-92202637D01*
X180686222Y-91954157D01*
X180705268Y-91700000D01*
X180686222Y-91445843D01*
X180629508Y-91197363D01*
X180536393Y-90960112D01*
X180408959Y-90739388D01*
X180250050Y-90540123D01*
X180063217Y-90366768D01*
X179852634Y-90223195D01*
X179852630Y-90223193D01*
X179852627Y-90223191D01*
X179852626Y-90223190D01*
X179680407Y-90140255D01*
X179623004Y-90112611D01*
X179623001Y-90112610D01*
X179621153Y-90111720D01*
X179569293Y-90064898D01*
X179550980Y-89997471D01*
X179572028Y-89930847D01*
X179621153Y-89888280D01*
X179623001Y-89887389D01*
X179623004Y-89887389D01*
X179852634Y-89776805D01*
X180063217Y-89633232D01*
X180250050Y-89459877D01*
X180408959Y-89260612D01*
X180536393Y-89039888D01*
X180629508Y-88802637D01*
X180686222Y-88554157D01*
X180705268Y-88300000D01*
X180686222Y-88045843D01*
X180629508Y-87797363D01*
X180536393Y-87560112D01*
X180408959Y-87339388D01*
X180279566Y-87177135D01*
X182724500Y-87177135D01*
X182724500Y-89822870D01*
X182724501Y-89822876D01*
X182730908Y-89882483D01*
X182781202Y-90017328D01*
X182781206Y-90017335D01*
X182867452Y-90132544D01*
X182867455Y-90132547D01*
X182982664Y-90218793D01*
X182982671Y-90218797D01*
X183117517Y-90269091D01*
X183117516Y-90269091D01*
X183124444Y-90269835D01*
X183177127Y-90275500D01*
X185822872Y-90275499D01*
X185882483Y-90269091D01*
X186017331Y-90218796D01*
X186132546Y-90132546D01*
X186218796Y-90017331D01*
X186269091Y-89882483D01*
X186275500Y-89822873D01*
X186275499Y-87177128D01*
X186269091Y-87117517D01*
X186218796Y-86982669D01*
X186218795Y-86982668D01*
X186218793Y-86982664D01*
X186132547Y-86867455D01*
X186132544Y-86867452D01*
X186017335Y-86781206D01*
X186017328Y-86781202D01*
X185882482Y-86730908D01*
X185882483Y-86730908D01*
X185822883Y-86724501D01*
X185822881Y-86724500D01*
X185822873Y-86724500D01*
X185822864Y-86724500D01*
X183177129Y-86724500D01*
X183177123Y-86724501D01*
X183117516Y-86730908D01*
X182982671Y-86781202D01*
X182982664Y-86781206D01*
X182867455Y-86867452D01*
X182867452Y-86867455D01*
X182781206Y-86982664D01*
X182781202Y-86982671D01*
X182730908Y-87117517D01*
X182724501Y-87177116D01*
X182724501Y-87177123D01*
X182724500Y-87177135D01*
X180279566Y-87177135D01*
X180250050Y-87140123D01*
X180063217Y-86966768D01*
X179852634Y-86823195D01*
X179852630Y-86823193D01*
X179852627Y-86823191D01*
X179852626Y-86823190D01*
X179623006Y-86712612D01*
X179623008Y-86712612D01*
X179379466Y-86637489D01*
X179379462Y-86637488D01*
X179379458Y-86637487D01*
X179258231Y-86619214D01*
X179127440Y-86599500D01*
X179127435Y-86599500D01*
X178872565Y-86599500D01*
X178872559Y-86599500D01*
X178715609Y-86623157D01*
X178620542Y-86637487D01*
X178620539Y-86637488D01*
X178620533Y-86637489D01*
X178376992Y-86712612D01*
X178147373Y-86823190D01*
X178147372Y-86823191D01*
X177936782Y-86966768D01*
X177749952Y-87140121D01*
X177749950Y-87140123D01*
X177591041Y-87339388D01*
X177463608Y-87560109D01*
X177370492Y-87797362D01*
X177370490Y-87797369D01*
X177313777Y-88045845D01*
X177294732Y-88299995D01*
X167235268Y-88299995D01*
X167216222Y-88045843D01*
X167159508Y-87797363D01*
X167066393Y-87560112D01*
X166938959Y-87339388D01*
X166780050Y-87140123D01*
X166593217Y-86966768D01*
X166382634Y-86823195D01*
X166382630Y-86823193D01*
X166382627Y-86823191D01*
X166382626Y-86823190D01*
X166153006Y-86712612D01*
X166153008Y-86712612D01*
X165909466Y-86637489D01*
X165909462Y-86637488D01*
X165909458Y-86637487D01*
X165788231Y-86619214D01*
X165657440Y-86599500D01*
X165657435Y-86599500D01*
X165402565Y-86599500D01*
X165402559Y-86599500D01*
X165245609Y-86623157D01*
X165150542Y-86637487D01*
X165150539Y-86637488D01*
X165150533Y-86637489D01*
X164906992Y-86712612D01*
X164677373Y-86823190D01*
X164677372Y-86823191D01*
X164466782Y-86966768D01*
X164279952Y-87140121D01*
X164279950Y-87140123D01*
X164121041Y-87339388D01*
X163993608Y-87560109D01*
X163900492Y-87797362D01*
X163900490Y-87797369D01*
X163843777Y-88045845D01*
X163824732Y-88299995D01*
X133500500Y-88299995D01*
X133500500Y-85499997D01*
X193240708Y-85499997D01*
X193240708Y-85500000D01*
X193259839Y-85718674D01*
X193316653Y-85930703D01*
X193316654Y-85930706D01*
X193316655Y-85930708D01*
X193409419Y-86129642D01*
X193409423Y-86129650D01*
X193535322Y-86309452D01*
X193535327Y-86309458D01*
X193690541Y-86464672D01*
X193690547Y-86464677D01*
X193870349Y-86590576D01*
X193870351Y-86590577D01*
X193870354Y-86590579D01*
X194069297Y-86683347D01*
X194281326Y-86740161D01*
X194437521Y-86753826D01*
X194499998Y-86759292D01*
X194500000Y-86759292D01*
X194500002Y-86759292D01*
X194554668Y-86754509D01*
X194718674Y-86740161D01*
X194930703Y-86683347D01*
X195129646Y-86590579D01*
X195309457Y-86464674D01*
X195464674Y-86309457D01*
X195590579Y-86129646D01*
X195683347Y-85930703D01*
X195740161Y-85718674D01*
X195759292Y-85500000D01*
X195740161Y-85281326D01*
X195683347Y-85069297D01*
X195590579Y-84870354D01*
X195590577Y-84870351D01*
X195590576Y-84870349D01*
X195464677Y-84690547D01*
X195464672Y-84690541D01*
X195309458Y-84535327D01*
X195309452Y-84535322D01*
X195129650Y-84409423D01*
X195129642Y-84409419D01*
X194930708Y-84316655D01*
X194930706Y-84316654D01*
X194930703Y-84316653D01*
X194779885Y-84276240D01*
X194718675Y-84259839D01*
X194718668Y-84259838D01*
X194500002Y-84240708D01*
X194499998Y-84240708D01*
X194281331Y-84259838D01*
X194281324Y-84259839D01*
X194158902Y-84292642D01*
X194069297Y-84316653D01*
X194069295Y-84316653D01*
X194069291Y-84316655D01*
X193870357Y-84409419D01*
X193870349Y-84409423D01*
X193690547Y-84535322D01*
X193690541Y-84535327D01*
X193535327Y-84690541D01*
X193535322Y-84690547D01*
X193409423Y-84870349D01*
X193409419Y-84870357D01*
X193316655Y-85069291D01*
X193316653Y-85069295D01*
X193316653Y-85069297D01*
X193308292Y-85100500D01*
X193259839Y-85281324D01*
X193259838Y-85281331D01*
X193240708Y-85499997D01*
X133500500Y-85499997D01*
X133500500Y-79999995D01*
X148794732Y-79999995D01*
X148794732Y-80000004D01*
X148813777Y-80254154D01*
X148813778Y-80254157D01*
X148870492Y-80502637D01*
X148963607Y-80739888D01*
X149091041Y-80960612D01*
X149249950Y-81159877D01*
X149436783Y-81333232D01*
X149647366Y-81476805D01*
X149647371Y-81476807D01*
X149647372Y-81476808D01*
X149647374Y-81476809D01*
X149878846Y-81588280D01*
X149930706Y-81635102D01*
X149949019Y-81702529D01*
X149927971Y-81769153D01*
X149878846Y-81811720D01*
X149647374Y-81923190D01*
X149647372Y-81923191D01*
X149436782Y-82066768D01*
X149249952Y-82240121D01*
X149249950Y-82240123D01*
X149091041Y-82439388D01*
X148963608Y-82660109D01*
X148870492Y-82897362D01*
X148870490Y-82897369D01*
X148813777Y-83145845D01*
X148794732Y-83399995D01*
X148794732Y-83400004D01*
X148813777Y-83654154D01*
X148813778Y-83654157D01*
X148870492Y-83902637D01*
X148963607Y-84139888D01*
X149091041Y-84360612D01*
X149249950Y-84559877D01*
X149436783Y-84733232D01*
X149647366Y-84876805D01*
X149647371Y-84876807D01*
X149647372Y-84876808D01*
X149647373Y-84876809D01*
X149769328Y-84935538D01*
X149876992Y-84987387D01*
X149876993Y-84987387D01*
X149876996Y-84987389D01*
X150120542Y-85062513D01*
X150372565Y-85100500D01*
X150627435Y-85100500D01*
X150879458Y-85062513D01*
X151123004Y-84987389D01*
X151352634Y-84876805D01*
X151563217Y-84733232D01*
X151750050Y-84559877D01*
X151908959Y-84360612D01*
X152036393Y-84139888D01*
X152129508Y-83902637D01*
X152186222Y-83654157D01*
X152205268Y-83400000D01*
X152186222Y-83145843D01*
X152129508Y-82897363D01*
X152036393Y-82660112D01*
X151908959Y-82439388D01*
X151750050Y-82240123D01*
X151563217Y-82066768D01*
X151352634Y-81923195D01*
X151352630Y-81923193D01*
X151352627Y-81923191D01*
X151352626Y-81923190D01*
X151180407Y-81840255D01*
X151123004Y-81812611D01*
X151123001Y-81812610D01*
X151121153Y-81811720D01*
X151069293Y-81764898D01*
X151050980Y-81697471D01*
X151072028Y-81630847D01*
X151121153Y-81588280D01*
X151123001Y-81587389D01*
X151123004Y-81587389D01*
X151352634Y-81476805D01*
X151563217Y-81333232D01*
X151750050Y-81159877D01*
X151908959Y-80960612D01*
X152036393Y-80739888D01*
X152129508Y-80502637D01*
X152186222Y-80254157D01*
X152205268Y-80000000D01*
X152205268Y-79999995D01*
X162264732Y-79999995D01*
X162264732Y-80000004D01*
X162283777Y-80254154D01*
X162283778Y-80254157D01*
X162340492Y-80502637D01*
X162433607Y-80739888D01*
X162561041Y-80960612D01*
X162719950Y-81159877D01*
X162906783Y-81333232D01*
X163117366Y-81476805D01*
X163117371Y-81476807D01*
X163117372Y-81476808D01*
X163117374Y-81476809D01*
X163348846Y-81588280D01*
X163400706Y-81635102D01*
X163419019Y-81702529D01*
X163397971Y-81769153D01*
X163348846Y-81811720D01*
X163117374Y-81923190D01*
X163117372Y-81923191D01*
X162906782Y-82066768D01*
X162719952Y-82240121D01*
X162719950Y-82240123D01*
X162561041Y-82439388D01*
X162433608Y-82660109D01*
X162340492Y-82897362D01*
X162340490Y-82897369D01*
X162283777Y-83145845D01*
X162264732Y-83399995D01*
X162264732Y-83400004D01*
X162283777Y-83654154D01*
X162283778Y-83654157D01*
X162340492Y-83902637D01*
X162433607Y-84139888D01*
X162561041Y-84360612D01*
X162719950Y-84559877D01*
X162906783Y-84733232D01*
X163117366Y-84876805D01*
X163117371Y-84876807D01*
X163117372Y-84876808D01*
X163117373Y-84876809D01*
X163239328Y-84935538D01*
X163346992Y-84987387D01*
X163346993Y-84987387D01*
X163346996Y-84987389D01*
X163590542Y-85062513D01*
X163842565Y-85100500D01*
X164097435Y-85100500D01*
X164349458Y-85062513D01*
X164593004Y-84987389D01*
X164822634Y-84876805D01*
X165033217Y-84733232D01*
X165220050Y-84559877D01*
X165378959Y-84360612D01*
X165506393Y-84139888D01*
X165599508Y-83902637D01*
X165656222Y-83654157D01*
X165675268Y-83400000D01*
X165656222Y-83145843D01*
X165599508Y-82897363D01*
X165506393Y-82660112D01*
X165378959Y-82439388D01*
X165220050Y-82240123D01*
X165033217Y-82066768D01*
X164822634Y-81923195D01*
X164822630Y-81923193D01*
X164822627Y-81923191D01*
X164822626Y-81923190D01*
X164650407Y-81840255D01*
X164593004Y-81812611D01*
X164593001Y-81812610D01*
X164591153Y-81811720D01*
X164539293Y-81764898D01*
X164520980Y-81697471D01*
X164542028Y-81630847D01*
X164591153Y-81588280D01*
X164593001Y-81587389D01*
X164593004Y-81587389D01*
X164822634Y-81476805D01*
X165033217Y-81333232D01*
X165220050Y-81159877D01*
X165347548Y-81000000D01*
X193240708Y-81000000D01*
X193259839Y-81218674D01*
X193316653Y-81430703D01*
X193316654Y-81430706D01*
X193316655Y-81430708D01*
X193409419Y-81629642D01*
X193409423Y-81629650D01*
X193535322Y-81809452D01*
X193535327Y-81809458D01*
X193690541Y-81964672D01*
X193690547Y-81964677D01*
X193870349Y-82090576D01*
X193870351Y-82090577D01*
X193870354Y-82090579D01*
X194069297Y-82183347D01*
X194281326Y-82240161D01*
X194437521Y-82253826D01*
X194499998Y-82259292D01*
X194500000Y-82259292D01*
X194500002Y-82259292D01*
X194554668Y-82254509D01*
X194718674Y-82240161D01*
X194930703Y-82183347D01*
X195129646Y-82090579D01*
X195309457Y-81964674D01*
X195464674Y-81809457D01*
X195590579Y-81629646D01*
X195683347Y-81430703D01*
X195740161Y-81218674D01*
X195759292Y-81000000D01*
X195740161Y-80781326D01*
X195683347Y-80569297D01*
X195590579Y-80370354D01*
X195590577Y-80370351D01*
X195590576Y-80370349D01*
X195464677Y-80190547D01*
X195464672Y-80190541D01*
X195309458Y-80035327D01*
X195309452Y-80035322D01*
X195129650Y-79909423D01*
X195129642Y-79909419D01*
X194930708Y-79816655D01*
X194930706Y-79816654D01*
X194930703Y-79816653D01*
X194775251Y-79774999D01*
X194718675Y-79759839D01*
X194718668Y-79759838D01*
X194500002Y-79740708D01*
X194499998Y-79740708D01*
X194281331Y-79759838D01*
X194281324Y-79759839D01*
X194158902Y-79792642D01*
X194069297Y-79816653D01*
X194069295Y-79816653D01*
X194069291Y-79816655D01*
X193870357Y-79909419D01*
X193870349Y-79909423D01*
X193690547Y-80035322D01*
X193690541Y-80035327D01*
X193535327Y-80190541D01*
X193535322Y-80190547D01*
X193409423Y-80370349D01*
X193409419Y-80370357D01*
X193316655Y-80569291D01*
X193259839Y-80781324D01*
X193259838Y-80781331D01*
X193244154Y-80960611D01*
X193240708Y-81000000D01*
X165347548Y-81000000D01*
X165378959Y-80960612D01*
X165506393Y-80739888D01*
X165599508Y-80502637D01*
X165656222Y-80254157D01*
X165675268Y-80000000D01*
X165668480Y-79909423D01*
X165656222Y-79745845D01*
X165635928Y-79656933D01*
X165599508Y-79497363D01*
X165506393Y-79260112D01*
X165378959Y-79039388D01*
X165220050Y-78840123D01*
X165033217Y-78666768D01*
X164822634Y-78523195D01*
X164822630Y-78523193D01*
X164822627Y-78523191D01*
X164822626Y-78523190D01*
X164593006Y-78412612D01*
X164593008Y-78412612D01*
X164349466Y-78337489D01*
X164349462Y-78337488D01*
X164349458Y-78337487D01*
X164228231Y-78319214D01*
X164097440Y-78299500D01*
X164097435Y-78299500D01*
X163842565Y-78299500D01*
X163842559Y-78299500D01*
X163685609Y-78323157D01*
X163590542Y-78337487D01*
X163590539Y-78337488D01*
X163590533Y-78337489D01*
X163346992Y-78412612D01*
X163117373Y-78523190D01*
X163117372Y-78523191D01*
X162906782Y-78666768D01*
X162719952Y-78840121D01*
X162719950Y-78840123D01*
X162561041Y-79039388D01*
X162433608Y-79260109D01*
X162340492Y-79497362D01*
X162340490Y-79497369D01*
X162283777Y-79745845D01*
X162264732Y-79999995D01*
X152205268Y-79999995D01*
X152198480Y-79909423D01*
X152186222Y-79745845D01*
X152165928Y-79656933D01*
X152129508Y-79497363D01*
X152036393Y-79260112D01*
X151908959Y-79039388D01*
X151750050Y-78840123D01*
X151563217Y-78666768D01*
X151352634Y-78523195D01*
X151352630Y-78523193D01*
X151352627Y-78523191D01*
X151352626Y-78523190D01*
X151123006Y-78412612D01*
X151123008Y-78412612D01*
X150879466Y-78337489D01*
X150879462Y-78337488D01*
X150879458Y-78337487D01*
X150758231Y-78319214D01*
X150627440Y-78299500D01*
X150627435Y-78299500D01*
X150372565Y-78299500D01*
X150372559Y-78299500D01*
X150215609Y-78323157D01*
X150120542Y-78337487D01*
X150120539Y-78337488D01*
X150120533Y-78337489D01*
X149876992Y-78412612D01*
X149647373Y-78523190D01*
X149647372Y-78523191D01*
X149436782Y-78666768D01*
X149249952Y-78840121D01*
X149249950Y-78840123D01*
X149091041Y-79039388D01*
X148963608Y-79260109D01*
X148870492Y-79497362D01*
X148870490Y-79497369D01*
X148813777Y-79745845D01*
X148794732Y-79999995D01*
X133500500Y-79999995D01*
X133500500Y-77999995D01*
X182720023Y-77999995D01*
X182720023Y-78000004D01*
X182739903Y-78265290D01*
X182739903Y-78265292D01*
X182799098Y-78524643D01*
X182799104Y-78524662D01*
X182896296Y-78772303D01*
X183029316Y-79002700D01*
X183080083Y-79066361D01*
X183080084Y-79066361D01*
X183745884Y-78400560D01*
X183746740Y-78402626D01*
X183839762Y-78541844D01*
X183958156Y-78660238D01*
X184097374Y-78753260D01*
X184099437Y-78754114D01*
X183432840Y-79420711D01*
X183610011Y-79541504D01*
X183610015Y-79541506D01*
X183849695Y-79656931D01*
X183849699Y-79656932D01*
X184103909Y-79735346D01*
X184103915Y-79735347D01*
X184366976Y-79774999D01*
X184366983Y-79775000D01*
X184633017Y-79775000D01*
X184633023Y-79774999D01*
X184896084Y-79735347D01*
X184896090Y-79735346D01*
X185150299Y-79656933D01*
X185389992Y-79541503D01*
X185567158Y-79420711D01*
X184900562Y-78754114D01*
X184902626Y-78753260D01*
X185041844Y-78660238D01*
X185160238Y-78541844D01*
X185253260Y-78402626D01*
X185254114Y-78400561D01*
X185919914Y-79066361D01*
X185919915Y-79066360D01*
X185970679Y-79002706D01*
X185970686Y-79002695D01*
X186103703Y-78772303D01*
X186200895Y-78524662D01*
X186200901Y-78524643D01*
X186260096Y-78265292D01*
X186260096Y-78265290D01*
X186279977Y-78000004D01*
X186279977Y-77999995D01*
X186260096Y-77734709D01*
X186260096Y-77734707D01*
X186200901Y-77475356D01*
X186200895Y-77475337D01*
X186103703Y-77227696D01*
X185970683Y-76997299D01*
X185919915Y-76933637D01*
X185254114Y-77599437D01*
X185253260Y-77597374D01*
X185160238Y-77458156D01*
X185041844Y-77339762D01*
X184902626Y-77246740D01*
X184900561Y-77245884D01*
X185567158Y-76579287D01*
X185389984Y-76458492D01*
X185150299Y-76343066D01*
X184896090Y-76264653D01*
X184896084Y-76264652D01*
X184633023Y-76225000D01*
X184366976Y-76225000D01*
X184103915Y-76264652D01*
X184103909Y-76264653D01*
X183849699Y-76343067D01*
X183849695Y-76343068D01*
X183610015Y-76458493D01*
X183610011Y-76458495D01*
X183432840Y-76579287D01*
X184099438Y-77245884D01*
X184097374Y-77246740D01*
X183958156Y-77339762D01*
X183839762Y-77458156D01*
X183746740Y-77597374D01*
X183745884Y-77599438D01*
X183080084Y-76933638D01*
X183029314Y-76997302D01*
X182896296Y-77227696D01*
X182799104Y-77475337D01*
X182799098Y-77475356D01*
X182739903Y-77734707D01*
X182739903Y-77734709D01*
X182720023Y-77999995D01*
X133500500Y-77999995D01*
X133500500Y-71999995D01*
X163824732Y-71999995D01*
X163824732Y-72000004D01*
X163843777Y-72254154D01*
X163843778Y-72254157D01*
X163900492Y-72502637D01*
X163993607Y-72739888D01*
X164121041Y-72960612D01*
X164279950Y-73159877D01*
X164466783Y-73333232D01*
X164677366Y-73476805D01*
X164677371Y-73476807D01*
X164677372Y-73476808D01*
X164677374Y-73476809D01*
X164908846Y-73588280D01*
X164960706Y-73635102D01*
X164979019Y-73702529D01*
X164957971Y-73769153D01*
X164908846Y-73811720D01*
X164677374Y-73923190D01*
X164677372Y-73923191D01*
X164466782Y-74066768D01*
X164279952Y-74240121D01*
X164279950Y-74240123D01*
X164121041Y-74439388D01*
X163993608Y-74660109D01*
X163900492Y-74897362D01*
X163900490Y-74897369D01*
X163843777Y-75145845D01*
X163824732Y-75399995D01*
X163824732Y-75400004D01*
X163843777Y-75654154D01*
X163843778Y-75654157D01*
X163900492Y-75902637D01*
X163993607Y-76139888D01*
X164121041Y-76360612D01*
X164279950Y-76559877D01*
X164466783Y-76733232D01*
X164677366Y-76876805D01*
X164677371Y-76876807D01*
X164677372Y-76876808D01*
X164677373Y-76876809D01*
X164795379Y-76933637D01*
X164906992Y-76987387D01*
X164906993Y-76987387D01*
X164906996Y-76987389D01*
X165150542Y-77062513D01*
X165402565Y-77100500D01*
X165657435Y-77100500D01*
X165909458Y-77062513D01*
X166153004Y-76987389D01*
X166382634Y-76876805D01*
X166593217Y-76733232D01*
X166780050Y-76559877D01*
X166938959Y-76360612D01*
X167066393Y-76139888D01*
X167159508Y-75902637D01*
X167216222Y-75654157D01*
X167235268Y-75400000D01*
X167216222Y-75145843D01*
X167159508Y-74897363D01*
X167066393Y-74660112D01*
X166938959Y-74439388D01*
X166780050Y-74240123D01*
X166593217Y-74066768D01*
X166382634Y-73923195D01*
X166382630Y-73923193D01*
X166382627Y-73923191D01*
X166382626Y-73923190D01*
X166210407Y-73840255D01*
X166153004Y-73812611D01*
X166153001Y-73812610D01*
X166151153Y-73811720D01*
X166099293Y-73764898D01*
X166080980Y-73697471D01*
X166102028Y-73630847D01*
X166151153Y-73588280D01*
X166153001Y-73587389D01*
X166153004Y-73587389D01*
X166382634Y-73476805D01*
X166593217Y-73333232D01*
X166780050Y-73159877D01*
X166938959Y-72960612D01*
X167066393Y-72739888D01*
X167159508Y-72502637D01*
X167216222Y-72254157D01*
X167235268Y-72000000D01*
X167235268Y-71999995D01*
X177294732Y-71999995D01*
X177294732Y-72000004D01*
X177313777Y-72254154D01*
X177313778Y-72254157D01*
X177370492Y-72502637D01*
X177463607Y-72739888D01*
X177591041Y-72960612D01*
X177749950Y-73159877D01*
X177936783Y-73333232D01*
X178147366Y-73476805D01*
X178147371Y-73476807D01*
X178147372Y-73476808D01*
X178147374Y-73476809D01*
X178378846Y-73588280D01*
X178430706Y-73635102D01*
X178449019Y-73702529D01*
X178427971Y-73769153D01*
X178378846Y-73811720D01*
X178147374Y-73923190D01*
X178147372Y-73923191D01*
X177936782Y-74066768D01*
X177749952Y-74240121D01*
X177749950Y-74240123D01*
X177591041Y-74439388D01*
X177463608Y-74660109D01*
X177370492Y-74897362D01*
X177370490Y-74897369D01*
X177313777Y-75145845D01*
X177294732Y-75399995D01*
X177294732Y-75400004D01*
X177313777Y-75654154D01*
X177313778Y-75654157D01*
X177370492Y-75902637D01*
X177463607Y-76139888D01*
X177591041Y-76360612D01*
X177749950Y-76559877D01*
X177936783Y-76733232D01*
X178147366Y-76876805D01*
X178147371Y-76876807D01*
X178147372Y-76876808D01*
X178147373Y-76876809D01*
X178265379Y-76933637D01*
X178376992Y-76987387D01*
X178376993Y-76987387D01*
X178376996Y-76987389D01*
X178620542Y-77062513D01*
X178872565Y-77100500D01*
X179127435Y-77100500D01*
X179379458Y-77062513D01*
X179623004Y-76987389D01*
X179852634Y-76876805D01*
X180063217Y-76733232D01*
X180250050Y-76559877D01*
X180408959Y-76360612D01*
X180536393Y-76139888D01*
X180629508Y-75902637D01*
X180686222Y-75654157D01*
X180705268Y-75400000D01*
X180686222Y-75145843D01*
X180629508Y-74897363D01*
X180536393Y-74660112D01*
X180408959Y-74439388D01*
X180250050Y-74240123D01*
X180063217Y-74066768D01*
X179852634Y-73923195D01*
X179852630Y-73923193D01*
X179852627Y-73923191D01*
X179852626Y-73923190D01*
X179680407Y-73840255D01*
X179623004Y-73812611D01*
X179623001Y-73812610D01*
X179621153Y-73811720D01*
X179569293Y-73764898D01*
X179550980Y-73697471D01*
X179572028Y-73630847D01*
X179621153Y-73588280D01*
X179623001Y-73587389D01*
X179623004Y-73587389D01*
X179852634Y-73476805D01*
X180063217Y-73333232D01*
X180250050Y-73159877D01*
X180408959Y-72960612D01*
X180536393Y-72739888D01*
X180629508Y-72502637D01*
X180686222Y-72254157D01*
X180705268Y-72000000D01*
X180686222Y-71745843D01*
X180670540Y-71677135D01*
X182724500Y-71677135D01*
X182724500Y-74322870D01*
X182724501Y-74322876D01*
X182730908Y-74382483D01*
X182781202Y-74517328D01*
X182781206Y-74517335D01*
X182867452Y-74632544D01*
X182867455Y-74632547D01*
X182982664Y-74718793D01*
X182982671Y-74718797D01*
X183117517Y-74769091D01*
X183117516Y-74769091D01*
X183124444Y-74769835D01*
X183177127Y-74775500D01*
X185822872Y-74775499D01*
X185882483Y-74769091D01*
X186017331Y-74718796D01*
X186132546Y-74632546D01*
X186218796Y-74517331D01*
X186269091Y-74382483D01*
X186275500Y-74322873D01*
X186275499Y-71677128D01*
X186269091Y-71617517D01*
X186218796Y-71482669D01*
X186218795Y-71482668D01*
X186218793Y-71482664D01*
X186132547Y-71367455D01*
X186132544Y-71367452D01*
X186017335Y-71281206D01*
X186017328Y-71281202D01*
X185882482Y-71230908D01*
X185882483Y-71230908D01*
X185822883Y-71224501D01*
X185822881Y-71224500D01*
X185822873Y-71224500D01*
X185822864Y-71224500D01*
X183177129Y-71224500D01*
X183177123Y-71224501D01*
X183117516Y-71230908D01*
X182982671Y-71281202D01*
X182982664Y-71281206D01*
X182867455Y-71367452D01*
X182867452Y-71367455D01*
X182781206Y-71482664D01*
X182781202Y-71482671D01*
X182730908Y-71617517D01*
X182724501Y-71677116D01*
X182724501Y-71677123D01*
X182724500Y-71677135D01*
X180670540Y-71677135D01*
X180629508Y-71497363D01*
X180536393Y-71260112D01*
X180408959Y-71039388D01*
X180250050Y-70840123D01*
X180063217Y-70666768D01*
X179852634Y-70523195D01*
X179852630Y-70523193D01*
X179852627Y-70523191D01*
X179852626Y-70523190D01*
X179623006Y-70412612D01*
X179623008Y-70412612D01*
X179379466Y-70337489D01*
X179379462Y-70337488D01*
X179379458Y-70337487D01*
X179258231Y-70319214D01*
X179127440Y-70299500D01*
X179127435Y-70299500D01*
X178872565Y-70299500D01*
X178872559Y-70299500D01*
X178715609Y-70323157D01*
X178620542Y-70337487D01*
X178620539Y-70337488D01*
X178620533Y-70337489D01*
X178376992Y-70412612D01*
X178147373Y-70523190D01*
X178147372Y-70523191D01*
X177936782Y-70666768D01*
X177749952Y-70840121D01*
X177749950Y-70840123D01*
X177591041Y-71039388D01*
X177463608Y-71260109D01*
X177370492Y-71497362D01*
X177370490Y-71497369D01*
X177313777Y-71745845D01*
X177294732Y-71999995D01*
X167235268Y-71999995D01*
X167216222Y-71745843D01*
X167159508Y-71497363D01*
X167066393Y-71260112D01*
X166938959Y-71039388D01*
X166780050Y-70840123D01*
X166593217Y-70666768D01*
X166382634Y-70523195D01*
X166382630Y-70523193D01*
X166382627Y-70523191D01*
X166382626Y-70523190D01*
X166153006Y-70412612D01*
X166153008Y-70412612D01*
X165909466Y-70337489D01*
X165909462Y-70337488D01*
X165909458Y-70337487D01*
X165788231Y-70319214D01*
X165657440Y-70299500D01*
X165657435Y-70299500D01*
X165402565Y-70299500D01*
X165402559Y-70299500D01*
X165245609Y-70323157D01*
X165150542Y-70337487D01*
X165150539Y-70337488D01*
X165150533Y-70337489D01*
X164906992Y-70412612D01*
X164677373Y-70523190D01*
X164677372Y-70523191D01*
X164466782Y-70666768D01*
X164279952Y-70840121D01*
X164279950Y-70840123D01*
X164121041Y-71039388D01*
X163993608Y-71260109D01*
X163900492Y-71497362D01*
X163900490Y-71497369D01*
X163843777Y-71745845D01*
X163824732Y-71999995D01*
X133500500Y-71999995D01*
X133500500Y-69999997D01*
X193240708Y-69999997D01*
X193240708Y-70000000D01*
X193259839Y-70218674D01*
X193316653Y-70430703D01*
X193316654Y-70430706D01*
X193316655Y-70430708D01*
X193409419Y-70629642D01*
X193409423Y-70629650D01*
X193535322Y-70809452D01*
X193535327Y-70809458D01*
X193690541Y-70964672D01*
X193690547Y-70964677D01*
X193870349Y-71090576D01*
X193870351Y-71090577D01*
X193870354Y-71090579D01*
X194069297Y-71183347D01*
X194281326Y-71240161D01*
X194437521Y-71253826D01*
X194499998Y-71259292D01*
X194500000Y-71259292D01*
X194500002Y-71259292D01*
X194554668Y-71254509D01*
X194718674Y-71240161D01*
X194930703Y-71183347D01*
X195129646Y-71090579D01*
X195309457Y-70964674D01*
X195464674Y-70809457D01*
X195590579Y-70629646D01*
X195683347Y-70430703D01*
X195740161Y-70218674D01*
X195759292Y-70000000D01*
X195740161Y-69781326D01*
X195683347Y-69569297D01*
X195590579Y-69370354D01*
X195590577Y-69370351D01*
X195590576Y-69370349D01*
X195464677Y-69190547D01*
X195464672Y-69190541D01*
X195309458Y-69035327D01*
X195309452Y-69035322D01*
X195129650Y-68909423D01*
X195129642Y-68909419D01*
X194930708Y-68816655D01*
X194930706Y-68816654D01*
X194930703Y-68816653D01*
X194779885Y-68776240D01*
X194718675Y-68759839D01*
X194718668Y-68759838D01*
X194500002Y-68740708D01*
X194499998Y-68740708D01*
X194281331Y-68759838D01*
X194281324Y-68759839D01*
X194158902Y-68792642D01*
X194069297Y-68816653D01*
X194069295Y-68816653D01*
X194069291Y-68816655D01*
X193870357Y-68909419D01*
X193870349Y-68909423D01*
X193690547Y-69035322D01*
X193690541Y-69035327D01*
X193535327Y-69190541D01*
X193535322Y-69190547D01*
X193409423Y-69370349D01*
X193409419Y-69370357D01*
X193316655Y-69569291D01*
X193259839Y-69781324D01*
X193259838Y-69781331D01*
X193240708Y-69999997D01*
X133500500Y-69999997D01*
X133500500Y-64124500D01*
X133520185Y-64057461D01*
X133572989Y-64011706D01*
X133624500Y-64000500D01*
X168418917Y-64000500D01*
X168485956Y-64020185D01*
G37*
%TD.AperFunction*%
%TD*%
M02*
