%TF.GenerationSoftware,KiCad,Pcbnew,9.0.5*%
%TF.CreationDate,2026-01-31T21:14:51-07:00*%
%TF.ProjectId,Motor_Controller_Carrier_Board,4d6f746f-725f-4436-9f6e-74726f6c6c65,rev?*%
%TF.SameCoordinates,Original*%
%TF.FileFunction,Legend,Top*%
%TF.FilePolarity,Positive*%
%FSLAX46Y46*%
G04 Gerber Fmt 4.6, Leading zero omitted, Abs format (unit mm)*
G04 Created by KiCad (PCBNEW 9.0.5) date 2026-01-31 21:14:51*
%MOMM*%
%LPD*%
G01*
G04 APERTURE LIST*
%ADD10C,0.150000*%
%ADD11C,0.152400*%
G04 APERTURE END LIST*
D10*
X144051191Y-80359261D02*
X144051191Y-79359261D01*
X144527381Y-80359261D02*
X144527381Y-79359261D01*
X144527381Y-79359261D02*
X145098809Y-80359261D01*
X145098809Y-80359261D02*
X145098809Y-79359261D01*
X86045112Y-92835451D02*
X86187969Y-92883070D01*
X86187969Y-92883070D02*
X86235588Y-92930689D01*
X86235588Y-92930689D02*
X86283207Y-93025927D01*
X86283207Y-93025927D02*
X86283207Y-93168784D01*
X86283207Y-93168784D02*
X86235588Y-93264022D01*
X86235588Y-93264022D02*
X86187969Y-93311642D01*
X86187969Y-93311642D02*
X86092731Y-93359261D01*
X86092731Y-93359261D02*
X85711779Y-93359261D01*
X85711779Y-93359261D02*
X85711779Y-92359261D01*
X85711779Y-92359261D02*
X86045112Y-92359261D01*
X86045112Y-92359261D02*
X86140350Y-92406880D01*
X86140350Y-92406880D02*
X86187969Y-92454499D01*
X86187969Y-92454499D02*
X86235588Y-92549737D01*
X86235588Y-92549737D02*
X86235588Y-92644975D01*
X86235588Y-92644975D02*
X86187969Y-92740213D01*
X86187969Y-92740213D02*
X86140350Y-92787832D01*
X86140350Y-92787832D02*
X86045112Y-92835451D01*
X86045112Y-92835451D02*
X85711779Y-92835451D01*
X86664160Y-93073546D02*
X87140350Y-93073546D01*
X86568922Y-93359261D02*
X86902255Y-92359261D01*
X86902255Y-92359261D02*
X87235588Y-93359261D01*
X87426065Y-92359261D02*
X87997493Y-92359261D01*
X87711779Y-93359261D02*
X87711779Y-92359261D01*
X88187970Y-92359261D02*
X88759398Y-92359261D01*
X88473684Y-93359261D02*
X88473684Y-92359261D01*
X90045113Y-92359261D02*
X90235589Y-92359261D01*
X90235589Y-92359261D02*
X90330827Y-92406880D01*
X90330827Y-92406880D02*
X90426065Y-92502118D01*
X90426065Y-92502118D02*
X90473684Y-92692594D01*
X90473684Y-92692594D02*
X90473684Y-93025927D01*
X90473684Y-93025927D02*
X90426065Y-93216403D01*
X90426065Y-93216403D02*
X90330827Y-93311642D01*
X90330827Y-93311642D02*
X90235589Y-93359261D01*
X90235589Y-93359261D02*
X90045113Y-93359261D01*
X90045113Y-93359261D02*
X89949875Y-93311642D01*
X89949875Y-93311642D02*
X89854637Y-93216403D01*
X89854637Y-93216403D02*
X89807018Y-93025927D01*
X89807018Y-93025927D02*
X89807018Y-92692594D01*
X89807018Y-92692594D02*
X89854637Y-92502118D01*
X89854637Y-92502118D02*
X89949875Y-92406880D01*
X89949875Y-92406880D02*
X90045113Y-92359261D01*
X90902256Y-92359261D02*
X90902256Y-93168784D01*
X90902256Y-93168784D02*
X90949875Y-93264022D01*
X90949875Y-93264022D02*
X90997494Y-93311642D01*
X90997494Y-93311642D02*
X91092732Y-93359261D01*
X91092732Y-93359261D02*
X91283208Y-93359261D01*
X91283208Y-93359261D02*
X91378446Y-93311642D01*
X91378446Y-93311642D02*
X91426065Y-93264022D01*
X91426065Y-93264022D02*
X91473684Y-93168784D01*
X91473684Y-93168784D02*
X91473684Y-92359261D01*
X91807018Y-92359261D02*
X92378446Y-92359261D01*
X92092732Y-93359261D02*
X92092732Y-92359261D01*
X177328990Y-72526221D02*
X177328990Y-72859554D01*
X176805180Y-73002411D02*
X176805180Y-72526221D01*
X176805180Y-72526221D02*
X177805180Y-72526221D01*
X177805180Y-72526221D02*
X177805180Y-73002411D01*
X176805180Y-73430983D02*
X177805180Y-73430983D01*
X177805180Y-73430983D02*
X176805180Y-74002411D01*
X176805180Y-74002411D02*
X177805180Y-74002411D01*
X176900419Y-75050030D02*
X176852800Y-75002411D01*
X176852800Y-75002411D02*
X176805180Y-74859554D01*
X176805180Y-74859554D02*
X176805180Y-74764316D01*
X176805180Y-74764316D02*
X176852800Y-74621459D01*
X176852800Y-74621459D02*
X176948038Y-74526221D01*
X176948038Y-74526221D02*
X177043276Y-74478602D01*
X177043276Y-74478602D02*
X177233752Y-74430983D01*
X177233752Y-74430983D02*
X177376609Y-74430983D01*
X177376609Y-74430983D02*
X177567085Y-74478602D01*
X177567085Y-74478602D02*
X177662323Y-74526221D01*
X177662323Y-74526221D02*
X177757561Y-74621459D01*
X177757561Y-74621459D02*
X177805180Y-74764316D01*
X177805180Y-74764316D02*
X177805180Y-74859554D01*
X177805180Y-74859554D02*
X177757561Y-75002411D01*
X177757561Y-75002411D02*
X177709942Y-75050030D01*
X177805180Y-75669078D02*
X177805180Y-75859554D01*
X177805180Y-75859554D02*
X177757561Y-75954792D01*
X177757561Y-75954792D02*
X177662323Y-76050030D01*
X177662323Y-76050030D02*
X177471847Y-76097649D01*
X177471847Y-76097649D02*
X177138514Y-76097649D01*
X177138514Y-76097649D02*
X176948038Y-76050030D01*
X176948038Y-76050030D02*
X176852800Y-75954792D01*
X176852800Y-75954792D02*
X176805180Y-75859554D01*
X176805180Y-75859554D02*
X176805180Y-75669078D01*
X176805180Y-75669078D02*
X176852800Y-75573840D01*
X176852800Y-75573840D02*
X176948038Y-75478602D01*
X176948038Y-75478602D02*
X177138514Y-75430983D01*
X177138514Y-75430983D02*
X177471847Y-75430983D01*
X177471847Y-75430983D02*
X177662323Y-75478602D01*
X177662323Y-75478602D02*
X177757561Y-75573840D01*
X177757561Y-75573840D02*
X177805180Y-75669078D01*
X176805180Y-76526221D02*
X177805180Y-76526221D01*
X177805180Y-76526221D02*
X177805180Y-76764316D01*
X177805180Y-76764316D02*
X177757561Y-76907173D01*
X177757561Y-76907173D02*
X177662323Y-77002411D01*
X177662323Y-77002411D02*
X177567085Y-77050030D01*
X177567085Y-77050030D02*
X177376609Y-77097649D01*
X177376609Y-77097649D02*
X177233752Y-77097649D01*
X177233752Y-77097649D02*
X177043276Y-77050030D01*
X177043276Y-77050030D02*
X176948038Y-77002411D01*
X176948038Y-77002411D02*
X176852800Y-76907173D01*
X176852800Y-76907173D02*
X176805180Y-76764316D01*
X176805180Y-76764316D02*
X176805180Y-76526221D01*
X177328990Y-77526221D02*
X177328990Y-77859554D01*
X176805180Y-78002411D02*
X176805180Y-77526221D01*
X176805180Y-77526221D02*
X177805180Y-77526221D01*
X177805180Y-77526221D02*
X177805180Y-78002411D01*
X176805180Y-79002411D02*
X177281371Y-78669078D01*
X176805180Y-78430983D02*
X177805180Y-78430983D01*
X177805180Y-78430983D02*
X177805180Y-78811935D01*
X177805180Y-78811935D02*
X177757561Y-78907173D01*
X177757561Y-78907173D02*
X177709942Y-78954792D01*
X177709942Y-78954792D02*
X177614704Y-79002411D01*
X177614704Y-79002411D02*
X177471847Y-79002411D01*
X177471847Y-79002411D02*
X177376609Y-78954792D01*
X177376609Y-78954792D02*
X177328990Y-78907173D01*
X177328990Y-78907173D02*
X177281371Y-78811935D01*
X177281371Y-78811935D02*
X177281371Y-78430983D01*
X171305180Y-106326221D02*
X172305180Y-106326221D01*
X172305180Y-106326221D02*
X171590895Y-106659554D01*
X171590895Y-106659554D02*
X172305180Y-106992887D01*
X172305180Y-106992887D02*
X171305180Y-106992887D01*
X172305180Y-107659554D02*
X172305180Y-107850030D01*
X172305180Y-107850030D02*
X172257561Y-107945268D01*
X172257561Y-107945268D02*
X172162323Y-108040506D01*
X172162323Y-108040506D02*
X171971847Y-108088125D01*
X171971847Y-108088125D02*
X171638514Y-108088125D01*
X171638514Y-108088125D02*
X171448038Y-108040506D01*
X171448038Y-108040506D02*
X171352800Y-107945268D01*
X171352800Y-107945268D02*
X171305180Y-107850030D01*
X171305180Y-107850030D02*
X171305180Y-107659554D01*
X171305180Y-107659554D02*
X171352800Y-107564316D01*
X171352800Y-107564316D02*
X171448038Y-107469078D01*
X171448038Y-107469078D02*
X171638514Y-107421459D01*
X171638514Y-107421459D02*
X171971847Y-107421459D01*
X171971847Y-107421459D02*
X172162323Y-107469078D01*
X172162323Y-107469078D02*
X172257561Y-107564316D01*
X172257561Y-107564316D02*
X172305180Y-107659554D01*
X172305180Y-108373840D02*
X172305180Y-108945268D01*
X171305180Y-108659554D02*
X172305180Y-108659554D01*
X172305180Y-109469078D02*
X172305180Y-109659554D01*
X172305180Y-109659554D02*
X172257561Y-109754792D01*
X172257561Y-109754792D02*
X172162323Y-109850030D01*
X172162323Y-109850030D02*
X171971847Y-109897649D01*
X171971847Y-109897649D02*
X171638514Y-109897649D01*
X171638514Y-109897649D02*
X171448038Y-109850030D01*
X171448038Y-109850030D02*
X171352800Y-109754792D01*
X171352800Y-109754792D02*
X171305180Y-109659554D01*
X171305180Y-109659554D02*
X171305180Y-109469078D01*
X171305180Y-109469078D02*
X171352800Y-109373840D01*
X171352800Y-109373840D02*
X171448038Y-109278602D01*
X171448038Y-109278602D02*
X171638514Y-109230983D01*
X171638514Y-109230983D02*
X171971847Y-109230983D01*
X171971847Y-109230983D02*
X172162323Y-109278602D01*
X172162323Y-109278602D02*
X172257561Y-109373840D01*
X172257561Y-109373840D02*
X172305180Y-109469078D01*
X171305180Y-110897649D02*
X171781371Y-110564316D01*
X171305180Y-110326221D02*
X172305180Y-110326221D01*
X172305180Y-110326221D02*
X172305180Y-110707173D01*
X172305180Y-110707173D02*
X172257561Y-110802411D01*
X172257561Y-110802411D02*
X172209942Y-110850030D01*
X172209942Y-110850030D02*
X172114704Y-110897649D01*
X172114704Y-110897649D02*
X171971847Y-110897649D01*
X171971847Y-110897649D02*
X171876609Y-110850030D01*
X171876609Y-110850030D02*
X171828990Y-110802411D01*
X171828990Y-110802411D02*
X171781371Y-110707173D01*
X171781371Y-110707173D02*
X171781371Y-110326221D01*
X86045112Y-90035451D02*
X86187969Y-90083070D01*
X86187969Y-90083070D02*
X86235588Y-90130689D01*
X86235588Y-90130689D02*
X86283207Y-90225927D01*
X86283207Y-90225927D02*
X86283207Y-90368784D01*
X86283207Y-90368784D02*
X86235588Y-90464022D01*
X86235588Y-90464022D02*
X86187969Y-90511642D01*
X86187969Y-90511642D02*
X86092731Y-90559261D01*
X86092731Y-90559261D02*
X85711779Y-90559261D01*
X85711779Y-90559261D02*
X85711779Y-89559261D01*
X85711779Y-89559261D02*
X86045112Y-89559261D01*
X86045112Y-89559261D02*
X86140350Y-89606880D01*
X86140350Y-89606880D02*
X86187969Y-89654499D01*
X86187969Y-89654499D02*
X86235588Y-89749737D01*
X86235588Y-89749737D02*
X86235588Y-89844975D01*
X86235588Y-89844975D02*
X86187969Y-89940213D01*
X86187969Y-89940213D02*
X86140350Y-89987832D01*
X86140350Y-89987832D02*
X86045112Y-90035451D01*
X86045112Y-90035451D02*
X85711779Y-90035451D01*
X86664160Y-90273546D02*
X87140350Y-90273546D01*
X86568922Y-90559261D02*
X86902255Y-89559261D01*
X86902255Y-89559261D02*
X87235588Y-90559261D01*
X87426065Y-89559261D02*
X87997493Y-89559261D01*
X87711779Y-90559261D02*
X87711779Y-89559261D01*
X88187970Y-89559261D02*
X88759398Y-89559261D01*
X88473684Y-90559261D02*
X88473684Y-89559261D01*
X89854637Y-90559261D02*
X89854637Y-89559261D01*
X90330827Y-90559261D02*
X90330827Y-89559261D01*
X90330827Y-89559261D02*
X90902255Y-90559261D01*
X90902255Y-90559261D02*
X90902255Y-89559261D01*
X143675000Y-99259261D02*
X143865476Y-99259261D01*
X143865476Y-99259261D02*
X143960714Y-99306880D01*
X143960714Y-99306880D02*
X144055952Y-99402118D01*
X144055952Y-99402118D02*
X144103571Y-99592594D01*
X144103571Y-99592594D02*
X144103571Y-99925927D01*
X144103571Y-99925927D02*
X144055952Y-100116403D01*
X144055952Y-100116403D02*
X143960714Y-100211642D01*
X143960714Y-100211642D02*
X143865476Y-100259261D01*
X143865476Y-100259261D02*
X143675000Y-100259261D01*
X143675000Y-100259261D02*
X143579762Y-100211642D01*
X143579762Y-100211642D02*
X143484524Y-100116403D01*
X143484524Y-100116403D02*
X143436905Y-99925927D01*
X143436905Y-99925927D02*
X143436905Y-99592594D01*
X143436905Y-99592594D02*
X143484524Y-99402118D01*
X143484524Y-99402118D02*
X143579762Y-99306880D01*
X143579762Y-99306880D02*
X143675000Y-99259261D01*
X144532143Y-99259261D02*
X144532143Y-100068784D01*
X144532143Y-100068784D02*
X144579762Y-100164022D01*
X144579762Y-100164022D02*
X144627381Y-100211642D01*
X144627381Y-100211642D02*
X144722619Y-100259261D01*
X144722619Y-100259261D02*
X144913095Y-100259261D01*
X144913095Y-100259261D02*
X145008333Y-100211642D01*
X145008333Y-100211642D02*
X145055952Y-100164022D01*
X145055952Y-100164022D02*
X145103571Y-100068784D01*
X145103571Y-100068784D02*
X145103571Y-99259261D01*
X145436905Y-99259261D02*
X146008333Y-99259261D01*
X145722619Y-100259261D02*
X145722619Y-99259261D01*
X157485714Y-111150057D02*
X157533333Y-111102438D01*
X157533333Y-111102438D02*
X157628571Y-111054819D01*
X157628571Y-111054819D02*
X157866666Y-111054819D01*
X157866666Y-111054819D02*
X157961904Y-111102438D01*
X157961904Y-111102438D02*
X158009523Y-111150057D01*
X158009523Y-111150057D02*
X158057142Y-111245295D01*
X158057142Y-111245295D02*
X158057142Y-111340533D01*
X158057142Y-111340533D02*
X158009523Y-111483390D01*
X158009523Y-111483390D02*
X157438095Y-112054819D01*
X157438095Y-112054819D02*
X158057142Y-112054819D01*
X158533333Y-112054819D02*
X158723809Y-112054819D01*
X158723809Y-112054819D02*
X158819047Y-112007200D01*
X158819047Y-112007200D02*
X158866666Y-111959580D01*
X158866666Y-111959580D02*
X158961904Y-111816723D01*
X158961904Y-111816723D02*
X159009523Y-111626247D01*
X159009523Y-111626247D02*
X159009523Y-111245295D01*
X159009523Y-111245295D02*
X158961904Y-111150057D01*
X158961904Y-111150057D02*
X158914285Y-111102438D01*
X158914285Y-111102438D02*
X158819047Y-111054819D01*
X158819047Y-111054819D02*
X158628571Y-111054819D01*
X158628571Y-111054819D02*
X158533333Y-111102438D01*
X158533333Y-111102438D02*
X158485714Y-111150057D01*
X158485714Y-111150057D02*
X158438095Y-111245295D01*
X158438095Y-111245295D02*
X158438095Y-111483390D01*
X158438095Y-111483390D02*
X158485714Y-111578628D01*
X158485714Y-111578628D02*
X158533333Y-111626247D01*
X158533333Y-111626247D02*
X158628571Y-111673866D01*
X158628571Y-111673866D02*
X158819047Y-111673866D01*
X158819047Y-111673866D02*
X158914285Y-111626247D01*
X158914285Y-111626247D02*
X158961904Y-111578628D01*
X158961904Y-111578628D02*
X159009523Y-111483390D01*
X159485714Y-112054819D02*
X159676190Y-112054819D01*
X159676190Y-112054819D02*
X159771428Y-112007200D01*
X159771428Y-112007200D02*
X159819047Y-111959580D01*
X159819047Y-111959580D02*
X159914285Y-111816723D01*
X159914285Y-111816723D02*
X159961904Y-111626247D01*
X159961904Y-111626247D02*
X159961904Y-111245295D01*
X159961904Y-111245295D02*
X159914285Y-111150057D01*
X159914285Y-111150057D02*
X159866666Y-111102438D01*
X159866666Y-111102438D02*
X159771428Y-111054819D01*
X159771428Y-111054819D02*
X159580952Y-111054819D01*
X159580952Y-111054819D02*
X159485714Y-111102438D01*
X159485714Y-111102438D02*
X159438095Y-111150057D01*
X159438095Y-111150057D02*
X159390476Y-111245295D01*
X159390476Y-111245295D02*
X159390476Y-111483390D01*
X159390476Y-111483390D02*
X159438095Y-111578628D01*
X159438095Y-111578628D02*
X159485714Y-111626247D01*
X159485714Y-111626247D02*
X159580952Y-111673866D01*
X159580952Y-111673866D02*
X159771428Y-111673866D01*
X159771428Y-111673866D02*
X159866666Y-111626247D01*
X159866666Y-111626247D02*
X159914285Y-111578628D01*
X159914285Y-111578628D02*
X159961904Y-111483390D01*
X160342857Y-111150057D02*
X160390476Y-111102438D01*
X160390476Y-111102438D02*
X160485714Y-111054819D01*
X160485714Y-111054819D02*
X160723809Y-111054819D01*
X160723809Y-111054819D02*
X160819047Y-111102438D01*
X160819047Y-111102438D02*
X160866666Y-111150057D01*
X160866666Y-111150057D02*
X160914285Y-111245295D01*
X160914285Y-111245295D02*
X160914285Y-111340533D01*
X160914285Y-111340533D02*
X160866666Y-111483390D01*
X160866666Y-111483390D02*
X160295238Y-112054819D01*
X160295238Y-112054819D02*
X160914285Y-112054819D01*
X155209524Y-70454819D02*
X155542857Y-71454819D01*
X155542857Y-71454819D02*
X155876190Y-70454819D01*
X156590476Y-71407200D02*
X156495238Y-71454819D01*
X156495238Y-71454819D02*
X156304762Y-71454819D01*
X156304762Y-71454819D02*
X156209524Y-71407200D01*
X156209524Y-71407200D02*
X156161905Y-71311961D01*
X156161905Y-71311961D02*
X156161905Y-70931009D01*
X156161905Y-70931009D02*
X156209524Y-70835771D01*
X156209524Y-70835771D02*
X156304762Y-70788152D01*
X156304762Y-70788152D02*
X156495238Y-70788152D01*
X156495238Y-70788152D02*
X156590476Y-70835771D01*
X156590476Y-70835771D02*
X156638095Y-70931009D01*
X156638095Y-70931009D02*
X156638095Y-71026247D01*
X156638095Y-71026247D02*
X156161905Y-71121485D01*
X157066667Y-71454819D02*
X157066667Y-70788152D01*
X157066667Y-70978628D02*
X157114286Y-70883390D01*
X157114286Y-70883390D02*
X157161905Y-70835771D01*
X157161905Y-70835771D02*
X157257143Y-70788152D01*
X157257143Y-70788152D02*
X157352381Y-70788152D01*
X157638096Y-71407200D02*
X157733334Y-71454819D01*
X157733334Y-71454819D02*
X157923810Y-71454819D01*
X157923810Y-71454819D02*
X158019048Y-71407200D01*
X158019048Y-71407200D02*
X158066667Y-71311961D01*
X158066667Y-71311961D02*
X158066667Y-71264342D01*
X158066667Y-71264342D02*
X158019048Y-71169104D01*
X158019048Y-71169104D02*
X157923810Y-71121485D01*
X157923810Y-71121485D02*
X157780953Y-71121485D01*
X157780953Y-71121485D02*
X157685715Y-71073866D01*
X157685715Y-71073866D02*
X157638096Y-70978628D01*
X157638096Y-70978628D02*
X157638096Y-70931009D01*
X157638096Y-70931009D02*
X157685715Y-70835771D01*
X157685715Y-70835771D02*
X157780953Y-70788152D01*
X157780953Y-70788152D02*
X157923810Y-70788152D01*
X157923810Y-70788152D02*
X158019048Y-70835771D01*
X158495239Y-71454819D02*
X158495239Y-70788152D01*
X158495239Y-70454819D02*
X158447620Y-70502438D01*
X158447620Y-70502438D02*
X158495239Y-70550057D01*
X158495239Y-70550057D02*
X158542858Y-70502438D01*
X158542858Y-70502438D02*
X158495239Y-70454819D01*
X158495239Y-70454819D02*
X158495239Y-70550057D01*
X159114286Y-71454819D02*
X159019048Y-71407200D01*
X159019048Y-71407200D02*
X158971429Y-71359580D01*
X158971429Y-71359580D02*
X158923810Y-71264342D01*
X158923810Y-71264342D02*
X158923810Y-70978628D01*
X158923810Y-70978628D02*
X158971429Y-70883390D01*
X158971429Y-70883390D02*
X159019048Y-70835771D01*
X159019048Y-70835771D02*
X159114286Y-70788152D01*
X159114286Y-70788152D02*
X159257143Y-70788152D01*
X159257143Y-70788152D02*
X159352381Y-70835771D01*
X159352381Y-70835771D02*
X159400000Y-70883390D01*
X159400000Y-70883390D02*
X159447619Y-70978628D01*
X159447619Y-70978628D02*
X159447619Y-71264342D01*
X159447619Y-71264342D02*
X159400000Y-71359580D01*
X159400000Y-71359580D02*
X159352381Y-71407200D01*
X159352381Y-71407200D02*
X159257143Y-71454819D01*
X159257143Y-71454819D02*
X159114286Y-71454819D01*
X159876191Y-70788152D02*
X159876191Y-71454819D01*
X159876191Y-70883390D02*
X159923810Y-70835771D01*
X159923810Y-70835771D02*
X160019048Y-70788152D01*
X160019048Y-70788152D02*
X160161905Y-70788152D01*
X160161905Y-70788152D02*
X160257143Y-70835771D01*
X160257143Y-70835771D02*
X160304762Y-70931009D01*
X160304762Y-70931009D02*
X160304762Y-71454819D01*
X162066667Y-71454819D02*
X161495239Y-71454819D01*
X161780953Y-71454819D02*
X161780953Y-70454819D01*
X161780953Y-70454819D02*
X161685715Y-70597676D01*
X161685715Y-70597676D02*
X161590477Y-70692914D01*
X161590477Y-70692914D02*
X161495239Y-70740533D01*
X162495239Y-71359580D02*
X162542858Y-71407200D01*
X162542858Y-71407200D02*
X162495239Y-71454819D01*
X162495239Y-71454819D02*
X162447620Y-71407200D01*
X162447620Y-71407200D02*
X162495239Y-71359580D01*
X162495239Y-71359580D02*
X162495239Y-71454819D01*
X163161905Y-70454819D02*
X163257143Y-70454819D01*
X163257143Y-70454819D02*
X163352381Y-70502438D01*
X163352381Y-70502438D02*
X163400000Y-70550057D01*
X163400000Y-70550057D02*
X163447619Y-70645295D01*
X163447619Y-70645295D02*
X163495238Y-70835771D01*
X163495238Y-70835771D02*
X163495238Y-71073866D01*
X163495238Y-71073866D02*
X163447619Y-71264342D01*
X163447619Y-71264342D02*
X163400000Y-71359580D01*
X163400000Y-71359580D02*
X163352381Y-71407200D01*
X163352381Y-71407200D02*
X163257143Y-71454819D01*
X163257143Y-71454819D02*
X163161905Y-71454819D01*
X163161905Y-71454819D02*
X163066667Y-71407200D01*
X163066667Y-71407200D02*
X163019048Y-71359580D01*
X163019048Y-71359580D02*
X162971429Y-71264342D01*
X162971429Y-71264342D02*
X162923810Y-71073866D01*
X162923810Y-71073866D02*
X162923810Y-70835771D01*
X162923810Y-70835771D02*
X162971429Y-70645295D01*
X162971429Y-70645295D02*
X163019048Y-70550057D01*
X163019048Y-70550057D02*
X163066667Y-70502438D01*
X163066667Y-70502438D02*
X163161905Y-70454819D01*
X144241666Y-111255451D02*
X143908333Y-111255451D01*
X143908333Y-111779261D02*
X143908333Y-110779261D01*
X143908333Y-110779261D02*
X144384523Y-110779261D01*
X144717857Y-110874499D02*
X144765476Y-110826880D01*
X144765476Y-110826880D02*
X144860714Y-110779261D01*
X144860714Y-110779261D02*
X145098809Y-110779261D01*
X145098809Y-110779261D02*
X145194047Y-110826880D01*
X145194047Y-110826880D02*
X145241666Y-110874499D01*
X145241666Y-110874499D02*
X145289285Y-110969737D01*
X145289285Y-110969737D02*
X145289285Y-111064975D01*
X145289285Y-111064975D02*
X145241666Y-111207832D01*
X145241666Y-111207832D02*
X144670238Y-111779261D01*
X144670238Y-111779261D02*
X145289285Y-111779261D01*
X111533333Y-85759580D02*
X111485714Y-85807200D01*
X111485714Y-85807200D02*
X111342857Y-85854819D01*
X111342857Y-85854819D02*
X111247619Y-85854819D01*
X111247619Y-85854819D02*
X111104762Y-85807200D01*
X111104762Y-85807200D02*
X111009524Y-85711961D01*
X111009524Y-85711961D02*
X110961905Y-85616723D01*
X110961905Y-85616723D02*
X110914286Y-85426247D01*
X110914286Y-85426247D02*
X110914286Y-85283390D01*
X110914286Y-85283390D02*
X110961905Y-85092914D01*
X110961905Y-85092914D02*
X111009524Y-84997676D01*
X111009524Y-84997676D02*
X111104762Y-84902438D01*
X111104762Y-84902438D02*
X111247619Y-84854819D01*
X111247619Y-84854819D02*
X111342857Y-84854819D01*
X111342857Y-84854819D02*
X111485714Y-84902438D01*
X111485714Y-84902438D02*
X111533333Y-84950057D01*
X111866667Y-84854819D02*
X112485714Y-84854819D01*
X112485714Y-84854819D02*
X112152381Y-85235771D01*
X112152381Y-85235771D02*
X112295238Y-85235771D01*
X112295238Y-85235771D02*
X112390476Y-85283390D01*
X112390476Y-85283390D02*
X112438095Y-85331009D01*
X112438095Y-85331009D02*
X112485714Y-85426247D01*
X112485714Y-85426247D02*
X112485714Y-85664342D01*
X112485714Y-85664342D02*
X112438095Y-85759580D01*
X112438095Y-85759580D02*
X112390476Y-85807200D01*
X112390476Y-85807200D02*
X112295238Y-85854819D01*
X112295238Y-85854819D02*
X112009524Y-85854819D01*
X112009524Y-85854819D02*
X111914286Y-85807200D01*
X111914286Y-85807200D02*
X111866667Y-85759580D01*
X107070138Y-89261685D02*
X107022519Y-89309305D01*
X107022519Y-89309305D02*
X106879662Y-89356924D01*
X106879662Y-89356924D02*
X106784424Y-89356924D01*
X106784424Y-89356924D02*
X106641567Y-89309305D01*
X106641567Y-89309305D02*
X106546329Y-89214066D01*
X106546329Y-89214066D02*
X106498710Y-89118828D01*
X106498710Y-89118828D02*
X106451091Y-88928352D01*
X106451091Y-88928352D02*
X106451091Y-88785495D01*
X106451091Y-88785495D02*
X106498710Y-88595019D01*
X106498710Y-88595019D02*
X106546329Y-88499781D01*
X106546329Y-88499781D02*
X106641567Y-88404543D01*
X106641567Y-88404543D02*
X106784424Y-88356924D01*
X106784424Y-88356924D02*
X106879662Y-88356924D01*
X106879662Y-88356924D02*
X107022519Y-88404543D01*
X107022519Y-88404543D02*
X107070138Y-88452162D01*
X107927281Y-88690257D02*
X107927281Y-89356924D01*
X107689186Y-88309305D02*
X107451091Y-89023590D01*
X107451091Y-89023590D02*
X108070138Y-89023590D01*
X179366666Y-114154819D02*
X179366666Y-114869104D01*
X179366666Y-114869104D02*
X179319047Y-115011961D01*
X179319047Y-115011961D02*
X179223809Y-115107200D01*
X179223809Y-115107200D02*
X179080952Y-115154819D01*
X179080952Y-115154819D02*
X178985714Y-115154819D01*
X179747619Y-114154819D02*
X180366666Y-114154819D01*
X180366666Y-114154819D02*
X180033333Y-114535771D01*
X180033333Y-114535771D02*
X180176190Y-114535771D01*
X180176190Y-114535771D02*
X180271428Y-114583390D01*
X180271428Y-114583390D02*
X180319047Y-114631009D01*
X180319047Y-114631009D02*
X180366666Y-114726247D01*
X180366666Y-114726247D02*
X180366666Y-114964342D01*
X180366666Y-114964342D02*
X180319047Y-115059580D01*
X180319047Y-115059580D02*
X180271428Y-115107200D01*
X180271428Y-115107200D02*
X180176190Y-115154819D01*
X180176190Y-115154819D02*
X179890476Y-115154819D01*
X179890476Y-115154819D02*
X179795238Y-115107200D01*
X179795238Y-115107200D02*
X179747619Y-115059580D01*
X175089700Y-114660870D02*
X175089700Y-113518013D01*
X175089700Y-103660870D02*
X175089700Y-102518013D01*
X175661128Y-103089441D02*
X174518271Y-103089441D01*
X94066666Y-106654819D02*
X94066666Y-107369104D01*
X94066666Y-107369104D02*
X94019047Y-107511961D01*
X94019047Y-107511961D02*
X93923809Y-107607200D01*
X93923809Y-107607200D02*
X93780952Y-107654819D01*
X93780952Y-107654819D02*
X93685714Y-107654819D01*
X94495238Y-106750057D02*
X94542857Y-106702438D01*
X94542857Y-106702438D02*
X94638095Y-106654819D01*
X94638095Y-106654819D02*
X94876190Y-106654819D01*
X94876190Y-106654819D02*
X94971428Y-106702438D01*
X94971428Y-106702438D02*
X95019047Y-106750057D01*
X95019047Y-106750057D02*
X95066666Y-106845295D01*
X95066666Y-106845295D02*
X95066666Y-106940533D01*
X95066666Y-106940533D02*
X95019047Y-107083390D01*
X95019047Y-107083390D02*
X94447619Y-107654819D01*
X94447619Y-107654819D02*
X95066666Y-107654819D01*
X99189700Y-95960870D02*
X99189700Y-94818013D01*
X99189700Y-106960870D02*
X99189700Y-105818013D01*
X99761128Y-106389441D02*
X98618271Y-106389441D01*
X94066666Y-75554819D02*
X94066666Y-76269104D01*
X94066666Y-76269104D02*
X94019047Y-76411961D01*
X94019047Y-76411961D02*
X93923809Y-76507200D01*
X93923809Y-76507200D02*
X93780952Y-76554819D01*
X93780952Y-76554819D02*
X93685714Y-76554819D01*
X95066666Y-76554819D02*
X94495238Y-76554819D01*
X94780952Y-76554819D02*
X94780952Y-75554819D01*
X94780952Y-75554819D02*
X94685714Y-75697676D01*
X94685714Y-75697676D02*
X94590476Y-75792914D01*
X94590476Y-75792914D02*
X94495238Y-75840533D01*
X99189700Y-77260870D02*
X99189700Y-76118013D01*
X99189700Y-88260870D02*
X99189700Y-87118013D01*
X99761128Y-87689441D02*
X98618271Y-87689441D01*
X175066666Y-80954819D02*
X175066666Y-81669104D01*
X175066666Y-81669104D02*
X175019047Y-81811961D01*
X175019047Y-81811961D02*
X174923809Y-81907200D01*
X174923809Y-81907200D02*
X174780952Y-81954819D01*
X174780952Y-81954819D02*
X174685714Y-81954819D01*
X175971428Y-81288152D02*
X175971428Y-81954819D01*
X175733333Y-80907200D02*
X175495238Y-81621485D01*
X175495238Y-81621485D02*
X176114285Y-81621485D01*
X115533333Y-100459580D02*
X115485714Y-100507200D01*
X115485714Y-100507200D02*
X115342857Y-100554819D01*
X115342857Y-100554819D02*
X115247619Y-100554819D01*
X115247619Y-100554819D02*
X115104762Y-100507200D01*
X115104762Y-100507200D02*
X115009524Y-100411961D01*
X115009524Y-100411961D02*
X114961905Y-100316723D01*
X114961905Y-100316723D02*
X114914286Y-100126247D01*
X114914286Y-100126247D02*
X114914286Y-99983390D01*
X114914286Y-99983390D02*
X114961905Y-99792914D01*
X114961905Y-99792914D02*
X115009524Y-99697676D01*
X115009524Y-99697676D02*
X115104762Y-99602438D01*
X115104762Y-99602438D02*
X115247619Y-99554819D01*
X115247619Y-99554819D02*
X115342857Y-99554819D01*
X115342857Y-99554819D02*
X115485714Y-99602438D01*
X115485714Y-99602438D02*
X115533333Y-99650057D01*
X116485714Y-100554819D02*
X115914286Y-100554819D01*
X116200000Y-100554819D02*
X116200000Y-99554819D01*
X116200000Y-99554819D02*
X116104762Y-99697676D01*
X116104762Y-99697676D02*
X116009524Y-99792914D01*
X116009524Y-99792914D02*
X115914286Y-99840533D01*
X172308333Y-84365772D02*
X172260714Y-84413392D01*
X172260714Y-84413392D02*
X172117857Y-84461011D01*
X172117857Y-84461011D02*
X172022619Y-84461011D01*
X172022619Y-84461011D02*
X171879762Y-84413392D01*
X171879762Y-84413392D02*
X171784524Y-84318153D01*
X171784524Y-84318153D02*
X171736905Y-84222915D01*
X171736905Y-84222915D02*
X171689286Y-84032439D01*
X171689286Y-84032439D02*
X171689286Y-83889582D01*
X171689286Y-83889582D02*
X171736905Y-83699106D01*
X171736905Y-83699106D02*
X171784524Y-83603868D01*
X171784524Y-83603868D02*
X171879762Y-83508630D01*
X171879762Y-83508630D02*
X172022619Y-83461011D01*
X172022619Y-83461011D02*
X172117857Y-83461011D01*
X172117857Y-83461011D02*
X172260714Y-83508630D01*
X172260714Y-83508630D02*
X172308333Y-83556249D01*
X173213095Y-83461011D02*
X172736905Y-83461011D01*
X172736905Y-83461011D02*
X172689286Y-83937201D01*
X172689286Y-83937201D02*
X172736905Y-83889582D01*
X172736905Y-83889582D02*
X172832143Y-83841963D01*
X172832143Y-83841963D02*
X173070238Y-83841963D01*
X173070238Y-83841963D02*
X173165476Y-83889582D01*
X173165476Y-83889582D02*
X173213095Y-83937201D01*
X173213095Y-83937201D02*
X173260714Y-84032439D01*
X173260714Y-84032439D02*
X173260714Y-84270534D01*
X173260714Y-84270534D02*
X173213095Y-84365772D01*
X173213095Y-84365772D02*
X173165476Y-84413392D01*
X173165476Y-84413392D02*
X173070238Y-84461011D01*
X173070238Y-84461011D02*
X172832143Y-84461011D01*
X172832143Y-84461011D02*
X172736905Y-84413392D01*
X172736905Y-84413392D02*
X172689286Y-84365772D01*
X149141666Y-73220451D02*
X148808333Y-73220451D01*
X148808333Y-73744261D02*
X148808333Y-72744261D01*
X148808333Y-72744261D02*
X149284523Y-72744261D01*
X150189285Y-73744261D02*
X149617857Y-73744261D01*
X149903571Y-73744261D02*
X149903571Y-72744261D01*
X149903571Y-72744261D02*
X149808333Y-72887118D01*
X149808333Y-72887118D02*
X149713095Y-72982356D01*
X149713095Y-72982356D02*
X149617857Y-73029975D01*
X107279656Y-100791103D02*
X106946323Y-100791103D01*
X106946323Y-101314913D02*
X106946323Y-100314913D01*
X106946323Y-100314913D02*
X107422513Y-100314913D01*
X107708228Y-100314913D02*
X108327275Y-100314913D01*
X108327275Y-100314913D02*
X107993942Y-100695865D01*
X107993942Y-100695865D02*
X108136799Y-100695865D01*
X108136799Y-100695865D02*
X108232037Y-100743484D01*
X108232037Y-100743484D02*
X108279656Y-100791103D01*
X108279656Y-100791103D02*
X108327275Y-100886341D01*
X108327275Y-100886341D02*
X108327275Y-101124436D01*
X108327275Y-101124436D02*
X108279656Y-101219674D01*
X108279656Y-101219674D02*
X108232037Y-101267294D01*
X108232037Y-101267294D02*
X108136799Y-101314913D01*
X108136799Y-101314913D02*
X107851085Y-101314913D01*
X107851085Y-101314913D02*
X107755847Y-101267294D01*
X107755847Y-101267294D02*
X107708228Y-101219674D01*
X124446323Y-100619674D02*
X124398704Y-100667294D01*
X124398704Y-100667294D02*
X124255847Y-100714913D01*
X124255847Y-100714913D02*
X124160609Y-100714913D01*
X124160609Y-100714913D02*
X124017752Y-100667294D01*
X124017752Y-100667294D02*
X123922514Y-100572055D01*
X123922514Y-100572055D02*
X123874895Y-100476817D01*
X123874895Y-100476817D02*
X123827276Y-100286341D01*
X123827276Y-100286341D02*
X123827276Y-100143484D01*
X123827276Y-100143484D02*
X123874895Y-99953008D01*
X123874895Y-99953008D02*
X123922514Y-99857770D01*
X123922514Y-99857770D02*
X124017752Y-99762532D01*
X124017752Y-99762532D02*
X124160609Y-99714913D01*
X124160609Y-99714913D02*
X124255847Y-99714913D01*
X124255847Y-99714913D02*
X124398704Y-99762532D01*
X124398704Y-99762532D02*
X124446323Y-99810151D01*
X124827276Y-99810151D02*
X124874895Y-99762532D01*
X124874895Y-99762532D02*
X124970133Y-99714913D01*
X124970133Y-99714913D02*
X125208228Y-99714913D01*
X125208228Y-99714913D02*
X125303466Y-99762532D01*
X125303466Y-99762532D02*
X125351085Y-99810151D01*
X125351085Y-99810151D02*
X125398704Y-99905389D01*
X125398704Y-99905389D02*
X125398704Y-100000627D01*
X125398704Y-100000627D02*
X125351085Y-100143484D01*
X125351085Y-100143484D02*
X124779657Y-100714913D01*
X124779657Y-100714913D02*
X125398704Y-100714913D01*
X116778095Y-91564819D02*
X116778095Y-92374342D01*
X116778095Y-92374342D02*
X116825714Y-92469580D01*
X116825714Y-92469580D02*
X116873333Y-92517200D01*
X116873333Y-92517200D02*
X116968571Y-92564819D01*
X116968571Y-92564819D02*
X117159047Y-92564819D01*
X117159047Y-92564819D02*
X117254285Y-92517200D01*
X117254285Y-92517200D02*
X117301904Y-92469580D01*
X117301904Y-92469580D02*
X117349523Y-92374342D01*
X117349523Y-92374342D02*
X117349523Y-91564819D01*
X118349523Y-92564819D02*
X117778095Y-92564819D01*
X118063809Y-92564819D02*
X118063809Y-91564819D01*
X118063809Y-91564819D02*
X117968571Y-91707676D01*
X117968571Y-91707676D02*
X117873333Y-91802914D01*
X117873333Y-91802914D02*
X117778095Y-91850533D01*
X124096323Y-80664913D02*
X123620133Y-80664913D01*
X123620133Y-80664913D02*
X123620133Y-79664913D01*
X124953466Y-80664913D02*
X124382038Y-80664913D01*
X124667752Y-80664913D02*
X124667752Y-79664913D01*
X124667752Y-79664913D02*
X124572514Y-79807770D01*
X124572514Y-79807770D02*
X124477276Y-79903008D01*
X124477276Y-79903008D02*
X124382038Y-79950627D01*
%TO.C,F2*%
X148185000Y-90374442D02*
X141165000Y-90374442D01*
X141165000Y-90374442D02*
X141165000Y-110474442D01*
X148185000Y-110474442D02*
X148185000Y-90374442D01*
X141165000Y-110474442D02*
X148185000Y-110474442D01*
%TO.C,C3*%
X115780000Y-82570000D02*
X115780000Y-87830000D01*
X115470000Y-82570000D02*
X115780000Y-82570000D01*
X113020000Y-82570000D02*
X113330000Y-82570000D01*
X115780000Y-87830000D02*
X115470000Y-87830000D01*
X113330000Y-87830000D02*
X113020000Y-87830000D01*
X113020000Y-87830000D02*
X113020000Y-82570000D01*
D11*
%TO.C,C4*%
X103363305Y-89927205D02*
X111110305Y-89927205D01*
X103363305Y-94677005D02*
X103363305Y-89927205D01*
X103363305Y-94677005D02*
X111110305Y-94677005D01*
X111110305Y-94677005D02*
X111110305Y-89927205D01*
%TO.C,MDB1*%
D10*
X148975000Y-110309442D02*
X169535000Y-110309442D01*
X169535000Y-77049442D01*
X148975000Y-77049442D01*
X148975000Y-110309442D01*
%TO.C,J3*%
X186105000Y-102949442D02*
X186105000Y-103509442D01*
X183845000Y-102949442D02*
X183845000Y-103509442D01*
X188205000Y-103509442D02*
X186105000Y-103509442D01*
X188205000Y-103509442D02*
X188205000Y-113669442D01*
X183845000Y-103509442D02*
X178945000Y-103509442D01*
X178945000Y-103509442D02*
X178945000Y-113669442D01*
X188205000Y-113669442D02*
X186105000Y-113669442D01*
X186105000Y-113669442D02*
X186105000Y-114229442D01*
X183845000Y-113669442D02*
X178945000Y-113669442D01*
X183845000Y-113669442D02*
X183845000Y-114229442D01*
X183845000Y-102939442D02*
G75*
G02*
X186105000Y-102939442I1130000J0D01*
G01*
X186105000Y-114239442D02*
G75*
G02*
X183845000Y-114239442I-1130000J0D01*
G01*
%TO.C,J2*%
X87945000Y-106529442D02*
X87945000Y-105969442D01*
X90205000Y-106529442D02*
X90205000Y-105969442D01*
X85845000Y-105969442D02*
X87945000Y-105969442D01*
X85845000Y-105969442D02*
X85845000Y-95809442D01*
X90205000Y-105969442D02*
X95105000Y-105969442D01*
X95105000Y-105969442D02*
X95105000Y-95809442D01*
X85845000Y-95809442D02*
X87945000Y-95809442D01*
X87945000Y-95809442D02*
X87945000Y-95249442D01*
X90205000Y-95809442D02*
X95105000Y-95809442D01*
X90205000Y-95809442D02*
X90205000Y-95249442D01*
X90205000Y-106539442D02*
G75*
G02*
X87945000Y-106539442I-1130000J0D01*
G01*
X87945000Y-95239442D02*
G75*
G02*
X90205000Y-95239442I1130000J0D01*
G01*
%TO.C,J1*%
X87945000Y-87829442D02*
X87945000Y-87269442D01*
X90205000Y-87829442D02*
X90205000Y-87269442D01*
X85845000Y-87269442D02*
X87945000Y-87269442D01*
X85845000Y-87269442D02*
X85845000Y-77109442D01*
X90205000Y-87269442D02*
X95105000Y-87269442D01*
X95105000Y-87269442D02*
X95105000Y-77109442D01*
X85845000Y-77109442D02*
X87945000Y-77109442D01*
X87945000Y-77109442D02*
X87945000Y-76549442D01*
X90205000Y-77109442D02*
X95105000Y-77109442D01*
X90205000Y-77109442D02*
X90205000Y-76549442D01*
X90205000Y-87839442D02*
G75*
G02*
X87945000Y-87839442I-1130000J0D01*
G01*
X87945000Y-76539442D02*
G75*
G02*
X90205000Y-76539442I1130000J0D01*
G01*
%TO.C,J4*%
X176445000Y-82269442D02*
X176445000Y-80809442D01*
X188185000Y-82269442D02*
X176445000Y-82269442D01*
X176445000Y-80809442D02*
X180945000Y-80809442D01*
X178375000Y-79989442D02*
X178375000Y-79389442D01*
X182075000Y-79939442D02*
X187575000Y-79939442D01*
X187575000Y-79939442D02*
X187575000Y-79439442D01*
X178975000Y-79689442D02*
X178375000Y-79989442D01*
X182075000Y-79439442D02*
X182075000Y-79939442D01*
X187575000Y-79439442D02*
X182075000Y-79439442D01*
X178375000Y-79389442D02*
X178975000Y-79689442D01*
X182075000Y-77439442D02*
X187575000Y-77439442D01*
X187575000Y-77439442D02*
X187575000Y-76939442D01*
X182075000Y-76939442D02*
X182075000Y-77439442D01*
X187575000Y-76939442D02*
X182075000Y-76939442D01*
X182075000Y-74939442D02*
X187575000Y-74939442D01*
X187575000Y-74939442D02*
X187575000Y-74439442D01*
X182075000Y-74439442D02*
X182075000Y-74939442D01*
X187575000Y-74439442D02*
X182075000Y-74439442D01*
X182075000Y-72439442D02*
X187575000Y-72439442D01*
X187575000Y-72439442D02*
X187575000Y-71939442D01*
X182075000Y-71939442D02*
X182075000Y-72439442D01*
X187575000Y-71939442D02*
X182075000Y-71939442D01*
X176445000Y-71069442D02*
X180945000Y-71069442D01*
X176445000Y-69609442D02*
X176445000Y-71069442D01*
X188205000Y-69609442D02*
X188205000Y-82269442D01*
X188205000Y-69609442D02*
X176445000Y-69609442D01*
D11*
%TO.C,C1*%
X112817100Y-94679100D02*
X112817100Y-95856172D01*
X112817100Y-97743828D02*
X112817100Y-98920900D01*
X118582900Y-94679100D02*
X112817100Y-94679100D01*
X118582900Y-94679100D02*
X118582900Y-95856172D01*
X118582900Y-97743828D02*
X118582900Y-98920900D01*
X118582900Y-98920900D02*
X112817100Y-98920900D01*
%TO.C,C5*%
X186819632Y-84611560D02*
X185921607Y-85509585D01*
X186819632Y-85509585D02*
X185921607Y-84611560D01*
X188506300Y-92056192D02*
G75*
G02*
X170243700Y-92056192I-9131300J0D01*
G01*
X170243700Y-92056192D02*
G75*
G02*
X188506300Y-92056192I9131300J0D01*
G01*
D10*
%TO.C,F1*%
X141165000Y-89774442D02*
X148185000Y-89774442D01*
X148185000Y-89774442D02*
X148185000Y-69674442D01*
X141165000Y-69674442D02*
X141165000Y-89774442D01*
X148185000Y-69674442D02*
X141165000Y-69674442D01*
%TO.C,MCB1*%
X140420000Y-69464442D02*
X85160000Y-69464442D01*
X85160000Y-113724442D01*
X140420000Y-113724442D01*
X140420000Y-69464442D01*
X139740000Y-71164442D02*
X88180000Y-71164442D01*
X88180000Y-73924442D01*
X139740000Y-73924442D01*
X139740000Y-71164442D01*
X137200000Y-109264442D02*
X85640000Y-109264442D01*
X85640000Y-112024442D01*
X137200000Y-112024442D01*
X137200000Y-109264442D01*
D11*
%TO.C,F3*%
X112059490Y-99480994D02*
X112059490Y-95239194D01*
X103296490Y-99480994D02*
X112059490Y-99480994D01*
X103296490Y-99480994D02*
X103296490Y-95239194D01*
X103296490Y-95239194D02*
X112059490Y-95239194D01*
%TO.C,C2*%
X128486490Y-99034994D02*
X128486490Y-94285194D01*
X120739490Y-99034994D02*
X128486490Y-99034994D01*
X120739490Y-99034994D02*
X120739490Y-94285194D01*
X120739490Y-94285194D02*
X128486490Y-94285194D01*
D10*
%TO.C,U1*%
X113665490Y-90520094D02*
X115485490Y-90520094D01*
X113665490Y-90570094D02*
X113665490Y-90520094D01*
X113665490Y-93690094D02*
X113665490Y-93640094D01*
X115485490Y-90520094D02*
X115485490Y-90570094D01*
X115485490Y-93640094D02*
X115485490Y-93690094D01*
X115485490Y-93690094D02*
X113665490Y-93690094D01*
X113125490Y-90600094D02*
X112885490Y-90270094D01*
X113365490Y-90270094D01*
X113125490Y-90600094D01*
G36*
X113125490Y-90600094D02*
G01*
X112885490Y-90270094D01*
X113365490Y-90270094D01*
X113125490Y-90600094D01*
G37*
%TO.C,L1*%
X118622990Y-91600094D02*
X118622990Y-88470094D01*
X118622990Y-91600094D02*
X129902990Y-91600094D01*
X124267990Y-81320094D02*
X129902990Y-81320094D01*
X129902990Y-81320094D02*
X129902990Y-84450094D01*
X129902990Y-91600094D02*
X129902990Y-88470094D01*
%TD*%
M02*
