%TF.GenerationSoftware,KiCad,Pcbnew,9.0.5*%
%TF.CreationDate,2026-01-31T21:14:51-07:00*%
%TF.ProjectId,Motor_Controller_Carrier_Board,4d6f746f-725f-4436-9f6e-74726f6c6c65,rev?*%
%TF.SameCoordinates,Original*%
%TF.FileFunction,Soldermask,Top*%
%TF.FilePolarity,Negative*%
%FSLAX46Y46*%
G04 Gerber Fmt 4.6, Leading zero omitted, Abs format (unit mm)*
G04 Created by KiCad (PCBNEW 9.0.5) date 2026-01-31 21:14:51*
%MOMM*%
%LPD*%
G01*
G04 APERTURE LIST*
G04 Aperture macros list*
%AMRoundRect*
0 Rectangle with rounded corners*
0 $1 Rounding radius*
0 $2 $3 $4 $5 $6 $7 $8 $9 X,Y pos of 4 corners*
0 Add a 4 corners polygon primitive as box body*
4,1,4,$2,$3,$4,$5,$6,$7,$8,$9,$2,$3,0*
0 Add four circle primitives for the rounded corners*
1,1,$1+$1,$2,$3*
1,1,$1+$1,$4,$5*
1,1,$1+$1,$6,$7*
1,1,$1+$1,$8,$9*
0 Add four rect primitives between the rounded corners*
20,1,$1+$1,$2,$3,$4,$5,0*
20,1,$1+$1,$4,$5,$6,$7,0*
20,1,$1+$1,$6,$7,$8,$9,0*
20,1,$1+$1,$8,$9,$2,$3,0*%
G04 Aperture macros list end*
%ADD10C,2.604000*%
%ADD11C,1.600000*%
%ADD12C,1.371600*%
%ADD13C,2.180000*%
%ADD14C,4.000000*%
%ADD15C,1.400000*%
%ADD16RoundRect,0.770000X-0.980000X0.980000X-0.980000X-0.980000X0.980000X-0.980000X0.980000X0.980000X0*%
%ADD17C,3.500000*%
%ADD18RoundRect,0.770000X0.980000X-0.980000X0.980000X0.980000X-0.980000X0.980000X-0.980000X-0.980000X0*%
%ADD19RoundRect,0.250000X0.725000X-0.600000X0.725000X0.600000X-0.725000X0.600000X-0.725000X-0.600000X0*%
%ADD20O,1.950000X1.700000*%
%ADD21C,1.574800*%
%ADD22C,1.734000*%
%ADD23R,1.625600X1.625600*%
%ADD24C,1.625600*%
%ADD25C,3.200000*%
%ADD26RoundRect,0.150000X-0.512500X-0.150000X0.512500X-0.150000X0.512500X0.150000X-0.512500X0.150000X0*%
%ADD27R,4.100000X3.500000*%
G04 APERTURE END LIST*
D10*
%TO.C,F2*%
X146375000Y-93689442D03*
X142975000Y-93689442D03*
X146375000Y-107159442D03*
X142975000Y-107159442D03*
%TD*%
D11*
%TO.C,C3*%
X114400000Y-82700000D03*
X114400000Y-87700000D03*
%TD*%
D12*
%TO.C,C4*%
X104736805Y-92302105D03*
X109736805Y-92302105D03*
%TD*%
D13*
%TO.C,MDB1*%
X167105000Y-101879442D03*
X151405000Y-86079442D03*
D11*
X150375000Y-108909442D03*
X152915000Y-108909442D03*
X155455000Y-108909442D03*
X157995000Y-108909442D03*
X160535000Y-108909442D03*
X163075000Y-108909442D03*
X165615000Y-108909442D03*
X168155000Y-108909442D03*
X150375000Y-106369442D03*
X150375000Y-103829442D03*
X167245000Y-97859442D03*
X150375000Y-92879442D03*
X150355000Y-80989442D03*
D14*
X151745000Y-79469442D03*
D11*
X152895000Y-80989442D03*
X155435000Y-80989442D03*
D14*
X156745000Y-79469442D03*
D11*
X157975000Y-80989442D03*
X160515000Y-80989442D03*
D14*
X161745000Y-79469442D03*
D11*
X163055000Y-80989442D03*
X165595000Y-80989442D03*
D14*
X166745000Y-79469442D03*
D11*
X168135000Y-80989442D03*
%TD*%
D15*
%TO.C,J3*%
X184975000Y-103089442D03*
X184975000Y-114089442D03*
D16*
X174975000Y-111089442D03*
D17*
X174975000Y-106089442D03*
%TD*%
D15*
%TO.C,J2*%
X89075000Y-106389442D03*
X89075000Y-95389442D03*
D18*
X99075000Y-98389442D03*
D17*
X99075000Y-103389442D03*
%TD*%
D15*
%TO.C,J1*%
X89075000Y-87689442D03*
X89075000Y-76689442D03*
D18*
X99075000Y-79689442D03*
D17*
X99075000Y-84689442D03*
%TD*%
D19*
%TO.C,J4*%
X180475000Y-79689442D03*
D20*
X180475000Y-77189442D03*
X180475000Y-74689442D03*
X180475000Y-72189442D03*
%TD*%
D12*
%TO.C,C1*%
X113200000Y-96800000D03*
X118200000Y-96800000D03*
%TD*%
D21*
%TO.C,C5*%
X179375000Y-88306192D03*
X179375000Y-95806192D03*
%TD*%
D10*
%TO.C,F1*%
X142975000Y-86459442D03*
X146375000Y-86459442D03*
X142975000Y-72989442D03*
X146375000Y-72989442D03*
%TD*%
D22*
%TO.C,MCB1*%
X138090000Y-72544442D03*
X135550000Y-72544442D03*
X133010000Y-72544442D03*
X130470000Y-72544442D03*
X127930000Y-72544442D03*
X125390000Y-72544442D03*
X122850000Y-72544442D03*
X120310000Y-72544442D03*
X117770000Y-72544442D03*
X115230000Y-72544442D03*
X112690000Y-72544442D03*
X110150000Y-72544442D03*
X107610000Y-72544442D03*
X105070000Y-72544442D03*
X102530000Y-72544442D03*
X99990000Y-72544442D03*
X97450000Y-72544442D03*
X94910000Y-72544442D03*
X92370000Y-72544442D03*
X89830000Y-72544442D03*
X135550000Y-110644442D03*
X133010000Y-110644442D03*
X130470000Y-110644442D03*
X127930000Y-110644442D03*
X125390000Y-110644442D03*
X122850000Y-110644442D03*
X120310000Y-110644442D03*
X117770000Y-110644442D03*
X115230000Y-110644442D03*
X112690000Y-110644442D03*
X110150000Y-110644442D03*
X107610000Y-110644442D03*
X105070000Y-110644442D03*
X102530000Y-110644442D03*
X99990000Y-110644442D03*
X97450000Y-110644442D03*
X94910000Y-110644442D03*
X92370000Y-110644442D03*
X89830000Y-110644442D03*
X87290000Y-110644442D03*
%TD*%
D23*
%TO.C,F3*%
X110217990Y-97360094D03*
D24*
X105137990Y-97360094D03*
%TD*%
D12*
%TO.C,C2*%
X127112990Y-96660094D03*
X122112990Y-96660094D03*
%TD*%
D25*
%TO.C,REF\u002A\u002A*%
X172575000Y-74089442D03*
%TD*%
D26*
%TO.C,U1*%
X113437990Y-91160094D03*
X113437990Y-92110094D03*
X113437990Y-93060094D03*
X115712990Y-93060094D03*
X115712990Y-92110094D03*
X115712990Y-91160094D03*
%TD*%
D27*
%TO.C,L1*%
X119512990Y-86460094D03*
X129012990Y-86460094D03*
%TD*%
M02*
