%TF.GenerationSoftware,KiCad,Pcbnew,9.0.5*%
%TF.CreationDate,2026-01-31T21:14:51-07:00*%
%TF.ProjectId,Motor_Controller_Carrier_Board,4d6f746f-725f-4436-9f6e-74726f6c6c65,rev?*%
%TF.SameCoordinates,Original*%
%TF.FileFunction,Copper,L2,Bot*%
%TF.FilePolarity,Positive*%
%FSLAX46Y46*%
G04 Gerber Fmt 4.6, Leading zero omitted, Abs format (unit mm)*
G04 Created by KiCad (PCBNEW 9.0.5) date 2026-01-31 21:14:51*
%MOMM*%
%LPD*%
G01*
G04 APERTURE LIST*
G04 Aperture macros list*
%AMRoundRect*
0 Rectangle with rounded corners*
0 $1 Rounding radius*
0 $2 $3 $4 $5 $6 $7 $8 $9 X,Y pos of 4 corners*
0 Add a 4 corners polygon primitive as box body*
4,1,4,$2,$3,$4,$5,$6,$7,$8,$9,$2,$3,0*
0 Add four circle primitives for the rounded corners*
1,1,$1+$1,$2,$3*
1,1,$1+$1,$4,$5*
1,1,$1+$1,$6,$7*
1,1,$1+$1,$8,$9*
0 Add four rect primitives between the rounded corners*
20,1,$1+$1,$2,$3,$4,$5,0*
20,1,$1+$1,$4,$5,$6,$7,0*
20,1,$1+$1,$6,$7,$8,$9,0*
20,1,$1+$1,$8,$9,$2,$3,0*%
G04 Aperture macros list end*
%TA.AperFunction,ComponentPad*%
%ADD10C,2.400000*%
%TD*%
%TA.AperFunction,ComponentPad*%
%ADD11C,1.600000*%
%TD*%
%TA.AperFunction,ComponentPad*%
%ADD12C,1.371600*%
%TD*%
%TA.AperFunction,ComponentPad*%
%ADD13C,4.000000*%
%TD*%
%TA.AperFunction,ComponentPad*%
%ADD14C,1.400000*%
%TD*%
%TA.AperFunction,ComponentPad*%
%ADD15RoundRect,0.770000X-0.980000X0.980000X-0.980000X-0.980000X0.980000X-0.980000X0.980000X0.980000X0*%
%TD*%
%TA.AperFunction,ComponentPad*%
%ADD16C,3.500000*%
%TD*%
%TA.AperFunction,ComponentPad*%
%ADD17RoundRect,0.770000X0.980000X-0.980000X0.980000X0.980000X-0.980000X0.980000X-0.980000X-0.980000X0*%
%TD*%
%TA.AperFunction,ComponentPad*%
%ADD18RoundRect,0.250000X0.725000X-0.600000X0.725000X0.600000X-0.725000X0.600000X-0.725000X-0.600000X0*%
%TD*%
%TA.AperFunction,ComponentPad*%
%ADD19O,1.950000X1.700000*%
%TD*%
%TA.AperFunction,ComponentPad*%
%ADD20C,1.574800*%
%TD*%
%TA.AperFunction,ComponentPad*%
%ADD21C,1.530000*%
%TD*%
%TA.AperFunction,ComponentPad*%
%ADD22R,1.625600X1.625600*%
%TD*%
%TA.AperFunction,ComponentPad*%
%ADD23C,1.625600*%
%TD*%
%TA.AperFunction,ViaPad*%
%ADD24C,0.700000*%
%TD*%
%TA.AperFunction,Conductor*%
%ADD25C,0.500000*%
%TD*%
G04 APERTURE END LIST*
D10*
%TO.P,F2,1_1*%
%TO.N,Net-(J1-Pin_2)*%
X146375000Y-93689442D03*
%TO.P,F2,1_2*%
X142975000Y-93689442D03*
%TO.P,F2,2_1*%
%TO.N,Net-(J2-Pin_2)*%
X146375000Y-107159442D03*
%TO.P,F2,2_2*%
X142975000Y-107159442D03*
%TD*%
D11*
%TO.P,C3,1*%
%TO.N,/SW*%
X114400000Y-82700000D03*
%TO.P,C3,2*%
%TO.N,Net-(U1-BST)*%
X114400000Y-87700000D03*
%TD*%
D12*
%TO.P,C4,2*%
%TO.N,GND*%
X104736805Y-92302105D03*
%TO.P,C4,1*%
%TO.N,+3.3V*%
X109736805Y-92302105D03*
%TD*%
D11*
%TO.P,MDB1,1,GND*%
%TO.N,GND*%
X150375000Y-108909442D03*
%TO.P,MDB1,2,DIR*%
%TO.N,/DIR*%
X152915000Y-108909442D03*
%TO.P,MDB1,3,PWM*%
%TO.N,/PWM*%
X155455000Y-108909442D03*
%TO.P,MDB1,4,SLP*%
%TO.N,/SLP*%
X157995000Y-108909442D03*
%TO.P,MDB1,5,FLT*%
%TO.N,/FLT*%
X160535000Y-108909442D03*
%TO.P,MDB1,6,CS*%
%TO.N,/CS*%
X163075000Y-108909442D03*
%TO.P,MDB1,7,3V3*%
%TO.N,unconnected-(MDB1-3V3-Pad7)*%
X165615000Y-108909442D03*
%TO.P,MDB1,8,VM*%
%TO.N,unconnected-(MDB1-VM-Pad8)*%
X168155000Y-108909442D03*
%TO.P,MDB1,9,GND*%
%TO.N,GND*%
X150375000Y-106369442D03*
%TO.P,MDB1,10,VREF*%
%TO.N,unconnected-(MDB1-VREF-Pad10)*%
X150375000Y-103829442D03*
%TO.P,MDB1,11,GND*%
%TO.N,GND*%
X167245000Y-97859442D03*
%TO.P,MDB1,12,GND*%
X150375000Y-92879442D03*
%TO.P,MDB1,13,GND*%
X150355000Y-80989442D03*
D13*
%TO.P,MDB1,14,GND*%
X151745000Y-79469442D03*
D11*
%TO.P,MDB1,15,GND*%
X152895000Y-80989442D03*
%TO.P,MDB1,16,OUTB*%
%TO.N,Net-(J3-Pin_2)*%
X155435000Y-80989442D03*
D13*
%TO.P,MDB1,17,OUTB*%
X156745000Y-79469442D03*
D11*
%TO.P,MDB1,18,OUTB*%
X157975000Y-80989442D03*
%TO.P,MDB1,19,OUTA*%
%TO.N,Net-(J3-Pin_1)*%
X160515000Y-80989442D03*
D13*
%TO.P,MDB1,20,OUTA*%
X161745000Y-79469442D03*
D11*
%TO.P,MDB1,21,OUTA*%
X163055000Y-80989442D03*
%TO.P,MDB1,22,VIN*%
%TO.N,/DRIVER_PWR*%
X165595000Y-80989442D03*
D13*
%TO.P,MDB1,23,VIN*%
X166745000Y-79469442D03*
D11*
%TO.P,MDB1,24,VIN*%
X168135000Y-80989442D03*
%TD*%
D14*
%TO.P,J3,*%
%TO.N,*%
X184975000Y-103089442D03*
X184975000Y-114089442D03*
D15*
%TO.P,J3,1,Pin_1*%
%TO.N,Net-(J3-Pin_1)*%
X174975000Y-111089442D03*
D16*
%TO.P,J3,2,Pin_2*%
%TO.N,Net-(J3-Pin_2)*%
X174975000Y-106089442D03*
%TD*%
D14*
%TO.P,J2,*%
%TO.N,*%
X89075000Y-106389442D03*
X89075000Y-95389442D03*
D17*
%TO.P,J2,1,Pin_1*%
%TO.N,GND*%
X99075000Y-98389442D03*
D16*
%TO.P,J2,2,Pin_2*%
%TO.N,Net-(J2-Pin_2)*%
X99075000Y-103389442D03*
%TD*%
D14*
%TO.P,J1,*%
%TO.N,*%
X89075000Y-87689442D03*
X89075000Y-76689442D03*
D17*
%TO.P,J1,1,Pin_1*%
%TO.N,GND*%
X99075000Y-79689442D03*
D16*
%TO.P,J1,2,Pin_2*%
%TO.N,Net-(J1-Pin_2)*%
X99075000Y-84689442D03*
%TD*%
D18*
%TO.P,J4,1,B*%
%TO.N,/ENC_B*%
X180475000Y-79689442D03*
D19*
%TO.P,J4,2,A*%
%TO.N,/ENC_A*%
X180475000Y-77189442D03*
%TO.P,J4,3,GND*%
%TO.N,GND*%
X180475000Y-74689442D03*
%TO.P,J4,4,VCC*%
%TO.N,+3.3V*%
X180475000Y-72189442D03*
%TD*%
D12*
%TO.P,C1,1*%
%TO.N,/BUCK_PWR*%
X113200000Y-96800000D03*
%TO.P,C1,2*%
%TO.N,GND*%
X118200000Y-96800000D03*
%TD*%
D20*
%TO.P,C5,1*%
%TO.N,/DRIVER_PWR*%
X179375000Y-88306192D03*
%TO.P,C5,2*%
%TO.N,GND*%
X179375000Y-95806192D03*
%TD*%
D10*
%TO.P,F1,1_1*%
%TO.N,Net-(J1-Pin_2)*%
X142975000Y-86459442D03*
%TO.P,F1,1_2*%
X146375000Y-86459442D03*
%TO.P,F1,2_1*%
%TO.N,/DRIVER_PWR*%
X142975000Y-72989442D03*
%TO.P,F1,2_2*%
X146375000Y-72989442D03*
%TD*%
D21*
%TO.P,MCB1,1,3.3V_Battery*%
%TO.N,+3.3V*%
X138090000Y-72544442D03*
%TO.P,MCB1,2,GND*%
%TO.N,GND*%
X135550000Y-72544442D03*
%TO.P,MCB1,3,+3.3V*%
%TO.N,unconnected-(MCB1-+3.3V-Pad3)*%
X133010000Y-72544442D03*
%TO.P,MCB1,4,GND*%
%TO.N,GND*%
X130470000Y-72544442D03*
%TO.P,MCB1,5,PA8*%
%TO.N,unconnected-(MCB1-PA8-Pad5)*%
X127930000Y-72544442D03*
%TO.P,MCB1,6,PA9*%
%TO.N,unconnected-(MCB1-PA9-Pad6)*%
X125390000Y-72544442D03*
%TO.P,MCB1,7,PA10*%
%TO.N,unconnected-(MCB1-PA10-Pad7)*%
X122850000Y-72544442D03*
%TO.P,MCB1,8,PA15*%
%TO.N,/ENC_A*%
X120310000Y-72544442D03*
%TO.P,MCB1,9,PC10*%
%TO.N,unconnected-(MCB1-PC10-Pad9)*%
X117770000Y-72544442D03*
%TO.P,MCB1,10,PC11*%
%TO.N,unconnected-(MCB1-PC11-Pad10)*%
X115230000Y-72544442D03*
%TO.P,MCB1,11,PC12*%
%TO.N,unconnected-(MCB1-PC12-Pad11)*%
X112690000Y-72544442D03*
%TO.P,MCB1,12,PD2*%
%TO.N,unconnected-(MCB1-PD2-Pad12)*%
X110150000Y-72544442D03*
%TO.P,MCB1,13,PB4*%
%TO.N,unconnected-(MCB1-PB4-Pad13)*%
X107610000Y-72544442D03*
%TO.P,MCB1,14,PB5*%
%TO.N,unconnected-(MCB1-PB5-Pad14)*%
X105070000Y-72544442D03*
%TO.P,MCB1,15,PB6*%
%TO.N,unconnected-(MCB1-PB6-Pad15)*%
X102530000Y-72544442D03*
%TO.P,MCB1,16,PB7*%
%TO.N,unconnected-(MCB1-PB7-Pad16)*%
X99990000Y-72544442D03*
%TO.P,MCB1,17,PB8*%
%TO.N,unconnected-(MCB1-PB8-Pad17)*%
X97450000Y-72544442D03*
%TO.P,MCB1,18,PB9*%
%TO.N,unconnected-(MCB1-PB9-Pad18)*%
X94910000Y-72544442D03*
%TO.P,MCB1,19,PC13*%
%TO.N,unconnected-(MCB1-PC13-Pad19)*%
X92370000Y-72544442D03*
%TO.P,MCB1,20,PC14*%
%TO.N,unconnected-(MCB1-PC14-Pad20)*%
X89830000Y-72544442D03*
%TO.P,MCB1,21,PC6*%
%TO.N,/DIR*%
X135550000Y-110644442D03*
%TO.P,MCB1,22,PC7*%
%TO.N,/PWM*%
X133010000Y-110644442D03*
%TO.P,MCB1,23,PC8*%
%TO.N,/SLP*%
X130470000Y-110644442D03*
%TO.P,MCB1,24,PC9*%
%TO.N,/FLT*%
X127930000Y-110644442D03*
%TO.P,MCB1,25,PB15*%
%TO.N,unconnected-(MCB1-PB15-Pad25)*%
X125390000Y-110644442D03*
%TO.P,MCB1,26,PB14*%
%TO.N,unconnected-(MCB1-PB14-Pad26)*%
X122850000Y-110644442D03*
%TO.P,MCB1,27,PB13*%
%TO.N,unconnected-(MCB1-PB13-Pad27)*%
X120310000Y-110644442D03*
%TO.P,MCB1,28,PB12*%
%TO.N,unconnected-(MCB1-PB12-Pad28)*%
X117770000Y-110644442D03*
%TO.P,MCB1,29,PB10*%
%TO.N,unconnected-(MCB1-PB10-Pad29)*%
X115230000Y-110644442D03*
%TO.P,MCB1,30,PB2*%
%TO.N,unconnected-(MCB1-PB2-Pad30)*%
X112690000Y-110644442D03*
%TO.P,MCB1,31,PB1*%
%TO.N,/CS*%
X110150000Y-110644442D03*
%TO.P,MCB1,32,PB0*%
%TO.N,unconnected-(MCB1-PB0-Pad32)*%
X107610000Y-110644442D03*
%TO.P,MCB1,33,PC5*%
%TO.N,unconnected-(MCB1-PC5-Pad33)*%
X105070000Y-110644442D03*
%TO.P,MCB1,34,PA4*%
%TO.N,unconnected-(MCB1-PA4-Pad34)*%
X102530000Y-110644442D03*
%TO.P,MCB1,35,PA1*%
%TO.N,/ENC_B*%
X99990000Y-110644442D03*
%TO.P,MCB1,36,PA0*%
X97450000Y-110644442D03*
%TO.P,MCB1,37,PC3*%
%TO.N,unconnected-(MCB1-PC3-Pad37)*%
X94910000Y-110644442D03*
%TO.P,MCB1,38,PC2*%
%TO.N,unconnected-(MCB1-PC2-Pad38)*%
X92370000Y-110644442D03*
%TO.P,MCB1,39,PC1*%
%TO.N,unconnected-(MCB1-PC1-Pad39)*%
X89830000Y-110644442D03*
%TO.P,MCB1,40,PC0*%
%TO.N,unconnected-(MCB1-PC0-Pad40)*%
X87290000Y-110644442D03*
%TD*%
D22*
%TO.P,F3,1*%
%TO.N,/BUCK_PWR*%
X110217990Y-97360094D03*
D23*
%TO.P,F3,2*%
%TO.N,Net-(J1-Pin_2)*%
X105137990Y-97360094D03*
%TD*%
D12*
%TO.P,C2,1*%
%TO.N,+3.3V*%
X127112990Y-96660094D03*
%TO.P,C2,2*%
%TO.N,GND*%
X122112990Y-96660094D03*
%TD*%
D24*
%TO.N,GND*%
X118000000Y-93000000D03*
X105236805Y-93902105D03*
X104036805Y-93902105D03*
%TO.N,+3.3V*%
X109836805Y-93902105D03*
%TO.N,GND*%
X122062990Y-98310094D03*
X119800000Y-95600000D03*
X119800000Y-97600000D03*
X117100000Y-98050000D03*
X119800000Y-96600000D03*
%TO.N,+3.3V*%
X127012990Y-93560094D03*
%TD*%
D25*
%TO.N,+3.3V*%
X109894794Y-93960094D02*
X109836805Y-93902105D01*
X126612990Y-93960094D02*
X109894794Y-93960094D01*
X127012990Y-93560094D02*
X126612990Y-93960094D01*
%TD*%
%TA.AperFunction,Conductor*%
%TO.N,GND*%
G36*
X188006922Y-69501280D02*
G01*
X188097266Y-69511459D01*
X188124331Y-69517636D01*
X188203540Y-69545352D01*
X188228553Y-69557398D01*
X188299606Y-69602043D01*
X188321313Y-69619355D01*
X188380644Y-69678686D01*
X188397957Y-69700395D01*
X188442600Y-69771444D01*
X188454648Y-69796462D01*
X188482362Y-69875666D01*
X188488540Y-69902735D01*
X188498720Y-69993076D01*
X188499500Y-70006961D01*
X188499500Y-114993038D01*
X188498720Y-115006922D01*
X188498720Y-115006923D01*
X188488540Y-115097264D01*
X188482362Y-115124333D01*
X188454648Y-115203537D01*
X188442600Y-115228555D01*
X188397957Y-115299604D01*
X188380644Y-115321313D01*
X188321313Y-115380644D01*
X188299604Y-115397957D01*
X188228555Y-115442600D01*
X188203537Y-115454648D01*
X188124333Y-115482362D01*
X188097264Y-115488540D01*
X188017075Y-115497576D01*
X188006921Y-115498720D01*
X187993038Y-115499500D01*
X185303095Y-115499500D01*
X185236056Y-115479815D01*
X185190301Y-115427011D01*
X185180357Y-115357853D01*
X185209382Y-115294297D01*
X185264776Y-115257569D01*
X185298681Y-115246552D01*
X185435832Y-115201989D01*
X185604199Y-115116202D01*
X185757073Y-115005132D01*
X185890690Y-114871515D01*
X186001760Y-114718641D01*
X186087547Y-114550274D01*
X186145940Y-114370560D01*
X186157113Y-114300017D01*
X186175500Y-114183928D01*
X186175500Y-113994955D01*
X186145940Y-113808323D01*
X186087545Y-113628605D01*
X186042290Y-113539789D01*
X186001760Y-113460243D01*
X185890690Y-113307369D01*
X185757073Y-113173752D01*
X185604199Y-113062682D01*
X185435836Y-112976896D01*
X185256118Y-112918501D01*
X185069486Y-112888942D01*
X185069481Y-112888942D01*
X184880519Y-112888942D01*
X184880514Y-112888942D01*
X184693881Y-112918501D01*
X184514163Y-112976896D01*
X184345800Y-113062682D01*
X184258579Y-113126052D01*
X184192927Y-113173752D01*
X184192925Y-113173754D01*
X184192924Y-113173754D01*
X184059312Y-113307366D01*
X184059312Y-113307367D01*
X184059310Y-113307369D01*
X184043325Y-113329371D01*
X183948240Y-113460242D01*
X183862454Y-113628605D01*
X183804059Y-113808323D01*
X183774500Y-113994955D01*
X183774500Y-114183928D01*
X183804059Y-114370560D01*
X183862454Y-114550278D01*
X183941684Y-114705774D01*
X183948240Y-114718641D01*
X184059310Y-114871515D01*
X184192927Y-115005132D01*
X184345801Y-115116202D01*
X184425347Y-115156732D01*
X184514163Y-115201987D01*
X184514165Y-115201987D01*
X184514168Y-115201989D01*
X184631234Y-115240026D01*
X184685224Y-115257569D01*
X184742899Y-115297007D01*
X184770097Y-115361366D01*
X184758182Y-115430212D01*
X184710938Y-115481688D01*
X184646905Y-115499500D01*
X96294500Y-115499500D01*
X96227461Y-115479815D01*
X96181706Y-115427011D01*
X96170500Y-115375500D01*
X96170500Y-114980435D01*
X96170499Y-114980426D01*
X96134860Y-114743976D01*
X96134858Y-114743970D01*
X96127045Y-114718641D01*
X96064374Y-114515464D01*
X95960618Y-114300013D01*
X95825910Y-114102433D01*
X95663259Y-113927136D01*
X95476297Y-113778039D01*
X95269203Y-113658473D01*
X95046601Y-113571108D01*
X95046592Y-113571106D01*
X95046589Y-113571105D01*
X94813462Y-113517895D01*
X94575005Y-113500026D01*
X94574995Y-113500026D01*
X94336537Y-113517895D01*
X94103410Y-113571105D01*
X94103402Y-113571107D01*
X94103399Y-113571108D01*
X94103396Y-113571108D01*
X94103393Y-113571110D01*
X93880796Y-113658473D01*
X93673703Y-113778039D01*
X93486741Y-113927136D01*
X93486739Y-113927138D01*
X93324090Y-114102432D01*
X93189379Y-114300017D01*
X93085626Y-114515463D01*
X93015141Y-114743970D01*
X93015139Y-114743976D01*
X92979500Y-114980426D01*
X92979500Y-115375500D01*
X92959815Y-115442539D01*
X92907011Y-115488294D01*
X92855500Y-115499500D01*
X86006962Y-115499500D01*
X85993078Y-115498720D01*
X85980553Y-115497308D01*
X85902735Y-115488540D01*
X85875666Y-115482362D01*
X85796462Y-115454648D01*
X85771444Y-115442600D01*
X85700395Y-115397957D01*
X85678686Y-115380644D01*
X85619355Y-115321313D01*
X85602042Y-115299604D01*
X85600410Y-115297007D01*
X85557398Y-115228553D01*
X85545351Y-115203537D01*
X85544809Y-115201989D01*
X85517636Y-115124331D01*
X85511459Y-115097263D01*
X85501280Y-115006922D01*
X85500500Y-114993038D01*
X85500500Y-110544845D01*
X86024500Y-110544845D01*
X86024500Y-110744038D01*
X86055661Y-110940782D01*
X86055661Y-110940785D01*
X86117213Y-111130222D01*
X86117215Y-111130225D01*
X86207647Y-111307708D01*
X86324731Y-111468860D01*
X86465582Y-111609711D01*
X86626734Y-111726795D01*
X86804217Y-111817227D01*
X86804219Y-111817228D01*
X86993657Y-111878780D01*
X86993658Y-111878780D01*
X86993661Y-111878781D01*
X87190403Y-111909942D01*
X87190404Y-111909942D01*
X87389596Y-111909942D01*
X87389597Y-111909942D01*
X87586339Y-111878781D01*
X87586342Y-111878780D01*
X87586343Y-111878780D01*
X87775780Y-111817228D01*
X87775780Y-111817227D01*
X87775783Y-111817227D01*
X87953266Y-111726795D01*
X88114418Y-111609711D01*
X88255269Y-111468860D01*
X88372353Y-111307708D01*
X88449515Y-111156269D01*
X88497490Y-111105473D01*
X88565311Y-111088678D01*
X88631446Y-111111215D01*
X88670485Y-111156269D01*
X88747647Y-111307708D01*
X88864731Y-111468860D01*
X89005582Y-111609711D01*
X89166734Y-111726795D01*
X89344217Y-111817227D01*
X89344219Y-111817228D01*
X89533657Y-111878780D01*
X89533658Y-111878780D01*
X89533661Y-111878781D01*
X89730403Y-111909942D01*
X89730404Y-111909942D01*
X89929596Y-111909942D01*
X89929597Y-111909942D01*
X90126339Y-111878781D01*
X90126342Y-111878780D01*
X90126343Y-111878780D01*
X90315780Y-111817228D01*
X90315780Y-111817227D01*
X90315783Y-111817227D01*
X90493266Y-111726795D01*
X90654418Y-111609711D01*
X90795269Y-111468860D01*
X90912353Y-111307708D01*
X90989515Y-111156269D01*
X91037490Y-111105473D01*
X91105311Y-111088678D01*
X91171446Y-111111215D01*
X91210485Y-111156269D01*
X91287647Y-111307708D01*
X91404731Y-111468860D01*
X91545582Y-111609711D01*
X91706734Y-111726795D01*
X91884217Y-111817227D01*
X91884219Y-111817228D01*
X92073657Y-111878780D01*
X92073658Y-111878780D01*
X92073661Y-111878781D01*
X92270403Y-111909942D01*
X92270404Y-111909942D01*
X92469596Y-111909942D01*
X92469597Y-111909942D01*
X92666339Y-111878781D01*
X92666342Y-111878780D01*
X92666343Y-111878780D01*
X92855780Y-111817228D01*
X92855780Y-111817227D01*
X92855783Y-111817227D01*
X93033266Y-111726795D01*
X93194418Y-111609711D01*
X93335269Y-111468860D01*
X93452353Y-111307708D01*
X93529515Y-111156269D01*
X93577490Y-111105473D01*
X93645311Y-111088678D01*
X93711446Y-111111215D01*
X93750485Y-111156269D01*
X93827647Y-111307708D01*
X93944731Y-111468860D01*
X94085582Y-111609711D01*
X94246734Y-111726795D01*
X94424217Y-111817227D01*
X94424219Y-111817228D01*
X94613657Y-111878780D01*
X94613658Y-111878780D01*
X94613661Y-111878781D01*
X94810403Y-111909942D01*
X94810404Y-111909942D01*
X95009596Y-111909942D01*
X95009597Y-111909942D01*
X95206339Y-111878781D01*
X95206342Y-111878780D01*
X95206343Y-111878780D01*
X95395780Y-111817228D01*
X95395780Y-111817227D01*
X95395783Y-111817227D01*
X95573266Y-111726795D01*
X95734418Y-111609711D01*
X95875269Y-111468860D01*
X95992353Y-111307708D01*
X96069515Y-111156269D01*
X96117490Y-111105473D01*
X96185311Y-111088678D01*
X96251446Y-111111215D01*
X96290485Y-111156269D01*
X96367647Y-111307708D01*
X96484731Y-111468860D01*
X96625582Y-111609711D01*
X96786734Y-111726795D01*
X96964217Y-111817227D01*
X96964219Y-111817228D01*
X97153657Y-111878780D01*
X97153658Y-111878780D01*
X97153661Y-111878781D01*
X97350403Y-111909942D01*
X97350404Y-111909942D01*
X97549596Y-111909942D01*
X97549597Y-111909942D01*
X97746339Y-111878781D01*
X97746342Y-111878780D01*
X97746343Y-111878780D01*
X97935780Y-111817228D01*
X97935780Y-111817227D01*
X97935783Y-111817227D01*
X98113266Y-111726795D01*
X98274418Y-111609711D01*
X98415269Y-111468860D01*
X98532353Y-111307708D01*
X98609515Y-111156269D01*
X98657490Y-111105473D01*
X98725311Y-111088678D01*
X98791446Y-111111215D01*
X98830485Y-111156269D01*
X98907647Y-111307708D01*
X99024731Y-111468860D01*
X99165582Y-111609711D01*
X99326734Y-111726795D01*
X99504217Y-111817227D01*
X99504219Y-111817228D01*
X99693657Y-111878780D01*
X99693658Y-111878780D01*
X99693661Y-111878781D01*
X99890403Y-111909942D01*
X99890404Y-111909942D01*
X100089596Y-111909942D01*
X100089597Y-111909942D01*
X100286339Y-111878781D01*
X100286342Y-111878780D01*
X100286343Y-111878780D01*
X100475780Y-111817228D01*
X100475780Y-111817227D01*
X100475783Y-111817227D01*
X100653266Y-111726795D01*
X100814418Y-111609711D01*
X100955269Y-111468860D01*
X101072353Y-111307708D01*
X101149515Y-111156269D01*
X101197490Y-111105473D01*
X101265311Y-111088678D01*
X101331446Y-111111215D01*
X101370485Y-111156269D01*
X101447647Y-111307708D01*
X101564731Y-111468860D01*
X101705582Y-111609711D01*
X101866734Y-111726795D01*
X102044217Y-111817227D01*
X102044219Y-111817228D01*
X102233657Y-111878780D01*
X102233658Y-111878780D01*
X102233661Y-111878781D01*
X102430403Y-111909942D01*
X102430404Y-111909942D01*
X102629596Y-111909942D01*
X102629597Y-111909942D01*
X102826339Y-111878781D01*
X102826342Y-111878780D01*
X102826343Y-111878780D01*
X103015780Y-111817228D01*
X103015780Y-111817227D01*
X103015783Y-111817227D01*
X103193266Y-111726795D01*
X103354418Y-111609711D01*
X103495269Y-111468860D01*
X103612353Y-111307708D01*
X103689515Y-111156269D01*
X103737490Y-111105473D01*
X103805311Y-111088678D01*
X103871446Y-111111215D01*
X103910485Y-111156269D01*
X103987647Y-111307708D01*
X104104731Y-111468860D01*
X104245582Y-111609711D01*
X104406734Y-111726795D01*
X104584217Y-111817227D01*
X104584219Y-111817228D01*
X104773657Y-111878780D01*
X104773658Y-111878780D01*
X104773661Y-111878781D01*
X104970403Y-111909942D01*
X104970404Y-111909942D01*
X105169596Y-111909942D01*
X105169597Y-111909942D01*
X105366339Y-111878781D01*
X105366342Y-111878780D01*
X105366343Y-111878780D01*
X105555780Y-111817228D01*
X105555780Y-111817227D01*
X105555783Y-111817227D01*
X105733266Y-111726795D01*
X105894418Y-111609711D01*
X106035269Y-111468860D01*
X106152353Y-111307708D01*
X106229515Y-111156269D01*
X106277490Y-111105473D01*
X106345311Y-111088678D01*
X106411446Y-111111215D01*
X106450485Y-111156269D01*
X106527647Y-111307708D01*
X106644731Y-111468860D01*
X106785582Y-111609711D01*
X106946734Y-111726795D01*
X107124217Y-111817227D01*
X107124219Y-111817228D01*
X107313657Y-111878780D01*
X107313658Y-111878780D01*
X107313661Y-111878781D01*
X107510403Y-111909942D01*
X107510404Y-111909942D01*
X107709596Y-111909942D01*
X107709597Y-111909942D01*
X107906339Y-111878781D01*
X107906342Y-111878780D01*
X107906343Y-111878780D01*
X108095780Y-111817228D01*
X108095780Y-111817227D01*
X108095783Y-111817227D01*
X108273266Y-111726795D01*
X108434418Y-111609711D01*
X108575269Y-111468860D01*
X108692353Y-111307708D01*
X108769515Y-111156269D01*
X108817490Y-111105473D01*
X108885311Y-111088678D01*
X108951446Y-111111215D01*
X108990485Y-111156269D01*
X109067647Y-111307708D01*
X109184731Y-111468860D01*
X109325582Y-111609711D01*
X109486734Y-111726795D01*
X109664217Y-111817227D01*
X109664219Y-111817228D01*
X109853657Y-111878780D01*
X109853658Y-111878780D01*
X109853661Y-111878781D01*
X110050403Y-111909942D01*
X110050404Y-111909942D01*
X110249596Y-111909942D01*
X110249597Y-111909942D01*
X110446339Y-111878781D01*
X110446342Y-111878780D01*
X110446343Y-111878780D01*
X110635780Y-111817228D01*
X110635780Y-111817227D01*
X110635783Y-111817227D01*
X110813266Y-111726795D01*
X110974418Y-111609711D01*
X111115269Y-111468860D01*
X111232353Y-111307708D01*
X111309515Y-111156269D01*
X111357490Y-111105473D01*
X111425311Y-111088678D01*
X111491446Y-111111215D01*
X111530485Y-111156269D01*
X111607647Y-111307708D01*
X111724731Y-111468860D01*
X111865582Y-111609711D01*
X112026734Y-111726795D01*
X112204217Y-111817227D01*
X112204219Y-111817228D01*
X112393657Y-111878780D01*
X112393658Y-111878780D01*
X112393661Y-111878781D01*
X112590403Y-111909942D01*
X112590404Y-111909942D01*
X112789596Y-111909942D01*
X112789597Y-111909942D01*
X112986339Y-111878781D01*
X112986342Y-111878780D01*
X112986343Y-111878780D01*
X113175780Y-111817228D01*
X113175780Y-111817227D01*
X113175783Y-111817227D01*
X113353266Y-111726795D01*
X113514418Y-111609711D01*
X113655269Y-111468860D01*
X113772353Y-111307708D01*
X113849515Y-111156269D01*
X113897490Y-111105473D01*
X113965311Y-111088678D01*
X114031446Y-111111215D01*
X114070485Y-111156269D01*
X114147647Y-111307708D01*
X114264731Y-111468860D01*
X114405582Y-111609711D01*
X114566734Y-111726795D01*
X114744217Y-111817227D01*
X114744219Y-111817228D01*
X114933657Y-111878780D01*
X114933658Y-111878780D01*
X114933661Y-111878781D01*
X115130403Y-111909942D01*
X115130404Y-111909942D01*
X115329596Y-111909942D01*
X115329597Y-111909942D01*
X115526339Y-111878781D01*
X115526342Y-111878780D01*
X115526343Y-111878780D01*
X115715780Y-111817228D01*
X115715780Y-111817227D01*
X115715783Y-111817227D01*
X115893266Y-111726795D01*
X116054418Y-111609711D01*
X116195269Y-111468860D01*
X116312353Y-111307708D01*
X116389515Y-111156269D01*
X116437490Y-111105473D01*
X116505311Y-111088678D01*
X116571446Y-111111215D01*
X116610485Y-111156269D01*
X116687647Y-111307708D01*
X116804731Y-111468860D01*
X116945582Y-111609711D01*
X117106734Y-111726795D01*
X117284217Y-111817227D01*
X117284219Y-111817228D01*
X117473657Y-111878780D01*
X117473658Y-111878780D01*
X117473661Y-111878781D01*
X117670403Y-111909942D01*
X117670404Y-111909942D01*
X117869596Y-111909942D01*
X117869597Y-111909942D01*
X118066339Y-111878781D01*
X118066342Y-111878780D01*
X118066343Y-111878780D01*
X118255780Y-111817228D01*
X118255780Y-111817227D01*
X118255783Y-111817227D01*
X118433266Y-111726795D01*
X118594418Y-111609711D01*
X118735269Y-111468860D01*
X118852353Y-111307708D01*
X118929515Y-111156269D01*
X118977490Y-111105473D01*
X119045311Y-111088678D01*
X119111446Y-111111215D01*
X119150485Y-111156269D01*
X119227647Y-111307708D01*
X119344731Y-111468860D01*
X119485582Y-111609711D01*
X119646734Y-111726795D01*
X119824217Y-111817227D01*
X119824219Y-111817228D01*
X120013657Y-111878780D01*
X120013658Y-111878780D01*
X120013661Y-111878781D01*
X120210403Y-111909942D01*
X120210404Y-111909942D01*
X120409596Y-111909942D01*
X120409597Y-111909942D01*
X120606339Y-111878781D01*
X120606342Y-111878780D01*
X120606343Y-111878780D01*
X120795780Y-111817228D01*
X120795780Y-111817227D01*
X120795783Y-111817227D01*
X120973266Y-111726795D01*
X121134418Y-111609711D01*
X121275269Y-111468860D01*
X121392353Y-111307708D01*
X121469515Y-111156269D01*
X121517490Y-111105473D01*
X121585311Y-111088678D01*
X121651446Y-111111215D01*
X121690485Y-111156269D01*
X121767647Y-111307708D01*
X121884731Y-111468860D01*
X122025582Y-111609711D01*
X122186734Y-111726795D01*
X122364217Y-111817227D01*
X122364219Y-111817228D01*
X122553657Y-111878780D01*
X122553658Y-111878780D01*
X122553661Y-111878781D01*
X122750403Y-111909942D01*
X122750404Y-111909942D01*
X122949596Y-111909942D01*
X122949597Y-111909942D01*
X123146339Y-111878781D01*
X123146342Y-111878780D01*
X123146343Y-111878780D01*
X123335780Y-111817228D01*
X123335780Y-111817227D01*
X123335783Y-111817227D01*
X123513266Y-111726795D01*
X123674418Y-111609711D01*
X123815269Y-111468860D01*
X123932353Y-111307708D01*
X124009515Y-111156269D01*
X124057490Y-111105473D01*
X124125311Y-111088678D01*
X124191446Y-111111215D01*
X124230485Y-111156269D01*
X124307647Y-111307708D01*
X124424731Y-111468860D01*
X124565582Y-111609711D01*
X124726734Y-111726795D01*
X124904217Y-111817227D01*
X124904219Y-111817228D01*
X125093657Y-111878780D01*
X125093658Y-111878780D01*
X125093661Y-111878781D01*
X125290403Y-111909942D01*
X125290404Y-111909942D01*
X125489596Y-111909942D01*
X125489597Y-111909942D01*
X125686339Y-111878781D01*
X125686342Y-111878780D01*
X125686343Y-111878780D01*
X125875780Y-111817228D01*
X125875780Y-111817227D01*
X125875783Y-111817227D01*
X126053266Y-111726795D01*
X126214418Y-111609711D01*
X126355269Y-111468860D01*
X126472353Y-111307708D01*
X126549515Y-111156269D01*
X126597490Y-111105473D01*
X126665311Y-111088678D01*
X126731446Y-111111215D01*
X126770485Y-111156269D01*
X126847647Y-111307708D01*
X126964731Y-111468860D01*
X127105582Y-111609711D01*
X127266734Y-111726795D01*
X127444217Y-111817227D01*
X127444219Y-111817228D01*
X127633657Y-111878780D01*
X127633658Y-111878780D01*
X127633661Y-111878781D01*
X127830403Y-111909942D01*
X127830404Y-111909942D01*
X128029596Y-111909942D01*
X128029597Y-111909942D01*
X128226339Y-111878781D01*
X128226342Y-111878780D01*
X128226343Y-111878780D01*
X128415780Y-111817228D01*
X128415780Y-111817227D01*
X128415783Y-111817227D01*
X128593266Y-111726795D01*
X128754418Y-111609711D01*
X128895269Y-111468860D01*
X129012353Y-111307708D01*
X129089515Y-111156269D01*
X129137490Y-111105473D01*
X129205311Y-111088678D01*
X129271446Y-111111215D01*
X129310485Y-111156269D01*
X129387647Y-111307708D01*
X129504731Y-111468860D01*
X129645582Y-111609711D01*
X129806734Y-111726795D01*
X129984217Y-111817227D01*
X129984219Y-111817228D01*
X130173657Y-111878780D01*
X130173658Y-111878780D01*
X130173661Y-111878781D01*
X130370403Y-111909942D01*
X130370404Y-111909942D01*
X130569596Y-111909942D01*
X130569597Y-111909942D01*
X130766339Y-111878781D01*
X130766342Y-111878780D01*
X130766343Y-111878780D01*
X130955780Y-111817228D01*
X130955780Y-111817227D01*
X130955783Y-111817227D01*
X131133266Y-111726795D01*
X131294418Y-111609711D01*
X131435269Y-111468860D01*
X131552353Y-111307708D01*
X131629515Y-111156269D01*
X131677490Y-111105473D01*
X131745311Y-111088678D01*
X131811446Y-111111215D01*
X131850485Y-111156269D01*
X131927647Y-111307708D01*
X132044731Y-111468860D01*
X132185582Y-111609711D01*
X132346734Y-111726795D01*
X132524217Y-111817227D01*
X132524219Y-111817228D01*
X132713657Y-111878780D01*
X132713658Y-111878780D01*
X132713661Y-111878781D01*
X132910403Y-111909942D01*
X132910404Y-111909942D01*
X133109596Y-111909942D01*
X133109597Y-111909942D01*
X133306339Y-111878781D01*
X133306342Y-111878780D01*
X133306343Y-111878780D01*
X133495780Y-111817228D01*
X133495780Y-111817227D01*
X133495783Y-111817227D01*
X133673266Y-111726795D01*
X133834418Y-111609711D01*
X133975269Y-111468860D01*
X134092353Y-111307708D01*
X134169515Y-111156269D01*
X134217490Y-111105473D01*
X134285311Y-111088678D01*
X134351446Y-111111215D01*
X134390485Y-111156269D01*
X134467647Y-111307708D01*
X134584731Y-111468860D01*
X134725582Y-111609711D01*
X134886734Y-111726795D01*
X135064217Y-111817227D01*
X135064219Y-111817228D01*
X135253657Y-111878780D01*
X135253658Y-111878780D01*
X135253661Y-111878781D01*
X135450403Y-111909942D01*
X135450404Y-111909942D01*
X135649596Y-111909942D01*
X135649597Y-111909942D01*
X135846339Y-111878781D01*
X135846342Y-111878780D01*
X135846343Y-111878780D01*
X136035780Y-111817228D01*
X136035780Y-111817227D01*
X136035783Y-111817227D01*
X136213266Y-111726795D01*
X136374418Y-111609711D01*
X136515269Y-111468860D01*
X136632353Y-111307708D01*
X136722785Y-111130225D01*
X136730827Y-111105473D01*
X136784338Y-110940785D01*
X136784338Y-110940784D01*
X136784339Y-110940781D01*
X136815500Y-110744039D01*
X136815500Y-110544845D01*
X136784339Y-110348103D01*
X136784338Y-110348099D01*
X136784338Y-110348098D01*
X136722786Y-110158661D01*
X136640901Y-109997952D01*
X136640900Y-109997950D01*
X136632354Y-109981178D01*
X136632352Y-109981175D01*
X136515269Y-109820024D01*
X136374418Y-109679173D01*
X136213266Y-109562089D01*
X136088193Y-109498361D01*
X136035780Y-109471655D01*
X135846342Y-109410103D01*
X135685869Y-109384687D01*
X135649597Y-109378942D01*
X135450403Y-109378942D01*
X135414131Y-109384687D01*
X135253659Y-109410103D01*
X135253656Y-109410103D01*
X135064219Y-109471655D01*
X134886733Y-109562089D01*
X134846864Y-109591056D01*
X134725582Y-109679173D01*
X134725580Y-109679175D01*
X134725579Y-109679175D01*
X134584733Y-109820021D01*
X134584733Y-109820022D01*
X134584731Y-109820024D01*
X134534447Y-109889232D01*
X134467647Y-109981175D01*
X134390485Y-110132614D01*
X134342510Y-110183410D01*
X134274689Y-110200205D01*
X134208554Y-110177667D01*
X134169515Y-110132614D01*
X134113014Y-110021726D01*
X134092353Y-109981176D01*
X133975269Y-109820024D01*
X133834418Y-109679173D01*
X133673266Y-109562089D01*
X133548193Y-109498361D01*
X133495780Y-109471655D01*
X133306342Y-109410103D01*
X133145869Y-109384687D01*
X133109597Y-109378942D01*
X132910403Y-109378942D01*
X132874131Y-109384687D01*
X132713659Y-109410103D01*
X132713656Y-109410103D01*
X132524219Y-109471655D01*
X132346733Y-109562089D01*
X132306864Y-109591056D01*
X132185582Y-109679173D01*
X132185580Y-109679175D01*
X132185579Y-109679175D01*
X132044733Y-109820021D01*
X132044733Y-109820022D01*
X132044731Y-109820024D01*
X131994447Y-109889232D01*
X131927647Y-109981175D01*
X131850485Y-110132614D01*
X131802510Y-110183410D01*
X131734689Y-110200205D01*
X131668554Y-110177667D01*
X131629515Y-110132614D01*
X131573014Y-110021726D01*
X131552353Y-109981176D01*
X131435269Y-109820024D01*
X131294418Y-109679173D01*
X131133266Y-109562089D01*
X131008193Y-109498361D01*
X130955780Y-109471655D01*
X130766342Y-109410103D01*
X130605869Y-109384687D01*
X130569597Y-109378942D01*
X130370403Y-109378942D01*
X130334131Y-109384687D01*
X130173659Y-109410103D01*
X130173656Y-109410103D01*
X129984219Y-109471655D01*
X129806733Y-109562089D01*
X129766864Y-109591056D01*
X129645582Y-109679173D01*
X129645580Y-109679175D01*
X129645579Y-109679175D01*
X129504733Y-109820021D01*
X129504733Y-109820022D01*
X129504731Y-109820024D01*
X129454447Y-109889232D01*
X129387647Y-109981175D01*
X129310485Y-110132614D01*
X129262510Y-110183410D01*
X129194689Y-110200205D01*
X129128554Y-110177667D01*
X129089515Y-110132614D01*
X129033014Y-110021726D01*
X129012353Y-109981176D01*
X128895269Y-109820024D01*
X128754418Y-109679173D01*
X128593266Y-109562089D01*
X128468193Y-109498361D01*
X128415780Y-109471655D01*
X128226342Y-109410103D01*
X128065869Y-109384687D01*
X128029597Y-109378942D01*
X127830403Y-109378942D01*
X127794131Y-109384687D01*
X127633659Y-109410103D01*
X127633656Y-109410103D01*
X127444219Y-109471655D01*
X127266733Y-109562089D01*
X127226864Y-109591056D01*
X127105582Y-109679173D01*
X127105580Y-109679175D01*
X127105579Y-109679175D01*
X126964733Y-109820021D01*
X126964733Y-109820022D01*
X126964731Y-109820024D01*
X126914447Y-109889232D01*
X126847647Y-109981175D01*
X126770485Y-110132614D01*
X126722510Y-110183410D01*
X126654689Y-110200205D01*
X126588554Y-110177667D01*
X126549515Y-110132614D01*
X126493014Y-110021726D01*
X126472353Y-109981176D01*
X126355269Y-109820024D01*
X126214418Y-109679173D01*
X126053266Y-109562089D01*
X125928193Y-109498361D01*
X125875780Y-109471655D01*
X125686342Y-109410103D01*
X125525869Y-109384687D01*
X125489597Y-109378942D01*
X125290403Y-109378942D01*
X125254131Y-109384687D01*
X125093659Y-109410103D01*
X125093656Y-109410103D01*
X124904219Y-109471655D01*
X124726733Y-109562089D01*
X124686864Y-109591056D01*
X124565582Y-109679173D01*
X124565580Y-109679175D01*
X124565579Y-109679175D01*
X124424733Y-109820021D01*
X124424733Y-109820022D01*
X124424731Y-109820024D01*
X124374447Y-109889232D01*
X124307647Y-109981175D01*
X124230485Y-110132614D01*
X124182510Y-110183410D01*
X124114689Y-110200205D01*
X124048554Y-110177667D01*
X124009515Y-110132614D01*
X123953014Y-110021726D01*
X123932353Y-109981176D01*
X123815269Y-109820024D01*
X123674418Y-109679173D01*
X123513266Y-109562089D01*
X123388193Y-109498361D01*
X123335780Y-109471655D01*
X123146342Y-109410103D01*
X122985869Y-109384687D01*
X122949597Y-109378942D01*
X122750403Y-109378942D01*
X122714131Y-109384687D01*
X122553659Y-109410103D01*
X122553656Y-109410103D01*
X122364219Y-109471655D01*
X122186733Y-109562089D01*
X122146864Y-109591056D01*
X122025582Y-109679173D01*
X122025580Y-109679175D01*
X122025579Y-109679175D01*
X121884733Y-109820021D01*
X121884733Y-109820022D01*
X121884731Y-109820024D01*
X121834447Y-109889232D01*
X121767647Y-109981175D01*
X121690485Y-110132614D01*
X121642510Y-110183410D01*
X121574689Y-110200205D01*
X121508554Y-110177667D01*
X121469515Y-110132614D01*
X121413014Y-110021726D01*
X121392353Y-109981176D01*
X121275269Y-109820024D01*
X121134418Y-109679173D01*
X120973266Y-109562089D01*
X120848193Y-109498361D01*
X120795780Y-109471655D01*
X120606342Y-109410103D01*
X120445869Y-109384687D01*
X120409597Y-109378942D01*
X120210403Y-109378942D01*
X120174131Y-109384687D01*
X120013659Y-109410103D01*
X120013656Y-109410103D01*
X119824219Y-109471655D01*
X119646733Y-109562089D01*
X119606864Y-109591056D01*
X119485582Y-109679173D01*
X119485580Y-109679175D01*
X119485579Y-109679175D01*
X119344733Y-109820021D01*
X119344733Y-109820022D01*
X119344731Y-109820024D01*
X119294447Y-109889232D01*
X119227647Y-109981175D01*
X119150485Y-110132614D01*
X119102510Y-110183410D01*
X119034689Y-110200205D01*
X118968554Y-110177667D01*
X118929515Y-110132614D01*
X118873014Y-110021726D01*
X118852353Y-109981176D01*
X118735269Y-109820024D01*
X118594418Y-109679173D01*
X118433266Y-109562089D01*
X118308193Y-109498361D01*
X118255780Y-109471655D01*
X118066342Y-109410103D01*
X117905869Y-109384687D01*
X117869597Y-109378942D01*
X117670403Y-109378942D01*
X117634131Y-109384687D01*
X117473659Y-109410103D01*
X117473656Y-109410103D01*
X117284219Y-109471655D01*
X117106733Y-109562089D01*
X117066864Y-109591056D01*
X116945582Y-109679173D01*
X116945580Y-109679175D01*
X116945579Y-109679175D01*
X116804733Y-109820021D01*
X116804733Y-109820022D01*
X116804731Y-109820024D01*
X116754447Y-109889232D01*
X116687647Y-109981175D01*
X116610485Y-110132614D01*
X116562510Y-110183410D01*
X116494689Y-110200205D01*
X116428554Y-110177667D01*
X116389515Y-110132614D01*
X116333014Y-110021726D01*
X116312353Y-109981176D01*
X116195269Y-109820024D01*
X116054418Y-109679173D01*
X115893266Y-109562089D01*
X115768193Y-109498361D01*
X115715780Y-109471655D01*
X115526342Y-109410103D01*
X115365869Y-109384687D01*
X115329597Y-109378942D01*
X115130403Y-109378942D01*
X115094131Y-109384687D01*
X114933659Y-109410103D01*
X114933656Y-109410103D01*
X114744219Y-109471655D01*
X114566733Y-109562089D01*
X114526864Y-109591056D01*
X114405582Y-109679173D01*
X114405580Y-109679175D01*
X114405579Y-109679175D01*
X114264733Y-109820021D01*
X114264733Y-109820022D01*
X114264731Y-109820024D01*
X114214447Y-109889232D01*
X114147647Y-109981175D01*
X114070485Y-110132614D01*
X114022510Y-110183410D01*
X113954689Y-110200205D01*
X113888554Y-110177667D01*
X113849515Y-110132614D01*
X113793014Y-110021726D01*
X113772353Y-109981176D01*
X113655269Y-109820024D01*
X113514418Y-109679173D01*
X113353266Y-109562089D01*
X113228193Y-109498361D01*
X113175780Y-109471655D01*
X112986342Y-109410103D01*
X112825869Y-109384687D01*
X112789597Y-109378942D01*
X112590403Y-109378942D01*
X112554131Y-109384687D01*
X112393659Y-109410103D01*
X112393656Y-109410103D01*
X112204219Y-109471655D01*
X112026733Y-109562089D01*
X111986864Y-109591056D01*
X111865582Y-109679173D01*
X111865580Y-109679175D01*
X111865579Y-109679175D01*
X111724733Y-109820021D01*
X111724733Y-109820022D01*
X111724731Y-109820024D01*
X111674447Y-109889232D01*
X111607647Y-109981175D01*
X111530485Y-110132614D01*
X111482510Y-110183410D01*
X111414689Y-110200205D01*
X111348554Y-110177667D01*
X111309515Y-110132614D01*
X111253014Y-110021726D01*
X111232353Y-109981176D01*
X111115269Y-109820024D01*
X110974418Y-109679173D01*
X110813266Y-109562089D01*
X110688193Y-109498361D01*
X110635780Y-109471655D01*
X110446342Y-109410103D01*
X110285869Y-109384687D01*
X110249597Y-109378942D01*
X110050403Y-109378942D01*
X110014131Y-109384687D01*
X109853659Y-109410103D01*
X109853656Y-109410103D01*
X109664219Y-109471655D01*
X109486733Y-109562089D01*
X109446864Y-109591056D01*
X109325582Y-109679173D01*
X109325580Y-109679175D01*
X109325579Y-109679175D01*
X109184733Y-109820021D01*
X109184733Y-109820022D01*
X109184731Y-109820024D01*
X109134447Y-109889232D01*
X109067647Y-109981175D01*
X108990485Y-110132614D01*
X108942510Y-110183410D01*
X108874689Y-110200205D01*
X108808554Y-110177667D01*
X108769515Y-110132614D01*
X108713014Y-110021726D01*
X108692353Y-109981176D01*
X108575269Y-109820024D01*
X108434418Y-109679173D01*
X108273266Y-109562089D01*
X108148193Y-109498361D01*
X108095780Y-109471655D01*
X107906342Y-109410103D01*
X107745869Y-109384687D01*
X107709597Y-109378942D01*
X107510403Y-109378942D01*
X107474131Y-109384687D01*
X107313659Y-109410103D01*
X107313656Y-109410103D01*
X107124219Y-109471655D01*
X106946733Y-109562089D01*
X106906864Y-109591056D01*
X106785582Y-109679173D01*
X106785580Y-109679175D01*
X106785579Y-109679175D01*
X106644733Y-109820021D01*
X106644733Y-109820022D01*
X106644731Y-109820024D01*
X106594447Y-109889232D01*
X106527647Y-109981175D01*
X106450485Y-110132614D01*
X106402510Y-110183410D01*
X106334689Y-110200205D01*
X106268554Y-110177667D01*
X106229515Y-110132614D01*
X106173014Y-110021726D01*
X106152353Y-109981176D01*
X106035269Y-109820024D01*
X105894418Y-109679173D01*
X105733266Y-109562089D01*
X105608193Y-109498361D01*
X105555780Y-109471655D01*
X105366342Y-109410103D01*
X105205869Y-109384687D01*
X105169597Y-109378942D01*
X104970403Y-109378942D01*
X104934131Y-109384687D01*
X104773659Y-109410103D01*
X104773656Y-109410103D01*
X104584219Y-109471655D01*
X104406733Y-109562089D01*
X104366864Y-109591056D01*
X104245582Y-109679173D01*
X104245580Y-109679175D01*
X104245579Y-109679175D01*
X104104733Y-109820021D01*
X104104733Y-109820022D01*
X104104731Y-109820024D01*
X104054447Y-109889232D01*
X103987647Y-109981175D01*
X103910485Y-110132614D01*
X103862510Y-110183410D01*
X103794689Y-110200205D01*
X103728554Y-110177667D01*
X103689515Y-110132614D01*
X103633014Y-110021726D01*
X103612353Y-109981176D01*
X103495269Y-109820024D01*
X103354418Y-109679173D01*
X103193266Y-109562089D01*
X103068193Y-109498361D01*
X103015780Y-109471655D01*
X102826342Y-109410103D01*
X102665869Y-109384687D01*
X102629597Y-109378942D01*
X102430403Y-109378942D01*
X102394131Y-109384687D01*
X102233659Y-109410103D01*
X102233656Y-109410103D01*
X102044219Y-109471655D01*
X101866733Y-109562089D01*
X101826864Y-109591056D01*
X101705582Y-109679173D01*
X101705580Y-109679175D01*
X101705579Y-109679175D01*
X101564733Y-109820021D01*
X101564733Y-109820022D01*
X101564731Y-109820024D01*
X101514447Y-109889232D01*
X101447647Y-109981175D01*
X101370485Y-110132614D01*
X101322510Y-110183410D01*
X101254689Y-110200205D01*
X101188554Y-110177667D01*
X101149515Y-110132614D01*
X101093014Y-110021726D01*
X101072353Y-109981176D01*
X100955269Y-109820024D01*
X100814418Y-109679173D01*
X100653266Y-109562089D01*
X100528193Y-109498361D01*
X100475780Y-109471655D01*
X100286342Y-109410103D01*
X100125869Y-109384687D01*
X100089597Y-109378942D01*
X99890403Y-109378942D01*
X99854131Y-109384687D01*
X99693659Y-109410103D01*
X99693656Y-109410103D01*
X99504219Y-109471655D01*
X99326733Y-109562089D01*
X99286864Y-109591056D01*
X99165582Y-109679173D01*
X99165580Y-109679175D01*
X99165579Y-109679175D01*
X99024733Y-109820021D01*
X99024733Y-109820022D01*
X99024731Y-109820024D01*
X98974447Y-109889232D01*
X98907647Y-109981175D01*
X98830485Y-110132614D01*
X98782510Y-110183410D01*
X98714689Y-110200205D01*
X98648554Y-110177667D01*
X98609515Y-110132614D01*
X98553014Y-110021726D01*
X98532353Y-109981176D01*
X98415269Y-109820024D01*
X98274418Y-109679173D01*
X98113266Y-109562089D01*
X97988193Y-109498361D01*
X97935780Y-109471655D01*
X97746342Y-109410103D01*
X97585869Y-109384687D01*
X97549597Y-109378942D01*
X97350403Y-109378942D01*
X97314131Y-109384687D01*
X97153659Y-109410103D01*
X97153656Y-109410103D01*
X96964219Y-109471655D01*
X96786733Y-109562089D01*
X96746864Y-109591056D01*
X96625582Y-109679173D01*
X96625580Y-109679175D01*
X96625579Y-109679175D01*
X96484733Y-109820021D01*
X96484733Y-109820022D01*
X96484731Y-109820024D01*
X96434447Y-109889232D01*
X96367647Y-109981175D01*
X96290485Y-110132614D01*
X96242510Y-110183410D01*
X96174689Y-110200205D01*
X96108554Y-110177667D01*
X96069515Y-110132614D01*
X96013014Y-110021726D01*
X95992353Y-109981176D01*
X95875269Y-109820024D01*
X95734418Y-109679173D01*
X95573266Y-109562089D01*
X95448193Y-109498361D01*
X95395780Y-109471655D01*
X95206342Y-109410103D01*
X95045869Y-109384687D01*
X95009597Y-109378942D01*
X94810403Y-109378942D01*
X94774131Y-109384687D01*
X94613659Y-109410103D01*
X94613656Y-109410103D01*
X94424219Y-109471655D01*
X94246733Y-109562089D01*
X94206864Y-109591056D01*
X94085582Y-109679173D01*
X94085580Y-109679175D01*
X94085579Y-109679175D01*
X93944733Y-109820021D01*
X93944733Y-109820022D01*
X93944731Y-109820024D01*
X93894447Y-109889232D01*
X93827647Y-109981175D01*
X93750485Y-110132614D01*
X93702510Y-110183410D01*
X93634689Y-110200205D01*
X93568554Y-110177667D01*
X93529515Y-110132614D01*
X93473014Y-110021726D01*
X93452353Y-109981176D01*
X93335269Y-109820024D01*
X93194418Y-109679173D01*
X93033266Y-109562089D01*
X92908193Y-109498361D01*
X92855780Y-109471655D01*
X92666342Y-109410103D01*
X92505869Y-109384687D01*
X92469597Y-109378942D01*
X92270403Y-109378942D01*
X92234131Y-109384687D01*
X92073659Y-109410103D01*
X92073656Y-109410103D01*
X91884219Y-109471655D01*
X91706733Y-109562089D01*
X91666864Y-109591056D01*
X91545582Y-109679173D01*
X91545580Y-109679175D01*
X91545579Y-109679175D01*
X91404733Y-109820021D01*
X91404733Y-109820022D01*
X91404731Y-109820024D01*
X91354447Y-109889232D01*
X91287647Y-109981175D01*
X91210485Y-110132614D01*
X91162510Y-110183410D01*
X91094689Y-110200205D01*
X91028554Y-110177667D01*
X90989515Y-110132614D01*
X90933014Y-110021726D01*
X90912353Y-109981176D01*
X90795269Y-109820024D01*
X90654418Y-109679173D01*
X90493266Y-109562089D01*
X90368193Y-109498361D01*
X90315780Y-109471655D01*
X90126342Y-109410103D01*
X89965869Y-109384687D01*
X89929597Y-109378942D01*
X89730403Y-109378942D01*
X89694131Y-109384687D01*
X89533659Y-109410103D01*
X89533656Y-109410103D01*
X89344219Y-109471655D01*
X89166733Y-109562089D01*
X89126864Y-109591056D01*
X89005582Y-109679173D01*
X89005580Y-109679175D01*
X89005579Y-109679175D01*
X88864733Y-109820021D01*
X88864733Y-109820022D01*
X88864731Y-109820024D01*
X88814447Y-109889232D01*
X88747647Y-109981175D01*
X88670485Y-110132614D01*
X88622510Y-110183410D01*
X88554689Y-110200205D01*
X88488554Y-110177667D01*
X88449515Y-110132614D01*
X88393014Y-110021726D01*
X88372353Y-109981176D01*
X88255269Y-109820024D01*
X88114418Y-109679173D01*
X87953266Y-109562089D01*
X87828193Y-109498361D01*
X87775780Y-109471655D01*
X87586342Y-109410103D01*
X87425869Y-109384687D01*
X87389597Y-109378942D01*
X87190403Y-109378942D01*
X87154131Y-109384687D01*
X86993659Y-109410103D01*
X86993656Y-109410103D01*
X86804219Y-109471655D01*
X86626733Y-109562089D01*
X86586864Y-109591056D01*
X86465582Y-109679173D01*
X86465580Y-109679175D01*
X86465579Y-109679175D01*
X86324733Y-109820021D01*
X86324733Y-109820022D01*
X86324731Y-109820024D01*
X86274447Y-109889232D01*
X86207647Y-109981175D01*
X86117213Y-110158661D01*
X86055661Y-110348098D01*
X86055661Y-110348101D01*
X86024500Y-110544845D01*
X85500500Y-110544845D01*
X85500500Y-106294955D01*
X87874500Y-106294955D01*
X87874500Y-106483928D01*
X87904059Y-106670560D01*
X87962454Y-106850278D01*
X88032440Y-106987632D01*
X88048240Y-107018641D01*
X88159310Y-107171515D01*
X88292927Y-107305132D01*
X88445801Y-107416202D01*
X88510006Y-107448916D01*
X88614163Y-107501987D01*
X88614165Y-107501987D01*
X88614168Y-107501989D01*
X88710497Y-107533288D01*
X88793881Y-107560382D01*
X88980514Y-107589942D01*
X88980519Y-107589942D01*
X89169486Y-107589942D01*
X89356118Y-107560382D01*
X89535832Y-107501989D01*
X89704199Y-107416202D01*
X89857073Y-107305132D01*
X89990690Y-107171515D01*
X90080436Y-107047991D01*
X141274500Y-107047991D01*
X141274500Y-107270892D01*
X141274501Y-107270908D01*
X141303594Y-107491894D01*
X141303595Y-107491899D01*
X141303596Y-107491905D01*
X141344551Y-107644752D01*
X141361290Y-107707222D01*
X141361293Y-107707232D01*
X141446593Y-107913164D01*
X141446595Y-107913168D01*
X141558052Y-108106216D01*
X141558057Y-108106222D01*
X141558058Y-108106224D01*
X141693751Y-108283064D01*
X141693757Y-108283071D01*
X141851370Y-108440684D01*
X141851376Y-108440689D01*
X142028226Y-108576390D01*
X142221274Y-108687847D01*
X142427219Y-108773152D01*
X142642537Y-108830846D01*
X142863543Y-108859942D01*
X142863550Y-108859942D01*
X143086450Y-108859942D01*
X143086457Y-108859942D01*
X143307463Y-108830846D01*
X143522781Y-108773152D01*
X143728726Y-108687847D01*
X143921774Y-108576390D01*
X144098624Y-108440689D01*
X144256247Y-108283066D01*
X144391948Y-108106216D01*
X144503405Y-107913168D01*
X144556457Y-107785089D01*
X144560439Y-107775476D01*
X144604280Y-107721073D01*
X144670574Y-107699008D01*
X144738273Y-107716287D01*
X144785884Y-107767424D01*
X144789561Y-107775476D01*
X144812131Y-107829966D01*
X144846595Y-107913168D01*
X144958052Y-108106216D01*
X144958057Y-108106222D01*
X144958058Y-108106224D01*
X145093751Y-108283064D01*
X145093757Y-108283071D01*
X145251370Y-108440684D01*
X145251376Y-108440689D01*
X145428226Y-108576390D01*
X145621274Y-108687847D01*
X145827219Y-108773152D01*
X146042537Y-108830846D01*
X146263543Y-108859942D01*
X146263550Y-108859942D01*
X146486450Y-108859942D01*
X146486457Y-108859942D01*
X146707463Y-108830846D01*
X146922781Y-108773152D01*
X147128726Y-108687847D01*
X147321774Y-108576390D01*
X147498624Y-108440689D01*
X147656247Y-108283066D01*
X147791948Y-108106216D01*
X147903405Y-107913168D01*
X147988710Y-107707223D01*
X148046404Y-107491905D01*
X148075500Y-107270899D01*
X148075500Y-107047985D01*
X148046404Y-106826979D01*
X147988710Y-106611661D01*
X147903405Y-106405716D01*
X147791948Y-106212668D01*
X147752867Y-106161736D01*
X147656248Y-106035819D01*
X147656242Y-106035812D01*
X147498629Y-105878199D01*
X147498622Y-105878193D01*
X147321782Y-105742500D01*
X147321780Y-105742499D01*
X147321774Y-105742494D01*
X147128726Y-105631037D01*
X147128722Y-105631035D01*
X146922790Y-105545735D01*
X146922783Y-105545733D01*
X146922781Y-105545732D01*
X146707463Y-105488038D01*
X146707457Y-105488037D01*
X146707452Y-105488036D01*
X146486466Y-105458943D01*
X146486463Y-105458942D01*
X146486457Y-105458942D01*
X146263543Y-105458942D01*
X146263537Y-105458942D01*
X146263533Y-105458943D01*
X146042547Y-105488036D01*
X146042540Y-105488037D01*
X146042537Y-105488038D01*
X145904305Y-105525077D01*
X145827219Y-105545732D01*
X145827209Y-105545735D01*
X145621277Y-105631035D01*
X145621273Y-105631037D01*
X145428226Y-105742494D01*
X145428217Y-105742500D01*
X145251377Y-105878193D01*
X145251370Y-105878199D01*
X145093757Y-106035812D01*
X145093751Y-106035819D01*
X144958058Y-106212659D01*
X144958052Y-106212668D01*
X144846595Y-106405715D01*
X144846593Y-106405719D01*
X144789561Y-106543407D01*
X144745720Y-106597810D01*
X144679426Y-106619875D01*
X144611726Y-106602596D01*
X144564116Y-106551458D01*
X144560439Y-106543407D01*
X144503406Y-106405719D01*
X144503405Y-106405716D01*
X144391948Y-106212668D01*
X144352867Y-106161736D01*
X144256248Y-106035819D01*
X144256242Y-106035812D01*
X144098629Y-105878199D01*
X144098622Y-105878193D01*
X143921782Y-105742500D01*
X143921780Y-105742499D01*
X143921774Y-105742494D01*
X143728726Y-105631037D01*
X143728722Y-105631035D01*
X143522790Y-105545735D01*
X143522783Y-105545733D01*
X143522781Y-105545732D01*
X143307463Y-105488038D01*
X143307457Y-105488037D01*
X143307452Y-105488036D01*
X143086466Y-105458943D01*
X143086463Y-105458942D01*
X143086457Y-105458942D01*
X142863543Y-105458942D01*
X142863537Y-105458942D01*
X142863533Y-105458943D01*
X142642547Y-105488036D01*
X142642540Y-105488037D01*
X142642537Y-105488038D01*
X142504305Y-105525077D01*
X142427219Y-105545732D01*
X142427209Y-105545735D01*
X142221277Y-105631035D01*
X142221273Y-105631037D01*
X142028226Y-105742494D01*
X142028217Y-105742500D01*
X141851377Y-105878193D01*
X141851370Y-105878199D01*
X141693757Y-106035812D01*
X141693751Y-106035819D01*
X141558058Y-106212659D01*
X141558052Y-106212668D01*
X141446595Y-106405715D01*
X141446593Y-106405719D01*
X141361293Y-106611651D01*
X141361290Y-106611661D01*
X141306969Y-106814393D01*
X141303597Y-106826976D01*
X141303594Y-106826989D01*
X141274501Y-107047975D01*
X141274500Y-107047991D01*
X90080436Y-107047991D01*
X90101760Y-107018641D01*
X90187547Y-106850274D01*
X90245940Y-106670560D01*
X90255270Y-106611651D01*
X90275500Y-106483928D01*
X90275500Y-106294955D01*
X90245940Y-106108323D01*
X90218846Y-106024939D01*
X90187547Y-105928610D01*
X90187545Y-105928607D01*
X90187545Y-105928605D01*
X90101759Y-105760242D01*
X89990690Y-105607369D01*
X89857073Y-105473752D01*
X89704199Y-105362682D01*
X89535836Y-105276896D01*
X89356118Y-105218501D01*
X89169486Y-105188942D01*
X89169481Y-105188942D01*
X88980519Y-105188942D01*
X88980514Y-105188942D01*
X88793881Y-105218501D01*
X88614163Y-105276896D01*
X88445800Y-105362682D01*
X88358579Y-105426052D01*
X88292927Y-105473752D01*
X88292925Y-105473754D01*
X88292924Y-105473754D01*
X88159312Y-105607366D01*
X88159312Y-105607367D01*
X88159310Y-105607369D01*
X88128739Y-105649446D01*
X88048240Y-105760242D01*
X87962454Y-105928605D01*
X87904059Y-106108323D01*
X87874500Y-106294955D01*
X85500500Y-106294955D01*
X85500500Y-103241928D01*
X96824500Y-103241928D01*
X96824500Y-103536955D01*
X96849533Y-103727090D01*
X96863007Y-103829435D01*
X96926582Y-104066700D01*
X96939361Y-104114393D01*
X96939364Y-104114403D01*
X97052254Y-104386942D01*
X97052258Y-104386952D01*
X97199761Y-104642435D01*
X97379352Y-104876482D01*
X97379358Y-104876489D01*
X97587952Y-105085083D01*
X97587959Y-105085089D01*
X97822006Y-105264680D01*
X98077489Y-105412183D01*
X98077490Y-105412183D01*
X98077493Y-105412185D01*
X98350048Y-105525081D01*
X98635007Y-105601435D01*
X98927494Y-105639942D01*
X98927501Y-105639942D01*
X99222499Y-105639942D01*
X99222506Y-105639942D01*
X99514993Y-105601435D01*
X99799952Y-105525081D01*
X100072507Y-105412185D01*
X100327994Y-105264680D01*
X100562042Y-105085088D01*
X100770646Y-104876484D01*
X100950238Y-104642436D01*
X101097743Y-104386949D01*
X101210639Y-104114394D01*
X101286993Y-103829435D01*
X101300467Y-103727090D01*
X149074500Y-103727090D01*
X149074500Y-103931793D01*
X149106522Y-104133976D01*
X149169781Y-104328665D01*
X149262715Y-104511055D01*
X149383028Y-104676655D01*
X149527786Y-104821413D01*
X149693385Y-104941726D01*
X149693387Y-104941727D01*
X149693390Y-104941729D01*
X149786630Y-104989237D01*
X149837426Y-105037212D01*
X149854221Y-105105033D01*
X149831684Y-105171167D01*
X149786630Y-105210207D01*
X149693644Y-105257585D01*
X149649077Y-105289965D01*
X149649077Y-105289966D01*
X150237425Y-105878313D01*
X150178147Y-105894197D01*
X150061853Y-105961340D01*
X149966898Y-106056295D01*
X149899755Y-106172589D01*
X149883871Y-106231866D01*
X149295524Y-105643519D01*
X149295523Y-105643519D01*
X149263143Y-105688086D01*
X149170244Y-105870410D01*
X149107009Y-106065024D01*
X149075000Y-106267124D01*
X149075000Y-106471759D01*
X149107009Y-106673859D01*
X149170244Y-106868473D01*
X149263141Y-107050792D01*
X149263147Y-107050801D01*
X149295523Y-107095363D01*
X149295524Y-107095364D01*
X149883871Y-106507016D01*
X149899755Y-106566295D01*
X149966898Y-106682589D01*
X150061853Y-106777544D01*
X150178147Y-106844687D01*
X150237424Y-106860570D01*
X149649076Y-107448916D01*
X149693650Y-107481301D01*
X149787180Y-107528957D01*
X149837976Y-107576931D01*
X149854771Y-107644752D01*
X149832234Y-107710887D01*
X149787180Y-107749927D01*
X149693644Y-107797585D01*
X149649077Y-107829965D01*
X149649077Y-107829966D01*
X150237425Y-108418313D01*
X150178147Y-108434197D01*
X150061853Y-108501340D01*
X149966898Y-108596295D01*
X149899755Y-108712589D01*
X149883871Y-108771866D01*
X149295524Y-108183519D01*
X149295523Y-108183519D01*
X149263143Y-108228086D01*
X149170244Y-108410410D01*
X149107009Y-108605024D01*
X149075000Y-108807124D01*
X149075000Y-109011759D01*
X149107009Y-109213859D01*
X149170244Y-109408473D01*
X149263141Y-109590792D01*
X149263147Y-109590801D01*
X149295523Y-109635363D01*
X149295524Y-109635364D01*
X149883871Y-109047016D01*
X149899755Y-109106295D01*
X149966898Y-109222589D01*
X150061853Y-109317544D01*
X150178147Y-109384687D01*
X150237424Y-109400570D01*
X149649076Y-109988916D01*
X149693650Y-110021301D01*
X149875968Y-110114197D01*
X150070582Y-110177432D01*
X150272683Y-110209442D01*
X150477317Y-110209442D01*
X150679417Y-110177432D01*
X150874031Y-110114197D01*
X151056349Y-110021301D01*
X151100921Y-109988916D01*
X150512575Y-109400570D01*
X150571853Y-109384687D01*
X150688147Y-109317544D01*
X150783102Y-109222589D01*
X150850245Y-109106295D01*
X150866127Y-109047017D01*
X151454474Y-109635364D01*
X151454474Y-109635363D01*
X151486861Y-109590789D01*
X151486861Y-109590788D01*
X151534234Y-109497813D01*
X151582208Y-109447017D01*
X151650028Y-109430221D01*
X151716164Y-109452758D01*
X151755203Y-109497811D01*
X151802713Y-109591053D01*
X151923028Y-109756655D01*
X152067786Y-109901413D01*
X152222749Y-110013998D01*
X152233390Y-110021729D01*
X152349607Y-110080945D01*
X152415776Y-110114660D01*
X152415778Y-110114660D01*
X152415781Y-110114662D01*
X152471032Y-110132614D01*
X152610465Y-110177919D01*
X152645134Y-110183410D01*
X152812648Y-110209942D01*
X152812649Y-110209942D01*
X153017351Y-110209942D01*
X153017352Y-110209942D01*
X153219534Y-110177919D01*
X153414219Y-110114662D01*
X153596610Y-110021729D01*
X153707119Y-109941440D01*
X153762213Y-109901413D01*
X153762215Y-109901410D01*
X153762219Y-109901408D01*
X153906966Y-109756661D01*
X153906968Y-109756657D01*
X153906971Y-109756655D01*
X154027284Y-109591056D01*
X154027286Y-109591053D01*
X154027287Y-109591052D01*
X154074516Y-109498359D01*
X154122489Y-109447565D01*
X154190310Y-109430770D01*
X154256445Y-109453307D01*
X154295485Y-109498361D01*
X154342715Y-109591056D01*
X154463028Y-109756655D01*
X154607786Y-109901413D01*
X154762749Y-110013998D01*
X154773390Y-110021729D01*
X154889607Y-110080945D01*
X154955776Y-110114660D01*
X154955778Y-110114660D01*
X154955781Y-110114662D01*
X155011032Y-110132614D01*
X155150465Y-110177919D01*
X155185134Y-110183410D01*
X155352648Y-110209942D01*
X155352649Y-110209942D01*
X155557351Y-110209942D01*
X155557352Y-110209942D01*
X155759534Y-110177919D01*
X155954219Y-110114662D01*
X156136610Y-110021729D01*
X156247119Y-109941440D01*
X156302213Y-109901413D01*
X156302215Y-109901410D01*
X156302219Y-109901408D01*
X156446966Y-109756661D01*
X156446968Y-109756657D01*
X156446971Y-109756655D01*
X156567284Y-109591056D01*
X156567286Y-109591053D01*
X156567287Y-109591052D01*
X156614516Y-109498359D01*
X156662489Y-109447565D01*
X156730310Y-109430770D01*
X156796445Y-109453307D01*
X156835485Y-109498361D01*
X156882715Y-109591056D01*
X157003028Y-109756655D01*
X157147786Y-109901413D01*
X157302749Y-110013998D01*
X157313390Y-110021729D01*
X157429607Y-110080945D01*
X157495776Y-110114660D01*
X157495778Y-110114660D01*
X157495781Y-110114662D01*
X157551032Y-110132614D01*
X157690465Y-110177919D01*
X157725134Y-110183410D01*
X157892648Y-110209942D01*
X157892649Y-110209942D01*
X158097351Y-110209942D01*
X158097352Y-110209942D01*
X158299534Y-110177919D01*
X158494219Y-110114662D01*
X158676610Y-110021729D01*
X158787119Y-109941440D01*
X158842213Y-109901413D01*
X158842215Y-109901410D01*
X158842219Y-109901408D01*
X158986966Y-109756661D01*
X158986968Y-109756657D01*
X158986971Y-109756655D01*
X159107284Y-109591056D01*
X159107286Y-109591053D01*
X159107287Y-109591052D01*
X159154516Y-109498359D01*
X159202489Y-109447565D01*
X159270310Y-109430770D01*
X159336445Y-109453307D01*
X159375485Y-109498361D01*
X159422715Y-109591056D01*
X159543028Y-109756655D01*
X159687786Y-109901413D01*
X159842749Y-110013998D01*
X159853390Y-110021729D01*
X159969607Y-110080945D01*
X160035776Y-110114660D01*
X160035778Y-110114660D01*
X160035781Y-110114662D01*
X160091032Y-110132614D01*
X160230465Y-110177919D01*
X160265134Y-110183410D01*
X160432648Y-110209942D01*
X160432649Y-110209942D01*
X160637351Y-110209942D01*
X160637352Y-110209942D01*
X160839534Y-110177919D01*
X161034219Y-110114662D01*
X161216610Y-110021729D01*
X161327119Y-109941440D01*
X161382213Y-109901413D01*
X161382215Y-109901410D01*
X161382219Y-109901408D01*
X161526966Y-109756661D01*
X161526968Y-109756657D01*
X161526971Y-109756655D01*
X161647284Y-109591056D01*
X161647286Y-109591053D01*
X161647287Y-109591052D01*
X161694516Y-109498359D01*
X161742489Y-109447565D01*
X161810310Y-109430770D01*
X161876445Y-109453307D01*
X161915485Y-109498361D01*
X161962715Y-109591056D01*
X162083028Y-109756655D01*
X162227786Y-109901413D01*
X162382749Y-110013998D01*
X162393390Y-110021729D01*
X162509607Y-110080945D01*
X162575776Y-110114660D01*
X162575778Y-110114660D01*
X162575781Y-110114662D01*
X162631032Y-110132614D01*
X162770465Y-110177919D01*
X162805134Y-110183410D01*
X162972648Y-110209942D01*
X162972649Y-110209942D01*
X163177351Y-110209942D01*
X163177352Y-110209942D01*
X163379534Y-110177919D01*
X163574219Y-110114662D01*
X163756610Y-110021729D01*
X163867119Y-109941440D01*
X163922213Y-109901413D01*
X163922215Y-109901410D01*
X163922219Y-109901408D01*
X164066966Y-109756661D01*
X164066968Y-109756657D01*
X164066971Y-109756655D01*
X164187284Y-109591056D01*
X164187286Y-109591053D01*
X164187287Y-109591052D01*
X164234516Y-109498359D01*
X164282489Y-109447565D01*
X164350310Y-109430770D01*
X164416445Y-109453307D01*
X164455485Y-109498361D01*
X164502715Y-109591056D01*
X164623028Y-109756655D01*
X164767786Y-109901413D01*
X164922749Y-110013998D01*
X164933390Y-110021729D01*
X165049607Y-110080945D01*
X165115776Y-110114660D01*
X165115778Y-110114660D01*
X165115781Y-110114662D01*
X165171032Y-110132614D01*
X165310465Y-110177919D01*
X165345134Y-110183410D01*
X165512648Y-110209942D01*
X165512649Y-110209942D01*
X165717351Y-110209942D01*
X165717352Y-110209942D01*
X165919534Y-110177919D01*
X166114219Y-110114662D01*
X166296610Y-110021729D01*
X166407119Y-109941440D01*
X166462213Y-109901413D01*
X166462215Y-109901410D01*
X166462219Y-109901408D01*
X166606966Y-109756661D01*
X166606968Y-109756657D01*
X166606971Y-109756655D01*
X166727284Y-109591056D01*
X166727286Y-109591053D01*
X166727287Y-109591052D01*
X166774516Y-109498359D01*
X166822489Y-109447565D01*
X166890310Y-109430770D01*
X166956445Y-109453307D01*
X166995485Y-109498361D01*
X167042715Y-109591056D01*
X167163028Y-109756655D01*
X167307786Y-109901413D01*
X167462749Y-110013998D01*
X167473390Y-110021729D01*
X167589607Y-110080945D01*
X167655776Y-110114660D01*
X167655778Y-110114660D01*
X167655781Y-110114662D01*
X167711032Y-110132614D01*
X167850465Y-110177919D01*
X167885134Y-110183410D01*
X168052648Y-110209942D01*
X168052649Y-110209942D01*
X168257351Y-110209942D01*
X168257352Y-110209942D01*
X168459534Y-110177919D01*
X168654219Y-110114662D01*
X168792530Y-110044189D01*
X172724500Y-110044189D01*
X172724500Y-112134680D01*
X172724501Y-112134695D01*
X172735070Y-112268994D01*
X172790949Y-112490757D01*
X172885528Y-112698979D01*
X172885531Y-112698985D01*
X173015759Y-112886956D01*
X173015763Y-112886961D01*
X173015766Y-112886965D01*
X173177477Y-113048676D01*
X173177481Y-113048679D01*
X173177485Y-113048682D01*
X173365456Y-113178910D01*
X173365462Y-113178913D01*
X173365463Y-113178913D01*
X173365464Y-113178914D01*
X173573684Y-113273493D01*
X173795447Y-113329372D01*
X173929753Y-113339942D01*
X176020246Y-113339941D01*
X176154553Y-113329372D01*
X176376316Y-113273493D01*
X176584536Y-113178914D01*
X176584538Y-113178912D01*
X176584543Y-113178910D01*
X176731756Y-113076919D01*
X176772523Y-113048676D01*
X176934234Y-112886965D01*
X176962477Y-112846198D01*
X177064468Y-112698985D01*
X177064471Y-112698979D01*
X177064472Y-112698978D01*
X177159051Y-112490758D01*
X177214930Y-112268995D01*
X177225500Y-112134689D01*
X177225499Y-110044196D01*
X177214930Y-109909889D01*
X177159051Y-109688126D01*
X177064472Y-109479906D01*
X177064471Y-109479904D01*
X177064468Y-109479898D01*
X176934240Y-109291927D01*
X176934237Y-109291923D01*
X176934234Y-109291919D01*
X176772523Y-109130208D01*
X176772519Y-109130205D01*
X176772514Y-109130201D01*
X176584543Y-108999973D01*
X176584537Y-108999970D01*
X176480426Y-108952680D01*
X176376316Y-108905391D01*
X176154553Y-108849512D01*
X176020247Y-108838942D01*
X176020245Y-108838942D01*
X173929761Y-108838942D01*
X173929746Y-108838943D01*
X173795447Y-108849512D01*
X173573684Y-108905391D01*
X173365462Y-108999970D01*
X173365456Y-108999973D01*
X173177485Y-109130201D01*
X173177473Y-109130211D01*
X173015769Y-109291915D01*
X173015759Y-109291927D01*
X172885531Y-109479898D01*
X172885528Y-109479904D01*
X172790949Y-109688126D01*
X172735070Y-109909889D01*
X172724500Y-110044189D01*
X168792530Y-110044189D01*
X168836610Y-110021729D01*
X168947118Y-109941441D01*
X168947120Y-109941440D01*
X169002212Y-109901413D01*
X169002210Y-109901413D01*
X169002219Y-109901408D01*
X169146966Y-109756661D01*
X169146968Y-109756657D01*
X169146971Y-109756655D01*
X169203264Y-109679173D01*
X169267287Y-109591052D01*
X169360220Y-109408661D01*
X169423477Y-109213976D01*
X169455500Y-109011794D01*
X169455500Y-108807090D01*
X169436614Y-108687848D01*
X169423477Y-108604907D01*
X169370117Y-108440684D01*
X169360220Y-108410223D01*
X169360218Y-108410220D01*
X169360218Y-108410218D01*
X169314515Y-108320522D01*
X169267287Y-108227832D01*
X169235092Y-108183519D01*
X169146971Y-108062228D01*
X169002213Y-107917470D01*
X168836613Y-107797157D01*
X168836612Y-107797156D01*
X168836610Y-107797155D01*
X168778260Y-107767424D01*
X168654223Y-107704223D01*
X168459534Y-107640964D01*
X168284995Y-107613320D01*
X168257352Y-107608942D01*
X168052648Y-107608942D01*
X168028329Y-107612793D01*
X167850465Y-107640964D01*
X167655776Y-107704223D01*
X167473386Y-107797157D01*
X167307786Y-107917470D01*
X167163028Y-108062228D01*
X167042715Y-108227828D01*
X166995485Y-108320522D01*
X166947510Y-108371318D01*
X166879689Y-108388113D01*
X166813554Y-108365576D01*
X166774515Y-108320522D01*
X166773883Y-108319282D01*
X166727287Y-108227832D01*
X166695092Y-108183519D01*
X166606971Y-108062228D01*
X166462213Y-107917470D01*
X166296613Y-107797157D01*
X166296612Y-107797156D01*
X166296610Y-107797155D01*
X166238260Y-107767424D01*
X166114223Y-107704223D01*
X165919534Y-107640964D01*
X165744995Y-107613320D01*
X165717352Y-107608942D01*
X165512648Y-107608942D01*
X165488329Y-107612793D01*
X165310465Y-107640964D01*
X165115776Y-107704223D01*
X164933386Y-107797157D01*
X164767786Y-107917470D01*
X164623028Y-108062228D01*
X164502715Y-108227828D01*
X164455485Y-108320522D01*
X164407510Y-108371318D01*
X164339689Y-108388113D01*
X164273554Y-108365576D01*
X164234515Y-108320522D01*
X164233883Y-108319282D01*
X164187287Y-108227832D01*
X164155092Y-108183519D01*
X164066971Y-108062228D01*
X163922213Y-107917470D01*
X163756613Y-107797157D01*
X163756612Y-107797156D01*
X163756610Y-107797155D01*
X163698260Y-107767424D01*
X163574223Y-107704223D01*
X163379534Y-107640964D01*
X163204995Y-107613320D01*
X163177352Y-107608942D01*
X162972648Y-107608942D01*
X162948329Y-107612793D01*
X162770465Y-107640964D01*
X162575776Y-107704223D01*
X162393386Y-107797157D01*
X162227786Y-107917470D01*
X162083028Y-108062228D01*
X161962715Y-108227828D01*
X161915485Y-108320522D01*
X161867510Y-108371318D01*
X161799689Y-108388113D01*
X161733554Y-108365576D01*
X161694515Y-108320522D01*
X161693883Y-108319282D01*
X161647287Y-108227832D01*
X161615092Y-108183519D01*
X161526971Y-108062228D01*
X161382213Y-107917470D01*
X161216613Y-107797157D01*
X161216612Y-107797156D01*
X161216610Y-107797155D01*
X161158260Y-107767424D01*
X161034223Y-107704223D01*
X160839534Y-107640964D01*
X160664995Y-107613320D01*
X160637352Y-107608942D01*
X160432648Y-107608942D01*
X160408329Y-107612793D01*
X160230465Y-107640964D01*
X160035776Y-107704223D01*
X159853386Y-107797157D01*
X159687786Y-107917470D01*
X159543028Y-108062228D01*
X159422715Y-108227828D01*
X159375485Y-108320522D01*
X159327510Y-108371318D01*
X159259689Y-108388113D01*
X159193554Y-108365576D01*
X159154515Y-108320522D01*
X159153883Y-108319282D01*
X159107287Y-108227832D01*
X159075092Y-108183519D01*
X158986971Y-108062228D01*
X158842213Y-107917470D01*
X158676613Y-107797157D01*
X158676612Y-107797156D01*
X158676610Y-107797155D01*
X158618260Y-107767424D01*
X158494223Y-107704223D01*
X158299534Y-107640964D01*
X158124995Y-107613320D01*
X158097352Y-107608942D01*
X157892648Y-107608942D01*
X157868329Y-107612793D01*
X157690465Y-107640964D01*
X157495776Y-107704223D01*
X157313386Y-107797157D01*
X157147786Y-107917470D01*
X157003028Y-108062228D01*
X156882715Y-108227828D01*
X156835485Y-108320522D01*
X156787510Y-108371318D01*
X156719689Y-108388113D01*
X156653554Y-108365576D01*
X156614515Y-108320522D01*
X156613883Y-108319282D01*
X156567287Y-108227832D01*
X156535092Y-108183519D01*
X156446971Y-108062228D01*
X156302213Y-107917470D01*
X156136613Y-107797157D01*
X156136612Y-107797156D01*
X156136610Y-107797155D01*
X156078260Y-107767424D01*
X155954223Y-107704223D01*
X155759534Y-107640964D01*
X155584995Y-107613320D01*
X155557352Y-107608942D01*
X155352648Y-107608942D01*
X155328329Y-107612793D01*
X155150465Y-107640964D01*
X154955776Y-107704223D01*
X154773386Y-107797157D01*
X154607786Y-107917470D01*
X154463028Y-108062228D01*
X154342715Y-108227828D01*
X154295485Y-108320522D01*
X154247510Y-108371318D01*
X154179689Y-108388113D01*
X154113554Y-108365576D01*
X154074515Y-108320522D01*
X154073883Y-108319282D01*
X154027287Y-108227832D01*
X153995092Y-108183519D01*
X153906971Y-108062228D01*
X153762213Y-107917470D01*
X153596613Y-107797157D01*
X153596612Y-107797156D01*
X153596610Y-107797155D01*
X153538260Y-107767424D01*
X153414223Y-107704223D01*
X153219534Y-107640964D01*
X153044995Y-107613320D01*
X153017352Y-107608942D01*
X152812648Y-107608942D01*
X152788329Y-107612793D01*
X152610465Y-107640964D01*
X152415776Y-107704223D01*
X152233386Y-107797157D01*
X152067786Y-107917470D01*
X151923028Y-108062228D01*
X151802713Y-108227830D01*
X151755203Y-108321072D01*
X151707228Y-108371868D01*
X151639407Y-108388662D01*
X151573272Y-108366124D01*
X151534234Y-108321070D01*
X151486861Y-108228094D01*
X151454474Y-108183519D01*
X151454474Y-108183518D01*
X150866127Y-108771865D01*
X150850245Y-108712589D01*
X150783102Y-108596295D01*
X150688147Y-108501340D01*
X150571853Y-108434197D01*
X150512574Y-108418313D01*
X151100922Y-107829966D01*
X151100921Y-107829965D01*
X151056359Y-107797589D01*
X151056350Y-107797583D01*
X150962819Y-107749927D01*
X150912023Y-107701953D01*
X150895228Y-107634132D01*
X150917765Y-107567997D01*
X150962820Y-107528957D01*
X151056346Y-107481303D01*
X151056347Y-107481303D01*
X151100921Y-107448916D01*
X150512575Y-106860570D01*
X150571853Y-106844687D01*
X150688147Y-106777544D01*
X150783102Y-106682589D01*
X150850245Y-106566295D01*
X150866127Y-106507017D01*
X151454474Y-107095364D01*
X151454474Y-107095363D01*
X151486859Y-107050791D01*
X151579755Y-106868473D01*
X151642990Y-106673859D01*
X151675000Y-106471759D01*
X151675000Y-106267124D01*
X151642990Y-106065024D01*
X151614127Y-105976196D01*
X151614126Y-105976194D01*
X151602992Y-105941928D01*
X172724500Y-105941928D01*
X172724500Y-106236955D01*
X172741943Y-106369441D01*
X172763007Y-106529435D01*
X172814871Y-106722995D01*
X172839361Y-106814393D01*
X172839364Y-106814403D01*
X172952254Y-107086942D01*
X172952258Y-107086952D01*
X173099761Y-107342435D01*
X173279352Y-107576482D01*
X173279358Y-107576489D01*
X173487952Y-107785083D01*
X173487959Y-107785089D01*
X173722006Y-107964680D01*
X173977489Y-108112183D01*
X173977490Y-108112183D01*
X173977493Y-108112185D01*
X174250048Y-108225081D01*
X174535007Y-108301435D01*
X174827494Y-108339942D01*
X174827501Y-108339942D01*
X175122499Y-108339942D01*
X175122506Y-108339942D01*
X175414993Y-108301435D01*
X175699952Y-108225081D01*
X175972507Y-108112185D01*
X176227994Y-107964680D01*
X176462042Y-107785088D01*
X176670646Y-107576484D01*
X176850238Y-107342436D01*
X176997743Y-107086949D01*
X177110639Y-106814394D01*
X177186993Y-106529435D01*
X177225500Y-106236948D01*
X177225500Y-105941936D01*
X177186993Y-105649449D01*
X177110639Y-105364490D01*
X176997743Y-105091935D01*
X176993790Y-105085089D01*
X176850238Y-104836448D01*
X176670647Y-104602401D01*
X176670641Y-104602394D01*
X176462047Y-104393800D01*
X176462040Y-104393794D01*
X176227993Y-104214203D01*
X175972510Y-104066700D01*
X175972500Y-104066696D01*
X175699961Y-103953806D01*
X175699954Y-103953804D01*
X175699952Y-103953803D01*
X175414993Y-103877449D01*
X175366113Y-103871013D01*
X175122513Y-103838942D01*
X175122506Y-103838942D01*
X174827494Y-103838942D01*
X174827486Y-103838942D01*
X174549085Y-103875595D01*
X174535007Y-103877449D01*
X174332191Y-103931793D01*
X174250048Y-103953803D01*
X174250038Y-103953806D01*
X173977499Y-104066696D01*
X173977489Y-104066700D01*
X173722006Y-104214203D01*
X173487959Y-104393794D01*
X173487952Y-104393800D01*
X173279358Y-104602394D01*
X173279352Y-104602401D01*
X173099761Y-104836448D01*
X172952258Y-105091931D01*
X172952254Y-105091941D01*
X172839364Y-105364480D01*
X172839361Y-105364490D01*
X172765555Y-105639942D01*
X172763008Y-105649446D01*
X172763006Y-105649457D01*
X172724500Y-105941928D01*
X151602992Y-105941928D01*
X151579755Y-105870412D01*
X151486859Y-105688092D01*
X151454474Y-105643519D01*
X151454474Y-105643518D01*
X150866127Y-106231865D01*
X150850245Y-106172589D01*
X150783102Y-106056295D01*
X150688147Y-105961340D01*
X150571853Y-105894197D01*
X150512574Y-105878313D01*
X151100922Y-105289966D01*
X151100921Y-105289965D01*
X151056359Y-105257589D01*
X151056350Y-105257583D01*
X150963369Y-105210207D01*
X150912573Y-105162232D01*
X150895778Y-105094411D01*
X150918315Y-105028277D01*
X150963370Y-104989237D01*
X151056610Y-104941729D01*
X151146416Y-104876482D01*
X151222213Y-104821413D01*
X151222215Y-104821410D01*
X151222219Y-104821408D01*
X151366966Y-104676661D01*
X151366968Y-104676657D01*
X151366971Y-104676655D01*
X151420924Y-104602394D01*
X151487287Y-104511052D01*
X151580220Y-104328661D01*
X151643477Y-104133976D01*
X151675500Y-103931794D01*
X151675500Y-103727090D01*
X151643477Y-103524908D01*
X151580220Y-103330223D01*
X151580218Y-103330220D01*
X151580218Y-103330218D01*
X151546503Y-103264049D01*
X151487287Y-103147832D01*
X151434659Y-103075395D01*
X151366971Y-102982228D01*
X151222213Y-102837470D01*
X151056613Y-102717157D01*
X151056612Y-102717156D01*
X151056610Y-102717155D01*
X150999653Y-102688133D01*
X150874223Y-102624223D01*
X150679534Y-102560964D01*
X150504995Y-102533320D01*
X150477352Y-102528942D01*
X150272648Y-102528942D01*
X150248329Y-102532793D01*
X150070465Y-102560964D01*
X149875776Y-102624223D01*
X149693386Y-102717157D01*
X149527786Y-102837470D01*
X149383028Y-102982228D01*
X149262715Y-103147828D01*
X149169781Y-103330218D01*
X149106522Y-103524907D01*
X149074500Y-103727090D01*
X101300467Y-103727090D01*
X101325500Y-103536948D01*
X101325500Y-103241936D01*
X101286993Y-102949449D01*
X101210639Y-102664490D01*
X101097743Y-102391935D01*
X100950238Y-102136448D01*
X100893635Y-102062682D01*
X100770647Y-101902401D01*
X100770641Y-101902394D01*
X100646124Y-101777877D01*
X165814500Y-101777877D01*
X165814500Y-101981006D01*
X165846277Y-102181636D01*
X165846277Y-102181639D01*
X165909045Y-102374819D01*
X165952571Y-102460242D01*
X165987575Y-102528942D01*
X166001268Y-102555814D01*
X166120656Y-102720139D01*
X166120660Y-102720144D01*
X166264297Y-102863781D01*
X166264302Y-102863785D01*
X166407635Y-102967922D01*
X166428631Y-102983176D01*
X166609620Y-103075395D01*
X166609622Y-103075396D01*
X166802803Y-103138164D01*
X166802804Y-103138164D01*
X166802807Y-103138165D01*
X167003435Y-103169942D01*
X167003436Y-103169942D01*
X167206564Y-103169942D01*
X167206565Y-103169942D01*
X167407193Y-103138165D01*
X167407196Y-103138164D01*
X167407197Y-103138164D01*
X167600377Y-103075396D01*
X167600377Y-103075395D01*
X167600380Y-103075395D01*
X167758252Y-102994955D01*
X183774500Y-102994955D01*
X183774500Y-103183928D01*
X183804059Y-103370560D01*
X183862454Y-103550278D01*
X183941815Y-103706032D01*
X183948240Y-103718641D01*
X184059310Y-103871515D01*
X184192927Y-104005132D01*
X184345801Y-104116202D01*
X184380685Y-104133976D01*
X184514163Y-104201987D01*
X184514165Y-104201987D01*
X184514168Y-104201989D01*
X184551759Y-104214203D01*
X184693881Y-104260382D01*
X184880514Y-104289942D01*
X184880519Y-104289942D01*
X185069486Y-104289942D01*
X185256118Y-104260382D01*
X185435832Y-104201989D01*
X185604199Y-104116202D01*
X185757073Y-104005132D01*
X185890690Y-103871515D01*
X186001760Y-103718641D01*
X186087547Y-103550274D01*
X186145940Y-103370560D01*
X186152329Y-103330223D01*
X186175500Y-103183928D01*
X186175500Y-102994955D01*
X186145940Y-102808323D01*
X186087545Y-102628605D01*
X186001759Y-102460242D01*
X185952135Y-102391941D01*
X185890690Y-102307369D01*
X185757073Y-102173752D01*
X185604199Y-102062682D01*
X185435836Y-101976896D01*
X185256118Y-101918501D01*
X185069486Y-101888942D01*
X185069481Y-101888942D01*
X184880519Y-101888942D01*
X184880514Y-101888942D01*
X184693881Y-101918501D01*
X184514163Y-101976896D01*
X184345800Y-102062682D01*
X184258579Y-102126052D01*
X184192927Y-102173752D01*
X184192925Y-102173754D01*
X184192924Y-102173754D01*
X184059312Y-102307366D01*
X184059312Y-102307367D01*
X184059310Y-102307369D01*
X184011610Y-102373021D01*
X183948240Y-102460242D01*
X183862454Y-102628605D01*
X183804059Y-102808323D01*
X183774500Y-102994955D01*
X167758252Y-102994955D01*
X167781369Y-102983176D01*
X167857348Y-102927973D01*
X167909927Y-102889774D01*
X167909931Y-102889771D01*
X167928218Y-102876484D01*
X167945704Y-102863780D01*
X168089338Y-102720146D01*
X168208734Y-102555811D01*
X168300953Y-102374822D01*
X168363723Y-102181635D01*
X168395500Y-101981007D01*
X168395500Y-101777877D01*
X168363723Y-101577249D01*
X168363722Y-101577245D01*
X168363722Y-101577244D01*
X168300954Y-101384064D01*
X168300953Y-101384062D01*
X168208734Y-101203073D01*
X168162140Y-101138942D01*
X168089343Y-101038744D01*
X168089339Y-101038739D01*
X167945702Y-100895102D01*
X167945697Y-100895098D01*
X167781372Y-100775710D01*
X167781371Y-100775709D01*
X167781369Y-100775708D01*
X167690874Y-100729598D01*
X167600377Y-100683487D01*
X167407196Y-100620719D01*
X167256722Y-100596886D01*
X167206565Y-100588942D01*
X167003435Y-100588942D01*
X166936559Y-100599534D01*
X166802805Y-100620719D01*
X166802802Y-100620719D01*
X166609622Y-100683487D01*
X166428627Y-100775710D01*
X166264302Y-100895098D01*
X166264297Y-100895102D01*
X166120660Y-101038739D01*
X166120656Y-101038744D01*
X166001268Y-101203069D01*
X165909045Y-101384064D01*
X165846277Y-101577244D01*
X165846277Y-101577247D01*
X165814500Y-101777877D01*
X100646124Y-101777877D01*
X100562047Y-101693800D01*
X100562040Y-101693794D01*
X100327993Y-101514203D01*
X100072510Y-101366700D01*
X100072500Y-101366696D01*
X99799961Y-101253806D01*
X99799954Y-101253804D01*
X99799952Y-101253803D01*
X99514993Y-101177449D01*
X99466113Y-101171013D01*
X99222513Y-101138942D01*
X99222506Y-101138942D01*
X98927494Y-101138942D01*
X98927486Y-101138942D01*
X98649085Y-101175595D01*
X98635007Y-101177449D01*
X98350048Y-101253803D01*
X98350038Y-101253806D01*
X98077499Y-101366696D01*
X98077489Y-101366700D01*
X97822006Y-101514203D01*
X97587959Y-101693794D01*
X97587952Y-101693800D01*
X97379358Y-101902394D01*
X97379352Y-101902401D01*
X97199761Y-102136448D01*
X97052258Y-102391931D01*
X97052254Y-102391941D01*
X96939364Y-102664480D01*
X96939361Y-102664490D01*
X96885961Y-102863785D01*
X96863008Y-102949446D01*
X96863006Y-102949457D01*
X96824500Y-103241928D01*
X85500500Y-103241928D01*
X85500500Y-97344215D01*
X96825000Y-97344215D01*
X96825000Y-98139442D01*
X98156116Y-98139442D01*
X98125000Y-98295875D01*
X98125000Y-98483009D01*
X98156116Y-98639442D01*
X96825001Y-98639442D01*
X96825001Y-99434669D01*
X96835566Y-99568916D01*
X96891423Y-99790594D01*
X96985962Y-99998729D01*
X96985967Y-99998738D01*
X97116151Y-100186645D01*
X97277796Y-100348290D01*
X97465703Y-100478474D01*
X97465712Y-100478479D01*
X97673847Y-100573018D01*
X97895525Y-100628875D01*
X98029780Y-100639441D01*
X98824999Y-100639441D01*
X98825000Y-100639440D01*
X98825000Y-99308325D01*
X98981433Y-99339442D01*
X99168567Y-99339442D01*
X99325000Y-99308325D01*
X99325000Y-100639441D01*
X100120212Y-100639441D01*
X100120227Y-100639440D01*
X100254474Y-100628875D01*
X100476152Y-100573018D01*
X100684287Y-100478479D01*
X100684296Y-100478474D01*
X100872203Y-100348290D01*
X101033848Y-100186645D01*
X101164032Y-99998738D01*
X101164037Y-99998729D01*
X101258576Y-99790594D01*
X101314433Y-99568916D01*
X101324999Y-99434668D01*
X101325000Y-99434655D01*
X101325000Y-98639442D01*
X99993884Y-98639442D01*
X100025000Y-98483009D01*
X100025000Y-98295875D01*
X99993884Y-98139442D01*
X101324999Y-98139442D01*
X101324999Y-97344229D01*
X101324998Y-97344216D01*
X101318496Y-97261592D01*
X101318496Y-97261591D01*
X101318114Y-97256735D01*
X103824690Y-97256735D01*
X103824690Y-97463453D01*
X103840766Y-97564950D01*
X103857028Y-97667627D01*
X103857028Y-97667630D01*
X103920905Y-97864223D01*
X103982852Y-97985800D01*
X104014755Y-98048413D01*
X104136261Y-98215652D01*
X104282432Y-98361823D01*
X104449671Y-98483329D01*
X104633858Y-98577177D01*
X104633860Y-98577178D01*
X104830454Y-98641055D01*
X104830455Y-98641055D01*
X104830458Y-98641056D01*
X105034631Y-98673394D01*
X105034632Y-98673394D01*
X105241348Y-98673394D01*
X105241349Y-98673394D01*
X105445522Y-98641056D01*
X105445525Y-98641055D01*
X105445526Y-98641055D01*
X105642119Y-98577178D01*
X105642119Y-98577177D01*
X105642122Y-98577177D01*
X105826309Y-98483329D01*
X105993548Y-98361823D01*
X106139719Y-98215652D01*
X106261225Y-98048413D01*
X106355073Y-97864226D01*
X106376683Y-97797716D01*
X106418951Y-97667630D01*
X106418951Y-97667629D01*
X106418952Y-97667626D01*
X106451290Y-97463453D01*
X106451290Y-97256735D01*
X106418952Y-97052562D01*
X106418951Y-97052558D01*
X106418951Y-97052557D01*
X106355074Y-96855964D01*
X106316351Y-96779966D01*
X106261225Y-96671775D01*
X106139719Y-96504536D01*
X106134612Y-96499429D01*
X108904690Y-96499429D01*
X108904690Y-98220764D01*
X108904691Y-98220770D01*
X108911098Y-98280377D01*
X108961392Y-98415222D01*
X108961396Y-98415229D01*
X109047642Y-98530438D01*
X109047645Y-98530441D01*
X109162854Y-98616687D01*
X109162861Y-98616691D01*
X109297707Y-98666985D01*
X109297706Y-98666985D01*
X109304634Y-98667729D01*
X109357317Y-98673394D01*
X111078662Y-98673393D01*
X111138273Y-98666985D01*
X111273121Y-98616690D01*
X111388336Y-98530440D01*
X111474586Y-98415225D01*
X111524881Y-98280377D01*
X111531290Y-98220767D01*
X111531289Y-96706636D01*
X112013700Y-96706636D01*
X112013700Y-96893363D01*
X112042891Y-97077672D01*
X112042911Y-97077793D01*
X112100613Y-97255381D01*
X112185385Y-97421757D01*
X112295141Y-97572822D01*
X112427178Y-97704859D01*
X112578243Y-97814615D01*
X112744619Y-97899387D01*
X112922207Y-97957089D01*
X113106636Y-97986300D01*
X113106637Y-97986300D01*
X113293363Y-97986300D01*
X113293364Y-97986300D01*
X113477793Y-97957089D01*
X113655381Y-97899387D01*
X113821757Y-97814615D01*
X113972822Y-97704859D01*
X114104859Y-97572822D01*
X114214615Y-97421757D01*
X114299387Y-97255381D01*
X114357089Y-97077793D01*
X114386300Y-96893364D01*
X114386300Y-96706669D01*
X117014200Y-96706669D01*
X117014200Y-96893330D01*
X117043397Y-97077672D01*
X117101077Y-97255191D01*
X117185811Y-97421491D01*
X117202282Y-97444162D01*
X117772721Y-96873723D01*
X117797626Y-96966669D01*
X117854474Y-97065131D01*
X117934869Y-97145526D01*
X118033331Y-97202374D01*
X118126275Y-97227278D01*
X117555835Y-97797716D01*
X117578504Y-97814186D01*
X117744808Y-97898922D01*
X117922327Y-97956602D01*
X118106670Y-97985800D01*
X118293330Y-97985800D01*
X118477672Y-97956602D01*
X118655191Y-97898922D01*
X118821496Y-97814186D01*
X118844162Y-97797717D01*
X118844162Y-97797716D01*
X118744678Y-97698232D01*
X118273724Y-97227277D01*
X118366669Y-97202374D01*
X118465131Y-97145526D01*
X118545526Y-97065131D01*
X118602374Y-96966669D01*
X118627278Y-96873724D01*
X119197716Y-97444162D01*
X119197717Y-97444162D01*
X119214186Y-97421496D01*
X119298922Y-97255191D01*
X119356602Y-97077672D01*
X119385800Y-96893330D01*
X119385800Y-96706669D01*
X119365942Y-96581295D01*
X119365942Y-96581294D01*
X119363641Y-96566763D01*
X120927190Y-96566763D01*
X120927190Y-96753424D01*
X120956387Y-96937766D01*
X121014067Y-97115285D01*
X121098801Y-97281585D01*
X121115272Y-97304256D01*
X121685711Y-96733817D01*
X121710616Y-96826763D01*
X121767464Y-96925225D01*
X121847859Y-97005620D01*
X121946321Y-97062468D01*
X122039265Y-97087372D01*
X121468825Y-97657810D01*
X121491494Y-97674280D01*
X121657798Y-97759016D01*
X121835317Y-97816696D01*
X122019660Y-97845894D01*
X122206320Y-97845894D01*
X122390662Y-97816696D01*
X122568181Y-97759016D01*
X122734486Y-97674280D01*
X122757152Y-97657811D01*
X122757152Y-97657810D01*
X122186714Y-97087371D01*
X122279659Y-97062468D01*
X122378121Y-97005620D01*
X122458516Y-96925225D01*
X122515364Y-96826763D01*
X122540268Y-96733818D01*
X123110706Y-97304256D01*
X123110707Y-97304256D01*
X123127176Y-97281590D01*
X123211912Y-97115285D01*
X123269592Y-96937766D01*
X123298790Y-96753424D01*
X123298790Y-96566763D01*
X123298785Y-96566730D01*
X125926690Y-96566730D01*
X125926690Y-96753457D01*
X125955881Y-96937766D01*
X125955901Y-96937887D01*
X126013603Y-97115475D01*
X126098375Y-97281851D01*
X126208131Y-97432916D01*
X126340168Y-97564953D01*
X126491233Y-97674709D01*
X126657609Y-97759481D01*
X126835197Y-97817183D01*
X127019626Y-97846394D01*
X127019627Y-97846394D01*
X127206353Y-97846394D01*
X127206354Y-97846394D01*
X127390783Y-97817183D01*
X127568371Y-97759481D01*
X127572997Y-97757124D01*
X165945000Y-97757124D01*
X165945000Y-97961759D01*
X165977009Y-98163859D01*
X166040244Y-98358473D01*
X166133141Y-98540792D01*
X166133147Y-98540801D01*
X166165523Y-98585363D01*
X166165524Y-98585364D01*
X166753871Y-97997016D01*
X166769755Y-98056295D01*
X166836898Y-98172589D01*
X166931853Y-98267544D01*
X167048147Y-98334687D01*
X167107424Y-98350570D01*
X166519076Y-98938916D01*
X166563650Y-98971301D01*
X166745968Y-99064197D01*
X166940582Y-99127432D01*
X167142683Y-99159442D01*
X167347317Y-99159442D01*
X167549417Y-99127432D01*
X167744031Y-99064197D01*
X167926349Y-98971301D01*
X167970921Y-98938916D01*
X167382575Y-98350570D01*
X167441853Y-98334687D01*
X167558147Y-98267544D01*
X167653102Y-98172589D01*
X167720245Y-98056295D01*
X167736127Y-97997017D01*
X168324474Y-98585364D01*
X168324474Y-98585363D01*
X168356859Y-98540791D01*
X168449755Y-98358473D01*
X168512990Y-98163859D01*
X168545000Y-97961759D01*
X168545000Y-97757124D01*
X168512990Y-97555024D01*
X168449755Y-97360410D01*
X168356859Y-97178092D01*
X168324474Y-97133519D01*
X168324474Y-97133518D01*
X167736127Y-97721865D01*
X167720245Y-97662589D01*
X167653102Y-97546295D01*
X167558147Y-97451340D01*
X167441853Y-97384197D01*
X167382574Y-97368313D01*
X167970922Y-96779966D01*
X167970921Y-96779965D01*
X167926359Y-96747589D01*
X167926350Y-96747583D01*
X167744031Y-96654686D01*
X167549417Y-96591451D01*
X167347317Y-96559442D01*
X167142683Y-96559442D01*
X166940582Y-96591451D01*
X166745968Y-96654686D01*
X166563644Y-96747585D01*
X166519077Y-96779965D01*
X166519077Y-96779966D01*
X167107425Y-97368313D01*
X167048147Y-97384197D01*
X166931853Y-97451340D01*
X166836898Y-97546295D01*
X166769755Y-97662589D01*
X166753871Y-97721866D01*
X166165524Y-97133519D01*
X166165523Y-97133519D01*
X166133143Y-97178086D01*
X166040244Y-97360410D01*
X165977009Y-97555024D01*
X165945000Y-97757124D01*
X127572997Y-97757124D01*
X127734747Y-97674709D01*
X127885812Y-97564953D01*
X128017849Y-97432916D01*
X128127605Y-97281851D01*
X128212377Y-97115475D01*
X128270079Y-96937887D01*
X128291919Y-96800000D01*
X128299290Y-96753458D01*
X128299290Y-96566730D01*
X128289036Y-96501989D01*
X128270079Y-96382301D01*
X128212377Y-96204713D01*
X128127605Y-96038337D01*
X128017849Y-95887272D01*
X127885812Y-95755235D01*
X127816492Y-95704871D01*
X178087600Y-95704871D01*
X178087600Y-95907512D01*
X178119299Y-96107655D01*
X178181921Y-96300384D01*
X178273916Y-96480936D01*
X178304545Y-96523091D01*
X178304546Y-96523092D01*
X178864765Y-95962872D01*
X178877950Y-96012077D01*
X178948174Y-96133707D01*
X179047485Y-96233018D01*
X179169115Y-96303242D01*
X179218319Y-96316426D01*
X178658099Y-96876645D01*
X178658099Y-96876646D01*
X178700254Y-96907274D01*
X178880807Y-96999270D01*
X179073536Y-97061892D01*
X179073535Y-97061892D01*
X179273680Y-97093592D01*
X179476320Y-97093592D01*
X179676463Y-97061892D01*
X179869192Y-96999270D01*
X180049747Y-96907273D01*
X180049751Y-96907271D01*
X180091899Y-96876646D01*
X180091900Y-96876646D01*
X179531680Y-96316426D01*
X179580885Y-96303242D01*
X179702515Y-96233018D01*
X179801826Y-96133707D01*
X179872050Y-96012077D01*
X179885234Y-95962872D01*
X180445453Y-96523092D01*
X180445454Y-96523091D01*
X180476079Y-96480943D01*
X180476081Y-96480939D01*
X180568078Y-96300384D01*
X180630700Y-96107655D01*
X180662400Y-95907512D01*
X180662400Y-95704871D01*
X180630700Y-95504728D01*
X180568078Y-95311999D01*
X180476082Y-95131446D01*
X180445453Y-95089291D01*
X179885233Y-95649510D01*
X179872050Y-95600307D01*
X179801826Y-95478677D01*
X179702515Y-95379366D01*
X179580885Y-95309142D01*
X179531680Y-95295957D01*
X180091900Y-94735738D01*
X180091899Y-94735737D01*
X180049744Y-94705108D01*
X179869192Y-94613113D01*
X179676463Y-94550491D01*
X179676464Y-94550491D01*
X179476320Y-94518792D01*
X179273680Y-94518792D01*
X179073536Y-94550491D01*
X178880807Y-94613113D01*
X178700250Y-94705111D01*
X178658099Y-94735736D01*
X178658098Y-94735737D01*
X179218319Y-95295957D01*
X179169115Y-95309142D01*
X179047485Y-95379366D01*
X178948174Y-95478677D01*
X178877950Y-95600307D01*
X178864766Y-95649511D01*
X178304545Y-95089290D01*
X178304544Y-95089291D01*
X178273919Y-95131442D01*
X178181921Y-95311999D01*
X178119299Y-95504728D01*
X178087600Y-95704871D01*
X127816492Y-95704871D01*
X127734747Y-95645479D01*
X127568371Y-95560707D01*
X127390783Y-95503005D01*
X127390781Y-95503004D01*
X127390779Y-95503004D01*
X127262008Y-95482608D01*
X127206354Y-95473794D01*
X127019626Y-95473794D01*
X126976873Y-95480565D01*
X126835200Y-95503004D01*
X126657606Y-95560708D01*
X126491232Y-95645479D01*
X126340166Y-95755236D01*
X126208132Y-95887270D01*
X126098375Y-96038336D01*
X126013604Y-96204710D01*
X125955900Y-96382304D01*
X125926690Y-96566730D01*
X123298785Y-96566730D01*
X123269592Y-96382421D01*
X123211912Y-96204902D01*
X123127176Y-96038598D01*
X123110706Y-96015930D01*
X123110706Y-96015929D01*
X122540267Y-96586368D01*
X122515364Y-96493425D01*
X122458516Y-96394963D01*
X122378121Y-96314568D01*
X122279659Y-96257720D01*
X122186714Y-96232816D01*
X122757152Y-95662376D01*
X122734481Y-95645905D01*
X122568181Y-95561171D01*
X122390662Y-95503491D01*
X122206320Y-95474294D01*
X122019660Y-95474294D01*
X121835317Y-95503491D01*
X121657798Y-95561171D01*
X121491492Y-95645908D01*
X121468826Y-95662376D01*
X121468825Y-95662376D01*
X122039265Y-96232815D01*
X121946321Y-96257720D01*
X121847859Y-96314568D01*
X121767464Y-96394963D01*
X121710616Y-96493425D01*
X121685712Y-96586369D01*
X121115272Y-96015929D01*
X121115272Y-96015930D01*
X121098804Y-96038596D01*
X121014067Y-96204902D01*
X120956387Y-96382421D01*
X120927190Y-96566763D01*
X119363641Y-96566763D01*
X119356603Y-96522328D01*
X119356602Y-96522327D01*
X119298922Y-96344808D01*
X119214186Y-96178504D01*
X119197716Y-96155836D01*
X119197716Y-96155835D01*
X118627277Y-96726274D01*
X118602374Y-96633331D01*
X118545526Y-96534869D01*
X118465131Y-96454474D01*
X118366669Y-96397626D01*
X118273724Y-96372722D01*
X118844162Y-95802282D01*
X118844162Y-95802281D01*
X118821497Y-95785814D01*
X118821493Y-95785812D01*
X118655191Y-95701077D01*
X118477672Y-95643397D01*
X118293330Y-95614200D01*
X118106670Y-95614200D01*
X117922327Y-95643397D01*
X117744808Y-95701077D01*
X117578502Y-95785814D01*
X117555836Y-95802282D01*
X117555835Y-95802282D01*
X118126275Y-96372721D01*
X118033331Y-96397626D01*
X117934869Y-96454474D01*
X117854474Y-96534869D01*
X117797626Y-96633331D01*
X117772722Y-96726275D01*
X117202282Y-96155835D01*
X117202282Y-96155836D01*
X117185814Y-96178502D01*
X117101077Y-96344808D01*
X117043397Y-96522327D01*
X117014200Y-96706669D01*
X114386300Y-96706669D01*
X114386300Y-96706636D01*
X114357089Y-96522207D01*
X114299387Y-96344619D01*
X114214615Y-96178243D01*
X114104859Y-96027178D01*
X113972822Y-95895141D01*
X113821757Y-95785385D01*
X113655381Y-95700613D01*
X113477793Y-95642911D01*
X113477791Y-95642910D01*
X113477789Y-95642910D01*
X113349018Y-95622514D01*
X113293364Y-95613700D01*
X113106636Y-95613700D01*
X113063883Y-95620471D01*
X112922210Y-95642910D01*
X112744616Y-95700614D01*
X112578242Y-95785385D01*
X112427176Y-95895142D01*
X112295142Y-96027176D01*
X112185385Y-96178242D01*
X112100614Y-96344616D01*
X112042910Y-96522210D01*
X112013700Y-96706636D01*
X111531289Y-96706636D01*
X111531289Y-96499422D01*
X111524881Y-96439811D01*
X111516075Y-96416202D01*
X111474587Y-96304965D01*
X111474583Y-96304958D01*
X111388337Y-96189749D01*
X111388334Y-96189746D01*
X111273125Y-96103500D01*
X111273118Y-96103496D01*
X111138272Y-96053202D01*
X111138273Y-96053202D01*
X111078673Y-96046795D01*
X111078671Y-96046794D01*
X111078663Y-96046794D01*
X111078654Y-96046794D01*
X109357319Y-96046794D01*
X109357313Y-96046795D01*
X109297706Y-96053202D01*
X109162861Y-96103496D01*
X109162854Y-96103500D01*
X109047645Y-96189746D01*
X109047642Y-96189749D01*
X108961396Y-96304958D01*
X108961392Y-96304965D01*
X108911098Y-96439811D01*
X108904691Y-96499410D01*
X108904691Y-96499417D01*
X108904690Y-96499429D01*
X106134612Y-96499429D01*
X105993548Y-96358365D01*
X105826309Y-96236859D01*
X105763213Y-96204710D01*
X105642119Y-96143009D01*
X105445525Y-96079132D01*
X105292392Y-96054878D01*
X105241349Y-96046794D01*
X105034631Y-96046794D01*
X104966573Y-96057573D01*
X104830456Y-96079132D01*
X104830453Y-96079132D01*
X104633860Y-96143009D01*
X104449670Y-96236859D01*
X104282429Y-96358367D01*
X104136263Y-96504533D01*
X104014755Y-96671774D01*
X103920905Y-96855964D01*
X103857028Y-97052557D01*
X103857028Y-97052560D01*
X103842304Y-97145526D01*
X103824690Y-97256735D01*
X101318114Y-97256735D01*
X101314433Y-97209967D01*
X101258576Y-96988289D01*
X101164037Y-96780154D01*
X101164032Y-96780145D01*
X101033848Y-96592238D01*
X100872203Y-96430593D01*
X100684296Y-96300409D01*
X100684287Y-96300404D01*
X100476152Y-96205865D01*
X100254474Y-96150008D01*
X100120226Y-96139442D01*
X99325000Y-96139442D01*
X99325000Y-97470558D01*
X99168567Y-97439442D01*
X98981433Y-97439442D01*
X98825000Y-97470558D01*
X98825000Y-96139442D01*
X98029787Y-96139442D01*
X98029772Y-96139443D01*
X97895525Y-96150008D01*
X97673847Y-96205865D01*
X97465712Y-96300404D01*
X97465703Y-96300409D01*
X97277796Y-96430593D01*
X97116151Y-96592238D01*
X96985967Y-96780145D01*
X96985962Y-96780154D01*
X96891423Y-96988289D01*
X96835566Y-97209967D01*
X96825000Y-97344215D01*
X85500500Y-97344215D01*
X85500500Y-95294955D01*
X87874500Y-95294955D01*
X87874500Y-95483928D01*
X87904059Y-95670560D01*
X87962454Y-95850278D01*
X88044895Y-96012077D01*
X88048240Y-96018641D01*
X88159310Y-96171515D01*
X88292927Y-96305132D01*
X88445801Y-96416202D01*
X88520914Y-96454474D01*
X88614163Y-96501987D01*
X88614165Y-96501987D01*
X88614168Y-96501989D01*
X88676762Y-96522327D01*
X88793881Y-96560382D01*
X88980514Y-96589942D01*
X88980519Y-96589942D01*
X89169486Y-96589942D01*
X89356118Y-96560382D01*
X89359011Y-96559442D01*
X89535832Y-96501989D01*
X89704199Y-96416202D01*
X89857073Y-96305132D01*
X89990690Y-96171515D01*
X90101760Y-96018641D01*
X90187547Y-95850274D01*
X90245940Y-95670560D01*
X90247236Y-95662376D01*
X90275500Y-95483928D01*
X90275500Y-95294955D01*
X90245940Y-95108323D01*
X90218846Y-95024939D01*
X90187547Y-94928610D01*
X90187545Y-94928607D01*
X90187545Y-94928605D01*
X90128677Y-94813071D01*
X90101760Y-94760243D01*
X89990690Y-94607369D01*
X89857073Y-94473752D01*
X89704199Y-94362682D01*
X89535836Y-94276896D01*
X89356118Y-94218501D01*
X89169486Y-94188942D01*
X89169481Y-94188942D01*
X88980519Y-94188942D01*
X88980514Y-94188942D01*
X88793881Y-94218501D01*
X88614163Y-94276896D01*
X88445800Y-94362682D01*
X88396426Y-94398555D01*
X88292927Y-94473752D01*
X88292925Y-94473754D01*
X88292924Y-94473754D01*
X88159312Y-94607366D01*
X88159312Y-94607367D01*
X88159310Y-94607369D01*
X88138346Y-94636224D01*
X88048240Y-94760242D01*
X87962454Y-94928605D01*
X87904059Y-95108323D01*
X87874500Y-95294955D01*
X85500500Y-95294955D01*
X85500500Y-92208774D01*
X103551005Y-92208774D01*
X103551005Y-92395435D01*
X103580202Y-92579777D01*
X103637882Y-92757296D01*
X103722616Y-92923596D01*
X103739087Y-92946267D01*
X104309526Y-92375828D01*
X104334431Y-92468774D01*
X104391279Y-92567236D01*
X104471674Y-92647631D01*
X104570136Y-92704479D01*
X104663080Y-92729383D01*
X104092640Y-93299821D01*
X104115309Y-93316291D01*
X104281613Y-93401027D01*
X104459132Y-93458707D01*
X104643475Y-93487905D01*
X104830135Y-93487905D01*
X105014477Y-93458707D01*
X105191996Y-93401027D01*
X105358301Y-93316291D01*
X105380967Y-93299822D01*
X105380967Y-93299821D01*
X104810529Y-92729382D01*
X104903474Y-92704479D01*
X105001936Y-92647631D01*
X105082331Y-92567236D01*
X105139179Y-92468774D01*
X105164083Y-92375829D01*
X105734521Y-92946267D01*
X105734522Y-92946267D01*
X105750991Y-92923601D01*
X105835727Y-92757296D01*
X105893407Y-92579777D01*
X105922605Y-92395435D01*
X105922605Y-92208774D01*
X105922600Y-92208741D01*
X108550505Y-92208741D01*
X108550505Y-92395469D01*
X108552520Y-92408193D01*
X108579696Y-92579777D01*
X108579716Y-92579898D01*
X108637418Y-92757486D01*
X108722190Y-92923862D01*
X108831946Y-93074927D01*
X108963983Y-93206964D01*
X108963989Y-93206968D01*
X109079189Y-93290668D01*
X109121855Y-93345998D01*
X109127833Y-93415611D01*
X109109406Y-93459874D01*
X109083102Y-93499241D01*
X109083101Y-93499243D01*
X109018989Y-93654022D01*
X109018987Y-93654030D01*
X108986305Y-93818333D01*
X108986305Y-93985876D01*
X109018987Y-94150179D01*
X109018989Y-94150187D01*
X109083100Y-94304965D01*
X109176178Y-94444267D01*
X109294642Y-94562731D01*
X109387299Y-94624642D01*
X109433942Y-94655808D01*
X109588723Y-94719921D01*
X109753033Y-94752604D01*
X109753037Y-94752605D01*
X109753038Y-94752605D01*
X109920573Y-94752605D01*
X109920574Y-94752604D01*
X110084887Y-94719921D01*
X110084899Y-94719915D01*
X110090714Y-94718153D01*
X110090904Y-94718781D01*
X110132069Y-94710594D01*
X126686910Y-94710594D01*
X126784452Y-94691190D01*
X126831903Y-94681752D01*
X126968485Y-94625178D01*
X127017719Y-94592280D01*
X127091404Y-94543048D01*
X127091407Y-94543045D01*
X127235895Y-94398555D01*
X127276121Y-94371676D01*
X127415853Y-94313797D01*
X127555152Y-94220720D01*
X127673616Y-94102256D01*
X127766693Y-93962957D01*
X127830806Y-93808176D01*
X127863490Y-93643861D01*
X127863490Y-93577991D01*
X141274500Y-93577991D01*
X141274500Y-93800892D01*
X141274501Y-93800908D01*
X141303594Y-94021894D01*
X141303595Y-94021899D01*
X141303596Y-94021905D01*
X141356274Y-94218502D01*
X141361290Y-94237222D01*
X141361293Y-94237232D01*
X141446593Y-94443164D01*
X141446595Y-94443168D01*
X141558052Y-94636216D01*
X141558057Y-94636222D01*
X141558058Y-94636224D01*
X141693751Y-94813064D01*
X141693757Y-94813071D01*
X141851370Y-94970684D01*
X141851376Y-94970689D01*
X142028226Y-95106390D01*
X142221274Y-95217847D01*
X142351140Y-95271639D01*
X142407429Y-95294955D01*
X142427219Y-95303152D01*
X142642537Y-95360846D01*
X142863543Y-95389942D01*
X142863550Y-95389942D01*
X143086450Y-95389942D01*
X143086457Y-95389942D01*
X143307463Y-95360846D01*
X143522781Y-95303152D01*
X143728726Y-95217847D01*
X143921774Y-95106390D01*
X144098624Y-94970689D01*
X144256247Y-94813066D01*
X144391948Y-94636216D01*
X144503405Y-94443168D01*
X144560439Y-94305476D01*
X144604280Y-94251073D01*
X144670574Y-94229008D01*
X144738273Y-94246287D01*
X144785884Y-94297424D01*
X144789561Y-94305476D01*
X144828115Y-94398555D01*
X144846595Y-94443168D01*
X144958052Y-94636216D01*
X144958057Y-94636222D01*
X144958058Y-94636224D01*
X145093751Y-94813064D01*
X145093757Y-94813071D01*
X145251370Y-94970684D01*
X145251376Y-94970689D01*
X145428226Y-95106390D01*
X145621274Y-95217847D01*
X145751140Y-95271639D01*
X145807429Y-95294955D01*
X145827219Y-95303152D01*
X146042537Y-95360846D01*
X146263543Y-95389942D01*
X146263550Y-95389942D01*
X146486450Y-95389942D01*
X146486457Y-95389942D01*
X146707463Y-95360846D01*
X146922781Y-95303152D01*
X147128726Y-95217847D01*
X147321774Y-95106390D01*
X147498624Y-94970689D01*
X147656247Y-94813066D01*
X147715584Y-94735736D01*
X147737242Y-94707511D01*
X147757009Y-94681750D01*
X147791948Y-94636216D01*
X147903405Y-94443168D01*
X147988710Y-94237223D01*
X148046404Y-94021905D01*
X148075500Y-93800899D01*
X148075500Y-93577985D01*
X148046404Y-93356979D01*
X147988710Y-93141661D01*
X147903405Y-92935716D01*
X147811841Y-92777124D01*
X149075000Y-92777124D01*
X149075000Y-92981759D01*
X149107009Y-93183859D01*
X149170244Y-93378473D01*
X149263141Y-93560792D01*
X149263147Y-93560801D01*
X149295523Y-93605363D01*
X149295524Y-93605364D01*
X149883871Y-93017016D01*
X149899755Y-93076295D01*
X149966898Y-93192589D01*
X150061853Y-93287544D01*
X150178147Y-93354687D01*
X150237424Y-93370570D01*
X149649076Y-93958916D01*
X149693650Y-93991301D01*
X149875968Y-94084197D01*
X150070582Y-94147432D01*
X150272683Y-94179442D01*
X150477317Y-94179442D01*
X150679417Y-94147432D01*
X150874031Y-94084197D01*
X151056349Y-93991301D01*
X151100921Y-93958916D01*
X150512575Y-93370570D01*
X150571853Y-93354687D01*
X150688147Y-93287544D01*
X150783102Y-93192589D01*
X150850245Y-93076295D01*
X150866127Y-93017017D01*
X151454474Y-93605364D01*
X151454474Y-93605363D01*
X151486859Y-93560791D01*
X151579755Y-93378473D01*
X151642990Y-93183859D01*
X151675000Y-92981759D01*
X151675000Y-92777124D01*
X151642990Y-92575024D01*
X151579755Y-92380410D01*
X151486859Y-92198092D01*
X151454474Y-92153519D01*
X151454474Y-92153518D01*
X150866127Y-92741865D01*
X150850245Y-92682589D01*
X150783102Y-92566295D01*
X150688147Y-92471340D01*
X150571853Y-92404197D01*
X150512574Y-92388313D01*
X151100922Y-91799966D01*
X151100921Y-91799965D01*
X151056359Y-91767589D01*
X151056350Y-91767583D01*
X150874031Y-91674686D01*
X150679417Y-91611451D01*
X150477317Y-91579442D01*
X150272683Y-91579442D01*
X150070582Y-91611451D01*
X149875968Y-91674686D01*
X149693644Y-91767585D01*
X149649077Y-91799965D01*
X149649077Y-91799966D01*
X150237425Y-92388313D01*
X150178147Y-92404197D01*
X150061853Y-92471340D01*
X149966898Y-92566295D01*
X149899755Y-92682589D01*
X149883871Y-92741866D01*
X149295524Y-92153519D01*
X149295523Y-92153519D01*
X149263143Y-92198086D01*
X149170244Y-92380410D01*
X149107009Y-92575024D01*
X149075000Y-92777124D01*
X147811841Y-92777124D01*
X147791948Y-92742668D01*
X147656247Y-92565818D01*
X147656242Y-92565812D01*
X147498629Y-92408199D01*
X147498622Y-92408193D01*
X147321782Y-92272500D01*
X147321780Y-92272499D01*
X147321774Y-92272494D01*
X147128726Y-92161037D01*
X147128722Y-92161035D01*
X146922790Y-92075735D01*
X146922783Y-92075733D01*
X146922781Y-92075732D01*
X146707463Y-92018038D01*
X146707457Y-92018037D01*
X146707452Y-92018036D01*
X146486466Y-91988943D01*
X146486463Y-91988942D01*
X146486457Y-91988942D01*
X146263543Y-91988942D01*
X146263537Y-91988942D01*
X146263533Y-91988943D01*
X146042547Y-92018036D01*
X146042540Y-92018037D01*
X146042537Y-92018038D01*
X145971867Y-92036974D01*
X145827219Y-92075732D01*
X145827209Y-92075735D01*
X145621277Y-92161035D01*
X145621273Y-92161037D01*
X145428226Y-92272494D01*
X145428217Y-92272500D01*
X145251377Y-92408193D01*
X145251370Y-92408199D01*
X145093757Y-92565812D01*
X145093751Y-92565819D01*
X144958058Y-92742659D01*
X144958052Y-92742668D01*
X144846595Y-92935715D01*
X144846593Y-92935719D01*
X144789561Y-93073407D01*
X144745720Y-93127810D01*
X144679426Y-93149875D01*
X144611726Y-93132596D01*
X144564116Y-93081458D01*
X144560439Y-93073407D01*
X144503406Y-92935719D01*
X144503405Y-92935716D01*
X144391948Y-92742668D01*
X144256247Y-92565818D01*
X144256242Y-92565812D01*
X144098629Y-92408199D01*
X144098622Y-92408193D01*
X143921782Y-92272500D01*
X143921780Y-92272499D01*
X143921774Y-92272494D01*
X143728726Y-92161037D01*
X143728722Y-92161035D01*
X143522790Y-92075735D01*
X143522783Y-92075733D01*
X143522781Y-92075732D01*
X143307463Y-92018038D01*
X143307457Y-92018037D01*
X143307452Y-92018036D01*
X143086466Y-91988943D01*
X143086463Y-91988942D01*
X143086457Y-91988942D01*
X142863543Y-91988942D01*
X142863537Y-91988942D01*
X142863533Y-91988943D01*
X142642547Y-92018036D01*
X142642540Y-92018037D01*
X142642537Y-92018038D01*
X142571867Y-92036974D01*
X142427219Y-92075732D01*
X142427209Y-92075735D01*
X142221277Y-92161035D01*
X142221273Y-92161037D01*
X142028226Y-92272494D01*
X142028217Y-92272500D01*
X141851377Y-92408193D01*
X141851370Y-92408199D01*
X141693757Y-92565812D01*
X141693751Y-92565819D01*
X141558058Y-92742659D01*
X141558052Y-92742668D01*
X141446595Y-92935715D01*
X141446593Y-92935719D01*
X141361293Y-93141651D01*
X141361290Y-93141661D01*
X141304946Y-93351943D01*
X141303597Y-93356976D01*
X141303594Y-93356989D01*
X141274501Y-93577975D01*
X141274500Y-93577991D01*
X127863490Y-93577991D01*
X127863490Y-93476327D01*
X127830806Y-93312012D01*
X127766693Y-93157231D01*
X127711699Y-93074927D01*
X127673616Y-93017931D01*
X127555152Y-92899467D01*
X127415850Y-92806389D01*
X127261072Y-92742278D01*
X127261064Y-92742276D01*
X127096761Y-92709594D01*
X127096757Y-92709594D01*
X126929223Y-92709594D01*
X126929218Y-92709594D01*
X126764915Y-92742276D01*
X126764907Y-92742278D01*
X126610129Y-92806389D01*
X126470827Y-92899467D01*
X126352363Y-93017931D01*
X126261122Y-93154485D01*
X126207510Y-93199290D01*
X126158020Y-93209594D01*
X110787187Y-93209594D01*
X110720148Y-93189909D01*
X110674393Y-93137105D01*
X110664449Y-93067947D01*
X110686869Y-93012708D01*
X110709355Y-92981759D01*
X110751420Y-92923862D01*
X110836192Y-92757486D01*
X110893894Y-92579898D01*
X110923105Y-92395469D01*
X110923105Y-92208741D01*
X110893894Y-92024312D01*
X110836192Y-91846724D01*
X110836190Y-91846721D01*
X110836190Y-91846719D01*
X110791472Y-91758955D01*
X110751420Y-91680348D01*
X110641664Y-91529283D01*
X110509627Y-91397246D01*
X110358562Y-91287490D01*
X110192186Y-91202718D01*
X110014598Y-91145016D01*
X110014596Y-91145015D01*
X110014594Y-91145015D01*
X109885823Y-91124619D01*
X109830169Y-91115805D01*
X109643441Y-91115805D01*
X109600688Y-91122576D01*
X109459015Y-91145015D01*
X109281421Y-91202719D01*
X109115047Y-91287490D01*
X108963981Y-91397247D01*
X108831947Y-91529281D01*
X108722190Y-91680347D01*
X108637419Y-91846721D01*
X108579715Y-92024315D01*
X108559251Y-92153519D01*
X108550505Y-92208741D01*
X105922600Y-92208741D01*
X105893407Y-92024432D01*
X105835727Y-91846913D01*
X105750991Y-91680609D01*
X105734521Y-91657941D01*
X105734521Y-91657940D01*
X105164082Y-92228379D01*
X105139179Y-92135436D01*
X105082331Y-92036974D01*
X105001936Y-91956579D01*
X104903474Y-91899731D01*
X104810529Y-91874827D01*
X105380967Y-91304387D01*
X105358296Y-91287916D01*
X105191996Y-91203182D01*
X105014477Y-91145502D01*
X104830135Y-91116305D01*
X104643475Y-91116305D01*
X104459132Y-91145502D01*
X104281613Y-91203182D01*
X104115307Y-91287919D01*
X104092641Y-91304387D01*
X104092640Y-91304387D01*
X104663080Y-91874826D01*
X104570136Y-91899731D01*
X104471674Y-91956579D01*
X104391279Y-92036974D01*
X104334431Y-92135436D01*
X104309527Y-92228380D01*
X103739087Y-91657940D01*
X103739087Y-91657941D01*
X103722619Y-91680607D01*
X103637882Y-91846913D01*
X103580202Y-92024432D01*
X103551005Y-92208774D01*
X85500500Y-92208774D01*
X85500500Y-87594955D01*
X87874500Y-87594955D01*
X87874500Y-87783928D01*
X87904059Y-87970560D01*
X87962454Y-88150278D01*
X88048240Y-88318641D01*
X88159310Y-88471515D01*
X88292927Y-88605132D01*
X88445801Y-88716202D01*
X88525347Y-88756732D01*
X88614163Y-88801987D01*
X88614165Y-88801987D01*
X88614168Y-88801989D01*
X88710497Y-88833288D01*
X88793881Y-88860382D01*
X88980514Y-88889942D01*
X88980519Y-88889942D01*
X89169486Y-88889942D01*
X89356118Y-88860382D01*
X89535832Y-88801989D01*
X89704199Y-88716202D01*
X89857073Y-88605132D01*
X89990690Y-88471515D01*
X90101760Y-88318641D01*
X90187547Y-88150274D01*
X90245940Y-87970560D01*
X90260856Y-87876383D01*
X90275500Y-87783928D01*
X90275500Y-87597648D01*
X113099500Y-87597648D01*
X113099500Y-87802351D01*
X113131522Y-88004534D01*
X113194781Y-88199223D01*
X113287715Y-88381613D01*
X113408028Y-88547213D01*
X113552786Y-88691971D01*
X113702268Y-88800574D01*
X113718390Y-88812287D01*
X113812782Y-88860382D01*
X113900776Y-88905218D01*
X113900778Y-88905218D01*
X113900781Y-88905220D01*
X114005137Y-88939127D01*
X114095465Y-88968477D01*
X114175782Y-88981198D01*
X114297648Y-89000500D01*
X114297649Y-89000500D01*
X114502351Y-89000500D01*
X114502352Y-89000500D01*
X114704534Y-88968477D01*
X114899219Y-88905220D01*
X115081610Y-88812287D01*
X115213861Y-88716202D01*
X115247213Y-88691971D01*
X115247215Y-88691968D01*
X115247219Y-88691966D01*
X115391966Y-88547219D01*
X115391968Y-88547215D01*
X115391971Y-88547213D01*
X115493439Y-88407552D01*
X115512287Y-88381610D01*
X115602360Y-88204832D01*
X178087100Y-88204832D01*
X178087100Y-88407551D01*
X178118393Y-88605129D01*
X178118813Y-88607776D01*
X178181457Y-88800574D01*
X178267008Y-88968477D01*
X178273492Y-88981201D01*
X178392639Y-89145196D01*
X178535995Y-89288552D01*
X178689456Y-89400046D01*
X178699994Y-89407702D01*
X178880618Y-89499735D01*
X179073416Y-89562379D01*
X179273640Y-89594092D01*
X179273641Y-89594092D01*
X179476359Y-89594092D01*
X179476360Y-89594092D01*
X179676584Y-89562379D01*
X179869382Y-89499735D01*
X180050006Y-89407702D01*
X180142085Y-89340802D01*
X180214004Y-89288552D01*
X180214006Y-89288549D01*
X180214010Y-89288547D01*
X180357355Y-89145202D01*
X180357357Y-89145198D01*
X180357360Y-89145196D01*
X180462486Y-89000500D01*
X180476510Y-88981198D01*
X180568543Y-88800574D01*
X180631187Y-88607776D01*
X180662900Y-88407552D01*
X180662900Y-88204832D01*
X180631187Y-88004608D01*
X180568543Y-87811810D01*
X180476510Y-87631186D01*
X180468854Y-87620648D01*
X180357360Y-87467187D01*
X180214004Y-87323831D01*
X180050009Y-87204684D01*
X180050008Y-87204683D01*
X180050006Y-87204682D01*
X179869382Y-87112649D01*
X179676584Y-87050005D01*
X179676582Y-87050004D01*
X179676580Y-87050004D01*
X179536782Y-87027862D01*
X179476360Y-87018292D01*
X179273640Y-87018292D01*
X179256082Y-87021073D01*
X179073419Y-87050004D01*
X178880615Y-87112650D01*
X178699990Y-87204684D01*
X178535995Y-87323831D01*
X178392639Y-87467187D01*
X178273492Y-87631182D01*
X178181458Y-87811807D01*
X178118812Y-88004611D01*
X178087100Y-88204832D01*
X115602360Y-88204832D01*
X115605220Y-88199219D01*
X115668477Y-88004534D01*
X115700500Y-87802352D01*
X115700500Y-87597648D01*
X115670514Y-87408324D01*
X115668477Y-87395465D01*
X115629464Y-87275396D01*
X115605220Y-87200781D01*
X115605218Y-87200778D01*
X115605218Y-87200776D01*
X115560314Y-87112649D01*
X115512287Y-87018390D01*
X115455292Y-86939942D01*
X115391971Y-86852786D01*
X115247213Y-86708028D01*
X115081613Y-86587715D01*
X115081612Y-86587714D01*
X115081610Y-86587713D01*
X115024653Y-86558691D01*
X114899223Y-86494781D01*
X114797892Y-86461857D01*
X114704534Y-86431522D01*
X114529995Y-86403878D01*
X114502352Y-86399500D01*
X114297648Y-86399500D01*
X114273329Y-86403351D01*
X114095465Y-86431522D01*
X113900776Y-86494781D01*
X113718386Y-86587715D01*
X113552786Y-86708028D01*
X113408028Y-86852786D01*
X113287715Y-87018386D01*
X113194781Y-87200776D01*
X113131522Y-87395465D01*
X113099500Y-87597648D01*
X90275500Y-87597648D01*
X90275500Y-87594955D01*
X90245940Y-87408323D01*
X90187545Y-87228605D01*
X90142290Y-87139789D01*
X90101760Y-87060243D01*
X89990690Y-86907369D01*
X89857073Y-86773752D01*
X89704199Y-86662682D01*
X89535836Y-86576896D01*
X89356118Y-86518501D01*
X89169486Y-86488942D01*
X89169481Y-86488942D01*
X88980519Y-86488942D01*
X88980514Y-86488942D01*
X88793881Y-86518501D01*
X88614163Y-86576896D01*
X88445800Y-86662682D01*
X88358579Y-86726052D01*
X88292927Y-86773752D01*
X88292925Y-86773754D01*
X88292924Y-86773754D01*
X88159312Y-86907366D01*
X88159312Y-86907367D01*
X88159310Y-86907369D01*
X88150027Y-86920146D01*
X88048240Y-87060242D01*
X87962454Y-87228605D01*
X87904059Y-87408323D01*
X87874500Y-87594955D01*
X85500500Y-87594955D01*
X85500500Y-84541928D01*
X96824500Y-84541928D01*
X96824500Y-84836955D01*
X96851561Y-85042494D01*
X96863007Y-85129435D01*
X96936328Y-85403073D01*
X96939361Y-85414393D01*
X96939364Y-85414403D01*
X97052254Y-85686942D01*
X97052258Y-85686952D01*
X97199761Y-85942435D01*
X97379352Y-86176482D01*
X97379358Y-86176489D01*
X97587952Y-86385083D01*
X97587959Y-86385089D01*
X97822006Y-86564680D01*
X98077489Y-86712183D01*
X98077490Y-86712183D01*
X98077493Y-86712185D01*
X98350048Y-86825081D01*
X98635007Y-86901435D01*
X98927494Y-86939942D01*
X98927501Y-86939942D01*
X99222499Y-86939942D01*
X99222506Y-86939942D01*
X99514993Y-86901435D01*
X99799952Y-86825081D01*
X100072507Y-86712185D01*
X100327994Y-86564680D01*
X100562042Y-86385088D01*
X100599139Y-86347991D01*
X141274500Y-86347991D01*
X141274500Y-86570892D01*
X141274501Y-86570908D01*
X141303594Y-86791894D01*
X141303595Y-86791899D01*
X141303596Y-86791905D01*
X141359089Y-86999008D01*
X141361290Y-87007222D01*
X141361293Y-87007232D01*
X141446593Y-87213164D01*
X141446595Y-87213168D01*
X141558052Y-87406216D01*
X141558057Y-87406222D01*
X141558058Y-87406224D01*
X141693749Y-87583062D01*
X141693757Y-87583071D01*
X141851370Y-87740684D01*
X141851376Y-87740689D01*
X142028226Y-87876390D01*
X142221274Y-87987847D01*
X142427219Y-88073152D01*
X142642537Y-88130846D01*
X142863543Y-88159942D01*
X142863550Y-88159942D01*
X143086450Y-88159942D01*
X143086457Y-88159942D01*
X143307463Y-88130846D01*
X143522781Y-88073152D01*
X143728726Y-87987847D01*
X143921774Y-87876390D01*
X144098624Y-87740689D01*
X144256247Y-87583066D01*
X144256251Y-87583062D01*
X144326719Y-87491224D01*
X144391948Y-87406216D01*
X144503405Y-87213168D01*
X144560439Y-87075476D01*
X144604280Y-87021073D01*
X144670574Y-86999008D01*
X144738273Y-87016287D01*
X144785884Y-87067424D01*
X144789561Y-87075476D01*
X144843080Y-87204684D01*
X144846595Y-87213168D01*
X144958052Y-87406216D01*
X144958057Y-87406222D01*
X144958058Y-87406224D01*
X145093749Y-87583062D01*
X145093757Y-87583071D01*
X145251370Y-87740684D01*
X145251376Y-87740689D01*
X145428226Y-87876390D01*
X145621274Y-87987847D01*
X145827219Y-88073152D01*
X146042537Y-88130846D01*
X146263543Y-88159942D01*
X146263550Y-88159942D01*
X146486450Y-88159942D01*
X146486457Y-88159942D01*
X146707463Y-88130846D01*
X146922781Y-88073152D01*
X147128726Y-87987847D01*
X147321774Y-87876390D01*
X147498624Y-87740689D01*
X147656247Y-87583066D01*
X147656251Y-87583062D01*
X147726719Y-87491224D01*
X147791948Y-87406216D01*
X147903405Y-87213168D01*
X147988710Y-87007223D01*
X148046404Y-86791905D01*
X148075500Y-86570899D01*
X148075500Y-86347985D01*
X148046404Y-86126979D01*
X148006452Y-85977877D01*
X150114500Y-85977877D01*
X150114500Y-86181006D01*
X150146277Y-86381636D01*
X150146277Y-86381639D01*
X150209045Y-86574819D01*
X150215615Y-86587713D01*
X150279038Y-86712187D01*
X150301268Y-86755814D01*
X150420656Y-86920139D01*
X150420660Y-86920144D01*
X150564297Y-87063781D01*
X150564302Y-87063785D01*
X150631560Y-87112650D01*
X150728631Y-87183176D01*
X150909620Y-87275395D01*
X150909622Y-87275396D01*
X151102803Y-87338164D01*
X151102804Y-87338164D01*
X151102807Y-87338165D01*
X151303435Y-87369942D01*
X151303436Y-87369942D01*
X151506564Y-87369942D01*
X151506565Y-87369942D01*
X151707193Y-87338165D01*
X151707196Y-87338164D01*
X151707197Y-87338164D01*
X151900377Y-87275396D01*
X151900377Y-87275395D01*
X151900380Y-87275395D01*
X152081369Y-87183176D01*
X152245704Y-87063780D01*
X152389338Y-86920146D01*
X152508734Y-86755811D01*
X152600953Y-86574822D01*
X152604248Y-86564680D01*
X152663722Y-86381639D01*
X152663722Y-86381638D01*
X152663723Y-86381635D01*
X152695500Y-86181007D01*
X152695500Y-85977877D01*
X152663723Y-85777249D01*
X152663722Y-85777245D01*
X152663722Y-85777244D01*
X152600954Y-85584064D01*
X152600953Y-85584062D01*
X152508734Y-85403073D01*
X152459866Y-85335812D01*
X152389343Y-85238744D01*
X152389339Y-85238739D01*
X152245702Y-85095102D01*
X152245697Y-85095098D01*
X152081372Y-84975710D01*
X152081371Y-84975709D01*
X152081369Y-84975708D01*
X151990874Y-84929598D01*
X151900377Y-84883487D01*
X151707196Y-84820719D01*
X151556722Y-84796886D01*
X151506565Y-84788942D01*
X151303435Y-84788942D01*
X151236559Y-84799534D01*
X151102805Y-84820719D01*
X151102802Y-84820719D01*
X150909622Y-84883487D01*
X150728627Y-84975710D01*
X150564302Y-85095098D01*
X150564297Y-85095102D01*
X150420660Y-85238739D01*
X150420656Y-85238744D01*
X150301268Y-85403069D01*
X150209045Y-85584064D01*
X150146277Y-85777244D01*
X150146277Y-85777247D01*
X150114500Y-85977877D01*
X148006452Y-85977877D01*
X147988710Y-85911661D01*
X147903405Y-85705716D01*
X147791948Y-85512668D01*
X147656247Y-85335818D01*
X147656242Y-85335812D01*
X147498629Y-85178199D01*
X147498622Y-85178193D01*
X147321782Y-85042500D01*
X147321780Y-85042499D01*
X147321774Y-85042494D01*
X147128726Y-84931037D01*
X147128722Y-84931035D01*
X146922790Y-84845735D01*
X146922783Y-84845733D01*
X146922781Y-84845732D01*
X146707463Y-84788038D01*
X146707457Y-84788037D01*
X146707452Y-84788036D01*
X146486466Y-84758943D01*
X146486463Y-84758942D01*
X146486457Y-84758942D01*
X146263543Y-84758942D01*
X146263537Y-84758942D01*
X146263533Y-84758943D01*
X146042547Y-84788036D01*
X146042540Y-84788037D01*
X146042537Y-84788038D01*
X145859975Y-84836955D01*
X145827219Y-84845732D01*
X145827209Y-84845735D01*
X145621277Y-84931035D01*
X145621273Y-84931037D01*
X145428226Y-85042494D01*
X145428217Y-85042500D01*
X145251377Y-85178193D01*
X145251370Y-85178199D01*
X145093757Y-85335812D01*
X145093751Y-85335819D01*
X144958058Y-85512659D01*
X144958052Y-85512668D01*
X144846595Y-85705715D01*
X144846593Y-85705719D01*
X144789561Y-85843407D01*
X144745720Y-85897810D01*
X144679426Y-85919875D01*
X144611726Y-85902596D01*
X144564116Y-85851458D01*
X144560439Y-85843407D01*
X144503406Y-85705719D01*
X144503405Y-85705716D01*
X144391948Y-85512668D01*
X144256247Y-85335818D01*
X144256242Y-85335812D01*
X144098629Y-85178199D01*
X144098622Y-85178193D01*
X143921782Y-85042500D01*
X143921780Y-85042499D01*
X143921774Y-85042494D01*
X143728726Y-84931037D01*
X143728722Y-84931035D01*
X143522790Y-84845735D01*
X143522783Y-84845733D01*
X143522781Y-84845732D01*
X143307463Y-84788038D01*
X143307457Y-84788037D01*
X143307452Y-84788036D01*
X143086466Y-84758943D01*
X143086463Y-84758942D01*
X143086457Y-84758942D01*
X142863543Y-84758942D01*
X142863537Y-84758942D01*
X142863533Y-84758943D01*
X142642547Y-84788036D01*
X142642540Y-84788037D01*
X142642537Y-84788038D01*
X142459975Y-84836955D01*
X142427219Y-84845732D01*
X142427209Y-84845735D01*
X142221277Y-84931035D01*
X142221273Y-84931037D01*
X142028226Y-85042494D01*
X142028217Y-85042500D01*
X141851377Y-85178193D01*
X141851370Y-85178199D01*
X141693757Y-85335812D01*
X141693751Y-85335819D01*
X141558058Y-85512659D01*
X141558052Y-85512668D01*
X141446595Y-85705715D01*
X141446593Y-85705719D01*
X141361293Y-85911651D01*
X141361290Y-85911661D01*
X141303597Y-86126976D01*
X141303594Y-86126989D01*
X141274501Y-86347975D01*
X141274500Y-86347991D01*
X100599139Y-86347991D01*
X100770646Y-86176484D01*
X100950238Y-85942436D01*
X101097743Y-85686949D01*
X101210639Y-85414394D01*
X101286993Y-85129435D01*
X101325500Y-84836948D01*
X101325500Y-84541936D01*
X101286993Y-84249449D01*
X101210639Y-83964490D01*
X101097743Y-83691935D01*
X101014191Y-83547219D01*
X100950238Y-83436448D01*
X100770647Y-83202401D01*
X100770641Y-83202394D01*
X100562047Y-82993800D01*
X100562040Y-82993794D01*
X100327993Y-82814203D01*
X100130469Y-82700163D01*
X100072510Y-82666700D01*
X100072500Y-82666696D01*
X99905804Y-82597648D01*
X113099500Y-82597648D01*
X113099500Y-82802351D01*
X113131522Y-83004534D01*
X113194781Y-83199223D01*
X113287715Y-83381613D01*
X113408028Y-83547213D01*
X113552786Y-83691971D01*
X113707749Y-83804556D01*
X113718390Y-83812287D01*
X113834607Y-83871503D01*
X113900776Y-83905218D01*
X113900778Y-83905218D01*
X113900781Y-83905220D01*
X114005137Y-83939127D01*
X114095465Y-83968477D01*
X114196557Y-83984488D01*
X114297648Y-84000500D01*
X114297649Y-84000500D01*
X114502351Y-84000500D01*
X114502352Y-84000500D01*
X114704534Y-83968477D01*
X114899219Y-83905220D01*
X115081610Y-83812287D01*
X115174590Y-83744732D01*
X115247213Y-83691971D01*
X115247215Y-83691968D01*
X115247219Y-83691966D01*
X115391966Y-83547219D01*
X115391968Y-83547215D01*
X115391971Y-83547213D01*
X115472445Y-83436448D01*
X115512287Y-83381610D01*
X115605220Y-83199219D01*
X115668477Y-83004534D01*
X115700500Y-82802352D01*
X115700500Y-82597648D01*
X115668477Y-82395466D01*
X115605220Y-82200781D01*
X115605218Y-82200778D01*
X115605218Y-82200776D01*
X115542635Y-82077952D01*
X115512284Y-82018385D01*
X115391971Y-81852786D01*
X115247213Y-81708028D01*
X115081613Y-81587715D01*
X115081612Y-81587714D01*
X115081610Y-81587713D01*
X115024653Y-81558691D01*
X114899223Y-81494781D01*
X114704534Y-81431522D01*
X114529995Y-81403878D01*
X114502352Y-81399500D01*
X114297648Y-81399500D01*
X114273329Y-81403351D01*
X114095465Y-81431522D01*
X113900776Y-81494781D01*
X113718386Y-81587715D01*
X113552786Y-81708028D01*
X113408028Y-81852786D01*
X113287715Y-82018386D01*
X113194781Y-82200776D01*
X113131522Y-82395465D01*
X113099500Y-82597648D01*
X99905804Y-82597648D01*
X99799961Y-82553806D01*
X99799954Y-82553804D01*
X99799952Y-82553803D01*
X99514993Y-82477449D01*
X99466113Y-82471013D01*
X99222513Y-82438942D01*
X99222506Y-82438942D01*
X98927494Y-82438942D01*
X98927486Y-82438942D01*
X98649085Y-82475595D01*
X98635007Y-82477449D01*
X98350048Y-82553803D01*
X98350038Y-82553806D01*
X98077499Y-82666696D01*
X98077489Y-82666700D01*
X97822006Y-82814203D01*
X97587959Y-82993794D01*
X97587952Y-82993800D01*
X97379358Y-83202394D01*
X97379352Y-83202401D01*
X97199761Y-83436448D01*
X97052258Y-83691931D01*
X97052254Y-83691941D01*
X96939364Y-83964480D01*
X96939361Y-83964490D01*
X96863008Y-84249446D01*
X96863006Y-84249457D01*
X96824500Y-84541928D01*
X85500500Y-84541928D01*
X85500500Y-78644215D01*
X96825000Y-78644215D01*
X96825000Y-79439442D01*
X98156116Y-79439442D01*
X98125000Y-79595875D01*
X98125000Y-79783009D01*
X98156116Y-79939442D01*
X96825001Y-79939442D01*
X96825001Y-80734669D01*
X96835566Y-80868916D01*
X96891423Y-81090594D01*
X96985962Y-81298729D01*
X96985967Y-81298738D01*
X97116151Y-81486645D01*
X97277796Y-81648290D01*
X97465703Y-81778474D01*
X97465712Y-81778479D01*
X97673847Y-81873018D01*
X97895525Y-81928875D01*
X98029780Y-81939441D01*
X98824999Y-81939441D01*
X98825000Y-81939440D01*
X98825000Y-80608325D01*
X98981433Y-80639442D01*
X99168567Y-80639442D01*
X99325000Y-80608325D01*
X99325000Y-81939441D01*
X100120212Y-81939441D01*
X100120227Y-81939440D01*
X100254474Y-81928875D01*
X100476152Y-81873018D01*
X100684287Y-81778479D01*
X100684296Y-81778474D01*
X100872203Y-81648290D01*
X101033848Y-81486645D01*
X101164032Y-81298738D01*
X101164037Y-81298729D01*
X101258576Y-81090594D01*
X101309846Y-80887124D01*
X149055000Y-80887124D01*
X149055000Y-81091759D01*
X149087009Y-81293859D01*
X149150244Y-81488473D01*
X149243141Y-81670792D01*
X149243147Y-81670801D01*
X149275523Y-81715363D01*
X149275524Y-81715364D01*
X149863871Y-81127016D01*
X149879755Y-81186295D01*
X149946898Y-81302589D01*
X150041853Y-81397544D01*
X150158147Y-81464687D01*
X150217424Y-81480570D01*
X149629076Y-82068916D01*
X149673650Y-82101301D01*
X149855968Y-82194197D01*
X150050582Y-82257432D01*
X150252683Y-82289442D01*
X150457317Y-82289442D01*
X150659417Y-82257432D01*
X150854031Y-82194197D01*
X151036349Y-82101301D01*
X151080921Y-82068916D01*
X150492575Y-81480570D01*
X150551853Y-81464687D01*
X150668147Y-81397544D01*
X150763102Y-81302589D01*
X150830245Y-81186295D01*
X150846128Y-81127017D01*
X151455257Y-81736146D01*
X151488742Y-81797469D01*
X151483758Y-81867161D01*
X151455258Y-81911508D01*
X151418315Y-81948450D01*
X151418315Y-81948452D01*
X151604598Y-81969441D01*
X151604599Y-81969442D01*
X151852675Y-81969442D01*
X151852674Y-81969441D01*
X151794741Y-81911507D01*
X151761257Y-81850184D01*
X151766242Y-81780492D01*
X151794742Y-81736146D01*
X152403871Y-81127016D01*
X152419755Y-81186295D01*
X152486898Y-81302589D01*
X152581853Y-81397544D01*
X152698147Y-81464687D01*
X152757424Y-81480570D01*
X152169076Y-82068916D01*
X152213650Y-82101301D01*
X152395968Y-82194197D01*
X152590582Y-82257432D01*
X152792683Y-82289442D01*
X152997317Y-82289442D01*
X153199417Y-82257432D01*
X153394031Y-82194197D01*
X153576349Y-82101301D01*
X153620921Y-82068916D01*
X153032575Y-81480570D01*
X153091853Y-81464687D01*
X153208147Y-81397544D01*
X153303102Y-81302589D01*
X153370245Y-81186295D01*
X153386128Y-81127017D01*
X153974474Y-81715363D01*
X154006861Y-81670789D01*
X154006861Y-81670788D01*
X154054234Y-81577813D01*
X154102208Y-81527017D01*
X154170028Y-81510221D01*
X154236164Y-81532758D01*
X154275203Y-81577811D01*
X154322713Y-81671053D01*
X154443028Y-81836655D01*
X154587786Y-81981413D01*
X154742749Y-82093998D01*
X154753390Y-82101729D01*
X154869607Y-82160945D01*
X154935776Y-82194660D01*
X154935778Y-82194660D01*
X154935781Y-82194662D01*
X155040137Y-82228569D01*
X155130465Y-82257919D01*
X155231557Y-82273930D01*
X155332648Y-82289942D01*
X155332649Y-82289942D01*
X155537351Y-82289942D01*
X155537352Y-82289942D01*
X155739534Y-82257919D01*
X155934219Y-82194662D01*
X156116610Y-82101729D01*
X156282219Y-81981408D01*
X156282922Y-81980704D01*
X156283256Y-81980522D01*
X156285930Y-81978239D01*
X156286408Y-81978799D01*
X156344235Y-81947206D01*
X156384503Y-81945146D01*
X156604571Y-81969941D01*
X156604572Y-81969942D01*
X156604575Y-81969942D01*
X156885429Y-81969942D01*
X156885429Y-81969941D01*
X157034188Y-81953180D01*
X157103009Y-81965234D01*
X157123629Y-81978832D01*
X157123839Y-81978545D01*
X157278934Y-82091226D01*
X157293390Y-82101729D01*
X157409607Y-82160945D01*
X157475776Y-82194660D01*
X157475778Y-82194660D01*
X157475781Y-82194662D01*
X157580137Y-82228569D01*
X157670465Y-82257919D01*
X157771557Y-82273930D01*
X157872648Y-82289942D01*
X157872649Y-82289942D01*
X158077351Y-82289942D01*
X158077352Y-82289942D01*
X158279534Y-82257919D01*
X158474219Y-82194662D01*
X158656610Y-82101729D01*
X158771324Y-82018385D01*
X158822213Y-81981413D01*
X158822215Y-81981410D01*
X158822219Y-81981408D01*
X158966966Y-81836661D01*
X158966968Y-81836657D01*
X158966971Y-81836655D01*
X159087284Y-81671056D01*
X159087286Y-81671053D01*
X159087287Y-81671052D01*
X159134516Y-81578359D01*
X159182489Y-81527565D01*
X159250310Y-81510770D01*
X159316445Y-81533307D01*
X159355485Y-81578361D01*
X159402715Y-81671056D01*
X159523028Y-81836655D01*
X159667786Y-81981413D01*
X159822749Y-82093998D01*
X159833390Y-82101729D01*
X159949607Y-82160945D01*
X160015776Y-82194660D01*
X160015778Y-82194660D01*
X160015781Y-82194662D01*
X160120137Y-82228569D01*
X160210465Y-82257919D01*
X160311557Y-82273930D01*
X160412648Y-82289942D01*
X160412649Y-82289942D01*
X160617351Y-82289942D01*
X160617352Y-82289942D01*
X160819534Y-82257919D01*
X161014219Y-82194662D01*
X161196610Y-82101729D01*
X161362219Y-81981408D01*
X161362219Y-81981407D01*
X161366161Y-81978544D01*
X161366946Y-81979625D01*
X161425144Y-81953541D01*
X161455809Y-81953180D01*
X161604571Y-81969941D01*
X161604572Y-81969942D01*
X161604575Y-81969942D01*
X161885428Y-81969942D01*
X161885428Y-81969941D01*
X162105494Y-81945146D01*
X162174315Y-81957200D01*
X162203925Y-81978438D01*
X162204085Y-81978251D01*
X162206286Y-81980131D01*
X162207058Y-81980685D01*
X162207786Y-81981413D01*
X162362749Y-82093998D01*
X162373390Y-82101729D01*
X162489607Y-82160945D01*
X162555776Y-82194660D01*
X162555778Y-82194660D01*
X162555781Y-82194662D01*
X162660137Y-82228569D01*
X162750465Y-82257919D01*
X162851557Y-82273930D01*
X162952648Y-82289942D01*
X162952649Y-82289942D01*
X163157351Y-82289942D01*
X163157352Y-82289942D01*
X163359534Y-82257919D01*
X163554219Y-82194662D01*
X163736610Y-82101729D01*
X163851324Y-82018385D01*
X163902213Y-81981413D01*
X163902215Y-81981410D01*
X163902219Y-81981408D01*
X164046966Y-81836661D01*
X164046968Y-81836657D01*
X164046971Y-81836655D01*
X164167284Y-81671056D01*
X164167286Y-81671053D01*
X164167287Y-81671052D01*
X164214516Y-81578359D01*
X164262489Y-81527565D01*
X164330310Y-81510770D01*
X164396445Y-81533307D01*
X164435485Y-81578361D01*
X164482715Y-81671056D01*
X164603028Y-81836655D01*
X164747786Y-81981413D01*
X164902749Y-82093998D01*
X164913390Y-82101729D01*
X165029607Y-82160945D01*
X165095776Y-82194660D01*
X165095778Y-82194660D01*
X165095781Y-82194662D01*
X165200137Y-82228569D01*
X165290465Y-82257919D01*
X165391557Y-82273930D01*
X165492648Y-82289942D01*
X165492649Y-82289942D01*
X165697351Y-82289942D01*
X165697352Y-82289942D01*
X165899534Y-82257919D01*
X166094219Y-82194662D01*
X166276610Y-82101729D01*
X166438742Y-81983933D01*
X166504546Y-81960455D01*
X166525506Y-81961032D01*
X166562791Y-81965234D01*
X166604572Y-81969942D01*
X166604575Y-81969942D01*
X166885428Y-81969942D01*
X166885429Y-81969941D01*
X166998514Y-81957200D01*
X167164505Y-81938498D01*
X167167936Y-81937915D01*
X167168142Y-81939129D01*
X167232828Y-81943074D01*
X167278396Y-81972023D01*
X167287786Y-81981413D01*
X167442749Y-82093998D01*
X167453390Y-82101729D01*
X167569607Y-82160945D01*
X167635776Y-82194660D01*
X167635778Y-82194660D01*
X167635781Y-82194662D01*
X167740137Y-82228569D01*
X167830465Y-82257919D01*
X167931557Y-82273930D01*
X168032648Y-82289942D01*
X168032649Y-82289942D01*
X168237351Y-82289942D01*
X168237352Y-82289942D01*
X168439534Y-82257919D01*
X168634219Y-82194662D01*
X168816610Y-82101729D01*
X168931324Y-82018385D01*
X168982213Y-81981413D01*
X168982215Y-81981410D01*
X168982219Y-81981408D01*
X169126966Y-81836661D01*
X169126968Y-81836657D01*
X169126971Y-81836655D01*
X169199994Y-81736146D01*
X169247287Y-81671052D01*
X169340220Y-81488661D01*
X169403477Y-81293976D01*
X169435500Y-81091794D01*
X169435500Y-80887090D01*
X169415069Y-80758098D01*
X169403477Y-80684907D01*
X169369826Y-80581340D01*
X169340220Y-80490223D01*
X169340218Y-80490220D01*
X169340218Y-80490218D01*
X169302725Y-80416635D01*
X169247287Y-80307832D01*
X169182432Y-80218566D01*
X169182353Y-80218457D01*
X169158873Y-80152651D01*
X169161779Y-80117985D01*
X169214055Y-79888951D01*
X169214179Y-79887857D01*
X169245499Y-79609873D01*
X169245500Y-79609869D01*
X169245500Y-79329014D01*
X169245499Y-79329010D01*
X169214057Y-79049947D01*
X169214054Y-79049929D01*
X169151560Y-78776124D01*
X169151556Y-78776112D01*
X169105403Y-78644215D01*
X169058801Y-78511034D01*
X168936945Y-78257997D01*
X168787523Y-78020194D01*
X168612416Y-77800617D01*
X168413825Y-77602026D01*
X168411797Y-77600409D01*
X168250172Y-77471517D01*
X168194248Y-77426919D01*
X167985461Y-77295729D01*
X167956439Y-77277493D01*
X167774763Y-77190003D01*
X167774762Y-77190003D01*
X167703411Y-77155642D01*
X167438329Y-77062885D01*
X167438317Y-77062881D01*
X167164512Y-77000387D01*
X167164494Y-77000384D01*
X166885431Y-76968942D01*
X166885425Y-76968942D01*
X166604575Y-76968942D01*
X166604568Y-76968942D01*
X166325505Y-77000384D01*
X166325487Y-77000387D01*
X166051682Y-77062881D01*
X166051670Y-77062885D01*
X165786588Y-77155642D01*
X165533557Y-77277495D01*
X165295753Y-77426918D01*
X165076175Y-77602025D01*
X164877583Y-77800617D01*
X164702476Y-78020195D01*
X164553053Y-78257999D01*
X164431200Y-78511030D01*
X164362041Y-78708674D01*
X164321319Y-78765450D01*
X164256367Y-78791197D01*
X164187805Y-78777741D01*
X164137402Y-78729353D01*
X164127959Y-78708674D01*
X164088986Y-78597298D01*
X164058801Y-78511034D01*
X163936945Y-78257997D01*
X163787523Y-78020194D01*
X163612416Y-77800617D01*
X163413825Y-77602026D01*
X163411797Y-77600409D01*
X163250172Y-77471517D01*
X163194248Y-77426919D01*
X162985459Y-77295728D01*
X162956442Y-77277495D01*
X162703411Y-77155642D01*
X162438329Y-77062885D01*
X162438317Y-77062881D01*
X162164512Y-77000387D01*
X162164494Y-77000384D01*
X161885431Y-76968942D01*
X161885425Y-76968942D01*
X161604575Y-76968942D01*
X161604568Y-76968942D01*
X161325505Y-77000384D01*
X161325487Y-77000387D01*
X161051682Y-77062881D01*
X161051670Y-77062885D01*
X160786588Y-77155642D01*
X160533557Y-77277495D01*
X160295753Y-77426918D01*
X160076175Y-77602025D01*
X159877583Y-77800617D01*
X159702476Y-78020195D01*
X159553053Y-78257999D01*
X159431200Y-78511030D01*
X159362041Y-78708674D01*
X159321319Y-78765450D01*
X159256367Y-78791197D01*
X159187805Y-78777741D01*
X159137402Y-78729353D01*
X159127959Y-78708674D01*
X159088986Y-78597298D01*
X159058801Y-78511034D01*
X158936945Y-78257997D01*
X158787523Y-78020194D01*
X158612416Y-77800617D01*
X158413825Y-77602026D01*
X158411797Y-77600409D01*
X158250172Y-77471517D01*
X158194248Y-77426919D01*
X157985459Y-77295728D01*
X157956442Y-77277495D01*
X157703411Y-77155642D01*
X157438329Y-77062885D01*
X157438317Y-77062881D01*
X157164512Y-77000387D01*
X157164494Y-77000384D01*
X156885431Y-76968942D01*
X156885425Y-76968942D01*
X156604575Y-76968942D01*
X156604568Y-76968942D01*
X156325505Y-77000384D01*
X156325487Y-77000387D01*
X156051682Y-77062881D01*
X156051670Y-77062885D01*
X155786588Y-77155642D01*
X155533557Y-77277495D01*
X155295753Y-77426918D01*
X155076175Y-77602025D01*
X154877583Y-77800617D01*
X154702476Y-78020195D01*
X154553053Y-78257999D01*
X154431201Y-78511027D01*
X154361775Y-78709433D01*
X154321053Y-78766208D01*
X154256100Y-78791955D01*
X154187539Y-78778498D01*
X154137136Y-78730111D01*
X154127692Y-78709431D01*
X154058337Y-78511224D01*
X153936507Y-78258241D01*
X153787115Y-78020485D01*
X153680810Y-77887183D01*
X152674130Y-78893863D01*
X152576405Y-78759355D01*
X152455087Y-78638037D01*
X152320577Y-78540310D01*
X153327257Y-77533629D01*
X153193956Y-77427326D01*
X152956200Y-77277934D01*
X152703217Y-77156104D01*
X152438180Y-77063364D01*
X152438178Y-77063363D01*
X152164424Y-77000881D01*
X152164412Y-77000879D01*
X151885401Y-76969442D01*
X151604598Y-76969442D01*
X151325587Y-77000879D01*
X151325575Y-77000881D01*
X151051821Y-77063363D01*
X151051819Y-77063364D01*
X150786782Y-77156104D01*
X150533799Y-77277934D01*
X150296043Y-77427326D01*
X150162741Y-77533629D01*
X151169422Y-78540310D01*
X151034913Y-78638037D01*
X150913595Y-78759355D01*
X150815868Y-78893864D01*
X149809187Y-77887183D01*
X149702884Y-78020485D01*
X149553492Y-78258241D01*
X149431662Y-78511224D01*
X149338921Y-78776262D01*
X149276439Y-79050017D01*
X149276437Y-79050029D01*
X149245000Y-79329040D01*
X149245000Y-79609843D01*
X149276437Y-79888854D01*
X149276439Y-79888870D01*
X149328757Y-80118089D01*
X149324484Y-80187827D01*
X149308185Y-80218566D01*
X149243139Y-80308094D01*
X149150244Y-80490410D01*
X149087009Y-80685024D01*
X149055000Y-80887124D01*
X101309846Y-80887124D01*
X101314433Y-80868918D01*
X101324999Y-80734668D01*
X101325000Y-80734655D01*
X101325000Y-79939442D01*
X99993884Y-79939442D01*
X100025000Y-79783009D01*
X100025000Y-79595875D01*
X99993884Y-79439442D01*
X101324999Y-79439442D01*
X101324999Y-78644229D01*
X101324998Y-78644214D01*
X101314433Y-78509967D01*
X101258576Y-78288289D01*
X101164037Y-78080154D01*
X101164032Y-78080145D01*
X101033848Y-77892238D01*
X100872203Y-77730593D01*
X100804956Y-77684004D01*
X100684296Y-77600409D01*
X100684287Y-77600404D01*
X100476152Y-77505865D01*
X100254474Y-77450008D01*
X100120226Y-77439442D01*
X99325000Y-77439442D01*
X99325000Y-78770558D01*
X99168567Y-78739442D01*
X98981433Y-78739442D01*
X98825000Y-78770558D01*
X98825000Y-77439442D01*
X98029787Y-77439442D01*
X98029772Y-77439443D01*
X97895525Y-77450008D01*
X97673847Y-77505865D01*
X97465712Y-77600404D01*
X97465703Y-77600409D01*
X97277796Y-77730593D01*
X97116151Y-77892238D01*
X96985967Y-78080145D01*
X96985962Y-78080154D01*
X96891423Y-78288289D01*
X96835566Y-78509967D01*
X96825000Y-78644215D01*
X85500500Y-78644215D01*
X85500500Y-76594955D01*
X87874500Y-76594955D01*
X87874500Y-76783928D01*
X87904059Y-76970560D01*
X87962454Y-77150278D01*
X88027274Y-77277493D01*
X88048240Y-77318641D01*
X88159310Y-77471515D01*
X88292927Y-77605132D01*
X88445801Y-77716202D01*
X88525347Y-77756732D01*
X88614163Y-77801987D01*
X88614165Y-77801987D01*
X88614168Y-77801989D01*
X88710497Y-77833288D01*
X88793881Y-77860382D01*
X88980514Y-77889942D01*
X88980519Y-77889942D01*
X89169486Y-77889942D01*
X89356118Y-77860382D01*
X89535832Y-77801989D01*
X89704199Y-77716202D01*
X89857073Y-77605132D01*
X89990690Y-77471515D01*
X90101760Y-77318641D01*
X90187547Y-77150274D01*
X90245940Y-76970560D01*
X90261360Y-76873202D01*
X90275500Y-76783928D01*
X90275500Y-76594955D01*
X90245940Y-76408323D01*
X90187545Y-76228605D01*
X90101759Y-76060242D01*
X89990690Y-75907369D01*
X89857073Y-75773752D01*
X89704199Y-75662682D01*
X89535836Y-75576896D01*
X89356118Y-75518501D01*
X89169486Y-75488942D01*
X89169481Y-75488942D01*
X88980519Y-75488942D01*
X88980514Y-75488942D01*
X88793881Y-75518501D01*
X88614163Y-75576896D01*
X88445800Y-75662682D01*
X88383802Y-75707727D01*
X88292927Y-75773752D01*
X88292925Y-75773754D01*
X88292924Y-75773754D01*
X88159312Y-75907366D01*
X88159312Y-75907367D01*
X88159310Y-75907369D01*
X88154124Y-75914507D01*
X88048240Y-76060242D01*
X87962454Y-76228605D01*
X87904059Y-76408323D01*
X87874500Y-76594955D01*
X85500500Y-76594955D01*
X85500500Y-72444845D01*
X88564500Y-72444845D01*
X88564500Y-72644038D01*
X88595661Y-72840782D01*
X88595661Y-72840785D01*
X88657213Y-73030222D01*
X88695160Y-73104696D01*
X88747647Y-73207708D01*
X88864731Y-73368860D01*
X89005582Y-73509711D01*
X89166734Y-73626795D01*
X89343304Y-73716762D01*
X89344219Y-73717228D01*
X89533657Y-73778780D01*
X89533658Y-73778780D01*
X89533661Y-73778781D01*
X89730403Y-73809942D01*
X89730404Y-73809942D01*
X89929596Y-73809942D01*
X89929597Y-73809942D01*
X90126339Y-73778781D01*
X90126342Y-73778780D01*
X90126343Y-73778780D01*
X90315780Y-73717228D01*
X90315780Y-73717227D01*
X90315783Y-73717227D01*
X90493266Y-73626795D01*
X90654418Y-73509711D01*
X90795269Y-73368860D01*
X90912353Y-73207708D01*
X90989515Y-73056269D01*
X91037490Y-73005473D01*
X91105311Y-72988678D01*
X91171446Y-73011215D01*
X91210485Y-73056269D01*
X91287647Y-73207708D01*
X91404731Y-73368860D01*
X91545582Y-73509711D01*
X91706734Y-73626795D01*
X91883304Y-73716762D01*
X91884219Y-73717228D01*
X92073657Y-73778780D01*
X92073658Y-73778780D01*
X92073661Y-73778781D01*
X92270403Y-73809942D01*
X92270404Y-73809942D01*
X92469596Y-73809942D01*
X92469597Y-73809942D01*
X92666339Y-73778781D01*
X92666342Y-73778780D01*
X92666343Y-73778780D01*
X92855780Y-73717228D01*
X92855780Y-73717227D01*
X92855783Y-73717227D01*
X93033266Y-73626795D01*
X93194418Y-73509711D01*
X93335269Y-73368860D01*
X93452353Y-73207708D01*
X93529515Y-73056269D01*
X93577490Y-73005473D01*
X93645311Y-72988678D01*
X93711446Y-73011215D01*
X93750485Y-73056269D01*
X93827647Y-73207708D01*
X93944731Y-73368860D01*
X94085582Y-73509711D01*
X94246734Y-73626795D01*
X94423304Y-73716762D01*
X94424219Y-73717228D01*
X94613657Y-73778780D01*
X94613658Y-73778780D01*
X94613661Y-73778781D01*
X94810403Y-73809942D01*
X94810404Y-73809942D01*
X95009596Y-73809942D01*
X95009597Y-73809942D01*
X95206339Y-73778781D01*
X95206342Y-73778780D01*
X95206343Y-73778780D01*
X95395780Y-73717228D01*
X95395780Y-73717227D01*
X95395783Y-73717227D01*
X95573266Y-73626795D01*
X95734418Y-73509711D01*
X95875269Y-73368860D01*
X95992353Y-73207708D01*
X96069515Y-73056269D01*
X96117490Y-73005473D01*
X96185311Y-72988678D01*
X96251446Y-73011215D01*
X96290485Y-73056269D01*
X96367647Y-73207708D01*
X96484731Y-73368860D01*
X96625582Y-73509711D01*
X96786734Y-73626795D01*
X96963304Y-73716762D01*
X96964219Y-73717228D01*
X97153657Y-73778780D01*
X97153658Y-73778780D01*
X97153661Y-73778781D01*
X97350403Y-73809942D01*
X97350404Y-73809942D01*
X97549596Y-73809942D01*
X97549597Y-73809942D01*
X97746339Y-73778781D01*
X97746342Y-73778780D01*
X97746343Y-73778780D01*
X97935780Y-73717228D01*
X97935780Y-73717227D01*
X97935783Y-73717227D01*
X98113266Y-73626795D01*
X98274418Y-73509711D01*
X98415269Y-73368860D01*
X98532353Y-73207708D01*
X98609515Y-73056269D01*
X98657490Y-73005473D01*
X98725311Y-72988678D01*
X98791446Y-73011215D01*
X98830485Y-73056269D01*
X98907647Y-73207708D01*
X99024731Y-73368860D01*
X99165582Y-73509711D01*
X99326734Y-73626795D01*
X99503304Y-73716762D01*
X99504219Y-73717228D01*
X99693657Y-73778780D01*
X99693658Y-73778780D01*
X99693661Y-73778781D01*
X99890403Y-73809942D01*
X99890404Y-73809942D01*
X100089596Y-73809942D01*
X100089597Y-73809942D01*
X100286339Y-73778781D01*
X100286342Y-73778780D01*
X100286343Y-73778780D01*
X100475780Y-73717228D01*
X100475780Y-73717227D01*
X100475783Y-73717227D01*
X100653266Y-73626795D01*
X100814418Y-73509711D01*
X100955269Y-73368860D01*
X101072353Y-73207708D01*
X101149515Y-73056269D01*
X101197490Y-73005473D01*
X101265311Y-72988678D01*
X101331446Y-73011215D01*
X101370485Y-73056269D01*
X101447647Y-73207708D01*
X101564731Y-73368860D01*
X101705582Y-73509711D01*
X101866734Y-73626795D01*
X102043304Y-73716762D01*
X102044219Y-73717228D01*
X102233657Y-73778780D01*
X102233658Y-73778780D01*
X102233661Y-73778781D01*
X102430403Y-73809942D01*
X102430404Y-73809942D01*
X102629596Y-73809942D01*
X102629597Y-73809942D01*
X102826339Y-73778781D01*
X102826342Y-73778780D01*
X102826343Y-73778780D01*
X103015780Y-73717228D01*
X103015780Y-73717227D01*
X103015783Y-73717227D01*
X103193266Y-73626795D01*
X103354418Y-73509711D01*
X103495269Y-73368860D01*
X103612353Y-73207708D01*
X103689515Y-73056269D01*
X103737490Y-73005473D01*
X103805311Y-72988678D01*
X103871446Y-73011215D01*
X103910485Y-73056269D01*
X103987647Y-73207708D01*
X104104731Y-73368860D01*
X104245582Y-73509711D01*
X104406734Y-73626795D01*
X104583304Y-73716762D01*
X104584219Y-73717228D01*
X104773657Y-73778780D01*
X104773658Y-73778780D01*
X104773661Y-73778781D01*
X104970403Y-73809942D01*
X104970404Y-73809942D01*
X105169596Y-73809942D01*
X105169597Y-73809942D01*
X105366339Y-73778781D01*
X105366342Y-73778780D01*
X105366343Y-73778780D01*
X105555780Y-73717228D01*
X105555780Y-73717227D01*
X105555783Y-73717227D01*
X105733266Y-73626795D01*
X105894418Y-73509711D01*
X106035269Y-73368860D01*
X106152353Y-73207708D01*
X106229515Y-73056269D01*
X106277490Y-73005473D01*
X106345311Y-72988678D01*
X106411446Y-73011215D01*
X106450485Y-73056269D01*
X106527647Y-73207708D01*
X106644731Y-73368860D01*
X106785582Y-73509711D01*
X106946734Y-73626795D01*
X107123304Y-73716762D01*
X107124219Y-73717228D01*
X107313657Y-73778780D01*
X107313658Y-73778780D01*
X107313661Y-73778781D01*
X107510403Y-73809942D01*
X107510404Y-73809942D01*
X107709596Y-73809942D01*
X107709597Y-73809942D01*
X107906339Y-73778781D01*
X107906342Y-73778780D01*
X107906343Y-73778780D01*
X108095780Y-73717228D01*
X108095780Y-73717227D01*
X108095783Y-73717227D01*
X108273266Y-73626795D01*
X108434418Y-73509711D01*
X108575269Y-73368860D01*
X108692353Y-73207708D01*
X108769515Y-73056269D01*
X108817490Y-73005473D01*
X108885311Y-72988678D01*
X108951446Y-73011215D01*
X108990485Y-73056269D01*
X109067647Y-73207708D01*
X109184731Y-73368860D01*
X109325582Y-73509711D01*
X109486734Y-73626795D01*
X109663304Y-73716762D01*
X109664219Y-73717228D01*
X109853657Y-73778780D01*
X109853658Y-73778780D01*
X109853661Y-73778781D01*
X110050403Y-73809942D01*
X110050404Y-73809942D01*
X110249596Y-73809942D01*
X110249597Y-73809942D01*
X110446339Y-73778781D01*
X110446342Y-73778780D01*
X110446343Y-73778780D01*
X110635780Y-73717228D01*
X110635780Y-73717227D01*
X110635783Y-73717227D01*
X110813266Y-73626795D01*
X110974418Y-73509711D01*
X111115269Y-73368860D01*
X111232353Y-73207708D01*
X111309515Y-73056269D01*
X111357490Y-73005473D01*
X111425311Y-72988678D01*
X111491446Y-73011215D01*
X111530485Y-73056269D01*
X111607647Y-73207708D01*
X111724731Y-73368860D01*
X111865582Y-73509711D01*
X112026734Y-73626795D01*
X112203304Y-73716762D01*
X112204219Y-73717228D01*
X112393657Y-73778780D01*
X112393658Y-73778780D01*
X112393661Y-73778781D01*
X112590403Y-73809942D01*
X112590404Y-73809942D01*
X112789596Y-73809942D01*
X112789597Y-73809942D01*
X112986339Y-73778781D01*
X112986342Y-73778780D01*
X112986343Y-73778780D01*
X113175780Y-73717228D01*
X113175780Y-73717227D01*
X113175783Y-73717227D01*
X113353266Y-73626795D01*
X113514418Y-73509711D01*
X113655269Y-73368860D01*
X113772353Y-73207708D01*
X113849515Y-73056269D01*
X113897490Y-73005473D01*
X113965311Y-72988678D01*
X114031446Y-73011215D01*
X114070485Y-73056269D01*
X114147647Y-73207708D01*
X114264731Y-73368860D01*
X114405582Y-73509711D01*
X114566734Y-73626795D01*
X114743304Y-73716762D01*
X114744219Y-73717228D01*
X114933657Y-73778780D01*
X114933658Y-73778780D01*
X114933661Y-73778781D01*
X115130403Y-73809942D01*
X115130404Y-73809942D01*
X115329596Y-73809942D01*
X115329597Y-73809942D01*
X115526339Y-73778781D01*
X115526342Y-73778780D01*
X115526343Y-73778780D01*
X115715780Y-73717228D01*
X115715780Y-73717227D01*
X115715783Y-73717227D01*
X115893266Y-73626795D01*
X116054418Y-73509711D01*
X116195269Y-73368860D01*
X116312353Y-73207708D01*
X116389515Y-73056269D01*
X116437490Y-73005473D01*
X116505311Y-72988678D01*
X116571446Y-73011215D01*
X116610485Y-73056269D01*
X116687647Y-73207708D01*
X116804731Y-73368860D01*
X116945582Y-73509711D01*
X117106734Y-73626795D01*
X117283304Y-73716762D01*
X117284219Y-73717228D01*
X117473657Y-73778780D01*
X117473658Y-73778780D01*
X117473661Y-73778781D01*
X117670403Y-73809942D01*
X117670404Y-73809942D01*
X117869596Y-73809942D01*
X117869597Y-73809942D01*
X118066339Y-73778781D01*
X118066342Y-73778780D01*
X118066343Y-73778780D01*
X118255780Y-73717228D01*
X118255780Y-73717227D01*
X118255783Y-73717227D01*
X118433266Y-73626795D01*
X118594418Y-73509711D01*
X118735269Y-73368860D01*
X118852353Y-73207708D01*
X118929515Y-73056269D01*
X118977490Y-73005473D01*
X119045311Y-72988678D01*
X119111446Y-73011215D01*
X119150485Y-73056269D01*
X119227647Y-73207708D01*
X119344731Y-73368860D01*
X119485582Y-73509711D01*
X119646734Y-73626795D01*
X119823304Y-73716762D01*
X119824219Y-73717228D01*
X120013657Y-73778780D01*
X120013658Y-73778780D01*
X120013661Y-73778781D01*
X120210403Y-73809942D01*
X120210404Y-73809942D01*
X120409596Y-73809942D01*
X120409597Y-73809942D01*
X120606339Y-73778781D01*
X120606342Y-73778780D01*
X120606343Y-73778780D01*
X120795780Y-73717228D01*
X120795780Y-73717227D01*
X120795783Y-73717227D01*
X120973266Y-73626795D01*
X121134418Y-73509711D01*
X121275269Y-73368860D01*
X121392353Y-73207708D01*
X121469515Y-73056269D01*
X121517490Y-73005473D01*
X121585311Y-72988678D01*
X121651446Y-73011215D01*
X121690485Y-73056269D01*
X121767647Y-73207708D01*
X121884731Y-73368860D01*
X122025582Y-73509711D01*
X122186734Y-73626795D01*
X122363304Y-73716762D01*
X122364219Y-73717228D01*
X122553657Y-73778780D01*
X122553658Y-73778780D01*
X122553661Y-73778781D01*
X122750403Y-73809942D01*
X122750404Y-73809942D01*
X122949596Y-73809942D01*
X122949597Y-73809942D01*
X123146339Y-73778781D01*
X123146342Y-73778780D01*
X123146343Y-73778780D01*
X123335780Y-73717228D01*
X123335780Y-73717227D01*
X123335783Y-73717227D01*
X123513266Y-73626795D01*
X123674418Y-73509711D01*
X123815269Y-73368860D01*
X123932353Y-73207708D01*
X124009515Y-73056269D01*
X124057490Y-73005473D01*
X124125311Y-72988678D01*
X124191446Y-73011215D01*
X124230485Y-73056269D01*
X124307647Y-73207708D01*
X124424731Y-73368860D01*
X124565582Y-73509711D01*
X124726734Y-73626795D01*
X124903304Y-73716762D01*
X124904219Y-73717228D01*
X125093657Y-73778780D01*
X125093658Y-73778780D01*
X125093661Y-73778781D01*
X125290403Y-73809942D01*
X125290404Y-73809942D01*
X125489596Y-73809942D01*
X125489597Y-73809942D01*
X125686339Y-73778781D01*
X125686342Y-73778780D01*
X125686343Y-73778780D01*
X125875780Y-73717228D01*
X125875780Y-73717227D01*
X125875783Y-73717227D01*
X126053266Y-73626795D01*
X126214418Y-73509711D01*
X126355269Y-73368860D01*
X126472353Y-73207708D01*
X126549515Y-73056269D01*
X126597490Y-73005473D01*
X126665311Y-72988678D01*
X126731446Y-73011215D01*
X126770485Y-73056269D01*
X126847647Y-73207708D01*
X126964731Y-73368860D01*
X127105582Y-73509711D01*
X127266734Y-73626795D01*
X127443304Y-73716762D01*
X127444219Y-73717228D01*
X127633657Y-73778780D01*
X127633658Y-73778780D01*
X127633661Y-73778781D01*
X127830403Y-73809942D01*
X127830404Y-73809942D01*
X128029596Y-73809942D01*
X128029597Y-73809942D01*
X128226339Y-73778781D01*
X128226342Y-73778780D01*
X128226343Y-73778780D01*
X128415780Y-73717228D01*
X128415780Y-73717227D01*
X128415783Y-73717227D01*
X128593266Y-73626795D01*
X128754418Y-73509711D01*
X128895269Y-73368860D01*
X129012353Y-73207708D01*
X129089795Y-73055718D01*
X129137769Y-73004923D01*
X129205590Y-72988128D01*
X129271725Y-73010665D01*
X129310765Y-73055719D01*
X129388077Y-73207450D01*
X129415580Y-73245305D01*
X129415581Y-73245306D01*
X129978871Y-72682016D01*
X129994755Y-72741295D01*
X130061898Y-72857589D01*
X130156853Y-72952544D01*
X130273147Y-73019687D01*
X130332425Y-73035570D01*
X129769134Y-73598859D01*
X129806994Y-73626366D01*
X129984405Y-73716762D01*
X130173777Y-73778294D01*
X130370437Y-73809442D01*
X130569563Y-73809442D01*
X130766222Y-73778294D01*
X130955594Y-73716762D01*
X131133005Y-73626366D01*
X131170863Y-73598860D01*
X131170863Y-73598859D01*
X130607574Y-73035570D01*
X130666853Y-73019687D01*
X130783147Y-72952544D01*
X130878102Y-72857589D01*
X130945245Y-72741295D01*
X130961128Y-72682016D01*
X131524417Y-73245305D01*
X131524418Y-73245305D01*
X131551924Y-73207447D01*
X131629234Y-73055719D01*
X131677208Y-73004923D01*
X131745029Y-72988128D01*
X131811164Y-73010665D01*
X131850204Y-73055719D01*
X131927514Y-73207447D01*
X131927647Y-73207708D01*
X132044731Y-73368860D01*
X132185582Y-73509711D01*
X132346734Y-73626795D01*
X132523304Y-73716762D01*
X132524219Y-73717228D01*
X132713657Y-73778780D01*
X132713658Y-73778780D01*
X132713661Y-73778781D01*
X132910403Y-73809942D01*
X132910404Y-73809942D01*
X133109596Y-73809942D01*
X133109597Y-73809942D01*
X133306339Y-73778781D01*
X133306342Y-73778780D01*
X133306343Y-73778780D01*
X133495780Y-73717228D01*
X133495780Y-73717227D01*
X133495783Y-73717227D01*
X133673266Y-73626795D01*
X133834418Y-73509711D01*
X133975269Y-73368860D01*
X134092353Y-73207708D01*
X134169795Y-73055718D01*
X134217769Y-73004923D01*
X134285590Y-72988128D01*
X134351725Y-73010665D01*
X134390765Y-73055719D01*
X134468077Y-73207450D01*
X134495580Y-73245305D01*
X134495581Y-73245306D01*
X135058871Y-72682016D01*
X135074755Y-72741295D01*
X135141898Y-72857589D01*
X135236853Y-72952544D01*
X135353147Y-73019687D01*
X135412425Y-73035570D01*
X134849134Y-73598859D01*
X134886994Y-73626366D01*
X135064405Y-73716762D01*
X135253777Y-73778294D01*
X135450437Y-73809442D01*
X135649563Y-73809442D01*
X135846222Y-73778294D01*
X136035594Y-73716762D01*
X136213005Y-73626366D01*
X136250863Y-73598860D01*
X136250863Y-73598859D01*
X135687574Y-73035570D01*
X135746853Y-73019687D01*
X135863147Y-72952544D01*
X135958102Y-72857589D01*
X136025245Y-72741295D01*
X136041128Y-72682016D01*
X136604417Y-73245305D01*
X136604418Y-73245305D01*
X136631924Y-73207447D01*
X136709234Y-73055719D01*
X136757208Y-73004923D01*
X136825029Y-72988128D01*
X136891164Y-73010665D01*
X136930204Y-73055719D01*
X137007514Y-73207447D01*
X137007647Y-73207708D01*
X137124731Y-73368860D01*
X137265582Y-73509711D01*
X137426734Y-73626795D01*
X137603304Y-73716762D01*
X137604219Y-73717228D01*
X137793657Y-73778780D01*
X137793658Y-73778780D01*
X137793661Y-73778781D01*
X137990403Y-73809942D01*
X137990404Y-73809942D01*
X138189596Y-73809942D01*
X138189597Y-73809942D01*
X138386339Y-73778781D01*
X138386342Y-73778780D01*
X138386343Y-73778780D01*
X138575780Y-73717228D01*
X138575780Y-73717227D01*
X138575783Y-73717227D01*
X138753266Y-73626795D01*
X138914418Y-73509711D01*
X139055269Y-73368860D01*
X139172353Y-73207708D01*
X139262785Y-73030225D01*
X139312249Y-72877991D01*
X141274500Y-72877991D01*
X141274500Y-73100892D01*
X141274501Y-73100908D01*
X141303594Y-73321894D01*
X141303595Y-73321899D01*
X141303596Y-73321905D01*
X141358329Y-73526171D01*
X141361290Y-73537222D01*
X141361293Y-73537232D01*
X141446593Y-73743164D01*
X141446595Y-73743168D01*
X141558052Y-73936216D01*
X141558057Y-73936222D01*
X141558058Y-73936224D01*
X141693751Y-74113064D01*
X141693757Y-74113071D01*
X141851370Y-74270684D01*
X141851376Y-74270689D01*
X142028226Y-74406390D01*
X142221274Y-74517847D01*
X142427219Y-74603152D01*
X142642537Y-74660846D01*
X142863543Y-74689942D01*
X142863550Y-74689942D01*
X143086450Y-74689942D01*
X143086457Y-74689942D01*
X143307463Y-74660846D01*
X143522781Y-74603152D01*
X143728726Y-74517847D01*
X143921774Y-74406390D01*
X144098624Y-74270689D01*
X144256247Y-74113066D01*
X144391948Y-73936216D01*
X144503405Y-73743168D01*
X144560439Y-73605476D01*
X144604280Y-73551073D01*
X144670574Y-73529008D01*
X144738273Y-73546287D01*
X144785884Y-73597424D01*
X144789561Y-73605476D01*
X144844218Y-73737431D01*
X144846595Y-73743168D01*
X144958052Y-73936216D01*
X144958057Y-73936222D01*
X144958058Y-73936224D01*
X145093751Y-74113064D01*
X145093757Y-74113071D01*
X145251370Y-74270684D01*
X145251376Y-74270689D01*
X145428226Y-74406390D01*
X145621274Y-74517847D01*
X145827219Y-74603152D01*
X146042537Y-74660846D01*
X146263543Y-74689942D01*
X146263550Y-74689942D01*
X146486450Y-74689942D01*
X146486457Y-74689942D01*
X146707463Y-74660846D01*
X146922781Y-74603152D01*
X147128726Y-74517847D01*
X147321774Y-74406390D01*
X147498624Y-74270689D01*
X147656247Y-74113066D01*
X147764922Y-73971437D01*
X170774500Y-73971437D01*
X170774500Y-74207446D01*
X170774501Y-74207462D01*
X170805306Y-74441452D01*
X170866394Y-74669435D01*
X170956714Y-74887487D01*
X170956719Y-74887498D01*
X171027677Y-75010399D01*
X171074727Y-75091892D01*
X171074729Y-75091895D01*
X171074730Y-75091896D01*
X171218406Y-75279139D01*
X171218412Y-75279146D01*
X171385295Y-75446029D01*
X171385301Y-75446034D01*
X171572550Y-75589715D01*
X171698933Y-75662682D01*
X171776943Y-75707722D01*
X171776948Y-75707724D01*
X171776951Y-75707726D01*
X171995007Y-75798048D01*
X172222986Y-75859135D01*
X172456989Y-75889942D01*
X172456996Y-75889942D01*
X172693004Y-75889942D01*
X172693011Y-75889942D01*
X172927014Y-75859135D01*
X173154993Y-75798048D01*
X173373049Y-75707726D01*
X173577450Y-75589715D01*
X173764699Y-75446034D01*
X173931592Y-75279141D01*
X174075273Y-75091892D01*
X174193284Y-74887491D01*
X174283606Y-74669435D01*
X174344693Y-74441456D01*
X174375500Y-74207453D01*
X174375500Y-73971431D01*
X174344693Y-73737428D01*
X174283606Y-73509449D01*
X174193284Y-73291393D01*
X174193282Y-73291390D01*
X174193280Y-73291385D01*
X174144818Y-73207447D01*
X174075273Y-73086992D01*
X173931592Y-72899743D01*
X173931587Y-72899737D01*
X173764704Y-72732854D01*
X173764697Y-72732848D01*
X173577454Y-72589172D01*
X173577453Y-72589171D01*
X173577450Y-72589169D01*
X173432852Y-72505685D01*
X173373056Y-72471161D01*
X173373045Y-72471156D01*
X173154993Y-72380836D01*
X172927010Y-72319748D01*
X172693020Y-72288943D01*
X172693017Y-72288942D01*
X172693011Y-72288942D01*
X172456989Y-72288942D01*
X172456983Y-72288942D01*
X172456979Y-72288943D01*
X172222989Y-72319748D01*
X171995006Y-72380836D01*
X171776954Y-72471156D01*
X171776943Y-72471161D01*
X171572545Y-72589172D01*
X171385302Y-72732848D01*
X171385295Y-72732854D01*
X171218412Y-72899737D01*
X171218406Y-72899744D01*
X171074730Y-73086987D01*
X170956719Y-73291385D01*
X170956714Y-73291396D01*
X170866394Y-73509448D01*
X170805306Y-73737431D01*
X170774501Y-73971421D01*
X170774500Y-73971437D01*
X147764922Y-73971437D01*
X147791948Y-73936216D01*
X147903405Y-73743168D01*
X147988710Y-73537223D01*
X148046404Y-73321905D01*
X148075500Y-73100899D01*
X148075500Y-72877985D01*
X148046404Y-72656979D01*
X147988710Y-72441661D01*
X147903405Y-72235716D01*
X147903403Y-72235713D01*
X147903401Y-72235708D01*
X147848308Y-72140285D01*
X147848307Y-72140284D01*
X147846030Y-72136340D01*
X147815323Y-72083155D01*
X178999500Y-72083155D01*
X178999500Y-72295729D01*
X179007714Y-72347589D01*
X179032753Y-72505681D01*
X179098444Y-72707856D01*
X179194951Y-72897262D01*
X179319890Y-73069228D01*
X179470209Y-73219547D01*
X179470214Y-73219551D01*
X179635218Y-73339433D01*
X179677884Y-73394762D01*
X179683863Y-73464376D01*
X179651258Y-73526171D01*
X179635218Y-73540069D01*
X179470540Y-73659714D01*
X179470535Y-73659718D01*
X179320276Y-73809977D01*
X179320272Y-73809982D01*
X179195379Y-73981884D01*
X179098904Y-74171224D01*
X179033242Y-74373312D01*
X179033242Y-74373315D01*
X179022769Y-74439442D01*
X180070854Y-74439442D01*
X180032370Y-74506099D01*
X180000000Y-74626907D01*
X180000000Y-74751977D01*
X180032370Y-74872785D01*
X180070854Y-74939442D01*
X179022769Y-74939442D01*
X179033242Y-75005568D01*
X179033242Y-75005571D01*
X179098904Y-75207659D01*
X179195379Y-75396999D01*
X179320272Y-75568901D01*
X179320276Y-75568906D01*
X179470535Y-75719165D01*
X179470540Y-75719169D01*
X179635218Y-75838814D01*
X179677884Y-75894143D01*
X179683863Y-75963757D01*
X179651258Y-76025552D01*
X179635218Y-76039450D01*
X179470214Y-76159332D01*
X179470209Y-76159336D01*
X179319890Y-76309655D01*
X179194951Y-76481621D01*
X179098444Y-76671027D01*
X179032753Y-76873202D01*
X178999500Y-77083155D01*
X178999500Y-77295728D01*
X179023935Y-77450008D01*
X179032754Y-77505685D01*
X179065066Y-77605132D01*
X179098444Y-77707856D01*
X179194951Y-77897262D01*
X179319890Y-78069228D01*
X179458705Y-78208043D01*
X179492190Y-78269366D01*
X179487206Y-78339058D01*
X179445334Y-78394991D01*
X179436121Y-78401263D01*
X179281342Y-78496731D01*
X179157289Y-78620784D01*
X179065187Y-78770105D01*
X179065185Y-78770110D01*
X179039520Y-78847563D01*
X179010001Y-78936645D01*
X179010001Y-78936646D01*
X179010000Y-78936646D01*
X178999500Y-79039425D01*
X178999500Y-80339443D01*
X178999501Y-80339460D01*
X179010000Y-80442238D01*
X179010001Y-80442241D01*
X179063250Y-80602934D01*
X179065186Y-80608776D01*
X179157288Y-80758098D01*
X179281344Y-80882154D01*
X179430666Y-80974256D01*
X179597203Y-81029441D01*
X179699991Y-81039942D01*
X181250008Y-81039941D01*
X181352797Y-81029441D01*
X181519334Y-80974256D01*
X181668656Y-80882154D01*
X181792712Y-80758098D01*
X181884814Y-80608776D01*
X181939999Y-80442239D01*
X181950500Y-80339451D01*
X181950499Y-79039434D01*
X181939999Y-78936645D01*
X181884814Y-78770108D01*
X181792712Y-78620786D01*
X181668656Y-78496730D01*
X181519334Y-78404628D01*
X181519333Y-78404627D01*
X181513878Y-78401263D01*
X181467154Y-78349315D01*
X181455931Y-78280352D01*
X181483775Y-78216270D01*
X181491272Y-78208065D01*
X181630104Y-78069234D01*
X181665734Y-78020194D01*
X181755048Y-77897262D01*
X181755047Y-77897262D01*
X181755051Y-77897258D01*
X181851557Y-77707854D01*
X181917246Y-77505685D01*
X181950500Y-77295729D01*
X181950500Y-77083155D01*
X181917246Y-76873199D01*
X181851557Y-76671030D01*
X181755051Y-76481626D01*
X181755049Y-76481623D01*
X181755048Y-76481621D01*
X181630109Y-76309655D01*
X181479790Y-76159336D01*
X181479785Y-76159332D01*
X181314781Y-76039450D01*
X181272115Y-75984120D01*
X181266136Y-75914507D01*
X181298741Y-75852712D01*
X181314781Y-75838813D01*
X181479466Y-75719163D01*
X181629723Y-75568906D01*
X181629727Y-75568901D01*
X181754620Y-75396999D01*
X181851095Y-75207659D01*
X181916757Y-75005571D01*
X181916757Y-75005568D01*
X181927231Y-74939442D01*
X180879146Y-74939442D01*
X180917630Y-74872785D01*
X180950000Y-74751977D01*
X180950000Y-74626907D01*
X180917630Y-74506099D01*
X180879146Y-74439442D01*
X181927231Y-74439442D01*
X181916757Y-74373315D01*
X181916757Y-74373312D01*
X181851095Y-74171224D01*
X181754620Y-73981884D01*
X181629727Y-73809982D01*
X181629723Y-73809977D01*
X181479464Y-73659718D01*
X181479459Y-73659714D01*
X181314781Y-73540069D01*
X181272115Y-73484739D01*
X181266136Y-73415126D01*
X181298741Y-73353331D01*
X181314776Y-73339436D01*
X181479792Y-73219546D01*
X181630104Y-73069234D01*
X181630106Y-73069230D01*
X181630109Y-73069228D01*
X181753245Y-72899744D01*
X181755051Y-72897258D01*
X181851557Y-72707854D01*
X181917246Y-72505685D01*
X181950500Y-72295729D01*
X181950500Y-72083155D01*
X181917246Y-71873199D01*
X181851557Y-71671030D01*
X181755051Y-71481626D01*
X181755049Y-71481623D01*
X181755048Y-71481621D01*
X181630109Y-71309655D01*
X181479786Y-71159332D01*
X181307820Y-71034393D01*
X181118414Y-70937886D01*
X181118413Y-70937885D01*
X181118412Y-70937885D01*
X180916243Y-70872196D01*
X180916241Y-70872195D01*
X180916240Y-70872195D01*
X180754957Y-70846650D01*
X180706287Y-70838942D01*
X180243713Y-70838942D01*
X180195042Y-70846650D01*
X180033760Y-70872195D01*
X179831585Y-70937886D01*
X179642179Y-71034393D01*
X179470213Y-71159332D01*
X179319890Y-71309655D01*
X179194951Y-71481621D01*
X179098444Y-71671027D01*
X179032753Y-71873202D01*
X179003380Y-72058659D01*
X178999500Y-72083155D01*
X147815323Y-72083155D01*
X147791948Y-72042668D01*
X147668230Y-71881435D01*
X147656248Y-71865819D01*
X147656242Y-71865812D01*
X147498629Y-71708199D01*
X147498622Y-71708193D01*
X147321782Y-71572500D01*
X147321780Y-71572499D01*
X147321774Y-71572494D01*
X147128726Y-71461037D01*
X147128722Y-71461035D01*
X146922790Y-71375735D01*
X146922783Y-71375733D01*
X146922781Y-71375732D01*
X146707463Y-71318038D01*
X146707457Y-71318037D01*
X146707452Y-71318036D01*
X146486466Y-71288943D01*
X146486463Y-71288942D01*
X146486457Y-71288942D01*
X146263543Y-71288942D01*
X146263537Y-71288942D01*
X146263533Y-71288943D01*
X146042547Y-71318036D01*
X146042540Y-71318037D01*
X146042537Y-71318038D01*
X145842435Y-71371655D01*
X145827219Y-71375732D01*
X145827209Y-71375735D01*
X145621277Y-71461035D01*
X145621273Y-71461037D01*
X145428226Y-71572494D01*
X145428217Y-71572500D01*
X145251377Y-71708193D01*
X145251370Y-71708199D01*
X145093757Y-71865812D01*
X145093751Y-71865819D01*
X144958058Y-72042659D01*
X144958052Y-72042668D01*
X144846595Y-72235715D01*
X144846593Y-72235719D01*
X144789561Y-72373407D01*
X144745720Y-72427810D01*
X144679426Y-72449875D01*
X144611726Y-72432596D01*
X144564116Y-72381458D01*
X144560439Y-72373407D01*
X144503406Y-72235719D01*
X144503405Y-72235716D01*
X144391948Y-72042668D01*
X144268230Y-71881435D01*
X144256248Y-71865819D01*
X144256242Y-71865812D01*
X144098629Y-71708199D01*
X144098622Y-71708193D01*
X143921782Y-71572500D01*
X143921780Y-71572499D01*
X143921774Y-71572494D01*
X143728726Y-71461037D01*
X143728722Y-71461035D01*
X143522790Y-71375735D01*
X143522783Y-71375733D01*
X143522781Y-71375732D01*
X143307463Y-71318038D01*
X143307457Y-71318037D01*
X143307452Y-71318036D01*
X143086466Y-71288943D01*
X143086463Y-71288942D01*
X143086457Y-71288942D01*
X142863543Y-71288942D01*
X142863537Y-71288942D01*
X142863533Y-71288943D01*
X142642547Y-71318036D01*
X142642540Y-71318037D01*
X142642537Y-71318038D01*
X142442435Y-71371655D01*
X142427219Y-71375732D01*
X142427209Y-71375735D01*
X142221277Y-71461035D01*
X142221273Y-71461037D01*
X142028226Y-71572494D01*
X142028217Y-71572500D01*
X141851377Y-71708193D01*
X141851370Y-71708199D01*
X141693757Y-71865812D01*
X141693751Y-71865819D01*
X141558058Y-72042659D01*
X141558052Y-72042668D01*
X141446595Y-72235715D01*
X141446593Y-72235719D01*
X141361293Y-72441651D01*
X141361290Y-72441661D01*
X141303597Y-72656976D01*
X141303594Y-72656989D01*
X141274501Y-72877975D01*
X141274500Y-72877991D01*
X139312249Y-72877991D01*
X139324339Y-72840781D01*
X139355500Y-72644039D01*
X139355500Y-72444845D01*
X139324339Y-72248103D01*
X139324338Y-72248099D01*
X139324338Y-72248098D01*
X139262786Y-72058661D01*
X139172485Y-71881436D01*
X139172353Y-71881176D01*
X139055269Y-71720024D01*
X138914418Y-71579173D01*
X138753266Y-71462089D01*
X138583787Y-71375735D01*
X138575780Y-71371655D01*
X138386342Y-71310103D01*
X138238782Y-71286732D01*
X138189597Y-71278942D01*
X137990403Y-71278942D01*
X137927266Y-71288942D01*
X137793659Y-71310103D01*
X137793656Y-71310103D01*
X137604219Y-71371655D01*
X137426733Y-71462089D01*
X137388286Y-71490023D01*
X137265582Y-71579173D01*
X137265580Y-71579175D01*
X137265579Y-71579175D01*
X137124733Y-71720021D01*
X137124733Y-71720022D01*
X137124731Y-71720024D01*
X137089555Y-71768439D01*
X137007645Y-71881177D01*
X136930203Y-72033165D01*
X136882229Y-72083960D01*
X136814408Y-72100755D01*
X136748273Y-72078217D01*
X136709234Y-72033164D01*
X136631924Y-71881436D01*
X136604417Y-71843577D01*
X136604417Y-71843576D01*
X136041128Y-72406866D01*
X136025245Y-72347589D01*
X135958102Y-72231295D01*
X135863147Y-72136340D01*
X135746853Y-72069197D01*
X135687574Y-72053313D01*
X136250864Y-71490023D01*
X136250863Y-71490022D01*
X136213008Y-71462519D01*
X136035594Y-71372121D01*
X135846222Y-71310589D01*
X135649563Y-71279442D01*
X135450437Y-71279442D01*
X135253777Y-71310589D01*
X135064405Y-71372121D01*
X134886990Y-71462519D01*
X134849135Y-71490022D01*
X134849135Y-71490023D01*
X135412425Y-72053313D01*
X135353147Y-72069197D01*
X135236853Y-72136340D01*
X135141898Y-72231295D01*
X135074755Y-72347589D01*
X135058871Y-72406867D01*
X134495581Y-71843577D01*
X134495580Y-71843577D01*
X134468075Y-71881435D01*
X134390764Y-72033165D01*
X134342790Y-72083960D01*
X134274969Y-72100755D01*
X134208834Y-72078217D01*
X134169795Y-72033164D01*
X134092485Y-71881436D01*
X134092353Y-71881176D01*
X133975269Y-71720024D01*
X133834418Y-71579173D01*
X133673266Y-71462089D01*
X133503787Y-71375735D01*
X133495780Y-71371655D01*
X133306342Y-71310103D01*
X133158782Y-71286732D01*
X133109597Y-71278942D01*
X132910403Y-71278942D01*
X132847266Y-71288942D01*
X132713659Y-71310103D01*
X132713656Y-71310103D01*
X132524219Y-71371655D01*
X132346733Y-71462089D01*
X132308286Y-71490023D01*
X132185582Y-71579173D01*
X132185580Y-71579175D01*
X132185579Y-71579175D01*
X132044733Y-71720021D01*
X132044733Y-71720022D01*
X132044731Y-71720024D01*
X132009555Y-71768439D01*
X131927645Y-71881177D01*
X131850203Y-72033165D01*
X131802229Y-72083960D01*
X131734408Y-72100755D01*
X131668273Y-72078217D01*
X131629234Y-72033164D01*
X131551924Y-71881436D01*
X131524417Y-71843577D01*
X131524417Y-71843576D01*
X130961128Y-72406866D01*
X130945245Y-72347589D01*
X130878102Y-72231295D01*
X130783147Y-72136340D01*
X130666853Y-72069197D01*
X130607574Y-72053313D01*
X131170864Y-71490023D01*
X131170863Y-71490022D01*
X131133008Y-71462519D01*
X130955594Y-71372121D01*
X130766222Y-71310589D01*
X130569563Y-71279442D01*
X130370437Y-71279442D01*
X130173777Y-71310589D01*
X129984405Y-71372121D01*
X129806990Y-71462519D01*
X129769135Y-71490022D01*
X129769135Y-71490023D01*
X130332425Y-72053313D01*
X130273147Y-72069197D01*
X130156853Y-72136340D01*
X130061898Y-72231295D01*
X129994755Y-72347589D01*
X129978871Y-72406867D01*
X129415581Y-71843577D01*
X129415580Y-71843577D01*
X129388075Y-71881435D01*
X129310764Y-72033165D01*
X129262790Y-72083960D01*
X129194969Y-72100755D01*
X129128834Y-72078217D01*
X129089795Y-72033164D01*
X129012485Y-71881436D01*
X129012353Y-71881176D01*
X128895269Y-71720024D01*
X128754418Y-71579173D01*
X128593266Y-71462089D01*
X128423787Y-71375735D01*
X128415780Y-71371655D01*
X128226342Y-71310103D01*
X128078782Y-71286732D01*
X128029597Y-71278942D01*
X127830403Y-71278942D01*
X127767266Y-71288942D01*
X127633659Y-71310103D01*
X127633656Y-71310103D01*
X127444219Y-71371655D01*
X127266733Y-71462089D01*
X127228286Y-71490023D01*
X127105582Y-71579173D01*
X127105580Y-71579175D01*
X127105579Y-71579175D01*
X126964733Y-71720021D01*
X126964733Y-71720022D01*
X126964731Y-71720024D01*
X126914447Y-71789232D01*
X126847647Y-71881175D01*
X126770485Y-72032614D01*
X126722510Y-72083410D01*
X126654689Y-72100205D01*
X126588554Y-72077667D01*
X126549515Y-72032614D01*
X126472485Y-71881436D01*
X126472353Y-71881176D01*
X126355269Y-71720024D01*
X126214418Y-71579173D01*
X126053266Y-71462089D01*
X125883787Y-71375735D01*
X125875780Y-71371655D01*
X125686342Y-71310103D01*
X125538782Y-71286732D01*
X125489597Y-71278942D01*
X125290403Y-71278942D01*
X125227266Y-71288942D01*
X125093659Y-71310103D01*
X125093656Y-71310103D01*
X124904219Y-71371655D01*
X124726733Y-71462089D01*
X124688286Y-71490023D01*
X124565582Y-71579173D01*
X124565580Y-71579175D01*
X124565579Y-71579175D01*
X124424733Y-71720021D01*
X124424733Y-71720022D01*
X124424731Y-71720024D01*
X124374447Y-71789232D01*
X124307647Y-71881175D01*
X124230485Y-72032614D01*
X124182510Y-72083410D01*
X124114689Y-72100205D01*
X124048554Y-72077667D01*
X124009515Y-72032614D01*
X123932485Y-71881436D01*
X123932353Y-71881176D01*
X123815269Y-71720024D01*
X123674418Y-71579173D01*
X123513266Y-71462089D01*
X123343787Y-71375735D01*
X123335780Y-71371655D01*
X123146342Y-71310103D01*
X122998782Y-71286732D01*
X122949597Y-71278942D01*
X122750403Y-71278942D01*
X122687266Y-71288942D01*
X122553659Y-71310103D01*
X122553656Y-71310103D01*
X122364219Y-71371655D01*
X122186733Y-71462089D01*
X122148286Y-71490023D01*
X122025582Y-71579173D01*
X122025580Y-71579175D01*
X122025579Y-71579175D01*
X121884733Y-71720021D01*
X121884733Y-71720022D01*
X121884731Y-71720024D01*
X121834447Y-71789232D01*
X121767647Y-71881175D01*
X121690485Y-72032614D01*
X121642510Y-72083410D01*
X121574689Y-72100205D01*
X121508554Y-72077667D01*
X121469515Y-72032614D01*
X121392485Y-71881436D01*
X121392353Y-71881176D01*
X121275269Y-71720024D01*
X121134418Y-71579173D01*
X120973266Y-71462089D01*
X120803787Y-71375735D01*
X120795780Y-71371655D01*
X120606342Y-71310103D01*
X120458782Y-71286732D01*
X120409597Y-71278942D01*
X120210403Y-71278942D01*
X120147266Y-71288942D01*
X120013659Y-71310103D01*
X120013656Y-71310103D01*
X119824219Y-71371655D01*
X119646733Y-71462089D01*
X119608286Y-71490023D01*
X119485582Y-71579173D01*
X119485580Y-71579175D01*
X119485579Y-71579175D01*
X119344733Y-71720021D01*
X119344733Y-71720022D01*
X119344731Y-71720024D01*
X119294447Y-71789232D01*
X119227647Y-71881175D01*
X119150485Y-72032614D01*
X119102510Y-72083410D01*
X119034689Y-72100205D01*
X118968554Y-72077667D01*
X118929515Y-72032614D01*
X118852485Y-71881436D01*
X118852353Y-71881176D01*
X118735269Y-71720024D01*
X118594418Y-71579173D01*
X118433266Y-71462089D01*
X118263787Y-71375735D01*
X118255780Y-71371655D01*
X118066342Y-71310103D01*
X117918782Y-71286732D01*
X117869597Y-71278942D01*
X117670403Y-71278942D01*
X117607266Y-71288942D01*
X117473659Y-71310103D01*
X117473656Y-71310103D01*
X117284219Y-71371655D01*
X117106733Y-71462089D01*
X117068286Y-71490023D01*
X116945582Y-71579173D01*
X116945580Y-71579175D01*
X116945579Y-71579175D01*
X116804733Y-71720021D01*
X116804733Y-71720022D01*
X116804731Y-71720024D01*
X116754447Y-71789232D01*
X116687647Y-71881175D01*
X116610485Y-72032614D01*
X116562510Y-72083410D01*
X116494689Y-72100205D01*
X116428554Y-72077667D01*
X116389515Y-72032614D01*
X116312485Y-71881436D01*
X116312353Y-71881176D01*
X116195269Y-71720024D01*
X116054418Y-71579173D01*
X115893266Y-71462089D01*
X115723787Y-71375735D01*
X115715780Y-71371655D01*
X115526342Y-71310103D01*
X115378782Y-71286732D01*
X115329597Y-71278942D01*
X115130403Y-71278942D01*
X115067266Y-71288942D01*
X114933659Y-71310103D01*
X114933656Y-71310103D01*
X114744219Y-71371655D01*
X114566733Y-71462089D01*
X114528286Y-71490023D01*
X114405582Y-71579173D01*
X114405580Y-71579175D01*
X114405579Y-71579175D01*
X114264733Y-71720021D01*
X114264733Y-71720022D01*
X114264731Y-71720024D01*
X114214447Y-71789232D01*
X114147647Y-71881175D01*
X114070485Y-72032614D01*
X114022510Y-72083410D01*
X113954689Y-72100205D01*
X113888554Y-72077667D01*
X113849515Y-72032614D01*
X113772485Y-71881436D01*
X113772353Y-71881176D01*
X113655269Y-71720024D01*
X113514418Y-71579173D01*
X113353266Y-71462089D01*
X113183787Y-71375735D01*
X113175780Y-71371655D01*
X112986342Y-71310103D01*
X112838782Y-71286732D01*
X112789597Y-71278942D01*
X112590403Y-71278942D01*
X112527266Y-71288942D01*
X112393659Y-71310103D01*
X112393656Y-71310103D01*
X112204219Y-71371655D01*
X112026733Y-71462089D01*
X111988286Y-71490023D01*
X111865582Y-71579173D01*
X111865580Y-71579175D01*
X111865579Y-71579175D01*
X111724733Y-71720021D01*
X111724733Y-71720022D01*
X111724731Y-71720024D01*
X111674447Y-71789232D01*
X111607647Y-71881175D01*
X111530485Y-72032614D01*
X111482510Y-72083410D01*
X111414689Y-72100205D01*
X111348554Y-72077667D01*
X111309515Y-72032614D01*
X111232485Y-71881436D01*
X111232353Y-71881176D01*
X111115269Y-71720024D01*
X110974418Y-71579173D01*
X110813266Y-71462089D01*
X110643787Y-71375735D01*
X110635780Y-71371655D01*
X110446342Y-71310103D01*
X110298782Y-71286732D01*
X110249597Y-71278942D01*
X110050403Y-71278942D01*
X109987266Y-71288942D01*
X109853659Y-71310103D01*
X109853656Y-71310103D01*
X109664219Y-71371655D01*
X109486733Y-71462089D01*
X109448286Y-71490023D01*
X109325582Y-71579173D01*
X109325580Y-71579175D01*
X109325579Y-71579175D01*
X109184733Y-71720021D01*
X109184733Y-71720022D01*
X109184731Y-71720024D01*
X109134447Y-71789232D01*
X109067647Y-71881175D01*
X108990485Y-72032614D01*
X108942510Y-72083410D01*
X108874689Y-72100205D01*
X108808554Y-72077667D01*
X108769515Y-72032614D01*
X108692485Y-71881436D01*
X108692353Y-71881176D01*
X108575269Y-71720024D01*
X108434418Y-71579173D01*
X108273266Y-71462089D01*
X108103787Y-71375735D01*
X108095780Y-71371655D01*
X107906342Y-71310103D01*
X107758782Y-71286732D01*
X107709597Y-71278942D01*
X107510403Y-71278942D01*
X107447266Y-71288942D01*
X107313659Y-71310103D01*
X107313656Y-71310103D01*
X107124219Y-71371655D01*
X106946733Y-71462089D01*
X106908286Y-71490023D01*
X106785582Y-71579173D01*
X106785580Y-71579175D01*
X106785579Y-71579175D01*
X106644733Y-71720021D01*
X106644733Y-71720022D01*
X106644731Y-71720024D01*
X106594447Y-71789232D01*
X106527647Y-71881175D01*
X106450485Y-72032614D01*
X106402510Y-72083410D01*
X106334689Y-72100205D01*
X106268554Y-72077667D01*
X106229515Y-72032614D01*
X106152485Y-71881436D01*
X106152353Y-71881176D01*
X106035269Y-71720024D01*
X105894418Y-71579173D01*
X105733266Y-71462089D01*
X105563787Y-71375735D01*
X105555780Y-71371655D01*
X105366342Y-71310103D01*
X105218782Y-71286732D01*
X105169597Y-71278942D01*
X104970403Y-71278942D01*
X104907266Y-71288942D01*
X104773659Y-71310103D01*
X104773656Y-71310103D01*
X104584219Y-71371655D01*
X104406733Y-71462089D01*
X104368286Y-71490023D01*
X104245582Y-71579173D01*
X104245580Y-71579175D01*
X104245579Y-71579175D01*
X104104733Y-71720021D01*
X104104733Y-71720022D01*
X104104731Y-71720024D01*
X104054447Y-71789232D01*
X103987647Y-71881175D01*
X103910485Y-72032614D01*
X103862510Y-72083410D01*
X103794689Y-72100205D01*
X103728554Y-72077667D01*
X103689515Y-72032614D01*
X103612485Y-71881436D01*
X103612353Y-71881176D01*
X103495269Y-71720024D01*
X103354418Y-71579173D01*
X103193266Y-71462089D01*
X103023787Y-71375735D01*
X103015780Y-71371655D01*
X102826342Y-71310103D01*
X102678782Y-71286732D01*
X102629597Y-71278942D01*
X102430403Y-71278942D01*
X102367266Y-71288942D01*
X102233659Y-71310103D01*
X102233656Y-71310103D01*
X102044219Y-71371655D01*
X101866733Y-71462089D01*
X101828286Y-71490023D01*
X101705582Y-71579173D01*
X101705580Y-71579175D01*
X101705579Y-71579175D01*
X101564733Y-71720021D01*
X101564733Y-71720022D01*
X101564731Y-71720024D01*
X101514447Y-71789232D01*
X101447647Y-71881175D01*
X101370485Y-72032614D01*
X101322510Y-72083410D01*
X101254689Y-72100205D01*
X101188554Y-72077667D01*
X101149515Y-72032614D01*
X101072485Y-71881436D01*
X101072353Y-71881176D01*
X100955269Y-71720024D01*
X100814418Y-71579173D01*
X100653266Y-71462089D01*
X100483787Y-71375735D01*
X100475780Y-71371655D01*
X100286342Y-71310103D01*
X100138782Y-71286732D01*
X100089597Y-71278942D01*
X99890403Y-71278942D01*
X99827266Y-71288942D01*
X99693659Y-71310103D01*
X99693656Y-71310103D01*
X99504219Y-71371655D01*
X99326733Y-71462089D01*
X99288286Y-71490023D01*
X99165582Y-71579173D01*
X99165580Y-71579175D01*
X99165579Y-71579175D01*
X99024733Y-71720021D01*
X99024733Y-71720022D01*
X99024731Y-71720024D01*
X98974447Y-71789232D01*
X98907647Y-71881175D01*
X98830485Y-72032614D01*
X98782510Y-72083410D01*
X98714689Y-72100205D01*
X98648554Y-72077667D01*
X98609515Y-72032614D01*
X98532485Y-71881436D01*
X98532353Y-71881176D01*
X98415269Y-71720024D01*
X98274418Y-71579173D01*
X98113266Y-71462089D01*
X97943787Y-71375735D01*
X97935780Y-71371655D01*
X97746342Y-71310103D01*
X97598782Y-71286732D01*
X97549597Y-71278942D01*
X97350403Y-71278942D01*
X97287266Y-71288942D01*
X97153659Y-71310103D01*
X97153656Y-71310103D01*
X96964219Y-71371655D01*
X96786733Y-71462089D01*
X96748286Y-71490023D01*
X96625582Y-71579173D01*
X96625580Y-71579175D01*
X96625579Y-71579175D01*
X96484733Y-71720021D01*
X96484733Y-71720022D01*
X96484731Y-71720024D01*
X96434447Y-71789232D01*
X96367647Y-71881175D01*
X96290485Y-72032614D01*
X96242510Y-72083410D01*
X96174689Y-72100205D01*
X96108554Y-72077667D01*
X96069515Y-72032614D01*
X95992485Y-71881436D01*
X95992353Y-71881176D01*
X95875269Y-71720024D01*
X95734418Y-71579173D01*
X95573266Y-71462089D01*
X95403787Y-71375735D01*
X95395780Y-71371655D01*
X95206342Y-71310103D01*
X95058782Y-71286732D01*
X95009597Y-71278942D01*
X94810403Y-71278942D01*
X94747266Y-71288942D01*
X94613659Y-71310103D01*
X94613656Y-71310103D01*
X94424219Y-71371655D01*
X94246733Y-71462089D01*
X94208286Y-71490023D01*
X94085582Y-71579173D01*
X94085580Y-71579175D01*
X94085579Y-71579175D01*
X93944733Y-71720021D01*
X93944733Y-71720022D01*
X93944731Y-71720024D01*
X93894447Y-71789232D01*
X93827647Y-71881175D01*
X93750485Y-72032614D01*
X93702510Y-72083410D01*
X93634689Y-72100205D01*
X93568554Y-72077667D01*
X93529515Y-72032614D01*
X93452485Y-71881436D01*
X93452353Y-71881176D01*
X93335269Y-71720024D01*
X93194418Y-71579173D01*
X93033266Y-71462089D01*
X92863787Y-71375735D01*
X92855780Y-71371655D01*
X92666342Y-71310103D01*
X92518782Y-71286732D01*
X92469597Y-71278942D01*
X92270403Y-71278942D01*
X92207266Y-71288942D01*
X92073659Y-71310103D01*
X92073656Y-71310103D01*
X91884219Y-71371655D01*
X91706733Y-71462089D01*
X91668286Y-71490023D01*
X91545582Y-71579173D01*
X91545580Y-71579175D01*
X91545579Y-71579175D01*
X91404733Y-71720021D01*
X91404733Y-71720022D01*
X91404731Y-71720024D01*
X91354447Y-71789232D01*
X91287647Y-71881175D01*
X91210485Y-72032614D01*
X91162510Y-72083410D01*
X91094689Y-72100205D01*
X91028554Y-72077667D01*
X90989515Y-72032614D01*
X90912485Y-71881436D01*
X90912353Y-71881176D01*
X90795269Y-71720024D01*
X90654418Y-71579173D01*
X90493266Y-71462089D01*
X90323787Y-71375735D01*
X90315780Y-71371655D01*
X90126342Y-71310103D01*
X89978782Y-71286732D01*
X89929597Y-71278942D01*
X89730403Y-71278942D01*
X89667266Y-71288942D01*
X89533659Y-71310103D01*
X89533656Y-71310103D01*
X89344219Y-71371655D01*
X89166733Y-71462089D01*
X89128286Y-71490023D01*
X89005582Y-71579173D01*
X89005580Y-71579175D01*
X89005579Y-71579175D01*
X88864733Y-71720021D01*
X88864733Y-71720022D01*
X88864731Y-71720024D01*
X88814447Y-71789232D01*
X88747647Y-71881175D01*
X88657213Y-72058661D01*
X88595661Y-72248098D01*
X88595661Y-72248101D01*
X88564500Y-72444845D01*
X85500500Y-72444845D01*
X85500500Y-70006961D01*
X85501280Y-69993077D01*
X85501280Y-69993076D01*
X85511460Y-69902729D01*
X85517635Y-69875670D01*
X85545353Y-69796456D01*
X85557396Y-69771450D01*
X85602046Y-69700389D01*
X85619351Y-69678690D01*
X85678690Y-69619351D01*
X85700389Y-69602046D01*
X85771450Y-69557396D01*
X85796456Y-69545353D01*
X85875670Y-69517635D01*
X85902733Y-69511459D01*
X85965419Y-69504396D01*
X85993079Y-69501280D01*
X86006962Y-69500500D01*
X86065892Y-69500500D01*
X187934108Y-69500500D01*
X187993038Y-69500500D01*
X188006922Y-69501280D01*
G37*
%TD.AperFunction*%
%TD*%
M02*
