%TF.GenerationSoftware,KiCad,Pcbnew,9.0.5*%
%TF.CreationDate,2026-01-31T21:14:51-07:00*%
%TF.ProjectId,Motor_Controller_Carrier_Board,4d6f746f-725f-4436-9f6e-74726f6c6c65,rev?*%
%TF.SameCoordinates,Original*%
%TF.FileFunction,Copper,L1,Top*%
%TF.FilePolarity,Positive*%
%FSLAX46Y46*%
G04 Gerber Fmt 4.6, Leading zero omitted, Abs format (unit mm)*
G04 Created by KiCad (PCBNEW 9.0.5) date 2026-01-31 21:14:51*
%MOMM*%
%LPD*%
G01*
G04 APERTURE LIST*
G04 Aperture macros list*
%AMRoundRect*
0 Rectangle with rounded corners*
0 $1 Rounding radius*
0 $2 $3 $4 $5 $6 $7 $8 $9 X,Y pos of 4 corners*
0 Add a 4 corners polygon primitive as box body*
4,1,4,$2,$3,$4,$5,$6,$7,$8,$9,$2,$3,0*
0 Add four circle primitives for the rounded corners*
1,1,$1+$1,$2,$3*
1,1,$1+$1,$4,$5*
1,1,$1+$1,$6,$7*
1,1,$1+$1,$8,$9*
0 Add four rect primitives between the rounded corners*
20,1,$1+$1,$2,$3,$4,$5,0*
20,1,$1+$1,$4,$5,$6,$7,0*
20,1,$1+$1,$6,$7,$8,$9,0*
20,1,$1+$1,$8,$9,$2,$3,0*%
G04 Aperture macros list end*
%TA.AperFunction,ComponentPad*%
%ADD10C,2.400000*%
%TD*%
%TA.AperFunction,ComponentPad*%
%ADD11C,1.600000*%
%TD*%
%TA.AperFunction,ComponentPad*%
%ADD12C,1.371600*%
%TD*%
%TA.AperFunction,ComponentPad*%
%ADD13C,4.000000*%
%TD*%
%TA.AperFunction,ComponentPad*%
%ADD14C,1.400000*%
%TD*%
%TA.AperFunction,ComponentPad*%
%ADD15RoundRect,0.770000X-0.980000X0.980000X-0.980000X-0.980000X0.980000X-0.980000X0.980000X0.980000X0*%
%TD*%
%TA.AperFunction,ComponentPad*%
%ADD16C,3.500000*%
%TD*%
%TA.AperFunction,ComponentPad*%
%ADD17RoundRect,0.770000X0.980000X-0.980000X0.980000X0.980000X-0.980000X0.980000X-0.980000X-0.980000X0*%
%TD*%
%TA.AperFunction,ComponentPad*%
%ADD18RoundRect,0.250000X0.725000X-0.600000X0.725000X0.600000X-0.725000X0.600000X-0.725000X-0.600000X0*%
%TD*%
%TA.AperFunction,ComponentPad*%
%ADD19O,1.950000X1.700000*%
%TD*%
%TA.AperFunction,ComponentPad*%
%ADD20C,1.574800*%
%TD*%
%TA.AperFunction,ComponentPad*%
%ADD21C,1.530000*%
%TD*%
%TA.AperFunction,ComponentPad*%
%ADD22R,1.625600X1.625600*%
%TD*%
%TA.AperFunction,ComponentPad*%
%ADD23C,1.625600*%
%TD*%
%TA.AperFunction,SMDPad,CuDef*%
%ADD24RoundRect,0.150000X-0.512500X-0.150000X0.512500X-0.150000X0.512500X0.150000X-0.512500X0.150000X0*%
%TD*%
%TA.AperFunction,SMDPad,CuDef*%
%ADD25R,4.100000X3.500000*%
%TD*%
%TA.AperFunction,ViaPad*%
%ADD26C,0.700000*%
%TD*%
%TA.AperFunction,Conductor*%
%ADD27C,0.500000*%
%TD*%
%TA.AperFunction,Conductor*%
%ADD28C,3.600000*%
%TD*%
%TA.AperFunction,Conductor*%
%ADD29C,6.300000*%
%TD*%
%TA.AperFunction,Conductor*%
%ADD30C,1.000000*%
%TD*%
%TA.AperFunction,Conductor*%
%ADD31C,0.300000*%
%TD*%
G04 APERTURE END LIST*
D10*
%TO.P,F2,1_1*%
%TO.N,Net-(J1-Pin_2)*%
X146375000Y-93689442D03*
%TO.P,F2,1_2*%
X142975000Y-93689442D03*
%TO.P,F2,2_1*%
%TO.N,Net-(J2-Pin_2)*%
X146375000Y-107159442D03*
%TO.P,F2,2_2*%
X142975000Y-107159442D03*
%TD*%
D11*
%TO.P,C3,1*%
%TO.N,/SW*%
X114400000Y-82700000D03*
%TO.P,C3,2*%
%TO.N,Net-(U1-BST)*%
X114400000Y-87700000D03*
%TD*%
D12*
%TO.P,C4,2*%
%TO.N,GND*%
X104736805Y-92302105D03*
%TO.P,C4,1*%
%TO.N,+3.3V*%
X109736805Y-92302105D03*
%TD*%
D11*
%TO.P,MDB1,1,GND*%
%TO.N,GND*%
X150375000Y-108909442D03*
%TO.P,MDB1,2,DIR*%
%TO.N,/DIR*%
X152915000Y-108909442D03*
%TO.P,MDB1,3,PWM*%
%TO.N,/PWM*%
X155455000Y-108909442D03*
%TO.P,MDB1,4,SLP*%
%TO.N,/SLP*%
X157995000Y-108909442D03*
%TO.P,MDB1,5,FLT*%
%TO.N,/FLT*%
X160535000Y-108909442D03*
%TO.P,MDB1,6,CS*%
%TO.N,/CS*%
X163075000Y-108909442D03*
%TO.P,MDB1,7,3V3*%
%TO.N,unconnected-(MDB1-3V3-Pad7)*%
X165615000Y-108909442D03*
%TO.P,MDB1,8,VM*%
%TO.N,unconnected-(MDB1-VM-Pad8)*%
X168155000Y-108909442D03*
%TO.P,MDB1,9,GND*%
%TO.N,GND*%
X150375000Y-106369442D03*
%TO.P,MDB1,10,VREF*%
%TO.N,unconnected-(MDB1-VREF-Pad10)*%
X150375000Y-103829442D03*
%TO.P,MDB1,11,GND*%
%TO.N,GND*%
X167245000Y-97859442D03*
%TO.P,MDB1,12,GND*%
X150375000Y-92879442D03*
%TO.P,MDB1,13,GND*%
X150355000Y-80989442D03*
D13*
%TO.P,MDB1,14,GND*%
X151745000Y-79469442D03*
D11*
%TO.P,MDB1,15,GND*%
X152895000Y-80989442D03*
%TO.P,MDB1,16,OUTB*%
%TO.N,Net-(J3-Pin_2)*%
X155435000Y-80989442D03*
D13*
%TO.P,MDB1,17,OUTB*%
X156745000Y-79469442D03*
D11*
%TO.P,MDB1,18,OUTB*%
X157975000Y-80989442D03*
%TO.P,MDB1,19,OUTA*%
%TO.N,Net-(J3-Pin_1)*%
X160515000Y-80989442D03*
D13*
%TO.P,MDB1,20,OUTA*%
X161745000Y-79469442D03*
D11*
%TO.P,MDB1,21,OUTA*%
X163055000Y-80989442D03*
%TO.P,MDB1,22,VIN*%
%TO.N,/DRIVER_PWR*%
X165595000Y-80989442D03*
D13*
%TO.P,MDB1,23,VIN*%
X166745000Y-79469442D03*
D11*
%TO.P,MDB1,24,VIN*%
X168135000Y-80989442D03*
%TD*%
D14*
%TO.P,J3,*%
%TO.N,*%
X184975000Y-103089442D03*
X184975000Y-114089442D03*
D15*
%TO.P,J3,1,Pin_1*%
%TO.N,Net-(J3-Pin_1)*%
X174975000Y-111089442D03*
D16*
%TO.P,J3,2,Pin_2*%
%TO.N,Net-(J3-Pin_2)*%
X174975000Y-106089442D03*
%TD*%
D14*
%TO.P,J2,*%
%TO.N,*%
X89075000Y-106389442D03*
X89075000Y-95389442D03*
D17*
%TO.P,J2,1,Pin_1*%
%TO.N,GND*%
X99075000Y-98389442D03*
D16*
%TO.P,J2,2,Pin_2*%
%TO.N,Net-(J2-Pin_2)*%
X99075000Y-103389442D03*
%TD*%
D14*
%TO.P,J1,*%
%TO.N,*%
X89075000Y-87689442D03*
X89075000Y-76689442D03*
D17*
%TO.P,J1,1,Pin_1*%
%TO.N,GND*%
X99075000Y-79689442D03*
D16*
%TO.P,J1,2,Pin_2*%
%TO.N,Net-(J1-Pin_2)*%
X99075000Y-84689442D03*
%TD*%
D18*
%TO.P,J4,1,B*%
%TO.N,/ENC_B*%
X180475000Y-79689442D03*
D19*
%TO.P,J4,2,A*%
%TO.N,/ENC_A*%
X180475000Y-77189442D03*
%TO.P,J4,3,GND*%
%TO.N,GND*%
X180475000Y-74689442D03*
%TO.P,J4,4,VCC*%
%TO.N,+3.3V*%
X180475000Y-72189442D03*
%TD*%
D12*
%TO.P,C1,1*%
%TO.N,/BUCK_PWR*%
X113200000Y-96800000D03*
%TO.P,C1,2*%
%TO.N,GND*%
X118200000Y-96800000D03*
%TD*%
D20*
%TO.P,C5,1*%
%TO.N,/DRIVER_PWR*%
X179375000Y-88306192D03*
%TO.P,C5,2*%
%TO.N,GND*%
X179375000Y-95806192D03*
%TD*%
D10*
%TO.P,F1,1_1*%
%TO.N,Net-(J1-Pin_2)*%
X142975000Y-86459442D03*
%TO.P,F1,1_2*%
X146375000Y-86459442D03*
%TO.P,F1,2_1*%
%TO.N,/DRIVER_PWR*%
X142975000Y-72989442D03*
%TO.P,F1,2_2*%
X146375000Y-72989442D03*
%TD*%
D21*
%TO.P,MCB1,1,3.3V_Battery*%
%TO.N,+3.3V*%
X138090000Y-72544442D03*
%TO.P,MCB1,2,GND*%
%TO.N,GND*%
X135550000Y-72544442D03*
%TO.P,MCB1,3,+3.3V*%
%TO.N,unconnected-(MCB1-+3.3V-Pad3)*%
X133010000Y-72544442D03*
%TO.P,MCB1,4,GND*%
%TO.N,GND*%
X130470000Y-72544442D03*
%TO.P,MCB1,5,PA8*%
%TO.N,unconnected-(MCB1-PA8-Pad5)*%
X127930000Y-72544442D03*
%TO.P,MCB1,6,PA9*%
%TO.N,unconnected-(MCB1-PA9-Pad6)*%
X125390000Y-72544442D03*
%TO.P,MCB1,7,PA10*%
%TO.N,unconnected-(MCB1-PA10-Pad7)*%
X122850000Y-72544442D03*
%TO.P,MCB1,8,PA15*%
%TO.N,/ENC_A*%
X120310000Y-72544442D03*
%TO.P,MCB1,9,PC10*%
%TO.N,unconnected-(MCB1-PC10-Pad9)*%
X117770000Y-72544442D03*
%TO.P,MCB1,10,PC11*%
%TO.N,unconnected-(MCB1-PC11-Pad10)*%
X115230000Y-72544442D03*
%TO.P,MCB1,11,PC12*%
%TO.N,unconnected-(MCB1-PC12-Pad11)*%
X112690000Y-72544442D03*
%TO.P,MCB1,12,PD2*%
%TO.N,unconnected-(MCB1-PD2-Pad12)*%
X110150000Y-72544442D03*
%TO.P,MCB1,13,PB4*%
%TO.N,unconnected-(MCB1-PB4-Pad13)*%
X107610000Y-72544442D03*
%TO.P,MCB1,14,PB5*%
%TO.N,unconnected-(MCB1-PB5-Pad14)*%
X105070000Y-72544442D03*
%TO.P,MCB1,15,PB6*%
%TO.N,unconnected-(MCB1-PB6-Pad15)*%
X102530000Y-72544442D03*
%TO.P,MCB1,16,PB7*%
%TO.N,unconnected-(MCB1-PB7-Pad16)*%
X99990000Y-72544442D03*
%TO.P,MCB1,17,PB8*%
%TO.N,unconnected-(MCB1-PB8-Pad17)*%
X97450000Y-72544442D03*
%TO.P,MCB1,18,PB9*%
%TO.N,unconnected-(MCB1-PB9-Pad18)*%
X94910000Y-72544442D03*
%TO.P,MCB1,19,PC13*%
%TO.N,unconnected-(MCB1-PC13-Pad19)*%
X92370000Y-72544442D03*
%TO.P,MCB1,20,PC14*%
%TO.N,unconnected-(MCB1-PC14-Pad20)*%
X89830000Y-72544442D03*
%TO.P,MCB1,21,PC6*%
%TO.N,/DIR*%
X135550000Y-110644442D03*
%TO.P,MCB1,22,PC7*%
%TO.N,/PWM*%
X133010000Y-110644442D03*
%TO.P,MCB1,23,PC8*%
%TO.N,/SLP*%
X130470000Y-110644442D03*
%TO.P,MCB1,24,PC9*%
%TO.N,/FLT*%
X127930000Y-110644442D03*
%TO.P,MCB1,25,PB15*%
%TO.N,unconnected-(MCB1-PB15-Pad25)*%
X125390000Y-110644442D03*
%TO.P,MCB1,26,PB14*%
%TO.N,unconnected-(MCB1-PB14-Pad26)*%
X122850000Y-110644442D03*
%TO.P,MCB1,27,PB13*%
%TO.N,unconnected-(MCB1-PB13-Pad27)*%
X120310000Y-110644442D03*
%TO.P,MCB1,28,PB12*%
%TO.N,unconnected-(MCB1-PB12-Pad28)*%
X117770000Y-110644442D03*
%TO.P,MCB1,29,PB10*%
%TO.N,unconnected-(MCB1-PB10-Pad29)*%
X115230000Y-110644442D03*
%TO.P,MCB1,30,PB2*%
%TO.N,unconnected-(MCB1-PB2-Pad30)*%
X112690000Y-110644442D03*
%TO.P,MCB1,31,PB1*%
%TO.N,/CS*%
X110150000Y-110644442D03*
%TO.P,MCB1,32,PB0*%
%TO.N,unconnected-(MCB1-PB0-Pad32)*%
X107610000Y-110644442D03*
%TO.P,MCB1,33,PC5*%
%TO.N,unconnected-(MCB1-PC5-Pad33)*%
X105070000Y-110644442D03*
%TO.P,MCB1,34,PA4*%
%TO.N,unconnected-(MCB1-PA4-Pad34)*%
X102530000Y-110644442D03*
%TO.P,MCB1,35,PA1*%
%TO.N,/ENC_B*%
X99990000Y-110644442D03*
%TO.P,MCB1,36,PA0*%
X97450000Y-110644442D03*
%TO.P,MCB1,37,PC3*%
%TO.N,unconnected-(MCB1-PC3-Pad37)*%
X94910000Y-110644442D03*
%TO.P,MCB1,38,PC2*%
%TO.N,unconnected-(MCB1-PC2-Pad38)*%
X92370000Y-110644442D03*
%TO.P,MCB1,39,PC1*%
%TO.N,unconnected-(MCB1-PC1-Pad39)*%
X89830000Y-110644442D03*
%TO.P,MCB1,40,PC0*%
%TO.N,unconnected-(MCB1-PC0-Pad40)*%
X87290000Y-110644442D03*
%TD*%
D22*
%TO.P,F3,1*%
%TO.N,/BUCK_PWR*%
X110217990Y-97360094D03*
D23*
%TO.P,F3,2*%
%TO.N,Net-(J1-Pin_2)*%
X105137990Y-97360094D03*
%TD*%
D12*
%TO.P,C2,1*%
%TO.N,+3.3V*%
X127112990Y-96660094D03*
%TO.P,C2,2*%
%TO.N,GND*%
X122112990Y-96660094D03*
%TD*%
D24*
%TO.P,U1,1,FB*%
%TO.N,+3.3V*%
X113437990Y-91160094D03*
%TO.P,U1,2,EN*%
%TO.N,/BUCK_PWR*%
X113437990Y-92110094D03*
%TO.P,U1,3,IN*%
X113437990Y-93060094D03*
%TO.P,U1,4,GND*%
%TO.N,GND*%
X115712990Y-93060094D03*
%TO.P,U1,5,SW*%
%TO.N,/SW*%
X115712990Y-92110094D03*
%TO.P,U1,6,BST*%
%TO.N,Net-(U1-BST)*%
X115712990Y-91160094D03*
%TD*%
D25*
%TO.P,L1,1,1*%
%TO.N,/SW*%
X119512990Y-86460094D03*
%TO.P,L1,2,2*%
%TO.N,+3.3V*%
X129012990Y-86460094D03*
%TD*%
D26*
%TO.N,GND*%
X118000000Y-93000000D03*
X105236805Y-93902105D03*
X104036805Y-93902105D03*
%TO.N,+3.3V*%
X109836805Y-93902105D03*
%TO.N,GND*%
X122062990Y-98310094D03*
X119800000Y-95600000D03*
X119800000Y-97600000D03*
X117100000Y-98050000D03*
X119800000Y-96600000D03*
%TO.N,+3.3V*%
X127012990Y-93560094D03*
%TD*%
D27*
%TO.N,Net-(U1-BST)*%
X114400000Y-89847104D02*
X115712990Y-91160094D01*
X114400000Y-87700000D02*
X114400000Y-89847104D01*
%TO.N,+3.3V*%
X111312990Y-91160094D02*
X113437990Y-91160094D01*
X110170979Y-92302105D02*
X111312990Y-91160094D01*
X109736805Y-92302105D02*
X110170979Y-92302105D01*
X109836805Y-93902105D02*
X109836805Y-92202105D01*
D28*
%TO.N,Net-(J3-Pin_2)*%
X174975000Y-106089442D02*
X174175000Y-105289442D01*
X165775000Y-105289442D02*
X156675000Y-96189442D01*
X156675000Y-96189442D02*
X156675000Y-84389442D01*
X174175000Y-105289442D02*
X165775000Y-105289442D01*
D29*
%TO.N,Net-(J2-Pin_2)*%
X142975000Y-107159442D02*
X139306000Y-103490442D01*
X139306000Y-103490442D02*
X99176000Y-103490442D01*
X142975000Y-107159442D02*
X146224000Y-107159442D01*
D30*
%TO.N,+3.3V*%
X153475000Y-84889442D02*
X153475000Y-93389442D01*
X138090000Y-72544442D02*
X148535000Y-82989442D01*
X153475000Y-93389442D02*
X149175000Y-97689442D01*
D31*
X178775000Y-70489442D02*
X140145000Y-70489442D01*
D30*
X149175000Y-97689442D02*
X131375000Y-97689442D01*
X148535000Y-82989442D02*
X151575000Y-82989442D01*
D31*
X180475000Y-72189442D02*
X178775000Y-70489442D01*
D30*
X151575000Y-82989442D02*
X153475000Y-84889442D01*
D31*
X140145000Y-70489442D02*
X138090000Y-72544442D01*
%TO.N,/PWM*%
X152375000Y-111989442D02*
X155455000Y-108909442D01*
X133010000Y-110644442D02*
X134355000Y-111989442D01*
X134355000Y-111989442D02*
X152375000Y-111989442D01*
%TO.N,/SLP*%
X132615000Y-112789442D02*
X154115000Y-112789442D01*
X154115000Y-112789442D02*
X157995000Y-108909442D01*
X130470000Y-110644442D02*
X132615000Y-112789442D01*
%TO.N,/FLT*%
X127930000Y-110644442D02*
X130875000Y-113589442D01*
X155855000Y-113589442D02*
X160535000Y-108909442D01*
X130875000Y-113589442D02*
X155855000Y-113589442D01*
%TO.N,/DIR*%
X136095000Y-111189442D02*
X150635000Y-111189442D01*
X135550000Y-110644442D02*
X136095000Y-111189442D01*
X150635000Y-111189442D02*
X152915000Y-108909442D01*
%TO.N,/CS*%
X110150000Y-110644442D02*
X113895000Y-114389442D01*
X157595000Y-114389442D02*
X163075000Y-108909442D01*
X113895000Y-114389442D02*
X157595000Y-114389442D01*
D28*
%TO.N,Net-(J3-Pin_1)*%
X178776000Y-101690442D02*
X161275000Y-84189442D01*
X174975000Y-111089442D02*
X175350426Y-111089442D01*
X175350426Y-111089442D02*
X178776000Y-107663868D01*
X178776000Y-107663868D02*
X178776000Y-101690442D01*
D31*
%TO.N,/ENC_A*%
X122965000Y-69889442D02*
X180475000Y-69889442D01*
X180475000Y-69889442D02*
X181975000Y-71389442D01*
X120310000Y-72544442D02*
X122965000Y-69889442D01*
X181975000Y-71389442D02*
X181975000Y-75689442D01*
X181975000Y-75689442D02*
X180475000Y-77189442D01*
%TO.N,/ENC_B*%
X177975000Y-115189442D02*
X182675000Y-110489442D01*
X182675000Y-81889442D02*
X180475000Y-79689442D01*
X99990000Y-110644442D02*
X97450000Y-110644442D01*
X99990000Y-110644442D02*
X104535000Y-115189442D01*
X182675000Y-110489442D02*
X182675000Y-81889442D01*
X104535000Y-115189442D02*
X177975000Y-115189442D01*
D28*
%TO.N,/DRIVER_PWR*%
X146375000Y-72989442D02*
X163675000Y-72989442D01*
X179375000Y-88306192D02*
X171391750Y-88306192D01*
X146375000Y-72989442D02*
X142975000Y-72989442D01*
X171391750Y-88306192D02*
X167175000Y-84089442D01*
X163675000Y-72989442D02*
X166775000Y-76089442D01*
D29*
%TO.N,Net-(J1-Pin_2)*%
X109013974Y-77438442D02*
X109013974Y-77538442D01*
X101761974Y-84790442D02*
X99075000Y-84790442D01*
X142975000Y-86459442D02*
X133954000Y-77438442D01*
D30*
X105137990Y-97360094D02*
X99075000Y-91297104D01*
D29*
X109013974Y-77538442D02*
X101761974Y-84790442D01*
X133954000Y-77438442D02*
X109013974Y-77438442D01*
D30*
X99075000Y-91297104D02*
X99075000Y-84689442D01*
%TD*%
%TA.AperFunction,Conductor*%
%TO.N,GND*%
G36*
X107178818Y-89351138D02*
G01*
X107224573Y-89403942D01*
X107235775Y-89456474D01*
X107187830Y-95277653D01*
X107167594Y-95344528D01*
X107114415Y-95389847D01*
X107062358Y-95400623D01*
X104327939Y-95368070D01*
X104261139Y-95347589D01*
X104241734Y-95331760D01*
X103034054Y-94124080D01*
X103000569Y-94062757D01*
X102997740Y-94035379D01*
X103035784Y-89454423D01*
X103056025Y-89387550D01*
X103109207Y-89342235D01*
X103159780Y-89331453D01*
X107111779Y-89331453D01*
X107178818Y-89351138D01*
G37*
%TD.AperFunction*%
%TD*%
%TA.AperFunction,Conductor*%
%TO.N,+3.3V*%
G36*
X131956029Y-84409127D02*
G01*
X132001784Y-84461931D01*
X132012990Y-84513442D01*
X132012990Y-98664871D01*
X131993305Y-98731910D01*
X131940501Y-98777665D01*
X131888421Y-98788870D01*
X125737190Y-98760663D01*
X125670242Y-98740671D01*
X125624730Y-98687658D01*
X125613761Y-98635894D01*
X125655998Y-91833324D01*
X125676099Y-91766408D01*
X125729186Y-91720982D01*
X125779996Y-91710094D01*
X126962990Y-91710094D01*
X126962990Y-84513442D01*
X126982675Y-84446403D01*
X127035479Y-84400648D01*
X127086990Y-84389442D01*
X131888990Y-84389442D01*
X131956029Y-84409127D01*
G37*
%TD.AperFunction*%
%TD*%
%TA.AperFunction,Conductor*%
%TO.N,Net-(J3-Pin_2)*%
G36*
X158918039Y-76736001D02*
G01*
X158963794Y-76788805D01*
X158975000Y-76840316D01*
X158975000Y-83460744D01*
X158962393Y-83515220D01*
X158409001Y-84646792D01*
X158361865Y-84698368D01*
X158297608Y-84716316D01*
X155044444Y-84716316D01*
X154977405Y-84696631D01*
X154938716Y-84657105D01*
X154261305Y-83551661D01*
X154243034Y-83486289D01*
X154274417Y-76839730D01*
X154294418Y-76772785D01*
X154347438Y-76727280D01*
X154398416Y-76716316D01*
X158851000Y-76716316D01*
X158918039Y-76736001D01*
G37*
%TD.AperFunction*%
%TD*%
%TA.AperFunction,Conductor*%
%TO.N,GND*%
G36*
X117710599Y-92760051D02*
G01*
X117715359Y-92760227D01*
X123797855Y-93103594D01*
X123863677Y-93127026D01*
X123906383Y-93182325D01*
X123914849Y-93225397D01*
X123976983Y-97077672D01*
X123991159Y-97956602D01*
X124010958Y-99184094D01*
X123992357Y-99251442D01*
X123940298Y-99298043D01*
X123886974Y-99310094D01*
X116564352Y-99310094D01*
X116497313Y-99290409D01*
X116476671Y-99273775D01*
X114898626Y-97695730D01*
X114865141Y-97634407D01*
X114862320Y-97606257D01*
X114875358Y-96706669D01*
X117014200Y-96706669D01*
X117014200Y-96893330D01*
X117043397Y-97077672D01*
X117101077Y-97255191D01*
X117185811Y-97421491D01*
X117202282Y-97444162D01*
X117772721Y-96873723D01*
X117797626Y-96966669D01*
X117854474Y-97065131D01*
X117934869Y-97145526D01*
X118033331Y-97202374D01*
X118126275Y-97227278D01*
X117555835Y-97797716D01*
X117578504Y-97814186D01*
X117744808Y-97898922D01*
X117922327Y-97956602D01*
X118106670Y-97985800D01*
X118293330Y-97985800D01*
X118477672Y-97956602D01*
X118655191Y-97898922D01*
X118821496Y-97814186D01*
X118844162Y-97797717D01*
X118844162Y-97797716D01*
X118744678Y-97698232D01*
X118273724Y-97227277D01*
X118366669Y-97202374D01*
X118465131Y-97145526D01*
X118545526Y-97065131D01*
X118602374Y-96966669D01*
X118627278Y-96873724D01*
X119197716Y-97444162D01*
X119197717Y-97444162D01*
X119214186Y-97421496D01*
X119298922Y-97255191D01*
X119356602Y-97077672D01*
X119385800Y-96893330D01*
X119385800Y-96706669D01*
X119365942Y-96581295D01*
X119365942Y-96581294D01*
X119363641Y-96566763D01*
X120927190Y-96566763D01*
X120927190Y-96753424D01*
X120956387Y-96937766D01*
X121014067Y-97115285D01*
X121098801Y-97281585D01*
X121115272Y-97304256D01*
X121685711Y-96733817D01*
X121710616Y-96826763D01*
X121767464Y-96925225D01*
X121847859Y-97005620D01*
X121946321Y-97062468D01*
X122039265Y-97087372D01*
X121468825Y-97657810D01*
X121491494Y-97674280D01*
X121657798Y-97759016D01*
X121835317Y-97816696D01*
X122019660Y-97845894D01*
X122206320Y-97845894D01*
X122390662Y-97816696D01*
X122568181Y-97759016D01*
X122734486Y-97674280D01*
X122757152Y-97657811D01*
X122757152Y-97657810D01*
X122186714Y-97087371D01*
X122279659Y-97062468D01*
X122378121Y-97005620D01*
X122458516Y-96925225D01*
X122515364Y-96826763D01*
X122540268Y-96733818D01*
X123110706Y-97304256D01*
X123110707Y-97304256D01*
X123127176Y-97281590D01*
X123211912Y-97115285D01*
X123269592Y-96937766D01*
X123298790Y-96753424D01*
X123298790Y-96566763D01*
X123269592Y-96382421D01*
X123211912Y-96204902D01*
X123127176Y-96038598D01*
X123110706Y-96015930D01*
X123110706Y-96015929D01*
X122540267Y-96586368D01*
X122515364Y-96493425D01*
X122458516Y-96394963D01*
X122378121Y-96314568D01*
X122279659Y-96257720D01*
X122186714Y-96232816D01*
X122757152Y-95662376D01*
X122734481Y-95645905D01*
X122568181Y-95561171D01*
X122390662Y-95503491D01*
X122206320Y-95474294D01*
X122019660Y-95474294D01*
X121835317Y-95503491D01*
X121657798Y-95561171D01*
X121491492Y-95645908D01*
X121468826Y-95662376D01*
X121468825Y-95662376D01*
X122039265Y-96232815D01*
X121946321Y-96257720D01*
X121847859Y-96314568D01*
X121767464Y-96394963D01*
X121710616Y-96493425D01*
X121685712Y-96586369D01*
X121115272Y-96015929D01*
X121115272Y-96015930D01*
X121098804Y-96038596D01*
X121014067Y-96204902D01*
X120956387Y-96382421D01*
X120927190Y-96566763D01*
X119363641Y-96566763D01*
X119356603Y-96522328D01*
X119356602Y-96522327D01*
X119298922Y-96344808D01*
X119214186Y-96178504D01*
X119197716Y-96155836D01*
X119197716Y-96155835D01*
X118627277Y-96726274D01*
X118602374Y-96633331D01*
X118545526Y-96534869D01*
X118465131Y-96454474D01*
X118366669Y-96397626D01*
X118273724Y-96372722D01*
X118844162Y-95802282D01*
X118844162Y-95802281D01*
X118821497Y-95785814D01*
X118821493Y-95785812D01*
X118655191Y-95701077D01*
X118477672Y-95643397D01*
X118293330Y-95614200D01*
X118106670Y-95614200D01*
X117922327Y-95643397D01*
X117744808Y-95701077D01*
X117578502Y-95785814D01*
X117555836Y-95802282D01*
X117555835Y-95802282D01*
X118126275Y-96372721D01*
X118033331Y-96397626D01*
X117934869Y-96454474D01*
X117854474Y-96534869D01*
X117797626Y-96633331D01*
X117772722Y-96726275D01*
X117202282Y-96155835D01*
X117202282Y-96155836D01*
X117185814Y-96178502D01*
X117101077Y-96344808D01*
X117043397Y-96522327D01*
X117014200Y-96706669D01*
X114875358Y-96706669D01*
X114912990Y-94110094D01*
X114912990Y-93968596D01*
X114932675Y-93901557D01*
X114985479Y-93855802D01*
X115054637Y-93845858D01*
X115071586Y-93849520D01*
X115097998Y-93857193D01*
X115098000Y-93857194D01*
X115134840Y-93860093D01*
X115134856Y-93860094D01*
X115462990Y-93860094D01*
X115962990Y-93860094D01*
X116291124Y-93860094D01*
X116291139Y-93860093D01*
X116327979Y-93857194D01*
X116327985Y-93857193D01*
X116485683Y-93811377D01*
X116485686Y-93811376D01*
X116627042Y-93727779D01*
X116627051Y-93727772D01*
X116743168Y-93611655D01*
X116743175Y-93611646D01*
X116826771Y-93470292D01*
X116872590Y-93312580D01*
X116872785Y-93310095D01*
X116872785Y-93310094D01*
X115962990Y-93310094D01*
X115962990Y-93860094D01*
X115462990Y-93860094D01*
X115462990Y-93184094D01*
X115482675Y-93117055D01*
X115535479Y-93071300D01*
X115586990Y-93060094D01*
X115712990Y-93060094D01*
X115712990Y-92934094D01*
X115732675Y-92867055D01*
X115785479Y-92821300D01*
X115836990Y-92810094D01*
X116872785Y-92810094D01*
X116894183Y-92786946D01*
X116954144Y-92751079D01*
X116987445Y-92747137D01*
X117710599Y-92760051D01*
G37*
%TD.AperFunction*%
%TD*%
%TA.AperFunction,Conductor*%
%TO.N,/DRIVER_PWR*%
G36*
X167961312Y-74739127D02*
G01*
X167987531Y-74761718D01*
X170084258Y-77154361D01*
X170113637Y-77217753D01*
X170115000Y-77236085D01*
X170115000Y-84607666D01*
X170095315Y-84674705D01*
X170042511Y-84720460D01*
X170003823Y-84731001D01*
X165825796Y-85165388D01*
X165757080Y-85152742D01*
X165725292Y-85129734D01*
X164551319Y-83955761D01*
X164517834Y-83894438D01*
X164515000Y-83868080D01*
X164515000Y-74843442D01*
X164534685Y-74776403D01*
X164587489Y-74730648D01*
X164639000Y-74719442D01*
X167894273Y-74719442D01*
X167961312Y-74739127D01*
G37*
%TD.AperFunction*%
%TD*%
%TA.AperFunction,Conductor*%
%TO.N,/BUCK_PWR*%
G36*
X114310042Y-91809127D02*
G01*
X114355797Y-91861931D01*
X114367002Y-91912852D01*
X114399410Y-98720735D01*
X114380044Y-98787867D01*
X114327459Y-98833873D01*
X114276184Y-98845323D01*
X110459697Y-98869114D01*
X110458200Y-98869114D01*
X108635384Y-98858473D01*
X108568461Y-98838397D01*
X108523015Y-98785327D01*
X108512111Y-98735352D01*
X108491807Y-95852177D01*
X108511019Y-95785002D01*
X108563500Y-95738876D01*
X108615050Y-95727308D01*
X110456873Y-95716179D01*
X112611516Y-91853040D01*
X112661363Y-91804081D01*
X112719811Y-91789442D01*
X114243003Y-91789442D01*
X114310042Y-91809127D01*
G37*
%TD.AperFunction*%
%TD*%
%TA.AperFunction,Conductor*%
%TO.N,Net-(J3-Pin_1)*%
G36*
X163958039Y-76720410D02*
G01*
X164003794Y-76773214D01*
X164015000Y-76824725D01*
X164015000Y-84576725D01*
X163995315Y-84643764D01*
X163942511Y-84689519D01*
X163891000Y-84700725D01*
X159639000Y-84700725D01*
X159571961Y-84681040D01*
X159526206Y-84628236D01*
X159515000Y-84576725D01*
X159515000Y-76824725D01*
X159534685Y-76757686D01*
X159587489Y-76711931D01*
X159639000Y-76700725D01*
X163891000Y-76700725D01*
X163958039Y-76720410D01*
G37*
%TD.AperFunction*%
%TD*%
%TA.AperFunction,Conductor*%
%TO.N,Net-(J1-Pin_2)*%
G36*
X148718039Y-84309127D02*
G01*
X148763794Y-84361931D01*
X148775000Y-84413442D01*
X148775000Y-96315442D01*
X148755315Y-96382481D01*
X148702511Y-96428236D01*
X148651000Y-96439442D01*
X140199000Y-96439442D01*
X140131961Y-96419757D01*
X140086206Y-96366953D01*
X140075000Y-96315442D01*
X140075000Y-84413442D01*
X140094685Y-84346403D01*
X140147489Y-84300648D01*
X140199000Y-84289442D01*
X148651000Y-84289442D01*
X148718039Y-84309127D01*
G37*
%TD.AperFunction*%
%TD*%
%TA.AperFunction,Conductor*%
%TO.N,/SW*%
G36*
X114172929Y-81492342D02*
G01*
X114174449Y-81492973D01*
X121487289Y-84585391D01*
X121541365Y-84629629D01*
X121562940Y-84696084D01*
X121562990Y-84699596D01*
X121562990Y-88721091D01*
X121558274Y-88754962D01*
X120587412Y-92174085D01*
X120550164Y-92233198D01*
X120486870Y-92262789D01*
X120473670Y-92264090D01*
X118170974Y-92367109D01*
X118141240Y-92364850D01*
X118064071Y-92349500D01*
X118064069Y-92349500D01*
X117935931Y-92349500D01*
X117935929Y-92349500D01*
X117810258Y-92374498D01*
X117806707Y-92375969D01*
X117764802Y-92385281D01*
X116106546Y-92459470D01*
X116101004Y-92459594D01*
X115146219Y-92459594D01*
X115110576Y-92462936D01*
X115041992Y-92449596D01*
X114991507Y-92401294D01*
X114975000Y-92339478D01*
X114975000Y-91880709D01*
X114994685Y-91813670D01*
X115047489Y-91767915D01*
X115110579Y-91757251D01*
X115115790Y-91757739D01*
X115115791Y-91757740D01*
X115135563Y-91759594D01*
X115146223Y-91760594D01*
X115146224Y-91760594D01*
X116279760Y-91760594D01*
X116310189Y-91757740D01*
X116310191Y-91757740D01*
X116395644Y-91727838D01*
X116438372Y-91712887D01*
X116470040Y-91689514D01*
X116475000Y-91689442D01*
X116498093Y-91668810D01*
X116547640Y-91632244D01*
X116556702Y-91619964D01*
X116573848Y-91601138D01*
X116775000Y-91421445D01*
X116775000Y-88700000D01*
X113080320Y-82557582D01*
X113062635Y-82489990D01*
X113084300Y-82423564D01*
X113101486Y-82403474D01*
X114041144Y-81517013D01*
X114103412Y-81485331D01*
X114172929Y-81492342D01*
G37*
%TD.AperFunction*%
%TD*%
M02*
