%TF.GenerationSoftware,KiCad,Pcbnew,9.0.5*%
%TF.CreationDate,2026-02-04T13:01:04-07:00*%
%TF.ProjectId,Motor_Controller_Carrier_Board,4d6f746f-725f-4436-9f6e-74726f6c6c65,rev?*%
%TF.SameCoordinates,Original*%
%TF.FileFunction,Copper,L1,Top*%
%TF.FilePolarity,Positive*%
%FSLAX46Y46*%
G04 Gerber Fmt 4.6, Leading zero omitted, Abs format (unit mm)*
G04 Created by KiCad (PCBNEW 9.0.5) date 2026-02-04 13:01:04*
%MOMM*%
%LPD*%
G01*
G04 APERTURE LIST*
G04 Aperture macros list*
%AMRoundRect*
0 Rectangle with rounded corners*
0 $1 Rounding radius*
0 $2 $3 $4 $5 $6 $7 $8 $9 X,Y pos of 4 corners*
0 Add a 4 corners polygon primitive as box body*
4,1,4,$2,$3,$4,$5,$6,$7,$8,$9,$2,$3,0*
0 Add four circle primitives for the rounded corners*
1,1,$1+$1,$2,$3*
1,1,$1+$1,$4,$5*
1,1,$1+$1,$6,$7*
1,1,$1+$1,$8,$9*
0 Add four rect primitives between the rounded corners*
20,1,$1+$1,$2,$3,$4,$5,0*
20,1,$1+$1,$4,$5,$6,$7,0*
20,1,$1+$1,$6,$7,$8,$9,0*
20,1,$1+$1,$8,$9,$2,$3,0*%
G04 Aperture macros list end*
%TA.AperFunction,ComponentPad*%
%ADD10C,1.400000*%
%TD*%
%TA.AperFunction,ComponentPad*%
%ADD11RoundRect,0.770000X-0.980000X0.980000X-0.980000X-0.980000X0.980000X-0.980000X0.980000X0.980000X0*%
%TD*%
%TA.AperFunction,ComponentPad*%
%ADD12C,3.500000*%
%TD*%
%TA.AperFunction,SMDPad,CuDef*%
%ADD13R,1.530000X2.720000*%
%TD*%
%TA.AperFunction,SMDPad,CuDef*%
%ADD14RoundRect,0.150000X-0.512500X-0.150000X0.512500X-0.150000X0.512500X0.150000X-0.512500X0.150000X0*%
%TD*%
%TA.AperFunction,ComponentPad*%
%ADD15RoundRect,0.250000X0.725000X-0.600000X0.725000X0.600000X-0.725000X0.600000X-0.725000X-0.600000X0*%
%TD*%
%TA.AperFunction,ComponentPad*%
%ADD16O,1.950000X1.700000*%
%TD*%
%TA.AperFunction,ComponentPad*%
%ADD17R,1.625600X1.625600*%
%TD*%
%TA.AperFunction,ComponentPad*%
%ADD18C,1.625600*%
%TD*%
%TA.AperFunction,SMDPad,CuDef*%
%ADD19R,4.100000X3.500000*%
%TD*%
%TA.AperFunction,ComponentPad*%
%ADD20C,1.530000*%
%TD*%
%TA.AperFunction,ComponentPad*%
%ADD21C,1.600000*%
%TD*%
%TA.AperFunction,ComponentPad*%
%ADD22C,1.800000*%
%TD*%
%TA.AperFunction,ComponentPad*%
%ADD23C,2.400000*%
%TD*%
%TA.AperFunction,ComponentPad*%
%ADD24RoundRect,0.770000X0.980000X-0.980000X0.980000X0.980000X-0.980000X0.980000X-0.980000X-0.980000X0*%
%TD*%
%TA.AperFunction,ComponentPad*%
%ADD25C,1.574800*%
%TD*%
%TA.AperFunction,SMDPad,CuDef*%
%ADD26R,1.100000X2.200000*%
%TD*%
%TA.AperFunction,SMDPad,CuDef*%
%ADD27R,1.803400X1.117600*%
%TD*%
%TA.AperFunction,ViaPad*%
%ADD28C,0.700000*%
%TD*%
%TA.AperFunction,Conductor*%
%ADD29C,6.300000*%
%TD*%
%TA.AperFunction,Conductor*%
%ADD30C,3.600000*%
%TD*%
%TA.AperFunction,Conductor*%
%ADD31C,0.500000*%
%TD*%
%TA.AperFunction,Conductor*%
%ADD32C,1.000000*%
%TD*%
%TA.AperFunction,Conductor*%
%ADD33C,0.300000*%
%TD*%
G04 APERTURE END LIST*
D10*
%TO.P,J3,*%
%TO.N,*%
X184975000Y-103089442D03*
X184975000Y-114089442D03*
D11*
%TO.P,J3,1,Pin_1*%
%TO.N,Net-(J3-Pin_1)*%
X174975000Y-111089442D03*
D12*
%TO.P,J3,2,Pin_2*%
%TO.N,Net-(J3-Pin_2)*%
X174975000Y-106089442D03*
%TD*%
D13*
%TO.P,C2,1*%
%TO.N,/Schematic/BUCK_PWR*%
X112409000Y-100986750D03*
%TO.P,C2,2*%
%TO.N,GND*%
X115091000Y-100986750D03*
%TD*%
D14*
%TO.P,U1,1,FB*%
%TO.N,+3.3V*%
X112362500Y-92286750D03*
%TO.P,U1,2,EN*%
%TO.N,/Schematic/BUCK_PWR*%
X112362500Y-93236750D03*
%TO.P,U1,3,IN*%
X112362500Y-94186750D03*
%TO.P,U1,4,GND*%
%TO.N,GND*%
X114637500Y-94186750D03*
%TO.P,U1,5,SW*%
%TO.N,/Schematic/SW*%
X114637500Y-93236750D03*
%TO.P,U1,6,BST*%
%TO.N,/Schematic/BST*%
X114637500Y-92286750D03*
%TD*%
D15*
%TO.P,J4,1,Pin_1*%
%TO.N,/Schematic/ENC_B*%
X180475000Y-79689442D03*
D16*
%TO.P,J4,2,Pin_2*%
%TO.N,/Schematic/ENC_A*%
X180475000Y-77189442D03*
%TO.P,J4,3,Pin_3*%
%TO.N,GND*%
X180475000Y-74689442D03*
%TO.P,J4,4,Pin_4*%
%TO.N,+3.3V*%
X180475000Y-72189442D03*
%TD*%
D17*
%TO.P,F3,1*%
%TO.N,/Schematic/BUCK_PWR*%
X107700000Y-97086750D03*
D18*
%TO.P,F3,2*%
%TO.N,Net-(J1-Pin_2)*%
X107700000Y-92006750D03*
%TD*%
D19*
%TO.P,L1,1,1*%
%TO.N,/Schematic/SW*%
X118250000Y-88736750D03*
%TO.P,L1,2,2*%
%TO.N,+3.3V*%
X127750000Y-88736750D03*
%TD*%
D20*
%TO.P,MCB1,1,3.3V_Battery*%
%TO.N,+3.3V*%
X138090000Y-72544442D03*
%TO.P,MCB1,2,GND*%
%TO.N,GND*%
X135550000Y-72544442D03*
%TO.P,MCB1,3,+3.3V*%
%TO.N,unconnected-(MCB1-+3.3V-Pad3)*%
X133010000Y-72544442D03*
%TO.P,MCB1,4,GND*%
%TO.N,GND*%
X130470000Y-72544442D03*
%TO.P,MCB1,5,PA8*%
%TO.N,unconnected-(MCB1-PA8-Pad5)*%
X127930000Y-72544442D03*
%TO.P,MCB1,6,PA9*%
%TO.N,unconnected-(MCB1-PA9-Pad6)*%
X125390000Y-72544442D03*
%TO.P,MCB1,7,PA10*%
%TO.N,unconnected-(MCB1-PA10-Pad7)*%
X122850000Y-72544442D03*
%TO.P,MCB1,8,PA15*%
%TO.N,/Schematic/ENC_A*%
X120310000Y-72544442D03*
%TO.P,MCB1,9,PC10*%
%TO.N,unconnected-(MCB1-PC10-Pad9)*%
X117770000Y-72544442D03*
%TO.P,MCB1,10,PC11*%
%TO.N,unconnected-(MCB1-PC11-Pad10)*%
X115230000Y-72544442D03*
%TO.P,MCB1,11,PC12*%
%TO.N,unconnected-(MCB1-PC12-Pad11)*%
X112690000Y-72544442D03*
%TO.P,MCB1,12,PD2*%
%TO.N,unconnected-(MCB1-PD2-Pad12)*%
X110150000Y-72544442D03*
%TO.P,MCB1,13,PB4*%
%TO.N,unconnected-(MCB1-PB4-Pad13)*%
X107610000Y-72544442D03*
%TO.P,MCB1,14,PB5*%
%TO.N,unconnected-(MCB1-PB5-Pad14)*%
X105070000Y-72544442D03*
%TO.P,MCB1,15,PB6*%
%TO.N,unconnected-(MCB1-PB6-Pad15)*%
X102530000Y-72544442D03*
%TO.P,MCB1,16,PB7*%
%TO.N,unconnected-(MCB1-PB7-Pad16)*%
X99990000Y-72544442D03*
%TO.P,MCB1,17,PB8*%
%TO.N,unconnected-(MCB1-PB8-Pad17)*%
X97450000Y-72544442D03*
%TO.P,MCB1,18,PB9*%
%TO.N,unconnected-(MCB1-PB9-Pad18)*%
X94910000Y-72544442D03*
%TO.P,MCB1,19,PC13*%
%TO.N,unconnected-(MCB1-PC13-Pad19)*%
X92370000Y-72544442D03*
%TO.P,MCB1,20,PC14*%
%TO.N,unconnected-(MCB1-PC14-Pad20)*%
X89830000Y-72544442D03*
%TO.P,MCB1,21,PC6*%
%TO.N,/Schematic/DIR*%
X135550000Y-110644442D03*
%TO.P,MCB1,22,PC7*%
%TO.N,/Schematic/PWM*%
X133010000Y-110644442D03*
%TO.P,MCB1,23,PC8*%
%TO.N,/Schematic/SLP*%
X130470000Y-110644442D03*
%TO.P,MCB1,24,PC9*%
%TO.N,/Schematic/FLT*%
X127930000Y-110644442D03*
%TO.P,MCB1,25,PB15*%
%TO.N,unconnected-(MCB1-PB15-Pad25)*%
X125390000Y-110644442D03*
%TO.P,MCB1,26,PB14*%
%TO.N,unconnected-(MCB1-PB14-Pad26)*%
X122850000Y-110644442D03*
%TO.P,MCB1,27,PB13*%
%TO.N,unconnected-(MCB1-PB13-Pad27)*%
X120310000Y-110644442D03*
%TO.P,MCB1,28,PB12*%
%TO.N,unconnected-(MCB1-PB12-Pad28)*%
X117770000Y-110644442D03*
%TO.P,MCB1,29,PB10*%
%TO.N,unconnected-(MCB1-PB10-Pad29)*%
X115230000Y-110644442D03*
%TO.P,MCB1,30,PB2*%
%TO.N,unconnected-(MCB1-PB2-Pad30)*%
X112690000Y-110644442D03*
%TO.P,MCB1,31,PB1*%
%TO.N,/Schematic/CS*%
X110150000Y-110644442D03*
%TO.P,MCB1,32,PB0*%
%TO.N,unconnected-(MCB1-PB0-Pad32)*%
X107610000Y-110644442D03*
%TO.P,MCB1,33,PC5*%
%TO.N,unconnected-(MCB1-PC5-Pad33)*%
X105070000Y-110644442D03*
%TO.P,MCB1,34,PA4*%
%TO.N,unconnected-(MCB1-PA4-Pad34)*%
X102530000Y-110644442D03*
%TO.P,MCB1,35,PA1*%
%TO.N,/Schematic/ENC_B*%
X99990000Y-110644442D03*
%TO.P,MCB1,36,PA0*%
X97450000Y-110644442D03*
%TO.P,MCB1,37,PC3*%
%TO.N,unconnected-(MCB1-PC3-Pad37)*%
X94910000Y-110644442D03*
%TO.P,MCB1,38,PC2*%
%TO.N,unconnected-(MCB1-PC2-Pad38)*%
X92370000Y-110644442D03*
%TO.P,MCB1,39,PC1*%
%TO.N,unconnected-(MCB1-PC1-Pad39)*%
X89830000Y-110644442D03*
%TO.P,MCB1,40,PC0*%
%TO.N,unconnected-(MCB1-PC0-Pad40)*%
X87290000Y-110644442D03*
%TD*%
D21*
%TO.P,MDB1,1,GND*%
%TO.N,GND*%
X150375000Y-108909442D03*
%TO.P,MDB1,2,DIR*%
%TO.N,/Schematic/DIR*%
X152915000Y-108909442D03*
%TO.P,MDB1,3,PWM*%
%TO.N,/Schematic/PWM*%
X155455000Y-108909442D03*
%TO.P,MDB1,4,SLP*%
%TO.N,/Schematic/SLP*%
X157995000Y-108909442D03*
%TO.P,MDB1,5,FLT*%
%TO.N,/Schematic/FLT*%
X160535000Y-108909442D03*
%TO.P,MDB1,6,CS*%
%TO.N,/Schematic/CS*%
X163075000Y-108909442D03*
%TO.P,MDB1,7,3V3*%
%TO.N,unconnected-(MDB1-3V3-Pad7)*%
X165615000Y-108909442D03*
%TO.P,MDB1,8,VM*%
%TO.N,unconnected-(MDB1-VM-Pad8)*%
X168155000Y-108909442D03*
D22*
%TO.P,MDB1,9,GND*%
%TO.N,GND*%
X150355000Y-80989442D03*
%TO.P,MDB1,10,GND*%
X152895000Y-80989442D03*
%TO.P,MDB1,11,OUTB*%
%TO.N,Net-(J3-Pin_2)*%
X155435000Y-80989442D03*
%TO.P,MDB1,12,OUTB*%
X157975000Y-80989442D03*
%TO.P,MDB1,13,OUTA*%
%TO.N,Net-(J3-Pin_1)*%
X160515000Y-80989442D03*
%TO.P,MDB1,14,OUTA*%
X163055000Y-80989442D03*
%TO.P,MDB1,15,VIN*%
%TO.N,/Schematic/DRIVER_PWR*%
X165595000Y-80989442D03*
%TO.P,MDB1,16,VIN*%
X168135000Y-80989442D03*
%TD*%
D23*
%TO.P,F1,1_1*%
%TO.N,Net-(J1-Pin_2)*%
X142975000Y-86459442D03*
%TO.P,F1,1_2*%
X146375000Y-86459442D03*
%TO.P,F1,2_1*%
%TO.N,/Schematic/DRIVER_PWR*%
X142975000Y-72989442D03*
%TO.P,F1,2_2*%
X146375000Y-72989442D03*
%TD*%
D10*
%TO.P,J2,*%
%TO.N,*%
X89075000Y-106389442D03*
X89075000Y-95389442D03*
D24*
%TO.P,J2,1,Pin_1*%
%TO.N,GND*%
X99075000Y-98389442D03*
D12*
%TO.P,J2,2,Pin_2*%
%TO.N,Net-(J2-Pin_2)*%
X99075000Y-103389442D03*
%TD*%
D25*
%TO.P,C6,1*%
%TO.N,/Schematic/DRIVER_PWR*%
X179375000Y-88306192D03*
%TO.P,C6,2*%
%TO.N,GND*%
X179375000Y-95806192D03*
%TD*%
D26*
%TO.P,C4,1*%
%TO.N,+3.3V*%
X125150000Y-100236750D03*
%TO.P,C4,2*%
%TO.N,GND*%
X121850000Y-100236750D03*
%TD*%
D13*
%TO.P,C1,1*%
%TO.N,/Schematic/BUCK_PWR*%
X112409000Y-97236750D03*
%TO.P,C1,2*%
%TO.N,GND*%
X115091000Y-97236750D03*
%TD*%
D10*
%TO.P,J1,*%
%TO.N,*%
X89075000Y-87689442D03*
X89075000Y-76689442D03*
D24*
%TO.P,J1,1,Pin_1*%
%TO.N,GND*%
X99075000Y-79689442D03*
D12*
%TO.P,J1,2,Pin_2*%
%TO.N,Net-(J1-Pin_2)*%
X99075000Y-84689442D03*
%TD*%
D23*
%TO.P,F2,1_1*%
%TO.N,Net-(J1-Pin_2)*%
X146375000Y-93689442D03*
%TO.P,F2,1_2*%
X142975000Y-93689442D03*
%TO.P,F2,2_1*%
%TO.N,Net-(J2-Pin_2)*%
X146375000Y-107159442D03*
%TO.P,F2,2_2*%
X142975000Y-107159442D03*
%TD*%
D27*
%TO.P,C3,1*%
%TO.N,/Schematic/SW*%
X113500000Y-86887950D03*
%TO.P,C3,2*%
%TO.N,/Schematic/BST*%
X113500000Y-89986750D03*
%TD*%
D26*
%TO.P,C5,1*%
%TO.N,+3.3V*%
X125150000Y-96486750D03*
%TO.P,C5,2*%
%TO.N,GND*%
X121850000Y-96486750D03*
%TD*%
D28*
%TO.N,GND*%
X117500000Y-100950000D03*
X119800000Y-94850000D03*
X119800000Y-97850000D03*
X117100000Y-94850000D03*
X119700000Y-100250000D03*
X117600000Y-98250000D03*
%TO.N,+3.3V*%
X110750000Y-94486750D03*
X127250000Y-96236750D03*
%TD*%
D29*
%TO.N,Net-(J1-Pin_2)*%
X136515558Y-80000000D02*
X106552416Y-80000000D01*
X142975000Y-86459442D02*
X136515558Y-80000000D01*
D30*
%TO.N,Net-(J3-Pin_2)*%
X156650000Y-86550000D02*
X156650000Y-84390000D01*
X174975000Y-104875000D02*
X156650000Y-86550000D01*
X174975000Y-106089442D02*
X174975000Y-104875000D01*
D29*
%TO.N,Net-(J2-Pin_2)*%
X142975000Y-107159442D02*
X146375000Y-107159442D01*
X142975000Y-107159442D02*
X142015558Y-106200000D01*
X142015558Y-106200000D02*
X101885558Y-106200000D01*
X101885558Y-106200000D02*
X99176000Y-103490442D01*
D31*
%TO.N,+3.3V*%
X110750000Y-94486750D02*
X110750000Y-92836750D01*
D32*
X138090000Y-72544442D02*
X149530000Y-83984442D01*
D33*
X178775000Y-70489442D02*
X140145000Y-70489442D01*
X180475000Y-72189442D02*
X178775000Y-70489442D01*
D32*
X149530000Y-83984442D02*
X149530000Y-96570000D01*
X148100000Y-98000000D02*
X130400000Y-98000000D01*
X149530000Y-96570000D02*
X148100000Y-98000000D01*
D31*
X110750000Y-92836750D02*
X111300000Y-92286750D01*
X111300000Y-92286750D02*
X112362500Y-92286750D01*
D33*
X140145000Y-70489442D02*
X138090000Y-72544442D01*
D30*
%TO.N,Net-(J3-Pin_1)*%
X179130000Y-102440000D02*
X161320000Y-84630000D01*
X174975000Y-111089442D02*
X176020558Y-111089442D01*
X161320000Y-84630000D02*
X161320000Y-84320000D01*
X176020558Y-111089442D02*
X179130000Y-107980000D01*
X179130000Y-107980000D02*
X179130000Y-102440000D01*
D29*
%TO.N,Net-(J1-Pin_2)*%
X106552416Y-80000000D02*
X101761974Y-84790442D01*
D32*
X107700000Y-92006750D02*
X101761974Y-86068724D01*
D29*
X101761974Y-84790442D02*
X99075000Y-84790442D01*
D31*
%TO.N,/Schematic/BUCK_PWR*%
X112409000Y-94233250D02*
X112362500Y-94186750D01*
X112409000Y-97236750D02*
X112409000Y-94233250D01*
X112362500Y-94186750D02*
X112362500Y-93236750D01*
D30*
%TO.N,/Schematic/DRIVER_PWR*%
X146375000Y-72989442D02*
X163675000Y-72989442D01*
X179375000Y-88306192D02*
X171391750Y-88306192D01*
X146375000Y-72989442D02*
X142975000Y-72989442D01*
X171391750Y-88306192D02*
X167175000Y-84089442D01*
X163675000Y-72989442D02*
X166775000Y-76089442D01*
D33*
%TO.N,/Schematic/ENC_A*%
X122965000Y-69889442D02*
X180475000Y-69889442D01*
X180475000Y-69889442D02*
X181975000Y-71389442D01*
X120310000Y-72544442D02*
X122965000Y-69889442D01*
X181975000Y-71389442D02*
X181975000Y-75689442D01*
X181975000Y-75689442D02*
X180475000Y-77189442D01*
%TO.N,/Schematic/ENC_B*%
X177975000Y-115189442D02*
X182675000Y-110489442D01*
X182675000Y-81889442D02*
X180475000Y-79689442D01*
X99990000Y-110644442D02*
X97450000Y-110644442D01*
X99990000Y-110644442D02*
X104535000Y-115189442D01*
X182675000Y-110489442D02*
X182675000Y-81889442D01*
X104535000Y-115189442D02*
X177975000Y-115189442D01*
%TO.N,/Schematic/FLT*%
X127930000Y-110644442D02*
X130875000Y-113589442D01*
X155855000Y-113589442D02*
X160535000Y-108909442D01*
X130875000Y-113589442D02*
X155855000Y-113589442D01*
%TO.N,/Schematic/SLP*%
X132615000Y-112789442D02*
X154115000Y-112789442D01*
X154115000Y-112789442D02*
X157995000Y-108909442D01*
X130470000Y-110644442D02*
X132615000Y-112789442D01*
%TO.N,/Schematic/CS*%
X110150000Y-110644442D02*
X113895000Y-114389442D01*
X157595000Y-114389442D02*
X163075000Y-108909442D01*
X113895000Y-114389442D02*
X157595000Y-114389442D01*
%TO.N,/Schematic/DIR*%
X136095000Y-111189442D02*
X150635000Y-111189442D01*
X135550000Y-110644442D02*
X136095000Y-111189442D01*
X150635000Y-111189442D02*
X152915000Y-108909442D01*
%TO.N,/Schematic/PWM*%
X152375000Y-111989442D02*
X155455000Y-108909442D01*
X133010000Y-110644442D02*
X134355000Y-111989442D01*
X134355000Y-111989442D02*
X152375000Y-111989442D01*
D31*
%TO.N,/Schematic/SW*%
X114637500Y-93236750D02*
X115886750Y-93236750D01*
%TO.N,/Schematic/BST*%
X114637500Y-92286750D02*
X113500000Y-91149250D01*
X113500000Y-91149250D02*
X113500000Y-89986750D01*
%TD*%
%TA.AperFunction,Conductor*%
%TO.N,Net-(J1-Pin_2)*%
G36*
X148138039Y-84309127D02*
G01*
X148183794Y-84361931D01*
X148195000Y-84413442D01*
X148195000Y-96315442D01*
X148175315Y-96382481D01*
X148122511Y-96428236D01*
X148071000Y-96439442D01*
X140199000Y-96439442D01*
X140131961Y-96419757D01*
X140086206Y-96366953D01*
X140075000Y-96315442D01*
X140075000Y-84413442D01*
X140094685Y-84346403D01*
X140147489Y-84300648D01*
X140199000Y-84289442D01*
X148071000Y-84289442D01*
X148138039Y-84309127D01*
G37*
%TD.AperFunction*%
%TD*%
%TA.AperFunction,Conductor*%
%TO.N,/Schematic/SW*%
G36*
X118443039Y-85506435D02*
G01*
X118488794Y-85559239D01*
X118500000Y-85610750D01*
X118500000Y-93376000D01*
X118480315Y-93443039D01*
X118427511Y-93488794D01*
X118376000Y-93500000D01*
X115924000Y-93500000D01*
X115856961Y-93480315D01*
X115811206Y-93427511D01*
X115800000Y-93376000D01*
X115800000Y-92164720D01*
X115799999Y-92164718D01*
X115538853Y-91902699D01*
X115532366Y-91896190D01*
X115472150Y-91814600D01*
X115392342Y-91755699D01*
X115385706Y-91749041D01*
X114765996Y-91127261D01*
X114732613Y-91065882D01*
X114729823Y-91039895D01*
X114729742Y-90980346D01*
X114729135Y-90534594D01*
X115700000Y-90534594D01*
X115706401Y-90594122D01*
X115706403Y-90594129D01*
X115756645Y-90728836D01*
X115756649Y-90728843D01*
X115842809Y-90843937D01*
X115842812Y-90843940D01*
X115957906Y-90930100D01*
X115957913Y-90930104D01*
X116092620Y-90980346D01*
X116092627Y-90980348D01*
X116152155Y-90986749D01*
X116152172Y-90986750D01*
X118000000Y-90986750D01*
X118000000Y-88986750D01*
X115700000Y-88986750D01*
X115700000Y-90534594D01*
X114729135Y-90534594D01*
X114725530Y-87888825D01*
X114745122Y-87821764D01*
X114753686Y-87811123D01*
X114753574Y-87811039D01*
X114845052Y-87688838D01*
X114845054Y-87688836D01*
X114895296Y-87554129D01*
X114895298Y-87554122D01*
X114901699Y-87494594D01*
X114901700Y-87494577D01*
X114901700Y-87137950D01*
X113624000Y-87137950D01*
X113615314Y-87135399D01*
X113606353Y-87136688D01*
X113582312Y-87125709D01*
X113556961Y-87118265D01*
X113551033Y-87111424D01*
X113542797Y-87107663D01*
X113528507Y-87085428D01*
X113511206Y-87065461D01*
X113508918Y-87054946D01*
X113505023Y-87048885D01*
X113500000Y-87013950D01*
X113500000Y-86938905D01*
X115700000Y-86938905D01*
X115700000Y-88486750D01*
X118000000Y-88486750D01*
X118000000Y-86486750D01*
X116152155Y-86486750D01*
X116092627Y-86493151D01*
X116092620Y-86493153D01*
X115957913Y-86543395D01*
X115957906Y-86543399D01*
X115842812Y-86629559D01*
X115842809Y-86629562D01*
X115756649Y-86744656D01*
X115756645Y-86744663D01*
X115706403Y-86879370D01*
X115706401Y-86879377D01*
X115700000Y-86938905D01*
X113500000Y-86938905D01*
X113500000Y-86887950D01*
X113374000Y-86887950D01*
X113306961Y-86868265D01*
X113261206Y-86815461D01*
X113250000Y-86763950D01*
X113250000Y-86637950D01*
X113750000Y-86637950D01*
X114901700Y-86637950D01*
X114901700Y-86281322D01*
X114901699Y-86281305D01*
X114895298Y-86221777D01*
X114895296Y-86221770D01*
X114845054Y-86087063D01*
X114845050Y-86087056D01*
X114758890Y-85971962D01*
X114758887Y-85971959D01*
X114643793Y-85885799D01*
X114643786Y-85885795D01*
X114509079Y-85835553D01*
X114509072Y-85835551D01*
X114449544Y-85829150D01*
X113750000Y-85829150D01*
X113750000Y-86637950D01*
X113250000Y-86637950D01*
X113250000Y-85610750D01*
X113269685Y-85543711D01*
X113322489Y-85497956D01*
X113374000Y-85486750D01*
X118376000Y-85486750D01*
X118443039Y-85506435D01*
G37*
%TD.AperFunction*%
%TD*%
%TA.AperFunction,Conductor*%
%TO.N,Net-(J3-Pin_1)*%
G36*
X163993039Y-78220410D02*
G01*
X164038794Y-78273214D01*
X164050000Y-78324725D01*
X164050000Y-85542351D01*
X164030315Y-85609390D01*
X163977511Y-85655145D01*
X163908353Y-85665089D01*
X163896789Y-85662861D01*
X159609789Y-84623701D01*
X159549273Y-84588778D01*
X159517245Y-84526681D01*
X159515000Y-84503191D01*
X159515000Y-78324725D01*
X159534685Y-78257686D01*
X159587489Y-78211931D01*
X159639000Y-78200725D01*
X163926000Y-78200725D01*
X163993039Y-78220410D01*
G37*
%TD.AperFunction*%
%TD*%
%TA.AperFunction,Conductor*%
%TO.N,/Schematic/DRIVER_PWR*%
G36*
X167961312Y-74739127D02*
G01*
X167987531Y-74761718D01*
X170084258Y-77154361D01*
X170113637Y-77217753D01*
X170115000Y-77236085D01*
X170115000Y-84607666D01*
X170095315Y-84674705D01*
X170042511Y-84720460D01*
X170003823Y-84731001D01*
X165825796Y-85165388D01*
X165757080Y-85152742D01*
X165725292Y-85129734D01*
X164611319Y-84015761D01*
X164577834Y-83954438D01*
X164575000Y-83928080D01*
X164575000Y-74843442D01*
X164594685Y-74776403D01*
X164647489Y-74730648D01*
X164699000Y-74719442D01*
X167894273Y-74719442D01*
X167961312Y-74739127D01*
G37*
%TD.AperFunction*%
%TD*%
%TA.AperFunction,Conductor*%
%TO.N,/Schematic/BUCK_PWR*%
G36*
X111087039Y-96869685D02*
G01*
X111132794Y-96922489D01*
X111144000Y-96974000D01*
X111144000Y-96986750D01*
X112285000Y-96986750D01*
X112352039Y-97006435D01*
X112397794Y-97059239D01*
X112409000Y-97110750D01*
X112409000Y-97236750D01*
X112535000Y-97236750D01*
X112602039Y-97256435D01*
X112647794Y-97309239D01*
X112659000Y-97360750D01*
X112659000Y-100862750D01*
X112639315Y-100929789D01*
X112586511Y-100975544D01*
X112535000Y-100986750D01*
X112409000Y-100986750D01*
X112409000Y-101112750D01*
X112389315Y-101179789D01*
X112336511Y-101225544D01*
X112285000Y-101236750D01*
X111144000Y-101236750D01*
X111144000Y-102394594D01*
X111150401Y-102454122D01*
X111150403Y-102454129D01*
X111161047Y-102482667D01*
X111166031Y-102552358D01*
X111132546Y-102613681D01*
X111071223Y-102647166D01*
X111044865Y-102650000D01*
X107524000Y-102650000D01*
X107456961Y-102630315D01*
X107411206Y-102577511D01*
X107400000Y-102526000D01*
X107400000Y-98644594D01*
X111144000Y-98644594D01*
X111150401Y-98704122D01*
X111150403Y-98704129D01*
X111200645Y-98838836D01*
X111200649Y-98838843D01*
X111286809Y-98953937D01*
X111365016Y-99012484D01*
X111406886Y-99068418D01*
X111411870Y-99138110D01*
X111378384Y-99199433D01*
X111365016Y-99211016D01*
X111286809Y-99269562D01*
X111200649Y-99384656D01*
X111200645Y-99384663D01*
X111150403Y-99519370D01*
X111150401Y-99519377D01*
X111144000Y-99578905D01*
X111144000Y-100736750D01*
X112159000Y-100736750D01*
X112159000Y-97486750D01*
X111144000Y-97486750D01*
X111144000Y-98644594D01*
X107400000Y-98644594D01*
X107400000Y-98500912D01*
X107419685Y-98433873D01*
X107436319Y-98413231D01*
X107450000Y-98399550D01*
X107450000Y-97587659D01*
X107484311Y-97607469D01*
X107626433Y-97645550D01*
X107773567Y-97645550D01*
X107915689Y-97607469D01*
X107950000Y-97587659D01*
X107950000Y-98399550D01*
X108560628Y-98399550D01*
X108560644Y-98399549D01*
X108620172Y-98393148D01*
X108620179Y-98393146D01*
X108754886Y-98342904D01*
X108754893Y-98342900D01*
X108869987Y-98256740D01*
X108869990Y-98256737D01*
X108956150Y-98141643D01*
X108956154Y-98141636D01*
X109006396Y-98006929D01*
X109006398Y-98006922D01*
X109012799Y-97947394D01*
X109012800Y-97947377D01*
X109012800Y-97336750D01*
X108200909Y-97336750D01*
X108220719Y-97302439D01*
X108258800Y-97160317D01*
X108258800Y-97013183D01*
X108220719Y-96871061D01*
X108208559Y-96850000D01*
X109123312Y-96850000D01*
X111020000Y-96850000D01*
X111087039Y-96869685D01*
G37*
%TD.AperFunction*%
%TD*%
%TA.AperFunction,Conductor*%
%TO.N,Net-(J3-Pin_2)*%
G36*
X158938039Y-78236001D02*
G01*
X158983794Y-78288805D01*
X158995000Y-78340316D01*
X158995000Y-83419850D01*
X158982393Y-83474326D01*
X158409001Y-84646792D01*
X158361865Y-84698368D01*
X158297608Y-84716316D01*
X155044444Y-84716316D01*
X154977405Y-84696631D01*
X154938716Y-84657105D01*
X154310498Y-83631937D01*
X154292227Y-83566565D01*
X154316907Y-78339730D01*
X154336908Y-78272785D01*
X154389928Y-78227280D01*
X154440906Y-78216316D01*
X158871000Y-78216316D01*
X158938039Y-78236001D01*
G37*
%TD.AperFunction*%
%TD*%
%TA.AperFunction,Conductor*%
%TO.N,GND*%
G36*
X121993039Y-94006435D02*
G01*
X122038794Y-94059239D01*
X122050000Y-94110750D01*
X122050000Y-101966750D01*
X122050000Y-102112750D01*
X122030315Y-102179789D01*
X121977511Y-102225544D01*
X121926000Y-102236750D01*
X116480000Y-102236750D01*
X116412961Y-102217065D01*
X116367206Y-102164261D01*
X116356000Y-102112750D01*
X116356000Y-101384594D01*
X120800000Y-101384594D01*
X120806401Y-101444122D01*
X120806403Y-101444129D01*
X120856645Y-101578836D01*
X120856649Y-101578843D01*
X120942809Y-101693937D01*
X120942812Y-101693940D01*
X121057906Y-101780100D01*
X121057913Y-101780104D01*
X121192620Y-101830346D01*
X121192627Y-101830348D01*
X121252155Y-101836749D01*
X121252172Y-101836750D01*
X121600000Y-101836750D01*
X121600000Y-100486750D01*
X120800000Y-100486750D01*
X120800000Y-101384594D01*
X116356000Y-101384594D01*
X116356000Y-101236750D01*
X115215000Y-101236750D01*
X115147961Y-101217065D01*
X115102206Y-101164261D01*
X115091000Y-101112750D01*
X115091000Y-100986750D01*
X114965000Y-100986750D01*
X114897961Y-100967065D01*
X114852206Y-100914261D01*
X114841000Y-100862750D01*
X114841000Y-100736750D01*
X115341000Y-100736750D01*
X116356000Y-100736750D01*
X116356000Y-99578922D01*
X116355999Y-99578905D01*
X116349598Y-99519377D01*
X116349596Y-99519370D01*
X116299354Y-99384663D01*
X116299350Y-99384656D01*
X116213190Y-99269562D01*
X116213187Y-99269559D01*
X116134984Y-99211016D01*
X116119149Y-99189862D01*
X116100464Y-99171178D01*
X116098539Y-99162330D01*
X116093113Y-99155082D01*
X116091228Y-99128724D01*
X116085611Y-99102906D01*
X116088774Y-99094422D01*
X116088380Y-99088905D01*
X120800000Y-99088905D01*
X120800000Y-99986750D01*
X121600000Y-99986750D01*
X121600000Y-98636750D01*
X121252155Y-98636750D01*
X121192627Y-98643151D01*
X121192620Y-98643153D01*
X121057913Y-98693395D01*
X121057906Y-98693399D01*
X120942812Y-98779559D01*
X120942809Y-98779562D01*
X120856649Y-98894656D01*
X120856645Y-98894663D01*
X120806403Y-99029370D01*
X120806401Y-99029377D01*
X120800000Y-99088905D01*
X116088380Y-99088905D01*
X116088129Y-99085391D01*
X116100793Y-99062199D01*
X116110027Y-99037441D01*
X116119468Y-99027999D01*
X116121615Y-99024068D01*
X116134983Y-99012484D01*
X116169913Y-98986335D01*
X116169914Y-98986334D01*
X116213190Y-98953936D01*
X116299350Y-98838843D01*
X116299354Y-98838836D01*
X116349596Y-98704129D01*
X116349598Y-98704122D01*
X116355999Y-98644594D01*
X116356000Y-98644577D01*
X116356000Y-97634594D01*
X120800000Y-97634594D01*
X120806401Y-97694122D01*
X120806403Y-97694129D01*
X120856645Y-97828836D01*
X120856649Y-97828843D01*
X120942809Y-97943937D01*
X120942812Y-97943940D01*
X121057906Y-98030100D01*
X121057913Y-98030104D01*
X121192620Y-98080346D01*
X121192627Y-98080348D01*
X121252155Y-98086749D01*
X121252172Y-98086750D01*
X121600000Y-98086750D01*
X121600000Y-96736750D01*
X120800000Y-96736750D01*
X120800000Y-97634594D01*
X116356000Y-97634594D01*
X116356000Y-97486750D01*
X115341000Y-97486750D01*
X115341000Y-100736750D01*
X114841000Y-100736750D01*
X114841000Y-96986750D01*
X115341000Y-96986750D01*
X116356000Y-96986750D01*
X116356000Y-95828922D01*
X116355999Y-95828905D01*
X116349598Y-95769377D01*
X116349596Y-95769370D01*
X116299354Y-95634663D01*
X116299350Y-95634656D01*
X116213190Y-95519562D01*
X116213187Y-95519559D01*
X116100072Y-95434880D01*
X116100054Y-95434868D01*
X116098089Y-95433397D01*
X116098086Y-95433395D01*
X115963379Y-95383153D01*
X115963372Y-95383151D01*
X115903844Y-95376750D01*
X115341000Y-95376750D01*
X115341000Y-96986750D01*
X114841000Y-96986750D01*
X114841000Y-95376750D01*
X114524000Y-95376750D01*
X114519074Y-95375303D01*
X114514049Y-95376350D01*
X114485888Y-95365559D01*
X114456961Y-95357065D01*
X114453600Y-95353186D01*
X114448805Y-95351349D01*
X114439662Y-95338905D01*
X120800000Y-95338905D01*
X120800000Y-96236750D01*
X121600000Y-96236750D01*
X121600000Y-94886750D01*
X121252155Y-94886750D01*
X121192627Y-94893151D01*
X121192620Y-94893153D01*
X121057913Y-94943395D01*
X121057906Y-94943399D01*
X120942812Y-95029559D01*
X120942809Y-95029562D01*
X120856649Y-95144656D01*
X120856645Y-95144663D01*
X120806403Y-95279370D01*
X120806401Y-95279377D01*
X120800000Y-95338905D01*
X114439662Y-95338905D01*
X114430948Y-95327044D01*
X114411206Y-95304261D01*
X114409652Y-95298060D01*
X114407436Y-95295043D01*
X114403995Y-95275475D01*
X114400242Y-95260490D01*
X114400000Y-95256620D01*
X114400000Y-94986750D01*
X114887500Y-94986750D01*
X115215634Y-94986750D01*
X115215649Y-94986749D01*
X115252489Y-94983850D01*
X115252495Y-94983849D01*
X115410193Y-94938033D01*
X115410196Y-94938032D01*
X115551552Y-94854435D01*
X115551561Y-94854428D01*
X115667678Y-94738311D01*
X115667685Y-94738302D01*
X115751281Y-94596948D01*
X115797100Y-94439236D01*
X115797295Y-94436751D01*
X115797295Y-94436750D01*
X114887500Y-94436750D01*
X114887500Y-94986750D01*
X114400000Y-94986750D01*
X114400000Y-94268180D01*
X114407185Y-94243711D01*
X114459989Y-94197956D01*
X114511500Y-94186750D01*
X114637500Y-94186750D01*
X114637500Y-94161250D01*
X114647190Y-94128247D01*
X114656591Y-94095144D01*
X114657022Y-94094762D01*
X114657185Y-94094211D01*
X114683151Y-94071711D01*
X114708984Y-94048920D01*
X114709554Y-94048832D01*
X114709989Y-94048456D01*
X114761500Y-94037250D01*
X115215686Y-94037250D01*
X115215694Y-94037250D01*
X115252569Y-94034348D01*
X115252571Y-94034347D01*
X115252573Y-94034347D01*
X115397733Y-93992174D01*
X115432328Y-93987250D01*
X115788197Y-93987250D01*
X115805843Y-93988512D01*
X115816214Y-93990003D01*
X115924000Y-94005500D01*
X115924003Y-94005500D01*
X118375990Y-94005500D01*
X118376000Y-94005500D01*
X118483456Y-93993947D01*
X118503512Y-93989584D01*
X118529871Y-93986750D01*
X121926000Y-93986750D01*
X121993039Y-94006435D01*
G37*
%TD.AperFunction*%
%TD*%
%TA.AperFunction,Conductor*%
%TO.N,+3.3V*%
G36*
X130943039Y-88495877D02*
G01*
X130988794Y-88548681D01*
X131000000Y-88600192D01*
X131000000Y-102162750D01*
X130980315Y-102229789D01*
X130927511Y-102275544D01*
X130876000Y-102286750D01*
X124982865Y-102286750D01*
X124915826Y-102267065D01*
X124870071Y-102214261D01*
X124858867Y-102161993D01*
X124859072Y-102128304D01*
X124860301Y-101927052D01*
X124880395Y-101860137D01*
X124896619Y-101840130D01*
X124899999Y-101836750D01*
X125400000Y-101836750D01*
X125747828Y-101836750D01*
X125747844Y-101836749D01*
X125807372Y-101830348D01*
X125807379Y-101830346D01*
X125942086Y-101780104D01*
X125942093Y-101780100D01*
X126057187Y-101693940D01*
X126057190Y-101693937D01*
X126143350Y-101578843D01*
X126143354Y-101578836D01*
X126193596Y-101444129D01*
X126193598Y-101444122D01*
X126199999Y-101384594D01*
X126200000Y-101384577D01*
X126200000Y-100486750D01*
X125400000Y-100486750D01*
X125400000Y-101836750D01*
X124899999Y-101836750D01*
X124900000Y-101836749D01*
X124900000Y-99986750D01*
X125400000Y-99986750D01*
X126200000Y-99986750D01*
X126200000Y-99088922D01*
X126199999Y-99088905D01*
X126193598Y-99029377D01*
X126193596Y-99029370D01*
X126143354Y-98894663D01*
X126143350Y-98894656D01*
X126057190Y-98779562D01*
X126057187Y-98779559D01*
X125942093Y-98693399D01*
X125942086Y-98693395D01*
X125807379Y-98643153D01*
X125807372Y-98643151D01*
X125747844Y-98636750D01*
X125400000Y-98636750D01*
X125400000Y-99986750D01*
X124900000Y-99986750D01*
X124900000Y-98622493D01*
X124883663Y-98592575D01*
X124880831Y-98565460D01*
X124881197Y-98505360D01*
X124883343Y-98154010D01*
X124900000Y-98098541D01*
X124900000Y-98086750D01*
X125400000Y-98086750D01*
X125747828Y-98086750D01*
X125747844Y-98086749D01*
X125807372Y-98080348D01*
X125807379Y-98080346D01*
X125942086Y-98030104D01*
X125942093Y-98030100D01*
X126057187Y-97943940D01*
X126057190Y-97943937D01*
X126143350Y-97828843D01*
X126143354Y-97828836D01*
X126193596Y-97694129D01*
X126193598Y-97694122D01*
X126199999Y-97634594D01*
X126200000Y-97634577D01*
X126200000Y-96736750D01*
X125400000Y-96736750D01*
X125400000Y-98086750D01*
X124900000Y-98086750D01*
X124900000Y-96236750D01*
X125400000Y-96236750D01*
X126200000Y-96236750D01*
X126200000Y-95338922D01*
X126199999Y-95338905D01*
X126193598Y-95279377D01*
X126193596Y-95279370D01*
X126143354Y-95144663D01*
X126143350Y-95144656D01*
X126057190Y-95029562D01*
X126057187Y-95029559D01*
X125942093Y-94943399D01*
X125942086Y-94943395D01*
X125807379Y-94893153D01*
X125807372Y-94893151D01*
X125747844Y-94886750D01*
X125400000Y-94886750D01*
X125400000Y-96236750D01*
X124900000Y-96236750D01*
X124900000Y-95426583D01*
X124908040Y-94109991D01*
X124928134Y-94043075D01*
X124981216Y-93997643D01*
X125032038Y-93986750D01*
X125700000Y-93986750D01*
X125700000Y-91110750D01*
X125719685Y-91043711D01*
X125772489Y-90997956D01*
X125824000Y-90986750D01*
X127500000Y-90986750D01*
X128000000Y-90986750D01*
X129847828Y-90986750D01*
X129847844Y-90986749D01*
X129907372Y-90980348D01*
X129907379Y-90980346D01*
X130042086Y-90930104D01*
X130042093Y-90930100D01*
X130157187Y-90843940D01*
X130157190Y-90843937D01*
X130243350Y-90728843D01*
X130243354Y-90728836D01*
X130293596Y-90594129D01*
X130293598Y-90594122D01*
X130299999Y-90534594D01*
X130300000Y-90534577D01*
X130300000Y-88986750D01*
X128000000Y-88986750D01*
X128000000Y-90986750D01*
X127500000Y-90986750D01*
X127500000Y-88860750D01*
X127519685Y-88793711D01*
X127572489Y-88747956D01*
X127624000Y-88736750D01*
X127750000Y-88736750D01*
X127750000Y-88610750D01*
X127769685Y-88543711D01*
X127822489Y-88497956D01*
X127874000Y-88486750D01*
X130321417Y-88486750D01*
X130335562Y-88479026D01*
X130361920Y-88476192D01*
X130876000Y-88476192D01*
X130943039Y-88495877D01*
G37*
%TD.AperFunction*%
%TD*%
M02*
