%TF.GenerationSoftware,KiCad,Pcbnew,9.0.5*%
%TF.CreationDate,2026-07-08T16:26:50-06:00*%
%TF.ProjectId,BMS Carrier Board,424d5320-4361-4727-9269-657220426f61,rev?*%
%TF.SameCoordinates,Original*%
%TF.FileFunction,Legend,Bot*%
%TF.FilePolarity,Positive*%
%FSLAX46Y46*%
G04 Gerber Fmt 4.6, Leading zero omitted, Abs format (unit mm)*
G04 Created by KiCad (PCBNEW 9.0.5) date 2026-07-08 16:26:50*
%MOMM*%
%LPD*%
G01*
G04 APERTURE LIST*
%ADD10C,0.150000*%
%ADD11R,1.750000X1.750000*%
%ADD12C,1.750000*%
%ADD13C,1.734000*%
%ADD14C,1.219200*%
%ADD15C,1.320800*%
G04 APERTURE END LIST*
D10*
X71163220Y-67319819D02*
X71163220Y-66319819D01*
X71163220Y-66319819D02*
X70925125Y-66319819D01*
X70925125Y-66319819D02*
X70782268Y-66367438D01*
X70782268Y-66367438D02*
X70687030Y-66462676D01*
X70687030Y-66462676D02*
X70639411Y-66557914D01*
X70639411Y-66557914D02*
X70591792Y-66748390D01*
X70591792Y-66748390D02*
X70591792Y-66891247D01*
X70591792Y-66891247D02*
X70639411Y-67081723D01*
X70639411Y-67081723D02*
X70687030Y-67176961D01*
X70687030Y-67176961D02*
X70782268Y-67272200D01*
X70782268Y-67272200D02*
X70925125Y-67319819D01*
X70925125Y-67319819D02*
X71163220Y-67319819D01*
X69734649Y-67319819D02*
X69734649Y-66796009D01*
X69734649Y-66796009D02*
X69782268Y-66700771D01*
X69782268Y-66700771D02*
X69877506Y-66653152D01*
X69877506Y-66653152D02*
X70067982Y-66653152D01*
X70067982Y-66653152D02*
X70163220Y-66700771D01*
X69734649Y-67272200D02*
X69829887Y-67319819D01*
X69829887Y-67319819D02*
X70067982Y-67319819D01*
X70067982Y-67319819D02*
X70163220Y-67272200D01*
X70163220Y-67272200D02*
X70210839Y-67176961D01*
X70210839Y-67176961D02*
X70210839Y-67081723D01*
X70210839Y-67081723D02*
X70163220Y-66986485D01*
X70163220Y-66986485D02*
X70067982Y-66938866D01*
X70067982Y-66938866D02*
X69829887Y-66938866D01*
X69829887Y-66938866D02*
X69734649Y-66891247D01*
X69353696Y-66653152D02*
X69115601Y-67319819D01*
X69115601Y-67319819D02*
X68877506Y-66653152D01*
X68496553Y-67319819D02*
X68496553Y-66653152D01*
X68496553Y-66319819D02*
X68544172Y-66367438D01*
X68544172Y-66367438D02*
X68496553Y-66415057D01*
X68496553Y-66415057D02*
X68448934Y-66367438D01*
X68448934Y-66367438D02*
X68496553Y-66319819D01*
X68496553Y-66319819D02*
X68496553Y-66415057D01*
X67591792Y-67319819D02*
X67591792Y-66319819D01*
X67591792Y-67272200D02*
X67687030Y-67319819D01*
X67687030Y-67319819D02*
X67877506Y-67319819D01*
X67877506Y-67319819D02*
X67972744Y-67272200D01*
X67972744Y-67272200D02*
X68020363Y-67224580D01*
X68020363Y-67224580D02*
X68067982Y-67129342D01*
X68067982Y-67129342D02*
X68067982Y-66843628D01*
X68067982Y-66843628D02*
X68020363Y-66748390D01*
X68020363Y-66748390D02*
X67972744Y-66700771D01*
X67972744Y-66700771D02*
X67877506Y-66653152D01*
X67877506Y-66653152D02*
X67687030Y-66653152D01*
X67687030Y-66653152D02*
X67591792Y-66700771D01*
X66401315Y-67272200D02*
X66258458Y-67319819D01*
X66258458Y-67319819D02*
X66020363Y-67319819D01*
X66020363Y-67319819D02*
X65925125Y-67272200D01*
X65925125Y-67272200D02*
X65877506Y-67224580D01*
X65877506Y-67224580D02*
X65829887Y-67129342D01*
X65829887Y-67129342D02*
X65829887Y-67034104D01*
X65829887Y-67034104D02*
X65877506Y-66938866D01*
X65877506Y-66938866D02*
X65925125Y-66891247D01*
X65925125Y-66891247D02*
X66020363Y-66843628D01*
X66020363Y-66843628D02*
X66210839Y-66796009D01*
X66210839Y-66796009D02*
X66306077Y-66748390D01*
X66306077Y-66748390D02*
X66353696Y-66700771D01*
X66353696Y-66700771D02*
X66401315Y-66605533D01*
X66401315Y-66605533D02*
X66401315Y-66510295D01*
X66401315Y-66510295D02*
X66353696Y-66415057D01*
X66353696Y-66415057D02*
X66306077Y-66367438D01*
X66306077Y-66367438D02*
X66210839Y-66319819D01*
X66210839Y-66319819D02*
X65972744Y-66319819D01*
X65972744Y-66319819D02*
X65829887Y-66367438D01*
X65544172Y-66653152D02*
X65163220Y-66653152D01*
X65401315Y-66319819D02*
X65401315Y-67176961D01*
X65401315Y-67176961D02*
X65353696Y-67272200D01*
X65353696Y-67272200D02*
X65258458Y-67319819D01*
X65258458Y-67319819D02*
X65163220Y-67319819D01*
X64687029Y-67319819D02*
X64782267Y-67272200D01*
X64782267Y-67272200D02*
X64829886Y-67224580D01*
X64829886Y-67224580D02*
X64877505Y-67129342D01*
X64877505Y-67129342D02*
X64877505Y-66843628D01*
X64877505Y-66843628D02*
X64829886Y-66748390D01*
X64829886Y-66748390D02*
X64782267Y-66700771D01*
X64782267Y-66700771D02*
X64687029Y-66653152D01*
X64687029Y-66653152D02*
X64544172Y-66653152D01*
X64544172Y-66653152D02*
X64448934Y-66700771D01*
X64448934Y-66700771D02*
X64401315Y-66748390D01*
X64401315Y-66748390D02*
X64353696Y-66843628D01*
X64353696Y-66843628D02*
X64353696Y-67129342D01*
X64353696Y-67129342D02*
X64401315Y-67224580D01*
X64401315Y-67224580D02*
X64448934Y-67272200D01*
X64448934Y-67272200D02*
X64544172Y-67319819D01*
X64544172Y-67319819D02*
X64687029Y-67319819D01*
X63925124Y-67319819D02*
X63925124Y-66319819D01*
X63925124Y-66700771D02*
X63829886Y-66653152D01*
X63829886Y-66653152D02*
X63639410Y-66653152D01*
X63639410Y-66653152D02*
X63544172Y-66700771D01*
X63544172Y-66700771D02*
X63496553Y-66748390D01*
X63496553Y-66748390D02*
X63448934Y-66843628D01*
X63448934Y-66843628D02*
X63448934Y-67129342D01*
X63448934Y-67129342D02*
X63496553Y-67224580D01*
X63496553Y-67224580D02*
X63544172Y-67272200D01*
X63544172Y-67272200D02*
X63639410Y-67319819D01*
X63639410Y-67319819D02*
X63829886Y-67319819D01*
X63829886Y-67319819D02*
X63925124Y-67272200D01*
X63020362Y-67319819D02*
X63020362Y-66319819D01*
X63020362Y-66700771D02*
X62925124Y-66653152D01*
X62925124Y-66653152D02*
X62734648Y-66653152D01*
X62734648Y-66653152D02*
X62639410Y-66700771D01*
X62639410Y-66700771D02*
X62591791Y-66748390D01*
X62591791Y-66748390D02*
X62544172Y-66843628D01*
X62544172Y-66843628D02*
X62544172Y-67129342D01*
X62544172Y-67129342D02*
X62591791Y-67224580D01*
X62591791Y-67224580D02*
X62639410Y-67272200D01*
X62639410Y-67272200D02*
X62734648Y-67319819D01*
X62734648Y-67319819D02*
X62925124Y-67319819D01*
X62925124Y-67319819D02*
X63020362Y-67272200D01*
X61734648Y-67272200D02*
X61829886Y-67319819D01*
X61829886Y-67319819D02*
X62020362Y-67319819D01*
X62020362Y-67319819D02*
X62115600Y-67272200D01*
X62115600Y-67272200D02*
X62163219Y-67176961D01*
X62163219Y-67176961D02*
X62163219Y-66796009D01*
X62163219Y-66796009D02*
X62115600Y-66700771D01*
X62115600Y-66700771D02*
X62020362Y-66653152D01*
X62020362Y-66653152D02*
X61829886Y-66653152D01*
X61829886Y-66653152D02*
X61734648Y-66700771D01*
X61734648Y-66700771D02*
X61687029Y-66796009D01*
X61687029Y-66796009D02*
X61687029Y-66891247D01*
X61687029Y-66891247D02*
X62163219Y-66986485D01*
%LPC*%
D11*
%TO.C,J8*%
X97000000Y-35700000D03*
D12*
X97000000Y-38200000D03*
X97000000Y-40700000D03*
X97000000Y-43200000D03*
X97000000Y-45700000D03*
X97000000Y-48200000D03*
X97000000Y-50700000D03*
X97000000Y-53200000D03*
X97000000Y-55700000D03*
%TD*%
D13*
%TO.C,MCB1*%
X89292500Y-34450000D03*
X86752500Y-34450000D03*
X84212500Y-34450000D03*
X81672500Y-34450000D03*
X79132500Y-34450000D03*
X76592500Y-34450000D03*
X74052500Y-34450000D03*
X71512500Y-34450000D03*
X68972500Y-34450000D03*
X66432500Y-34450000D03*
X63892500Y-34450000D03*
X61352500Y-34450000D03*
X58812500Y-34450000D03*
X56272500Y-34450000D03*
X53732500Y-34450000D03*
X51192500Y-34450000D03*
X48652500Y-34450000D03*
X46112500Y-34450000D03*
X43572500Y-34450000D03*
X41032500Y-34450000D03*
X86752500Y-72550000D03*
X84212500Y-72550000D03*
X81672500Y-72550000D03*
X79132500Y-72550000D03*
X76592500Y-72550000D03*
X74052500Y-72550000D03*
X71512500Y-72550000D03*
X68972500Y-72550000D03*
X66432500Y-72550000D03*
X63892500Y-72550000D03*
X61352500Y-72550000D03*
X58812500Y-72550000D03*
X56272500Y-72550000D03*
X53732500Y-72550000D03*
X51192500Y-72550000D03*
X48652500Y-72550000D03*
X46112500Y-72550000D03*
X43572500Y-72550000D03*
X41032500Y-72550000D03*
X38492500Y-72550000D03*
%TD*%
D11*
%TO.C,J1*%
X73500000Y-27200000D03*
D12*
X76000000Y-27200000D03*
X78500000Y-27200000D03*
X81000000Y-27200000D03*
%TD*%
D11*
%TO.C,J6*%
X31225000Y-59200000D03*
D12*
X31225000Y-56700000D03*
%TD*%
D11*
%TO.C,J4*%
X31225000Y-50700000D03*
D12*
X31225000Y-48200000D03*
X31225000Y-45700000D03*
X31225000Y-43200000D03*
X31225000Y-40700000D03*
X31225000Y-38200000D03*
X31225000Y-35700000D03*
%TD*%
D14*
%TO.C,R1*%
X67500000Y-40200000D03*
X70000000Y-37700000D03*
X72500000Y-40200000D03*
%TD*%
D11*
%TO.C,J10*%
X97000000Y-27200000D03*
D12*
X97000000Y-29700000D03*
%TD*%
D11*
%TO.C,J5*%
X97000000Y-61700000D03*
D12*
X97000000Y-64200000D03*
%TD*%
D11*
%TO.C,J3*%
X31225000Y-29700000D03*
D12*
X31225000Y-27200000D03*
%TD*%
D15*
%TO.C,J2*%
X64046200Y-29206600D03*
X64046200Y-27200000D03*
X62039600Y-29206600D03*
X62039600Y-27200000D03*
X60033000Y-29206600D03*
X60033000Y-27200000D03*
X58026400Y-29206600D03*
X58026400Y-27200000D03*
X56019800Y-29206600D03*
X56019800Y-27200000D03*
X54013200Y-29206600D03*
X54013200Y-27200000D03*
X52006600Y-29206600D03*
X52006600Y-27200000D03*
X50000000Y-29206600D03*
X50000000Y-27200000D03*
%TD*%
D11*
%TO.C,J7*%
X31250000Y-67700000D03*
D12*
X31250000Y-65200000D03*
%TD*%
%LPD*%
M02*
