%TF.GenerationSoftware,KiCad,Pcbnew,9.0.5*%
%TF.CreationDate,2026-07-08T16:26:50-06:00*%
%TF.ProjectId,BMS Carrier Board,424d5320-4361-4727-9269-657220426f61,rev?*%
%TF.SameCoordinates,Original*%
%TF.FileFunction,Paste,Top*%
%TF.FilePolarity,Positive*%
%FSLAX46Y46*%
G04 Gerber Fmt 4.6, Leading zero omitted, Abs format (unit mm)*
G04 Created by KiCad (PCBNEW 9.0.5) date 2026-07-08 16:26:50*
%MOMM*%
%LPD*%
G01*
G04 APERTURE LIST*
G04 Aperture macros list*
%AMRoundRect*
0 Rectangle with rounded corners*
0 $1 Rounding radius*
0 $2 $3 $4 $5 $6 $7 $8 $9 X,Y pos of 4 corners*
0 Add a 4 corners polygon primitive as box body*
4,1,4,$2,$3,$4,$5,$6,$7,$8,$9,$2,$3,0*
0 Add four circle primitives for the rounded corners*
1,1,$1+$1,$2,$3*
1,1,$1+$1,$4,$5*
1,1,$1+$1,$6,$7*
1,1,$1+$1,$8,$9*
0 Add four rect primitives between the rounded corners*
20,1,$1+$1,$2,$3,$4,$5,0*
20,1,$1+$1,$4,$5,$6,$7,0*
20,1,$1+$1,$6,$7,$8,$9,0*
20,1,$1+$1,$8,$9,$2,$3,0*%
G04 Aperture macros list end*
%ADD10R,4.100000X3.500000*%
%ADD11RoundRect,0.135000X-0.135000X-0.185000X0.135000X-0.185000X0.135000X0.185000X-0.135000X0.185000X0*%
%ADD12R,1.530000X2.720000*%
%ADD13R,1.100000X2.200000*%
%ADD14R,1.270000X1.778000*%
%ADD15RoundRect,0.135000X0.135000X0.185000X-0.135000X0.185000X-0.135000X-0.185000X0.135000X-0.185000X0*%
%ADD16RoundRect,0.225000X0.250000X-0.225000X0.250000X0.225000X-0.250000X0.225000X-0.250000X-0.225000X0*%
%ADD17RoundRect,0.140000X-0.140000X-0.170000X0.140000X-0.170000X0.140000X0.170000X-0.140000X0.170000X0*%
%ADD18RoundRect,0.150000X-0.512500X-0.150000X0.512500X-0.150000X0.512500X0.150000X-0.512500X0.150000X0*%
%ADD19R,1.803400X1.117600*%
%ADD20RoundRect,0.050000X0.285000X0.100000X-0.285000X0.100000X-0.285000X-0.100000X0.285000X-0.100000X0*%
%ADD21RoundRect,0.140000X0.170000X-0.140000X0.170000X0.140000X-0.170000X0.140000X-0.170000X-0.140000X0*%
%ADD22R,1.778000X1.270000*%
%ADD23R,2.800000X1.000000*%
%ADD24R,1.800000X0.600000*%
%ADD25RoundRect,0.218750X-0.218750X-0.256250X0.218750X-0.256250X0.218750X0.256250X-0.218750X0.256250X0*%
G04 APERTURE END LIST*
D10*
%TO.C,L1*%
X53250000Y-53700000D03*
X62750000Y-53700000D03*
%TD*%
D11*
%TO.C,R6*%
X31990000Y-72200000D03*
X33010000Y-72200000D03*
%TD*%
D12*
%TO.C,C1*%
X47409000Y-62200000D03*
X50091000Y-62200000D03*
%TD*%
D13*
%TO.C,C4*%
X60150000Y-65200000D03*
X56850000Y-65200000D03*
%TD*%
D14*
%TO.C,F3*%
X40000000Y-50700000D03*
X42844800Y-50700000D03*
%TD*%
%TO.C,F7*%
X39977600Y-40700000D03*
X42822400Y-40700000D03*
%TD*%
%TO.C,F5*%
X40000000Y-45700000D03*
X42844800Y-45700000D03*
%TD*%
D15*
%TO.C,R33*%
X75838000Y-64688000D03*
X74818000Y-64688000D03*
%TD*%
D16*
%TO.C,C52*%
X68216000Y-66225000D03*
X68216000Y-64675000D03*
%TD*%
D17*
%TO.C,C51*%
X68498000Y-63418000D03*
X69458000Y-63418000D03*
%TD*%
D11*
%TO.C,R34*%
X71008000Y-67482000D03*
X72028000Y-67482000D03*
%TD*%
D15*
%TO.C,R32*%
X75838000Y-65704000D03*
X74818000Y-65704000D03*
%TD*%
D14*
%TO.C,F6*%
X40000000Y-43200000D03*
X42844800Y-43200000D03*
%TD*%
D18*
%TO.C,U1*%
X47362500Y-57250000D03*
X47362500Y-58200000D03*
X47362500Y-59150000D03*
X49637500Y-59150000D03*
X49637500Y-58200000D03*
X49637500Y-57250000D03*
%TD*%
D19*
%TO.C,C3*%
X48500000Y-51851200D03*
X48500000Y-54950000D03*
%TD*%
D20*
%TO.C,U6*%
X71496000Y-66200000D03*
X71496000Y-65700000D03*
X71496000Y-65200000D03*
X71496000Y-64700000D03*
X70016000Y-64700000D03*
X70016000Y-65200000D03*
X70016000Y-65700000D03*
X70016000Y-66200000D03*
%TD*%
D21*
%TO.C,C50*%
X73296000Y-65676000D03*
X73296000Y-64716000D03*
%TD*%
D14*
%TO.C,F2*%
X40000000Y-53200000D03*
X42844800Y-53200000D03*
%TD*%
D22*
%TO.C,F8*%
X90000000Y-42027600D03*
X90000000Y-44872400D03*
%TD*%
D23*
%TO.C,J9*%
X95150000Y-68350000D03*
X95150000Y-73050000D03*
D24*
X98350000Y-70075000D03*
X98350000Y-71325000D03*
%TD*%
D14*
%TO.C,F4*%
X40000000Y-48200000D03*
X42844800Y-48200000D03*
%TD*%
%TO.C,F9*%
X40000000Y-61950000D03*
X42844800Y-61950000D03*
%TD*%
D13*
%TO.C,C5*%
X60150000Y-61450000D03*
X56850000Y-61450000D03*
%TD*%
D12*
%TO.C,C2*%
X47409000Y-65950000D03*
X50091000Y-65950000D03*
%TD*%
D25*
%TO.C,D1*%
X32250000Y-73700000D03*
X33825000Y-73700000D03*
%TD*%
D14*
%TO.C,F1*%
X40000000Y-55700000D03*
X42844800Y-55700000D03*
%TD*%
M02*
