%TF.GenerationSoftware,KiCad,Pcbnew,9.0.5*%
%TF.CreationDate,2026-07-08T16:26:50-06:00*%
%TF.ProjectId,BMS Carrier Board,424d5320-4361-4727-9269-657220426f61,rev?*%
%TF.SameCoordinates,Original*%
%TF.FileFunction,Copper,L1,Top*%
%TF.FilePolarity,Positive*%
%FSLAX46Y46*%
G04 Gerber Fmt 4.6, Leading zero omitted, Abs format (unit mm)*
G04 Created by KiCad (PCBNEW 9.0.5) date 2026-07-08 16:26:50*
%MOMM*%
%LPD*%
G01*
G04 APERTURE LIST*
G04 Aperture macros list*
%AMRoundRect*
0 Rectangle with rounded corners*
0 $1 Rounding radius*
0 $2 $3 $4 $5 $6 $7 $8 $9 X,Y pos of 4 corners*
0 Add a 4 corners polygon primitive as box body*
4,1,4,$2,$3,$4,$5,$6,$7,$8,$9,$2,$3,0*
0 Add four circle primitives for the rounded corners*
1,1,$1+$1,$2,$3*
1,1,$1+$1,$4,$5*
1,1,$1+$1,$6,$7*
1,1,$1+$1,$8,$9*
0 Add four rect primitives between the rounded corners*
20,1,$1+$1,$2,$3,$4,$5,0*
20,1,$1+$1,$4,$5,$6,$7,0*
20,1,$1+$1,$6,$7,$8,$9,0*
20,1,$1+$1,$8,$9,$2,$3,0*%
G04 Aperture macros list end*
%TA.AperFunction,SMDPad,CuDef*%
%ADD10R,4.100000X3.500000*%
%TD*%
%TA.AperFunction,SMDPad,CuDef*%
%ADD11RoundRect,0.135000X-0.135000X-0.185000X0.135000X-0.185000X0.135000X0.185000X-0.135000X0.185000X0*%
%TD*%
%TA.AperFunction,SMDPad,CuDef*%
%ADD12R,1.530000X2.720000*%
%TD*%
%TA.AperFunction,SMDPad,CuDef*%
%ADD13R,1.100000X2.200000*%
%TD*%
%TA.AperFunction,SMDPad,CuDef*%
%ADD14R,1.270000X1.778000*%
%TD*%
%TA.AperFunction,SMDPad,CuDef*%
%ADD15RoundRect,0.135000X0.135000X0.185000X-0.135000X0.185000X-0.135000X-0.185000X0.135000X-0.185000X0*%
%TD*%
%TA.AperFunction,SMDPad,CuDef*%
%ADD16RoundRect,0.225000X0.250000X-0.225000X0.250000X0.225000X-0.250000X0.225000X-0.250000X-0.225000X0*%
%TD*%
%TA.AperFunction,SMDPad,CuDef*%
%ADD17RoundRect,0.140000X-0.140000X-0.170000X0.140000X-0.170000X0.140000X0.170000X-0.140000X0.170000X0*%
%TD*%
%TA.AperFunction,ComponentPad*%
%ADD18R,1.750000X1.750000*%
%TD*%
%TA.AperFunction,ComponentPad*%
%ADD19C,1.750000*%
%TD*%
%TA.AperFunction,SMDPad,CuDef*%
%ADD20RoundRect,0.150000X-0.512500X-0.150000X0.512500X-0.150000X0.512500X0.150000X-0.512500X0.150000X0*%
%TD*%
%TA.AperFunction,ComponentPad*%
%ADD21C,1.530000*%
%TD*%
%TA.AperFunction,SMDPad,CuDef*%
%ADD22R,1.803400X1.117600*%
%TD*%
%TA.AperFunction,SMDPad,CuDef*%
%ADD23RoundRect,0.050000X0.285000X0.100000X-0.285000X0.100000X-0.285000X-0.100000X0.285000X-0.100000X0*%
%TD*%
%TA.AperFunction,SMDPad,CuDef*%
%ADD24RoundRect,0.140000X0.170000X-0.140000X0.170000X0.140000X-0.170000X0.140000X-0.170000X-0.140000X0*%
%TD*%
%TA.AperFunction,ComponentPad*%
%ADD25C,1.219200*%
%TD*%
%TA.AperFunction,SMDPad,CuDef*%
%ADD26R,1.778000X1.270000*%
%TD*%
%TA.AperFunction,SMDPad,CuDef*%
%ADD27R,2.800000X1.000000*%
%TD*%
%TA.AperFunction,SMDPad,CuDef*%
%ADD28R,1.800000X0.600000*%
%TD*%
%TA.AperFunction,SMDPad,CuDef*%
%ADD29RoundRect,0.218750X-0.218750X-0.256250X0.218750X-0.256250X0.218750X0.256250X-0.218750X0.256250X0*%
%TD*%
%TA.AperFunction,ComponentPad*%
%ADD30C,1.320800*%
%TD*%
%TA.AperFunction,ViaPad*%
%ADD31C,0.600000*%
%TD*%
%TA.AperFunction,ViaPad*%
%ADD32C,0.700000*%
%TD*%
%TA.AperFunction,Conductor*%
%ADD33C,1.000000*%
%TD*%
%TA.AperFunction,Conductor*%
%ADD34C,0.300000*%
%TD*%
%TA.AperFunction,Conductor*%
%ADD35C,0.200000*%
%TD*%
%TA.AperFunction,Conductor*%
%ADD36C,0.500000*%
%TD*%
G04 APERTURE END LIST*
D10*
%TO.P,L1,1,1*%
%TO.N,/SW*%
X53250000Y-53700000D03*
%TO.P,L1,2,2*%
%TO.N,/3.3V_Battery*%
X62750000Y-53700000D03*
%TD*%
D11*
%TO.P,R6,1*%
%TO.N,/PWR_LED_K*%
X31990000Y-72200000D03*
%TO.P,R6,2*%
%TO.N,GND*%
X33010000Y-72200000D03*
%TD*%
D12*
%TO.P,C1,1*%
%TO.N,/BUCK_PWR*%
X47409000Y-62200000D03*
%TO.P,C1,2*%
%TO.N,GND*%
X50091000Y-62200000D03*
%TD*%
D13*
%TO.P,C4,1*%
%TO.N,/3.3V_Battery*%
X60150000Y-65200000D03*
%TO.P,C4,2*%
%TO.N,GND*%
X56850000Y-65200000D03*
%TD*%
D14*
%TO.P,F3,1,1*%
%TO.N,Net-(F3-Pad1)*%
X40000000Y-50700000D03*
%TO.P,F3,2,2*%
%TO.N,Net-(F3-Pad2)*%
X42844800Y-50700000D03*
%TD*%
%TO.P,F7,1,1*%
%TO.N,Net-(F7-Pad1)*%
X39977600Y-40700000D03*
%TO.P,F7,2,2*%
%TO.N,Net-(F7-Pad2)*%
X42822400Y-40700000D03*
%TD*%
%TO.P,F5,1,1*%
%TO.N,Net-(F5-Pad1)*%
X40000000Y-45700000D03*
%TO.P,F5,2,2*%
%TO.N,Net-(F5-Pad2)*%
X42844800Y-45700000D03*
%TD*%
D15*
%TO.P,R33,1*%
%TO.N,GND*%
X75838000Y-64688000D03*
%TO.P,R33,2*%
%TO.N,Net-(U6-PR1)*%
X74818000Y-64688000D03*
%TD*%
D16*
%TO.P,C52,1*%
%TO.N,+3.3V*%
X68216000Y-66225000D03*
%TO.P,C52,2*%
%TO.N,GND*%
X68216000Y-64675000D03*
%TD*%
D17*
%TO.P,C51,1*%
%TO.N,/3.3V_Battery*%
X68498000Y-63418000D03*
%TO.P,C51,2*%
%TO.N,GND*%
X69458000Y-63418000D03*
%TD*%
D11*
%TO.P,R34,1*%
%TO.N,Net-(U6-ST)*%
X71008000Y-67482000D03*
%TO.P,R34,2*%
%TO.N,+3.3V*%
X72028000Y-67482000D03*
%TD*%
D15*
%TO.P,R32,1*%
%TO.N,Net-(U6-PR1)*%
X75838000Y-65704000D03*
%TO.P,R32,2*%
%TO.N,/3.3V_BMS*%
X74818000Y-65704000D03*
%TD*%
D14*
%TO.P,F6,1,1*%
%TO.N,Net-(F6-Pad1)*%
X40000000Y-43200000D03*
%TO.P,F6,2,2*%
%TO.N,Net-(F6-Pad2)*%
X42844800Y-43200000D03*
%TD*%
D18*
%TO.P,J8,1,1*%
%TO.N,unconnected-(J8-Pad1)*%
X97000000Y-35700000D03*
D19*
%TO.P,J8,2,2*%
%TO.N,unconnected-(J8-Pad2)*%
X97000000Y-38200000D03*
%TO.P,J8,3,3*%
%TO.N,Net-(F7-Pad2)*%
X97000000Y-40700000D03*
%TO.P,J8,4,4*%
%TO.N,Net-(F6-Pad2)*%
X97000000Y-43200000D03*
%TO.P,J8,5,5*%
%TO.N,Net-(F5-Pad2)*%
X97000000Y-45700000D03*
%TO.P,J8,6,6*%
%TO.N,Net-(F4-Pad2)*%
X97000000Y-48200000D03*
%TO.P,J8,7,7*%
%TO.N,Net-(F3-Pad2)*%
X97000000Y-50700000D03*
%TO.P,J8,8,8*%
%TO.N,Net-(F2-Pad2)*%
X97000000Y-53200000D03*
%TO.P,J8,9,9*%
%TO.N,Net-(F1-Pad2)*%
X97000000Y-55700000D03*
%TD*%
D20*
%TO.P,U1,1,FB*%
%TO.N,/3.3V_Battery*%
X47362500Y-57250000D03*
%TO.P,U1,2,EN*%
%TO.N,/BUCK_PWR*%
X47362500Y-58200000D03*
%TO.P,U1,3,IN*%
X47362500Y-59150000D03*
%TO.P,U1,4,GND*%
%TO.N,GND*%
X49637500Y-59150000D03*
%TO.P,U1,5,SW*%
%TO.N,/SW*%
X49637500Y-58200000D03*
%TO.P,U1,6,BST*%
%TO.N,/BST*%
X49637500Y-57250000D03*
%TD*%
D21*
%TO.P,MCB1,1,3.3V_Battery*%
%TO.N,+3.3V*%
X89292500Y-34450000D03*
%TO.P,MCB1,2,GND*%
%TO.N,GND*%
X86752500Y-34450000D03*
%TO.P,MCB1,3,+3.3V*%
%TO.N,Net-(MCB1-+3.3V)*%
X84212500Y-34450000D03*
%TO.P,MCB1,4,GND*%
%TO.N,GND*%
X81672500Y-34450000D03*
%TO.P,MCB1,5,PA8*%
%TO.N,unconnected-(MCB1-PA8-Pad5)*%
X79132500Y-34450000D03*
%TO.P,MCB1,6,PA9*%
%TO.N,Net-(MCB1-PA9)*%
X76592500Y-34450000D03*
%TO.P,MCB1,7,PA10*%
%TO.N,Net-(MCB1-PA10)*%
X74052500Y-34450000D03*
%TO.P,MCB1,8,PA15*%
%TO.N,Net-(MCB1-PA15)*%
X71512500Y-34450000D03*
%TO.P,MCB1,9,PC10*%
%TO.N,Net-(MCB1-PC10)*%
X68972500Y-34450000D03*
%TO.P,MCB1,10,PC11*%
%TO.N,Net-(MCB1-PC11)*%
X66432500Y-34450000D03*
%TO.P,MCB1,11,PC12*%
%TO.N,Net-(MCB1-PC12)*%
X63892500Y-34450000D03*
%TO.P,MCB1,12,PD2*%
%TO.N,Net-(MCB1-PD2)*%
X61352500Y-34450000D03*
%TO.P,MCB1,13,PB4*%
%TO.N,Net-(MCB1-PB4)*%
X58812500Y-34450000D03*
%TO.P,MCB1,14,PB5*%
%TO.N,Net-(MCB1-PB5)*%
X56272500Y-34450000D03*
%TO.P,MCB1,15,PB6*%
%TO.N,Net-(MCB1-PB6)*%
X53732500Y-34450000D03*
%TO.P,MCB1,16,PB7*%
%TO.N,Net-(MCB1-PB7)*%
X51192500Y-34450000D03*
%TO.P,MCB1,17,PB8*%
%TO.N,Net-(MCB1-PB8)*%
X48652500Y-34450000D03*
%TO.P,MCB1,18,PB9*%
%TO.N,Net-(MCB1-PB9)*%
X46112500Y-34450000D03*
%TO.P,MCB1,19,PC13*%
%TO.N,unconnected-(MCB1-PC13-Pad19)*%
X43572500Y-34450000D03*
%TO.P,MCB1,20,PC14*%
%TO.N,unconnected-(MCB1-PC14-Pad20)*%
X41032500Y-34450000D03*
%TO.P,MCB1,21,PC6*%
%TO.N,unconnected-(MCB1-PC6-Pad21)*%
X86752500Y-72550000D03*
%TO.P,MCB1,22,PC7*%
%TO.N,unconnected-(MCB1-PC7-Pad22)*%
X84212500Y-72550000D03*
%TO.P,MCB1,23,PC8*%
%TO.N,unconnected-(MCB1-PC8-Pad23)*%
X81672500Y-72550000D03*
%TO.P,MCB1,24,PC9*%
%TO.N,unconnected-(MCB1-PC9-Pad24)*%
X79132500Y-72550000D03*
%TO.P,MCB1,25,PB15*%
%TO.N,unconnected-(MCB1-PB15-Pad25)*%
X76592500Y-72550000D03*
%TO.P,MCB1,26,PB14*%
%TO.N,unconnected-(MCB1-PB14-Pad26)*%
X74052500Y-72550000D03*
%TO.P,MCB1,27,PB13*%
%TO.N,unconnected-(MCB1-PB13-Pad27)*%
X71512500Y-72550000D03*
%TO.P,MCB1,28,PB12*%
%TO.N,unconnected-(MCB1-PB12-Pad28)*%
X68972500Y-72550000D03*
%TO.P,MCB1,29,PB10*%
%TO.N,unconnected-(MCB1-PB10-Pad29)*%
X66432500Y-72550000D03*
%TO.P,MCB1,30,PB2*%
%TO.N,unconnected-(MCB1-PB2-Pad30)*%
X63892500Y-72550000D03*
%TO.P,MCB1,31,PB1*%
%TO.N,unconnected-(MCB1-PB1-Pad31)*%
X61352500Y-72550000D03*
%TO.P,MCB1,32,PB0*%
%TO.N,unconnected-(MCB1-PB0-Pad32)*%
X58812500Y-72550000D03*
%TO.P,MCB1,33,PC5*%
%TO.N,unconnected-(MCB1-PC5-Pad33)*%
X56272500Y-72550000D03*
%TO.P,MCB1,34,PA4*%
%TO.N,unconnected-(MCB1-PA4-Pad34)*%
X53732500Y-72550000D03*
%TO.P,MCB1,35,PA1*%
%TO.N,unconnected-(MCB1-PA1-Pad35)*%
X51192500Y-72550000D03*
%TO.P,MCB1,36,PA0*%
%TO.N,unconnected-(MCB1-PA0-Pad36)*%
X48652500Y-72550000D03*
%TO.P,MCB1,37,PC3*%
%TO.N,unconnected-(MCB1-PC3-Pad37)*%
X46112500Y-72550000D03*
%TO.P,MCB1,38,PC2*%
%TO.N,unconnected-(MCB1-PC2-Pad38)*%
X43572500Y-72550000D03*
%TO.P,MCB1,39,PC1*%
%TO.N,unconnected-(MCB1-PC1-Pad39)*%
X41032500Y-72550000D03*
%TO.P,MCB1,40,PC0*%
%TO.N,unconnected-(MCB1-PC0-Pad40)*%
X38492500Y-72550000D03*
%TD*%
D22*
%TO.P,C3,1*%
%TO.N,/SW*%
X48500000Y-51851200D03*
%TO.P,C3,2*%
%TO.N,/BST*%
X48500000Y-54950000D03*
%TD*%
D23*
%TO.P,U6,1,GND*%
%TO.N,GND*%
X71496000Y-66200000D03*
%TO.P,U6,2,VOUT*%
%TO.N,+3.3V*%
X71496000Y-65700000D03*
%TO.P,U6,3,VIN1*%
%TO.N,/3.3V_BMS*%
X71496000Y-65200000D03*
%TO.P,U6,4,PR1*%
%TO.N,Net-(U6-PR1)*%
X71496000Y-64700000D03*
%TO.P,U6,5,MODE*%
%TO.N,/3.3V_BMS*%
X70016000Y-64700000D03*
%TO.P,U6,6,VIN2*%
%TO.N,/3.3V_Battery*%
X70016000Y-65200000D03*
%TO.P,U6,7,VOUT*%
%TO.N,+3.3V*%
X70016000Y-65700000D03*
%TO.P,U6,8,ST*%
%TO.N,Net-(U6-ST)*%
X70016000Y-66200000D03*
%TD*%
D18*
%TO.P,J1,1,1*%
%TO.N,Net-(MCB1-PA10)*%
X73500000Y-27200000D03*
D19*
%TO.P,J1,2,2*%
%TO.N,Net-(MCB1-PA9)*%
X76000000Y-27200000D03*
%TO.P,J1,3,3*%
%TO.N,Net-(F8-Pad1)*%
X78500000Y-27200000D03*
%TO.P,J1,4,4*%
%TO.N,GND*%
X81000000Y-27200000D03*
%TD*%
D24*
%TO.P,C50,1*%
%TO.N,/3.3V_BMS*%
X73296000Y-65676000D03*
%TO.P,C50,2*%
%TO.N,GND*%
X73296000Y-64716000D03*
%TD*%
D14*
%TO.P,F2,1,1*%
%TO.N,Net-(F2-Pad1)*%
X40000000Y-53200000D03*
%TO.P,F2,2,2*%
%TO.N,Net-(F2-Pad2)*%
X42844800Y-53200000D03*
%TD*%
D18*
%TO.P,J6,1,1*%
%TO.N,Net-(F9-Pad1)*%
X31225000Y-59200000D03*
D19*
%TO.P,J6,2,2*%
%TO.N,GND*%
X31225000Y-56700000D03*
%TD*%
D18*
%TO.P,J4,1,1*%
%TO.N,Net-(F1-Pad1)*%
X31225000Y-50700000D03*
D19*
%TO.P,J4,2,2*%
%TO.N,Net-(F2-Pad1)*%
X31225000Y-48200000D03*
%TO.P,J4,3,3*%
%TO.N,Net-(F3-Pad1)*%
X31225000Y-45700000D03*
%TO.P,J4,4,4*%
%TO.N,Net-(F4-Pad1)*%
X31225000Y-43200000D03*
%TO.P,J4,5,5*%
%TO.N,Net-(F5-Pad1)*%
X31225000Y-40700000D03*
%TO.P,J4,6,6*%
%TO.N,Net-(F6-Pad1)*%
X31225000Y-38200000D03*
%TO.P,J4,7,7*%
%TO.N,Net-(F7-Pad1)*%
X31225000Y-35700000D03*
%TD*%
D25*
%TO.P,R1,1,1*%
%TO.N,GND*%
X67500000Y-40200000D03*
%TO.P,R1,2,2*%
%TO.N,Net-(J2-Pad3)*%
X70000000Y-37700000D03*
%TO.P,R1,3,3*%
%TO.N,Net-(MCB1-+3.3V)*%
X72500000Y-40200000D03*
%TD*%
D26*
%TO.P,F8,1,1*%
%TO.N,Net-(F8-Pad1)*%
X90000000Y-42027600D03*
%TO.P,F8,2,2*%
%TO.N,Net-(F8-Pad2)*%
X90000000Y-44872400D03*
%TD*%
D18*
%TO.P,J10,1,1*%
%TO.N,GND*%
X97000000Y-27200000D03*
D19*
%TO.P,J10,2,2*%
%TO.N,Net-(J10-Pad2)*%
X97000000Y-29700000D03*
%TD*%
D27*
%TO.P,J9,*%
%TO.N,*%
X95150000Y-68350000D03*
X95150000Y-73050000D03*
D28*
%TO.P,J9,1,1*%
%TO.N,Net-(J5-Pad1)*%
X98350000Y-70075000D03*
%TO.P,J9,2,2*%
%TO.N,Net-(J5-Pad2)*%
X98350000Y-71325000D03*
%TD*%
D18*
%TO.P,J5,1,1*%
%TO.N,Net-(J5-Pad1)*%
X97000000Y-61700000D03*
D19*
%TO.P,J5,2,2*%
%TO.N,Net-(J5-Pad2)*%
X97000000Y-64200000D03*
%TD*%
D14*
%TO.P,F4,1,1*%
%TO.N,Net-(F4-Pad1)*%
X40000000Y-48200000D03*
%TO.P,F4,2,2*%
%TO.N,Net-(F4-Pad2)*%
X42844800Y-48200000D03*
%TD*%
%TO.P,F9,1,1*%
%TO.N,Net-(F9-Pad1)*%
X40000000Y-61950000D03*
%TO.P,F9,2,2*%
%TO.N,/BUCK_PWR*%
X42844800Y-61950000D03*
%TD*%
D18*
%TO.P,J3,1,1*%
%TO.N,Net-(J10-Pad2)*%
X31225000Y-29700000D03*
D19*
%TO.P,J3,2,2*%
%TO.N,Net-(F1-Pad2)*%
X31225000Y-27200000D03*
%TD*%
D13*
%TO.P,C5,1*%
%TO.N,/3.3V_Battery*%
X60150000Y-61450000D03*
%TO.P,C5,2*%
%TO.N,GND*%
X56850000Y-61450000D03*
%TD*%
D12*
%TO.P,C2,1*%
%TO.N,/BUCK_PWR*%
X47409000Y-65950000D03*
%TO.P,C2,2*%
%TO.N,GND*%
X50091000Y-65950000D03*
%TD*%
D29*
%TO.P,D1,1,K*%
%TO.N,/PWR_LED_K*%
X32250000Y-73700000D03*
%TO.P,D1,2,A*%
%TO.N,+3.3V*%
X33825000Y-73700000D03*
%TD*%
D30*
%TO.P,J2,1,1*%
%TO.N,GND*%
X64046200Y-29206600D03*
%TO.P,J2,2,2*%
%TO.N,Net-(MCB1-+3.3V)*%
X64046200Y-27200000D03*
%TO.P,J2,3,3*%
%TO.N,Net-(J2-Pad3)*%
X62039600Y-29206600D03*
%TO.P,J2,4,4*%
%TO.N,Net-(MCB1-PA15)*%
X62039600Y-27200000D03*
%TO.P,J2,5,5*%
%TO.N,Net-(MCB1-PC10)*%
X60033000Y-29206600D03*
%TO.P,J2,6,6*%
%TO.N,Net-(MCB1-PC11)*%
X60033000Y-27200000D03*
%TO.P,J2,7,7*%
%TO.N,Net-(MCB1-PC12)*%
X58026400Y-29206600D03*
%TO.P,J2,8,8*%
%TO.N,Net-(MCB1-PD2)*%
X58026400Y-27200000D03*
%TO.P,J2,9,9*%
%TO.N,Net-(MCB1-PB4)*%
X56019800Y-29206600D03*
%TO.P,J2,10,10*%
%TO.N,Net-(MCB1-PB5)*%
X56019800Y-27200000D03*
%TO.P,J2,11,11*%
%TO.N,Net-(MCB1-PB6)*%
X54013200Y-29206600D03*
%TO.P,J2,12,12*%
%TO.N,Net-(MCB1-PB7)*%
X54013200Y-27200000D03*
%TO.P,J2,13,13*%
%TO.N,Net-(MCB1-PB8)*%
X52006600Y-29206600D03*
%TO.P,J2,14,14*%
%TO.N,Net-(MCB1-PB9)*%
X52006600Y-27200000D03*
%TO.P,J2,15,15*%
%TO.N,GND*%
X50000000Y-29206600D03*
%TO.P,J2,16,16*%
X50000000Y-27200000D03*
%TD*%
D18*
%TO.P,J7,1,1*%
%TO.N,Net-(F8-Pad2)*%
X31250000Y-67700000D03*
D19*
%TO.P,J7,2,2*%
%TO.N,/3.3V_BMS*%
X31250000Y-65200000D03*
%TD*%
D14*
%TO.P,F1,1,1*%
%TO.N,Net-(F1-Pad1)*%
X40000000Y-55700000D03*
%TO.P,F1,2,2*%
%TO.N,Net-(F1-Pad2)*%
X42844800Y-55700000D03*
%TD*%
D31*
%TO.N,GND*%
X75836000Y-64180000D03*
X73756735Y-64725265D03*
D32*
X54700000Y-65213250D03*
X52500000Y-65913250D03*
X52750000Y-63450000D03*
X54800000Y-62813250D03*
D31*
X72280000Y-66212000D03*
D32*
X54800000Y-59813250D03*
D31*
X69984000Y-63450999D03*
X33500000Y-72200000D03*
X67454000Y-64688000D03*
D32*
X52100000Y-59813250D03*
D31*
%TO.N,+3.3V*%
X34500000Y-73700000D03*
X67454000Y-66212000D03*
D32*
%TO.N,/3.3V_Battery*%
X46250000Y-59806000D03*
X62250000Y-61200000D03*
D31*
%TO.N,Net-(F1-Pad2)*%
X44000000Y-55700000D03*
%TO.N,Net-(F2-Pad2)*%
X44000000Y-53200000D03*
%TO.N,Net-(F3-Pad2)*%
X44000000Y-50700000D03*
%TO.N,Net-(F4-Pad2)*%
X44000000Y-48200000D03*
%TO.N,Net-(F5-Pad2)*%
X44000000Y-45700000D03*
%TO.N,Net-(F6-Pad2)*%
X44000000Y-43200000D03*
%TO.N,Net-(F7-Pad2)*%
X44000000Y-40700000D03*
%TD*%
D33*
%TO.N,Net-(J10-Pad2)*%
X44500000Y-29700000D02*
X31225000Y-29700000D01*
%TO.N,Net-(F8-Pad2)*%
X32250000Y-67700000D02*
X31250000Y-67700000D01*
X35500000Y-70950000D02*
X32250000Y-67700000D01*
%TO.N,/3.3V_BMS*%
X32750000Y-65200000D02*
X31250000Y-65200000D01*
X37000000Y-69450000D02*
X32750000Y-65200000D01*
%TO.N,Net-(F9-Pad1)*%
X33975000Y-61950000D02*
X31225000Y-59200000D01*
X40000000Y-61950000D02*
X33975000Y-61950000D01*
%TO.N,Net-(F1-Pad1)*%
X38500000Y-55700000D02*
X33500000Y-50700000D01*
X40000000Y-55700000D02*
X38500000Y-55700000D01*
X33500000Y-50700000D02*
X31225000Y-50700000D01*
%TO.N,Net-(F2-Pad1)*%
X33500000Y-48200000D02*
X31225000Y-48200000D01*
%TO.N,Net-(F3-Pad1)*%
X33500000Y-45700000D02*
X31225000Y-45700000D01*
%TO.N,Net-(F4-Pad1)*%
X33500000Y-43200000D02*
X31225000Y-43200000D01*
%TO.N,Net-(F5-Pad1)*%
X33500000Y-40700000D02*
X31225000Y-40700000D01*
%TO.N,Net-(F6-Pad1)*%
X33500000Y-38200000D02*
X31225000Y-38200000D01*
%TO.N,Net-(F7-Pad1)*%
X33500000Y-35700000D02*
X31225000Y-35700000D01*
D34*
%TO.N,GND*%
X71760000Y-66200000D02*
X71496000Y-66200000D01*
X71772000Y-66212000D02*
X71760000Y-66200000D01*
X67467000Y-64675000D02*
X67454000Y-64688000D01*
X68216000Y-64675000D02*
X67467000Y-64675000D01*
X72280000Y-66212000D02*
X71772000Y-66212000D01*
%TO.N,+3.3V*%
X72028000Y-67482000D02*
X71520000Y-66974000D01*
X71520000Y-66974000D02*
X71511050Y-66974000D01*
X70016000Y-65700000D02*
X68978000Y-65700000D01*
X68978000Y-65700000D02*
X68741000Y-65700000D01*
X71511050Y-66974000D02*
X71348050Y-66811000D01*
D35*
X33825000Y-73700000D02*
X34500000Y-73700000D01*
D34*
X70976810Y-66811000D02*
X70756000Y-66590190D01*
X68216000Y-66225000D02*
X67467000Y-66225000D01*
X70270000Y-65700000D02*
X70756000Y-65700000D01*
X68741000Y-65700000D02*
X68216000Y-66225000D01*
X70756000Y-65700000D02*
X71750000Y-65700000D01*
X70756000Y-66590190D02*
X70756000Y-65700000D01*
X67467000Y-66225000D02*
X67454000Y-66212000D01*
X71348050Y-66811000D02*
X70976810Y-66811000D01*
D36*
%TO.N,/3.3V_Battery*%
X46249000Y-59623000D02*
X46249000Y-57701001D01*
D34*
X69232000Y-64942000D02*
X69232000Y-64200260D01*
D36*
X46249000Y-57701001D02*
X46700001Y-57250000D01*
D34*
X65532000Y-63418000D02*
X65500000Y-63450000D01*
D36*
X46250000Y-59806000D02*
X46250000Y-59624000D01*
D34*
X70016000Y-65200000D02*
X69490000Y-65200000D01*
X69490000Y-65200000D02*
X69232000Y-64942000D01*
X68498000Y-63466260D02*
X68498000Y-63418000D01*
D36*
X46700001Y-57250000D02*
X47362500Y-57250000D01*
X46250000Y-59624000D02*
X46249000Y-59623000D01*
D34*
X68498000Y-63418000D02*
X65532000Y-63418000D01*
X69232000Y-64200260D02*
X68498000Y-63466260D01*
%TO.N,/3.3V_BMS*%
X72266130Y-65200000D02*
X71496000Y-65200000D01*
X74790000Y-65676000D02*
X72742130Y-65676000D01*
X71496000Y-65200000D02*
X71014000Y-65200000D01*
D33*
X37000000Y-69450000D02*
X73000000Y-69450000D01*
X74818000Y-67632000D02*
X74818000Y-65820786D01*
D34*
X70513000Y-64699000D02*
X70016000Y-64699000D01*
X72742130Y-65676000D02*
X72266130Y-65200000D01*
X74818000Y-65704000D02*
X74790000Y-65676000D01*
X71014000Y-65200000D02*
X70513000Y-64699000D01*
X71958521Y-65200000D02*
X71496000Y-65200000D01*
D33*
X73000000Y-69450000D02*
X74818000Y-67632000D01*
D35*
%TO.N,Net-(MCB1-PA10)*%
X74052500Y-27752500D02*
X73500000Y-27200000D01*
D33*
X74052500Y-34450000D02*
X74052500Y-27752500D01*
D36*
%TO.N,/BUCK_PWR*%
X47409000Y-62200000D02*
X47409000Y-59196500D01*
D35*
X47409000Y-59196500D02*
X47362500Y-59150000D01*
D36*
X47362500Y-59150000D02*
X47362500Y-58200000D01*
D33*
%TO.N,Net-(MCB1-PA9)*%
X76592500Y-27792500D02*
X76000000Y-27200000D01*
X76592500Y-34450000D02*
X76592500Y-27792500D01*
%TO.N,Net-(F1-Pad2)*%
X42844800Y-55700000D02*
X44000000Y-55700000D01*
D35*
%TO.N,Net-(MCB1-PC10)*%
X63750000Y-32950000D02*
X63750000Y-32923600D01*
X68972500Y-34450000D02*
X67472500Y-32950000D01*
X67472500Y-32950000D02*
X63750000Y-32950000D01*
X63750000Y-32923600D02*
X60033000Y-29206600D01*
%TO.N,Net-(MCB1-PD2)*%
X57065000Y-30162500D02*
X57065000Y-28161400D01*
X57065000Y-28161400D02*
X58026400Y-27200000D01*
X61352500Y-34450000D02*
X57065000Y-30162500D01*
%TO.N,Net-(MCB1-PA15)*%
X63084800Y-28245200D02*
X62039600Y-27200000D01*
X65307700Y-28245200D02*
X63084800Y-28245200D01*
X71512500Y-34450000D02*
X65307700Y-28245200D01*
%TO.N,Net-(MCB1-PB6)*%
X53732500Y-29487300D02*
X54013200Y-29206600D01*
X53732500Y-34450000D02*
X53732500Y-29487300D01*
%TO.N,Net-(MCB1-PB8)*%
X48652500Y-34450000D02*
X52006600Y-31095900D01*
X52006600Y-31095900D02*
X52006600Y-29206600D01*
%TO.N,Net-(MCB1-PC11)*%
X65366500Y-33384000D02*
X63434000Y-33384000D01*
X59071600Y-29604825D02*
X59071600Y-28161400D01*
X66432500Y-34450000D02*
X65366500Y-33384000D01*
X63434000Y-33384000D02*
X60218000Y-30168000D01*
X59634775Y-30168000D02*
X59071600Y-29604825D01*
X60218000Y-30168000D02*
X59634775Y-30168000D01*
X59071600Y-28161400D02*
X60033000Y-27200000D01*
%TO.N,Net-(MCB1-PC12)*%
X63892500Y-34450000D02*
X63269800Y-34450000D01*
X63269800Y-34450000D02*
X58026400Y-29206600D01*
%TO.N,Net-(MCB1-PB7)*%
X51192500Y-34450000D02*
X53000000Y-32642500D01*
X53000000Y-28213200D02*
X54013200Y-27200000D01*
X53000000Y-32642500D02*
X53000000Y-28213200D01*
%TO.N,Net-(MCB1-PB4)*%
X56019800Y-31657300D02*
X56019800Y-29206600D01*
X58812500Y-34450000D02*
X56019800Y-31657300D01*
D33*
%TO.N,Net-(F2-Pad1)*%
X33500000Y-48200000D02*
X38500000Y-53200000D01*
X38500000Y-53200000D02*
X40000000Y-53200000D01*
%TO.N,Net-(F2-Pad2)*%
X42844800Y-53200000D02*
X44000000Y-53200000D01*
%TO.N,Net-(F3-Pad2)*%
X42844800Y-50700000D02*
X44000000Y-50700000D01*
%TO.N,Net-(F3-Pad1)*%
X38500000Y-50700000D02*
X40000000Y-50700000D01*
X33500000Y-45700000D02*
X38500000Y-50700000D01*
%TO.N,Net-(F4-Pad1)*%
X33500000Y-43200000D02*
X38500000Y-48200000D01*
X38500000Y-48200000D02*
X40000000Y-48200000D01*
%TO.N,Net-(F4-Pad2)*%
X42844800Y-48200000D02*
X44000000Y-48200000D01*
%TO.N,Net-(F5-Pad1)*%
X38500000Y-45700000D02*
X40000000Y-45700000D01*
X33500000Y-40700000D02*
X38500000Y-45700000D01*
%TO.N,Net-(F5-Pad2)*%
X42844800Y-45700000D02*
X44000000Y-45700000D01*
%TO.N,Net-(F6-Pad1)*%
X38500000Y-43200000D02*
X40000000Y-43200000D01*
X33500000Y-38200000D02*
X38500000Y-43200000D01*
%TO.N,Net-(F6-Pad2)*%
X42844800Y-43200000D02*
X44000000Y-43200000D01*
%TO.N,Net-(F7-Pad1)*%
X38500000Y-40700000D02*
X39977600Y-40700000D01*
X33500000Y-35700000D02*
X38500000Y-40700000D01*
%TO.N,Net-(F7-Pad2)*%
X42822400Y-40700000D02*
X44000000Y-40700000D01*
%TO.N,Net-(F8-Pad1)*%
X90000000Y-42027600D02*
X91750000Y-40277600D01*
X91750000Y-40277600D02*
X91750000Y-31200000D01*
X90500000Y-29950000D02*
X86865738Y-29950000D01*
X86865738Y-29950000D02*
X81250000Y-29950000D01*
X81250000Y-29950000D02*
X78500000Y-27200000D01*
X91750000Y-31200000D02*
X90500000Y-29950000D01*
D36*
%TO.N,/BST*%
X49637500Y-57250000D02*
X48500000Y-56112500D01*
X48500000Y-56112500D02*
X48500000Y-54950000D01*
D35*
%TO.N,Net-(MCB1-PB9)*%
X51045200Y-28161400D02*
X52006600Y-27200000D01*
X46200025Y-34450000D02*
X51045200Y-29604825D01*
X46112500Y-34450000D02*
X46200025Y-34450000D01*
X51045200Y-29604825D02*
X51045200Y-28161400D01*
D36*
%TO.N,/SW*%
X49637500Y-58200000D02*
X50886750Y-58200000D01*
D33*
%TO.N,/PWR_LED_K*%
X31990000Y-72200000D02*
X31990000Y-73440000D01*
D35*
X31990000Y-73440000D02*
X32250000Y-73700000D01*
D33*
%TO.N,Net-(F8-Pad2)*%
X35500000Y-70950000D02*
X78750000Y-70950000D01*
X78750000Y-70950000D02*
X90000000Y-59700000D01*
X90000000Y-59700000D02*
X90000000Y-44872400D01*
D35*
%TO.N,Net-(J5-Pad1)*%
X97000000Y-61700000D02*
X97250000Y-61700000D01*
D33*
X98750000Y-63450000D02*
X98750000Y-69675000D01*
X97000000Y-61700000D02*
X98750000Y-63450000D01*
X98750000Y-69675000D02*
X98350000Y-70075000D01*
%TO.N,Net-(J5-Pad2)*%
X93049000Y-66913564D02*
X95762564Y-64200000D01*
X94375000Y-71325000D02*
X93049000Y-69999000D01*
X95762564Y-64200000D02*
X97000000Y-64200000D01*
D35*
X97750000Y-71325000D02*
X98350000Y-71325000D01*
D33*
X98350000Y-71325000D02*
X94375000Y-71325000D01*
X93049000Y-69999000D02*
X93049000Y-66913564D01*
D35*
%TO.N,Net-(U6-PR1)*%
X75584000Y-65454000D02*
X74217000Y-64087000D01*
X74217000Y-64087000D02*
X72881000Y-64087000D01*
X75588000Y-65454000D02*
X75584000Y-65454000D01*
X72268000Y-64700000D02*
X71496000Y-64700000D01*
X75838000Y-65704000D02*
X75588000Y-65454000D01*
X72881000Y-64087000D02*
X72268000Y-64700000D01*
%TO.N,Net-(U6-ST)*%
X71008000Y-67482000D02*
X70756000Y-67230000D01*
X70756000Y-67230000D02*
X70756000Y-67228000D01*
X70305000Y-66777000D02*
X70305000Y-66489000D01*
X70305000Y-66489000D02*
X70016000Y-66200000D01*
X70756000Y-67228000D02*
X70305000Y-66777000D01*
%TO.N,Net-(MCB1-PB5)*%
X56272500Y-34450000D02*
X55058400Y-33235900D01*
X55058400Y-33235900D02*
X55058400Y-28161400D01*
X55058400Y-28161400D02*
X56019800Y-27200000D01*
%TO.N,Net-(J2-Pad3)*%
X70038500Y-37661500D02*
X70038500Y-34008448D01*
X63001000Y-30168000D02*
X62039600Y-29206600D01*
X70038500Y-34008448D02*
X66198052Y-30168000D01*
X66198052Y-30168000D02*
X63001000Y-30168000D01*
X70000000Y-37700000D02*
X70038500Y-37661500D01*
X70000000Y-37450000D02*
X70038500Y-37411500D01*
%TO.N,Net-(MCB1-+3.3V)*%
X72500000Y-40200000D02*
X72578500Y-40121500D01*
X78462500Y-40200000D02*
X84212500Y-34450000D01*
X65770052Y-27200000D02*
X64046200Y-27200000D01*
X72578500Y-40121500D02*
X72578500Y-34008448D01*
X72500000Y-40200000D02*
X78462500Y-40200000D01*
X72500000Y-39950000D02*
X72578500Y-39871500D01*
X72578500Y-34008448D02*
X65770052Y-27200000D01*
D33*
%TO.N,Net-(J10-Pad2)*%
X91512564Y-25450000D02*
X95762564Y-29700000D01*
X44500000Y-29700000D02*
X48750000Y-25450000D01*
X48750000Y-25450000D02*
X91512564Y-25450000D01*
X95762564Y-29700000D02*
X97000000Y-29700000D01*
%TD*%
%TA.AperFunction,Conductor*%
%TO.N,GND*%
G36*
X56993039Y-58969685D02*
G01*
X57038794Y-59022489D01*
X57050000Y-59074000D01*
X57050000Y-66930000D01*
X57050000Y-67076000D01*
X57030315Y-67143039D01*
X56977511Y-67188794D01*
X56926000Y-67200000D01*
X51480000Y-67200000D01*
X51412961Y-67180315D01*
X51367206Y-67127511D01*
X51356000Y-67076000D01*
X51356000Y-66347844D01*
X55800000Y-66347844D01*
X55806401Y-66407372D01*
X55806403Y-66407379D01*
X55856645Y-66542086D01*
X55856649Y-66542093D01*
X55942809Y-66657187D01*
X55942812Y-66657190D01*
X56057906Y-66743350D01*
X56057913Y-66743354D01*
X56192620Y-66793596D01*
X56192627Y-66793598D01*
X56252155Y-66799999D01*
X56252172Y-66800000D01*
X56600000Y-66800000D01*
X56600000Y-65450000D01*
X55800000Y-65450000D01*
X55800000Y-66347844D01*
X51356000Y-66347844D01*
X51356000Y-66200000D01*
X50215000Y-66200000D01*
X50147961Y-66180315D01*
X50102206Y-66127511D01*
X50091000Y-66076000D01*
X50091000Y-65950000D01*
X49965000Y-65950000D01*
X49897961Y-65930315D01*
X49852206Y-65877511D01*
X49841000Y-65826000D01*
X49841000Y-65700000D01*
X50341000Y-65700000D01*
X51356000Y-65700000D01*
X51356000Y-64542172D01*
X51355999Y-64542155D01*
X51349598Y-64482627D01*
X51349596Y-64482620D01*
X51299354Y-64347913D01*
X51299350Y-64347906D01*
X51213190Y-64232812D01*
X51213187Y-64232809D01*
X51134984Y-64174266D01*
X51119149Y-64153112D01*
X51100464Y-64134428D01*
X51098539Y-64125580D01*
X51093113Y-64118332D01*
X51091228Y-64091974D01*
X51085611Y-64066156D01*
X51088774Y-64057672D01*
X51088380Y-64052155D01*
X55800000Y-64052155D01*
X55800000Y-64950000D01*
X56600000Y-64950000D01*
X56600000Y-63600000D01*
X56252155Y-63600000D01*
X56192627Y-63606401D01*
X56192620Y-63606403D01*
X56057913Y-63656645D01*
X56057906Y-63656649D01*
X55942812Y-63742809D01*
X55942809Y-63742812D01*
X55856649Y-63857906D01*
X55856645Y-63857913D01*
X55806403Y-63992620D01*
X55806401Y-63992627D01*
X55800000Y-64052155D01*
X51088380Y-64052155D01*
X51088129Y-64048641D01*
X51100793Y-64025449D01*
X51110027Y-64000691D01*
X51119468Y-63991249D01*
X51121615Y-63987318D01*
X51134983Y-63975734D01*
X51169913Y-63949585D01*
X51169914Y-63949584D01*
X51213190Y-63917186D01*
X51299350Y-63802093D01*
X51299354Y-63802086D01*
X51349596Y-63667379D01*
X51349598Y-63667372D01*
X51355999Y-63607844D01*
X51356000Y-63607827D01*
X51356000Y-62597844D01*
X55800000Y-62597844D01*
X55806401Y-62657372D01*
X55806403Y-62657379D01*
X55856645Y-62792086D01*
X55856649Y-62792093D01*
X55942809Y-62907187D01*
X55942812Y-62907190D01*
X56057906Y-62993350D01*
X56057913Y-62993354D01*
X56192620Y-63043596D01*
X56192627Y-63043598D01*
X56252155Y-63049999D01*
X56252172Y-63050000D01*
X56600000Y-63050000D01*
X56600000Y-61700000D01*
X55800000Y-61700000D01*
X55800000Y-62597844D01*
X51356000Y-62597844D01*
X51356000Y-62450000D01*
X50341000Y-62450000D01*
X50341000Y-65700000D01*
X49841000Y-65700000D01*
X49841000Y-61950000D01*
X50341000Y-61950000D01*
X51356000Y-61950000D01*
X51356000Y-60792172D01*
X51355999Y-60792155D01*
X51349598Y-60732627D01*
X51349596Y-60732620D01*
X51299354Y-60597913D01*
X51299350Y-60597906D01*
X51213190Y-60482812D01*
X51213187Y-60482809D01*
X51100072Y-60398130D01*
X51100054Y-60398118D01*
X51098089Y-60396647D01*
X51098086Y-60396645D01*
X50963379Y-60346403D01*
X50963372Y-60346401D01*
X50903844Y-60340000D01*
X50341000Y-60340000D01*
X50341000Y-61950000D01*
X49841000Y-61950000D01*
X49841000Y-60340000D01*
X49524000Y-60340000D01*
X49519074Y-60338553D01*
X49514049Y-60339600D01*
X49485888Y-60328809D01*
X49456961Y-60320315D01*
X49453600Y-60316436D01*
X49448805Y-60314599D01*
X49439662Y-60302155D01*
X55800000Y-60302155D01*
X55800000Y-61200000D01*
X56600000Y-61200000D01*
X56600000Y-59850000D01*
X56252155Y-59850000D01*
X56192627Y-59856401D01*
X56192620Y-59856403D01*
X56057913Y-59906645D01*
X56057906Y-59906649D01*
X55942812Y-59992809D01*
X55942809Y-59992812D01*
X55856649Y-60107906D01*
X55856645Y-60107913D01*
X55806403Y-60242620D01*
X55806401Y-60242627D01*
X55800000Y-60302155D01*
X49439662Y-60302155D01*
X49430948Y-60290294D01*
X49411206Y-60267511D01*
X49409652Y-60261310D01*
X49407436Y-60258293D01*
X49403995Y-60238725D01*
X49400242Y-60223740D01*
X49400000Y-60219870D01*
X49400000Y-59950000D01*
X49887500Y-59950000D01*
X50215634Y-59950000D01*
X50215649Y-59949999D01*
X50252489Y-59947100D01*
X50252495Y-59947099D01*
X50410193Y-59901283D01*
X50410196Y-59901282D01*
X50551552Y-59817685D01*
X50551561Y-59817678D01*
X50667678Y-59701561D01*
X50667685Y-59701552D01*
X50751281Y-59560198D01*
X50797100Y-59402486D01*
X50797295Y-59400001D01*
X50797295Y-59400000D01*
X49887500Y-59400000D01*
X49887500Y-59950000D01*
X49400000Y-59950000D01*
X49400000Y-59231430D01*
X49407185Y-59206961D01*
X49459989Y-59161206D01*
X49511500Y-59150000D01*
X49637500Y-59150000D01*
X49637500Y-59124500D01*
X49647190Y-59091497D01*
X49656591Y-59058394D01*
X49657022Y-59058012D01*
X49657185Y-59057461D01*
X49683151Y-59034961D01*
X49708984Y-59012170D01*
X49709554Y-59012082D01*
X49709989Y-59011706D01*
X49761500Y-59000500D01*
X50215686Y-59000500D01*
X50215694Y-59000500D01*
X50252569Y-58997598D01*
X50252571Y-58997597D01*
X50252573Y-58997597D01*
X50397733Y-58955424D01*
X50432328Y-58950500D01*
X50788197Y-58950500D01*
X50805843Y-58951762D01*
X50816214Y-58953253D01*
X50924000Y-58968750D01*
X50924003Y-58968750D01*
X53375990Y-58968750D01*
X53376000Y-58968750D01*
X53483456Y-58957197D01*
X53503512Y-58952834D01*
X53529871Y-58950000D01*
X56926000Y-58950000D01*
X56993039Y-58969685D01*
G37*
%TD.AperFunction*%
%TD*%
%TA.AperFunction,Conductor*%
%TO.N,/BUCK_PWR*%
G36*
X46087039Y-61832935D02*
G01*
X46132794Y-61885739D01*
X46144000Y-61937250D01*
X46144000Y-61950000D01*
X47285000Y-61950000D01*
X47352039Y-61969685D01*
X47397794Y-62022489D01*
X47409000Y-62074000D01*
X47409000Y-62200000D01*
X47535000Y-62200000D01*
X47602039Y-62219685D01*
X47647794Y-62272489D01*
X47659000Y-62324000D01*
X47659000Y-65826000D01*
X47639315Y-65893039D01*
X47586511Y-65938794D01*
X47535000Y-65950000D01*
X47409000Y-65950000D01*
X47409000Y-66076000D01*
X47389315Y-66143039D01*
X47336511Y-66188794D01*
X47285000Y-66200000D01*
X46144000Y-66200000D01*
X46144000Y-67357844D01*
X46150401Y-67417372D01*
X46150403Y-67417379D01*
X46161047Y-67445917D01*
X46166031Y-67515608D01*
X46132546Y-67576931D01*
X46071223Y-67610416D01*
X46044865Y-67613250D01*
X42524000Y-67613250D01*
X42456961Y-67593565D01*
X42411206Y-67540761D01*
X42400000Y-67489250D01*
X42400000Y-63607844D01*
X46144000Y-63607844D01*
X46150401Y-63667372D01*
X46150403Y-63667379D01*
X46200645Y-63802086D01*
X46200649Y-63802093D01*
X46286809Y-63917187D01*
X46365016Y-63975734D01*
X46406886Y-64031668D01*
X46411870Y-64101360D01*
X46378384Y-64162683D01*
X46365016Y-64174266D01*
X46286809Y-64232812D01*
X46200649Y-64347906D01*
X46200645Y-64347913D01*
X46150403Y-64482620D01*
X46150401Y-64482627D01*
X46144000Y-64542155D01*
X46144000Y-65700000D01*
X47159000Y-65700000D01*
X47159000Y-62450000D01*
X46144000Y-62450000D01*
X46144000Y-63607844D01*
X42400000Y-63607844D01*
X42400000Y-63463000D01*
X42419685Y-63395961D01*
X42472489Y-63350206D01*
X42524000Y-63339000D01*
X42594800Y-63339000D01*
X43094800Y-63339000D01*
X43527628Y-63339000D01*
X43527644Y-63338999D01*
X43587172Y-63332598D01*
X43587179Y-63332596D01*
X43721886Y-63282354D01*
X43721893Y-63282350D01*
X43836987Y-63196190D01*
X43836990Y-63196187D01*
X43923150Y-63081093D01*
X43923154Y-63081086D01*
X43973396Y-62946379D01*
X43973398Y-62946372D01*
X43979799Y-62886844D01*
X43979800Y-62886827D01*
X43979800Y-62200000D01*
X43094800Y-62200000D01*
X43094800Y-63339000D01*
X42594800Y-63339000D01*
X42594800Y-62074000D01*
X42614485Y-62006961D01*
X42667289Y-61961206D01*
X42718800Y-61950000D01*
X42844800Y-61950000D01*
X42844800Y-61824000D01*
X42847957Y-61813250D01*
X44109800Y-61813250D01*
X46020000Y-61813250D01*
X46087039Y-61832935D01*
G37*
%TD.AperFunction*%
%TD*%
%TA.AperFunction,Conductor*%
%TO.N,/3.3V_Battery*%
G36*
X65943039Y-53459127D02*
G01*
X65988794Y-53511931D01*
X66000000Y-53563442D01*
X66000000Y-67126000D01*
X65980315Y-67193039D01*
X65927511Y-67238794D01*
X65876000Y-67250000D01*
X59982865Y-67250000D01*
X59915826Y-67230315D01*
X59870071Y-67177511D01*
X59858867Y-67125243D01*
X59859072Y-67091554D01*
X59860301Y-66890302D01*
X59880395Y-66823387D01*
X59896619Y-66803380D01*
X59899999Y-66800000D01*
X60400000Y-66800000D01*
X60747828Y-66800000D01*
X60747844Y-66799999D01*
X60807372Y-66793598D01*
X60807379Y-66793596D01*
X60942086Y-66743354D01*
X60942093Y-66743350D01*
X61057187Y-66657190D01*
X61057190Y-66657187D01*
X61143350Y-66542093D01*
X61143354Y-66542086D01*
X61193596Y-66407379D01*
X61193598Y-66407372D01*
X61199999Y-66347844D01*
X61200000Y-66347827D01*
X61200000Y-65450000D01*
X60400000Y-65450000D01*
X60400000Y-66800000D01*
X59899999Y-66800000D01*
X59900000Y-66799999D01*
X59900000Y-64950000D01*
X60400000Y-64950000D01*
X61200000Y-64950000D01*
X61200000Y-64052172D01*
X61199999Y-64052155D01*
X61193598Y-63992627D01*
X61193596Y-63992620D01*
X61143354Y-63857913D01*
X61143350Y-63857906D01*
X61057190Y-63742812D01*
X61057187Y-63742809D01*
X60942093Y-63656649D01*
X60942086Y-63656645D01*
X60807379Y-63606403D01*
X60807372Y-63606401D01*
X60747844Y-63600000D01*
X60400000Y-63600000D01*
X60400000Y-64950000D01*
X59900000Y-64950000D01*
X59900000Y-63585743D01*
X59883663Y-63555825D01*
X59880831Y-63528710D01*
X59881197Y-63468610D01*
X59883343Y-63117260D01*
X59900000Y-63061791D01*
X59900000Y-63050000D01*
X60400000Y-63050000D01*
X60747828Y-63050000D01*
X60747844Y-63049999D01*
X60807372Y-63043598D01*
X60807379Y-63043596D01*
X60942086Y-62993354D01*
X60942093Y-62993350D01*
X61057187Y-62907190D01*
X61057190Y-62907187D01*
X61143350Y-62792093D01*
X61143354Y-62792086D01*
X61193596Y-62657379D01*
X61193598Y-62657372D01*
X61199999Y-62597844D01*
X61200000Y-62597827D01*
X61200000Y-61700000D01*
X60400000Y-61700000D01*
X60400000Y-63050000D01*
X59900000Y-63050000D01*
X59900000Y-61200000D01*
X60400000Y-61200000D01*
X61200000Y-61200000D01*
X61200000Y-60302172D01*
X61199999Y-60302155D01*
X61193598Y-60242627D01*
X61193596Y-60242620D01*
X61143354Y-60107913D01*
X61143350Y-60107906D01*
X61057190Y-59992812D01*
X61057187Y-59992809D01*
X60942093Y-59906649D01*
X60942086Y-59906645D01*
X60807379Y-59856403D01*
X60807372Y-59856401D01*
X60747844Y-59850000D01*
X60400000Y-59850000D01*
X60400000Y-61200000D01*
X59900000Y-61200000D01*
X59900000Y-60389833D01*
X59908040Y-59073241D01*
X59928134Y-59006325D01*
X59981216Y-58960893D01*
X60032038Y-58950000D01*
X60700000Y-58950000D01*
X60700000Y-56074000D01*
X60719685Y-56006961D01*
X60772489Y-55961206D01*
X60824000Y-55950000D01*
X62500000Y-55950000D01*
X63000000Y-55950000D01*
X64847828Y-55950000D01*
X64847844Y-55949999D01*
X64907372Y-55943598D01*
X64907379Y-55943596D01*
X65042086Y-55893354D01*
X65042093Y-55893350D01*
X65157187Y-55807190D01*
X65157190Y-55807187D01*
X65243350Y-55692093D01*
X65243354Y-55692086D01*
X65293596Y-55557379D01*
X65293598Y-55557372D01*
X65299999Y-55497844D01*
X65300000Y-55497827D01*
X65300000Y-53950000D01*
X63000000Y-53950000D01*
X63000000Y-55950000D01*
X62500000Y-55950000D01*
X62500000Y-53824000D01*
X62519685Y-53756961D01*
X62572489Y-53711206D01*
X62624000Y-53700000D01*
X62750000Y-53700000D01*
X62750000Y-53574000D01*
X62769685Y-53506961D01*
X62822489Y-53461206D01*
X62874000Y-53450000D01*
X65321417Y-53450000D01*
X65335562Y-53442276D01*
X65361920Y-53439442D01*
X65876000Y-53439442D01*
X65943039Y-53459127D01*
G37*
%TD.AperFunction*%
%TD*%
%TA.AperFunction,Conductor*%
%TO.N,/SW*%
G36*
X53443039Y-50469685D02*
G01*
X53488794Y-50522489D01*
X53500000Y-50574000D01*
X53500000Y-58339250D01*
X53480315Y-58406289D01*
X53427511Y-58452044D01*
X53376000Y-58463250D01*
X50924000Y-58463250D01*
X50856961Y-58443565D01*
X50811206Y-58390761D01*
X50800000Y-58339250D01*
X50800000Y-57127970D01*
X50799999Y-57127968D01*
X50538853Y-56865949D01*
X50532366Y-56859440D01*
X50472150Y-56777850D01*
X50392342Y-56718949D01*
X50385706Y-56712291D01*
X49765996Y-56090511D01*
X49732613Y-56029132D01*
X49729823Y-56003145D01*
X49729742Y-55943596D01*
X49729135Y-55497844D01*
X50700000Y-55497844D01*
X50706401Y-55557372D01*
X50706403Y-55557379D01*
X50756645Y-55692086D01*
X50756649Y-55692093D01*
X50842809Y-55807187D01*
X50842812Y-55807190D01*
X50957906Y-55893350D01*
X50957913Y-55893354D01*
X51092620Y-55943596D01*
X51092627Y-55943598D01*
X51152155Y-55949999D01*
X51152172Y-55950000D01*
X53000000Y-55950000D01*
X53000000Y-53950000D01*
X50700000Y-53950000D01*
X50700000Y-55497844D01*
X49729135Y-55497844D01*
X49725530Y-52852075D01*
X49745122Y-52785014D01*
X49753686Y-52774373D01*
X49753574Y-52774289D01*
X49845052Y-52652088D01*
X49845054Y-52652086D01*
X49895296Y-52517379D01*
X49895298Y-52517372D01*
X49901699Y-52457844D01*
X49901700Y-52457827D01*
X49901700Y-52101200D01*
X48624000Y-52101200D01*
X48615314Y-52098649D01*
X48606353Y-52099938D01*
X48582312Y-52088959D01*
X48556961Y-52081515D01*
X48551033Y-52074674D01*
X48542797Y-52070913D01*
X48528507Y-52048678D01*
X48511206Y-52028711D01*
X48508918Y-52018196D01*
X48505023Y-52012135D01*
X48500000Y-51977200D01*
X48500000Y-51902155D01*
X50700000Y-51902155D01*
X50700000Y-53450000D01*
X53000000Y-53450000D01*
X53000000Y-51450000D01*
X51152155Y-51450000D01*
X51092627Y-51456401D01*
X51092620Y-51456403D01*
X50957913Y-51506645D01*
X50957906Y-51506649D01*
X50842812Y-51592809D01*
X50842809Y-51592812D01*
X50756649Y-51707906D01*
X50756645Y-51707913D01*
X50706403Y-51842620D01*
X50706401Y-51842627D01*
X50700000Y-51902155D01*
X48500000Y-51902155D01*
X48500000Y-51851200D01*
X48374000Y-51851200D01*
X48306961Y-51831515D01*
X48261206Y-51778711D01*
X48250000Y-51727200D01*
X48250000Y-51601200D01*
X48750000Y-51601200D01*
X49901700Y-51601200D01*
X49901700Y-51244572D01*
X49901699Y-51244555D01*
X49895298Y-51185027D01*
X49895296Y-51185020D01*
X49845054Y-51050313D01*
X49845050Y-51050306D01*
X49758890Y-50935212D01*
X49758887Y-50935209D01*
X49643793Y-50849049D01*
X49643786Y-50849045D01*
X49509079Y-50798803D01*
X49509072Y-50798801D01*
X49449544Y-50792400D01*
X48750000Y-50792400D01*
X48750000Y-51601200D01*
X48250000Y-51601200D01*
X48250000Y-50574000D01*
X48269685Y-50506961D01*
X48322489Y-50461206D01*
X48374000Y-50450000D01*
X53376000Y-50450000D01*
X53443039Y-50469685D01*
G37*
%TD.AperFunction*%
%TD*%
M02*
