%TF.GenerationSoftware,KiCad,Pcbnew,9.0.5*%
%TF.CreationDate,2026-07-08T16:26:50-06:00*%
%TF.ProjectId,BMS Carrier Board,424d5320-4361-4727-9269-657220426f61,rev?*%
%TF.SameCoordinates,Original*%
%TF.FileFunction,Copper,L2,Bot*%
%TF.FilePolarity,Positive*%
%FSLAX46Y46*%
G04 Gerber Fmt 4.6, Leading zero omitted, Abs format (unit mm)*
G04 Created by KiCad (PCBNEW 9.0.5) date 2026-07-08 16:26:50*
%MOMM*%
%LPD*%
G01*
G04 APERTURE LIST*
%TA.AperFunction,ComponentPad*%
%ADD10R,1.750000X1.750000*%
%TD*%
%TA.AperFunction,ComponentPad*%
%ADD11C,1.750000*%
%TD*%
%TA.AperFunction,ComponentPad*%
%ADD12C,1.530000*%
%TD*%
%TA.AperFunction,ComponentPad*%
%ADD13C,1.219200*%
%TD*%
%TA.AperFunction,ComponentPad*%
%ADD14C,1.320800*%
%TD*%
%TA.AperFunction,ViaPad*%
%ADD15C,0.600000*%
%TD*%
%TA.AperFunction,ViaPad*%
%ADD16C,0.700000*%
%TD*%
%TA.AperFunction,Conductor*%
%ADD17C,1.000000*%
%TD*%
%TA.AperFunction,Conductor*%
%ADD18C,0.500000*%
%TD*%
%TA.AperFunction,Conductor*%
%ADD19C,0.200000*%
%TD*%
G04 APERTURE END LIST*
D10*
%TO.P,J8,1,1*%
%TO.N,unconnected-(J8-Pad1)*%
X97000000Y-35700000D03*
D11*
%TO.P,J8,2,2*%
%TO.N,unconnected-(J8-Pad2)*%
X97000000Y-38200000D03*
%TO.P,J8,3,3*%
%TO.N,Net-(F7-Pad2)*%
X97000000Y-40700000D03*
%TO.P,J8,4,4*%
%TO.N,Net-(F6-Pad2)*%
X97000000Y-43200000D03*
%TO.P,J8,5,5*%
%TO.N,Net-(F5-Pad2)*%
X97000000Y-45700000D03*
%TO.P,J8,6,6*%
%TO.N,Net-(F4-Pad2)*%
X97000000Y-48200000D03*
%TO.P,J8,7,7*%
%TO.N,Net-(F3-Pad2)*%
X97000000Y-50700000D03*
%TO.P,J8,8,8*%
%TO.N,Net-(F2-Pad2)*%
X97000000Y-53200000D03*
%TO.P,J8,9,9*%
%TO.N,Net-(F1-Pad2)*%
X97000000Y-55700000D03*
%TD*%
D12*
%TO.P,MCB1,1,3.3V_Battery*%
%TO.N,+3.3V*%
X89292500Y-34450000D03*
%TO.P,MCB1,2,GND*%
%TO.N,GND*%
X86752500Y-34450000D03*
%TO.P,MCB1,3,+3.3V*%
%TO.N,Net-(MCB1-+3.3V)*%
X84212500Y-34450000D03*
%TO.P,MCB1,4,GND*%
%TO.N,GND*%
X81672500Y-34450000D03*
%TO.P,MCB1,5,PA8*%
%TO.N,unconnected-(MCB1-PA8-Pad5)*%
X79132500Y-34450000D03*
%TO.P,MCB1,6,PA9*%
%TO.N,Net-(MCB1-PA9)*%
X76592500Y-34450000D03*
%TO.P,MCB1,7,PA10*%
%TO.N,Net-(MCB1-PA10)*%
X74052500Y-34450000D03*
%TO.P,MCB1,8,PA15*%
%TO.N,Net-(MCB1-PA15)*%
X71512500Y-34450000D03*
%TO.P,MCB1,9,PC10*%
%TO.N,Net-(MCB1-PC10)*%
X68972500Y-34450000D03*
%TO.P,MCB1,10,PC11*%
%TO.N,Net-(MCB1-PC11)*%
X66432500Y-34450000D03*
%TO.P,MCB1,11,PC12*%
%TO.N,Net-(MCB1-PC12)*%
X63892500Y-34450000D03*
%TO.P,MCB1,12,PD2*%
%TO.N,Net-(MCB1-PD2)*%
X61352500Y-34450000D03*
%TO.P,MCB1,13,PB4*%
%TO.N,Net-(MCB1-PB4)*%
X58812500Y-34450000D03*
%TO.P,MCB1,14,PB5*%
%TO.N,Net-(MCB1-PB5)*%
X56272500Y-34450000D03*
%TO.P,MCB1,15,PB6*%
%TO.N,Net-(MCB1-PB6)*%
X53732500Y-34450000D03*
%TO.P,MCB1,16,PB7*%
%TO.N,Net-(MCB1-PB7)*%
X51192500Y-34450000D03*
%TO.P,MCB1,17,PB8*%
%TO.N,Net-(MCB1-PB8)*%
X48652500Y-34450000D03*
%TO.P,MCB1,18,PB9*%
%TO.N,Net-(MCB1-PB9)*%
X46112500Y-34450000D03*
%TO.P,MCB1,19,PC13*%
%TO.N,unconnected-(MCB1-PC13-Pad19)*%
X43572500Y-34450000D03*
%TO.P,MCB1,20,PC14*%
%TO.N,unconnected-(MCB1-PC14-Pad20)*%
X41032500Y-34450000D03*
%TO.P,MCB1,21,PC6*%
%TO.N,unconnected-(MCB1-PC6-Pad21)*%
X86752500Y-72550000D03*
%TO.P,MCB1,22,PC7*%
%TO.N,unconnected-(MCB1-PC7-Pad22)*%
X84212500Y-72550000D03*
%TO.P,MCB1,23,PC8*%
%TO.N,unconnected-(MCB1-PC8-Pad23)*%
X81672500Y-72550000D03*
%TO.P,MCB1,24,PC9*%
%TO.N,unconnected-(MCB1-PC9-Pad24)*%
X79132500Y-72550000D03*
%TO.P,MCB1,25,PB15*%
%TO.N,unconnected-(MCB1-PB15-Pad25)*%
X76592500Y-72550000D03*
%TO.P,MCB1,26,PB14*%
%TO.N,unconnected-(MCB1-PB14-Pad26)*%
X74052500Y-72550000D03*
%TO.P,MCB1,27,PB13*%
%TO.N,unconnected-(MCB1-PB13-Pad27)*%
X71512500Y-72550000D03*
%TO.P,MCB1,28,PB12*%
%TO.N,unconnected-(MCB1-PB12-Pad28)*%
X68972500Y-72550000D03*
%TO.P,MCB1,29,PB10*%
%TO.N,unconnected-(MCB1-PB10-Pad29)*%
X66432500Y-72550000D03*
%TO.P,MCB1,30,PB2*%
%TO.N,unconnected-(MCB1-PB2-Pad30)*%
X63892500Y-72550000D03*
%TO.P,MCB1,31,PB1*%
%TO.N,unconnected-(MCB1-PB1-Pad31)*%
X61352500Y-72550000D03*
%TO.P,MCB1,32,PB0*%
%TO.N,unconnected-(MCB1-PB0-Pad32)*%
X58812500Y-72550000D03*
%TO.P,MCB1,33,PC5*%
%TO.N,unconnected-(MCB1-PC5-Pad33)*%
X56272500Y-72550000D03*
%TO.P,MCB1,34,PA4*%
%TO.N,unconnected-(MCB1-PA4-Pad34)*%
X53732500Y-72550000D03*
%TO.P,MCB1,35,PA1*%
%TO.N,unconnected-(MCB1-PA1-Pad35)*%
X51192500Y-72550000D03*
%TO.P,MCB1,36,PA0*%
%TO.N,unconnected-(MCB1-PA0-Pad36)*%
X48652500Y-72550000D03*
%TO.P,MCB1,37,PC3*%
%TO.N,unconnected-(MCB1-PC3-Pad37)*%
X46112500Y-72550000D03*
%TO.P,MCB1,38,PC2*%
%TO.N,unconnected-(MCB1-PC2-Pad38)*%
X43572500Y-72550000D03*
%TO.P,MCB1,39,PC1*%
%TO.N,unconnected-(MCB1-PC1-Pad39)*%
X41032500Y-72550000D03*
%TO.P,MCB1,40,PC0*%
%TO.N,unconnected-(MCB1-PC0-Pad40)*%
X38492500Y-72550000D03*
%TD*%
D10*
%TO.P,J1,1,1*%
%TO.N,Net-(MCB1-PA10)*%
X73500000Y-27200000D03*
D11*
%TO.P,J1,2,2*%
%TO.N,Net-(MCB1-PA9)*%
X76000000Y-27200000D03*
%TO.P,J1,3,3*%
%TO.N,Net-(F8-Pad1)*%
X78500000Y-27200000D03*
%TO.P,J1,4,4*%
%TO.N,GND*%
X81000000Y-27200000D03*
%TD*%
D10*
%TO.P,J6,1,1*%
%TO.N,Net-(F9-Pad1)*%
X31225000Y-59200000D03*
D11*
%TO.P,J6,2,2*%
%TO.N,GND*%
X31225000Y-56700000D03*
%TD*%
D10*
%TO.P,J4,1,1*%
%TO.N,Net-(F1-Pad1)*%
X31225000Y-50700000D03*
D11*
%TO.P,J4,2,2*%
%TO.N,Net-(F2-Pad1)*%
X31225000Y-48200000D03*
%TO.P,J4,3,3*%
%TO.N,Net-(F3-Pad1)*%
X31225000Y-45700000D03*
%TO.P,J4,4,4*%
%TO.N,Net-(F4-Pad1)*%
X31225000Y-43200000D03*
%TO.P,J4,5,5*%
%TO.N,Net-(F5-Pad1)*%
X31225000Y-40700000D03*
%TO.P,J4,6,6*%
%TO.N,Net-(F6-Pad1)*%
X31225000Y-38200000D03*
%TO.P,J4,7,7*%
%TO.N,Net-(F7-Pad1)*%
X31225000Y-35700000D03*
%TD*%
D13*
%TO.P,R1,1,1*%
%TO.N,GND*%
X67500000Y-40200000D03*
%TO.P,R1,2,2*%
%TO.N,Net-(J2-Pad3)*%
X70000000Y-37700000D03*
%TO.P,R1,3,3*%
%TO.N,Net-(MCB1-+3.3V)*%
X72500000Y-40200000D03*
%TD*%
D10*
%TO.P,J10,1,1*%
%TO.N,GND*%
X97000000Y-27200000D03*
D11*
%TO.P,J10,2,2*%
%TO.N,Net-(J10-Pad2)*%
X97000000Y-29700000D03*
%TD*%
D10*
%TO.P,J5,1,1*%
%TO.N,Net-(J5-Pad1)*%
X97000000Y-61700000D03*
D11*
%TO.P,J5,2,2*%
%TO.N,Net-(J5-Pad2)*%
X97000000Y-64200000D03*
%TD*%
D10*
%TO.P,J3,1,1*%
%TO.N,Net-(J10-Pad2)*%
X31225000Y-29700000D03*
D11*
%TO.P,J3,2,2*%
%TO.N,Net-(F1-Pad2)*%
X31225000Y-27200000D03*
%TD*%
D14*
%TO.P,J2,1,1*%
%TO.N,GND*%
X64046200Y-29206600D03*
%TO.P,J2,2,2*%
%TO.N,Net-(MCB1-+3.3V)*%
X64046200Y-27200000D03*
%TO.P,J2,3,3*%
%TO.N,Net-(J2-Pad3)*%
X62039600Y-29206600D03*
%TO.P,J2,4,4*%
%TO.N,Net-(MCB1-PA15)*%
X62039600Y-27200000D03*
%TO.P,J2,5,5*%
%TO.N,Net-(MCB1-PC10)*%
X60033000Y-29206600D03*
%TO.P,J2,6,6*%
%TO.N,Net-(MCB1-PC11)*%
X60033000Y-27200000D03*
%TO.P,J2,7,7*%
%TO.N,Net-(MCB1-PC12)*%
X58026400Y-29206600D03*
%TO.P,J2,8,8*%
%TO.N,Net-(MCB1-PD2)*%
X58026400Y-27200000D03*
%TO.P,J2,9,9*%
%TO.N,Net-(MCB1-PB4)*%
X56019800Y-29206600D03*
%TO.P,J2,10,10*%
%TO.N,Net-(MCB1-PB5)*%
X56019800Y-27200000D03*
%TO.P,J2,11,11*%
%TO.N,Net-(MCB1-PB6)*%
X54013200Y-29206600D03*
%TO.P,J2,12,12*%
%TO.N,Net-(MCB1-PB7)*%
X54013200Y-27200000D03*
%TO.P,J2,13,13*%
%TO.N,Net-(MCB1-PB8)*%
X52006600Y-29206600D03*
%TO.P,J2,14,14*%
%TO.N,Net-(MCB1-PB9)*%
X52006600Y-27200000D03*
%TO.P,J2,15,15*%
%TO.N,GND*%
X50000000Y-29206600D03*
%TO.P,J2,16,16*%
X50000000Y-27200000D03*
%TD*%
D10*
%TO.P,J7,1,1*%
%TO.N,Net-(F8-Pad2)*%
X31250000Y-67700000D03*
D11*
%TO.P,J7,2,2*%
%TO.N,/3.3V_BMS*%
X31250000Y-65200000D03*
%TD*%
D15*
%TO.N,GND*%
X75836000Y-64180000D03*
X73756735Y-64725265D03*
D16*
X54700000Y-65213250D03*
X52500000Y-65913250D03*
X52750000Y-63450000D03*
X54800000Y-62813250D03*
D15*
X72280000Y-66212000D03*
D16*
X54800000Y-59813250D03*
D15*
X69984000Y-63450999D03*
X33500000Y-72200000D03*
X67454000Y-64688000D03*
D16*
X52100000Y-59813250D03*
D15*
%TO.N,+3.3V*%
X34500000Y-73700000D03*
X67454000Y-66212000D03*
D16*
%TO.N,/3.3V_Battery*%
X46250000Y-59806000D03*
X62250000Y-61200000D03*
D15*
%TO.N,Net-(F1-Pad2)*%
X44000000Y-55700000D03*
%TO.N,Net-(F2-Pad2)*%
X44000000Y-53200000D03*
%TO.N,Net-(F3-Pad2)*%
X44000000Y-50700000D03*
%TO.N,Net-(F4-Pad2)*%
X44000000Y-48200000D03*
%TO.N,Net-(F5-Pad2)*%
X44000000Y-45700000D03*
%TO.N,Net-(F6-Pad2)*%
X44000000Y-43200000D03*
%TO.N,Net-(F7-Pad2)*%
X44000000Y-40700000D03*
%TD*%
D17*
%TO.N,Net-(F1-Pad2)*%
X33462436Y-27200000D02*
X31225000Y-27200000D01*
%TO.N,+3.3V*%
X68638627Y-66212000D02*
X77574627Y-57276000D01*
X62582000Y-71084000D02*
X67454000Y-66212000D01*
X97652801Y-57276000D02*
X98576000Y-56352801D01*
X98137000Y-33685000D02*
X90057500Y-33685000D01*
X98576000Y-56352801D02*
X98576000Y-34124000D01*
X35616000Y-71084000D02*
X62582000Y-71084000D01*
X77574627Y-57276000D02*
X97652801Y-57276000D01*
X67454000Y-66212000D02*
X68638627Y-66212000D01*
X98576000Y-34124000D02*
X98137000Y-33685000D01*
X34500000Y-72200000D02*
X34500000Y-73700000D01*
X34500000Y-72200000D02*
X35616000Y-71084000D01*
X90057500Y-33685000D02*
X89292500Y-34450000D01*
D18*
%TO.N,/3.3V_Battery*%
X46250000Y-60450000D02*
X47000000Y-61200000D01*
X47000000Y-61200000D02*
X62250000Y-61200000D01*
X46250000Y-59806000D02*
X46250000Y-60450000D01*
D17*
%TO.N,Net-(F1-Pad2)*%
X36750000Y-30487564D02*
X33462436Y-27200000D01*
X44000000Y-55700000D02*
X44441000Y-55259000D01*
X44441000Y-55259000D02*
X96559000Y-55259000D01*
X42750000Y-56950000D02*
X40250000Y-56950000D01*
X44000000Y-55700000D02*
X42750000Y-56950000D01*
X40250000Y-56950000D02*
X36750000Y-53450000D01*
X36750000Y-53450000D02*
X36750000Y-30487564D01*
D19*
X96559000Y-55259000D02*
X97000000Y-55700000D01*
%TO.N,Net-(MCB1-PC11)*%
X66432500Y-34450000D02*
X65923375Y-34450000D01*
D17*
%TO.N,Net-(F2-Pad2)*%
X44000000Y-53200000D02*
X97000000Y-53200000D01*
%TO.N,Net-(F3-Pad2)*%
X44000000Y-50700000D02*
X97000000Y-50700000D01*
%TO.N,Net-(F4-Pad2)*%
X44000000Y-48200000D02*
X97000000Y-48200000D01*
%TO.N,Net-(F5-Pad2)*%
X44000000Y-45700000D02*
X97000000Y-45700000D01*
%TO.N,Net-(F6-Pad2)*%
X44000000Y-43200000D02*
X97000000Y-43200000D01*
D19*
%TO.N,Net-(F7-Pad2)*%
X96589400Y-41110600D02*
X97000000Y-40700000D01*
D17*
X45000000Y-41700000D02*
X96000000Y-41700000D01*
X44000000Y-40700000D02*
X45000000Y-41700000D01*
X96000000Y-41700000D02*
X96589400Y-41110600D01*
D19*
%TO.N,Net-(MCB1-PB9)*%
X46112500Y-34450000D02*
X46116225Y-34450000D01*
%TD*%
%TA.AperFunction,Conductor*%
%TO.N,GND*%
G36*
X63106173Y-27506157D02*
G01*
X63153784Y-27557294D01*
X63157461Y-27565346D01*
X63194660Y-27655154D01*
X63194665Y-27655163D01*
X63299820Y-27812537D01*
X63299823Y-27812541D01*
X63433658Y-27946376D01*
X63433662Y-27946379D01*
X63486993Y-27982014D01*
X63531798Y-28035626D01*
X63540505Y-28104951D01*
X63510351Y-28167979D01*
X63474398Y-28195600D01*
X63438019Y-28214136D01*
X63438008Y-28214143D01*
X63420220Y-28227065D01*
X63420220Y-28227068D01*
X63993354Y-28800200D01*
X63992696Y-28800200D01*
X63889335Y-28827895D01*
X63796664Y-28881399D01*
X63720999Y-28957064D01*
X63667495Y-29049735D01*
X63639800Y-29153096D01*
X63639800Y-29153752D01*
X63066668Y-28580620D01*
X63066665Y-28580620D01*
X63053743Y-28598408D01*
X63053736Y-28598419D01*
X63035200Y-28634798D01*
X62987225Y-28685594D01*
X62919404Y-28702388D01*
X62853269Y-28679850D01*
X62821614Y-28647393D01*
X62785979Y-28594062D01*
X62785976Y-28594058D01*
X62652141Y-28460223D01*
X62652137Y-28460220D01*
X62494763Y-28355065D01*
X62494754Y-28355060D01*
X62404946Y-28317861D01*
X62350543Y-28274020D01*
X62328478Y-28207726D01*
X62345757Y-28140027D01*
X62396894Y-28092416D01*
X62404946Y-28088739D01*
X62426512Y-28079806D01*
X62494757Y-28051538D01*
X62652138Y-27946379D01*
X62785979Y-27812538D01*
X62891138Y-27655157D01*
X62928339Y-27565345D01*
X62972180Y-27510943D01*
X63038474Y-27488878D01*
X63106173Y-27506157D01*
G37*
%TD.AperFunction*%
%TA.AperFunction,Conductor*%
G36*
X50979531Y-27825978D02*
G01*
X50992466Y-27808176D01*
X51010999Y-27771804D01*
X51058973Y-27721008D01*
X51126794Y-27704212D01*
X51192929Y-27726749D01*
X51224586Y-27759207D01*
X51260220Y-27812537D01*
X51260223Y-27812541D01*
X51394058Y-27946376D01*
X51394062Y-27946379D01*
X51551436Y-28051534D01*
X51551440Y-28051536D01*
X51551443Y-28051538D01*
X51587547Y-28066493D01*
X51641253Y-28088739D01*
X51695656Y-28132580D01*
X51717721Y-28198874D01*
X51700442Y-28266574D01*
X51649304Y-28314184D01*
X51641253Y-28317861D01*
X51551446Y-28355060D01*
X51551436Y-28355065D01*
X51394062Y-28460220D01*
X51394058Y-28460223D01*
X51260223Y-28594058D01*
X51260220Y-28594062D01*
X51224586Y-28647393D01*
X51170974Y-28692198D01*
X51101649Y-28700905D01*
X51038621Y-28670751D01*
X51010999Y-28634797D01*
X50992462Y-28598417D01*
X50979531Y-28580620D01*
X50979531Y-28580619D01*
X50406400Y-29153751D01*
X50406400Y-29153096D01*
X50378705Y-29049735D01*
X50325201Y-28957064D01*
X50249536Y-28881399D01*
X50156865Y-28827895D01*
X50053504Y-28800200D01*
X50052847Y-28800200D01*
X50625978Y-28227067D01*
X50624874Y-28213029D01*
X50624874Y-28193573D01*
X50625978Y-28179531D01*
X50052848Y-27606400D01*
X50053504Y-27606400D01*
X50156865Y-27578705D01*
X50249536Y-27525201D01*
X50325201Y-27449536D01*
X50378705Y-27356865D01*
X50406400Y-27253504D01*
X50406400Y-27252847D01*
X50979531Y-27825978D01*
G37*
%TD.AperFunction*%
%TA.AperFunction,Conductor*%
G36*
X98504418Y-23950816D02*
G01*
X98704561Y-23965130D01*
X98722063Y-23967647D01*
X98913797Y-24009355D01*
X98930755Y-24014334D01*
X99114609Y-24082909D01*
X99130701Y-24090259D01*
X99302904Y-24184288D01*
X99317784Y-24193849D01*
X99474867Y-24311441D01*
X99488237Y-24323027D01*
X99626972Y-24461762D01*
X99638558Y-24475132D01*
X99756146Y-24632210D01*
X99765711Y-24647095D01*
X99859740Y-24819298D01*
X99867090Y-24835390D01*
X99935662Y-25019236D01*
X99940646Y-25036212D01*
X99982351Y-25227931D01*
X99984869Y-25245442D01*
X99999184Y-25445580D01*
X99999500Y-25454427D01*
X99999500Y-74445572D01*
X99999184Y-74454419D01*
X99984869Y-74654557D01*
X99982351Y-74672068D01*
X99940646Y-74863787D01*
X99935662Y-74880763D01*
X99867090Y-75064609D01*
X99859740Y-75080701D01*
X99765711Y-75252904D01*
X99756146Y-75267789D01*
X99638558Y-75424867D01*
X99626972Y-75438237D01*
X99488237Y-75576972D01*
X99474867Y-75588558D01*
X99317789Y-75706146D01*
X99302904Y-75715711D01*
X99130701Y-75809740D01*
X99114609Y-75817090D01*
X98930763Y-75885662D01*
X98913787Y-75890646D01*
X98722068Y-75932351D01*
X98704557Y-75934869D01*
X98523779Y-75947799D01*
X98504417Y-75949184D01*
X98495572Y-75949500D01*
X29254428Y-75949500D01*
X29245582Y-75949184D01*
X29223622Y-75947613D01*
X29045442Y-75934869D01*
X29027931Y-75932351D01*
X28836212Y-75890646D01*
X28819236Y-75885662D01*
X28635390Y-75817090D01*
X28619298Y-75809740D01*
X28447095Y-75715711D01*
X28432210Y-75706146D01*
X28275132Y-75588558D01*
X28261762Y-75576972D01*
X28123027Y-75438237D01*
X28111441Y-75424867D01*
X27993849Y-75267784D01*
X27984288Y-75252904D01*
X27890259Y-75080701D01*
X27882909Y-75064609D01*
X27822091Y-74901551D01*
X27814334Y-74880755D01*
X27809355Y-74863797D01*
X27767647Y-74672063D01*
X27765130Y-74654556D01*
X27750816Y-74454418D01*
X27750500Y-74445572D01*
X27750500Y-65107486D01*
X30074500Y-65107486D01*
X30074500Y-65292513D01*
X30103445Y-65475265D01*
X30160619Y-65651232D01*
X30160620Y-65651235D01*
X30244622Y-65816096D01*
X30353379Y-65965787D01*
X30484213Y-66096621D01*
X30633904Y-66205378D01*
X30798765Y-66289379D01*
X30798767Y-66289379D01*
X30800014Y-66290015D01*
X30850810Y-66337989D01*
X30867605Y-66405810D01*
X30845068Y-66471945D01*
X30790353Y-66515397D01*
X30743719Y-66524500D01*
X30330143Y-66524500D01*
X30330117Y-66524502D01*
X30305012Y-66527413D01*
X30305008Y-66527415D01*
X30202235Y-66572793D01*
X30122794Y-66652234D01*
X30077415Y-66755006D01*
X30077415Y-66755008D01*
X30074500Y-66780131D01*
X30074500Y-68619856D01*
X30074502Y-68619882D01*
X30077413Y-68644987D01*
X30077415Y-68644991D01*
X30122793Y-68747764D01*
X30122794Y-68747765D01*
X30202235Y-68827206D01*
X30305009Y-68872585D01*
X30330135Y-68875500D01*
X32169864Y-68875499D01*
X32169879Y-68875497D01*
X32169882Y-68875497D01*
X32194987Y-68872586D01*
X32194988Y-68872585D01*
X32194991Y-68872585D01*
X32297765Y-68827206D01*
X32377206Y-68747765D01*
X32422585Y-68644991D01*
X32425500Y-68619865D01*
X32425499Y-66780136D01*
X32425497Y-66780117D01*
X32422586Y-66755012D01*
X32422585Y-66755010D01*
X32422585Y-66755009D01*
X32377206Y-66652235D01*
X32297765Y-66572794D01*
X32297763Y-66572793D01*
X32194992Y-66527415D01*
X32169868Y-66524500D01*
X31756281Y-66524500D01*
X31689242Y-66504815D01*
X31643487Y-66452011D01*
X31633543Y-66382853D01*
X31662568Y-66319297D01*
X31699986Y-66290015D01*
X31701232Y-66289379D01*
X31701235Y-66289379D01*
X31866096Y-66205378D01*
X32015787Y-66096621D01*
X32146621Y-65965787D01*
X32255378Y-65816096D01*
X32339379Y-65651235D01*
X32396555Y-65475264D01*
X32425500Y-65292514D01*
X32425500Y-65107486D01*
X32396555Y-64924736D01*
X32339379Y-64748765D01*
X32339379Y-64748764D01*
X32255377Y-64583903D01*
X32146621Y-64434213D01*
X32015787Y-64303379D01*
X31866096Y-64194622D01*
X31701235Y-64110620D01*
X31701232Y-64110619D01*
X31525265Y-64053445D01*
X31433889Y-64038972D01*
X31342514Y-64024500D01*
X31157486Y-64024500D01*
X31096569Y-64034148D01*
X30974734Y-64053445D01*
X30798767Y-64110619D01*
X30798764Y-64110620D01*
X30633903Y-64194622D01*
X30548499Y-64256672D01*
X30484213Y-64303379D01*
X30484211Y-64303381D01*
X30484210Y-64303381D01*
X30353381Y-64434210D01*
X30353381Y-64434211D01*
X30353379Y-64434213D01*
X30323554Y-64475264D01*
X30244622Y-64583903D01*
X30160620Y-64748764D01*
X30160619Y-64748767D01*
X30103445Y-64924734D01*
X30074500Y-65107486D01*
X27750500Y-65107486D01*
X27750500Y-56591779D01*
X29850000Y-56591779D01*
X29850000Y-56808220D01*
X29883857Y-57021981D01*
X29950735Y-57227814D01*
X29950736Y-57227817D01*
X30048996Y-57420660D01*
X30091829Y-57479615D01*
X30091830Y-57479616D01*
X30721624Y-56849822D01*
X30735778Y-56902642D01*
X30804896Y-57022357D01*
X30902643Y-57120104D01*
X31022358Y-57189222D01*
X31075177Y-57203375D01*
X30445382Y-57833168D01*
X30449868Y-57890157D01*
X30445651Y-57890488D01*
X30448639Y-57925064D01*
X30416064Y-57986875D01*
X30355243Y-58021263D01*
X30327101Y-58024500D01*
X30305146Y-58024500D01*
X30305117Y-58024502D01*
X30280012Y-58027413D01*
X30280008Y-58027415D01*
X30177235Y-58072793D01*
X30097794Y-58152234D01*
X30052415Y-58255006D01*
X30052415Y-58255008D01*
X30049500Y-58280131D01*
X30049500Y-60119856D01*
X30049502Y-60119882D01*
X30052413Y-60144987D01*
X30052415Y-60144991D01*
X30097793Y-60247764D01*
X30097794Y-60247765D01*
X30177235Y-60327206D01*
X30280009Y-60372585D01*
X30305135Y-60375500D01*
X32144864Y-60375499D01*
X32144879Y-60375497D01*
X32144882Y-60375497D01*
X32169987Y-60372586D01*
X32169988Y-60372585D01*
X32169991Y-60372585D01*
X32272765Y-60327206D01*
X32352206Y-60247765D01*
X32397585Y-60144991D01*
X32400500Y-60119865D01*
X32400500Y-59870071D01*
X45599499Y-59870071D01*
X45624497Y-59995738D01*
X45624499Y-59995744D01*
X45673533Y-60114124D01*
X45673534Y-60114125D01*
X45673535Y-60114127D01*
X45678600Y-60121708D01*
X45699480Y-60188383D01*
X45699500Y-60190600D01*
X45699500Y-60522475D01*
X45737016Y-60662485D01*
X45809490Y-60788015D01*
X46661985Y-61640510D01*
X46774164Y-61705276D01*
X46787515Y-61712984D01*
X46927525Y-61750500D01*
X61865399Y-61750500D01*
X61932438Y-61770185D01*
X61934252Y-61771373D01*
X61941873Y-61776465D01*
X62060256Y-61825501D01*
X62060260Y-61825501D01*
X62060261Y-61825502D01*
X62185928Y-61850500D01*
X62185931Y-61850500D01*
X62314071Y-61850500D01*
X62398615Y-61833682D01*
X62439744Y-61825501D01*
X62558127Y-61776465D01*
X62567526Y-61770185D01*
X62664671Y-61705275D01*
X62664672Y-61705273D01*
X62755273Y-61614672D01*
X62755276Y-61614669D01*
X62826465Y-61508127D01*
X62875501Y-61389744D01*
X62900500Y-61264069D01*
X62900500Y-61135931D01*
X62900500Y-61135928D01*
X62875502Y-61010261D01*
X62875501Y-61010260D01*
X62875501Y-61010256D01*
X62826465Y-60891873D01*
X62826464Y-60891872D01*
X62826461Y-60891866D01*
X62755276Y-60785331D01*
X62755273Y-60785327D01*
X62664672Y-60694726D01*
X62664668Y-60694723D01*
X62558133Y-60623538D01*
X62558124Y-60623533D01*
X62439744Y-60574499D01*
X62439738Y-60574497D01*
X62314071Y-60549500D01*
X62314069Y-60549500D01*
X62185931Y-60549500D01*
X62185929Y-60549500D01*
X62060261Y-60574497D01*
X62060255Y-60574499D01*
X61941876Y-60623533D01*
X61941873Y-60623534D01*
X61941873Y-60623535D01*
X61934287Y-60628603D01*
X61867611Y-60649480D01*
X61865399Y-60649500D01*
X47279387Y-60649500D01*
X47212348Y-60629815D01*
X47191706Y-60613181D01*
X46844824Y-60266299D01*
X46811339Y-60204976D01*
X46816323Y-60135284D01*
X46824244Y-60119840D01*
X46823596Y-60119494D01*
X46826459Y-60114134D01*
X46826465Y-60114127D01*
X46875501Y-59995744D01*
X46900500Y-59870069D01*
X46900500Y-59741931D01*
X46900500Y-59741928D01*
X46875502Y-59616261D01*
X46875501Y-59616260D01*
X46875501Y-59616256D01*
X46826465Y-59497873D01*
X46826464Y-59497872D01*
X46826461Y-59497866D01*
X46755276Y-59391331D01*
X46755273Y-59391327D01*
X46664672Y-59300726D01*
X46664668Y-59300723D01*
X46558133Y-59229538D01*
X46558124Y-59229533D01*
X46439744Y-59180499D01*
X46439738Y-59180497D01*
X46314071Y-59155500D01*
X46314069Y-59155500D01*
X46185931Y-59155500D01*
X46185929Y-59155500D01*
X46060261Y-59180497D01*
X46060255Y-59180499D01*
X45941875Y-59229533D01*
X45941866Y-59229538D01*
X45835331Y-59300723D01*
X45835327Y-59300726D01*
X45744726Y-59391327D01*
X45744723Y-59391331D01*
X45673538Y-59497866D01*
X45673533Y-59497875D01*
X45624499Y-59616255D01*
X45624497Y-59616261D01*
X45599500Y-59741928D01*
X45599500Y-59741931D01*
X45599500Y-59870069D01*
X45599500Y-59870071D01*
X45599499Y-59870071D01*
X32400500Y-59870071D01*
X32400499Y-59180499D01*
X32400499Y-58280143D01*
X32400499Y-58280136D01*
X32400497Y-58280117D01*
X32397586Y-58255012D01*
X32397585Y-58255010D01*
X32397585Y-58255009D01*
X32352206Y-58152235D01*
X32272765Y-58072794D01*
X32211487Y-58045737D01*
X32169992Y-58027415D01*
X32144868Y-58024500D01*
X32122904Y-58024500D01*
X32055865Y-58004815D01*
X32010110Y-57952011D01*
X32001228Y-57890243D01*
X32000131Y-57890157D01*
X32000514Y-57885279D01*
X32000166Y-57882853D01*
X32000818Y-57881424D01*
X32004616Y-57833168D01*
X31374822Y-57203375D01*
X31427642Y-57189222D01*
X31547357Y-57120104D01*
X31645104Y-57022357D01*
X31714222Y-56902642D01*
X31728374Y-56849822D01*
X32358168Y-57479616D01*
X32358168Y-57479615D01*
X32401006Y-57420656D01*
X32499263Y-57227817D01*
X32499264Y-57227814D01*
X32566142Y-57021981D01*
X32600000Y-56808220D01*
X32600000Y-56591779D01*
X32566142Y-56378018D01*
X32499264Y-56172185D01*
X32499263Y-56172182D01*
X32401005Y-55979342D01*
X32358168Y-55920383D01*
X32358168Y-55920382D01*
X31728374Y-56550176D01*
X31714222Y-56497358D01*
X31645104Y-56377643D01*
X31547357Y-56279896D01*
X31427642Y-56210778D01*
X31374821Y-56196624D01*
X32004616Y-55566830D01*
X32004615Y-55566829D01*
X31945660Y-55523996D01*
X31752817Y-55425736D01*
X31752814Y-55425735D01*
X31546981Y-55358857D01*
X31333220Y-55325000D01*
X31116780Y-55325000D01*
X30903018Y-55358857D01*
X30697185Y-55425735D01*
X30697182Y-55425736D01*
X30504346Y-55523992D01*
X30445383Y-55566830D01*
X31075178Y-56196624D01*
X31022358Y-56210778D01*
X30902643Y-56279896D01*
X30804896Y-56377643D01*
X30735778Y-56497358D01*
X30721624Y-56550177D01*
X30091830Y-55920383D01*
X30048992Y-55979346D01*
X29950736Y-56172182D01*
X29950735Y-56172185D01*
X29883857Y-56378018D01*
X29850000Y-56591779D01*
X27750500Y-56591779D01*
X27750500Y-35607486D01*
X30049500Y-35607486D01*
X30049500Y-35792513D01*
X30078445Y-35975265D01*
X30135619Y-36151232D01*
X30135620Y-36151235D01*
X30219622Y-36316096D01*
X30328379Y-36465787D01*
X30459213Y-36596621D01*
X30608904Y-36705378D01*
X30689763Y-36746577D01*
X30773764Y-36789379D01*
X30773767Y-36789380D01*
X30905151Y-36832069D01*
X30962826Y-36871506D01*
X30990025Y-36935865D01*
X30978110Y-37004711D01*
X30930866Y-37056187D01*
X30905151Y-37067931D01*
X30773767Y-37110619D01*
X30773764Y-37110620D01*
X30608903Y-37194622D01*
X30523499Y-37256672D01*
X30459213Y-37303379D01*
X30459211Y-37303381D01*
X30459210Y-37303381D01*
X30328381Y-37434210D01*
X30328381Y-37434211D01*
X30328379Y-37434213D01*
X30328146Y-37434534D01*
X30219622Y-37583903D01*
X30135620Y-37748764D01*
X30135619Y-37748767D01*
X30078445Y-37924734D01*
X30049500Y-38107486D01*
X30049500Y-38292513D01*
X30078445Y-38475265D01*
X30135619Y-38651232D01*
X30135620Y-38651235D01*
X30219622Y-38816096D01*
X30328379Y-38965787D01*
X30459213Y-39096621D01*
X30608904Y-39205378D01*
X30656054Y-39229402D01*
X30773764Y-39289379D01*
X30773767Y-39289380D01*
X30905151Y-39332069D01*
X30962826Y-39371506D01*
X30990025Y-39435865D01*
X30978110Y-39504711D01*
X30930866Y-39556187D01*
X30905151Y-39567931D01*
X30773767Y-39610619D01*
X30773764Y-39610620D01*
X30608903Y-39694622D01*
X30523499Y-39756672D01*
X30459213Y-39803379D01*
X30459211Y-39803381D01*
X30459210Y-39803381D01*
X30328381Y-39934210D01*
X30328381Y-39934211D01*
X30328379Y-39934213D01*
X30328146Y-39934534D01*
X30219622Y-40083903D01*
X30135620Y-40248764D01*
X30135619Y-40248767D01*
X30078445Y-40424734D01*
X30049500Y-40607486D01*
X30049500Y-40792513D01*
X30078445Y-40975265D01*
X30135619Y-41151232D01*
X30135620Y-41151235D01*
X30219622Y-41316096D01*
X30328379Y-41465787D01*
X30459213Y-41596621D01*
X30608904Y-41705378D01*
X30656054Y-41729402D01*
X30773764Y-41789379D01*
X30773767Y-41789380D01*
X30905151Y-41832069D01*
X30962826Y-41871506D01*
X30990025Y-41935865D01*
X30978110Y-42004711D01*
X30930866Y-42056187D01*
X30905151Y-42067931D01*
X30773767Y-42110619D01*
X30773764Y-42110620D01*
X30608903Y-42194622D01*
X30533864Y-42249142D01*
X30459213Y-42303379D01*
X30459211Y-42303381D01*
X30459210Y-42303381D01*
X30328381Y-42434210D01*
X30328381Y-42434211D01*
X30328379Y-42434213D01*
X30287410Y-42490602D01*
X30219622Y-42583903D01*
X30135620Y-42748764D01*
X30135619Y-42748767D01*
X30078445Y-42924734D01*
X30049500Y-43107486D01*
X30049500Y-43292513D01*
X30078445Y-43475265D01*
X30135619Y-43651232D01*
X30135620Y-43651235D01*
X30219622Y-43816096D01*
X30328379Y-43965787D01*
X30459213Y-44096621D01*
X30608904Y-44205378D01*
X30656054Y-44229402D01*
X30773764Y-44289379D01*
X30773767Y-44289380D01*
X30905151Y-44332069D01*
X30962826Y-44371506D01*
X30990025Y-44435865D01*
X30978110Y-44504711D01*
X30930866Y-44556187D01*
X30905151Y-44567931D01*
X30773767Y-44610619D01*
X30773764Y-44610620D01*
X30608903Y-44694622D01*
X30523499Y-44756672D01*
X30459213Y-44803379D01*
X30459211Y-44803381D01*
X30459210Y-44803381D01*
X30328381Y-44934210D01*
X30328381Y-44934211D01*
X30328379Y-44934213D01*
X30287410Y-44990602D01*
X30219622Y-45083903D01*
X30135620Y-45248764D01*
X30135619Y-45248767D01*
X30078445Y-45424734D01*
X30049500Y-45607486D01*
X30049500Y-45792513D01*
X30078445Y-45975265D01*
X30135619Y-46151232D01*
X30135620Y-46151235D01*
X30219622Y-46316096D01*
X30328379Y-46465787D01*
X30459213Y-46596621D01*
X30608904Y-46705378D01*
X30656054Y-46729402D01*
X30773764Y-46789379D01*
X30773767Y-46789380D01*
X30905151Y-46832069D01*
X30962826Y-46871506D01*
X30990025Y-46935865D01*
X30978110Y-47004711D01*
X30930866Y-47056187D01*
X30905151Y-47067931D01*
X30773767Y-47110619D01*
X30773764Y-47110620D01*
X30608903Y-47194622D01*
X30523499Y-47256672D01*
X30459213Y-47303379D01*
X30459211Y-47303381D01*
X30459210Y-47303381D01*
X30328381Y-47434210D01*
X30328381Y-47434211D01*
X30328379Y-47434213D01*
X30287410Y-47490602D01*
X30219622Y-47583903D01*
X30135620Y-47748764D01*
X30135619Y-47748767D01*
X30078445Y-47924734D01*
X30049500Y-48107486D01*
X30049500Y-48292513D01*
X30078445Y-48475265D01*
X30135619Y-48651232D01*
X30135620Y-48651235D01*
X30219622Y-48816096D01*
X30328379Y-48965787D01*
X30459213Y-49096621D01*
X30608904Y-49205378D01*
X30773765Y-49289379D01*
X30773767Y-49289379D01*
X30775014Y-49290015D01*
X30825810Y-49337989D01*
X30842605Y-49405810D01*
X30820068Y-49471945D01*
X30765353Y-49515397D01*
X30718719Y-49524500D01*
X30305143Y-49524500D01*
X30305117Y-49524502D01*
X30280012Y-49527413D01*
X30280008Y-49527415D01*
X30177235Y-49572793D01*
X30097794Y-49652234D01*
X30052415Y-49755006D01*
X30052415Y-49755008D01*
X30049500Y-49780131D01*
X30049500Y-51619856D01*
X30049502Y-51619882D01*
X30052413Y-51644987D01*
X30052415Y-51644991D01*
X30097793Y-51747764D01*
X30097794Y-51747765D01*
X30177235Y-51827206D01*
X30280009Y-51872585D01*
X30305135Y-51875500D01*
X32144864Y-51875499D01*
X32144879Y-51875497D01*
X32144882Y-51875497D01*
X32169987Y-51872586D01*
X32169988Y-51872585D01*
X32169991Y-51872585D01*
X32272765Y-51827206D01*
X32352206Y-51747765D01*
X32397585Y-51644991D01*
X32400500Y-51619865D01*
X32400499Y-49780136D01*
X32400497Y-49780117D01*
X32397586Y-49755012D01*
X32397585Y-49755010D01*
X32397585Y-49755009D01*
X32352206Y-49652235D01*
X32272765Y-49572794D01*
X32228944Y-49553445D01*
X32169992Y-49527415D01*
X32144868Y-49524500D01*
X31731281Y-49524500D01*
X31664242Y-49504815D01*
X31618487Y-49452011D01*
X31608543Y-49382853D01*
X31637568Y-49319297D01*
X31674986Y-49290015D01*
X31676232Y-49289379D01*
X31676235Y-49289379D01*
X31841096Y-49205378D01*
X31990787Y-49096621D01*
X32121621Y-48965787D01*
X32230378Y-48816096D01*
X32314379Y-48651235D01*
X32371555Y-48475264D01*
X32400500Y-48292514D01*
X32400500Y-48107486D01*
X32371555Y-47924736D01*
X32314379Y-47748765D01*
X32314379Y-47748764D01*
X32230377Y-47583903D01*
X32226243Y-47578213D01*
X32121621Y-47434213D01*
X31990787Y-47303379D01*
X31841096Y-47194622D01*
X31820204Y-47183977D01*
X31676235Y-47110620D01*
X31676232Y-47110619D01*
X31544848Y-47067931D01*
X31487173Y-47028494D01*
X31459974Y-46964135D01*
X31471888Y-46895289D01*
X31519132Y-46843813D01*
X31544848Y-46832069D01*
X31676232Y-46789380D01*
X31676235Y-46789379D01*
X31681870Y-46786508D01*
X31841096Y-46705378D01*
X31990787Y-46596621D01*
X32121621Y-46465787D01*
X32230378Y-46316096D01*
X32314379Y-46151235D01*
X32371555Y-45975264D01*
X32400500Y-45792514D01*
X32400500Y-45607486D01*
X32371555Y-45424736D01*
X32314379Y-45248765D01*
X32314379Y-45248764D01*
X32230377Y-45083903D01*
X32226243Y-45078213D01*
X32121621Y-44934213D01*
X31990787Y-44803379D01*
X31841096Y-44694622D01*
X31820204Y-44683977D01*
X31676235Y-44610620D01*
X31676232Y-44610619D01*
X31544848Y-44567931D01*
X31487173Y-44528494D01*
X31459974Y-44464135D01*
X31471888Y-44395289D01*
X31519132Y-44343813D01*
X31544848Y-44332069D01*
X31676232Y-44289380D01*
X31676235Y-44289379D01*
X31681870Y-44286508D01*
X31841096Y-44205378D01*
X31990787Y-44096621D01*
X32121621Y-43965787D01*
X32230378Y-43816096D01*
X32314379Y-43651235D01*
X32371555Y-43475264D01*
X32400500Y-43292514D01*
X32400500Y-43107486D01*
X32371555Y-42924736D01*
X32314379Y-42748765D01*
X32314379Y-42748764D01*
X32230377Y-42583903D01*
X32226243Y-42578213D01*
X32121621Y-42434213D01*
X31990787Y-42303379D01*
X31841096Y-42194622D01*
X31676235Y-42110620D01*
X31676232Y-42110619D01*
X31544848Y-42067931D01*
X31487173Y-42028494D01*
X31459974Y-41964135D01*
X31471888Y-41895289D01*
X31519132Y-41843813D01*
X31544848Y-41832069D01*
X31676232Y-41789380D01*
X31676235Y-41789379D01*
X31681870Y-41786508D01*
X31841096Y-41705378D01*
X31990787Y-41596621D01*
X32121621Y-41465787D01*
X32230378Y-41316096D01*
X32314379Y-41151235D01*
X32371555Y-40975264D01*
X32400500Y-40792514D01*
X32400500Y-40607486D01*
X32371555Y-40424736D01*
X32336743Y-40317596D01*
X32314380Y-40248767D01*
X32314379Y-40248764D01*
X32265678Y-40153184D01*
X32230378Y-40083904D01*
X32121621Y-39934213D01*
X31990787Y-39803379D01*
X31841096Y-39694622D01*
X31820204Y-39683977D01*
X31676235Y-39610620D01*
X31676232Y-39610619D01*
X31544848Y-39567931D01*
X31487173Y-39528494D01*
X31459974Y-39464135D01*
X31471888Y-39395289D01*
X31519132Y-39343813D01*
X31544848Y-39332069D01*
X31676232Y-39289380D01*
X31676235Y-39289379D01*
X31681870Y-39286508D01*
X31841096Y-39205378D01*
X31990787Y-39096621D01*
X32121621Y-38965787D01*
X32230378Y-38816096D01*
X32314379Y-38651235D01*
X32371555Y-38475264D01*
X32400500Y-38292514D01*
X32400500Y-38107486D01*
X32371555Y-37924736D01*
X32342967Y-37836750D01*
X32314380Y-37748767D01*
X32314379Y-37748764D01*
X32271577Y-37664763D01*
X32230378Y-37583904D01*
X32121621Y-37434213D01*
X31990787Y-37303379D01*
X31841096Y-37194622D01*
X31841092Y-37194620D01*
X31676235Y-37110620D01*
X31676232Y-37110619D01*
X31544848Y-37067931D01*
X31487173Y-37028494D01*
X31459974Y-36964135D01*
X31471888Y-36895289D01*
X31519132Y-36843813D01*
X31544848Y-36832069D01*
X31676232Y-36789380D01*
X31676235Y-36789379D01*
X31841096Y-36705378D01*
X31990787Y-36596621D01*
X32121621Y-36465787D01*
X32230378Y-36316096D01*
X32314379Y-36151235D01*
X32371555Y-35975264D01*
X32400500Y-35792514D01*
X32400500Y-35607486D01*
X32371555Y-35424736D01*
X32323757Y-35277628D01*
X32314380Y-35248767D01*
X32314379Y-35248764D01*
X32264495Y-35150863D01*
X32230378Y-35083904D01*
X32121621Y-34934213D01*
X31990787Y-34803379D01*
X31841096Y-34694622D01*
X31676235Y-34610620D01*
X31676232Y-34610619D01*
X31500265Y-34553445D01*
X31335918Y-34527415D01*
X31317514Y-34524500D01*
X31132486Y-34524500D01*
X31114082Y-34527415D01*
X30949734Y-34553445D01*
X30773767Y-34610619D01*
X30773764Y-34610620D01*
X30608903Y-34694622D01*
X30523499Y-34756672D01*
X30459213Y-34803379D01*
X30459211Y-34803381D01*
X30459210Y-34803381D01*
X30328381Y-34934210D01*
X30328381Y-34934211D01*
X30328379Y-34934213D01*
X30327376Y-34935594D01*
X30219622Y-35083903D01*
X30135620Y-35248764D01*
X30135619Y-35248767D01*
X30078445Y-35424734D01*
X30049500Y-35607486D01*
X27750500Y-35607486D01*
X27750500Y-27107486D01*
X30049500Y-27107486D01*
X30049500Y-27292514D01*
X30059692Y-27356865D01*
X30078445Y-27475265D01*
X30135619Y-27651232D01*
X30135620Y-27651235D01*
X30215587Y-27808176D01*
X30219622Y-27816096D01*
X30328379Y-27965787D01*
X30459213Y-28096621D01*
X30608904Y-28205378D01*
X30773765Y-28289379D01*
X30773767Y-28289379D01*
X30775014Y-28290015D01*
X30825810Y-28337989D01*
X30842605Y-28405810D01*
X30820068Y-28471945D01*
X30765353Y-28515397D01*
X30718719Y-28524500D01*
X30305143Y-28524500D01*
X30305117Y-28524502D01*
X30280012Y-28527413D01*
X30280008Y-28527415D01*
X30177235Y-28572793D01*
X30097794Y-28652234D01*
X30052415Y-28755006D01*
X30052415Y-28755008D01*
X30049500Y-28780131D01*
X30049500Y-30619856D01*
X30049502Y-30619882D01*
X30052413Y-30644987D01*
X30052415Y-30644991D01*
X30097793Y-30747764D01*
X30097794Y-30747765D01*
X30177235Y-30827206D01*
X30280009Y-30872585D01*
X30305135Y-30875500D01*
X32144864Y-30875499D01*
X32144879Y-30875497D01*
X32144882Y-30875497D01*
X32169987Y-30872586D01*
X32169988Y-30872585D01*
X32169991Y-30872585D01*
X32272765Y-30827206D01*
X32352206Y-30747765D01*
X32397585Y-30644991D01*
X32400500Y-30619865D01*
X32400499Y-28780136D01*
X32398298Y-28761156D01*
X32397586Y-28755012D01*
X32397585Y-28755010D01*
X32397585Y-28755009D01*
X32352206Y-28652235D01*
X32272765Y-28572794D01*
X32201080Y-28541142D01*
X32169992Y-28527415D01*
X32144868Y-28524500D01*
X31731281Y-28524500D01*
X31664242Y-28504815D01*
X31618487Y-28452011D01*
X31608543Y-28382853D01*
X31637568Y-28319297D01*
X31674986Y-28290015D01*
X31676232Y-28289379D01*
X31676235Y-28289379D01*
X31841096Y-28205378D01*
X31990787Y-28096621D01*
X32050589Y-28036819D01*
X32111912Y-28003334D01*
X32138270Y-28000500D01*
X33079496Y-28000500D01*
X33146535Y-28020185D01*
X33167177Y-28036819D01*
X35913181Y-30782823D01*
X35946666Y-30844146D01*
X35949500Y-30870504D01*
X35949500Y-53528846D01*
X35980261Y-53683489D01*
X35980264Y-53683501D01*
X36040602Y-53829172D01*
X36040609Y-53829185D01*
X36128210Y-53960288D01*
X36128213Y-53960292D01*
X39628211Y-57460289D01*
X39739711Y-57571789D01*
X39870821Y-57659394D01*
X39973833Y-57702062D01*
X40016502Y-57719737D01*
X40171152Y-57750499D01*
X40171155Y-57750500D01*
X40171157Y-57750500D01*
X42828844Y-57750500D01*
X42828845Y-57750499D01*
X42983497Y-57719737D01*
X43129179Y-57659394D01*
X43260289Y-57571789D01*
X44621789Y-56210289D01*
X44736259Y-56095819D01*
X44797582Y-56062334D01*
X44823940Y-56059500D01*
X95790723Y-56059500D01*
X95857762Y-56079185D01*
X95903517Y-56131989D01*
X95908654Y-56145183D01*
X95910618Y-56151229D01*
X95910620Y-56151235D01*
X95959137Y-56246453D01*
X95983978Y-56295206D01*
X95996874Y-56363874D01*
X95970598Y-56428614D01*
X95913492Y-56468872D01*
X95873493Y-56475500D01*
X77495781Y-56475500D01*
X77341136Y-56506261D01*
X77341124Y-56506264D01*
X77298459Y-56523936D01*
X77298460Y-56523937D01*
X77195450Y-56566604D01*
X77195441Y-56566609D01*
X77064339Y-56654209D01*
X77064337Y-56654212D01*
X68343368Y-65375181D01*
X68282045Y-65408666D01*
X68255687Y-65411500D01*
X67375154Y-65411500D01*
X67220509Y-65442261D01*
X67220497Y-65442264D01*
X67177832Y-65459936D01*
X67177833Y-65459937D01*
X67074823Y-65502604D01*
X67074814Y-65502609D01*
X66943712Y-65590209D01*
X66943710Y-65590212D01*
X62286741Y-70247181D01*
X62225418Y-70280666D01*
X62199060Y-70283500D01*
X35537154Y-70283500D01*
X35382509Y-70314261D01*
X35382497Y-70314264D01*
X35339832Y-70331936D01*
X35339833Y-70331937D01*
X35236823Y-70374604D01*
X35236814Y-70374609D01*
X35105712Y-70462209D01*
X35105711Y-70462211D01*
X35105710Y-70462212D01*
X33989711Y-71578211D01*
X33933960Y-71633962D01*
X33878209Y-71689712D01*
X33790609Y-71820814D01*
X33790602Y-71820827D01*
X33730264Y-71966498D01*
X33730261Y-71966510D01*
X33699500Y-72121153D01*
X33699500Y-73778846D01*
X33730261Y-73933489D01*
X33730264Y-73933501D01*
X33790602Y-74079172D01*
X33790609Y-74079185D01*
X33878210Y-74210288D01*
X33878213Y-74210292D01*
X33989707Y-74321786D01*
X33989711Y-74321789D01*
X34120814Y-74409390D01*
X34120827Y-74409397D01*
X34266498Y-74469735D01*
X34266503Y-74469737D01*
X34421153Y-74500499D01*
X34421156Y-74500500D01*
X34421158Y-74500500D01*
X34578844Y-74500500D01*
X34578845Y-74500499D01*
X34733497Y-74469737D01*
X34879179Y-74409394D01*
X35010289Y-74321789D01*
X35121789Y-74210289D01*
X35209394Y-74079179D01*
X35269737Y-73933497D01*
X35300500Y-73778842D01*
X35300500Y-72582940D01*
X35320185Y-72515901D01*
X35336819Y-72495259D01*
X35911259Y-71920819D01*
X35972582Y-71887334D01*
X35998940Y-71884500D01*
X37429292Y-71884500D01*
X37496331Y-71904185D01*
X37542086Y-71956989D01*
X37552030Y-72026147D01*
X37543853Y-72055953D01*
X37467947Y-72239204D01*
X37467945Y-72239210D01*
X37427000Y-72445054D01*
X37427000Y-72445057D01*
X37427000Y-72654943D01*
X37427000Y-72654945D01*
X37426999Y-72654945D01*
X37467945Y-72860789D01*
X37467947Y-72860795D01*
X37548265Y-73054701D01*
X37664873Y-73229218D01*
X37813281Y-73377626D01*
X37987798Y-73494234D01*
X38084751Y-73534393D01*
X38181705Y-73574553D01*
X38181709Y-73574553D01*
X38181710Y-73574554D01*
X38387554Y-73615500D01*
X38387557Y-73615500D01*
X38597445Y-73615500D01*
X38735933Y-73587952D01*
X38803295Y-73574553D01*
X38997203Y-73494233D01*
X39171716Y-73377628D01*
X39320128Y-73229216D01*
X39436733Y-73054703D01*
X39517053Y-72860795D01*
X39558000Y-72654943D01*
X39558000Y-72445057D01*
X39558000Y-72445054D01*
X39517054Y-72239210D01*
X39517053Y-72239209D01*
X39517053Y-72239205D01*
X39441147Y-72055953D01*
X39433678Y-71986484D01*
X39464953Y-71924004D01*
X39525042Y-71888352D01*
X39555708Y-71884500D01*
X39969292Y-71884500D01*
X40036331Y-71904185D01*
X40082086Y-71956989D01*
X40092030Y-72026147D01*
X40083853Y-72055953D01*
X40007947Y-72239204D01*
X40007945Y-72239210D01*
X39967000Y-72445054D01*
X39967000Y-72445057D01*
X39967000Y-72654943D01*
X39967000Y-72654945D01*
X39966999Y-72654945D01*
X40007945Y-72860789D01*
X40007947Y-72860795D01*
X40088265Y-73054701D01*
X40204873Y-73229218D01*
X40353281Y-73377626D01*
X40527798Y-73494234D01*
X40624751Y-73534393D01*
X40721705Y-73574553D01*
X40721709Y-73574553D01*
X40721710Y-73574554D01*
X40927554Y-73615500D01*
X40927557Y-73615500D01*
X41137445Y-73615500D01*
X41275933Y-73587952D01*
X41343295Y-73574553D01*
X41537203Y-73494233D01*
X41711716Y-73377628D01*
X41860128Y-73229216D01*
X41976733Y-73054703D01*
X42057053Y-72860795D01*
X42098000Y-72654943D01*
X42098000Y-72445057D01*
X42098000Y-72445054D01*
X42057054Y-72239210D01*
X42057053Y-72239209D01*
X42057053Y-72239205D01*
X41981147Y-72055953D01*
X41973678Y-71986484D01*
X42004953Y-71924004D01*
X42065042Y-71888352D01*
X42095708Y-71884500D01*
X42509292Y-71884500D01*
X42576331Y-71904185D01*
X42622086Y-71956989D01*
X42632030Y-72026147D01*
X42623853Y-72055953D01*
X42547947Y-72239204D01*
X42547945Y-72239210D01*
X42507000Y-72445054D01*
X42507000Y-72445057D01*
X42507000Y-72654943D01*
X42507000Y-72654945D01*
X42506999Y-72654945D01*
X42547945Y-72860789D01*
X42547947Y-72860795D01*
X42628265Y-73054701D01*
X42744873Y-73229218D01*
X42893281Y-73377626D01*
X43067798Y-73494234D01*
X43164751Y-73534393D01*
X43261705Y-73574553D01*
X43261709Y-73574553D01*
X43261710Y-73574554D01*
X43467554Y-73615500D01*
X43467557Y-73615500D01*
X43677445Y-73615500D01*
X43815933Y-73587952D01*
X43883295Y-73574553D01*
X44077203Y-73494233D01*
X44251716Y-73377628D01*
X44400128Y-73229216D01*
X44516733Y-73054703D01*
X44597053Y-72860795D01*
X44638000Y-72654943D01*
X44638000Y-72445057D01*
X44638000Y-72445054D01*
X44597054Y-72239210D01*
X44597053Y-72239209D01*
X44597053Y-72239205D01*
X44521147Y-72055953D01*
X44513678Y-71986484D01*
X44544953Y-71924004D01*
X44605042Y-71888352D01*
X44635708Y-71884500D01*
X45049292Y-71884500D01*
X45116331Y-71904185D01*
X45162086Y-71956989D01*
X45172030Y-72026147D01*
X45163853Y-72055953D01*
X45087947Y-72239204D01*
X45087945Y-72239210D01*
X45047000Y-72445054D01*
X45047000Y-72445057D01*
X45047000Y-72654943D01*
X45047000Y-72654945D01*
X45046999Y-72654945D01*
X45087945Y-72860789D01*
X45087947Y-72860795D01*
X45168265Y-73054701D01*
X45284873Y-73229218D01*
X45433281Y-73377626D01*
X45607798Y-73494234D01*
X45704751Y-73534393D01*
X45801705Y-73574553D01*
X45801709Y-73574553D01*
X45801710Y-73574554D01*
X46007554Y-73615500D01*
X46007557Y-73615500D01*
X46217445Y-73615500D01*
X46355933Y-73587952D01*
X46423295Y-73574553D01*
X46617203Y-73494233D01*
X46791716Y-73377628D01*
X46940128Y-73229216D01*
X47056733Y-73054703D01*
X47137053Y-72860795D01*
X47178000Y-72654943D01*
X47178000Y-72445057D01*
X47178000Y-72445054D01*
X47137054Y-72239210D01*
X47137053Y-72239209D01*
X47137053Y-72239205D01*
X47061147Y-72055953D01*
X47053678Y-71986484D01*
X47084953Y-71924004D01*
X47145042Y-71888352D01*
X47175708Y-71884500D01*
X47589292Y-71884500D01*
X47656331Y-71904185D01*
X47702086Y-71956989D01*
X47712030Y-72026147D01*
X47703853Y-72055953D01*
X47627947Y-72239204D01*
X47627945Y-72239210D01*
X47587000Y-72445054D01*
X47587000Y-72445057D01*
X47587000Y-72654943D01*
X47587000Y-72654945D01*
X47586999Y-72654945D01*
X47627945Y-72860789D01*
X47627947Y-72860795D01*
X47708265Y-73054701D01*
X47824873Y-73229218D01*
X47973281Y-73377626D01*
X48147798Y-73494234D01*
X48244751Y-73534393D01*
X48341705Y-73574553D01*
X48341709Y-73574553D01*
X48341710Y-73574554D01*
X48547554Y-73615500D01*
X48547557Y-73615500D01*
X48757445Y-73615500D01*
X48895933Y-73587952D01*
X48963295Y-73574553D01*
X49157203Y-73494233D01*
X49331716Y-73377628D01*
X49480128Y-73229216D01*
X49596733Y-73054703D01*
X49677053Y-72860795D01*
X49718000Y-72654943D01*
X49718000Y-72445057D01*
X49718000Y-72445054D01*
X49677054Y-72239210D01*
X49677053Y-72239209D01*
X49677053Y-72239205D01*
X49601147Y-72055953D01*
X49593678Y-71986484D01*
X49624953Y-71924004D01*
X49685042Y-71888352D01*
X49715708Y-71884500D01*
X50129292Y-71884500D01*
X50196331Y-71904185D01*
X50242086Y-71956989D01*
X50252030Y-72026147D01*
X50243853Y-72055953D01*
X50167947Y-72239204D01*
X50167945Y-72239210D01*
X50127000Y-72445054D01*
X50127000Y-72445057D01*
X50127000Y-72654943D01*
X50127000Y-72654945D01*
X50126999Y-72654945D01*
X50167945Y-72860789D01*
X50167947Y-72860795D01*
X50248265Y-73054701D01*
X50364873Y-73229218D01*
X50513281Y-73377626D01*
X50687798Y-73494234D01*
X50784751Y-73534393D01*
X50881705Y-73574553D01*
X50881709Y-73574553D01*
X50881710Y-73574554D01*
X51087554Y-73615500D01*
X51087557Y-73615500D01*
X51297445Y-73615500D01*
X51435933Y-73587952D01*
X51503295Y-73574553D01*
X51697203Y-73494233D01*
X51871716Y-73377628D01*
X52020128Y-73229216D01*
X52136733Y-73054703D01*
X52217053Y-72860795D01*
X52258000Y-72654943D01*
X52258000Y-72445057D01*
X52258000Y-72445054D01*
X52217054Y-72239210D01*
X52217053Y-72239209D01*
X52217053Y-72239205D01*
X52141147Y-72055953D01*
X52133678Y-71986484D01*
X52164953Y-71924004D01*
X52225042Y-71888352D01*
X52255708Y-71884500D01*
X52669292Y-71884500D01*
X52736331Y-71904185D01*
X52782086Y-71956989D01*
X52792030Y-72026147D01*
X52783853Y-72055953D01*
X52707947Y-72239204D01*
X52707945Y-72239210D01*
X52667000Y-72445054D01*
X52667000Y-72445057D01*
X52667000Y-72654943D01*
X52667000Y-72654945D01*
X52666999Y-72654945D01*
X52707945Y-72860789D01*
X52707947Y-72860795D01*
X52788265Y-73054701D01*
X52904873Y-73229218D01*
X53053281Y-73377626D01*
X53227798Y-73494234D01*
X53324751Y-73534393D01*
X53421705Y-73574553D01*
X53421709Y-73574553D01*
X53421710Y-73574554D01*
X53627554Y-73615500D01*
X53627557Y-73615500D01*
X53837445Y-73615500D01*
X53975933Y-73587952D01*
X54043295Y-73574553D01*
X54237203Y-73494233D01*
X54411716Y-73377628D01*
X54560128Y-73229216D01*
X54676733Y-73054703D01*
X54757053Y-72860795D01*
X54798000Y-72654943D01*
X54798000Y-72445057D01*
X54798000Y-72445054D01*
X54757054Y-72239210D01*
X54757053Y-72239209D01*
X54757053Y-72239205D01*
X54681147Y-72055953D01*
X54673678Y-71986484D01*
X54704953Y-71924004D01*
X54765042Y-71888352D01*
X54795708Y-71884500D01*
X55209292Y-71884500D01*
X55276331Y-71904185D01*
X55322086Y-71956989D01*
X55332030Y-72026147D01*
X55323853Y-72055953D01*
X55247947Y-72239204D01*
X55247945Y-72239210D01*
X55207000Y-72445054D01*
X55207000Y-72445057D01*
X55207000Y-72654943D01*
X55207000Y-72654945D01*
X55206999Y-72654945D01*
X55247945Y-72860789D01*
X55247947Y-72860795D01*
X55328265Y-73054701D01*
X55444873Y-73229218D01*
X55593281Y-73377626D01*
X55767798Y-73494234D01*
X55864751Y-73534393D01*
X55961705Y-73574553D01*
X55961709Y-73574553D01*
X55961710Y-73574554D01*
X56167554Y-73615500D01*
X56167557Y-73615500D01*
X56377445Y-73615500D01*
X56515933Y-73587952D01*
X56583295Y-73574553D01*
X56777203Y-73494233D01*
X56951716Y-73377628D01*
X57100128Y-73229216D01*
X57216733Y-73054703D01*
X57297053Y-72860795D01*
X57338000Y-72654943D01*
X57338000Y-72445057D01*
X57338000Y-72445054D01*
X57297054Y-72239210D01*
X57297053Y-72239209D01*
X57297053Y-72239205D01*
X57221147Y-72055953D01*
X57213678Y-71986484D01*
X57244953Y-71924004D01*
X57305042Y-71888352D01*
X57335708Y-71884500D01*
X57749292Y-71884500D01*
X57816331Y-71904185D01*
X57862086Y-71956989D01*
X57872030Y-72026147D01*
X57863853Y-72055953D01*
X57787947Y-72239204D01*
X57787945Y-72239210D01*
X57747000Y-72445054D01*
X57747000Y-72445057D01*
X57747000Y-72654943D01*
X57747000Y-72654945D01*
X57746999Y-72654945D01*
X57787945Y-72860789D01*
X57787947Y-72860795D01*
X57868265Y-73054701D01*
X57984873Y-73229218D01*
X58133281Y-73377626D01*
X58307798Y-73494234D01*
X58404751Y-73534393D01*
X58501705Y-73574553D01*
X58501709Y-73574553D01*
X58501710Y-73574554D01*
X58707554Y-73615500D01*
X58707557Y-73615500D01*
X58917445Y-73615500D01*
X59055933Y-73587952D01*
X59123295Y-73574553D01*
X59317203Y-73494233D01*
X59491716Y-73377628D01*
X59640128Y-73229216D01*
X59756733Y-73054703D01*
X59837053Y-72860795D01*
X59878000Y-72654943D01*
X59878000Y-72445057D01*
X59878000Y-72445054D01*
X59837054Y-72239210D01*
X59837053Y-72239209D01*
X59837053Y-72239205D01*
X59761147Y-72055953D01*
X59753678Y-71986484D01*
X59784953Y-71924004D01*
X59845042Y-71888352D01*
X59875708Y-71884500D01*
X60289292Y-71884500D01*
X60356331Y-71904185D01*
X60402086Y-71956989D01*
X60412030Y-72026147D01*
X60403853Y-72055953D01*
X60327947Y-72239204D01*
X60327945Y-72239210D01*
X60287000Y-72445054D01*
X60287000Y-72445057D01*
X60287000Y-72654943D01*
X60287000Y-72654945D01*
X60286999Y-72654945D01*
X60327945Y-72860789D01*
X60327947Y-72860795D01*
X60408265Y-73054701D01*
X60524873Y-73229218D01*
X60673281Y-73377626D01*
X60847798Y-73494234D01*
X60944751Y-73534393D01*
X61041705Y-73574553D01*
X61041709Y-73574553D01*
X61041710Y-73574554D01*
X61247554Y-73615500D01*
X61247557Y-73615500D01*
X61457445Y-73615500D01*
X61595933Y-73587952D01*
X61663295Y-73574553D01*
X61857203Y-73494233D01*
X62031716Y-73377628D01*
X62180128Y-73229216D01*
X62296733Y-73054703D01*
X62377053Y-72860795D01*
X62418000Y-72654943D01*
X62418000Y-72445057D01*
X62418000Y-72445054D01*
X62377054Y-72239210D01*
X62377053Y-72239209D01*
X62377053Y-72239205D01*
X62301147Y-72055953D01*
X62293678Y-71986484D01*
X62324953Y-71924004D01*
X62385042Y-71888352D01*
X62415708Y-71884500D01*
X62660844Y-71884500D01*
X62660845Y-71884499D01*
X62729812Y-71870781D01*
X62821472Y-71852549D01*
X62821965Y-71855030D01*
X62880768Y-71854497D01*
X62939887Y-71891736D01*
X62969488Y-71955025D01*
X62960172Y-72024271D01*
X62950021Y-72042671D01*
X62948267Y-72045296D01*
X62867947Y-72239204D01*
X62867945Y-72239210D01*
X62827000Y-72445054D01*
X62827000Y-72445057D01*
X62827000Y-72654943D01*
X62827000Y-72654945D01*
X62826999Y-72654945D01*
X62867945Y-72860789D01*
X62867947Y-72860795D01*
X62948265Y-73054701D01*
X63064873Y-73229218D01*
X63213281Y-73377626D01*
X63387798Y-73494234D01*
X63484751Y-73534393D01*
X63581705Y-73574553D01*
X63581709Y-73574553D01*
X63581710Y-73574554D01*
X63787554Y-73615500D01*
X63787557Y-73615500D01*
X63997445Y-73615500D01*
X64135933Y-73587952D01*
X64203295Y-73574553D01*
X64397203Y-73494233D01*
X64571716Y-73377628D01*
X64720128Y-73229216D01*
X64836733Y-73054703D01*
X64917053Y-72860795D01*
X64958000Y-72654945D01*
X65366999Y-72654945D01*
X65407945Y-72860789D01*
X65407947Y-72860795D01*
X65488265Y-73054701D01*
X65604873Y-73229218D01*
X65753281Y-73377626D01*
X65927798Y-73494234D01*
X66024751Y-73534393D01*
X66121705Y-73574553D01*
X66121709Y-73574553D01*
X66121710Y-73574554D01*
X66327554Y-73615500D01*
X66327557Y-73615500D01*
X66537445Y-73615500D01*
X66675933Y-73587952D01*
X66743295Y-73574553D01*
X66937203Y-73494233D01*
X67111716Y-73377628D01*
X67260128Y-73229216D01*
X67376733Y-73054703D01*
X67457053Y-72860795D01*
X67498000Y-72654945D01*
X67906999Y-72654945D01*
X67947945Y-72860789D01*
X67947947Y-72860795D01*
X68028265Y-73054701D01*
X68144873Y-73229218D01*
X68293281Y-73377626D01*
X68467798Y-73494234D01*
X68564751Y-73534393D01*
X68661705Y-73574553D01*
X68661709Y-73574553D01*
X68661710Y-73574554D01*
X68867554Y-73615500D01*
X68867557Y-73615500D01*
X69077445Y-73615500D01*
X69215933Y-73587952D01*
X69283295Y-73574553D01*
X69477203Y-73494233D01*
X69651716Y-73377628D01*
X69800128Y-73229216D01*
X69916733Y-73054703D01*
X69997053Y-72860795D01*
X70038000Y-72654945D01*
X70446999Y-72654945D01*
X70487945Y-72860789D01*
X70487947Y-72860795D01*
X70568265Y-73054701D01*
X70684873Y-73229218D01*
X70833281Y-73377626D01*
X71007798Y-73494234D01*
X71104751Y-73534393D01*
X71201705Y-73574553D01*
X71201709Y-73574553D01*
X71201710Y-73574554D01*
X71407554Y-73615500D01*
X71407557Y-73615500D01*
X71617445Y-73615500D01*
X71755933Y-73587952D01*
X71823295Y-73574553D01*
X72017203Y-73494233D01*
X72191716Y-73377628D01*
X72340128Y-73229216D01*
X72456733Y-73054703D01*
X72537053Y-72860795D01*
X72578000Y-72654945D01*
X72986999Y-72654945D01*
X73027945Y-72860789D01*
X73027947Y-72860795D01*
X73108265Y-73054701D01*
X73224873Y-73229218D01*
X73373281Y-73377626D01*
X73547798Y-73494234D01*
X73644751Y-73534393D01*
X73741705Y-73574553D01*
X73741709Y-73574553D01*
X73741710Y-73574554D01*
X73947554Y-73615500D01*
X73947557Y-73615500D01*
X74157445Y-73615500D01*
X74295933Y-73587952D01*
X74363295Y-73574553D01*
X74557203Y-73494233D01*
X74731716Y-73377628D01*
X74880128Y-73229216D01*
X74996733Y-73054703D01*
X75077053Y-72860795D01*
X75118000Y-72654945D01*
X75526999Y-72654945D01*
X75567945Y-72860789D01*
X75567947Y-72860795D01*
X75648265Y-73054701D01*
X75764873Y-73229218D01*
X75913281Y-73377626D01*
X76087798Y-73494234D01*
X76184751Y-73534393D01*
X76281705Y-73574553D01*
X76281709Y-73574553D01*
X76281710Y-73574554D01*
X76487554Y-73615500D01*
X76487557Y-73615500D01*
X76697445Y-73615500D01*
X76835933Y-73587952D01*
X76903295Y-73574553D01*
X77097203Y-73494233D01*
X77271716Y-73377628D01*
X77420128Y-73229216D01*
X77536733Y-73054703D01*
X77617053Y-72860795D01*
X77658000Y-72654945D01*
X78066999Y-72654945D01*
X78107945Y-72860789D01*
X78107947Y-72860795D01*
X78188265Y-73054701D01*
X78304873Y-73229218D01*
X78453281Y-73377626D01*
X78627798Y-73494234D01*
X78724751Y-73534393D01*
X78821705Y-73574553D01*
X78821709Y-73574553D01*
X78821710Y-73574554D01*
X79027554Y-73615500D01*
X79027557Y-73615500D01*
X79237445Y-73615500D01*
X79375933Y-73587952D01*
X79443295Y-73574553D01*
X79637203Y-73494233D01*
X79811716Y-73377628D01*
X79960128Y-73229216D01*
X80076733Y-73054703D01*
X80157053Y-72860795D01*
X80198000Y-72654945D01*
X80606999Y-72654945D01*
X80647945Y-72860789D01*
X80647947Y-72860795D01*
X80728265Y-73054701D01*
X80844873Y-73229218D01*
X80993281Y-73377626D01*
X81167798Y-73494234D01*
X81264751Y-73534393D01*
X81361705Y-73574553D01*
X81361709Y-73574553D01*
X81361710Y-73574554D01*
X81567554Y-73615500D01*
X81567557Y-73615500D01*
X81777445Y-73615500D01*
X81915933Y-73587952D01*
X81983295Y-73574553D01*
X82177203Y-73494233D01*
X82351716Y-73377628D01*
X82500128Y-73229216D01*
X82616733Y-73054703D01*
X82697053Y-72860795D01*
X82738000Y-72654945D01*
X83146999Y-72654945D01*
X83187945Y-72860789D01*
X83187947Y-72860795D01*
X83268265Y-73054701D01*
X83384873Y-73229218D01*
X83533281Y-73377626D01*
X83707798Y-73494234D01*
X83804751Y-73534393D01*
X83901705Y-73574553D01*
X83901709Y-73574553D01*
X83901710Y-73574554D01*
X84107554Y-73615500D01*
X84107557Y-73615500D01*
X84317445Y-73615500D01*
X84455933Y-73587952D01*
X84523295Y-73574553D01*
X84717203Y-73494233D01*
X84891716Y-73377628D01*
X85040128Y-73229216D01*
X85156733Y-73054703D01*
X85237053Y-72860795D01*
X85278000Y-72654945D01*
X85686999Y-72654945D01*
X85727945Y-72860789D01*
X85727947Y-72860795D01*
X85808265Y-73054701D01*
X85924873Y-73229218D01*
X86073281Y-73377626D01*
X86247798Y-73494234D01*
X86344751Y-73534393D01*
X86441705Y-73574553D01*
X86441709Y-73574553D01*
X86441710Y-73574554D01*
X86647554Y-73615500D01*
X86647557Y-73615500D01*
X86857445Y-73615500D01*
X86995933Y-73587952D01*
X87063295Y-73574553D01*
X87257203Y-73494233D01*
X87431716Y-73377628D01*
X87580128Y-73229216D01*
X87696733Y-73054703D01*
X87777053Y-72860795D01*
X87818000Y-72654943D01*
X87818000Y-72445057D01*
X87818000Y-72445054D01*
X87777054Y-72239210D01*
X87777053Y-72239209D01*
X87777053Y-72239205D01*
X87701147Y-72055953D01*
X87696734Y-72045298D01*
X87580126Y-71870781D01*
X87431718Y-71722373D01*
X87257201Y-71605765D01*
X87063295Y-71525447D01*
X87063289Y-71525445D01*
X86857445Y-71484500D01*
X86857443Y-71484500D01*
X86647557Y-71484500D01*
X86647555Y-71484500D01*
X86441710Y-71525445D01*
X86441704Y-71525447D01*
X86247798Y-71605765D01*
X86073281Y-71722373D01*
X85924873Y-71870781D01*
X85808265Y-72045298D01*
X85727947Y-72239204D01*
X85727945Y-72239210D01*
X85687000Y-72445054D01*
X85687000Y-72445057D01*
X85687000Y-72654943D01*
X85687000Y-72654945D01*
X85686999Y-72654945D01*
X85278000Y-72654945D01*
X85278000Y-72654943D01*
X85278000Y-72445057D01*
X85278000Y-72445054D01*
X85237054Y-72239210D01*
X85237053Y-72239209D01*
X85237053Y-72239205D01*
X85161147Y-72055953D01*
X85156734Y-72045298D01*
X85040126Y-71870781D01*
X84891718Y-71722373D01*
X84717201Y-71605765D01*
X84523295Y-71525447D01*
X84523289Y-71525445D01*
X84317445Y-71484500D01*
X84317443Y-71484500D01*
X84107557Y-71484500D01*
X84107555Y-71484500D01*
X83901710Y-71525445D01*
X83901704Y-71525447D01*
X83707798Y-71605765D01*
X83533281Y-71722373D01*
X83384873Y-71870781D01*
X83268265Y-72045298D01*
X83187947Y-72239204D01*
X83187945Y-72239210D01*
X83147000Y-72445054D01*
X83147000Y-72445057D01*
X83147000Y-72654943D01*
X83147000Y-72654945D01*
X83146999Y-72654945D01*
X82738000Y-72654945D01*
X82738000Y-72654943D01*
X82738000Y-72445057D01*
X82738000Y-72445054D01*
X82697054Y-72239210D01*
X82697053Y-72239209D01*
X82697053Y-72239205D01*
X82621147Y-72055953D01*
X82616734Y-72045298D01*
X82500126Y-71870781D01*
X82351718Y-71722373D01*
X82177201Y-71605765D01*
X81983295Y-71525447D01*
X81983289Y-71525445D01*
X81777445Y-71484500D01*
X81777443Y-71484500D01*
X81567557Y-71484500D01*
X81567555Y-71484500D01*
X81361710Y-71525445D01*
X81361704Y-71525447D01*
X81167798Y-71605765D01*
X80993281Y-71722373D01*
X80844873Y-71870781D01*
X80728265Y-72045298D01*
X80647947Y-72239204D01*
X80647945Y-72239210D01*
X80607000Y-72445054D01*
X80607000Y-72445057D01*
X80607000Y-72654943D01*
X80607000Y-72654945D01*
X80606999Y-72654945D01*
X80198000Y-72654945D01*
X80198000Y-72654943D01*
X80198000Y-72445057D01*
X80198000Y-72445054D01*
X80157054Y-72239210D01*
X80157053Y-72239209D01*
X80157053Y-72239205D01*
X80081147Y-72055953D01*
X80076734Y-72045298D01*
X79960126Y-71870781D01*
X79811718Y-71722373D01*
X79637201Y-71605765D01*
X79443295Y-71525447D01*
X79443289Y-71525445D01*
X79237445Y-71484500D01*
X79237443Y-71484500D01*
X79027557Y-71484500D01*
X79027555Y-71484500D01*
X78821710Y-71525445D01*
X78821704Y-71525447D01*
X78627798Y-71605765D01*
X78453281Y-71722373D01*
X78304873Y-71870781D01*
X78188265Y-72045298D01*
X78107947Y-72239204D01*
X78107945Y-72239210D01*
X78067000Y-72445054D01*
X78067000Y-72445057D01*
X78067000Y-72654943D01*
X78067000Y-72654945D01*
X78066999Y-72654945D01*
X77658000Y-72654945D01*
X77658000Y-72654943D01*
X77658000Y-72445057D01*
X77658000Y-72445054D01*
X77617054Y-72239210D01*
X77617053Y-72239209D01*
X77617053Y-72239205D01*
X77541147Y-72055953D01*
X77536734Y-72045298D01*
X77420126Y-71870781D01*
X77271718Y-71722373D01*
X77097201Y-71605765D01*
X76903295Y-71525447D01*
X76903289Y-71525445D01*
X76697445Y-71484500D01*
X76697443Y-71484500D01*
X76487557Y-71484500D01*
X76487555Y-71484500D01*
X76281710Y-71525445D01*
X76281704Y-71525447D01*
X76087798Y-71605765D01*
X75913281Y-71722373D01*
X75764873Y-71870781D01*
X75648265Y-72045298D01*
X75567947Y-72239204D01*
X75567945Y-72239210D01*
X75527000Y-72445054D01*
X75527000Y-72445057D01*
X75527000Y-72654943D01*
X75527000Y-72654945D01*
X75526999Y-72654945D01*
X75118000Y-72654945D01*
X75118000Y-72654943D01*
X75118000Y-72445057D01*
X75118000Y-72445054D01*
X75077054Y-72239210D01*
X75077053Y-72239209D01*
X75077053Y-72239205D01*
X75001147Y-72055953D01*
X74996734Y-72045298D01*
X74880126Y-71870781D01*
X74731718Y-71722373D01*
X74557201Y-71605765D01*
X74363295Y-71525447D01*
X74363289Y-71525445D01*
X74157445Y-71484500D01*
X74157443Y-71484500D01*
X73947557Y-71484500D01*
X73947555Y-71484500D01*
X73741710Y-71525445D01*
X73741704Y-71525447D01*
X73547798Y-71605765D01*
X73373281Y-71722373D01*
X73224873Y-71870781D01*
X73108265Y-72045298D01*
X73027947Y-72239204D01*
X73027945Y-72239210D01*
X72987000Y-72445054D01*
X72987000Y-72445057D01*
X72987000Y-72654943D01*
X72987000Y-72654945D01*
X72986999Y-72654945D01*
X72578000Y-72654945D01*
X72578000Y-72654943D01*
X72578000Y-72445057D01*
X72578000Y-72445054D01*
X72537054Y-72239210D01*
X72537053Y-72239209D01*
X72537053Y-72239205D01*
X72461147Y-72055953D01*
X72456734Y-72045298D01*
X72340126Y-71870781D01*
X72191718Y-71722373D01*
X72017201Y-71605765D01*
X71823295Y-71525447D01*
X71823289Y-71525445D01*
X71617445Y-71484500D01*
X71617443Y-71484500D01*
X71407557Y-71484500D01*
X71407555Y-71484500D01*
X71201710Y-71525445D01*
X71201704Y-71525447D01*
X71007798Y-71605765D01*
X70833281Y-71722373D01*
X70684873Y-71870781D01*
X70568265Y-72045298D01*
X70487947Y-72239204D01*
X70487945Y-72239210D01*
X70447000Y-72445054D01*
X70447000Y-72445057D01*
X70447000Y-72654943D01*
X70447000Y-72654945D01*
X70446999Y-72654945D01*
X70038000Y-72654945D01*
X70038000Y-72654943D01*
X70038000Y-72445057D01*
X70038000Y-72445054D01*
X69997054Y-72239210D01*
X69997053Y-72239209D01*
X69997053Y-72239205D01*
X69921147Y-72055953D01*
X69916734Y-72045298D01*
X69800126Y-71870781D01*
X69651718Y-71722373D01*
X69477201Y-71605765D01*
X69283295Y-71525447D01*
X69283289Y-71525445D01*
X69077445Y-71484500D01*
X69077443Y-71484500D01*
X68867557Y-71484500D01*
X68867555Y-71484500D01*
X68661710Y-71525445D01*
X68661704Y-71525447D01*
X68467798Y-71605765D01*
X68293281Y-71722373D01*
X68144873Y-71870781D01*
X68028265Y-72045298D01*
X67947947Y-72239204D01*
X67947945Y-72239210D01*
X67907000Y-72445054D01*
X67907000Y-72445057D01*
X67907000Y-72654943D01*
X67907000Y-72654945D01*
X67906999Y-72654945D01*
X67498000Y-72654945D01*
X67498000Y-72654943D01*
X67498000Y-72445057D01*
X67498000Y-72445054D01*
X67457054Y-72239210D01*
X67457053Y-72239209D01*
X67457053Y-72239205D01*
X67381147Y-72055953D01*
X67376734Y-72045298D01*
X67260126Y-71870781D01*
X67111718Y-71722373D01*
X66937201Y-71605765D01*
X66743295Y-71525447D01*
X66743289Y-71525445D01*
X66537445Y-71484500D01*
X66537443Y-71484500D01*
X66327557Y-71484500D01*
X66327555Y-71484500D01*
X66121710Y-71525445D01*
X66121704Y-71525447D01*
X65927798Y-71605765D01*
X65753281Y-71722373D01*
X65604873Y-71870781D01*
X65488265Y-72045298D01*
X65407947Y-72239204D01*
X65407945Y-72239210D01*
X65367000Y-72445054D01*
X65367000Y-72445057D01*
X65367000Y-72654943D01*
X65367000Y-72654945D01*
X65366999Y-72654945D01*
X64958000Y-72654945D01*
X64958000Y-72654943D01*
X64958000Y-72445057D01*
X64958000Y-72445054D01*
X64917054Y-72239210D01*
X64917053Y-72239209D01*
X64917053Y-72239205D01*
X64841147Y-72055953D01*
X64836734Y-72045298D01*
X64720126Y-71870781D01*
X64571718Y-71722373D01*
X64397201Y-71605765D01*
X64203295Y-71525447D01*
X64203289Y-71525445D01*
X63997445Y-71484500D01*
X63997443Y-71484500D01*
X63787557Y-71484500D01*
X63787552Y-71484500D01*
X63596806Y-71522442D01*
X63527215Y-71516215D01*
X63472037Y-71473352D01*
X63448793Y-71407462D01*
X63464861Y-71339465D01*
X63484934Y-71313144D01*
X67749259Y-67048819D01*
X67810582Y-67015334D01*
X67836940Y-67012500D01*
X68717471Y-67012500D01*
X68717472Y-67012499D01*
X68872124Y-66981737D01*
X69017806Y-66921394D01*
X69148916Y-66833789D01*
X75202574Y-60780131D01*
X95824500Y-60780131D01*
X95824500Y-62619856D01*
X95824502Y-62619882D01*
X95827413Y-62644987D01*
X95827415Y-62644991D01*
X95872793Y-62747764D01*
X95872794Y-62747765D01*
X95952235Y-62827206D01*
X96055009Y-62872585D01*
X96080135Y-62875500D01*
X96493720Y-62875499D01*
X96560757Y-62895183D01*
X96606512Y-62947987D01*
X96616456Y-63017146D01*
X96587431Y-63080702D01*
X96550014Y-63109983D01*
X96383905Y-63194620D01*
X96279185Y-63270704D01*
X96234213Y-63303379D01*
X96234211Y-63303381D01*
X96234210Y-63303381D01*
X96103381Y-63434210D01*
X96103381Y-63434211D01*
X96103379Y-63434213D01*
X96056672Y-63498499D01*
X95994622Y-63583903D01*
X95910620Y-63748764D01*
X95910619Y-63748767D01*
X95853445Y-63924734D01*
X95824500Y-64107486D01*
X95824500Y-64292513D01*
X95853445Y-64475265D01*
X95910619Y-64651232D01*
X95910620Y-64651235D01*
X95960315Y-64748765D01*
X95994622Y-64816096D01*
X96103379Y-64965787D01*
X96234213Y-65096621D01*
X96383904Y-65205378D01*
X96464763Y-65246577D01*
X96548764Y-65289379D01*
X96548767Y-65289380D01*
X96636750Y-65317967D01*
X96724736Y-65346555D01*
X96907486Y-65375500D01*
X96907487Y-65375500D01*
X97092513Y-65375500D01*
X97092514Y-65375500D01*
X97275264Y-65346555D01*
X97451235Y-65289379D01*
X97616096Y-65205378D01*
X97765787Y-65096621D01*
X97896621Y-64965787D01*
X98005378Y-64816096D01*
X98089379Y-64651235D01*
X98146555Y-64475264D01*
X98175500Y-64292514D01*
X98175500Y-64107486D01*
X98146555Y-63924736D01*
X98089379Y-63748765D01*
X98089379Y-63748764D01*
X98005377Y-63583903D01*
X97896621Y-63434213D01*
X97765787Y-63303379D01*
X97616096Y-63194622D01*
X97451235Y-63110621D01*
X97449985Y-63109984D01*
X97399189Y-63062009D01*
X97382394Y-62994188D01*
X97404931Y-62928053D01*
X97459647Y-62884602D01*
X97506278Y-62875499D01*
X97919864Y-62875499D01*
X97919879Y-62875497D01*
X97919882Y-62875497D01*
X97944987Y-62872586D01*
X97944988Y-62872585D01*
X97944991Y-62872585D01*
X98047765Y-62827206D01*
X98127206Y-62747765D01*
X98172585Y-62644991D01*
X98175500Y-62619865D01*
X98175499Y-60780136D01*
X98175497Y-60780117D01*
X98172586Y-60755012D01*
X98172585Y-60755010D01*
X98172585Y-60755009D01*
X98127206Y-60652235D01*
X98047765Y-60572794D01*
X97995009Y-60549500D01*
X97944992Y-60527415D01*
X97919865Y-60524500D01*
X96080143Y-60524500D01*
X96080117Y-60524502D01*
X96055012Y-60527413D01*
X96055008Y-60527415D01*
X95952235Y-60572793D01*
X95872794Y-60652234D01*
X95827415Y-60755006D01*
X95827415Y-60755008D01*
X95824500Y-60780131D01*
X75202574Y-60780131D01*
X77869886Y-58112819D01*
X77931209Y-58079334D01*
X77957567Y-58076500D01*
X97731645Y-58076500D01*
X97731646Y-58076499D01*
X97886298Y-58045737D01*
X98031980Y-57985394D01*
X98163090Y-57897789D01*
X99197789Y-56863090D01*
X99285394Y-56731980D01*
X99345738Y-56586298D01*
X99376500Y-56431643D01*
X99376500Y-56273958D01*
X99376500Y-34045158D01*
X99345738Y-33890503D01*
X99285394Y-33744821D01*
X99285392Y-33744818D01*
X99285390Y-33744814D01*
X99197789Y-33613711D01*
X99197786Y-33613707D01*
X98647291Y-33063212D01*
X98647288Y-33063210D01*
X98516185Y-32975609D01*
X98516172Y-32975602D01*
X98370501Y-32915264D01*
X98370489Y-32915261D01*
X98215845Y-32884500D01*
X98215842Y-32884500D01*
X90136342Y-32884500D01*
X89978657Y-32884500D01*
X89978654Y-32884500D01*
X89824009Y-32915261D01*
X89823997Y-32915264D01*
X89781332Y-32932936D01*
X89781333Y-32932937D01*
X89678323Y-32975604D01*
X89678314Y-32975609D01*
X89547212Y-33063209D01*
X89547210Y-33063212D01*
X89261486Y-33348935D01*
X89200163Y-33382420D01*
X89189828Y-33384047D01*
X88981710Y-33425445D01*
X88981704Y-33425447D01*
X88787798Y-33505765D01*
X88613281Y-33622373D01*
X88464873Y-33770781D01*
X88348265Y-33945298D01*
X88267947Y-34139204D01*
X88267945Y-34139210D01*
X88245359Y-34252756D01*
X88212974Y-34314667D01*
X88152258Y-34349241D01*
X88082488Y-34345500D01*
X88025816Y-34304634D01*
X88001269Y-34247961D01*
X87986352Y-34153777D01*
X87924820Y-33964405D01*
X87834424Y-33786994D01*
X87806917Y-33749135D01*
X87806917Y-33749134D01*
X87243628Y-34312424D01*
X87227745Y-34253147D01*
X87160602Y-34136853D01*
X87065647Y-34041898D01*
X86949353Y-33974755D01*
X86890074Y-33958871D01*
X87453364Y-33395581D01*
X87453363Y-33395580D01*
X87415508Y-33368077D01*
X87238094Y-33277679D01*
X87048722Y-33216147D01*
X86852063Y-33185000D01*
X86652937Y-33185000D01*
X86456277Y-33216147D01*
X86266905Y-33277679D01*
X86089490Y-33368077D01*
X86051635Y-33395580D01*
X86051635Y-33395581D01*
X86614925Y-33958871D01*
X86555647Y-33974755D01*
X86439353Y-34041898D01*
X86344398Y-34136853D01*
X86277255Y-34253147D01*
X86261371Y-34312425D01*
X85698081Y-33749135D01*
X85698080Y-33749135D01*
X85670577Y-33786990D01*
X85580179Y-33964405D01*
X85518648Y-34153776D01*
X85503730Y-34247963D01*
X85473800Y-34311097D01*
X85414489Y-34348028D01*
X85344626Y-34347030D01*
X85286394Y-34308420D01*
X85259640Y-34252755D01*
X85251301Y-34210837D01*
X85237053Y-34139205D01*
X85164648Y-33964405D01*
X85156734Y-33945298D01*
X85040126Y-33770781D01*
X84891719Y-33622374D01*
X84891711Y-33622368D01*
X84777405Y-33545991D01*
X84777331Y-33545943D01*
X84717203Y-33505767D01*
X84717198Y-33505765D01*
X84523295Y-33425447D01*
X84523289Y-33425445D01*
X84317445Y-33384500D01*
X84317443Y-33384500D01*
X84107557Y-33384500D01*
X84107555Y-33384500D01*
X83901710Y-33425445D01*
X83901704Y-33425447D01*
X83707798Y-33505765D01*
X83533281Y-33622373D01*
X83384873Y-33770781D01*
X83268265Y-33945298D01*
X83187947Y-34139204D01*
X83187945Y-34139210D01*
X83165359Y-34252756D01*
X83132974Y-34314667D01*
X83072258Y-34349241D01*
X83002488Y-34345500D01*
X82945816Y-34304634D01*
X82921269Y-34247961D01*
X82906352Y-34153777D01*
X82844820Y-33964405D01*
X82754424Y-33786994D01*
X82726917Y-33749135D01*
X82726917Y-33749134D01*
X82163628Y-34312424D01*
X82147745Y-34253147D01*
X82080602Y-34136853D01*
X81985647Y-34041898D01*
X81869353Y-33974755D01*
X81810074Y-33958871D01*
X82373364Y-33395581D01*
X82373363Y-33395580D01*
X82335508Y-33368077D01*
X82158094Y-33277679D01*
X81968722Y-33216147D01*
X81772063Y-33185000D01*
X81572937Y-33185000D01*
X81376277Y-33216147D01*
X81186905Y-33277679D01*
X81009490Y-33368077D01*
X80971635Y-33395580D01*
X80971635Y-33395581D01*
X81534925Y-33958871D01*
X81475647Y-33974755D01*
X81359353Y-34041898D01*
X81264398Y-34136853D01*
X81197255Y-34253147D01*
X81181371Y-34312425D01*
X80618081Y-33749135D01*
X80618080Y-33749135D01*
X80590577Y-33786990D01*
X80500179Y-33964405D01*
X80438648Y-34153776D01*
X80423730Y-34247963D01*
X80393800Y-34311097D01*
X80334489Y-34348028D01*
X80264626Y-34347030D01*
X80206394Y-34308420D01*
X80179640Y-34252755D01*
X80171301Y-34210837D01*
X80157053Y-34139205D01*
X80084648Y-33964405D01*
X80076734Y-33945298D01*
X79960126Y-33770781D01*
X79811719Y-33622374D01*
X79811711Y-33622368D01*
X79697405Y-33545991D01*
X79697331Y-33545943D01*
X79637203Y-33505767D01*
X79637198Y-33505765D01*
X79443295Y-33425447D01*
X79443289Y-33425445D01*
X79237445Y-33384500D01*
X79237443Y-33384500D01*
X79027557Y-33384500D01*
X79027555Y-33384500D01*
X78821710Y-33425445D01*
X78821704Y-33425447D01*
X78627798Y-33505765D01*
X78453281Y-33622373D01*
X78304873Y-33770781D01*
X78188265Y-33945298D01*
X78107947Y-34139204D01*
X78107945Y-34139210D01*
X78067000Y-34345054D01*
X78067000Y-34345057D01*
X78067000Y-34554943D01*
X78067000Y-34554945D01*
X78066999Y-34554945D01*
X78107945Y-34760789D01*
X78107947Y-34760795D01*
X78188265Y-34954701D01*
X78304873Y-35129218D01*
X78453281Y-35277626D01*
X78627798Y-35394234D01*
X78701432Y-35424734D01*
X78821705Y-35474553D01*
X78821709Y-35474553D01*
X78821710Y-35474554D01*
X79027554Y-35515500D01*
X79027557Y-35515500D01*
X79237445Y-35515500D01*
X79375933Y-35487952D01*
X79443295Y-35474553D01*
X79637203Y-35394233D01*
X79811716Y-35277628D01*
X79960128Y-35129216D01*
X80076733Y-34954703D01*
X80157053Y-34760795D01*
X80179640Y-34647244D01*
X80212025Y-34585333D01*
X80272740Y-34550759D01*
X80342510Y-34554498D01*
X80399182Y-34595364D01*
X80423730Y-34652037D01*
X80438647Y-34746222D01*
X80500179Y-34935594D01*
X80590577Y-35113008D01*
X80618080Y-35150863D01*
X80618081Y-35150864D01*
X81181371Y-34587574D01*
X81197255Y-34646853D01*
X81264398Y-34763147D01*
X81359353Y-34858102D01*
X81475647Y-34925245D01*
X81534925Y-34941128D01*
X80971634Y-35504417D01*
X81009494Y-35531924D01*
X81186905Y-35622320D01*
X81376277Y-35683852D01*
X81572937Y-35715000D01*
X81772063Y-35715000D01*
X81968722Y-35683852D01*
X82158094Y-35622320D01*
X82335505Y-35531924D01*
X82373363Y-35504418D01*
X82373363Y-35504417D01*
X81810074Y-34941128D01*
X81869353Y-34925245D01*
X81985647Y-34858102D01*
X82080602Y-34763147D01*
X82147745Y-34646853D01*
X82163628Y-34587574D01*
X82726917Y-35150863D01*
X82726918Y-35150863D01*
X82754424Y-35113005D01*
X82844820Y-34935594D01*
X82906352Y-34746222D01*
X82921269Y-34652038D01*
X82951198Y-34588903D01*
X83010509Y-34551971D01*
X83080372Y-34552969D01*
X83138604Y-34591578D01*
X83165359Y-34647243D01*
X83187945Y-34760789D01*
X83187947Y-34760795D01*
X83268265Y-34954701D01*
X83384873Y-35129218D01*
X83533281Y-35277626D01*
X83707798Y-35394234D01*
X83781432Y-35424734D01*
X83901705Y-35474553D01*
X83901709Y-35474553D01*
X83901710Y-35474554D01*
X84107554Y-35515500D01*
X84107557Y-35515500D01*
X84317445Y-35515500D01*
X84455933Y-35487952D01*
X84523295Y-35474553D01*
X84717203Y-35394233D01*
X84891716Y-35277628D01*
X85040128Y-35129216D01*
X85156733Y-34954703D01*
X85237053Y-34760795D01*
X85259640Y-34647244D01*
X85292025Y-34585333D01*
X85352740Y-34550759D01*
X85422510Y-34554498D01*
X85479182Y-34595364D01*
X85503730Y-34652037D01*
X85518647Y-34746222D01*
X85580179Y-34935594D01*
X85670577Y-35113008D01*
X85698080Y-35150863D01*
X85698081Y-35150864D01*
X86261371Y-34587574D01*
X86277255Y-34646853D01*
X86344398Y-34763147D01*
X86439353Y-34858102D01*
X86555647Y-34925245D01*
X86614925Y-34941128D01*
X86051634Y-35504417D01*
X86089494Y-35531924D01*
X86266905Y-35622320D01*
X86456277Y-35683852D01*
X86652937Y-35715000D01*
X86852063Y-35715000D01*
X87048722Y-35683852D01*
X87238094Y-35622320D01*
X87415505Y-35531924D01*
X87453363Y-35504418D01*
X87453363Y-35504417D01*
X86890074Y-34941128D01*
X86949353Y-34925245D01*
X87065647Y-34858102D01*
X87160602Y-34763147D01*
X87227745Y-34646853D01*
X87243628Y-34587574D01*
X87806917Y-35150863D01*
X87806918Y-35150863D01*
X87834424Y-35113005D01*
X87924820Y-34935594D01*
X87986352Y-34746222D01*
X88001269Y-34652038D01*
X88031198Y-34588903D01*
X88090509Y-34551971D01*
X88160372Y-34552969D01*
X88218604Y-34591578D01*
X88245359Y-34647243D01*
X88267945Y-34760789D01*
X88267947Y-34760795D01*
X88348265Y-34954701D01*
X88464873Y-35129218D01*
X88613281Y-35277626D01*
X88787798Y-35394234D01*
X88861432Y-35424734D01*
X88981705Y-35474553D01*
X88981709Y-35474553D01*
X88981710Y-35474554D01*
X89187554Y-35515500D01*
X89187557Y-35515500D01*
X89397445Y-35515500D01*
X89535933Y-35487952D01*
X89603295Y-35474553D01*
X89797203Y-35394233D01*
X89971716Y-35277628D01*
X90120128Y-35129216D01*
X90236733Y-34954703D01*
X90317053Y-34760795D01*
X90351960Y-34585309D01*
X90384345Y-34523398D01*
X90445061Y-34488824D01*
X90473577Y-34485500D01*
X95756114Y-34485500D01*
X95823153Y-34505185D01*
X95868908Y-34557989D01*
X95878852Y-34627147D01*
X95869548Y-34659587D01*
X95827415Y-34755006D01*
X95827415Y-34755008D01*
X95824500Y-34780131D01*
X95824500Y-36619856D01*
X95824502Y-36619882D01*
X95827413Y-36644987D01*
X95827415Y-36644991D01*
X95872793Y-36747764D01*
X95872794Y-36747765D01*
X95952235Y-36827206D01*
X96055009Y-36872585D01*
X96080135Y-36875500D01*
X96493720Y-36875499D01*
X96560757Y-36895183D01*
X96606512Y-36947987D01*
X96616456Y-37017146D01*
X96587431Y-37080702D01*
X96550014Y-37109983D01*
X96383905Y-37194620D01*
X96281671Y-37268899D01*
X96234213Y-37303379D01*
X96234211Y-37303381D01*
X96234210Y-37303381D01*
X96103381Y-37434210D01*
X96103381Y-37434211D01*
X96103379Y-37434213D01*
X96103146Y-37434534D01*
X95994622Y-37583903D01*
X95910620Y-37748764D01*
X95910619Y-37748767D01*
X95853445Y-37924734D01*
X95824500Y-38107486D01*
X95824500Y-38292513D01*
X95853445Y-38475265D01*
X95910619Y-38651232D01*
X95910620Y-38651235D01*
X95994622Y-38816096D01*
X96103379Y-38965787D01*
X96234213Y-39096621D01*
X96383904Y-39205378D01*
X96431054Y-39229402D01*
X96548764Y-39289379D01*
X96548767Y-39289380D01*
X96680151Y-39332069D01*
X96737826Y-39371506D01*
X96765025Y-39435865D01*
X96753110Y-39504711D01*
X96705866Y-39556187D01*
X96680151Y-39567931D01*
X96548767Y-39610619D01*
X96548764Y-39610620D01*
X96383903Y-39694622D01*
X96298499Y-39756672D01*
X96234213Y-39803379D01*
X96234211Y-39803381D01*
X96234210Y-39803381D01*
X96103381Y-39934210D01*
X96103381Y-39934211D01*
X96103379Y-39934213D01*
X96103146Y-39934534D01*
X95994622Y-40083903D01*
X95910620Y-40248764D01*
X95910619Y-40248767D01*
X95853445Y-40424734D01*
X95824500Y-40607486D01*
X95824500Y-40692060D01*
X95815855Y-40721500D01*
X95809332Y-40751487D01*
X95805577Y-40756502D01*
X95804815Y-40759099D01*
X95788181Y-40779741D01*
X95704741Y-40863181D01*
X95643418Y-40896666D01*
X95617060Y-40899500D01*
X73359166Y-40899500D01*
X73292127Y-40879815D01*
X73246372Y-40827011D01*
X73236428Y-40757853D01*
X73256064Y-40706609D01*
X73306517Y-40631100D01*
X73306517Y-40631099D01*
X73306521Y-40631094D01*
X73375126Y-40465466D01*
X73376247Y-40459833D01*
X73410099Y-40289641D01*
X73410100Y-40289638D01*
X73410100Y-40110362D01*
X73410099Y-40110358D01*
X73375128Y-39934541D01*
X73375125Y-39934532D01*
X73360614Y-39899500D01*
X73357974Y-39893127D01*
X73306524Y-39768912D01*
X73306517Y-39768899D01*
X73206921Y-39619845D01*
X73206918Y-39619841D01*
X73080158Y-39493081D01*
X73080154Y-39493078D01*
X72931100Y-39393482D01*
X72931087Y-39393475D01*
X72765467Y-39324874D01*
X72765458Y-39324871D01*
X72589641Y-39289900D01*
X72589637Y-39289900D01*
X72410363Y-39289900D01*
X72410358Y-39289900D01*
X72234541Y-39324871D01*
X72234532Y-39324874D01*
X72068912Y-39393475D01*
X72068899Y-39393482D01*
X71919845Y-39493078D01*
X71919841Y-39493081D01*
X71793081Y-39619841D01*
X71793078Y-39619845D01*
X71693482Y-39768899D01*
X71693475Y-39768912D01*
X71624874Y-39934532D01*
X71624871Y-39934541D01*
X71589900Y-40110358D01*
X71589900Y-40289641D01*
X71624871Y-40465458D01*
X71624874Y-40465467D01*
X71693475Y-40631087D01*
X71693482Y-40631100D01*
X71743936Y-40706609D01*
X71764814Y-40773287D01*
X71746330Y-40840667D01*
X71694351Y-40887357D01*
X71640834Y-40899500D01*
X68591270Y-40899500D01*
X68524231Y-40879815D01*
X68478476Y-40827011D01*
X68468532Y-40757853D01*
X68480786Y-40719205D01*
X68528305Y-40625943D01*
X68528307Y-40625939D01*
X68582277Y-40459833D01*
X68609600Y-40287332D01*
X68609600Y-40112667D01*
X68582277Y-39940166D01*
X68528307Y-39774061D01*
X68449015Y-39618445D01*
X68449008Y-39618433D01*
X68443163Y-39610389D01*
X68443162Y-39610388D01*
X67855600Y-40197951D01*
X67855600Y-40153184D01*
X67831366Y-40062744D01*
X67784550Y-39981657D01*
X67718343Y-39915450D01*
X67637256Y-39868634D01*
X67546816Y-39844400D01*
X67502047Y-39844400D01*
X68089610Y-39256837D01*
X68089609Y-39256836D01*
X68081556Y-39250985D01*
X67925936Y-39171691D01*
X67759833Y-39117722D01*
X67587332Y-39090400D01*
X67412668Y-39090400D01*
X67240166Y-39117722D01*
X67074061Y-39171692D01*
X66918443Y-39250984D01*
X66910389Y-39256835D01*
X66910389Y-39256836D01*
X67497954Y-39844400D01*
X67453184Y-39844400D01*
X67362744Y-39868634D01*
X67281657Y-39915450D01*
X67215450Y-39981657D01*
X67168634Y-40062744D01*
X67144400Y-40153184D01*
X67144400Y-40197953D01*
X66556836Y-39610389D01*
X66556835Y-39610389D01*
X66550984Y-39618443D01*
X66471692Y-39774061D01*
X66417722Y-39940166D01*
X66390400Y-40112667D01*
X66390400Y-40287332D01*
X66417722Y-40459833D01*
X66471692Y-40625939D01*
X66471694Y-40625943D01*
X66519214Y-40719205D01*
X66532111Y-40787874D01*
X66505835Y-40852614D01*
X66448729Y-40892872D01*
X66408730Y-40899500D01*
X45382940Y-40899500D01*
X45315901Y-40879815D01*
X45295259Y-40863181D01*
X44510292Y-40078213D01*
X44510288Y-40078210D01*
X44379185Y-39990609D01*
X44379172Y-39990602D01*
X44233501Y-39930264D01*
X44233489Y-39930261D01*
X44078845Y-39899500D01*
X44078842Y-39899500D01*
X43921158Y-39899500D01*
X43921155Y-39899500D01*
X43766510Y-39930261D01*
X43766498Y-39930264D01*
X43620827Y-39990602D01*
X43620814Y-39990609D01*
X43489711Y-40078210D01*
X43489707Y-40078213D01*
X43378213Y-40189707D01*
X43378210Y-40189711D01*
X43290609Y-40320814D01*
X43290602Y-40320827D01*
X43230264Y-40466498D01*
X43230261Y-40466510D01*
X43199500Y-40621153D01*
X43199500Y-40778846D01*
X43230261Y-40933489D01*
X43230264Y-40933501D01*
X43290602Y-41079172D01*
X43290609Y-41079185D01*
X43378210Y-41210288D01*
X43378213Y-41210292D01*
X44355740Y-42187819D01*
X44389225Y-42249142D01*
X44384241Y-42318834D01*
X44342369Y-42374767D01*
X44276905Y-42399184D01*
X44268059Y-42399500D01*
X43921155Y-42399500D01*
X43766510Y-42430261D01*
X43766498Y-42430264D01*
X43620827Y-42490602D01*
X43620814Y-42490609D01*
X43489711Y-42578210D01*
X43489707Y-42578213D01*
X43378213Y-42689707D01*
X43378210Y-42689711D01*
X43290609Y-42820814D01*
X43290602Y-42820827D01*
X43230264Y-42966498D01*
X43230261Y-42966510D01*
X43199500Y-43121153D01*
X43199500Y-43278846D01*
X43230261Y-43433489D01*
X43230264Y-43433501D01*
X43290602Y-43579172D01*
X43290609Y-43579185D01*
X43378210Y-43710288D01*
X43378213Y-43710292D01*
X43489707Y-43821786D01*
X43489711Y-43821789D01*
X43620814Y-43909390D01*
X43620827Y-43909397D01*
X43766498Y-43969735D01*
X43766503Y-43969737D01*
X43921153Y-44000499D01*
X43921156Y-44000500D01*
X43921158Y-44000500D01*
X96086730Y-44000500D01*
X96153769Y-44020185D01*
X96174411Y-44036819D01*
X96234213Y-44096621D01*
X96383904Y-44205378D01*
X96431054Y-44229402D01*
X96548764Y-44289379D01*
X96548767Y-44289380D01*
X96680151Y-44332069D01*
X96737826Y-44371506D01*
X96765025Y-44435865D01*
X96753110Y-44504711D01*
X96705866Y-44556187D01*
X96680151Y-44567931D01*
X96548767Y-44610619D01*
X96548764Y-44610620D01*
X96383903Y-44694622D01*
X96298499Y-44756672D01*
X96234213Y-44803379D01*
X96234211Y-44803381D01*
X96234210Y-44803381D01*
X96174411Y-44863181D01*
X96113088Y-44896666D01*
X96086730Y-44899500D01*
X43921155Y-44899500D01*
X43766510Y-44930261D01*
X43766498Y-44930264D01*
X43620827Y-44990602D01*
X43620814Y-44990609D01*
X43489711Y-45078210D01*
X43489707Y-45078213D01*
X43378213Y-45189707D01*
X43378210Y-45189711D01*
X43290609Y-45320814D01*
X43290602Y-45320827D01*
X43230264Y-45466498D01*
X43230261Y-45466510D01*
X43199500Y-45621153D01*
X43199500Y-45778846D01*
X43230261Y-45933489D01*
X43230264Y-45933501D01*
X43290602Y-46079172D01*
X43290609Y-46079185D01*
X43378210Y-46210288D01*
X43378213Y-46210292D01*
X43489707Y-46321786D01*
X43489711Y-46321789D01*
X43620814Y-46409390D01*
X43620827Y-46409397D01*
X43766498Y-46469735D01*
X43766503Y-46469737D01*
X43921153Y-46500499D01*
X43921156Y-46500500D01*
X43921158Y-46500500D01*
X96086730Y-46500500D01*
X96153769Y-46520185D01*
X96174411Y-46536819D01*
X96234213Y-46596621D01*
X96383904Y-46705378D01*
X96431054Y-46729402D01*
X96548764Y-46789379D01*
X96548767Y-46789380D01*
X96680151Y-46832069D01*
X96737826Y-46871506D01*
X96765025Y-46935865D01*
X96753110Y-47004711D01*
X96705866Y-47056187D01*
X96680151Y-47067931D01*
X96548767Y-47110619D01*
X96548764Y-47110620D01*
X96383903Y-47194622D01*
X96298499Y-47256672D01*
X96234213Y-47303379D01*
X96234211Y-47303381D01*
X96234210Y-47303381D01*
X96174411Y-47363181D01*
X96113088Y-47396666D01*
X96086730Y-47399500D01*
X43921155Y-47399500D01*
X43766510Y-47430261D01*
X43766498Y-47430264D01*
X43620827Y-47490602D01*
X43620814Y-47490609D01*
X43489711Y-47578210D01*
X43489707Y-47578213D01*
X43378213Y-47689707D01*
X43378210Y-47689711D01*
X43290609Y-47820814D01*
X43290602Y-47820827D01*
X43230264Y-47966498D01*
X43230261Y-47966510D01*
X43199500Y-48121153D01*
X43199500Y-48278846D01*
X43230261Y-48433489D01*
X43230264Y-48433501D01*
X43290602Y-48579172D01*
X43290609Y-48579185D01*
X43378210Y-48710288D01*
X43378213Y-48710292D01*
X43489707Y-48821786D01*
X43489711Y-48821789D01*
X43620814Y-48909390D01*
X43620827Y-48909397D01*
X43766498Y-48969735D01*
X43766503Y-48969737D01*
X43921153Y-49000499D01*
X43921156Y-49000500D01*
X43921158Y-49000500D01*
X96086730Y-49000500D01*
X96153769Y-49020185D01*
X96174411Y-49036819D01*
X96234213Y-49096621D01*
X96383904Y-49205378D01*
X96431054Y-49229402D01*
X96548764Y-49289379D01*
X96548767Y-49289380D01*
X96680151Y-49332069D01*
X96737826Y-49371506D01*
X96765025Y-49435865D01*
X96753110Y-49504711D01*
X96705866Y-49556187D01*
X96680151Y-49567931D01*
X96548767Y-49610619D01*
X96548764Y-49610620D01*
X96383903Y-49694622D01*
X96300784Y-49755012D01*
X96234213Y-49803379D01*
X96234211Y-49803381D01*
X96234210Y-49803381D01*
X96174411Y-49863181D01*
X96113088Y-49896666D01*
X96086730Y-49899500D01*
X43921155Y-49899500D01*
X43766510Y-49930261D01*
X43766498Y-49930264D01*
X43620827Y-49990602D01*
X43620814Y-49990609D01*
X43489711Y-50078210D01*
X43489707Y-50078213D01*
X43378213Y-50189707D01*
X43378210Y-50189711D01*
X43290609Y-50320814D01*
X43290602Y-50320827D01*
X43230264Y-50466498D01*
X43230261Y-50466510D01*
X43199500Y-50621153D01*
X43199500Y-50778846D01*
X43230261Y-50933489D01*
X43230264Y-50933501D01*
X43290602Y-51079172D01*
X43290609Y-51079185D01*
X43378210Y-51210288D01*
X43378213Y-51210292D01*
X43489707Y-51321786D01*
X43489711Y-51321789D01*
X43620814Y-51409390D01*
X43620827Y-51409397D01*
X43766498Y-51469735D01*
X43766503Y-51469737D01*
X43921153Y-51500499D01*
X43921156Y-51500500D01*
X43921158Y-51500500D01*
X96086730Y-51500500D01*
X96153769Y-51520185D01*
X96174411Y-51536819D01*
X96234213Y-51596621D01*
X96383904Y-51705378D01*
X96431054Y-51729402D01*
X96548764Y-51789379D01*
X96548767Y-51789380D01*
X96680151Y-51832069D01*
X96737826Y-51871506D01*
X96765025Y-51935865D01*
X96753110Y-52004711D01*
X96705866Y-52056187D01*
X96680151Y-52067931D01*
X96548767Y-52110619D01*
X96548764Y-52110620D01*
X96383903Y-52194622D01*
X96298499Y-52256672D01*
X96234213Y-52303379D01*
X96234211Y-52303381D01*
X96234210Y-52303381D01*
X96174411Y-52363181D01*
X96113088Y-52396666D01*
X96086730Y-52399500D01*
X43921155Y-52399500D01*
X43766510Y-52430261D01*
X43766498Y-52430264D01*
X43620827Y-52490602D01*
X43620814Y-52490609D01*
X43489711Y-52578210D01*
X43489707Y-52578213D01*
X43378213Y-52689707D01*
X43378210Y-52689711D01*
X43290609Y-52820814D01*
X43290602Y-52820827D01*
X43230264Y-52966498D01*
X43230261Y-52966510D01*
X43199500Y-53121153D01*
X43199500Y-53278846D01*
X43230261Y-53433489D01*
X43230264Y-53433501D01*
X43290602Y-53579172D01*
X43290609Y-53579185D01*
X43378210Y-53710288D01*
X43378213Y-53710292D01*
X43489707Y-53821786D01*
X43489711Y-53821789D01*
X43620814Y-53909390D01*
X43620827Y-53909397D01*
X43766498Y-53969735D01*
X43766503Y-53969737D01*
X43921153Y-54000499D01*
X43921156Y-54000500D01*
X43921158Y-54000500D01*
X96086730Y-54000500D01*
X96153769Y-54020185D01*
X96174411Y-54036819D01*
X96234213Y-54096621D01*
X96383904Y-54205378D01*
X96404794Y-54216022D01*
X96420481Y-54224015D01*
X96471277Y-54271990D01*
X96488072Y-54339811D01*
X96465534Y-54405946D01*
X96410819Y-54449397D01*
X96364186Y-54458500D01*
X44362155Y-54458500D01*
X44207508Y-54489261D01*
X44207498Y-54489264D01*
X44061827Y-54549602D01*
X44061815Y-54549609D01*
X43970506Y-54610621D01*
X43970505Y-54610622D01*
X43930708Y-54637212D01*
X43930707Y-54637213D01*
X43489711Y-55078211D01*
X42454741Y-56113181D01*
X42393418Y-56146666D01*
X42367060Y-56149500D01*
X40632940Y-56149500D01*
X40565901Y-56129815D01*
X40545259Y-56113181D01*
X37586819Y-53154741D01*
X37553334Y-53093418D01*
X37550500Y-53067060D01*
X37550500Y-37610358D01*
X69089900Y-37610358D01*
X69089900Y-37789641D01*
X69124871Y-37965458D01*
X69124874Y-37965467D01*
X69193475Y-38131087D01*
X69193482Y-38131100D01*
X69293078Y-38280154D01*
X69293081Y-38280158D01*
X69419841Y-38406918D01*
X69419845Y-38406921D01*
X69568899Y-38506517D01*
X69568912Y-38506524D01*
X69693127Y-38557974D01*
X69734534Y-38575126D01*
X69734536Y-38575126D01*
X69734541Y-38575128D01*
X69910358Y-38610099D01*
X69910362Y-38610100D01*
X69910363Y-38610100D01*
X70089638Y-38610100D01*
X70089639Y-38610099D01*
X70148246Y-38598442D01*
X70265458Y-38575128D01*
X70265461Y-38575126D01*
X70265466Y-38575126D01*
X70431094Y-38506521D01*
X70580155Y-38406921D01*
X70706921Y-38280155D01*
X70806521Y-38131094D01*
X70875126Y-37965466D01*
X70910100Y-37789637D01*
X70910100Y-37610363D01*
X70904837Y-37583903D01*
X70875128Y-37434541D01*
X70875125Y-37434532D01*
X70806524Y-37268912D01*
X70806517Y-37268899D01*
X70706921Y-37119845D01*
X70706918Y-37119841D01*
X70580158Y-36993081D01*
X70580154Y-36993078D01*
X70431100Y-36893482D01*
X70431087Y-36893475D01*
X70265467Y-36824874D01*
X70265458Y-36824871D01*
X70089641Y-36789900D01*
X70089637Y-36789900D01*
X69910363Y-36789900D01*
X69910358Y-36789900D01*
X69734541Y-36824871D01*
X69734532Y-36824874D01*
X69568912Y-36893475D01*
X69568899Y-36893482D01*
X69419845Y-36993078D01*
X69419841Y-36993081D01*
X69293081Y-37119841D01*
X69293078Y-37119845D01*
X69193482Y-37268899D01*
X69193475Y-37268912D01*
X69124874Y-37434532D01*
X69124871Y-37434541D01*
X69089900Y-37610358D01*
X37550500Y-37610358D01*
X37550500Y-34554945D01*
X39966999Y-34554945D01*
X40007945Y-34760789D01*
X40007947Y-34760795D01*
X40088265Y-34954701D01*
X40204873Y-35129218D01*
X40353281Y-35277626D01*
X40527798Y-35394234D01*
X40601432Y-35424734D01*
X40721705Y-35474553D01*
X40721709Y-35474553D01*
X40721710Y-35474554D01*
X40927554Y-35515500D01*
X40927557Y-35515500D01*
X41137445Y-35515500D01*
X41275933Y-35487952D01*
X41343295Y-35474553D01*
X41537203Y-35394233D01*
X41711716Y-35277628D01*
X41860128Y-35129216D01*
X41976733Y-34954703D01*
X42057053Y-34760795D01*
X42091960Y-34585309D01*
X42098000Y-34554945D01*
X42506999Y-34554945D01*
X42547945Y-34760789D01*
X42547947Y-34760795D01*
X42628265Y-34954701D01*
X42744873Y-35129218D01*
X42893281Y-35277626D01*
X43067798Y-35394234D01*
X43141432Y-35424734D01*
X43261705Y-35474553D01*
X43261709Y-35474553D01*
X43261710Y-35474554D01*
X43467554Y-35515500D01*
X43467557Y-35515500D01*
X43677445Y-35515500D01*
X43815933Y-35487952D01*
X43883295Y-35474553D01*
X44077203Y-35394233D01*
X44251716Y-35277628D01*
X44400128Y-35129216D01*
X44516733Y-34954703D01*
X44597053Y-34760795D01*
X44631960Y-34585309D01*
X44638000Y-34554945D01*
X45046999Y-34554945D01*
X45087945Y-34760789D01*
X45087947Y-34760795D01*
X45168265Y-34954701D01*
X45284873Y-35129218D01*
X45433281Y-35277626D01*
X45607798Y-35394234D01*
X45681432Y-35424734D01*
X45801705Y-35474553D01*
X45801709Y-35474553D01*
X45801710Y-35474554D01*
X46007554Y-35515500D01*
X46007557Y-35515500D01*
X46217445Y-35515500D01*
X46355933Y-35487952D01*
X46423295Y-35474553D01*
X46617203Y-35394233D01*
X46791716Y-35277628D01*
X46940128Y-35129216D01*
X47056733Y-34954703D01*
X47137053Y-34760795D01*
X47171960Y-34585309D01*
X47178000Y-34554945D01*
X47586999Y-34554945D01*
X47627945Y-34760789D01*
X47627947Y-34760795D01*
X47708265Y-34954701D01*
X47824873Y-35129218D01*
X47973281Y-35277626D01*
X48147798Y-35394234D01*
X48221432Y-35424734D01*
X48341705Y-35474553D01*
X48341709Y-35474553D01*
X48341710Y-35474554D01*
X48547554Y-35515500D01*
X48547557Y-35515500D01*
X48757445Y-35515500D01*
X48895933Y-35487952D01*
X48963295Y-35474553D01*
X49157203Y-35394233D01*
X49331716Y-35277628D01*
X49480128Y-35129216D01*
X49596733Y-34954703D01*
X49677053Y-34760795D01*
X49711960Y-34585309D01*
X49718000Y-34554945D01*
X50126999Y-34554945D01*
X50167945Y-34760789D01*
X50167947Y-34760795D01*
X50248265Y-34954701D01*
X50364873Y-35129218D01*
X50513281Y-35277626D01*
X50687798Y-35394234D01*
X50761432Y-35424734D01*
X50881705Y-35474553D01*
X50881709Y-35474553D01*
X50881710Y-35474554D01*
X51087554Y-35515500D01*
X51087557Y-35515500D01*
X51297445Y-35515500D01*
X51435933Y-35487952D01*
X51503295Y-35474553D01*
X51697203Y-35394233D01*
X51871716Y-35277628D01*
X52020128Y-35129216D01*
X52136733Y-34954703D01*
X52217053Y-34760795D01*
X52251960Y-34585309D01*
X52258000Y-34554945D01*
X52666999Y-34554945D01*
X52707945Y-34760789D01*
X52707947Y-34760795D01*
X52788265Y-34954701D01*
X52904873Y-35129218D01*
X53053281Y-35277626D01*
X53227798Y-35394234D01*
X53301432Y-35424734D01*
X53421705Y-35474553D01*
X53421709Y-35474553D01*
X53421710Y-35474554D01*
X53627554Y-35515500D01*
X53627557Y-35515500D01*
X53837445Y-35515500D01*
X53975933Y-35487952D01*
X54043295Y-35474553D01*
X54237203Y-35394233D01*
X54411716Y-35277628D01*
X54560128Y-35129216D01*
X54676733Y-34954703D01*
X54757053Y-34760795D01*
X54791960Y-34585309D01*
X54798000Y-34554945D01*
X55206999Y-34554945D01*
X55247945Y-34760789D01*
X55247947Y-34760795D01*
X55328265Y-34954701D01*
X55444873Y-35129218D01*
X55593281Y-35277626D01*
X55767798Y-35394234D01*
X55841432Y-35424734D01*
X55961705Y-35474553D01*
X55961709Y-35474553D01*
X55961710Y-35474554D01*
X56167554Y-35515500D01*
X56167557Y-35515500D01*
X56377445Y-35515500D01*
X56515933Y-35487952D01*
X56583295Y-35474553D01*
X56777203Y-35394233D01*
X56951716Y-35277628D01*
X57100128Y-35129216D01*
X57216733Y-34954703D01*
X57297053Y-34760795D01*
X57331960Y-34585309D01*
X57338000Y-34554945D01*
X57746999Y-34554945D01*
X57787945Y-34760789D01*
X57787947Y-34760795D01*
X57868265Y-34954701D01*
X57984873Y-35129218D01*
X58133281Y-35277626D01*
X58307798Y-35394234D01*
X58381432Y-35424734D01*
X58501705Y-35474553D01*
X58501709Y-35474553D01*
X58501710Y-35474554D01*
X58707554Y-35515500D01*
X58707557Y-35515500D01*
X58917445Y-35515500D01*
X59055933Y-35487952D01*
X59123295Y-35474553D01*
X59317203Y-35394233D01*
X59491716Y-35277628D01*
X59640128Y-35129216D01*
X59756733Y-34954703D01*
X59837053Y-34760795D01*
X59871960Y-34585309D01*
X59878000Y-34554945D01*
X60286999Y-34554945D01*
X60327945Y-34760789D01*
X60327947Y-34760795D01*
X60408265Y-34954701D01*
X60524873Y-35129218D01*
X60673281Y-35277626D01*
X60847798Y-35394234D01*
X60921432Y-35424734D01*
X61041705Y-35474553D01*
X61041709Y-35474553D01*
X61041710Y-35474554D01*
X61247554Y-35515500D01*
X61247557Y-35515500D01*
X61457445Y-35515500D01*
X61595933Y-35487952D01*
X61663295Y-35474553D01*
X61857203Y-35394233D01*
X62031716Y-35277628D01*
X62180128Y-35129216D01*
X62296733Y-34954703D01*
X62377053Y-34760795D01*
X62411960Y-34585309D01*
X62418000Y-34554945D01*
X62826999Y-34554945D01*
X62867945Y-34760789D01*
X62867947Y-34760795D01*
X62948265Y-34954701D01*
X63064873Y-35129218D01*
X63213281Y-35277626D01*
X63387798Y-35394234D01*
X63461432Y-35424734D01*
X63581705Y-35474553D01*
X63581709Y-35474553D01*
X63581710Y-35474554D01*
X63787554Y-35515500D01*
X63787557Y-35515500D01*
X63997445Y-35515500D01*
X64135933Y-35487952D01*
X64203295Y-35474553D01*
X64397203Y-35394233D01*
X64571716Y-35277628D01*
X64720128Y-35129216D01*
X64836733Y-34954703D01*
X64917053Y-34760795D01*
X64951960Y-34585309D01*
X64958000Y-34554945D01*
X65366999Y-34554945D01*
X65407945Y-34760789D01*
X65407947Y-34760795D01*
X65488265Y-34954701D01*
X65604873Y-35129218D01*
X65753281Y-35277626D01*
X65927798Y-35394234D01*
X66001432Y-35424734D01*
X66121705Y-35474553D01*
X66121709Y-35474553D01*
X66121710Y-35474554D01*
X66327554Y-35515500D01*
X66327557Y-35515500D01*
X66537445Y-35515500D01*
X66675933Y-35487952D01*
X66743295Y-35474553D01*
X66937203Y-35394233D01*
X67111716Y-35277628D01*
X67260128Y-35129216D01*
X67376733Y-34954703D01*
X67457053Y-34760795D01*
X67491960Y-34585309D01*
X67498000Y-34554945D01*
X67906999Y-34554945D01*
X67947945Y-34760789D01*
X67947947Y-34760795D01*
X68028265Y-34954701D01*
X68144873Y-35129218D01*
X68293281Y-35277626D01*
X68467798Y-35394234D01*
X68541432Y-35424734D01*
X68661705Y-35474553D01*
X68661709Y-35474553D01*
X68661710Y-35474554D01*
X68867554Y-35515500D01*
X68867557Y-35515500D01*
X69077445Y-35515500D01*
X69215933Y-35487952D01*
X69283295Y-35474553D01*
X69477203Y-35394233D01*
X69651716Y-35277628D01*
X69800128Y-35129216D01*
X69916733Y-34954703D01*
X69997053Y-34760795D01*
X70031960Y-34585309D01*
X70038000Y-34554945D01*
X70446999Y-34554945D01*
X70487945Y-34760789D01*
X70487947Y-34760795D01*
X70568265Y-34954701D01*
X70684873Y-35129218D01*
X70833281Y-35277626D01*
X71007798Y-35394234D01*
X71081432Y-35424734D01*
X71201705Y-35474553D01*
X71201709Y-35474553D01*
X71201710Y-35474554D01*
X71407554Y-35515500D01*
X71407557Y-35515500D01*
X71617445Y-35515500D01*
X71755933Y-35487952D01*
X71823295Y-35474553D01*
X72017203Y-35394233D01*
X72191716Y-35277628D01*
X72340128Y-35129216D01*
X72456733Y-34954703D01*
X72537053Y-34760795D01*
X72571960Y-34585309D01*
X72578000Y-34554945D01*
X72986999Y-34554945D01*
X73027945Y-34760789D01*
X73027947Y-34760795D01*
X73108265Y-34954701D01*
X73224873Y-35129218D01*
X73373281Y-35277626D01*
X73547798Y-35394234D01*
X73621432Y-35424734D01*
X73741705Y-35474553D01*
X73741709Y-35474553D01*
X73741710Y-35474554D01*
X73947554Y-35515500D01*
X73947557Y-35515500D01*
X74157445Y-35515500D01*
X74295933Y-35487952D01*
X74363295Y-35474553D01*
X74557203Y-35394233D01*
X74731716Y-35277628D01*
X74880128Y-35129216D01*
X74996733Y-34954703D01*
X75077053Y-34760795D01*
X75111960Y-34585309D01*
X75118000Y-34554945D01*
X75526999Y-34554945D01*
X75567945Y-34760789D01*
X75567947Y-34760795D01*
X75648265Y-34954701D01*
X75764873Y-35129218D01*
X75913281Y-35277626D01*
X76087798Y-35394234D01*
X76161432Y-35424734D01*
X76281705Y-35474553D01*
X76281709Y-35474553D01*
X76281710Y-35474554D01*
X76487554Y-35515500D01*
X76487557Y-35515500D01*
X76697445Y-35515500D01*
X76835933Y-35487952D01*
X76903295Y-35474553D01*
X77097203Y-35394233D01*
X77271716Y-35277628D01*
X77420128Y-35129216D01*
X77536733Y-34954703D01*
X77617053Y-34760795D01*
X77651960Y-34585309D01*
X77658000Y-34554945D01*
X77658000Y-34345054D01*
X77617054Y-34139210D01*
X77617053Y-34139209D01*
X77617053Y-34139205D01*
X77544648Y-33964405D01*
X77536734Y-33945298D01*
X77420126Y-33770781D01*
X77271718Y-33622373D01*
X77097201Y-33505765D01*
X76903295Y-33425447D01*
X76903289Y-33425445D01*
X76697445Y-33384500D01*
X76697443Y-33384500D01*
X76487557Y-33384500D01*
X76487555Y-33384500D01*
X76281710Y-33425445D01*
X76281704Y-33425447D01*
X76087798Y-33505765D01*
X75913281Y-33622373D01*
X75764873Y-33770781D01*
X75648265Y-33945298D01*
X75567947Y-34139204D01*
X75567945Y-34139210D01*
X75527000Y-34345054D01*
X75527000Y-34345057D01*
X75527000Y-34554943D01*
X75527000Y-34554945D01*
X75526999Y-34554945D01*
X75118000Y-34554945D01*
X75118000Y-34345054D01*
X75077054Y-34139210D01*
X75077053Y-34139209D01*
X75077053Y-34139205D01*
X75004648Y-33964405D01*
X74996734Y-33945298D01*
X74880126Y-33770781D01*
X74731718Y-33622373D01*
X74557201Y-33505765D01*
X74363295Y-33425447D01*
X74363289Y-33425445D01*
X74157445Y-33384500D01*
X74157443Y-33384500D01*
X73947557Y-33384500D01*
X73947555Y-33384500D01*
X73741710Y-33425445D01*
X73741704Y-33425447D01*
X73547798Y-33505765D01*
X73373281Y-33622373D01*
X73224873Y-33770781D01*
X73108265Y-33945298D01*
X73027947Y-34139204D01*
X73027945Y-34139210D01*
X72987000Y-34345054D01*
X72987000Y-34345057D01*
X72987000Y-34554943D01*
X72987000Y-34554945D01*
X72986999Y-34554945D01*
X72578000Y-34554945D01*
X72578000Y-34345054D01*
X72537054Y-34139210D01*
X72537053Y-34139209D01*
X72537053Y-34139205D01*
X72464648Y-33964405D01*
X72456734Y-33945298D01*
X72340126Y-33770781D01*
X72191718Y-33622373D01*
X72017201Y-33505765D01*
X71823295Y-33425447D01*
X71823289Y-33425445D01*
X71617445Y-33384500D01*
X71617443Y-33384500D01*
X71407557Y-33384500D01*
X71407555Y-33384500D01*
X71201710Y-33425445D01*
X71201704Y-33425447D01*
X71007798Y-33505765D01*
X70833281Y-33622373D01*
X70684873Y-33770781D01*
X70568265Y-33945298D01*
X70487947Y-34139204D01*
X70487945Y-34139210D01*
X70447000Y-34345054D01*
X70447000Y-34345057D01*
X70447000Y-34554943D01*
X70447000Y-34554945D01*
X70446999Y-34554945D01*
X70038000Y-34554945D01*
X70038000Y-34345054D01*
X69997054Y-34139210D01*
X69997053Y-34139209D01*
X69997053Y-34139205D01*
X69924648Y-33964405D01*
X69916734Y-33945298D01*
X69800126Y-33770781D01*
X69651718Y-33622373D01*
X69477201Y-33505765D01*
X69283295Y-33425447D01*
X69283289Y-33425445D01*
X69077445Y-33384500D01*
X69077443Y-33384500D01*
X68867557Y-33384500D01*
X68867555Y-33384500D01*
X68661710Y-33425445D01*
X68661704Y-33425447D01*
X68467798Y-33505765D01*
X68293281Y-33622373D01*
X68144873Y-33770781D01*
X68028265Y-33945298D01*
X67947947Y-34139204D01*
X67947945Y-34139210D01*
X67907000Y-34345054D01*
X67907000Y-34345057D01*
X67907000Y-34554943D01*
X67907000Y-34554945D01*
X67906999Y-34554945D01*
X67498000Y-34554945D01*
X67498000Y-34345054D01*
X67457054Y-34139210D01*
X67457053Y-34139209D01*
X67457053Y-34139205D01*
X67384648Y-33964405D01*
X67376734Y-33945298D01*
X67260126Y-33770781D01*
X67111718Y-33622373D01*
X66937201Y-33505765D01*
X66743295Y-33425447D01*
X66743289Y-33425445D01*
X66537445Y-33384500D01*
X66537443Y-33384500D01*
X66327557Y-33384500D01*
X66327555Y-33384500D01*
X66121710Y-33425445D01*
X66121704Y-33425447D01*
X65927798Y-33505765D01*
X65753281Y-33622373D01*
X65604873Y-33770781D01*
X65488265Y-33945298D01*
X65407947Y-34139204D01*
X65407945Y-34139210D01*
X65367000Y-34345054D01*
X65367000Y-34345057D01*
X65367000Y-34554943D01*
X65367000Y-34554945D01*
X65366999Y-34554945D01*
X64958000Y-34554945D01*
X64958000Y-34345054D01*
X64917054Y-34139210D01*
X64917053Y-34139209D01*
X64917053Y-34139205D01*
X64844648Y-33964405D01*
X64836734Y-33945298D01*
X64720126Y-33770781D01*
X64571718Y-33622373D01*
X64397201Y-33505765D01*
X64203295Y-33425447D01*
X64203289Y-33425445D01*
X63997445Y-33384500D01*
X63997443Y-33384500D01*
X63787557Y-33384500D01*
X63787555Y-33384500D01*
X63581710Y-33425445D01*
X63581704Y-33425447D01*
X63387798Y-33505765D01*
X63213281Y-33622373D01*
X63064873Y-33770781D01*
X62948265Y-33945298D01*
X62867947Y-34139204D01*
X62867945Y-34139210D01*
X62827000Y-34345054D01*
X62827000Y-34345057D01*
X62827000Y-34554943D01*
X62827000Y-34554945D01*
X62826999Y-34554945D01*
X62418000Y-34554945D01*
X62418000Y-34345054D01*
X62377054Y-34139210D01*
X62377053Y-34139209D01*
X62377053Y-34139205D01*
X62304648Y-33964405D01*
X62296734Y-33945298D01*
X62180126Y-33770781D01*
X62031718Y-33622373D01*
X61857201Y-33505765D01*
X61663295Y-33425447D01*
X61663289Y-33425445D01*
X61457445Y-33384500D01*
X61457443Y-33384500D01*
X61247557Y-33384500D01*
X61247555Y-33384500D01*
X61041710Y-33425445D01*
X61041704Y-33425447D01*
X60847798Y-33505765D01*
X60673281Y-33622373D01*
X60524873Y-33770781D01*
X60408265Y-33945298D01*
X60327947Y-34139204D01*
X60327945Y-34139210D01*
X60287000Y-34345054D01*
X60287000Y-34345057D01*
X60287000Y-34554943D01*
X60287000Y-34554945D01*
X60286999Y-34554945D01*
X59878000Y-34554945D01*
X59878000Y-34345054D01*
X59837054Y-34139210D01*
X59837053Y-34139209D01*
X59837053Y-34139205D01*
X59764648Y-33964405D01*
X59756734Y-33945298D01*
X59640126Y-33770781D01*
X59491718Y-33622373D01*
X59317201Y-33505765D01*
X59123295Y-33425447D01*
X59123289Y-33425445D01*
X58917445Y-33384500D01*
X58917443Y-33384500D01*
X58707557Y-33384500D01*
X58707555Y-33384500D01*
X58501710Y-33425445D01*
X58501704Y-33425447D01*
X58307798Y-33505765D01*
X58133281Y-33622373D01*
X57984873Y-33770781D01*
X57868265Y-33945298D01*
X57787947Y-34139204D01*
X57787945Y-34139210D01*
X57747000Y-34345054D01*
X57747000Y-34345057D01*
X57747000Y-34554943D01*
X57747000Y-34554945D01*
X57746999Y-34554945D01*
X57338000Y-34554945D01*
X57338000Y-34345054D01*
X57297054Y-34139210D01*
X57297053Y-34139209D01*
X57297053Y-34139205D01*
X57224648Y-33964405D01*
X57216734Y-33945298D01*
X57100126Y-33770781D01*
X56951718Y-33622373D01*
X56777201Y-33505765D01*
X56583295Y-33425447D01*
X56583289Y-33425445D01*
X56377445Y-33384500D01*
X56377443Y-33384500D01*
X56167557Y-33384500D01*
X56167555Y-33384500D01*
X55961710Y-33425445D01*
X55961704Y-33425447D01*
X55767798Y-33505765D01*
X55593281Y-33622373D01*
X55444873Y-33770781D01*
X55328265Y-33945298D01*
X55247947Y-34139204D01*
X55247945Y-34139210D01*
X55207000Y-34345054D01*
X55207000Y-34345057D01*
X55207000Y-34554943D01*
X55207000Y-34554945D01*
X55206999Y-34554945D01*
X54798000Y-34554945D01*
X54798000Y-34345054D01*
X54757054Y-34139210D01*
X54757053Y-34139209D01*
X54757053Y-34139205D01*
X54684648Y-33964405D01*
X54676734Y-33945298D01*
X54560126Y-33770781D01*
X54411718Y-33622373D01*
X54237201Y-33505765D01*
X54043295Y-33425447D01*
X54043289Y-33425445D01*
X53837445Y-33384500D01*
X53837443Y-33384500D01*
X53627557Y-33384500D01*
X53627555Y-33384500D01*
X53421710Y-33425445D01*
X53421704Y-33425447D01*
X53227798Y-33505765D01*
X53053281Y-33622373D01*
X52904873Y-33770781D01*
X52788265Y-33945298D01*
X52707947Y-34139204D01*
X52707945Y-34139210D01*
X52667000Y-34345054D01*
X52667000Y-34345057D01*
X52667000Y-34554943D01*
X52667000Y-34554945D01*
X52666999Y-34554945D01*
X52258000Y-34554945D01*
X52258000Y-34345054D01*
X52217054Y-34139210D01*
X52217053Y-34139209D01*
X52217053Y-34139205D01*
X52144648Y-33964405D01*
X52136734Y-33945298D01*
X52020126Y-33770781D01*
X51871718Y-33622373D01*
X51697201Y-33505765D01*
X51503295Y-33425447D01*
X51503289Y-33425445D01*
X51297445Y-33384500D01*
X51297443Y-33384500D01*
X51087557Y-33384500D01*
X51087555Y-33384500D01*
X50881710Y-33425445D01*
X50881704Y-33425447D01*
X50687798Y-33505765D01*
X50513281Y-33622373D01*
X50364873Y-33770781D01*
X50248265Y-33945298D01*
X50167947Y-34139204D01*
X50167945Y-34139210D01*
X50127000Y-34345054D01*
X50127000Y-34345057D01*
X50127000Y-34554943D01*
X50127000Y-34554945D01*
X50126999Y-34554945D01*
X49718000Y-34554945D01*
X49718000Y-34345054D01*
X49677054Y-34139210D01*
X49677053Y-34139209D01*
X49677053Y-34139205D01*
X49604648Y-33964405D01*
X49596734Y-33945298D01*
X49480126Y-33770781D01*
X49331718Y-33622373D01*
X49157201Y-33505765D01*
X48963295Y-33425447D01*
X48963289Y-33425445D01*
X48757445Y-33384500D01*
X48757443Y-33384500D01*
X48547557Y-33384500D01*
X48547555Y-33384500D01*
X48341710Y-33425445D01*
X48341704Y-33425447D01*
X48147798Y-33505765D01*
X47973281Y-33622373D01*
X47824873Y-33770781D01*
X47708265Y-33945298D01*
X47627947Y-34139204D01*
X47627945Y-34139210D01*
X47587000Y-34345054D01*
X47587000Y-34345057D01*
X47587000Y-34554943D01*
X47587000Y-34554945D01*
X47586999Y-34554945D01*
X47178000Y-34554945D01*
X47178000Y-34345054D01*
X47137054Y-34139210D01*
X47137053Y-34139209D01*
X47137053Y-34139205D01*
X47064648Y-33964405D01*
X47056734Y-33945298D01*
X46940126Y-33770781D01*
X46791718Y-33622373D01*
X46617201Y-33505765D01*
X46423295Y-33425447D01*
X46423289Y-33425445D01*
X46217445Y-33384500D01*
X46217443Y-33384500D01*
X46007557Y-33384500D01*
X46007555Y-33384500D01*
X45801710Y-33425445D01*
X45801704Y-33425447D01*
X45607798Y-33505765D01*
X45433281Y-33622373D01*
X45284873Y-33770781D01*
X45168265Y-33945298D01*
X45087947Y-34139204D01*
X45087945Y-34139210D01*
X45047000Y-34345054D01*
X45047000Y-34345057D01*
X45047000Y-34554943D01*
X45047000Y-34554945D01*
X45046999Y-34554945D01*
X44638000Y-34554945D01*
X44638000Y-34345054D01*
X44597054Y-34139210D01*
X44597053Y-34139209D01*
X44597053Y-34139205D01*
X44524648Y-33964405D01*
X44516734Y-33945298D01*
X44400126Y-33770781D01*
X44251718Y-33622373D01*
X44077201Y-33505765D01*
X43883295Y-33425447D01*
X43883289Y-33425445D01*
X43677445Y-33384500D01*
X43677443Y-33384500D01*
X43467557Y-33384500D01*
X43467555Y-33384500D01*
X43261710Y-33425445D01*
X43261704Y-33425447D01*
X43067798Y-33505765D01*
X42893281Y-33622373D01*
X42744873Y-33770781D01*
X42628265Y-33945298D01*
X42547947Y-34139204D01*
X42547945Y-34139210D01*
X42507000Y-34345054D01*
X42507000Y-34345057D01*
X42507000Y-34554943D01*
X42507000Y-34554945D01*
X42506999Y-34554945D01*
X42098000Y-34554945D01*
X42098000Y-34345054D01*
X42057054Y-34139210D01*
X42057053Y-34139209D01*
X42057053Y-34139205D01*
X41984648Y-33964405D01*
X41976734Y-33945298D01*
X41860126Y-33770781D01*
X41711718Y-33622373D01*
X41537201Y-33505765D01*
X41343295Y-33425447D01*
X41343289Y-33425445D01*
X41137445Y-33384500D01*
X41137443Y-33384500D01*
X40927557Y-33384500D01*
X40927555Y-33384500D01*
X40721710Y-33425445D01*
X40721704Y-33425447D01*
X40527798Y-33505765D01*
X40353281Y-33622373D01*
X40204873Y-33770781D01*
X40088265Y-33945298D01*
X40007947Y-34139204D01*
X40007945Y-34139210D01*
X39967000Y-34345054D01*
X39967000Y-34345057D01*
X39967000Y-34554943D01*
X39967000Y-34554945D01*
X39966999Y-34554945D01*
X37550500Y-34554945D01*
X37550500Y-30408721D01*
X37550499Y-30408718D01*
X37538161Y-30346689D01*
X37537071Y-30341208D01*
X37519738Y-30254067D01*
X37489151Y-30180224D01*
X37459395Y-30108387D01*
X37459390Y-30108378D01*
X37371789Y-29977275D01*
X37371786Y-29977271D01*
X34503184Y-27108669D01*
X48839600Y-27108669D01*
X48839600Y-27291330D01*
X48868172Y-27471728D01*
X48924616Y-27645443D01*
X49007535Y-27808178D01*
X49020467Y-27825978D01*
X49593600Y-27252845D01*
X49593600Y-27253504D01*
X49621295Y-27356865D01*
X49674799Y-27449536D01*
X49750464Y-27525201D01*
X49843135Y-27578705D01*
X49946496Y-27606400D01*
X49947153Y-27606400D01*
X49374020Y-28179531D01*
X49375125Y-28193571D01*
X49375125Y-28213031D01*
X49374020Y-28227067D01*
X49947154Y-28800200D01*
X49946496Y-28800200D01*
X49843135Y-28827895D01*
X49750464Y-28881399D01*
X49674799Y-28957064D01*
X49621295Y-29049735D01*
X49593600Y-29153096D01*
X49593600Y-29153752D01*
X49020468Y-28580620D01*
X49020465Y-28580620D01*
X49007543Y-28598408D01*
X49007539Y-28598413D01*
X48924616Y-28761156D01*
X48868172Y-28934871D01*
X48839600Y-29115269D01*
X48839600Y-29297930D01*
X48868172Y-29478328D01*
X48924616Y-29652043D01*
X49007535Y-29814778D01*
X49020467Y-29832578D01*
X49593600Y-29259445D01*
X49593600Y-29260104D01*
X49621295Y-29363465D01*
X49674799Y-29456136D01*
X49750464Y-29531801D01*
X49843135Y-29585305D01*
X49946496Y-29613000D01*
X49947153Y-29613000D01*
X49374019Y-30186131D01*
X49391817Y-30199062D01*
X49554556Y-30281983D01*
X49728271Y-30338427D01*
X49908670Y-30367000D01*
X50091330Y-30367000D01*
X50271728Y-30338427D01*
X50445443Y-30281983D01*
X50608178Y-30199065D01*
X50625979Y-30186131D01*
X50052848Y-29613000D01*
X50053504Y-29613000D01*
X50156865Y-29585305D01*
X50249536Y-29531801D01*
X50325201Y-29456136D01*
X50378705Y-29363465D01*
X50406400Y-29260104D01*
X50406400Y-29259447D01*
X50979531Y-29832578D01*
X50992466Y-29814776D01*
X51010999Y-29778404D01*
X51058973Y-29727608D01*
X51126794Y-29710812D01*
X51192929Y-29733349D01*
X51224586Y-29765807D01*
X51260220Y-29819137D01*
X51260223Y-29819141D01*
X51394058Y-29952976D01*
X51394062Y-29952979D01*
X51551436Y-30058134D01*
X51551442Y-30058137D01*
X51551443Y-30058138D01*
X51726316Y-30130573D01*
X51830191Y-30151235D01*
X51911955Y-30167499D01*
X51911958Y-30167500D01*
X51911960Y-30167500D01*
X52101242Y-30167500D01*
X52101243Y-30167499D01*
X52286884Y-30130573D01*
X52461757Y-30058138D01*
X52619138Y-29952979D01*
X52752979Y-29819138D01*
X52858138Y-29661757D01*
X52895339Y-29571945D01*
X52939180Y-29517543D01*
X53005474Y-29495478D01*
X53073173Y-29512757D01*
X53120784Y-29563894D01*
X53124461Y-29571946D01*
X53161660Y-29661754D01*
X53161665Y-29661763D01*
X53266820Y-29819137D01*
X53266823Y-29819141D01*
X53400658Y-29952976D01*
X53400662Y-29952979D01*
X53558036Y-30058134D01*
X53558042Y-30058137D01*
X53558043Y-30058138D01*
X53732916Y-30130573D01*
X53836791Y-30151235D01*
X53918555Y-30167499D01*
X53918558Y-30167500D01*
X53918560Y-30167500D01*
X54107842Y-30167500D01*
X54107843Y-30167499D01*
X54293484Y-30130573D01*
X54468357Y-30058138D01*
X54625738Y-29952979D01*
X54759579Y-29819138D01*
X54864738Y-29661757D01*
X54901939Y-29571945D01*
X54945780Y-29517543D01*
X55012074Y-29495478D01*
X55079773Y-29512757D01*
X55127384Y-29563894D01*
X55131061Y-29571946D01*
X55168260Y-29661754D01*
X55168265Y-29661763D01*
X55273420Y-29819137D01*
X55273423Y-29819141D01*
X55407258Y-29952976D01*
X55407262Y-29952979D01*
X55564636Y-30058134D01*
X55564642Y-30058137D01*
X55564643Y-30058138D01*
X55739516Y-30130573D01*
X55843391Y-30151235D01*
X55925155Y-30167499D01*
X55925158Y-30167500D01*
X55925160Y-30167500D01*
X56114442Y-30167500D01*
X56114443Y-30167499D01*
X56300084Y-30130573D01*
X56474957Y-30058138D01*
X56632338Y-29952979D01*
X56766179Y-29819138D01*
X56871338Y-29661757D01*
X56908539Y-29571945D01*
X56952380Y-29517543D01*
X57018674Y-29495478D01*
X57086373Y-29512757D01*
X57133984Y-29563894D01*
X57137661Y-29571946D01*
X57174860Y-29661754D01*
X57174865Y-29661763D01*
X57280020Y-29819137D01*
X57280023Y-29819141D01*
X57413858Y-29952976D01*
X57413862Y-29952979D01*
X57571236Y-30058134D01*
X57571242Y-30058137D01*
X57571243Y-30058138D01*
X57746116Y-30130573D01*
X57849991Y-30151235D01*
X57931755Y-30167499D01*
X57931758Y-30167500D01*
X57931760Y-30167500D01*
X58121042Y-30167500D01*
X58121043Y-30167499D01*
X58306684Y-30130573D01*
X58481557Y-30058138D01*
X58638938Y-29952979D01*
X58772779Y-29819138D01*
X58877938Y-29661757D01*
X58915139Y-29571945D01*
X58958980Y-29517543D01*
X59025274Y-29495478D01*
X59092973Y-29512757D01*
X59140584Y-29563894D01*
X59144261Y-29571946D01*
X59181460Y-29661754D01*
X59181465Y-29661763D01*
X59286620Y-29819137D01*
X59286623Y-29819141D01*
X59420458Y-29952976D01*
X59420462Y-29952979D01*
X59577836Y-30058134D01*
X59577842Y-30058137D01*
X59577843Y-30058138D01*
X59752716Y-30130573D01*
X59856591Y-30151235D01*
X59938355Y-30167499D01*
X59938358Y-30167500D01*
X59938360Y-30167500D01*
X60127642Y-30167500D01*
X60127643Y-30167499D01*
X60313284Y-30130573D01*
X60488157Y-30058138D01*
X60645538Y-29952979D01*
X60779379Y-29819138D01*
X60884538Y-29661757D01*
X60921739Y-29571945D01*
X60965580Y-29517543D01*
X61031874Y-29495478D01*
X61099573Y-29512757D01*
X61147184Y-29563894D01*
X61150861Y-29571946D01*
X61188060Y-29661754D01*
X61188065Y-29661763D01*
X61293220Y-29819137D01*
X61293223Y-29819141D01*
X61427058Y-29952976D01*
X61427062Y-29952979D01*
X61584436Y-30058134D01*
X61584442Y-30058137D01*
X61584443Y-30058138D01*
X61759316Y-30130573D01*
X61863191Y-30151235D01*
X61944955Y-30167499D01*
X61944958Y-30167500D01*
X61944960Y-30167500D01*
X62134242Y-30167500D01*
X62134243Y-30167499D01*
X62319884Y-30130573D01*
X62494757Y-30058138D01*
X62494763Y-30058134D01*
X62528234Y-30035770D01*
X62591476Y-29993511D01*
X62652138Y-29952979D01*
X62785979Y-29819138D01*
X62821614Y-29765805D01*
X62875225Y-29721002D01*
X62944550Y-29712294D01*
X63007578Y-29742448D01*
X63035201Y-29778403D01*
X63053733Y-29814775D01*
X63066667Y-29832578D01*
X63639800Y-29259445D01*
X63639800Y-29260104D01*
X63667495Y-29363465D01*
X63720999Y-29456136D01*
X63796664Y-29531801D01*
X63889335Y-29585305D01*
X63992696Y-29613000D01*
X63993353Y-29613000D01*
X63420219Y-30186131D01*
X63438017Y-30199062D01*
X63600756Y-30281983D01*
X63774471Y-30338427D01*
X63954870Y-30367000D01*
X64137530Y-30367000D01*
X64317928Y-30338427D01*
X64491643Y-30281983D01*
X64654378Y-30199065D01*
X64672179Y-30186131D01*
X64099048Y-29613000D01*
X64099704Y-29613000D01*
X64203065Y-29585305D01*
X64295736Y-29531801D01*
X64371401Y-29456136D01*
X64424905Y-29363465D01*
X64452600Y-29260104D01*
X64452600Y-29259447D01*
X65025731Y-29832578D01*
X65038665Y-29814778D01*
X65121583Y-29652043D01*
X65178027Y-29478328D01*
X65206600Y-29297930D01*
X65206600Y-29115269D01*
X65178027Y-28934871D01*
X65121583Y-28761156D01*
X65038662Y-28598417D01*
X65025731Y-28580620D01*
X65025731Y-28580619D01*
X64452600Y-29153751D01*
X64452600Y-29153096D01*
X64424905Y-29049735D01*
X64371401Y-28957064D01*
X64295736Y-28881399D01*
X64203065Y-28827895D01*
X64099704Y-28800200D01*
X64099047Y-28800200D01*
X64672178Y-28227067D01*
X64654375Y-28214133D01*
X64654376Y-28214133D01*
X64618003Y-28195601D01*
X64567207Y-28147627D01*
X64550411Y-28079806D01*
X64572948Y-28013671D01*
X64605404Y-27982015D01*
X64658738Y-27946379D01*
X64792579Y-27812538D01*
X64897738Y-27655157D01*
X64970173Y-27480284D01*
X65007100Y-27294640D01*
X65007100Y-27105360D01*
X65007100Y-27105357D01*
X65007099Y-27105355D01*
X64985617Y-26997358D01*
X64970173Y-26919716D01*
X64899880Y-26750014D01*
X64897739Y-26744845D01*
X64897734Y-26744836D01*
X64792579Y-26587462D01*
X64792576Y-26587458D01*
X64658741Y-26453623D01*
X64658737Y-26453620D01*
X64548043Y-26379656D01*
X64501363Y-26348465D01*
X64501354Y-26348460D01*
X64336392Y-26280131D01*
X72324500Y-26280131D01*
X72324500Y-28119856D01*
X72324502Y-28119882D01*
X72327413Y-28144987D01*
X72327415Y-28144991D01*
X72372793Y-28247764D01*
X72372794Y-28247765D01*
X72452235Y-28327206D01*
X72555009Y-28372585D01*
X72580135Y-28375500D01*
X74419864Y-28375499D01*
X74419879Y-28375497D01*
X74419882Y-28375497D01*
X74444987Y-28372586D01*
X74444988Y-28372585D01*
X74444991Y-28372585D01*
X74547765Y-28327206D01*
X74627206Y-28247765D01*
X74672585Y-28144991D01*
X74675500Y-28119865D01*
X74675499Y-27706278D01*
X74695183Y-27639242D01*
X74747987Y-27593487D01*
X74817146Y-27583543D01*
X74880702Y-27612568D01*
X74909984Y-27649986D01*
X74972054Y-27771804D01*
X74994622Y-27816096D01*
X75103379Y-27965787D01*
X75234213Y-28096621D01*
X75383904Y-28205378D01*
X75426471Y-28227067D01*
X75548764Y-28289379D01*
X75548767Y-28289380D01*
X75634039Y-28317086D01*
X75724736Y-28346555D01*
X75907486Y-28375500D01*
X75907487Y-28375500D01*
X76092513Y-28375500D01*
X76092514Y-28375500D01*
X76275264Y-28346555D01*
X76451235Y-28289379D01*
X76616096Y-28205378D01*
X76765787Y-28096621D01*
X76896621Y-27965787D01*
X77005378Y-27816096D01*
X77089379Y-27651235D01*
X77132069Y-27519848D01*
X77171506Y-27462173D01*
X77235865Y-27434974D01*
X77304711Y-27446888D01*
X77356187Y-27494132D01*
X77367931Y-27519848D01*
X77410619Y-27651232D01*
X77410620Y-27651235D01*
X77490587Y-27808176D01*
X77494622Y-27816096D01*
X77603379Y-27965787D01*
X77734213Y-28096621D01*
X77883904Y-28205378D01*
X77926471Y-28227067D01*
X78048764Y-28289379D01*
X78048767Y-28289380D01*
X78134039Y-28317086D01*
X78224736Y-28346555D01*
X78407486Y-28375500D01*
X78407487Y-28375500D01*
X78592513Y-28375500D01*
X78592514Y-28375500D01*
X78775264Y-28346555D01*
X78951235Y-28289379D01*
X79116096Y-28205378D01*
X79265787Y-28096621D01*
X79396621Y-27965787D01*
X79505378Y-27816096D01*
X79527562Y-27772556D01*
X79575535Y-27721761D01*
X79643356Y-27704965D01*
X79709491Y-27727502D01*
X79748532Y-27772556D01*
X79823996Y-27920660D01*
X79866829Y-27979615D01*
X79866830Y-27979616D01*
X80517037Y-27329408D01*
X80534075Y-27392993D01*
X80599901Y-27507007D01*
X80692993Y-27600099D01*
X80807007Y-27665925D01*
X80870590Y-27682962D01*
X80220382Y-28333168D01*
X80279342Y-28376005D01*
X80472182Y-28474263D01*
X80472185Y-28474264D01*
X80678018Y-28541142D01*
X80891780Y-28575000D01*
X81108220Y-28575000D01*
X81321981Y-28541142D01*
X81527814Y-28474264D01*
X81527817Y-28474263D01*
X81720656Y-28376006D01*
X81779615Y-28333168D01*
X81779616Y-28333168D01*
X81129409Y-27682962D01*
X81192993Y-27665925D01*
X81307007Y-27600099D01*
X81400099Y-27507007D01*
X81465925Y-27392993D01*
X81482962Y-27329410D01*
X82133168Y-27979616D01*
X82133168Y-27979615D01*
X82176006Y-27920656D01*
X82274263Y-27727817D01*
X82274264Y-27727814D01*
X82341142Y-27521981D01*
X82363751Y-27379240D01*
X82363751Y-27379239D01*
X82375000Y-27308219D01*
X82375000Y-27091779D01*
X82341142Y-26878018D01*
X82274264Y-26672185D01*
X82274263Y-26672182D01*
X82176005Y-26479342D01*
X82133168Y-26420383D01*
X82133168Y-26420382D01*
X81482962Y-27070589D01*
X81465925Y-27007007D01*
X81400099Y-26892993D01*
X81307007Y-26799901D01*
X81192993Y-26734075D01*
X81129408Y-26717037D01*
X81569292Y-26277155D01*
X95625000Y-26277155D01*
X95625000Y-26950000D01*
X96538120Y-26950000D01*
X96510778Y-26997358D01*
X96475000Y-27130882D01*
X96475000Y-27269118D01*
X96510778Y-27402642D01*
X96538120Y-27450000D01*
X95625000Y-27450000D01*
X95625000Y-28122844D01*
X95631401Y-28182372D01*
X95631403Y-28182379D01*
X95681645Y-28317086D01*
X95681649Y-28317093D01*
X95767809Y-28432187D01*
X95767812Y-28432190D01*
X95882906Y-28518350D01*
X95882913Y-28518354D01*
X96017620Y-28568596D01*
X96017627Y-28568598D01*
X96077155Y-28574999D01*
X96077172Y-28575000D01*
X96166917Y-28575000D01*
X96233956Y-28594685D01*
X96279711Y-28647489D01*
X96289655Y-28716647D01*
X96260630Y-28780203D01*
X96239805Y-28799316D01*
X96234216Y-28803376D01*
X96234210Y-28803381D01*
X96103381Y-28934210D01*
X96103381Y-28934211D01*
X96103379Y-28934213D01*
X96102901Y-28934871D01*
X95994622Y-29083903D01*
X95910620Y-29248764D01*
X95910619Y-29248767D01*
X95853445Y-29424734D01*
X95824500Y-29607486D01*
X95824500Y-29792513D01*
X95853445Y-29975265D01*
X95910619Y-30151232D01*
X95910620Y-30151235D01*
X95994622Y-30316096D01*
X96103379Y-30465787D01*
X96234213Y-30596621D01*
X96383904Y-30705378D01*
X96464763Y-30746577D01*
X96548764Y-30789379D01*
X96548767Y-30789380D01*
X96636750Y-30817967D01*
X96724736Y-30846555D01*
X96907486Y-30875500D01*
X96907487Y-30875500D01*
X97092513Y-30875500D01*
X97092514Y-30875500D01*
X97275264Y-30846555D01*
X97451235Y-30789379D01*
X97616096Y-30705378D01*
X97765787Y-30596621D01*
X97896621Y-30465787D01*
X98005378Y-30316096D01*
X98089379Y-30151235D01*
X98146555Y-29975264D01*
X98175500Y-29792514D01*
X98175500Y-29607486D01*
X98146555Y-29424736D01*
X98105354Y-29297930D01*
X98089380Y-29248767D01*
X98089379Y-29248764D01*
X98005377Y-29083903D01*
X97896621Y-28934213D01*
X97765787Y-28803379D01*
X97765783Y-28803376D01*
X97760195Y-28799316D01*
X97717531Y-28743986D01*
X97711553Y-28674372D01*
X97744161Y-28612578D01*
X97805000Y-28578222D01*
X97833083Y-28575000D01*
X97922828Y-28575000D01*
X97922844Y-28574999D01*
X97982372Y-28568598D01*
X97982379Y-28568596D01*
X98117086Y-28518354D01*
X98117093Y-28518350D01*
X98232187Y-28432190D01*
X98232190Y-28432187D01*
X98318350Y-28317093D01*
X98318354Y-28317086D01*
X98368596Y-28182379D01*
X98368598Y-28182372D01*
X98374999Y-28122844D01*
X98375000Y-28122827D01*
X98375000Y-27450000D01*
X97461880Y-27450000D01*
X97489222Y-27402642D01*
X97525000Y-27269118D01*
X97525000Y-27130882D01*
X97489222Y-26997358D01*
X97461880Y-26950000D01*
X98375000Y-26950000D01*
X98375000Y-26277172D01*
X98374999Y-26277155D01*
X98368598Y-26217627D01*
X98368596Y-26217620D01*
X98318354Y-26082913D01*
X98318350Y-26082906D01*
X98232190Y-25967812D01*
X98232187Y-25967809D01*
X98117093Y-25881649D01*
X98117086Y-25881645D01*
X97982379Y-25831403D01*
X97982372Y-25831401D01*
X97922844Y-25825000D01*
X97250000Y-25825000D01*
X97250000Y-26738120D01*
X97202642Y-26710778D01*
X97069118Y-26675000D01*
X96930882Y-26675000D01*
X96797358Y-26710778D01*
X96750000Y-26738120D01*
X96750000Y-25825000D01*
X96077155Y-25825000D01*
X96017627Y-25831401D01*
X96017620Y-25831403D01*
X95882913Y-25881645D01*
X95882906Y-25881649D01*
X95767812Y-25967809D01*
X95767809Y-25967812D01*
X95681649Y-26082906D01*
X95681645Y-26082913D01*
X95631403Y-26217620D01*
X95631401Y-26217627D01*
X95625000Y-26277155D01*
X81569292Y-26277155D01*
X81660277Y-26186170D01*
X81779616Y-26066830D01*
X81779615Y-26066829D01*
X81720660Y-26023996D01*
X81527817Y-25925736D01*
X81527814Y-25925735D01*
X81321981Y-25858857D01*
X81108220Y-25825000D01*
X80891780Y-25825000D01*
X80678018Y-25858857D01*
X80472185Y-25925735D01*
X80472182Y-25925736D01*
X80279346Y-26023992D01*
X80220383Y-26066830D01*
X80870591Y-26717037D01*
X80807007Y-26734075D01*
X80692993Y-26799901D01*
X80599901Y-26892993D01*
X80534075Y-27007007D01*
X80517037Y-27070590D01*
X79866830Y-26420383D01*
X79823990Y-26479349D01*
X79748531Y-26627444D01*
X79700557Y-26678239D01*
X79632736Y-26695034D01*
X79566601Y-26672496D01*
X79527562Y-26627443D01*
X79505378Y-26583904D01*
X79396621Y-26434213D01*
X79265787Y-26303379D01*
X79143326Y-26214406D01*
X79143325Y-26214404D01*
X79116100Y-26194624D01*
X78951235Y-26110620D01*
X78951232Y-26110619D01*
X78775265Y-26053445D01*
X78610918Y-26027415D01*
X78592514Y-26024500D01*
X78407486Y-26024500D01*
X78389082Y-26027415D01*
X78224734Y-26053445D01*
X78048767Y-26110619D01*
X78048764Y-26110620D01*
X77883903Y-26194622D01*
X77800784Y-26255012D01*
X77734213Y-26303379D01*
X77734211Y-26303381D01*
X77734210Y-26303381D01*
X77603381Y-26434210D01*
X77603381Y-26434211D01*
X77603379Y-26434213D01*
X77589277Y-26453623D01*
X77494622Y-26583903D01*
X77410620Y-26748764D01*
X77410619Y-26748767D01*
X77367931Y-26880151D01*
X77328494Y-26937826D01*
X77264135Y-26965025D01*
X77195289Y-26953110D01*
X77143813Y-26905866D01*
X77132069Y-26880151D01*
X77089380Y-26748767D01*
X77089379Y-26748764D01*
X77027562Y-26627443D01*
X77005378Y-26583904D01*
X76896621Y-26434213D01*
X76765787Y-26303379D01*
X76616096Y-26194622D01*
X76599508Y-26186170D01*
X76451235Y-26110620D01*
X76451232Y-26110619D01*
X76275265Y-26053445D01*
X76110918Y-26027415D01*
X76092514Y-26024500D01*
X75907486Y-26024500D01*
X75889082Y-26027415D01*
X75724734Y-26053445D01*
X75548767Y-26110619D01*
X75548764Y-26110620D01*
X75383903Y-26194622D01*
X75300784Y-26255012D01*
X75234213Y-26303379D01*
X75234211Y-26303381D01*
X75234210Y-26303381D01*
X75103381Y-26434210D01*
X75103381Y-26434211D01*
X75103379Y-26434213D01*
X75089277Y-26453623D01*
X74994622Y-26583903D01*
X74909984Y-26750014D01*
X74862009Y-26800810D01*
X74794188Y-26817605D01*
X74728053Y-26795067D01*
X74684602Y-26740352D01*
X74675499Y-26693719D01*
X74675499Y-26280143D01*
X74675499Y-26280136D01*
X74675497Y-26280117D01*
X74672586Y-26255012D01*
X74672585Y-26255010D01*
X74672585Y-26255009D01*
X74627206Y-26152235D01*
X74547765Y-26072794D01*
X74503944Y-26053445D01*
X74444992Y-26027415D01*
X74419865Y-26024500D01*
X72580143Y-26024500D01*
X72580117Y-26024502D01*
X72555012Y-26027413D01*
X72555008Y-26027415D01*
X72452235Y-26072793D01*
X72372794Y-26152234D01*
X72327415Y-26255006D01*
X72327415Y-26255008D01*
X72324500Y-26280131D01*
X64336392Y-26280131D01*
X64326484Y-26276027D01*
X64326476Y-26276025D01*
X64140843Y-26239100D01*
X64140840Y-26239100D01*
X63951560Y-26239100D01*
X63951557Y-26239100D01*
X63765923Y-26276025D01*
X63765915Y-26276027D01*
X63591045Y-26348460D01*
X63591036Y-26348465D01*
X63433662Y-26453620D01*
X63433658Y-26453623D01*
X63299823Y-26587458D01*
X63299820Y-26587462D01*
X63194665Y-26744836D01*
X63194660Y-26744846D01*
X63157461Y-26834653D01*
X63113620Y-26889056D01*
X63047326Y-26911121D01*
X62979626Y-26893842D01*
X62932016Y-26842704D01*
X62928339Y-26834653D01*
X62892763Y-26748767D01*
X62891138Y-26744843D01*
X62891136Y-26744840D01*
X62891134Y-26744836D01*
X62785979Y-26587462D01*
X62785976Y-26587458D01*
X62652141Y-26453623D01*
X62652137Y-26453620D01*
X62494763Y-26348465D01*
X62494754Y-26348460D01*
X62319884Y-26276027D01*
X62319876Y-26276025D01*
X62134243Y-26239100D01*
X62134240Y-26239100D01*
X61944960Y-26239100D01*
X61944957Y-26239100D01*
X61759323Y-26276025D01*
X61759315Y-26276027D01*
X61584445Y-26348460D01*
X61584436Y-26348465D01*
X61427062Y-26453620D01*
X61427058Y-26453623D01*
X61293223Y-26587458D01*
X61293220Y-26587462D01*
X61188065Y-26744836D01*
X61188060Y-26744846D01*
X61150861Y-26834653D01*
X61107020Y-26889056D01*
X61040726Y-26911121D01*
X60973026Y-26893842D01*
X60925416Y-26842704D01*
X60921739Y-26834653D01*
X60886163Y-26748767D01*
X60884538Y-26744843D01*
X60884536Y-26744840D01*
X60884534Y-26744836D01*
X60779379Y-26587462D01*
X60779376Y-26587458D01*
X60645541Y-26453623D01*
X60645537Y-26453620D01*
X60488163Y-26348465D01*
X60488154Y-26348460D01*
X60313284Y-26276027D01*
X60313276Y-26276025D01*
X60127643Y-26239100D01*
X60127640Y-26239100D01*
X59938360Y-26239100D01*
X59938357Y-26239100D01*
X59752723Y-26276025D01*
X59752715Y-26276027D01*
X59577845Y-26348460D01*
X59577836Y-26348465D01*
X59420462Y-26453620D01*
X59420458Y-26453623D01*
X59286623Y-26587458D01*
X59286620Y-26587462D01*
X59181465Y-26744836D01*
X59181460Y-26744846D01*
X59144261Y-26834653D01*
X59100420Y-26889056D01*
X59034126Y-26911121D01*
X58966426Y-26893842D01*
X58918816Y-26842704D01*
X58915139Y-26834653D01*
X58879563Y-26748767D01*
X58877938Y-26744843D01*
X58877936Y-26744840D01*
X58877934Y-26744836D01*
X58772779Y-26587462D01*
X58772776Y-26587458D01*
X58638941Y-26453623D01*
X58638937Y-26453620D01*
X58481563Y-26348465D01*
X58481554Y-26348460D01*
X58306684Y-26276027D01*
X58306676Y-26276025D01*
X58121043Y-26239100D01*
X58121040Y-26239100D01*
X57931760Y-26239100D01*
X57931757Y-26239100D01*
X57746123Y-26276025D01*
X57746115Y-26276027D01*
X57571245Y-26348460D01*
X57571236Y-26348465D01*
X57413862Y-26453620D01*
X57413858Y-26453623D01*
X57280023Y-26587458D01*
X57280020Y-26587462D01*
X57174865Y-26744836D01*
X57174860Y-26744846D01*
X57137661Y-26834653D01*
X57093820Y-26889056D01*
X57027526Y-26911121D01*
X56959826Y-26893842D01*
X56912216Y-26842704D01*
X56908539Y-26834653D01*
X56872963Y-26748767D01*
X56871338Y-26744843D01*
X56871336Y-26744840D01*
X56871334Y-26744836D01*
X56766179Y-26587462D01*
X56766176Y-26587458D01*
X56632341Y-26453623D01*
X56632337Y-26453620D01*
X56474963Y-26348465D01*
X56474954Y-26348460D01*
X56300084Y-26276027D01*
X56300076Y-26276025D01*
X56114443Y-26239100D01*
X56114440Y-26239100D01*
X55925160Y-26239100D01*
X55925157Y-26239100D01*
X55739523Y-26276025D01*
X55739515Y-26276027D01*
X55564645Y-26348460D01*
X55564636Y-26348465D01*
X55407262Y-26453620D01*
X55407258Y-26453623D01*
X55273423Y-26587458D01*
X55273420Y-26587462D01*
X55168265Y-26744836D01*
X55168260Y-26744846D01*
X55131061Y-26834653D01*
X55087220Y-26889056D01*
X55020926Y-26911121D01*
X54953226Y-26893842D01*
X54905616Y-26842704D01*
X54901939Y-26834653D01*
X54866363Y-26748767D01*
X54864738Y-26744843D01*
X54864736Y-26744840D01*
X54864734Y-26744836D01*
X54759579Y-26587462D01*
X54759576Y-26587458D01*
X54625741Y-26453623D01*
X54625737Y-26453620D01*
X54468363Y-26348465D01*
X54468354Y-26348460D01*
X54293484Y-26276027D01*
X54293476Y-26276025D01*
X54107843Y-26239100D01*
X54107840Y-26239100D01*
X53918560Y-26239100D01*
X53918557Y-26239100D01*
X53732923Y-26276025D01*
X53732915Y-26276027D01*
X53558045Y-26348460D01*
X53558036Y-26348465D01*
X53400662Y-26453620D01*
X53400658Y-26453623D01*
X53266823Y-26587458D01*
X53266820Y-26587462D01*
X53161665Y-26744836D01*
X53161660Y-26744846D01*
X53124461Y-26834653D01*
X53080620Y-26889056D01*
X53014326Y-26911121D01*
X52946626Y-26893842D01*
X52899016Y-26842704D01*
X52895339Y-26834653D01*
X52859763Y-26748767D01*
X52858138Y-26744843D01*
X52858136Y-26744840D01*
X52858134Y-26744836D01*
X52752979Y-26587462D01*
X52752976Y-26587458D01*
X52619141Y-26453623D01*
X52619137Y-26453620D01*
X52461763Y-26348465D01*
X52461754Y-26348460D01*
X52286884Y-26276027D01*
X52286876Y-26276025D01*
X52101243Y-26239100D01*
X52101240Y-26239100D01*
X51911960Y-26239100D01*
X51911957Y-26239100D01*
X51726323Y-26276025D01*
X51726315Y-26276027D01*
X51551445Y-26348460D01*
X51551436Y-26348465D01*
X51394062Y-26453620D01*
X51394058Y-26453623D01*
X51260223Y-26587458D01*
X51260220Y-26587462D01*
X51224586Y-26640793D01*
X51170974Y-26685598D01*
X51101649Y-26694305D01*
X51038621Y-26664151D01*
X51010999Y-26628197D01*
X50992462Y-26591817D01*
X50979531Y-26574020D01*
X50979531Y-26574019D01*
X50406400Y-27147151D01*
X50406400Y-27146496D01*
X50378705Y-27043135D01*
X50325201Y-26950464D01*
X50249536Y-26874799D01*
X50156865Y-26821295D01*
X50053504Y-26793600D01*
X50052847Y-26793600D01*
X50625978Y-26220467D01*
X50608178Y-26207535D01*
X50445443Y-26124616D01*
X50271728Y-26068172D01*
X50091330Y-26039600D01*
X49908670Y-26039600D01*
X49728271Y-26068172D01*
X49554556Y-26124616D01*
X49391813Y-26207539D01*
X49391808Y-26207543D01*
X49374020Y-26220465D01*
X49374020Y-26220468D01*
X49947154Y-26793600D01*
X49946496Y-26793600D01*
X49843135Y-26821295D01*
X49750464Y-26874799D01*
X49674799Y-26950464D01*
X49621295Y-27043135D01*
X49593600Y-27146496D01*
X49593600Y-27147152D01*
X49020468Y-26574020D01*
X49020465Y-26574020D01*
X49007543Y-26591808D01*
X49007539Y-26591813D01*
X48924616Y-26754556D01*
X48868172Y-26928271D01*
X48839600Y-27108669D01*
X34503184Y-27108669D01*
X33972728Y-26578213D01*
X33972724Y-26578210D01*
X33841621Y-26490609D01*
X33841608Y-26490602D01*
X33695937Y-26430264D01*
X33695925Y-26430261D01*
X33541281Y-26399500D01*
X33541278Y-26399500D01*
X32138270Y-26399500D01*
X32108829Y-26390855D01*
X32078843Y-26384332D01*
X32073827Y-26380577D01*
X32071231Y-26379815D01*
X32050589Y-26363181D01*
X31990789Y-26303381D01*
X31990787Y-26303379D01*
X31841096Y-26194622D01*
X31824508Y-26186170D01*
X31676235Y-26110620D01*
X31676232Y-26110619D01*
X31500265Y-26053445D01*
X31335918Y-26027415D01*
X31317514Y-26024500D01*
X31132486Y-26024500D01*
X31114082Y-26027415D01*
X30949734Y-26053445D01*
X30773767Y-26110619D01*
X30773764Y-26110620D01*
X30608903Y-26194622D01*
X30525784Y-26255012D01*
X30459213Y-26303379D01*
X30459211Y-26303381D01*
X30459210Y-26303381D01*
X30328381Y-26434210D01*
X30328381Y-26434211D01*
X30328379Y-26434213D01*
X30314277Y-26453623D01*
X30219622Y-26583903D01*
X30135620Y-26748764D01*
X30135619Y-26748767D01*
X30078445Y-26924734D01*
X30074370Y-26950464D01*
X30049500Y-27107486D01*
X27750500Y-27107486D01*
X27750500Y-25454427D01*
X27750816Y-25445581D01*
X27765130Y-25245443D01*
X27765131Y-25245434D01*
X27767646Y-25227938D01*
X27809356Y-25036199D01*
X27814333Y-25019248D01*
X27882911Y-24835385D01*
X27890259Y-24819298D01*
X27952815Y-24704734D01*
X27984291Y-24647089D01*
X27993845Y-24632221D01*
X28111448Y-24475123D01*
X28123020Y-24461769D01*
X28261769Y-24323020D01*
X28275123Y-24311448D01*
X28432221Y-24193845D01*
X28447089Y-24184291D01*
X28619298Y-24090258D01*
X28635385Y-24082911D01*
X28819248Y-24014333D01*
X28836199Y-24009356D01*
X29027938Y-23967646D01*
X29045436Y-23965130D01*
X29245582Y-23950816D01*
X29254428Y-23950500D01*
X29315892Y-23950500D01*
X98434108Y-23950500D01*
X98495572Y-23950500D01*
X98504418Y-23950816D01*
G37*
%TD.AperFunction*%
%TD*%
M02*
