M48
; DRILL file {KiCad 9.0.5} date 2026-07-08T16:27:10-0600
; FORMAT={-:-/ absolute / metric / decimal}
; #@! TF.CreationDate,2026-07-08T16:27:10-06:00
; #@! TF.GenerationSoftware,Kicad,Pcbnew,9.0.5
; #@! TF.FileFunction,Plated,1,2,PTH
FMAT,2
METRIC
; #@! TA.AperFunction,Plated,PTH,ViaDrill
T1C0.300
; #@! TA.AperFunction,Plated,PTH,ComponentDrill
T2C0.711
; #@! TA.AperFunction,Plated,PTH,ComponentDrill
T3C0.813
; #@! TA.AperFunction,Plated,PTH,ComponentDrill
T4C1.000
; #@! TA.AperFunction,Plated,PTH,ComponentDrill
T5C1.020
; #@! TA.AperFunction,Plated,PTH,ComponentDrill
T6C1.050
%
G90
G05
T1
X33.5Y-72.2
X34.5Y-73.7
X44.0Y-40.7
X44.0Y-43.2
X44.0Y-45.7
X44.0Y-48.2
X44.0Y-50.7
X44.0Y-53.2
X44.0Y-55.7
X46.25Y-59.806
X52.1Y-59.813
X52.5Y-65.913
X52.75Y-63.45
X54.7Y-65.213
X54.8Y-59.813
X54.8Y-62.813
X62.25Y-61.2
X67.454Y-64.688
X67.454Y-66.212
X69.984Y-63.451
X72.28Y-66.212
X73.757Y-64.725
X75.836Y-64.18
T2
X67.5Y-40.2
X70.0Y-37.7
X72.5Y-40.2
T3
X50.0Y-27.2
X50.0Y-29.207
X52.007Y-27.2
X52.007Y-29.207
X54.013Y-27.2
X54.013Y-29.207
X56.02Y-27.2
X56.02Y-29.207
X58.026Y-27.2
X58.026Y-29.207
X60.033Y-27.2
X60.033Y-29.207
X62.04Y-27.2
X62.04Y-29.207
X64.046Y-27.2
X64.046Y-29.207
T4
X31.225Y-35.7
X31.225Y-38.2
X31.225Y-40.7
X31.225Y-43.2
X31.225Y-45.7
X31.225Y-48.2
X31.225Y-50.7
X73.5Y-27.2
X76.0Y-27.2
X78.5Y-27.2
X81.0Y-27.2
X97.0Y-35.7
X97.0Y-38.2
X97.0Y-40.7
X97.0Y-43.2
X97.0Y-45.7
X97.0Y-48.2
X97.0Y-50.7
X97.0Y-53.2
X97.0Y-55.7
T5
X38.492Y-72.55
X41.032Y-34.45
X41.032Y-72.55
X43.572Y-34.45
X43.572Y-72.55
X46.112Y-34.45
X46.112Y-72.55
X48.652Y-34.45
X48.652Y-72.55
X51.192Y-34.45
X51.192Y-72.55
X53.732Y-34.45
X53.732Y-72.55
X56.273Y-34.45
X56.273Y-72.55
X58.812Y-34.45
X58.812Y-72.55
X61.352Y-34.45
X61.352Y-72.55
X63.892Y-34.45
X63.892Y-72.55
X66.432Y-34.45
X66.432Y-72.55
X68.972Y-34.45
X68.972Y-72.55
X71.513Y-34.45
X71.513Y-72.55
X74.052Y-34.45
X74.052Y-72.55
X76.593Y-34.45
X76.593Y-72.55
X79.132Y-34.45
X79.132Y-72.55
X81.672Y-34.45
X81.672Y-72.55
X84.212Y-34.45
X84.212Y-72.55
X86.752Y-34.45
X86.752Y-72.55
X89.292Y-34.45
T6
X31.225Y-27.2
X31.225Y-29.7
X31.225Y-56.7
X31.225Y-59.2
X31.25Y-65.2
X31.25Y-67.7
X97.0Y-27.2
X97.0Y-29.7
X97.0Y-61.7
X97.0Y-64.2
M30
